<?xml version="1.0" encoding="UTF-8"?>
<svg xmlns="http://www.w3.org/2000/svg" xmlns:xlink="http://www.w3.org/1999/xlink" width="361pt" height="212pt" viewBox="0 0 361 212" version="1.1">
<defs>
<clipPath id="clip1">
  <path d="M 60 9 L 62 9 L 62 182.25 L 60 182.25 Z M 60 9 "/>
</clipPath>
<clipPath id="clip2">
  <path d="M 105 9 L 107 9 L 107 182.25 L 105 182.25 Z M 105 9 "/>
</clipPath>
<clipPath id="clip3">
  <path d="M 149 9 L 152 9 L 152 182.25 L 149 182.25 Z M 149 9 "/>
</clipPath>
<clipPath id="clip4">
  <path d="M 194 9 L 197 9 L 197 182.25 L 194 182.25 Z M 194 9 "/>
</clipPath>
<clipPath id="clip5">
  <path d="M 239 9 L 242 9 L 242 182.25 L 239 182.25 Z M 239 9 "/>
</clipPath>
<clipPath id="clip6">
  <path d="M 284 9 L 286 9 L 286 182.25 L 284 182.25 Z M 284 9 "/>
</clipPath>
<clipPath id="clip7">
  <path d="M 329 9 L 331 9 L 331 182.25 L 329 182.25 Z M 329 9 "/>
</clipPath>
<clipPath id="clip8">
  <path d="M 37.628906 173 L 351.503906 173 L 351.503906 176 L 37.628906 176 Z M 37.628906 173 "/>
</clipPath>
<clipPath id="clip9">
  <path d="M 37.628906 142 L 351.503906 142 L 351.503906 144 L 37.628906 144 Z M 37.628906 142 "/>
</clipPath>
<clipPath id="clip10">
  <path d="M 37.628906 110 L 351.503906 110 L 351.503906 113 L 37.628906 113 Z M 37.628906 110 "/>
</clipPath>
<clipPath id="clip11">
  <path d="M 37.628906 79 L 351.503906 79 L 351.503906 81 L 37.628906 81 Z M 37.628906 79 "/>
</clipPath>
<clipPath id="clip12">
  <path d="M 37.628906 47 L 351.503906 47 L 351.503906 50 L 37.628906 50 Z M 37.628906 47 "/>
</clipPath>
<clipPath id="clip13">
  <path d="M 37.628906 16 L 351.503906 16 L 351.503906 18 L 37.628906 18 Z M 37.628906 16 "/>
</clipPath>
<filter id="alpha" filterUnits="objectBoundingBox" x="0%" y="0%" width="100%" height="100%">
  <feColorMatrix type="matrix" in="SourceGraphic" values="0 0 0 0 1 0 0 0 0 1 0 0 0 0 1 0 0 0 1 0"/>
</filter>
<mask id="mask0">
  <g filter="url(#alpha)">
<rect x="0" y="0" width="361" height="212" style="fill:rgb(0%,0%,0%);fill-opacity:0.8;stroke:none;"/>
  </g>
</mask>
<clipPath id="clip14">
  <rect x="0" y="0" width="361" height="212"/>
</clipPath>
<g id="surface5" clip-path="url(#clip14)">
<path style="fill-rule:nonzero;fill:rgb(100%,100%,100%);fill-opacity:1;stroke-width:1;stroke-linecap:butt;stroke-linejoin:miter;stroke:rgb(80%,80%,80%);stroke-opacity:1;stroke-miterlimit:4;" d="M 37.103125 44.55625 L 111.228125 44.55625 C 112.5625 44.55625 113.228125 43.890625 113.228125 42.55625 L 113.228125 14.2 C 113.228125 12.865625 112.5625 12.2 111.228125 12.2 L 37.103125 12.2 C 35.76875 12.2 35.103125 12.865625 35.103125 14.2 L 35.103125 42.55625 C 35.103125 43.890625 35.76875 44.55625 37.103125 44.55625 Z M 37.103125 44.55625 " transform="matrix(1.25,0,0,1.25,0.000000000000028422,0)"/>
</g>
</defs>
<g id="surface1">
<path style=" stroke:none;fill-rule:nonzero;fill:rgb(100%,100%,100%);fill-opacity:1;" d="M 0 212.097656 L 360.503906 212.097656 L 360.503906 0 L 0 0 Z M 0 212.097656 "/>
<path style=" stroke:none;fill-rule:nonzero;fill:rgb(100%,100%,100%);fill-opacity:1;" d="M 37.628906 182.25 L 351.503906 182.25 L 351.503906 9 L 37.628906 9 Z M 37.628906 182.25 "/>
<g clip-path="url(#clip1)" clip-rule="nonzero">
<path style="fill:none;stroke-width:0.8;stroke-linecap:square;stroke-linejoin:round;stroke:rgb(69.019608%,69.019608%,69.019608%);stroke-opacity:1;stroke-miterlimit:4;" d="M 48.69375 145.8 L 48.69375 7.2 " transform="matrix(1.25,0,0,1.25,0.000000000000028422,0)"/>
</g>
<path style="fill:none;stroke-width:0.8;stroke-linecap:butt;stroke-linejoin:round;stroke:rgb(0%,0%,0%);stroke-opacity:1;stroke-miterlimit:4;" d="M -0.001399 0.000000000000028422 L -0.001399 3.5 " transform="matrix(1.25,0,0,1.25,60.868936,182.25)"/>
<path style=" stroke:none;fill-rule:nonzero;fill:rgb(0%,0%,0%);fill-opacity:1;" d="M 47.015625 196.0625 L 54.839844 196.0625 L 54.839844 197.097656 L 47.015625 197.097656 Z M 47.015625 196.0625 "/>
<path style=" stroke:none;fill-rule:nonzero;fill:rgb(0%,0%,0%);fill-opacity:1;" d="M 57.191406 191.386719 L 63.050781 191.386719 L 63.050781 191.910156 L 59.742188 200.5 L 58.453125 200.5 L 61.566406 192.425781 L 57.191406 192.425781 Z M 57.191406 191.386719 "/>
<path style=" stroke:none;fill-rule:nonzero;fill:rgb(0%,0%,0%);fill-opacity:1;" d="M 65.453125 198.949219 L 66.742188 198.949219 L 66.742188 200.5 L 65.453125 200.5 Z M 65.453125 198.949219 "/>
<path style=" stroke:none;fill-rule:nonzero;fill:rgb(0%,0%,0%);fill-opacity:1;" d="M 69.441406 191.386719 L 74.28125 191.386719 L 74.28125 192.425781 L 70.570312 192.425781 L 70.570312 194.65625 C 70.75 194.59375 70.925781 194.550781 71.105469 194.519531 C 71.285156 194.488281 71.464844 194.476562 71.644531 194.476562 C 72.660156 194.476562 73.46875 194.753906 74.0625 195.3125 C 74.65625 195.867188 74.953125 196.621094 74.953125 197.574219 C 74.953125 198.554688 74.648438 199.316406 74.039062 199.863281 C 73.425781 200.40625 72.566406 200.675781 71.457031 200.675781 C 71.074219 200.675781 70.683594 200.644531 70.285156 200.578125 C 69.890625 200.511719 69.480469 200.414062 69.058594 200.285156 L 69.058594 199.046875 C 69.421875 199.246094 69.800781 199.394531 70.191406 199.492188 C 70.582031 199.589844 70.996094 199.636719 71.429688 199.636719 C 72.132812 199.636719 72.691406 199.453125 73.101562 199.082031 C 73.511719 198.710938 73.71875 198.210938 73.71875 197.574219 C 73.71875 196.941406 73.511719 196.4375 73.101562 196.070312 C 72.691406 195.699219 72.132812 195.511719 71.429688 195.511719 C 71.101562 195.511719 70.773438 195.546875 70.445312 195.621094 C 70.117188 195.695312 69.78125 195.808594 69.441406 195.964844 Z M 69.441406 191.386719 "/>
<g clip-path="url(#clip2)" clip-rule="nonzero">
<path style="fill:none;stroke-width:0.8;stroke-linecap:square;stroke-linejoin:round;stroke:rgb(69.019608%,69.019608%,69.019608%);stroke-opacity:1;stroke-miterlimit:4;" d="M 84.5875 145.8 L 84.5875 7.2 " transform="matrix(1.25,0,0,1.25,0.000000000000028422,0)"/>
</g>
<path style="fill:none;stroke-width:0.8;stroke-linecap:butt;stroke-linejoin:round;stroke:rgb(0%,0%,0%);stroke-opacity:1;stroke-miterlimit:4;" d="M 0.000412 0.000000000000028422 L 0.000412 3.5 " transform="matrix(1.25,0,0,1.25,105.73386,182.25)"/>
<path style=" stroke:none;fill-rule:nonzero;fill:rgb(0%,0%,0%);fill-opacity:1;" d="M 91.882812 196.0625 L 99.707031 196.0625 L 99.707031 197.097656 L 91.882812 197.097656 Z M 91.882812 196.0625 "/>
<path style=" stroke:none;fill-rule:nonzero;fill:rgb(0%,0%,0%);fill-opacity:1;" d="M 102.378906 191.386719 L 107.21875 191.386719 L 107.21875 192.425781 L 103.507812 192.425781 L 103.507812 194.65625 C 103.6875 194.59375 103.867188 194.550781 104.042969 194.519531 C 104.222656 194.488281 104.402344 194.476562 104.582031 194.476562 C 105.601562 194.476562 106.40625 194.753906 107 195.3125 C 107.59375 195.867188 107.890625 196.621094 107.890625 197.574219 C 107.890625 198.554688 107.585938 199.316406 106.976562 199.863281 C 106.367188 200.40625 105.503906 200.675781 104.394531 200.675781 C 104.011719 200.675781 103.621094 200.644531 103.222656 200.578125 C 102.828125 200.511719 102.417969 200.414062 101.996094 200.285156 L 101.996094 199.046875 C 102.363281 199.246094 102.738281 199.394531 103.128906 199.492188 C 103.519531 199.589844 103.933594 199.636719 104.367188 199.636719 C 105.074219 199.636719 105.628906 199.453125 106.039062 199.082031 C 106.453125 198.710938 106.65625 198.210938 106.65625 197.574219 C 106.65625 196.941406 106.453125 196.4375 106.039062 196.070312 C 105.628906 195.699219 105.074219 195.511719 104.367188 195.511719 C 104.039062 195.511719 103.710938 195.546875 103.382812 195.621094 C 103.054688 195.695312 102.722656 195.808594 102.378906 195.964844 Z M 102.378906 191.386719 "/>
<path style=" stroke:none;fill-rule:nonzero;fill:rgb(0%,0%,0%);fill-opacity:1;" d="M 110.320312 198.949219 L 111.609375 198.949219 L 111.609375 200.5 L 110.320312 200.5 Z M 110.320312 198.949219 "/>
<path style=" stroke:none;fill-rule:nonzero;fill:rgb(0%,0%,0%);fill-opacity:1;" d="M 116.929688 192.199219 C 116.296875 192.199219 115.816406 192.511719 115.496094 193.136719 C 115.179688 193.757812 115.019531 194.699219 115.019531 195.953125 C 115.019531 197.199219 115.179688 198.136719 115.496094 198.761719 C 115.816406 199.386719 116.296875 199.699219 116.929688 199.699219 C 117.570312 199.699219 118.046875 199.386719 118.367188 198.761719 C 118.6875 198.136719 118.847656 197.199219 118.847656 195.953125 C 118.847656 194.699219 118.6875 193.757812 118.367188 193.136719 C 118.046875 192.511719 117.570312 192.199219 116.929688 192.199219 Z M 116.929688 191.222656 C 117.953125 191.222656 118.730469 191.625 119.269531 192.433594 C 119.808594 193.242188 120.078125 194.414062 120.078125 195.953125 C 120.078125 197.484375 119.808594 198.65625 119.269531 199.464844 C 118.730469 200.273438 117.953125 200.675781 116.929688 200.675781 C 115.910156 200.675781 115.128906 200.273438 114.589844 199.464844 C 114.050781 198.65625 113.78125 197.484375 113.78125 195.953125 C 113.78125 194.414062 114.050781 193.242188 114.589844 192.433594 C 115.128906 191.625 115.910156 191.222656 116.929688 191.222656 Z M 116.929688 191.222656 "/>
<g clip-path="url(#clip3)" clip-rule="nonzero">
<path style="fill:none;stroke-width:0.8;stroke-linecap:square;stroke-linejoin:round;stroke:rgb(69.019608%,69.019608%,69.019608%);stroke-opacity:1;stroke-miterlimit:4;" d="M 120.478125 145.8 L 120.478125 7.2 " transform="matrix(1.25,0,0,1.25,0.000000000000028422,0)"/>
</g>
<path style="fill:none;stroke-width:0.8;stroke-linecap:butt;stroke-linejoin:round;stroke:rgb(0%,0%,0%);stroke-opacity:1;stroke-miterlimit:4;" d="M -0.000902 0.000000000000028422 L -0.000902 3.5 " transform="matrix(1.25,0,0,1.25,150.598784,182.25)"/>
<path style=" stroke:none;fill-rule:nonzero;fill:rgb(0%,0%,0%);fill-opacity:1;" d="M 136.746094 196.0625 L 144.570312 196.0625 L 144.570312 197.097656 L 136.746094 197.097656 Z M 136.746094 196.0625 "/>
<path style=" stroke:none;fill-rule:nonzero;fill:rgb(0%,0%,0%);fill-opacity:1;" d="M 148.292969 199.460938 L 152.597656 199.460938 L 152.597656 200.5 L 146.8125 200.5 L 146.8125 199.460938 C 147.277344 198.976562 147.917969 198.328125 148.722656 197.511719 C 149.53125 196.695312 150.039062 196.167969 150.246094 195.933594 C 150.640625 195.488281 150.917969 195.113281 151.074219 194.808594 C 151.230469 194.5 151.308594 194.199219 151.308594 193.902344 C 151.308594 193.417969 151.140625 193.023438 150.800781 192.71875 C 150.460938 192.410156 150.015625 192.257812 149.472656 192.257812 C 149.085938 192.257812 148.675781 192.324219 148.246094 192.460938 C 147.820312 192.59375 147.359375 192.796875 146.871094 193.070312 L 146.871094 191.824219 C 147.367188 191.625 147.832031 191.476562 148.261719 191.375 C 148.695312 191.273438 149.089844 191.222656 149.449219 191.222656 C 150.390625 191.222656 151.144531 191.457031 151.707031 191.929688 C 152.265625 192.402344 152.546875 193.03125 152.546875 193.820312 C 152.546875 194.195312 152.476562 194.550781 152.335938 194.886719 C 152.199219 195.222656 151.941406 195.617188 151.570312 196.074219 C 151.46875 196.191406 151.144531 196.53125 150.601562 197.097656 C 150.054688 197.660156 149.289062 198.449219 148.292969 199.460938 Z M 148.292969 199.460938 "/>
<path style=" stroke:none;fill-rule:nonzero;fill:rgb(0%,0%,0%);fill-opacity:1;" d="M 155.183594 198.949219 L 156.472656 198.949219 L 156.472656 200.5 L 155.183594 200.5 Z M 155.183594 198.949219 "/>
<path style=" stroke:none;fill-rule:nonzero;fill:rgb(0%,0%,0%);fill-opacity:1;" d="M 159.171875 191.386719 L 164.011719 191.386719 L 164.011719 192.425781 L 160.300781 192.425781 L 160.300781 194.65625 C 160.480469 194.59375 160.65625 194.550781 160.835938 194.519531 C 161.015625 194.488281 161.195312 194.476562 161.375 194.476562 C 162.390625 194.476562 163.195312 194.753906 163.789062 195.3125 C 164.386719 195.867188 164.683594 196.621094 164.683594 197.574219 C 164.683594 198.554688 164.378906 199.316406 163.765625 199.863281 C 163.15625 200.40625 162.296875 200.675781 161.183594 200.675781 C 160.800781 200.675781 160.414062 200.644531 160.015625 200.578125 C 159.621094 200.511719 159.210938 200.414062 158.785156 200.285156 L 158.785156 199.046875 C 159.152344 199.246094 159.53125 199.394531 159.921875 199.492188 C 160.3125 199.589844 160.726562 199.636719 161.160156 199.636719 C 161.863281 199.636719 162.421875 199.453125 162.832031 199.082031 C 163.242188 198.710938 163.449219 198.210938 163.449219 197.574219 C 163.449219 196.941406 163.242188 196.4375 162.832031 196.070312 C 162.421875 195.699219 161.863281 195.511719 161.160156 195.511719 C 160.832031 195.511719 160.5 195.546875 160.171875 195.621094 C 159.847656 195.695312 159.511719 195.808594 159.171875 195.964844 Z M 159.171875 191.386719 "/>
<g clip-path="url(#clip4)" clip-rule="nonzero">
<path style="fill:none;stroke-width:0.8;stroke-linecap:square;stroke-linejoin:round;stroke:rgb(69.019608%,69.019608%,69.019608%);stroke-opacity:1;stroke-miterlimit:4;" d="M 156.371875 145.8 L 156.371875 7.2 " transform="matrix(1.25,0,0,1.25,0.000000000000028422,0)"/>
</g>
<path style="fill:none;stroke-width:0.8;stroke-linecap:butt;stroke-linejoin:round;stroke:rgb(0%,0%,0%);stroke-opacity:1;stroke-miterlimit:4;" d="M 0.000908 0.000000000000028422 L 0.000908 3.5 " transform="matrix(1.25,0,0,1.25,195.463709,182.25)"/>
<path style=" stroke:none;fill-rule:nonzero;fill:rgb(0%,0%,0%);fill-opacity:1;" d="M 189.496094 192.199219 C 188.863281 192.199219 188.386719 192.511719 188.066406 193.136719 C 187.746094 193.757812 187.585938 194.699219 187.585938 195.953125 C 187.585938 197.199219 187.746094 198.136719 188.066406 198.761719 C 188.386719 199.386719 188.863281 199.699219 189.496094 199.699219 C 190.136719 199.699219 190.617188 199.386719 190.933594 198.761719 C 191.253906 198.136719 191.414062 197.199219 191.414062 195.953125 C 191.414062 194.699219 191.253906 193.757812 190.933594 193.136719 C 190.617188 192.511719 190.136719 192.199219 189.496094 192.199219 Z M 189.496094 191.222656 C 190.519531 191.222656 191.300781 191.625 191.839844 192.433594 C 192.378906 193.242188 192.648438 194.414062 192.648438 195.953125 C 192.648438 197.484375 192.378906 198.65625 191.839844 199.464844 C 191.300781 200.273438 190.519531 200.675781 189.496094 200.675781 C 188.476562 200.675781 187.695312 200.273438 187.15625 199.464844 C 186.617188 198.65625 186.347656 197.484375 186.347656 195.953125 C 186.347656 194.414062 186.617188 193.242188 187.15625 192.433594 C 187.695312 191.625 188.476562 191.222656 189.496094 191.222656 Z M 189.496094 191.222656 "/>
<path style=" stroke:none;fill-rule:nonzero;fill:rgb(0%,0%,0%);fill-opacity:1;" d="M 194.8125 198.949219 L 196.101562 198.949219 L 196.101562 200.5 L 194.8125 200.5 Z M 194.8125 198.949219 "/>
<path style=" stroke:none;fill-rule:nonzero;fill:rgb(0%,0%,0%);fill-opacity:1;" d="M 201.421875 192.199219 C 200.789062 192.199219 200.3125 192.511719 199.992188 193.136719 C 199.671875 193.757812 199.511719 194.699219 199.511719 195.953125 C 199.511719 197.199219 199.671875 198.136719 199.992188 198.761719 C 200.3125 199.386719 200.789062 199.699219 201.421875 199.699219 C 202.0625 199.699219 202.542969 199.386719 202.859375 198.761719 C 203.179688 198.136719 203.339844 197.199219 203.339844 195.953125 C 203.339844 194.699219 203.179688 193.757812 202.859375 193.136719 C 202.542969 192.511719 202.0625 192.199219 201.421875 192.199219 Z M 201.421875 191.222656 C 202.445312 191.222656 203.226562 191.625 203.765625 192.433594 C 204.304688 193.242188 204.574219 194.414062 204.574219 195.953125 C 204.574219 197.484375 204.304688 198.65625 203.765625 199.464844 C 203.226562 200.273438 202.445312 200.675781 201.421875 200.675781 C 200.402344 200.675781 199.621094 200.273438 199.082031 199.464844 C 198.542969 198.65625 198.273438 197.484375 198.273438 195.953125 C 198.273438 194.414062 198.542969 193.242188 199.082031 192.433594 C 199.621094 191.625 200.402344 191.222656 201.421875 191.222656 Z M 201.421875 191.222656 "/>
<g clip-path="url(#clip5)" clip-rule="nonzero">
<path style="fill:none;stroke-width:0.8;stroke-linecap:square;stroke-linejoin:round;stroke:rgb(69.019608%,69.019608%,69.019608%);stroke-opacity:1;stroke-miterlimit:4;" d="M 192.2625 145.8 L 192.2625 7.2 " transform="matrix(1.25,0,0,1.25,0.000000000000028422,0)"/>
</g>
<path style="fill:none;stroke-width:0.8;stroke-linecap:butt;stroke-linejoin:round;stroke:rgb(0%,0%,0%);stroke-opacity:1;stroke-miterlimit:4;" d="M -0.000406 0.000000000000028422 L -0.000406 3.5 " transform="matrix(1.25,0,0,1.25,240.328632,182.25)"/>
<path style=" stroke:none;fill-rule:nonzero;fill:rgb(0%,0%,0%);fill-opacity:1;" d="M 232.789062 199.460938 L 237.089844 199.460938 L 237.089844 200.5 L 231.304688 200.5 L 231.304688 199.460938 C 231.773438 198.976562 232.410156 198.328125 233.21875 197.511719 C 234.027344 196.695312 234.535156 196.167969 234.742188 195.933594 C 235.136719 195.488281 235.410156 195.113281 235.566406 194.808594 C 235.722656 194.5 235.804688 194.199219 235.804688 193.902344 C 235.804688 193.417969 235.632812 193.023438 235.292969 192.71875 C 234.953125 192.410156 234.511719 192.257812 233.964844 192.257812 C 233.578125 192.257812 233.171875 192.324219 232.742188 192.460938 C 232.3125 192.59375 231.855469 192.796875 231.367188 193.070312 L 231.367188 191.824219 C 231.863281 191.625 232.324219 191.476562 232.757812 191.375 C 233.1875 191.273438 233.582031 191.222656 233.941406 191.222656 C 234.886719 191.222656 235.636719 191.457031 236.199219 191.929688 C 236.761719 192.402344 237.042969 193.03125 237.042969 193.820312 C 237.042969 194.195312 236.972656 194.550781 236.832031 194.886719 C 236.691406 195.222656 236.4375 195.617188 236.066406 196.074219 C 235.964844 196.191406 235.640625 196.53125 235.09375 197.097656 C 234.550781 197.660156 233.78125 198.449219 232.789062 199.460938 Z M 232.789062 199.460938 "/>
<path style=" stroke:none;fill-rule:nonzero;fill:rgb(0%,0%,0%);fill-opacity:1;" d="M 239.679688 198.949219 L 240.96875 198.949219 L 240.96875 200.5 L 239.679688 200.5 Z M 239.679688 198.949219 "/>
<path style=" stroke:none;fill-rule:nonzero;fill:rgb(0%,0%,0%);fill-opacity:1;" d="M 243.664062 191.386719 L 248.503906 191.386719 L 248.503906 192.425781 L 244.792969 192.425781 L 244.792969 194.65625 C 244.972656 194.59375 245.152344 194.550781 245.328125 194.519531 C 245.507812 194.488281 245.6875 194.476562 245.867188 194.476562 C 246.886719 194.476562 247.691406 194.753906 248.285156 195.3125 C 248.878906 195.867188 249.175781 196.621094 249.175781 197.574219 C 249.175781 198.554688 248.871094 199.316406 248.261719 199.863281 C 247.648438 200.40625 246.789062 200.675781 245.679688 200.675781 C 245.296875 200.675781 244.90625 200.644531 244.507812 200.578125 C 244.113281 200.511719 243.703125 200.414062 243.28125 200.285156 L 243.28125 199.046875 C 243.644531 199.246094 244.023438 199.394531 244.414062 199.492188 C 244.804688 199.589844 245.21875 199.636719 245.652344 199.636719 C 246.359375 199.636719 246.914062 199.453125 247.324219 199.082031 C 247.738281 198.710938 247.941406 198.210938 247.941406 197.574219 C 247.941406 196.941406 247.738281 196.4375 247.324219 196.070312 C 246.914062 195.699219 246.359375 195.511719 245.652344 195.511719 C 245.324219 195.511719 244.996094 195.546875 244.667969 195.621094 C 244.339844 195.695312 244.007812 195.808594 243.664062 195.964844 Z M 243.664062 191.386719 "/>
<g clip-path="url(#clip6)" clip-rule="nonzero">
<path style="fill:none;stroke-width:0.8;stroke-linecap:square;stroke-linejoin:round;stroke:rgb(69.019608%,69.019608%,69.019608%);stroke-opacity:1;stroke-miterlimit:4;" d="M 228.15625 145.8 L 228.15625 7.2 " transform="matrix(1.25,0,0,1.25,0.000000000000028422,0)"/>
</g>
<path style="fill:none;stroke-width:0.8;stroke-linecap:butt;stroke-linejoin:round;stroke:rgb(0%,0%,0%);stroke-opacity:1;stroke-miterlimit:4;" d="M 0.001405 0.000000000000028422 L 0.001405 3.5 " transform="matrix(1.25,0,0,1.25,285.193556,182.25)"/>
<path style=" stroke:none;fill-rule:nonzero;fill:rgb(0%,0%,0%);fill-opacity:1;" d="M 276.605469 191.386719 L 281.445312 191.386719 L 281.445312 192.425781 L 277.734375 192.425781 L 277.734375 194.65625 C 277.910156 194.59375 278.089844 194.550781 278.269531 194.519531 C 278.449219 194.488281 278.628906 194.476562 278.808594 194.476562 C 279.824219 194.476562 280.628906 194.753906 281.222656 195.3125 C 281.816406 195.867188 282.117188 196.621094 282.117188 197.574219 C 282.117188 198.554688 281.808594 199.316406 281.199219 199.863281 C 280.589844 200.40625 279.726562 200.675781 278.617188 200.675781 C 278.234375 200.675781 277.84375 200.644531 277.449219 200.578125 C 277.050781 200.511719 276.640625 200.414062 276.21875 200.285156 L 276.21875 199.046875 C 276.585938 199.246094 276.964844 199.394531 277.355469 199.492188 C 277.746094 199.589844 278.15625 199.636719 278.59375 199.636719 C 279.296875 199.636719 279.855469 199.453125 280.265625 199.082031 C 280.675781 198.710938 280.882812 198.210938 280.882812 197.574219 C 280.882812 196.941406 280.675781 196.4375 280.265625 196.070312 C 279.855469 195.699219 279.296875 195.511719 278.59375 195.511719 C 278.261719 195.511719 277.933594 195.546875 277.605469 195.621094 C 277.277344 195.695312 276.945312 195.808594 276.605469 195.964844 Z M 276.605469 191.386719 "/>
<path style=" stroke:none;fill-rule:nonzero;fill:rgb(0%,0%,0%);fill-opacity:1;" d="M 284.542969 198.949219 L 285.832031 198.949219 L 285.832031 200.5 L 284.542969 200.5 Z M 284.542969 198.949219 "/>
<path style=" stroke:none;fill-rule:nonzero;fill:rgb(0%,0%,0%);fill-opacity:1;" d="M 291.152344 192.199219 C 290.519531 192.199219 290.042969 192.511719 289.722656 193.136719 C 289.402344 193.757812 289.242188 194.699219 289.242188 195.953125 C 289.242188 197.199219 289.402344 198.136719 289.722656 198.761719 C 290.042969 199.386719 290.519531 199.699219 291.152344 199.699219 C 291.792969 199.699219 292.273438 199.386719 292.589844 198.761719 C 292.910156 198.136719 293.070312 197.199219 293.070312 195.953125 C 293.070312 194.699219 292.910156 193.757812 292.589844 193.136719 C 292.273438 192.511719 291.792969 192.199219 291.152344 192.199219 Z M 291.152344 191.222656 C 292.175781 191.222656 292.957031 191.625 293.496094 192.433594 C 294.035156 193.242188 294.304688 194.414062 294.304688 195.953125 C 294.304688 197.484375 294.035156 198.65625 293.496094 199.464844 C 292.957031 200.273438 292.175781 200.675781 291.152344 200.675781 C 290.132812 200.675781 289.351562 200.273438 288.8125 199.464844 C 288.273438 198.65625 288.003906 197.484375 288.003906 195.953125 C 288.003906 194.414062 288.273438 193.242188 288.8125 192.433594 C 289.351562 191.625 290.132812 191.222656 291.152344 191.222656 Z M 291.152344 191.222656 "/>
<g clip-path="url(#clip7)" clip-rule="nonzero">
<path style="fill:none;stroke-width:0.8;stroke-linecap:square;stroke-linejoin:round;stroke:rgb(69.019608%,69.019608%,69.019608%);stroke-opacity:1;stroke-miterlimit:4;" d="M 264.046875 145.8 L 264.046875 7.2 " transform="matrix(1.25,0,0,1.25,0.000000000000028422,0)"/>
</g>
<path style="fill:none;stroke-width:0.8;stroke-linecap:butt;stroke-linejoin:round;stroke:rgb(0%,0%,0%);stroke-opacity:1;stroke-miterlimit:4;" d="M 0.000091 0.000000000000028422 L 0.000091 3.5 " transform="matrix(1.25,0,0,1.25,330.05848,182.25)"/>
<path style=" stroke:none;fill-rule:nonzero;fill:rgb(0%,0%,0%);fill-opacity:1;" d="M 321.144531 191.386719 L 327.003906 191.386719 L 327.003906 191.910156 L 323.695312 200.5 L 322.40625 200.5 L 325.519531 192.425781 L 321.144531 192.425781 Z M 321.144531 191.386719 "/>
<path style=" stroke:none;fill-rule:nonzero;fill:rgb(0%,0%,0%);fill-opacity:1;" d="M 329.40625 198.949219 L 330.695312 198.949219 L 330.695312 200.5 L 329.40625 200.5 Z M 329.40625 198.949219 "/>
<path style=" stroke:none;fill-rule:nonzero;fill:rgb(0%,0%,0%);fill-opacity:1;" d="M 333.394531 191.386719 L 338.234375 191.386719 L 338.234375 192.425781 L 334.523438 192.425781 L 334.523438 194.65625 C 334.703125 194.59375 334.878906 194.550781 335.058594 194.519531 C 335.238281 194.488281 335.417969 194.476562 335.597656 194.476562 C 336.613281 194.476562 337.421875 194.753906 338.015625 195.3125 C 338.609375 195.867188 338.90625 196.621094 338.90625 197.574219 C 338.90625 198.554688 338.601562 199.316406 337.992188 199.863281 C 337.378906 200.40625 336.519531 200.675781 335.410156 200.675781 C 335.027344 200.675781 334.636719 200.644531 334.238281 200.578125 C 333.84375 200.511719 333.433594 200.414062 333.011719 200.285156 L 333.011719 199.046875 C 333.375 199.246094 333.753906 199.394531 334.144531 199.492188 C 334.535156 199.589844 334.949219 199.636719 335.382812 199.636719 C 336.085938 199.636719 336.644531 199.453125 337.054688 199.082031 C 337.464844 198.710938 337.671875 198.210938 337.671875 197.574219 C 337.671875 196.941406 337.464844 196.4375 337.054688 196.070312 C 336.644531 195.699219 336.085938 195.511719 335.382812 195.511719 C 335.054688 195.511719 334.726562 195.546875 334.398438 195.621094 C 334.070312 195.695312 333.734375 195.808594 333.394531 195.964844 Z M 333.394531 191.386719 "/>
<g clip-path="url(#clip8)" clip-rule="nonzero">
<path style="fill:none;stroke-width:0.8;stroke-linecap:square;stroke-linejoin:round;stroke:rgb(69.019608%,69.019608%,69.019608%);stroke-opacity:1;stroke-miterlimit:4;" d="M 30.103125 139.54375 L 281.203125 139.54375 " transform="matrix(1.25,0,0,1.25,0.000000000000028422,0)"/>
</g>
<path style="fill:none;stroke-width:0.8;stroke-linecap:butt;stroke-linejoin:round;stroke:rgb(0%,0%,0%);stroke-opacity:1;stroke-miterlimit:4;" d="M -0.000000000000017764 0.00148 L -3.5 0.00148 " transform="matrix(1.25,0,0,1.25,37.628906,174.427837)"/>
<path style=" stroke:none;fill-rule:nonzero;fill:rgb(0%,0%,0%);fill-opacity:1;" d="M 12.972656 170.875 C 12.339844 170.875 11.863281 171.1875 11.542969 171.8125 C 11.222656 172.4375 11.0625 173.375 11.0625 174.628906 C 11.0625 175.878906 11.222656 176.816406 11.542969 177.441406 C 11.863281 178.066406 12.339844 178.378906 12.972656 178.378906 C 13.613281 178.378906 14.089844 178.066406 14.410156 177.441406 C 14.730469 176.816406 14.890625 175.878906 14.890625 174.628906 C 14.890625 173.375 14.730469 172.4375 14.410156 171.8125 C 14.089844 171.1875 13.613281 170.875 12.972656 170.875 Z M 12.972656 169.898438 C 13.996094 169.898438 14.777344 170.304688 15.316406 171.113281 C 15.855469 171.917969 16.125 173.09375 16.125 174.628906 C 16.125 176.164062 15.855469 177.335938 15.316406 178.144531 C 14.777344 178.949219 13.996094 179.355469 12.972656 179.355469 C 11.953125 179.355469 11.171875 178.949219 10.632812 178.144531 C 10.09375 177.335938 9.824219 176.164062 9.824219 174.628906 C 9.824219 173.09375 10.09375 171.917969 10.632812 171.113281 C 11.171875 170.304688 11.953125 169.898438 12.972656 169.898438 Z M 12.972656 169.898438 "/>
<path style=" stroke:none;fill-rule:nonzero;fill:rgb(0%,0%,0%);fill-opacity:1;" d="M 18.289062 177.625 L 19.578125 177.625 L 19.578125 179.175781 L 18.289062 179.175781 Z M 18.289062 177.625 "/>
<path style=" stroke:none;fill-rule:nonzero;fill:rgb(0%,0%,0%);fill-opacity:1;" d="M 24.898438 170.875 C 24.265625 170.875 23.789062 171.1875 23.46875 171.8125 C 23.148438 172.4375 22.988281 173.375 22.988281 174.628906 C 22.988281 175.878906 23.148438 176.816406 23.46875 177.441406 C 23.789062 178.066406 24.265625 178.378906 24.898438 178.378906 C 25.539062 178.378906 26.015625 178.066406 26.335938 177.441406 C 26.65625 176.816406 26.816406 175.878906 26.816406 174.628906 C 26.816406 173.375 26.65625 172.4375 26.335938 171.8125 C 26.015625 171.1875 25.539062 170.875 24.898438 170.875 Z M 24.898438 169.898438 C 25.921875 169.898438 26.703125 170.304688 27.242188 171.113281 C 27.78125 171.917969 28.050781 173.09375 28.050781 174.628906 C 28.050781 176.164062 27.78125 177.335938 27.242188 178.144531 C 26.703125 178.949219 25.921875 179.355469 24.898438 179.355469 C 23.878906 179.355469 23.097656 178.949219 22.558594 178.144531 C 22.019531 177.335938 21.75 176.164062 21.75 174.628906 C 21.75 173.09375 22.019531 171.917969 22.558594 171.113281 C 23.097656 170.304688 23.878906 169.898438 24.898438 169.898438 Z M 24.898438 169.898438 "/>
<g clip-path="url(#clip9)" clip-rule="nonzero">
<path style="fill:none;stroke-width:0.8;stroke-linecap:square;stroke-linejoin:round;stroke:rgb(69.019608%,69.019608%,69.019608%);stroke-opacity:1;stroke-miterlimit:4;" d="M 30.103125 114.325 L 281.203125 114.325 " transform="matrix(1.25,0,0,1.25,0.000000000000028422,0)"/>
</g>
<path style="fill:none;stroke-width:0.8;stroke-linecap:butt;stroke-linejoin:round;stroke:rgb(0%,0%,0%);stroke-opacity:1;stroke-miterlimit:4;" d="M -0.000000000000017764 0.00053 L -3.5 0.00053 " transform="matrix(1.25,0,0,1.25,37.628906,142.905587)"/>
<path style=" stroke:none;fill-rule:nonzero;fill:rgb(0%,0%,0%);fill-opacity:1;" d="M 12.972656 139.355469 C 12.339844 139.355469 11.863281 139.667969 11.542969 140.292969 C 11.222656 140.914062 11.0625 141.855469 11.0625 143.109375 C 11.0625 144.355469 11.222656 145.292969 11.542969 145.917969 C 11.863281 146.542969 12.339844 146.855469 12.972656 146.855469 C 13.613281 146.855469 14.089844 146.542969 14.410156 145.917969 C 14.730469 145.292969 14.890625 144.355469 14.890625 143.109375 C 14.890625 141.855469 14.730469 140.914062 14.410156 140.292969 C 14.089844 139.667969 13.613281 139.355469 12.972656 139.355469 Z M 12.972656 138.378906 C 13.996094 138.378906 14.777344 138.78125 15.316406 139.589844 C 15.855469 140.398438 16.125 141.570312 16.125 143.109375 C 16.125 144.640625 15.855469 145.8125 15.316406 146.621094 C 14.777344 147.429688 13.996094 147.832031 12.972656 147.832031 C 11.953125 147.832031 11.171875 147.429688 10.632812 146.621094 C 10.09375 145.8125 9.824219 144.640625 9.824219 143.109375 C 9.824219 141.570312 10.09375 140.398438 10.632812 139.589844 C 11.171875 138.78125 11.953125 138.378906 12.972656 138.378906 Z M 12.972656 138.378906 "/>
<path style=" stroke:none;fill-rule:nonzero;fill:rgb(0%,0%,0%);fill-opacity:1;" d="M 18.289062 146.105469 L 19.578125 146.105469 L 19.578125 147.65625 L 18.289062 147.65625 Z M 18.289062 146.105469 "/>
<path style=" stroke:none;fill-rule:nonzero;fill:rgb(0%,0%,0%);fill-opacity:1;" d="M 23.324219 146.617188 L 27.628906 146.617188 L 27.628906 147.65625 L 21.84375 147.65625 L 21.84375 146.617188 C 22.308594 146.132812 22.945312 145.484375 23.753906 144.667969 C 24.5625 143.851562 25.070312 143.324219 25.277344 143.089844 C 25.671875 142.644531 25.949219 142.269531 26.105469 141.964844 C 26.261719 141.65625 26.339844 141.355469 26.339844 141.058594 C 26.339844 140.574219 26.171875 140.179688 25.832031 139.875 C 25.492188 139.566406 25.046875 139.414062 24.503906 139.414062 C 24.117188 139.414062 23.707031 139.480469 23.277344 139.617188 C 22.847656 139.75 22.390625 139.953125 21.902344 140.226562 L 21.902344 138.980469 C 22.398438 138.78125 22.863281 138.632812 23.292969 138.53125 C 23.726562 138.429688 24.121094 138.378906 24.480469 138.378906 C 25.421875 138.378906 26.175781 138.613281 26.738281 139.085938 C 27.296875 139.558594 27.578125 140.1875 27.578125 140.976562 C 27.578125 141.351562 27.507812 141.707031 27.367188 142.042969 C 27.226562 142.378906 26.972656 142.773438 26.601562 143.230469 C 26.5 143.347656 26.175781 143.6875 25.632812 144.253906 C 25.085938 144.816406 24.316406 145.605469 23.324219 146.617188 Z M 23.324219 146.617188 "/>
<g clip-path="url(#clip10)" clip-rule="nonzero">
<path style="fill:none;stroke-width:0.8;stroke-linecap:square;stroke-linejoin:round;stroke:rgb(69.019608%,69.019608%,69.019608%);stroke-opacity:1;stroke-miterlimit:4;" d="M 30.103125 89.10625 L 281.203125 89.10625 " transform="matrix(1.25,0,0,1.25,0.000000000000028422,0)"/>
</g>
<path style="fill:none;stroke-width:0.8;stroke-linecap:butt;stroke-linejoin:round;stroke:rgb(0%,0%,0%);stroke-opacity:1;stroke-miterlimit:4;" d="M -0.000000000000017764 -0.000419 L -3.5 -0.000419 " transform="matrix(1.25,0,0,1.25,37.628906,111.383336)"/>
<path style=" stroke:none;fill-rule:nonzero;fill:rgb(0%,0%,0%);fill-opacity:1;" d="M 12.972656 107.832031 C 12.339844 107.832031 11.863281 108.144531 11.542969 108.769531 C 11.222656 109.394531 11.0625 110.332031 11.0625 111.585938 C 11.0625 112.835938 11.222656 113.769531 11.542969 114.394531 C 11.863281 115.019531 12.339844 115.332031 12.972656 115.332031 C 13.613281 115.332031 14.089844 115.019531 14.410156 114.394531 C 14.730469 113.769531 14.890625 112.835938 14.890625 111.585938 C 14.890625 110.332031 14.730469 109.394531 14.410156 108.769531 C 14.089844 108.144531 13.613281 107.832031 12.972656 107.832031 Z M 12.972656 106.855469 C 13.996094 106.855469 14.777344 107.257812 15.316406 108.066406 C 15.855469 108.875 16.125 110.046875 16.125 111.585938 C 16.125 113.121094 15.855469 114.289062 15.316406 115.097656 C 14.777344 115.90625 13.996094 116.308594 12.972656 116.308594 C 11.953125 116.308594 11.171875 115.90625 10.632812 115.097656 C 10.09375 114.289062 9.824219 113.121094 9.824219 111.585938 C 9.824219 110.046875 10.09375 108.875 10.632812 108.066406 C 11.171875 107.257812 11.953125 106.855469 12.972656 106.855469 Z M 12.972656 106.855469 "/>
<path style=" stroke:none;fill-rule:nonzero;fill:rgb(0%,0%,0%);fill-opacity:1;" d="M 18.289062 114.582031 L 19.578125 114.582031 L 19.578125 116.132812 L 18.289062 116.132812 Z M 18.289062 114.582031 "/>
<path style=" stroke:none;fill-rule:nonzero;fill:rgb(0%,0%,0%);fill-opacity:1;" d="M 25.652344 108.09375 L 22.539062 112.957031 L 25.652344 112.957031 Z M 25.328125 107.019531 L 26.878906 107.019531 L 26.878906 112.957031 L 28.179688 112.957031 L 28.179688 113.984375 L 26.878906 113.984375 L 26.878906 116.132812 L 25.652344 116.132812 L 25.652344 113.984375 L 21.539062 113.984375 L 21.539062 112.792969 Z M 25.328125 107.019531 "/>
<g clip-path="url(#clip11)" clip-rule="nonzero">
<path style="fill:none;stroke-width:0.8;stroke-linecap:square;stroke-linejoin:round;stroke:rgb(69.019608%,69.019608%,69.019608%);stroke-opacity:1;stroke-miterlimit:4;" d="M 30.103125 63.8875 L 281.203125 63.8875 " transform="matrix(1.25,0,0,1.25,0.000000000000028422,0)"/>
</g>
<path style="fill:none;stroke-width:0.8;stroke-linecap:butt;stroke-linejoin:round;stroke:rgb(0%,0%,0%);stroke-opacity:1;stroke-miterlimit:4;" d="M -0.000000000000017764 -0.001369 L -3.5 -0.001369 " transform="matrix(1.25,0,0,1.25,37.628906,79.861086)"/>
<path style=" stroke:none;fill-rule:nonzero;fill:rgb(0%,0%,0%);fill-opacity:1;" d="M 12.972656 76.308594 C 12.339844 76.308594 11.863281 76.621094 11.542969 77.246094 C 11.222656 77.871094 11.0625 78.808594 11.0625 80.0625 C 11.0625 81.3125 11.222656 82.25 11.542969 82.875 C 11.863281 83.5 12.339844 83.8125 12.972656 83.8125 C 13.613281 83.8125 14.089844 83.5 14.410156 82.875 C 14.730469 82.25 14.890625 81.3125 14.890625 80.0625 C 14.890625 78.808594 14.730469 77.871094 14.410156 77.246094 C 14.089844 76.621094 13.613281 76.308594 12.972656 76.308594 Z M 12.972656 75.332031 C 13.996094 75.332031 14.777344 75.738281 15.316406 76.546875 C 15.855469 77.351562 16.125 78.527344 16.125 80.0625 C 16.125 81.597656 15.855469 82.769531 15.316406 83.578125 C 14.777344 84.382812 13.996094 84.789062 12.972656 84.789062 C 11.953125 84.789062 11.171875 84.382812 10.632812 83.578125 C 10.09375 82.769531 9.824219 81.597656 9.824219 80.0625 C 9.824219 78.527344 10.09375 77.351562 10.632812 76.546875 C 11.171875 75.738281 11.953125 75.332031 12.972656 75.332031 Z M 12.972656 75.332031 "/>
<path style=" stroke:none;fill-rule:nonzero;fill:rgb(0%,0%,0%);fill-opacity:1;" d="M 18.289062 83.058594 L 19.578125 83.058594 L 19.578125 84.609375 L 18.289062 84.609375 Z M 18.289062 83.058594 "/>
<path style=" stroke:none;fill-rule:nonzero;fill:rgb(0%,0%,0%);fill-opacity:1;" d="M 25.054688 79.5625 C 24.5 79.5625 24.0625 79.753906 23.738281 80.132812 C 23.414062 80.507812 23.253906 81.027344 23.253906 81.6875 C 23.253906 82.339844 23.414062 82.859375 23.738281 83.242188 C 24.0625 83.621094 24.5 83.8125 25.054688 83.8125 C 25.605469 83.8125 26.042969 83.621094 26.367188 83.242188 C 26.691406 82.859375 26.851562 82.339844 26.851562 81.6875 C 26.851562 81.027344 26.691406 80.507812 26.367188 80.132812 C 26.042969 79.753906 25.605469 79.5625 25.054688 79.5625 Z M 27.5 75.699219 L 27.5 76.820312 C 27.191406 76.675781 26.878906 76.5625 26.5625 76.488281 C 26.246094 76.410156 25.933594 76.371094 25.625 76.371094 C 24.8125 76.371094 24.191406 76.644531 23.761719 77.195312 C 23.332031 77.742188 23.085938 78.574219 23.027344 79.683594 C 23.265625 79.332031 23.566406 79.058594 23.929688 78.871094 C 24.292969 78.679688 24.691406 78.585938 25.125 78.585938 C 26.039062 78.585938 26.765625 78.863281 27.296875 79.421875 C 27.828125 79.976562 28.09375 80.730469 28.09375 81.6875 C 28.09375 82.621094 27.816406 83.375 27.261719 83.941406 C 26.707031 84.503906 25.972656 84.789062 25.054688 84.789062 C 24 84.789062 23.191406 84.382812 22.636719 83.578125 C 22.078125 82.769531 21.800781 81.597656 21.800781 80.0625 C 21.800781 78.625 22.140625 77.476562 22.824219 76.617188 C 23.507812 75.761719 24.425781 75.332031 25.578125 75.332031 C 25.886719 75.332031 26.199219 75.363281 26.515625 75.425781 C 26.828125 75.484375 27.15625 75.578125 27.5 75.699219 Z M 27.5 75.699219 "/>
<g clip-path="url(#clip12)" clip-rule="nonzero">
<path style="fill:none;stroke-width:0.8;stroke-linecap:square;stroke-linejoin:round;stroke:rgb(69.019608%,69.019608%,69.019608%);stroke-opacity:1;stroke-miterlimit:4;" d="M 30.103125 38.671875 L 281.203125 38.671875 " transform="matrix(1.25,0,0,1.25,0.000000000000028422,0)"/>
</g>
<path style="fill:none;stroke-width:0.8;stroke-linecap:butt;stroke-linejoin:round;stroke:rgb(0%,0%,0%);stroke-opacity:1;stroke-miterlimit:4;" d="M -0.000000000000017764 0.000806 L -3.5 0.000806 " transform="matrix(1.25,0,0,1.25,37.628906,48.338836)"/>
<path style=" stroke:none;fill-rule:nonzero;fill:rgb(0%,0%,0%);fill-opacity:1;" d="M 12.972656 44.785156 C 12.339844 44.785156 11.863281 45.097656 11.542969 45.722656 C 11.222656 46.347656 11.0625 47.285156 11.0625 48.539062 C 11.0625 49.789062 11.222656 50.726562 11.542969 51.351562 C 11.863281 51.976562 12.339844 52.289062 12.972656 52.289062 C 13.613281 52.289062 14.089844 51.976562 14.410156 51.351562 C 14.730469 50.726562 14.890625 49.789062 14.890625 48.539062 C 14.890625 47.285156 14.730469 46.347656 14.410156 45.722656 C 14.089844 45.097656 13.613281 44.785156 12.972656 44.785156 Z M 12.972656 43.808594 C 13.996094 43.808594 14.777344 44.214844 15.316406 45.023438 C 15.855469 45.832031 16.125 47.003906 16.125 48.539062 C 16.125 50.074219 15.855469 51.246094 15.316406 52.054688 C 14.777344 52.863281 13.996094 53.265625 12.972656 53.265625 C 11.953125 53.265625 11.171875 52.863281 10.632812 52.054688 C 10.09375 51.246094 9.824219 50.074219 9.824219 48.539062 C 9.824219 47.003906 10.09375 45.832031 10.632812 45.023438 C 11.171875 44.214844 11.953125 43.808594 12.972656 43.808594 Z M 12.972656 43.808594 "/>
<path style=" stroke:none;fill-rule:nonzero;fill:rgb(0%,0%,0%);fill-opacity:1;" d="M 18.289062 51.535156 L 19.578125 51.535156 L 19.578125 53.085938 L 18.289062 53.085938 Z M 18.289062 51.535156 "/>
<path style=" stroke:none;fill-rule:nonzero;fill:rgb(0%,0%,0%);fill-opacity:1;" d="M 24.898438 48.757812 C 24.3125 48.757812 23.851562 48.917969 23.515625 49.230469 C 23.179688 49.542969 23.015625 49.976562 23.015625 50.523438 C 23.015625 51.074219 23.179688 51.503906 23.515625 51.816406 C 23.851562 52.132812 24.3125 52.289062 24.898438 52.289062 C 25.484375 52.289062 25.945312 52.132812 26.285156 51.816406 C 26.621094 51.5 26.792969 51.070312 26.792969 50.523438 C 26.792969 49.976562 26.625 49.542969 26.289062 49.230469 C 25.953125 48.917969 25.488281 48.757812 24.898438 48.757812 Z M 23.667969 48.234375 C 23.136719 48.105469 22.726562 47.859375 22.429688 47.496094 C 22.136719 47.132812 21.988281 46.691406 21.988281 46.171875 C 21.988281 45.445312 22.246094 44.867188 22.765625 44.445312 C 23.285156 44.023438 23.996094 43.808594 24.898438 43.808594 C 25.804688 43.808594 26.519531 44.023438 27.035156 44.445312 C 27.550781 44.867188 27.8125 45.445312 27.8125 46.171875 C 27.8125 46.691406 27.664062 47.132812 27.367188 47.496094 C 27.074219 47.859375 26.664062 48.105469 26.140625 48.234375 C 26.734375 48.375 27.195312 48.644531 27.527344 49.046875 C 27.859375 49.449219 28.023438 49.941406 28.023438 50.523438 C 28.023438 51.40625 27.753906 52.085938 27.214844 52.558594 C 26.675781 53.03125 25.902344 53.265625 24.898438 53.265625 C 23.894531 53.265625 23.121094 53.03125 22.582031 52.558594 C 22.042969 52.085938 21.773438 51.40625 21.773438 50.523438 C 21.773438 49.941406 21.941406 49.449219 22.273438 49.046875 C 22.609375 48.644531 23.074219 48.375 23.667969 48.234375 Z M 23.214844 46.289062 C 23.214844 46.761719 23.363281 47.128906 23.65625 47.390625 C 23.953125 47.65625 24.367188 47.789062 24.898438 47.789062 C 25.429688 47.789062 25.84375 47.65625 26.140625 47.390625 C 26.441406 47.128906 26.589844 46.761719 26.589844 46.289062 C 26.589844 45.816406 26.441406 45.449219 26.140625 45.183594 C 25.84375 44.917969 25.429688 44.785156 24.898438 44.785156 C 24.367188 44.785156 23.953125 44.917969 23.65625 45.183594 C 23.363281 45.449219 23.214844 45.816406 23.214844 46.289062 Z M 23.214844 46.289062 "/>
<g clip-path="url(#clip13)" clip-rule="nonzero">
<path style="fill:none;stroke-width:0.8;stroke-linecap:square;stroke-linejoin:round;stroke:rgb(69.019608%,69.019608%,69.019608%);stroke-opacity:1;stroke-miterlimit:4;" d="M 30.103125 13.453125 L 281.203125 13.453125 " transform="matrix(1.25,0,0,1.25,0.000000000000028422,0)"/>
</g>
<path style="fill:none;stroke-width:0.8;stroke-linecap:butt;stroke-linejoin:round;stroke:rgb(0%,0%,0%);stroke-opacity:1;stroke-miterlimit:4;" d="M -0.000000000000017764 -0.000144 L -3.5 -0.000144 " transform="matrix(1.25,0,0,1.25,37.628906,16.816586)"/>
<path style=" stroke:none;fill-rule:nonzero;fill:rgb(0%,0%,0%);fill-opacity:1;" d="M 10.550781 20.527344 L 12.566406 20.527344 L 12.566406 13.574219 L 10.375 14.015625 L 10.375 12.890625 L 12.554688 12.453125 L 13.785156 12.453125 L 13.785156 20.527344 L 15.800781 20.527344 L 15.800781 21.566406 L 10.550781 21.566406 Z M 10.550781 20.527344 "/>
<path style=" stroke:none;fill-rule:nonzero;fill:rgb(0%,0%,0%);fill-opacity:1;" d="M 18.289062 20.015625 L 19.578125 20.015625 L 19.578125 21.566406 L 18.289062 21.566406 Z M 18.289062 20.015625 "/>
<path style=" stroke:none;fill-rule:nonzero;fill:rgb(0%,0%,0%);fill-opacity:1;" d="M 24.898438 13.265625 C 24.265625 13.265625 23.789062 13.578125 23.46875 14.203125 C 23.148438 14.824219 22.988281 15.765625 22.988281 17.019531 C 22.988281 18.265625 23.148438 19.203125 23.46875 19.828125 C 23.789062 20.453125 24.265625 20.765625 24.898438 20.765625 C 25.539062 20.765625 26.015625 20.453125 26.335938 19.828125 C 26.65625 19.203125 26.816406 18.265625 26.816406 17.019531 C 26.816406 15.765625 26.65625 14.824219 26.335938 14.203125 C 26.015625 13.578125 25.539062 13.265625 24.898438 13.265625 Z M 24.898438 12.289062 C 25.921875 12.289062 26.703125 12.691406 27.242188 13.5 C 27.78125 14.308594 28.050781 15.480469 28.050781 17.019531 C 28.050781 18.550781 27.78125 19.722656 27.242188 20.53125 C 26.703125 21.339844 25.921875 21.742188 24.898438 21.742188 C 23.878906 21.742188 23.097656 21.339844 22.558594 20.53125 C 22.019531 19.722656 21.75 18.550781 21.75 17.019531 C 21.75 15.480469 22.019531 14.308594 22.558594 13.5 C 23.097656 12.691406 23.878906 12.289062 24.898438 12.289062 Z M 24.898438 12.289062 "/>
<path style="fill:none;stroke-width:1.5;stroke-linecap:square;stroke-linejoin:round;stroke:rgb(12.156863%,46.666667%,70.588235%);stroke-opacity:1;stroke-miterlimit:4;" d="M 41.515625 139.5 L 64.4875 139.334375 L 77.409375 139.028125 L 86.021875 138.609375 L 93.2 138.0125 L 98.94375 137.275 L 103.25 136.5 L 107.559375 135.46875 L 110.428125 134.603125 L 113.3 133.5625 L 116.171875 132.315625 L 119.04375 130.825 L 121.915625 129.05625 L 124.7875 126.965625 L 127.65625 124.5125 L 130.528125 121.65625 L 133.4 118.3625 L 136.271875 114.6 L 139.14375 110.35625 L 142.015625 105.63125 L 144.884375 100.45 L 147.75625 94.8625 L 152.0625 85.884375 L 164.984375 58.13125 L 167.85625 52.54375 L 170.728125 47.3625 L 173.6 42.640625 L 176.471875 38.396875 L 179.340625 34.634375 L 182.2125 31.340625 L 185.084375 28.484375 L 187.95625 26.03125 L 190.828125 23.940625 L 193.7 22.171875 L 196.56875 20.68125 L 199.440625 19.434375 L 202.3125 18.390625 L 205.184375 17.525 L 209.490625 16.496875 L 213.796875 15.721875 L 219.540625 14.98125 L 225.284375 14.48125 L 232.4625 14.078125 L 242.5125 13.765625 L 256.86875 13.56875 L 269.790625 13.5 " transform="matrix(1.25,0,0,1.25,0.000000000000028422,0)"/>
<path style="fill:none;stroke-width:1.5;stroke-linecap:butt;stroke-linejoin:round;stroke:rgb(74.901961%,0%,74.901961%);stroke-opacity:1;stroke-dasharray:5.55,2.4;stroke-miterlimit:4;" d="M 41.515625 139.5 L 64.4875 139.334375 L 77.409375 139.03125 L 86.021875 138.615625 L 93.2 138.03125 L 98.94375 137.315625 L 103.25 136.575 L 107.559375 135.603125 L 111.865625 134.340625 L 114.7375 133.309375 L 117.60625 132.103125 L 120.478125 130.703125 L 123.35 129.1 L 126.221875 127.2875 L 129.09375 125.271875 L 133.4 121.91875 L 144.884375 112.571875 L 147.75625 110.69375 L 150.628125 109.246875 L 152.0625 108.71875 L 153.5 108.334375 L 154.934375 108.1 L 156.371875 108.01875 L 157.80625 108.1 L 159.24375 108.334375 L 160.678125 108.71875 L 162.1125 109.246875 L 164.984375 110.69375 L 167.85625 112.571875 L 170.728125 114.753125 L 176.471875 119.534375 L 180.778125 123.075 L 185.084375 126.303125 L 187.95625 128.21875 L 190.828125 129.928125 L 193.7 131.428125 L 196.56875 132.728125 L 199.440625 133.846875 L 203.746875 135.215625 L 208.05625 136.278125 L 212.3625 137.090625 L 216.66875 137.70625 L 222.4125 138.3 L 229.590625 138.784375 L 238.203125 139.121875 L 251.125 139.371875 L 269.790625 139.496875 " transform="matrix(1.25,0,0,1.25,0.000000000000028422,0)"/>
<path style="fill:none;stroke-width:0.8;stroke-linecap:square;stroke-linejoin:miter;stroke:rgb(0%,0%,0%);stroke-opacity:1;stroke-miterlimit:4;" d="M 30.103125 145.8 L 30.103125 7.2 " transform="matrix(1.25,0,0,1.25,0.000000000000028422,0)"/>
<path style="fill:none;stroke-width:0.8;stroke-linecap:square;stroke-linejoin:miter;stroke:rgb(0%,0%,0%);stroke-opacity:1;stroke-miterlimit:4;" d="M 281.203125 145.8 L 281.203125 7.2 " transform="matrix(1.25,0,0,1.25,0.000000000000028422,0)"/>
<path style="fill:none;stroke-width:0.8;stroke-linecap:square;stroke-linejoin:miter;stroke:rgb(0%,0%,0%);stroke-opacity:1;stroke-miterlimit:4;" d="M 30.103125 145.8 L 281.203125 145.8 " transform="matrix(1.25,0,0,1.25,0.000000000000028422,0)"/>
<path style="fill:none;stroke-width:0.8;stroke-linecap:square;stroke-linejoin:miter;stroke:rgb(0%,0%,0%);stroke-opacity:1;stroke-miterlimit:4;" d="M 30.103125 7.2 L 281.203125 7.2 " transform="matrix(1.25,0,0,1.25,0.000000000000028422,0)"/>
<use xlink:href="#surface5" mask="url(#mask0)"/>
<path style="fill:none;stroke-width:1.5;stroke-linecap:square;stroke-linejoin:round;stroke:rgb(12.156863%,46.666667%,70.588235%);stroke-opacity:1;stroke-miterlimit:4;" d="M 39.103125 20.3 L 59.103125 20.3 " transform="matrix(1.25,0,0,1.25,0.000000000000028422,0)"/>
<path style=" stroke:none;fill-rule:nonzero;fill:rgb(0%,0%,0%);fill-opacity:1;" d="M 89.414062 23.113281 L 89.414062 24.175781 C 89.097656 24.011719 88.769531 23.890625 88.425781 23.8125 C 88.085938 23.730469 87.730469 23.6875 87.363281 23.6875 C 86.804688 23.6875 86.386719 23.773438 86.109375 23.945312 C 85.832031 24.113281 85.691406 24.371094 85.691406 24.714844 C 85.691406 24.972656 85.792969 25.179688 85.992188 25.328125 C 86.191406 25.476562 86.589844 25.617188 87.195312 25.75 L 87.578125 25.835938 C 88.375 26.007812 88.941406 26.246094 89.277344 26.558594 C 89.613281 26.871094 89.78125 27.304688 89.78125 27.863281 C 89.78125 28.496094 89.53125 29 89.027344 29.371094 C 88.523438 29.742188 87.835938 29.925781 86.957031 29.925781 C 86.589844 29.925781 86.207031 29.890625 85.8125 29.820312 C 85.414062 29.746094 84.996094 29.640625 84.558594 29.5 L 84.558594 28.339844 C 84.972656 28.554688 85.382812 28.714844 85.785156 28.824219 C 86.1875 28.929688 86.585938 28.984375 86.980469 28.984375 C 87.507812 28.984375 87.914062 28.894531 88.199219 28.714844 C 88.484375 28.53125 88.628906 28.277344 88.628906 27.949219 C 88.628906 27.644531 88.523438 27.410156 88.320312 27.246094 C 88.113281 27.082031 87.664062 26.925781 86.96875 26.777344 L 86.578125 26.683594 C 85.882812 26.539062 85.378906 26.3125 85.070312 26.011719 C 84.761719 25.707031 84.605469 25.289062 84.605469 24.761719 C 84.605469 24.117188 84.832031 23.621094 85.289062 23.273438 C 85.746094 22.921875 86.390625 22.75 87.230469 22.75 C 87.644531 22.75 88.035156 22.777344 88.402344 22.839844 C 88.769531 22.898438 89.105469 22.992188 89.414062 23.113281 Z M 89.414062 23.113281 "/>
<path style=" stroke:none;fill-rule:nonzero;fill:rgb(0%,0%,0%);fill-opacity:1;" d="M 91.570312 22.914062 L 92.691406 22.914062 L 92.691406 29.75 L 91.570312 29.75 Z M 91.570312 20.25 L 92.691406 20.25 L 92.691406 21.675781 L 91.570312 21.675781 Z M 91.570312 20.25 "/>
<path style=" stroke:none;fill-rule:nonzero;fill:rgb(0%,0%,0%);fill-opacity:1;" d="M 99.539062 26.25 C 99.539062 25.4375 99.371094 24.804688 99.035156 24.359375 C 98.703125 23.910156 98.230469 23.6875 97.625 23.6875 C 97.023438 23.6875 96.554688 23.910156 96.21875 24.359375 C 95.882812 24.804688 95.714844 25.4375 95.714844 26.25 C 95.714844 27.058594 95.882812 27.6875 96.21875 28.136719 C 96.554688 28.585938 97.023438 28.808594 97.625 28.808594 C 98.230469 28.808594 98.703125 28.585938 99.035156 28.136719 C 99.371094 27.6875 99.539062 27.058594 99.539062 26.25 Z M 100.664062 28.902344 C 100.664062 30.0625 100.40625 30.929688 99.886719 31.496094 C 99.371094 32.0625 98.582031 32.347656 97.515625 32.347656 C 97.121094 32.347656 96.746094 32.320312 96.398438 32.261719 C 96.046875 32.203125 95.707031 32.109375 95.378906 31.988281 L 95.378906 30.898438 C 95.707031 31.074219 96.03125 31.207031 96.355469 31.292969 C 96.675781 31.378906 97.003906 31.421875 97.335938 31.421875 C 98.074219 31.421875 98.625 31.226562 98.992188 30.84375 C 99.355469 30.460938 99.539062 29.878906 99.539062 29.101562 L 99.539062 28.546875 C 99.308594 28.949219 99.011719 29.25 98.648438 29.449219 C 98.289062 29.648438 97.855469 29.75 97.347656 29.75 C 96.511719 29.75 95.835938 29.429688 95.324219 28.792969 C 94.808594 28.152344 94.554688 27.304688 94.554688 26.25 C 94.554688 25.191406 94.808594 24.34375 95.324219 23.707031 C 95.835938 23.066406 96.511719 22.75 97.347656 22.75 C 97.855469 22.75 98.289062 22.847656 98.648438 23.046875 C 99.011719 23.246094 99.308594 23.546875 99.539062 23.949219 L 99.539062 22.914062 L 100.664062 22.914062 Z M 100.664062 28.902344 "/>
<path style=" stroke:none;fill-rule:nonzero;fill:rgb(0%,0%,0%);fill-opacity:1;" d="M 108.300781 24.226562 C 108.582031 23.71875 108.917969 23.347656 109.308594 23.109375 C 109.699219 22.867188 110.15625 22.75 110.6875 22.75 C 111.398438 22.75 111.949219 22.996094 112.335938 23.496094 C 112.722656 23.992188 112.914062 24.703125 112.914062 25.621094 L 112.914062 29.75 L 111.785156 29.75 L 111.785156 25.660156 C 111.785156 25.003906 111.667969 24.519531 111.4375 24.203125 C 111.203125 23.882812 110.851562 23.726562 110.375 23.726562 C 109.792969 23.726562 109.332031 23.917969 108.996094 24.304688 C 108.65625 24.691406 108.488281 25.21875 108.488281 25.886719 L 108.488281 29.75 L 107.359375 29.75 L 107.359375 25.660156 C 107.359375 25 107.242188 24.511719 107.011719 24.199219 C 106.78125 23.882812 106.421875 23.726562 105.9375 23.726562 C 105.363281 23.726562 104.90625 23.917969 104.570312 24.308594 C 104.230469 24.695312 104.0625 25.222656 104.0625 25.886719 L 104.0625 29.75 L 102.933594 29.75 L 102.933594 22.914062 L 104.0625 22.914062 L 104.0625 23.976562 C 104.320312 23.554688 104.625 23.246094 104.984375 23.046875 C 105.34375 22.847656 105.769531 22.75 106.261719 22.75 C 106.757812 22.75 107.179688 22.875 107.527344 23.128906 C 107.875 23.378906 108.132812 23.746094 108.300781 24.226562 Z M 108.300781 24.226562 "/>
<path style=" stroke:none;fill-rule:nonzero;fill:rgb(0%,0%,0%);fill-opacity:1;" d="M 117.800781 23.699219 C 117.199219 23.699219 116.722656 23.933594 116.375 24.40625 C 116.023438 24.875 115.847656 25.519531 115.847656 26.335938 C 115.847656 27.152344 116.023438 27.796875 116.371094 28.269531 C 116.71875 28.738281 117.195312 28.972656 117.800781 28.972656 C 118.402344 28.972656 118.875 28.738281 119.222656 28.265625 C 119.574219 27.792969 119.75 27.148438 119.75 26.335938 C 119.75 25.527344 119.574219 24.882812 119.222656 24.410156 C 118.875 23.9375 118.402344 23.699219 117.800781 23.699219 Z M 117.800781 22.75 C 118.777344 22.75 119.546875 23.066406 120.101562 23.703125 C 120.660156 24.335938 120.941406 25.214844 120.941406 26.335938 C 120.941406 27.453125 120.660156 28.332031 120.101562 28.972656 C 119.546875 29.609375 118.777344 29.925781 117.800781 29.925781 C 116.820312 29.925781 116.054688 29.609375 115.496094 28.972656 C 114.941406 28.332031 114.664062 27.453125 114.664062 26.335938 C 114.664062 25.214844 114.941406 24.335938 115.496094 23.703125 C 116.054688 23.066406 116.820312 22.75 117.800781 22.75 Z M 117.800781 22.75 "/>
<path style=" stroke:none;fill-rule:nonzero;fill:rgb(0%,0%,0%);fill-opacity:1;" d="M 122.800781 22.914062 L 123.921875 22.914062 L 123.921875 29.75 L 122.800781 29.75 Z M 122.800781 20.25 L 123.921875 20.25 L 123.921875 21.675781 L 122.800781 21.675781 Z M 122.800781 20.25 "/>
<path style=" stroke:none;fill-rule:nonzero;fill:rgb(0%,0%,0%);fill-opacity:1;" d="M 130.773438 23.949219 L 130.773438 20.25 L 131.894531 20.25 L 131.894531 29.75 L 130.773438 29.75 L 130.773438 28.722656 C 130.535156 29.128906 130.238281 29.429688 129.878906 29.628906 C 129.519531 29.828125 129.085938 29.925781 128.582031 29.925781 C 127.753906 29.925781 127.082031 29.597656 126.5625 28.9375 C 126.042969 28.277344 125.785156 27.410156 125.785156 26.335938 C 125.785156 25.261719 126.042969 24.394531 126.5625 23.738281 C 127.082031 23.078125 127.753906 22.75 128.582031 22.75 C 129.085938 22.75 129.519531 22.847656 129.878906 23.046875 C 130.238281 23.242188 130.535156 23.542969 130.773438 23.949219 Z M 126.945312 26.335938 C 126.945312 27.160156 127.117188 27.808594 127.457031 28.28125 C 127.796875 28.75 128.261719 28.984375 128.855469 28.984375 C 129.449219 28.984375 129.917969 28.75 130.257812 28.28125 C 130.601562 27.808594 130.773438 27.160156 130.773438 26.335938 C 130.773438 25.511719 130.601562 24.863281 130.257812 24.394531 C 129.917969 23.921875 129.449219 23.6875 128.855469 23.6875 C 128.261719 23.6875 127.796875 23.921875 127.457031 24.394531 C 127.117188 24.863281 126.945312 25.511719 126.945312 26.335938 Z M 126.945312 26.335938 "/>
<path style="fill:none;stroke-width:1.5;stroke-linecap:butt;stroke-linejoin:round;stroke:rgb(74.901961%,0%,74.901961%);stroke-opacity:1;stroke-dasharray:5.55,2.4;stroke-miterlimit:4;" d="M 39.103125 34.978125 L 59.103125 34.978125 " transform="matrix(1.25,0,0,1.25,0.000000000000028422,0)"/>
<path style=" stroke:none;fill-rule:nonzero;fill:rgb(0%,0%,0%);fill-opacity:1;" d="M 89.554688 44.597656 C 89.554688 43.785156 89.386719 43.152344 89.050781 42.707031 C 88.714844 42.257812 88.246094 42.035156 87.640625 42.035156 C 87.039062 42.035156 86.570312 42.257812 86.234375 42.707031 C 85.898438 43.152344 85.730469 43.785156 85.730469 44.597656 C 85.730469 45.40625 85.898438 46.035156 86.234375 46.484375 C 86.570312 46.933594 87.039062 47.15625 87.640625 47.15625 C 88.246094 47.15625 88.714844 46.933594 89.050781 46.484375 C 89.386719 46.035156 89.554688 45.40625 89.554688 44.597656 Z M 90.679688 47.25 C 90.679688 48.410156 90.417969 49.277344 89.902344 49.84375 C 89.386719 50.410156 88.597656 50.695312 87.53125 50.695312 C 87.136719 50.695312 86.761719 50.667969 86.414062 50.609375 C 86.0625 50.550781 85.722656 50.457031 85.394531 50.335938 L 85.394531 49.246094 C 85.722656 49.421875 86.046875 49.554688 86.371094 49.640625 C 86.691406 49.726562 87.019531 49.769531 87.351562 49.769531 C 88.089844 49.769531 88.640625 49.574219 89.007812 49.191406 C 89.371094 48.808594 89.554688 48.226562 89.554688 47.449219 L 89.554688 46.894531 C 89.324219 47.296875 89.027344 47.597656 88.664062 47.796875 C 88.300781 47.996094 87.867188 48.097656 87.363281 48.097656 C 86.527344 48.097656 85.851562 47.777344 85.339844 47.140625 C 84.824219 46.5 84.570312 45.652344 84.570312 44.597656 C 84.570312 43.539062 84.824219 42.691406 85.339844 42.054688 C 85.851562 41.414062 86.527344 41.097656 87.363281 41.097656 C 87.867188 41.097656 88.300781 41.195312 88.664062 41.394531 C 89.027344 41.59375 89.324219 41.894531 89.554688 42.296875 L 89.554688 41.261719 L 90.679688 41.261719 Z M 90.679688 47.25 "/>
<path style=" stroke:none;fill-rule:nonzero;fill:rgb(0%,0%,0%);fill-opacity:1;" d="M 96.953125 42.308594 C 96.824219 42.234375 96.6875 42.183594 96.539062 42.148438 C 96.390625 42.113281 96.226562 42.097656 96.050781 42.097656 C 95.414062 42.097656 94.925781 42.300781 94.585938 42.714844 C 94.246094 43.128906 94.078125 43.722656 94.078125 44.496094 L 94.078125 48.097656 L 92.949219 48.097656 L 92.949219 41.261719 L 94.078125 41.261719 L 94.078125 42.324219 C 94.3125 41.90625 94.621094 41.597656 95 41.398438 C 95.378906 41.195312 95.839844 41.097656 96.378906 41.097656 C 96.457031 41.097656 96.542969 41.101562 96.636719 41.113281 C 96.730469 41.121094 96.832031 41.136719 96.945312 41.15625 Z M 96.953125 42.308594 "/>
<path style=" stroke:none;fill-rule:nonzero;fill:rgb(0%,0%,0%);fill-opacity:1;" d="M 101.238281 44.660156 C 100.332031 44.660156 99.703125 44.765625 99.351562 44.972656 C 99 45.179688 98.824219 45.53125 98.824219 46.035156 C 98.824219 46.433594 98.957031 46.75 99.21875 46.984375 C 99.484375 47.214844 99.839844 47.332031 100.289062 47.332031 C 100.914062 47.332031 101.414062 47.113281 101.789062 46.671875 C 102.167969 46.230469 102.355469 45.640625 102.355469 44.910156 L 102.355469 44.660156 Z M 103.476562 44.195312 L 103.476562 48.097656 L 102.355469 48.097656 L 102.355469 47.058594 C 102.097656 47.472656 101.777344 47.777344 101.394531 47.976562 C 101.011719 48.175781 100.546875 48.273438 99.992188 48.273438 C 99.292969 48.273438 98.734375 48.078125 98.320312 47.683594 C 97.910156 47.289062 97.703125 46.765625 97.703125 46.105469 C 97.703125 45.335938 97.960938 44.757812 98.472656 44.367188 C 98.988281 43.976562 99.757812 43.78125 100.777344 43.78125 L 102.355469 43.78125 L 102.355469 43.671875 C 102.355469 43.152344 102.183594 42.753906 101.84375 42.472656 C 101.503906 42.1875 101.027344 42.046875 100.414062 42.046875 C 100.023438 42.046875 99.640625 42.09375 99.269531 42.1875 C 98.902344 42.28125 98.546875 42.421875 98.203125 42.609375 L 98.203125 41.570312 C 98.613281 41.410156 99.011719 41.292969 99.398438 41.214844 C 99.785156 41.136719 100.164062 41.097656 100.527344 41.097656 C 101.519531 41.097656 102.257812 41.351562 102.746094 41.867188 C 103.234375 42.378906 103.476562 43.152344 103.476562 44.195312 Z M 103.476562 44.195312 "/>
<path style=" stroke:none;fill-rule:nonzero;fill:rgb(0%,0%,0%);fill-opacity:1;" d="M 110.289062 42.296875 L 110.289062 38.597656 L 111.410156 38.597656 L 111.410156 48.097656 L 110.289062 48.097656 L 110.289062 47.070312 C 110.050781 47.476562 109.753906 47.777344 109.394531 47.976562 C 109.035156 48.175781 108.601562 48.273438 108.097656 48.273438 C 107.269531 48.273438 106.597656 47.945312 106.078125 47.285156 C 105.5625 46.625 105.300781 45.757812 105.300781 44.683594 C 105.300781 43.609375 105.5625 42.742188 106.078125 42.085938 C 106.597656 41.425781 107.269531 41.097656 108.097656 41.097656 C 108.601562 41.097656 109.035156 41.195312 109.394531 41.394531 C 109.753906 41.589844 110.050781 41.890625 110.289062 42.296875 Z M 106.460938 44.683594 C 106.460938 45.507812 106.632812 46.15625 106.972656 46.628906 C 107.3125 47.097656 107.777344 47.332031 108.371094 47.332031 C 108.964844 47.332031 109.433594 47.097656 109.773438 46.628906 C 110.117188 46.15625 110.289062 45.507812 110.289062 44.683594 C 110.289062 43.859375 110.117188 43.210938 109.773438 42.742188 C 109.433594 42.269531 108.964844 42.035156 108.371094 42.035156 C 107.777344 42.035156 107.3125 42.269531 106.972656 42.742188 C 106.632812 43.210938 106.460938 43.859375 106.460938 44.683594 Z M 106.460938 44.683594 "/>
<path style=" stroke:none;fill-rule:nonzero;fill:rgb(0%,0%,0%);fill-opacity:1;" d="M 113.726562 41.261719 L 114.847656 41.261719 L 114.847656 48.097656 L 113.726562 48.097656 Z M 113.726562 38.597656 L 114.847656 38.597656 L 114.847656 40.023438 L 113.726562 40.023438 Z M 113.726562 38.597656 "/>
<path style=" stroke:none;fill-rule:nonzero;fill:rgb(0%,0%,0%);fill-opacity:1;" d="M 123.046875 44.398438 L 123.046875 44.945312 L 117.882812 44.945312 C 117.929688 45.71875 118.164062 46.308594 118.582031 46.714844 C 118.996094 47.117188 119.578125 47.320312 120.324219 47.320312 C 120.753906 47.320312 121.171875 47.269531 121.578125 47.164062 C 121.980469 47.058594 122.382812 46.898438 122.785156 46.6875 L 122.785156 47.75 C 122.378906 47.917969 121.964844 48.050781 121.542969 48.140625 C 121.121094 48.230469 120.691406 48.273438 120.257812 48.273438 C 119.164062 48.273438 118.300781 47.957031 117.664062 47.324219 C 117.027344 46.6875 116.710938 45.828125 116.710938 44.746094 C 116.710938 43.625 117.011719 42.738281 117.617188 42.082031 C 118.21875 41.425781 119.035156 41.097656 120.0625 41.097656 C 120.980469 41.097656 121.707031 41.390625 122.242188 41.984375 C 122.777344 42.574219 123.046875 43.378906 123.046875 44.398438 Z M 121.921875 44.066406 C 121.914062 43.453125 121.742188 42.964844 121.40625 42.597656 C 121.070312 42.230469 120.625 42.046875 120.074219 42.046875 C 119.445312 42.046875 118.945312 42.222656 118.570312 42.578125 C 118.191406 42.933594 117.976562 43.429688 117.917969 44.074219 Z M 121.921875 44.066406 "/>
<path style=" stroke:none;fill-rule:nonzero;fill:rgb(0%,0%,0%);fill-opacity:1;" d="M 130.570312 43.96875 L 130.570312 48.097656 L 129.449219 48.097656 L 129.449219 44.007812 C 129.449219 43.359375 129.324219 42.875 129.070312 42.554688 C 128.816406 42.234375 128.4375 42.074219 127.933594 42.074219 C 127.328125 42.074219 126.851562 42.265625 126.5 42.652344 C 126.148438 43.039062 125.972656 43.566406 125.972656 44.234375 L 125.972656 48.097656 L 124.84375 48.097656 L 124.84375 41.261719 L 125.972656 41.261719 L 125.972656 42.324219 C 126.242188 41.910156 126.558594 41.605469 126.921875 41.402344 C 127.289062 41.199219 127.707031 41.097656 128.183594 41.097656 C 128.96875 41.097656 129.5625 41.339844 129.964844 41.824219 C 130.371094 42.308594 130.570312 43.023438 130.570312 43.96875 Z M 130.570312 43.96875 "/>
<path style=" stroke:none;fill-rule:nonzero;fill:rgb(0%,0%,0%);fill-opacity:1;" d="M 133.921875 39.320312 L 133.921875 41.261719 L 136.234375 41.261719 L 136.234375 42.132812 L 133.921875 42.132812 L 133.921875 45.84375 C 133.921875 46.402344 134 46.757812 134.148438 46.917969 C 134.304688 47.078125 134.613281 47.15625 135.082031 47.15625 L 136.234375 47.15625 L 136.234375 48.097656 L 135.082031 48.097656 C 134.214844 48.097656 133.617188 47.933594 133.289062 47.613281 C 132.957031 47.289062 132.792969 46.699219 132.792969 45.84375 L 132.792969 42.132812 L 131.96875 42.132812 L 131.96875 41.261719 L 132.792969 41.261719 L 132.792969 39.320312 Z M 133.921875 39.320312 "/>
</g>
</svg>
