<?xml version="1.0" encoding="UTF-8"?>
<svg xmlns="http://www.w3.org/2000/svg" xmlns:xlink="http://www.w3.org/1999/xlink" width="326.827087" height="244.474996" viewBox="0 0 326.827087 244.474996" version="1.1">
<defs>
<clipPath id="clip1">
  <path d="M 56.828125 29 L 317.226562 29 L 317.226562 121 L 56.828125 121 Z M 56.828125 29 "/>
</clipPath>
<clipPath id="clip2">
  <path d="M 56.828125 118 L 317.226562 118 L 317.226562 143 L 56.828125 143 Z M 56.828125 118 "/>
</clipPath>
<clipPath id="clip3">
  <path d="M 56.828125 140 L 317.226562 140 L 317.226562 159 L 56.828125 159 Z M 56.828125 140 "/>
</clipPath>
<clipPath id="clip4">
  <path d="M 56.828125 156 L 317.226562 156 L 317.226562 173 L 56.828125 173 Z M 56.828125 156 "/>
</clipPath>
<clipPath id="clip5">
  <path d="M 56.828125 170 L 317.226562 170 L 317.226562 185 L 56.828125 185 Z M 56.828125 170 "/>
</clipPath>
<clipPath id="clip6">
  <path d="M 56.828125 182 L 282 182 L 282 194.398438 L 56.828125 194.398438 Z M 56.828125 182 "/>
</clipPath>
<clipPath id="clip7">
  <path d="M 279 193 L 317.226562 193 L 317.226562 194.398438 L 279 194.398438 Z M 279 193 "/>
</clipPath>
<clipPath id="clip8">
  <path d="M 56.828125 193 L 59 193 L 59 194.398438 L 56.828125 194.398438 Z M 56.828125 193 "/>
</clipPath>
</defs>
<g id="surface1">
<path style=" stroke:none;fill-rule:nonzero;fill:rgb(100%,100%,100%);fill-opacity:1;" d="M 0 244.476562 L 326.828125 244.476562 L 326.828125 0 L 0 0 Z M 0 244.476562 "/>
<path style=" stroke:none;fill-rule:nonzero;fill:rgb(100%,100%,100%);fill-opacity:1;" d="M 56.828125 194.398438 L 317.226562 194.398438 L 317.226562 9.601562 L 56.828125 9.601562 Z M 56.828125 194.398438 "/>
<path style="fill:none;stroke-width:0.8;stroke-linecap:butt;stroke-linejoin:round;stroke:rgb(0%,0%,0%);stroke-opacity:1;stroke-miterlimit:4;" d="M 0.000785828 -0.00117493 L 0.000785828 3.499802 " transform="matrix(1.333333,0,0,1.333333,117.858327,194.400004)"/>
<path style=" stroke:none;fill-rule:nonzero;fill:rgb(0%,0%,0%);fill-opacity:1;" d="M 109.441406 209.132812 L 117.789062 209.132812 L 117.789062 210.238281 L 109.441406 210.238281 Z M 109.441406 209.132812 "/>
<path style=" stroke:none;fill-rule:nonzero;fill:rgb(0%,0%,0%);fill-opacity:1;" d="M 124.242188 205.289062 L 120.921875 210.480469 L 124.242188 210.480469 Z M 123.894531 204.144531 L 125.550781 204.144531 L 125.550781 210.480469 L 126.9375 210.480469 L 126.9375 211.574219 L 125.550781 211.574219 L 125.550781 213.863281 L 124.242188 213.863281 L 124.242188 211.574219 L 119.855469 211.574219 L 119.855469 210.304688 Z M 123.894531 204.144531 "/>
<path style="fill:none;stroke-width:0.8;stroke-linecap:butt;stroke-linejoin:round;stroke:rgb(0%,0%,0%);stroke-opacity:1;stroke-miterlimit:4;" d="M 0.000778198 -0.00117493 L 0.000778198 3.499802 " transform="matrix(1.333333,0,0,1.333333,199.233337,194.400004)"/>
<path style=" stroke:none;fill-rule:nonzero;fill:rgb(0%,0%,0%);fill-opacity:1;" d="M 190.816406 209.132812 L 199.164062 209.132812 L 199.164062 210.238281 L 190.816406 210.238281 Z M 190.816406 209.132812 "/>
<path style=" stroke:none;fill-rule:nonzero;fill:rgb(0%,0%,0%);fill-opacity:1;" d="M 203.136719 212.757812 L 207.726562 212.757812 L 207.726562 213.863281 L 201.554688 213.863281 L 201.554688 212.757812 C 202.054688 212.242188 202.734375 211.546875 203.59375 210.679688 C 204.457031 209.808594 204.996094 209.246094 205.21875 208.992188 C 205.640625 208.523438 205.933594 208.121094 206.101562 207.792969 C 206.269531 207.464844 206.351562 207.144531 206.351562 206.828125 C 206.351562 206.308594 206.171875 205.890625 205.808594 205.566406 C 205.445312 205.238281 204.972656 205.074219 204.390625 205.074219 C 203.980469 205.074219 203.542969 205.148438 203.085938 205.289062 C 202.628906 205.433594 202.140625 205.648438 201.617188 205.941406 L 201.617188 204.613281 C 202.148438 204.398438 202.640625 204.238281 203.101562 204.132812 C 203.5625 204.023438 203.984375 203.96875 204.367188 203.96875 C 205.375 203.96875 206.175781 204.222656 206.773438 204.726562 C 207.375 205.226562 207.671875 205.898438 207.671875 206.742188 C 207.671875 207.140625 207.597656 207.519531 207.449219 207.878906 C 207.300781 208.234375 207.027344 208.65625 206.632812 209.144531 C 206.523438 209.269531 206.179688 209.632812 205.597656 210.234375 C 205.015625 210.835938 204.195312 211.679688 203.136719 212.757812 Z M 203.136719 212.757812 "/>
<path style="fill:none;stroke-width:0.8;stroke-linecap:butt;stroke-linejoin:round;stroke:rgb(0%,0%,0%);stroke-opacity:1;stroke-miterlimit:4;" d="M 0.000778198 -0.00117493 L 0.000778198 3.499802 " transform="matrix(1.333333,0,0,1.333333,280.608337,194.400004)"/>
<path style=" stroke:none;fill-rule:nonzero;fill:rgb(0%,0%,0%);fill-opacity:1;" d="M 280.605469 205.011719 C 279.929688 205.011719 279.417969 205.34375 279.078125 206.011719 C 278.738281 206.675781 278.566406 207.675781 278.566406 209.015625 C 278.566406 210.347656 278.738281 211.347656 279.078125 212.011719 C 279.417969 212.679688 279.929688 213.011719 280.605469 213.011719 C 281.285156 213.011719 281.796875 212.679688 282.136719 212.011719 C 282.480469 211.347656 282.648438 210.347656 282.648438 209.015625 C 282.648438 207.675781 282.480469 206.675781 282.136719 206.011719 C 281.796875 205.34375 281.285156 205.011719 280.605469 205.011719 Z M 280.605469 203.96875 C 281.695312 203.96875 282.527344 204.398438 283.101562 205.261719 C 283.675781 206.125 283.964844 207.375 283.964844 209.015625 C 283.964844 210.652344 283.675781 211.898438 283.101562 212.761719 C 282.527344 213.625 281.695312 214.054688 280.605469 214.054688 C 279.515625 214.054688 278.683594 213.625 278.109375 212.761719 C 277.535156 211.898438 277.246094 210.652344 277.246094 209.015625 C 277.246094 207.375 277.535156 206.125 278.109375 205.261719 C 278.683594 204.398438 279.515625 203.96875 280.605469 203.96875 Z M 280.605469 203.96875 "/>
<path style=" stroke:none;fill-rule:nonzero;fill:rgb(0%,0%,0%);fill-opacity:1;" d="M 186.160156 224.808594 L 183.519531 228.359375 L 186.292969 232.101562 L 184.882812 232.101562 L 182.757812 229.238281 L 180.636719 232.101562 L 179.222656 232.101562 L 182.054688 228.289062 L 179.464844 224.808594 L 180.878906 224.808594 L 182.808594 227.410156 L 184.742188 224.808594 Z M 186.160156 224.808594 "/>
<path style=" stroke:none;fill-rule:nonzero;fill:rgb(0%,0%,0%);fill-opacity:1;" d="M 188.382812 230.996094 L 190.53125 230.996094 L 190.53125 223.578125 L 188.195312 224.046875 L 188.195312 222.851562 L 190.519531 222.382812 L 191.835938 222.382812 L 191.835938 230.996094 L 193.980469 230.996094 L 193.980469 232.101562 L 188.382812 232.101562 Z M 188.382812 230.996094 "/>
<path style="fill:none;stroke-width:0.8;stroke-linecap:butt;stroke-linejoin:round;stroke:rgb(0%,0%,0%);stroke-opacity:1;stroke-miterlimit:4;" d="M 0.000782013 -0.00117493 L -3.500195 -0.00117493 " transform="matrix(1.333333,0,0,1.333333,56.827082,194.400004)"/>
<path style=" stroke:none;fill-rule:nonzero;fill:rgb(0%,0%,0%);fill-opacity:1;" d="M 29.25 194.730469 L 37.597656 194.730469 L 37.597656 195.839844 L 29.25 195.839844 Z M 29.25 194.730469 "/>
<path style=" stroke:none;fill-rule:nonzero;fill:rgb(0%,0%,0%);fill-opacity:1;" d="M 44.417969 194.222656 C 45.050781 194.359375 45.539062 194.640625 45.894531 195.066406 C 46.246094 195.492188 46.425781 196.015625 46.425781 196.640625 C 46.425781 197.597656 46.09375 198.339844 45.433594 198.867188 C 44.773438 199.394531 43.835938 199.65625 42.621094 199.65625 C 42.214844 199.65625 41.796875 199.613281 41.363281 199.535156 C 40.929688 199.453125 40.484375 199.332031 40.027344 199.171875 L 40.027344 197.902344 C 40.390625 198.117188 40.789062 198.277344 41.222656 198.382812 C 41.65625 198.492188 42.109375 198.546875 42.585938 198.546875 C 43.40625 198.546875 44.035156 198.382812 44.46875 198.058594 C 44.898438 197.734375 45.117188 197.261719 45.117188 196.640625 C 45.117188 196.066406 44.914062 195.617188 44.511719 195.296875 C 44.113281 194.972656 43.554688 194.8125 42.839844 194.8125 L 41.707031 194.8125 L 41.707031 193.730469 L 42.890625 193.730469 C 43.535156 193.730469 44.03125 193.601562 44.375 193.34375 C 44.71875 193.085938 44.886719 192.710938 44.886719 192.226562 C 44.886719 191.726562 44.710938 191.34375 44.355469 191.078125 C 44.003906 190.808594 43.5 190.675781 42.839844 190.675781 C 42.476562 190.675781 42.089844 190.714844 41.679688 190.792969 C 41.265625 190.871094 40.8125 190.992188 40.316406 191.15625 L 40.316406 189.988281 C 40.816406 189.847656 41.285156 189.742188 41.722656 189.675781 C 42.15625 189.605469 42.570312 189.570312 42.957031 189.570312 C 43.953125 189.570312 44.742188 189.796875 45.324219 190.25 C 45.90625 190.703125 46.195312 191.316406 46.195312 192.089844 C 46.195312 192.628906 46.042969 193.082031 45.734375 193.453125 C 45.425781 193.824219 44.988281 194.082031 44.417969 194.222656 Z M 44.417969 194.222656 "/>
<path style="fill:none;stroke-width:0.8;stroke-linecap:butt;stroke-linejoin:round;stroke:rgb(0%,0%,0%);stroke-opacity:1;stroke-miterlimit:4;" d="M 0.000782013 0.000640869 L -3.500195 0.000640869 " transform="matrix(1.333333,0,0,1.333333,56.827082,152.495239)"/>
<path style=" stroke:none;fill-rule:nonzero;fill:rgb(0%,0%,0%);fill-opacity:1;" d="M 29.25 152.828125 L 37.597656 152.828125 L 37.597656 153.933594 L 29.25 153.933594 Z M 29.25 152.828125 "/>
<path style=" stroke:none;fill-rule:nonzero;fill:rgb(0%,0%,0%);fill-opacity:1;" d="M 41.566406 156.453125 L 46.15625 156.453125 L 46.15625 157.5625 L 39.988281 157.5625 L 39.988281 156.453125 C 40.484375 155.9375 41.164062 155.246094 42.027344 154.375 C 42.886719 153.503906 43.429688 152.941406 43.652344 152.691406 C 44.070312 152.21875 44.367188 151.816406 44.53125 151.488281 C 44.699219 151.164062 44.785156 150.839844 44.785156 150.523438 C 44.785156 150.007812 44.601562 149.585938 44.242188 149.261719 C 43.878906 148.933594 43.40625 148.769531 42.824219 148.769531 C 42.410156 148.769531 41.976562 148.84375 41.519531 148.984375 C 41.0625 149.128906 40.570312 149.347656 40.050781 149.636719 L 40.050781 148.308594 C 40.582031 148.097656 41.074219 147.9375 41.535156 147.828125 C 41.996094 147.71875 42.417969 147.664062 42.800781 147.664062 C 43.804688 147.664062 44.609375 147.917969 45.207031 148.421875 C 45.804688 148.925781 46.105469 149.597656 46.105469 150.4375 C 46.105469 150.839844 46.03125 151.21875 45.878906 151.574219 C 45.730469 151.933594 45.460938 152.355469 45.0625 152.839844 C 44.957031 152.964844 44.609375 153.332031 44.027344 153.933594 C 43.449219 154.53125 42.628906 155.375 41.566406 156.453125 Z M 41.566406 156.453125 "/>
<path style="fill:none;stroke-width:0.8;stroke-linecap:butt;stroke-linejoin:round;stroke:rgb(0%,0%,0%);stroke-opacity:1;stroke-miterlimit:4;" d="M 0.000782013 -0.000473022 L -3.500195 -0.000473022 " transform="matrix(1.333333,0,0,1.333333,56.827082,110.590474)"/>
<path style=" stroke:none;fill-rule:nonzero;fill:rgb(0%,0%,0%);fill-opacity:1;" d="M 29.25 110.921875 L 37.597656 110.921875 L 37.597656 112.027344 L 29.25 112.027344 Z M 29.25 110.921875 "/>
<path style=" stroke:none;fill-rule:nonzero;fill:rgb(0%,0%,0%);fill-opacity:1;" d="M 40.664062 114.550781 L 42.8125 114.550781 L 42.8125 107.132812 L 40.472656 107.601562 L 40.472656 106.402344 L 42.800781 105.933594 L 44.113281 105.933594 L 44.113281 114.550781 L 46.261719 114.550781 L 46.261719 115.65625 L 40.664062 115.65625 Z M 40.664062 114.550781 "/>
<path style="fill:none;stroke-width:0.8;stroke-linecap:butt;stroke-linejoin:round;stroke:rgb(0%,0%,0%);stroke-opacity:1;stroke-miterlimit:4;" d="M 0.000782013 0.00133896 L -3.500195 0.00133896 " transform="matrix(1.333333,0,0,1.333333,56.827082,68.685715)"/>
<path style=" stroke:none;fill-rule:nonzero;fill:rgb(0%,0%,0%);fill-opacity:1;" d="M 43.246094 64.898438 C 42.570312 64.898438 42.0625 65.230469 41.722656 65.898438 C 41.378906 66.5625 41.210938 67.5625 41.210938 68.902344 C 41.210938 70.234375 41.378906 71.234375 41.722656 71.898438 C 42.0625 72.566406 42.570312 72.898438 43.246094 72.898438 C 43.929688 72.898438 44.441406 72.566406 44.78125 71.898438 C 45.121094 71.234375 45.292969 70.234375 45.292969 68.902344 C 45.292969 67.5625 45.121094 66.5625 44.78125 65.898438 C 44.441406 65.230469 43.929688 64.898438 43.246094 64.898438 Z M 43.246094 63.855469 C 44.339844 63.855469 45.171875 64.285156 45.746094 65.148438 C 46.320312 66.011719 46.609375 67.261719 46.609375 68.902344 C 46.609375 70.539062 46.320312 71.785156 45.746094 72.648438 C 45.171875 73.511719 44.339844 73.941406 43.246094 73.941406 C 42.160156 73.941406 41.328125 73.511719 40.753906 72.648438 C 40.175781 71.785156 39.890625 70.539062 39.890625 68.902344 C 39.890625 67.261719 40.175781 66.011719 40.753906 65.148438 C 41.328125 64.285156 42.160156 63.855469 43.246094 63.855469 Z M 43.246094 63.855469 "/>
<path style="fill:none;stroke-width:0.8;stroke-linecap:butt;stroke-linejoin:round;stroke:rgb(0%,0%,0%);stroke-opacity:1;stroke-miterlimit:4;" d="M 0.000782013 0.00022316 L -3.500195 0.00022316 " transform="matrix(1.333333,0,0,1.333333,56.827082,26.780952)"/>
<path style=" stroke:none;fill-rule:nonzero;fill:rgb(0%,0%,0%);fill-opacity:1;" d="M 40.664062 30.742188 L 42.8125 30.742188 L 42.8125 23.324219 L 40.476562 23.792969 L 40.476562 22.59375 L 42.800781 22.125 L 44.113281 22.125 L 44.113281 30.742188 L 46.261719 30.742188 L 46.261719 31.847656 L 40.664062 31.847656 Z M 40.664062 30.742188 "/>
<path style=" stroke:none;fill-rule:nonzero;fill:rgb(0%,0%,0%);fill-opacity:1;" d="M 12.441406 102.867188 L 15.988281 105.507812 L 19.730469 102.734375 L 19.730469 104.144531 L 16.867188 106.269531 L 19.730469 108.390625 L 19.730469 109.804688 L 15.917969 106.972656 L 12.441406 109.5625 L 12.441406 108.148438 L 15.039062 106.214844 L 12.441406 104.285156 Z M 12.441406 102.867188 "/>
<path style=" stroke:none;fill-rule:nonzero;fill:rgb(0%,0%,0%);fill-opacity:1;" d="M 18.625 99.738281 L 18.625 95.148438 L 19.730469 95.148438 L 19.730469 101.320312 L 18.625 101.320312 C 18.109375 100.820312 17.414062 100.140625 16.546875 99.28125 C 15.675781 98.417969 15.113281 97.875 14.859375 97.65625 C 14.386719 97.234375 13.988281 96.941406 13.660156 96.773438 C 13.332031 96.605469 13.011719 96.523438 12.695312 96.523438 C 12.175781 96.523438 11.757812 96.703125 11.429688 97.066406 C 11.105469 97.429688 10.941406 97.898438 10.941406 98.480469 C 10.941406 98.894531 11.011719 99.332031 11.15625 99.789062 C 11.300781 100.246094 11.515625 100.734375 11.808594 101.253906 L 10.480469 101.253906 C 10.265625 100.726562 10.105469 100.230469 9.996094 99.773438 C 9.890625 99.3125 9.835938 98.890625 9.835938 98.507812 C 9.835938 97.5 10.085938 96.699219 10.589844 96.097656 C 11.09375 95.5 11.765625 95.199219 12.609375 95.199219 C 13.007812 95.199219 13.386719 95.277344 13.746094 95.425781 C 14.101562 95.574219 14.523438 95.847656 15.011719 96.242188 C 15.136719 96.351562 15.5 96.695312 16.101562 97.277344 C 16.703125 97.859375 17.542969 98.679688 18.625 99.738281 Z M 18.625 99.738281 "/>
<path style="fill:none;stroke-width:1.5;stroke-linecap:square;stroke-linejoin:round;stroke:rgb(100%,49.803922%,5.490196%);stroke-opacity:1;stroke-miterlimit:4;" d="M 57.878906 114.37207 L 70.083984 13.798828 L 81.313477 74.141602 L 91.646484 37.936523 L 101.150391 59.660156 L 109.895508 46.625977 L 117.94043 54.448242 L 125.34082 49.754883 L 132.149414 52.570312 L 138.416016 50.879883 L 144.178711 51.893555 L 149.481445 51.287109 L 154.359375 51.650391 L 158.847656 51.433594 L 162.975586 51.5625 L 166.772461 51.483398 L 170.267578 51.533203 L 173.484375 51.503906 L 176.44043 51.521484 L 179.162109 51.509766 L 181.666992 51.515625 " transform="matrix(1.333333,0,0,1.333333,0,0.000000000000014211)"/>
<path style="fill-rule:nonzero;fill:rgb(100%,49.803922%,5.490196%);fill-opacity:1;stroke-width:1;stroke-linecap:butt;stroke-linejoin:round;stroke:rgb(100%,49.803922%,5.490196%);stroke-opacity:1;stroke-miterlimit:4;" d="M 0.000782013 3.000641 C 0.794727 3.000641 1.559376 2.684235 2.121876 2.121735 C 2.684376 1.559235 3.000782 0.794586 3.000782 0.000640869 C 3.000782 -0.796234 2.684376 -1.557953 2.121876 -2.120453 C 1.559376 -2.682953 0.794727 -2.999359 0.000782013 -2.999359 C -0.796093 -2.999359 -1.557812 -2.682953 -2.120312 -2.120453 C -2.682812 -1.557953 -2.999218 -0.796234 -2.999218 0.000640869 C -2.999218 0.794586 -2.682812 1.559235 -2.120312 2.121735 C -1.557812 2.684235 -0.796093 3.000641 0.000782013 3.000641 Z M 0.000782013 3.000641 " transform="matrix(1.333333,0,0,1.333333,77.170832,152.495239)"/>
<path style="fill-rule:nonzero;fill:rgb(100%,49.803922%,5.490196%);fill-opacity:1;stroke-width:1;stroke-linecap:butt;stroke-linejoin:round;stroke:rgb(100%,49.803922%,5.490196%);stroke-opacity:1;stroke-miterlimit:4;" d="M -0.000389099 2.998828 C 0.796486 2.998828 1.558205 2.685351 2.120705 2.119922 C 2.683205 1.557422 2.999611 0.795703 2.999611 -0.00117207 C 2.999611 -0.795117 2.683205 -1.559766 2.120705 -2.122266 C 1.558205 -2.684766 0.796486 -3.001172 -0.000389099 -3.001172 C -0.794334 -3.001172 -1.558983 -2.684766 -2.121483 -2.122266 C -2.683983 -1.559766 -3.000389 -0.795117 -3.000389 -0.00117207 C -3.000389 0.795703 -2.683983 1.557422 -2.121483 2.119922 C -1.558983 2.685351 -0.794334 2.998828 -0.000389099 2.998828 Z M -0.000389099 2.998828 " transform="matrix(1.333333,0,0,1.333333,93.445831,18.4)"/>
<path style="fill-rule:nonzero;fill:rgb(100%,49.803922%,5.490196%);fill-opacity:1;stroke-width:1;stroke-linecap:butt;stroke-linejoin:round;stroke:rgb(100%,49.803922%,5.490196%);stroke-opacity:1;stroke-miterlimit:4;" d="M -0.000648499 2.998741 C 0.796227 2.998741 1.557945 2.685265 2.120445 2.122765 C 2.682945 1.557335 2.999352 0.795616 2.999352 -0.00125885 C 2.999352 -0.795204 2.682945 -1.559853 2.120445 -2.122353 C 1.557945 -2.684853 0.796227 -3.001259 -0.000648499 -3.001259 C -0.794594 -3.001259 -1.559242 -2.684853 -2.121742 -2.122353 C -2.684242 -1.559853 -3.000648 -0.795204 -3.000648 -0.00125885 C -3.000648 0.795616 -2.684242 1.557335 -2.121742 2.122765 C -1.559242 2.685265 -0.794594 2.998741 -0.000648499 2.998741 Z M -0.000648499 2.998741 " transform="matrix(1.333333,0,0,1.333333,108.418833,98.857147)"/>
<path style="fill-rule:nonzero;fill:rgb(100%,49.803922%,5.490196%);fill-opacity:1;stroke-width:1;stroke-linecap:butt;stroke-linejoin:round;stroke:rgb(100%,49.803922%,5.490196%);stroke-opacity:1;stroke-miterlimit:4;" d="M 0.000991821 2.999382 C 0.794937 2.999382 1.559586 2.682976 2.122086 2.120476 C 2.684586 1.557976 3.000992 0.796257 3.000992 -0.000617981 C 3.000992 -0.794563 2.684586 -1.559212 2.122086 -2.121712 C 1.559586 -2.684212 0.794937 -3.000618 0.000991821 -3.000618 C -0.795883 -3.000618 -1.557602 -2.684212 -2.120102 -2.121712 C -2.682602 -1.559212 -2.999008 -0.794563 -2.999008 -0.000617981 C -2.999008 0.796257 -2.682602 1.557976 -2.120102 2.120476 C -1.557602 2.682976 -0.795883 2.999382 0.000991821 2.999382 Z M 0.000991821 2.999382 " transform="matrix(1.333333,0,0,1.333333,122.19399,50.582855)"/>
<path style="fill-rule:nonzero;fill:rgb(100%,49.803922%,5.490196%);fill-opacity:1;stroke-width:1;stroke-linecap:butt;stroke-linejoin:round;stroke:rgb(100%,49.803922%,5.490196%);stroke-opacity:1;stroke-miterlimit:4;" d="M 0.000038147 2.999584 C 0.796913 2.999584 1.558632 2.683178 2.121132 2.120678 C 2.683632 1.558178 3.000038 0.796459 3.000038 -0.000415802 C 3.000038 -0.794361 2.683632 -1.55901 2.121132 -2.12151 C 1.558632 -2.68401 0.796913 -3.000416 0.000038147 -3.000416 C -0.796837 -3.000416 -1.558556 -2.68401 -2.121056 -2.12151 C -2.683556 -1.55901 -2.999962 -0.794361 -2.999962 -0.000415802 C -2.999962 0.796459 -2.683556 1.558178 -2.121056 2.120678 C -1.558556 2.683178 -0.796837 2.999584 0.000038147 2.999584 Z M 0.000038147 2.999584 " transform="matrix(1.333333,0,0,1.333333,134.867137,79.547429)"/>
<path style="fill-rule:nonzero;fill:rgb(100%,49.803922%,5.490196%);fill-opacity:1;stroke-width:1;stroke-linecap:butt;stroke-linejoin:round;stroke:rgb(100%,49.803922%,5.490196%);stroke-opacity:1;stroke-miterlimit:4;" d="M 0.000679016 2.999462 C 0.794624 2.999462 1.559273 2.683056 2.121773 2.120556 C 2.684273 1.558056 3.000679 0.796337 3.000679 -0.000537872 C 3.000679 -0.794483 2.684273 -1.559132 2.121773 -2.121632 C 1.559273 -2.684132 0.794624 -3.000538 0.000679016 -3.000538 C -0.796196 -3.000538 -1.557915 -2.684132 -2.120415 -2.121632 C -2.682915 -1.559132 -2.999321 -0.794483 -2.999321 -0.000537872 C -2.999321 0.796337 -2.682915 1.558056 -2.120415 2.120556 C -1.557915 2.683056 -0.796196 2.999462 0.000679016 2.999462 Z M 0.000679016 2.999462 " transform="matrix(1.333333,0,0,1.333333,146.526438,62.168686)"/>
<path style="fill-rule:nonzero;fill:rgb(100%,49.803922%,5.490196%);fill-opacity:1;stroke-width:1;stroke-linecap:butt;stroke-linejoin:round;stroke:rgb(100%,49.803922%,5.490196%);stroke-opacity:1;stroke-miterlimit:4;" d="M 0.000686646 3.001293 C 0.794632 3.001293 1.55928 2.684887 2.12178 2.122387 C 2.68428 1.559887 3.000687 0.795238 3.000687 0.00129318 C 3.000687 -0.795582 2.68428 -1.557301 2.12178 -2.12273 C 1.55928 -2.68523 0.794632 -2.998707 0.000686646 -2.998707 C -0.796188 -2.998707 -1.557907 -2.68523 -2.120407 -2.12273 C -2.682907 -1.557301 -2.999313 -0.795582 -2.999313 0.00129318 C -2.999313 0.795238 -2.682907 1.559887 -2.120407 2.122387 C -1.557907 2.684887 -0.796188 3.001293 0.000686646 3.001293 Z M 0.000686646 3.001293 " transform="matrix(1.333333,0,0,1.333333,157.252991,72.595932)"/>
<path style="fill-rule:nonzero;fill:rgb(100%,49.803922%,5.490196%);fill-opacity:1;stroke-width:1;stroke-linecap:butt;stroke-linejoin:round;stroke:rgb(100%,49.803922%,5.490196%);stroke-opacity:1;stroke-miterlimit:4;" d="M -0.000236511 3.000195 C 0.796638 3.000195 1.558357 2.683788 2.120857 2.121288 C 2.683357 1.558788 2.999763 0.79707 2.999763 0.00019455 C 2.999763 -0.79668 2.683357 -1.558399 2.120857 -2.120899 C 1.558357 -2.683399 0.796638 -2.999805 -0.000236511 -2.999805 C -0.794182 -2.999805 -1.55883 -2.683399 -2.12133 -2.120899 C -2.68383 -1.558399 -3.000237 -0.79668 -3.000237 0.00019455 C -3.000237 0.79707 -2.68383 1.558788 -2.12133 2.121288 C -1.55883 2.683788 -0.794182 3.000195 -0.000236511 3.000195 Z M -0.000236511 3.000195 " transform="matrix(1.333333,0,0,1.333333,167.121409,66.339584)"/>
<path style="fill-rule:nonzero;fill:rgb(100%,49.803922%,5.490196%);fill-opacity:1;stroke-width:1;stroke-linecap:butt;stroke-linejoin:round;stroke:rgb(100%,49.803922%,5.490196%);stroke-opacity:1;stroke-miterlimit:4;" d="M -0.000854492 3.000267 C 0.796021 3.000267 1.557739 2.683861 2.120239 2.121361 C 2.682739 1.558861 2.999146 0.794212 2.999146 0.000267029 C 2.999146 -0.796608 2.682739 -1.558327 2.120239 -2.120827 C 1.557739 -2.683327 0.796021 -2.999733 -0.000854492 -2.999733 C -0.7948 -2.999733 -1.559448 -2.683327 -2.121948 -2.120827 C -2.684448 -1.558327 -3.000854 -0.796608 -3.000854 0.000267029 C -3.000854 0.794212 -2.684448 1.558861 -2.121948 2.121361 C -1.559448 2.683861 -0.7948 3.000267 -0.000854492 3.000267 Z M -0.000854492 3.000267 " transform="matrix(1.333333,0,0,1.333333,176.200358,70.093394)"/>
<path style="fill-rule:nonzero;fill:rgb(100%,49.803922%,5.490196%);fill-opacity:1;stroke-width:1;stroke-linecap:butt;stroke-linejoin:round;stroke:rgb(100%,49.803922%,5.490196%);stroke-opacity:1;stroke-miterlimit:4;" d="M 0.00126648 2.99905 C 0.795212 2.99905 1.55986 2.682644 2.12236 2.120144 C 2.68486 1.557644 3.001266 0.795925 3.001266 -0.00094986 C 3.001266 -0.794895 2.68486 -1.559544 2.12236 -2.122044 C 1.55986 -2.684544 0.795212 -3.00095 0.00126648 -3.00095 C -0.795609 -3.00095 -1.557327 -2.684544 -2.122757 -2.122044 C -2.685257 -1.559544 -2.998734 -0.794895 -2.998734 -0.00094986 C -2.998734 0.795925 -2.685257 1.557644 -2.122757 2.120144 C -1.557327 2.682644 -0.795609 2.99905 0.00126648 2.99905 Z M 0.00126648 2.99905 " transform="matrix(1.333333,0,0,1.333333,184.552999,67.84111)"/>
<path style="fill-rule:nonzero;fill:rgb(100%,49.803922%,5.490196%);fill-opacity:1;stroke-width:1;stroke-linecap:butt;stroke-linejoin:round;stroke:rgb(100%,49.803922%,5.490196%);stroke-opacity:1;stroke-miterlimit:4;" d="M 0.000640869 2.999195 C 0.794586 2.999195 1.559235 2.682789 2.121735 2.120289 C 2.684235 1.557789 3.000641 0.79607 3.000641 -0.000804901 C 3.000641 -0.79475 2.684235 -1.559399 2.121735 -2.121899 C 1.559235 -2.684399 0.794586 -3.000805 0.000640869 -3.000805 C -0.796234 -3.000805 -1.557953 -2.684399 -2.120453 -2.121899 C -2.682953 -1.559399 -2.999359 -0.79475 -2.999359 -0.000804901 C -2.999359 0.79607 -2.682953 1.557789 -2.120453 2.120289 C -1.557953 2.682789 -0.796234 2.999195 0.000640869 2.999195 Z M 0.000640869 2.999195 " transform="matrix(1.333333,0,0,1.333333,192.237427,69.192479)"/>
<path style="fill-rule:nonzero;fill:rgb(100%,49.803922%,5.490196%);fill-opacity:1;stroke-width:1;stroke-linecap:butt;stroke-linejoin:round;stroke:rgb(100%,49.803922%,5.490196%);stroke-opacity:1;stroke-miterlimit:4;" d="M 0.00111389 3.000866 C 0.795059 3.000866 1.559708 2.68446 2.122208 2.12196 C 2.684708 1.55946 3.001114 0.794811 3.001114 0.000865936 C 3.001114 -0.796009 2.684708 -1.557728 2.122208 -2.120228 C 1.559708 -2.682728 0.795059 -2.999134 0.00111389 -2.999134 C -0.795761 -2.999134 -1.55748 -2.682728 -2.11998 -2.120228 C -2.68248 -1.557728 -2.998886 -0.796009 -2.998886 0.000865936 C -2.998886 0.794811 -2.68248 1.55946 -2.11998 2.12196 C -1.55748 2.68446 -0.795761 3.000866 0.00111389 3.000866 Z M 0.00111389 3.000866 " transform="matrix(1.333333,0,0,1.333333,199.307109,68.381658)"/>
<path style="fill-rule:nonzero;fill:rgb(100%,49.803922%,5.490196%);fill-opacity:1;stroke-width:1;stroke-linecap:butt;stroke-linejoin:round;stroke:rgb(100%,49.803922%,5.490196%);stroke-opacity:1;stroke-miterlimit:4;" d="M 0.000976562 2.999279 C 0.794922 2.999279 1.55957 2.682873 2.12207 2.120373 C 2.68457 1.557873 3.000977 0.796154 3.000977 -0.000720978 C 3.000977 -0.794666 2.68457 -1.559315 2.12207 -2.121815 C 1.55957 -2.684315 0.794922 -3.000721 0.000976562 -3.000721 C -0.795898 -3.000721 -1.557617 -2.684315 -2.120117 -2.121815 C -2.682617 -1.559315 -2.999023 -0.794666 -2.999023 -0.000720978 C -2.999023 0.796154 -2.682617 1.557873 -2.120117 2.120373 C -1.557617 2.682873 -0.795898 2.999279 0.000976562 2.999279 Z M 0.000976562 2.999279 " transform="matrix(1.333333,0,0,1.333333,205.811198,68.868149)"/>
<path style="fill-rule:nonzero;fill:rgb(100%,49.803922%,5.490196%);fill-opacity:1;stroke-width:1;stroke-linecap:butt;stroke-linejoin:round;stroke:rgb(100%,49.803922%,5.490196%);stroke-opacity:1;stroke-miterlimit:4;" d="M 0.00143433 3.001404 C 0.79538 3.001404 1.560028 2.684998 2.122528 2.122498 C 2.685028 1.559998 3.001434 0.795349 3.001434 0.00140381 C 3.001434 -0.795471 2.685028 -1.56012 2.122528 -2.12262 C 1.560028 -2.68512 0.79538 -2.998596 0.00143433 -2.998596 C -0.795441 -2.998596 -1.560089 -2.68512 -2.122589 -2.12262 C -2.685089 -1.56012 -2.998566 -0.795471 -2.998566 0.00140381 C -2.998566 0.795349 -2.685089 1.559998 -2.122589 2.122498 C -1.560089 2.684998 -0.795441 3.001404 0.00143433 3.001404 Z M 0.00143433 3.001404 " transform="matrix(1.333333,0,0,1.333333,211.794963,68.576253)"/>
<path style="fill-rule:nonzero;fill:rgb(100%,49.803922%,5.490196%);fill-opacity:1;stroke-width:1;stroke-linecap:butt;stroke-linejoin:round;stroke:rgb(100%,49.803922%,5.490196%);stroke-opacity:1;stroke-miterlimit:4;" d="M 0.000549316 2.998959 C 0.794495 2.998959 1.559143 2.682552 2.121643 2.120052 C 2.684143 1.557552 3.000549 0.795834 3.000549 -0.00104141 C 3.000549 -0.794987 2.684143 -1.559635 2.121643 -2.122135 C 1.559143 -2.684635 0.794495 -3.001041 0.000549316 -3.001041 C -0.796326 -3.001041 -1.558044 -2.684635 -2.120544 -2.122135 C -2.683044 -1.559635 -2.999451 -0.794987 -2.999451 -0.00104141 C -2.999451 0.795834 -2.683044 1.557552 -2.120544 2.120052 C -1.558044 2.682552 -0.796326 2.998959 0.000549316 2.998959 Z M 0.000549316 2.998959 " transform="matrix(1.333333,0,0,1.333333,217.300049,68.751389)"/>
<path style="fill-rule:nonzero;fill:rgb(100%,49.803922%,5.490196%);fill-opacity:1;stroke-width:1;stroke-linecap:butt;stroke-linejoin:round;stroke:rgb(100%,49.803922%,5.490196%);stroke-opacity:1;stroke-miterlimit:4;" d="M -0.00106812 2.998669 C 0.795807 2.998669 1.557526 2.685192 2.120026 2.122692 C 2.682526 1.560192 2.998932 0.795544 2.998932 -0.00133133 C 2.998932 -0.795277 2.682526 -1.559925 2.120026 -2.122425 C 1.557526 -2.684925 0.795807 -3.001331 -0.00106812 -3.001331 C -0.795013 -3.001331 -1.559662 -2.684925 -2.122162 -2.122425 C -2.684662 -1.559925 -3.001068 -0.795277 -3.001068 -0.00133133 C -3.001068 0.795544 -2.684662 1.560192 -2.122162 2.122692 C -1.559662 2.685192 -0.795013 2.998669 -0.00106812 2.998669 Z M -0.00106812 2.998669 " transform="matrix(1.333333,0,0,1.333333,222.364705,68.646306)"/>
<path style="fill-rule:nonzero;fill:rgb(100%,49.803922%,5.490196%);fill-opacity:1;stroke-width:1;stroke-linecap:butt;stroke-linejoin:round;stroke:rgb(100%,49.803922%,5.490196%);stroke-opacity:1;stroke-miterlimit:4;" d="M -0.000564575 3.001186 C 0.79631 3.001186 1.558029 2.68478 2.120529 2.12228 C 2.683029 1.55978 2.999435 0.795132 2.999435 0.00118637 C 2.999435 -0.795689 2.683029 -1.557407 2.120529 -2.119907 C 1.558029 -2.685337 0.79631 -2.998814 -0.000564575 -2.998814 C -0.79451 -2.998814 -1.559158 -2.685337 -2.121658 -2.119907 C -2.684158 -1.557407 -3.000565 -0.795689 -3.000565 0.00118637 C -3.000565 0.795132 -2.684158 1.55978 -2.121658 2.12228 C -1.559158 2.68478 -0.79451 3.001186 -0.000564575 3.001186 Z M -0.000564575 3.001186 " transform="matrix(1.333333,0,0,1.333333,227.02419,68.709356)"/>
<path style="fill-rule:nonzero;fill:rgb(100%,49.803922%,5.490196%);fill-opacity:1;stroke-width:1;stroke-linecap:butt;stroke-linejoin:round;stroke:rgb(100%,49.803922%,5.490196%);stroke-opacity:1;stroke-miterlimit:4;" d="M 0.00117493 3.000259 C 0.79512 3.000259 1.559769 2.683853 2.122269 2.121353 C 2.684769 1.558853 3.001175 0.794205 3.001175 0.000259399 C 3.001175 -0.796616 2.684769 -1.558334 2.122269 -2.120834 C 1.559769 -2.683334 0.79512 -2.999741 0.00117493 -2.999741 C -0.7957 -2.999741 -1.557419 -2.683334 -2.119919 -2.120834 C -2.685349 -1.558334 -2.998825 -0.796616 -2.998825 0.000259399 C -2.998825 0.794205 -2.685349 1.558853 -2.119919 2.121353 C -1.557419 2.683853 -0.7957 3.000259 0.00117493 3.000259 Z M 0.00117493 3.000259 " transform="matrix(1.333333,0,0,1.333333,231.310933,68.671529)"/>
<path style="fill-rule:nonzero;fill:rgb(100%,49.803922%,5.490196%);fill-opacity:1;stroke-width:1;stroke-linecap:butt;stroke-linejoin:round;stroke:rgb(100%,49.803922%,5.490196%);stroke-opacity:1;stroke-miterlimit:4;" d="M -0.000610352 3.000816 C 0.796265 3.000816 1.557983 2.68441 2.120483 2.12191 C 2.682983 1.55941 2.99939 0.794762 2.99939 0.000816345 C 2.99939 -0.796059 2.682983 -1.557777 2.120483 -2.120277 C 1.557983 -2.682777 0.796265 -2.999184 -0.000610352 -2.999184 C -0.794556 -2.999184 -1.559204 -2.682777 -2.121704 -2.120277 C -2.684204 -1.557777 -3.00061 -0.796059 -3.00061 0.000816345 C -3.00061 0.794762 -2.684204 1.55941 -2.121704 2.12191 C -1.559204 2.68441 -0.794556 3.000816 -0.000610352 3.000816 Z M -0.000610352 3.000816 " transform="matrix(1.333333,0,0,1.333333,235.25472,68.694224)"/>
<path style="fill-rule:nonzero;fill:rgb(100%,49.803922%,5.490196%);fill-opacity:1;stroke-width:1;stroke-linecap:butt;stroke-linejoin:round;stroke:rgb(100%,49.803922%,5.490196%);stroke-opacity:1;stroke-miterlimit:4;" d="M -0.000137329 2.99931 C 0.796738 2.99931 1.558456 2.682903 2.120956 2.120403 C 2.683456 1.557903 2.999863 0.796185 2.999863 -0.00069046 C 2.999863 -0.794636 2.683456 -1.559284 2.120956 -2.121784 C 1.558456 -2.684284 0.796738 -3.00069 -0.000137329 -3.00069 C -0.797012 -3.00069 -1.558731 -2.684284 -2.121231 -2.121784 C -2.683731 -1.559284 -3.000137 -0.794636 -3.000137 -0.00069046 C -3.000137 0.796185 -2.683731 1.557903 -2.121231 2.120403 C -1.558731 2.682903 -0.797012 2.99931 -0.000137329 2.99931 Z M -0.000137329 2.99931 " transform="matrix(1.333333,0,0,1.333333,238.882996,68.680608)"/>
<path style="fill-rule:nonzero;fill:rgb(100%,49.803922%,5.490196%);fill-opacity:1;stroke-width:1;stroke-linecap:butt;stroke-linejoin:round;stroke:rgb(100%,49.803922%,5.490196%);stroke-opacity:1;stroke-miterlimit:4;" d="M 0.0012207 2.999043 C 0.795166 2.999043 1.559814 2.682636 2.122314 2.120136 C 2.684814 1.557636 3.001221 0.795918 3.001221 -0.000957489 C 3.001221 -0.794903 2.684814 -1.559551 2.122314 -2.122051 C 1.559814 -2.684551 0.795166 -3.000957 0.0012207 -3.000957 C -0.795654 -3.000957 -1.557373 -2.684551 -2.119873 -2.122051 C -2.685303 -1.559551 -2.998779 -0.794903 -2.998779 -0.000957489 C -2.998779 0.795918 -2.685303 1.557636 -2.119873 2.120136 C -1.557373 2.682636 -0.795654 2.999043 0.0012207 2.999043 Z M 0.0012207 2.999043 " transform="matrix(1.333333,0,0,1.333333,242.221029,68.688777)"/>
<g clip-path="url(#clip1)" clip-rule="nonzero">
<path style="fill:none;stroke-width:1.5;stroke-linecap:butt;stroke-linejoin:round;stroke:rgb(12.156863%,46.666667%,70.588237%);stroke-opacity:1;stroke-miterlimit:4;" d="M 237.919922 89.472656 L 234.870117 89.581055 L 231.817383 89.674805 L 228.764648 89.756836 L 225.714844 89.827148 L 222.662109 89.882812 L 219.612305 89.926758 L 216.55957 89.958984 L 213.506836 89.976562 L 210.457031 89.982422 L 207.404297 89.976562 L 204.354492 89.958984 L 201.301758 89.926758 L 198.249023 89.882812 L 195.199219 89.827148 L 192.146484 89.756836 L 189.09668 89.674805 L 186.043945 89.581055 L 182.991211 89.472656 L 179.941406 89.355469 L 177.035156 89.229492 L 176.888672 89.220703 L 173.838867 89.06543 L 170.786133 88.892578 L 167.733398 88.708008 L 164.683594 88.511719 L 161.630859 88.300781 L 158.581055 88.075195 L 155.52832 87.834961 L 152.475586 87.583008 L 149.425781 87.316406 L 146.373047 87.035156 L 143.323242 86.742187 L 140.270508 86.43457 L 137.217773 86.112305 L 136.96875 86.085937 L 134.167969 85.749023 L 131.115234 85.368164 L 128.06543 84.969727 L 125.012695 84.55957 L 121.959961 84.131836 L 118.910156 83.692383 L 115.857422 83.235352 L 113.967773 82.942383 L 112.807617 82.743164 L 109.754883 82.207031 L 106.702148 81.65332 L 103.652344 81.082031 L 100.599609 80.496094 L 97.549805 79.889648 L 97.101562 79.798828 L 94.49707 79.207031 L 91.444336 78.498047 L 88.394531 77.765625 L 85.341797 77.018555 L 83.90918 76.658203 L 82.291992 76.195312 L 79.239258 75.304687 L 76.186523 74.393555 L 73.306641 73.514648 L 73.136719 73.453125 L 70.083984 72.354492 L 67.03418 71.229492 L 64.751953 70.371094 L 63.981445 70.02832 L 60.928711 68.642578 L 57.878906 67.227539 L 54.826172 65.463867 L 52.485352 64.086914 L 51.776367 63.547852 L 48.723633 61.189453 L 48.410156 60.943359 L 45.670898 57.925781 L 45.55957 57.799805 L 43.880859 54.65625 L 43.321289 51.515625 L 43.880859 48.37207 L 45.55957 45.228516 L 45.670898 45.102539 L 48.410156 42.084961 L 48.723633 41.838867 L 51.776367 39.480469 L 52.485352 38.941406 L 54.826172 37.564453 L 57.878906 35.800781 L 60.928711 34.385742 L 63.981445 33 L 64.751953 32.657227 L 67.03418 31.798828 L 70.083984 30.673828 L 73.136719 29.575195 L 73.306641 29.513672 L 76.186523 28.634766 L 79.239258 27.723633 L 82.291992 26.833008 L 83.90918 26.370117 L 85.341797 26.009766 L 88.394531 25.262695 L 91.444336 24.533203 L 94.49707 23.821289 L 97.101562 23.229492 " transform="matrix(1.333333,0,0,1.333333,0,0.000000000000014211)"/>
</g>
<g clip-path="url(#clip2)" clip-rule="nonzero">
<path style="fill:none;stroke-width:1.5;stroke-linecap:butt;stroke-linejoin:round;stroke:rgb(12.156863%,46.666667%,70.588237%);stroke-opacity:1;stroke-miterlimit:4;" d="M 237.919922 105.568359 L 234.870117 105.644531 L 231.817383 105.711914 L 228.764648 105.767578 L 225.714844 105.817383 L 222.662109 105.858398 L 219.612305 105.890625 L 216.55957 105.914062 L 213.506836 105.925781 L 210.457031 105.931641 L 207.404297 105.925781 L 204.354492 105.914062 L 201.301758 105.890625 L 198.249023 105.858398 L 195.199219 105.817383 L 192.146484 105.767578 L 189.09668 105.711914 L 186.043945 105.644531 L 182.991211 105.568359 L 179.941406 105.480469 L 176.888672 105.386719 L 173.838867 105.28418 L 170.786133 105.172852 L 167.733398 105.049805 L 165.208008 104.941406 L 164.683594 104.917969 L 161.630859 104.771484 L 158.581055 104.613281 L 155.52832 104.446289 L 152.475586 104.270508 L 149.425781 104.085937 L 146.373047 103.889648 L 143.323242 103.68457 L 140.270508 103.470703 L 137.217773 103.248047 L 134.167969 103.013672 L 131.115234 102.770508 L 128.06543 102.518555 L 125.012695 102.257812 L 121.959961 101.985352 L 119.944336 101.800781 L 118.910156 101.698242 L 115.857422 101.390625 L 112.807617 101.071289 L 109.754883 100.740234 L 106.702148 100.400391 L 103.652344 100.051758 L 100.599609 99.691406 L 97.549805 99.322266 L 94.49707 98.941406 L 92.276367 98.657227 L 91.444336 98.542969 L 88.394531 98.115234 L 85.341797 97.675781 L 82.291992 97.227539 L 79.239258 96.764648 L 76.186523 96.295898 L 73.136719 95.8125 L 71.291016 95.513672 L 70.083984 95.305664 L 67.03418 94.763672 L 63.981445 94.209961 L 60.928711 93.647461 L 57.878906 93.070312 L 54.826172 92.481445 L 54.263672 92.370117 L 51.776367 91.842773 L 48.723633 91.183594 L 45.670898 90.509766 L 42.621094 89.827148 " transform="matrix(1.333333,0,0,1.333333,0,0.000000000000014211)"/>
</g>
<g clip-path="url(#clip3)" clip-rule="nonzero">
<path style="fill:none;stroke-width:1.5;stroke-linecap:butt;stroke-linejoin:round;stroke:rgb(12.156863%,46.666667%,70.588237%);stroke-opacity:1;stroke-miterlimit:4;" d="M 237.919922 117.875977 L 234.870117 117.9375 L 231.817383 117.993164 L 228.764648 118.040039 L 225.714844 118.081055 L 222.662109 118.113281 L 219.612305 118.139648 L 216.55957 118.157227 L 213.506836 118.168945 L 210.457031 118.171875 L 207.404297 118.168945 L 204.354492 118.157227 L 201.301758 118.139648 L 198.249023 118.113281 L 195.199219 118.081055 L 192.146484 118.040039 L 189.09668 117.993164 L 186.043945 117.9375 L 182.991211 117.875977 L 179.941406 117.805664 L 176.888672 117.729492 L 173.838867 117.644531 L 170.786133 117.553711 L 169.543945 117.515625 L 167.733398 117.454102 L 164.683594 117.342773 L 161.630859 117.222656 L 158.581055 117.09668 L 155.52832 116.961914 L 152.475586 116.821289 L 149.425781 116.671875 L 146.373047 116.513672 L 143.323242 116.349609 L 140.270508 116.176758 L 137.217773 115.995117 L 134.167969 115.807617 L 131.115234 115.614258 L 128.06543 115.40918 L 125.012695 115.198242 L 121.959961 114.981445 L 118.910156 114.755859 L 115.857422 114.521484 L 113.967773 114.37207 L 112.807617 114.275391 L 109.754883 114.011719 L 106.702148 113.742187 L 103.652344 113.463867 L 100.599609 113.179687 L 97.549805 112.883789 L 94.49707 112.582031 L 91.444336 112.271484 L 88.394531 111.955078 L 85.341797 111.626953 L 82.291992 111.292969 L 81.714844 111.228516 L 79.239258 110.935547 L 76.186523 110.566406 L 73.136719 110.188477 L 70.083984 109.801758 L 67.03418 109.40625 L 63.981445 109.001953 L 60.928711 108.591797 L 57.878906 108.169922 L 57.272461 108.084961 L 54.826172 107.72168 L 51.776367 107.258789 L 48.723633 106.787109 L 45.670898 106.306641 L 42.621094 105.817383 " transform="matrix(1.333333,0,0,1.333333,0,0.000000000000014211)"/>
</g>
<g clip-path="url(#clip4)" clip-rule="nonzero">
<path style="fill:none;stroke-width:1.5;stroke-linecap:butt;stroke-linejoin:round;stroke:rgb(12.156863%,46.666667%,70.588237%);stroke-opacity:1;stroke-miterlimit:4;" d="M 237.919922 128.223633 L 234.870117 128.276367 L 231.817383 128.326172 L 228.764648 128.367188 L 225.714844 128.402344 L 222.662109 128.431641 L 219.612305 128.452148 L 216.55957 128.469727 L 213.506836 128.478516 L 210.457031 128.481445 L 207.404297 128.478516 L 204.354492 128.469727 L 201.301758 128.452148 L 198.249023 128.431641 L 195.199219 128.402344 L 192.146484 128.367188 L 189.09668 128.326172 L 186.043945 128.276367 L 182.991211 128.223633 L 179.941406 128.162109 L 176.888672 128.094727 L 173.838867 128.021484 L 170.786133 127.939453 L 167.733398 127.854492 L 164.683594 127.760742 L 161.630859 127.661133 L 158.581055 127.555664 L 155.52832 127.444336 L 152.475586 127.324219 L 149.425781 127.198242 L 146.373047 127.069336 L 143.604492 126.943359 L 143.323242 126.928711 L 140.270508 126.779297 L 137.217773 126.621094 L 134.167969 126.457031 L 131.115234 126.287109 L 128.06543 126.111328 L 125.012695 125.926758 L 121.959961 125.736328 L 118.910156 125.540039 L 115.857422 125.334961 L 112.807617 125.124023 L 109.754883 124.907227 L 106.702148 124.681641 L 103.652344 124.453125 L 100.599609 124.21582 L 97.549805 123.969727 L 95.472656 123.799805 L 94.49707 123.714844 L 91.444336 123.448242 L 88.394531 123.172852 L 85.341797 122.888672 L 82.291992 122.598633 L 79.239258 122.302734 L 76.186523 121.998047 L 73.136719 121.6875 L 70.083984 121.368164 L 67.03418 121.045898 L 63.981445 120.711914 L 63.477539 120.65625 L 60.928711 120.360352 L 57.878906 120 L 54.826172 119.630859 L 51.776367 119.25293 L 48.723633 118.869141 L 45.670898 118.479492 L 42.621094 118.081055 " transform="matrix(1.333333,0,0,1.333333,0,0.000000000000014211)"/>
</g>
<g clip-path="url(#clip5)" clip-rule="nonzero">
<path style="fill:none;stroke-width:1.5;stroke-linecap:butt;stroke-linejoin:round;stroke:rgb(12.156863%,46.666667%,70.588237%);stroke-opacity:1;stroke-miterlimit:4;" d="M 237.919922 137.34082 L 234.870117 137.387695 L 231.817383 137.431641 L 228.764648 137.469727 L 225.714844 137.499023 L 222.662109 137.525391 L 219.612305 137.545898 L 216.55957 137.560547 L 213.506836 137.569336 L 210.457031 137.572266 L 207.404297 137.569336 L 204.354492 137.560547 L 201.301758 137.545898 L 198.249023 137.525391 L 195.199219 137.499023 L 192.146484 137.469727 L 189.09668 137.431641 L 186.043945 137.387695 L 182.991211 137.34082 L 179.941406 137.285156 L 176.888672 137.226562 L 173.838867 137.15918 L 170.786133 137.088867 L 167.733398 137.012695 L 164.683594 136.927734 L 161.630859 136.839844 L 158.581055 136.746094 L 155.52832 136.646484 L 152.475586 136.541016 L 149.425781 136.429688 L 147.9375 136.371094 L 146.373047 136.30957 L 143.323242 136.180664 L 140.270508 136.048828 L 137.217773 135.908203 L 134.167969 135.764648 L 131.115234 135.612305 L 128.06543 135.454102 L 125.012695 135.292969 L 121.959961 135.123047 L 118.910156 134.947266 L 115.857422 134.768555 L 112.807617 134.581055 L 109.754883 134.387695 L 106.702148 134.188477 L 103.652344 133.983398 L 100.599609 133.775391 L 97.549805 133.558594 L 94.49707 133.335938 L 93.070312 133.227539 L 91.444336 133.101562 L 88.394531 132.858398 L 85.341797 132.609375 L 82.291992 132.354492 L 79.239258 132.09082 L 76.186523 131.824219 L 73.136719 131.548828 L 70.083984 131.267578 L 67.03418 130.983398 L 63.981445 130.69043 L 60.928711 130.391602 L 57.878906 130.086914 L 54.826172 129.761719 L 51.776367 129.430664 L 48.723633 129.09375 L 45.670898 128.750977 L 42.621094 128.402344 " transform="matrix(1.333333,0,0,1.333333,0,0.000000000000014211)"/>
</g>
<g clip-path="url(#clip6)" clip-rule="nonzero">
<path style="fill:none;stroke-width:1.5;stroke-linecap:butt;stroke-linejoin:round;stroke:rgb(12.156863%,46.666667%,70.588237%);stroke-opacity:1;stroke-miterlimit:4;" d="M 210.457031 145.798828 L 207.404297 145.795898 L 204.354492 145.790039 L 201.301758 145.775391 L 198.249023 145.757812 L 195.199219 145.734375 L 192.146484 145.705078 L 189.09668 145.669922 L 186.043945 145.628906 L 182.991211 145.584961 L 179.941406 145.532227 L 176.888672 145.476562 L 173.838867 145.415039 L 170.786133 145.350586 L 167.733398 145.277344 L 164.683594 145.201172 L 161.630859 145.119141 L 158.581055 145.03125 L 155.52832 144.9375 L 152.475586 144.837891 L 149.425781 144.735352 L 146.373047 144.624023 L 143.323242 144.509766 L 140.270508 144.389648 L 137.217773 144.266602 L 134.167969 144.134766 L 131.115234 144 L 128.06543 143.859375 L 125.012695 143.712891 L 121.959961 143.560547 L 118.910156 143.402344 L 115.857422 143.241211 L 112.807617 143.071289 L 109.754883 142.898438 L 106.702148 142.719727 L 105.641602 142.658203 L 103.652344 142.532227 L 100.599609 142.335938 L 97.549805 142.136719 L 94.49707 141.928711 L 91.444336 141.717773 L 88.394531 141.498047 L 85.341797 141.275391 L 82.291992 141.046875 L 79.239258 140.8125 L 76.186523 140.572266 L 73.136719 140.326172 L 70.083984 140.077148 L 67.03418 139.819336 L 63.981445 139.558594 L 63.477539 139.514648 L 60.928711 139.283203 L 57.878906 138.999023 L 54.826172 138.711914 L 51.776367 138.416016 L 48.723633 138.117188 L 45.670898 137.8125 L 42.621094 137.499023 " transform="matrix(1.333333,0,0,1.333333,0,0.000000000000014211)"/>
</g>
<g clip-path="url(#clip7)" clip-rule="nonzero">
<path style="fill:none;stroke-width:1.5;stroke-linecap:butt;stroke-linejoin:round;stroke:rgb(12.156863%,46.666667%,70.588237%);stroke-opacity:1;stroke-miterlimit:4;" d="M 237.919922 145.584961 L 234.870117 145.628906 L 231.817383 145.669922 L 228.764648 145.705078 L 225.714844 145.734375 L 222.662109 145.757812 L 219.612305 145.775391 L 216.55957 145.790039 L 213.506836 145.795898 L 210.457031 145.798828 " transform="matrix(1.333333,0,0,1.333333,0,0.000000000000014211)"/>
</g>
<g clip-path="url(#clip8)" clip-rule="nonzero">
<path style="fill:none;stroke-width:1.5;stroke-linecap:butt;stroke-linejoin:round;stroke:rgb(12.156863%,46.666667%,70.588237%);stroke-opacity:1;stroke-miterlimit:4;" d="M 43.321289 145.798828 L 42.621094 145.734375 " transform="matrix(1.333333,0,0,1.333333,0,0.000000000000014211)"/>
</g>
<path style="fill:none;stroke-width:0.8;stroke-linecap:square;stroke-linejoin:miter;stroke:rgb(0%,0%,0%);stroke-opacity:1;stroke-miterlimit:4;" d="M 42.621094 145.798828 L 42.621094 7.201172 " transform="matrix(1.333333,0,0,1.333333,0,0.000000000000014211)"/>
<path style="fill:none;stroke-width:0.8;stroke-linecap:square;stroke-linejoin:miter;stroke:rgb(0%,0%,0%);stroke-opacity:1;stroke-miterlimit:4;" d="M 237.919922 145.798828 L 237.919922 7.201172 " transform="matrix(1.333333,0,0,1.333333,0,0.000000000000014211)"/>
<path style="fill:none;stroke-width:0.8;stroke-linecap:square;stroke-linejoin:miter;stroke:rgb(0%,0%,0%);stroke-opacity:1;stroke-miterlimit:4;" d="M 42.621094 145.798828 L 237.919922 145.798828 " transform="matrix(1.333333,0,0,1.333333,0,0.000000000000014211)"/>
<path style="fill:none;stroke-width:0.8;stroke-linecap:square;stroke-linejoin:miter;stroke:rgb(0%,0%,0%);stroke-opacity:1;stroke-miterlimit:4;" d="M 42.621094 7.201172 L 237.919922 7.201172 " transform="matrix(1.333333,0,0,1.333333,0,0.000000000000014211)"/>
</g>
</svg>
