<?xml version="1.0" encoding="UTF-8"?>
<svg xmlns="http://www.w3.org/2000/svg" xmlns:xlink="http://www.w3.org/1999/xlink" width="420pt" height="229pt" viewBox="0 0 420 229" version="1.1">
<defs>
<clipPath id="clip1">
  <path d="M 77 9 L 80 9 L 80 182.25 L 77 182.25 Z M 77 9 "/>
</clipPath>
<clipPath id="clip2">
  <path d="M 117 9 L 120 9 L 120 182.25 L 117 182.25 Z M 117 9 "/>
</clipPath>
<clipPath id="clip3">
  <path d="M 157 9 L 159 9 L 159 182.25 L 157 182.25 Z M 157 9 "/>
</clipPath>
<clipPath id="clip4">
  <path d="M 197 9 L 199 9 L 199 182.25 L 197 182.25 Z M 197 9 "/>
</clipPath>
<clipPath id="clip5">
  <path d="M 237 9 L 239 9 L 239 182.25 L 237 182.25 Z M 237 9 "/>
</clipPath>
<clipPath id="clip6">
  <path d="M 277 9 L 279 9 L 279 182.25 L 277 182.25 Z M 277 9 "/>
</clipPath>
<clipPath id="clip7">
  <path d="M 317 9 L 319 9 L 319 182.25 L 317 182.25 Z M 317 9 "/>
</clipPath>
<clipPath id="clip8">
  <path d="M 356 9 L 359 9 L 359 182.25 L 356 182.25 Z M 356 9 "/>
</clipPath>
<clipPath id="clip9">
  <path d="M 396 9 L 399 9 L 399 182.25 L 396 182.25 Z M 396 9 "/>
</clipPath>
<clipPath id="clip10">
  <path d="M 62.679688 173 L 411.429688 173 L 411.429688 176 L 62.679688 176 Z M 62.679688 173 "/>
</clipPath>
<clipPath id="clip11">
  <path d="M 62.679688 142 L 411.429688 142 L 411.429688 144 L 62.679688 144 Z M 62.679688 142 "/>
</clipPath>
<clipPath id="clip12">
  <path d="M 62.679688 110 L 411.429688 110 L 411.429688 113 L 62.679688 113 Z M 62.679688 110 "/>
</clipPath>
<clipPath id="clip13">
  <path d="M 62.679688 79 L 411.429688 79 L 411.429688 81 L 62.679688 81 Z M 62.679688 79 "/>
</clipPath>
<clipPath id="clip14">
  <path d="M 62.679688 47 L 411.429688 47 L 411.429688 50 L 62.679688 50 Z M 62.679688 47 "/>
</clipPath>
<clipPath id="clip15">
  <path d="M 62.679688 16 L 411.429688 16 L 411.429688 18 L 62.679688 18 Z M 62.679688 16 "/>
</clipPath>
</defs>
<g id="surface1">
<rect x="0" y="0" width="420" height="229" style="fill:rgb(100%,100%,100%);fill-opacity:1;stroke:none;"/>
<path style=" stroke:none;fill-rule:nonzero;fill:rgb(100%,100%,100%);fill-opacity:1;" d="M 62.679688 182.25 L 411.429688 182.25 L 411.429688 9 L 62.679688 9 Z M 62.679688 182.25 "/>
<g clip-path="url(#clip1)" clip-rule="nonzero">
<path style="fill:none;stroke-width:0.8;stroke-linecap:square;stroke-linejoin:round;stroke:rgb(69.019608%,69.019608%,69.019608%);stroke-opacity:1;stroke-miterlimit:4;" d="M 62.825 145.8 L 62.825 7.2 " transform="matrix(1.25,0,0,1.25,0.000000000000028422,0)"/>
</g>
<path style="fill:none;stroke-width:0.8;stroke-linecap:butt;stroke-linejoin:round;stroke:rgb(0%,0%,0%);stroke-opacity:1;stroke-miterlimit:4;" d="M -0.000568 0 L -0.000568 3.5 " transform="matrix(1.25,0,0,1.25,78.53196,182.25)"/>
<path style=" stroke:none;fill-rule:nonzero;fill:rgb(0%,0%,0%);fill-opacity:1;" d="M 70.640625 196.0625 L 78.464844 196.0625 L 78.464844 197.097656 L 70.640625 197.097656 Z M 70.640625 196.0625 "/>
<path style=" stroke:none;fill-rule:nonzero;fill:rgb(0%,0%,0%);fill-opacity:1;" d="M 83.765625 196.171875 C 83.179688 196.171875 82.71875 196.328125 82.382812 196.640625 C 82.046875 196.953125 81.878906 197.386719 81.878906 197.933594 C 81.878906 198.484375 82.046875 198.914062 82.382812 199.230469 C 82.71875 199.542969 83.179688 199.699219 83.765625 199.699219 C 84.351562 199.699219 84.8125 199.542969 85.148438 199.226562 C 85.488281 198.910156 85.65625 198.480469 85.65625 197.933594 C 85.65625 197.386719 85.488281 196.953125 85.152344 196.640625 C 84.820312 196.328125 84.355469 196.171875 83.765625 196.171875 Z M 82.53125 195.648438 C 82.003906 195.515625 81.589844 195.269531 81.296875 194.910156 C 81 194.546875 80.855469 194.101562 80.855469 193.582031 C 80.855469 192.855469 81.113281 192.277344 81.632812 191.855469 C 82.152344 191.433594 82.863281 191.222656 83.765625 191.222656 C 84.671875 191.222656 85.382812 191.433594 85.902344 191.855469 C 86.417969 192.277344 86.675781 192.855469 86.675781 193.582031 C 86.675781 194.101562 86.527344 194.546875 86.234375 194.910156 C 85.9375 195.269531 85.53125 195.515625 85.003906 195.648438 C 85.597656 195.785156 86.0625 196.054688 86.390625 196.460938 C 86.722656 196.863281 86.890625 197.351562 86.890625 197.933594 C 86.890625 198.816406 86.621094 199.496094 86.082031 199.96875 C 85.542969 200.441406 84.769531 200.675781 83.765625 200.675781 C 82.761719 200.675781 81.988281 200.441406 81.449219 199.96875 C 80.910156 199.496094 80.640625 198.816406 80.640625 197.933594 C 80.640625 197.351562 80.804688 196.863281 81.140625 196.460938 C 81.472656 196.054688 81.9375 195.785156 82.53125 195.648438 Z M 82.082031 193.699219 C 82.082031 194.171875 82.226562 194.539062 82.523438 194.804688 C 82.816406 195.066406 83.230469 195.199219 83.765625 195.199219 C 84.292969 195.199219 84.707031 195.066406 85.007812 194.804688 C 85.304688 194.539062 85.457031 194.171875 85.457031 193.699219 C 85.457031 193.226562 85.304688 192.859375 85.007812 192.59375 C 84.707031 192.328125 84.292969 192.199219 83.765625 192.199219 C 83.230469 192.199219 82.816406 192.328125 82.523438 192.59375 C 82.226562 192.859375 82.082031 193.226562 82.082031 193.699219 Z M 82.082031 193.699219 "/>
<g clip-path="url(#clip2)" clip-rule="nonzero">
<path style="fill:none;stroke-width:0.8;stroke-linecap:square;stroke-linejoin:round;stroke:rgb(69.019608%,69.019608%,69.019608%);stroke-opacity:1;stroke-miterlimit:4;" d="M 94.728125 145.8 L 94.728125 7.2 " transform="matrix(1.25,0,0,1.25,0.000000000000028422,0)"/>
</g>
<path style="fill:none;stroke-width:0.8;stroke-linecap:butt;stroke-linejoin:round;stroke:rgb(0%,0%,0%);stroke-opacity:1;stroke-miterlimit:4;" d="M -0.001389 0 L -0.001389 3.5 " transform="matrix(1.25,0,0,1.25,118.411893,182.25)"/>
<path style=" stroke:none;fill-rule:nonzero;fill:rgb(0%,0%,0%);fill-opacity:1;" d="M 110.523438 196.0625 L 118.347656 196.0625 L 118.347656 197.097656 L 110.523438 197.097656 Z M 110.523438 196.0625 "/>
<path style=" stroke:none;fill-rule:nonzero;fill:rgb(0%,0%,0%);fill-opacity:1;" d="M 123.796875 195.453125 C 123.246094 195.453125 122.804688 195.640625 122.480469 196.019531 C 122.160156 196.398438 121.996094 196.914062 121.996094 197.574219 C 121.996094 198.230469 122.160156 198.746094 122.480469 199.128906 C 122.804688 199.507812 123.246094 199.699219 123.796875 199.699219 C 124.351562 199.699219 124.789062 199.507812 125.113281 199.128906 C 125.4375 198.746094 125.597656 198.230469 125.597656 197.574219 C 125.597656 196.914062 125.4375 196.398438 125.113281 196.019531 C 124.789062 195.640625 124.351562 195.453125 123.796875 195.453125 Z M 126.246094 191.585938 L 126.246094 192.710938 C 125.9375 192.5625 125.625 192.453125 125.308594 192.375 C 124.992188 192.296875 124.679688 192.257812 124.371094 192.257812 C 123.558594 192.257812 122.933594 192.53125 122.503906 193.082031 C 122.078125 193.632812 121.832031 194.460938 121.769531 195.574219 C 122.011719 195.21875 122.3125 194.945312 122.671875 194.757812 C 123.035156 194.570312 123.4375 194.476562 123.871094 194.476562 C 124.785156 194.476562 125.507812 194.753906 126.039062 195.308594 C 126.570312 195.863281 126.835938 196.617188 126.835938 197.574219 C 126.835938 198.511719 126.5625 199.261719 126.007812 199.828125 C 125.453125 200.394531 124.71875 200.675781 123.796875 200.675781 C 122.742188 200.675781 121.9375 200.273438 121.378906 199.464844 C 120.824219 198.65625 120.542969 197.484375 120.542969 195.953125 C 120.542969 194.511719 120.886719 193.363281 121.570312 192.507812 C 122.253906 191.648438 123.171875 191.222656 124.320312 191.222656 C 124.632812 191.222656 124.945312 191.25 125.257812 191.3125 C 125.574219 191.375 125.902344 191.464844 126.246094 191.585938 Z M 126.246094 191.585938 "/>
<g clip-path="url(#clip3)" clip-rule="nonzero">
<path style="fill:none;stroke-width:0.8;stroke-linecap:square;stroke-linejoin:round;stroke:rgb(69.019608%,69.019608%,69.019608%);stroke-opacity:1;stroke-miterlimit:4;" d="M 126.634375 145.8 L 126.634375 7.2 " transform="matrix(1.25,0,0,1.25,0.000000000000028422,0)"/>
</g>
<path style="fill:none;stroke-width:0.8;stroke-linecap:butt;stroke-linejoin:round;stroke:rgb(0%,0%,0%);stroke-opacity:1;stroke-miterlimit:4;" d="M 0.000915 0 L 0.000915 3.5 " transform="matrix(1.25,0,0,1.25,158.291825,182.25)"/>
<path style=" stroke:none;fill-rule:nonzero;fill:rgb(0%,0%,0%);fill-opacity:1;" d="M 150.402344 196.0625 L 158.226562 196.0625 L 158.226562 197.097656 L 150.402344 197.097656 Z M 150.402344 196.0625 "/>
<path style=" stroke:none;fill-rule:nonzero;fill:rgb(0%,0%,0%);fill-opacity:1;" d="M 164.277344 192.460938 L 161.164062 197.324219 L 164.277344 197.324219 Z M 163.953125 191.386719 L 165.503906 191.386719 L 165.503906 197.324219 L 166.804688 197.324219 L 166.804688 198.351562 L 165.503906 198.351562 L 165.503906 200.5 L 164.277344 200.5 L 164.277344 198.351562 L 160.164062 198.351562 L 160.164062 197.160156 Z M 163.953125 191.386719 "/>
<g clip-path="url(#clip4)" clip-rule="nonzero">
<path style="fill:none;stroke-width:0.8;stroke-linecap:square;stroke-linejoin:round;stroke:rgb(69.019608%,69.019608%,69.019608%);stroke-opacity:1;stroke-miterlimit:4;" d="M 158.5375 145.8 L 158.5375 7.2 " transform="matrix(1.25,0,0,1.25,0.000000000000028422,0)"/>
</g>
<path style="fill:none;stroke-width:0.8;stroke-linecap:butt;stroke-linejoin:round;stroke:rgb(0%,0%,0%);stroke-opacity:1;stroke-miterlimit:4;" d="M 0.000094 0 L 0.000094 3.5 " transform="matrix(1.25,0,0,1.25,198.171758,182.25)"/>
<path style=" stroke:none;fill-rule:nonzero;fill:rgb(0%,0%,0%);fill-opacity:1;" d="M 190.28125 196.0625 L 198.105469 196.0625 L 198.105469 197.097656 L 190.28125 197.097656 Z M 190.28125 196.0625 "/>
<path style=" stroke:none;fill-rule:nonzero;fill:rgb(0%,0%,0%);fill-opacity:1;" d="M 201.828125 199.460938 L 206.132812 199.460938 L 206.132812 200.5 L 200.347656 200.5 L 200.347656 199.460938 C 200.816406 198.976562 201.453125 198.328125 202.257812 197.511719 C 203.066406 196.695312 203.574219 196.167969 203.78125 195.933594 C 204.175781 195.488281 204.453125 195.113281 204.609375 194.808594 C 204.765625 194.5 204.84375 194.199219 204.84375 193.902344 C 204.84375 193.417969 204.675781 193.023438 204.335938 192.71875 C 203.996094 192.410156 203.554688 192.257812 203.007812 192.257812 C 202.621094 192.257812 202.210938 192.324219 201.78125 192.460938 C 201.355469 192.59375 200.894531 192.796875 200.40625 193.070312 L 200.40625 191.824219 C 200.902344 191.625 201.367188 191.476562 201.796875 191.375 C 202.230469 191.273438 202.625 191.222656 202.984375 191.222656 C 203.929688 191.222656 204.679688 191.457031 205.242188 191.929688 C 205.804688 192.402344 206.082031 193.03125 206.082031 193.820312 C 206.082031 194.195312 206.011719 194.550781 205.871094 194.886719 C 205.734375 195.222656 205.476562 195.617188 205.105469 196.074219 C 205.003906 196.191406 204.683594 196.53125 204.136719 197.097656 C 203.59375 197.660156 202.824219 198.449219 201.828125 199.460938 Z M 201.828125 199.460938 "/>
<g clip-path="url(#clip5)" clip-rule="nonzero">
<path style="fill:none;stroke-width:0.8;stroke-linecap:square;stroke-linejoin:round;stroke:rgb(69.019608%,69.019608%,69.019608%);stroke-opacity:1;stroke-miterlimit:4;" d="M 190.440625 145.8 L 190.440625 7.2 " transform="matrix(1.25,0,0,1.25,0.000000000000028422,0)"/>
</g>
<path style="fill:none;stroke-width:0.8;stroke-linecap:butt;stroke-linejoin:round;stroke:rgb(0%,0%,0%);stroke-opacity:1;stroke-miterlimit:4;" d="M -0.000727 0 L -0.000727 3.5 " transform="matrix(1.25,0,0,1.25,238.05169,182.25)"/>
<path style=" stroke:none;fill-rule:nonzero;fill:rgb(0%,0%,0%);fill-opacity:1;" d="M 238.046875 192.199219 C 237.414062 192.199219 236.9375 192.511719 236.617188 193.136719 C 236.296875 193.757812 236.136719 194.699219 236.136719 195.953125 C 236.136719 197.199219 236.296875 198.136719 236.617188 198.761719 C 236.9375 199.386719 237.414062 199.699219 238.046875 199.699219 C 238.6875 199.699219 239.167969 199.386719 239.484375 198.761719 C 239.804688 198.136719 239.964844 197.199219 239.964844 195.953125 C 239.964844 194.699219 239.804688 193.757812 239.484375 193.136719 C 239.167969 192.511719 238.6875 192.199219 238.046875 192.199219 Z M 238.046875 191.222656 C 239.070312 191.222656 239.851562 191.625 240.390625 192.433594 C 240.929688 193.242188 241.199219 194.414062 241.199219 195.953125 C 241.199219 197.484375 240.929688 198.65625 240.390625 199.464844 C 239.851562 200.273438 239.070312 200.675781 238.046875 200.675781 C 237.027344 200.675781 236.246094 200.273438 235.707031 199.464844 C 235.167969 198.65625 234.898438 197.484375 234.898438 195.953125 C 234.898438 194.414062 235.167969 193.242188 235.707031 192.433594 C 236.246094 191.625 237.027344 191.222656 238.046875 191.222656 Z M 238.046875 191.222656 "/>
<g clip-path="url(#clip6)" clip-rule="nonzero">
<path style="fill:none;stroke-width:0.8;stroke-linecap:square;stroke-linejoin:round;stroke:rgb(69.019608%,69.019608%,69.019608%);stroke-opacity:1;stroke-miterlimit:4;" d="M 222.34375 145.8 L 222.34375 7.2 " transform="matrix(1.25,0,0,1.25,0.000000000000028422,0)"/>
</g>
<path style="fill:none;stroke-width:0.8;stroke-linecap:butt;stroke-linejoin:round;stroke:rgb(0%,0%,0%);stroke-opacity:1;stroke-miterlimit:4;" d="M -0.001548 0 L -0.001548 3.5 " transform="matrix(1.25,0,0,1.25,277.931623,182.25)"/>
<path style=" stroke:none;fill-rule:nonzero;fill:rgb(0%,0%,0%);fill-opacity:1;" d="M 276.351562 199.460938 L 280.65625 199.460938 L 280.65625 200.5 L 274.871094 200.5 L 274.871094 199.460938 C 275.339844 198.976562 275.976562 198.328125 276.78125 197.511719 C 277.589844 196.695312 278.097656 196.167969 278.304688 195.933594 C 278.699219 195.488281 278.976562 195.113281 279.132812 194.808594 C 279.289062 194.5 279.367188 194.199219 279.367188 193.902344 C 279.367188 193.417969 279.199219 193.023438 278.859375 192.71875 C 278.519531 192.410156 278.078125 192.257812 277.53125 192.257812 C 277.144531 192.257812 276.734375 192.324219 276.304688 192.460938 C 275.878906 192.59375 275.417969 192.796875 274.929688 193.070312 L 274.929688 191.824219 C 275.425781 191.625 275.890625 191.476562 276.320312 191.375 C 276.753906 191.273438 277.148438 191.222656 277.507812 191.222656 C 278.453125 191.222656 279.203125 191.457031 279.765625 191.929688 C 280.328125 192.402344 280.605469 193.03125 280.605469 193.820312 C 280.605469 194.195312 280.535156 194.550781 280.394531 194.886719 C 280.257812 195.222656 280 195.617188 279.628906 196.074219 C 279.527344 196.191406 279.207031 196.53125 278.660156 197.097656 C 278.117188 197.660156 277.347656 198.449219 276.351562 199.460938 Z M 276.351562 199.460938 "/>
<g clip-path="url(#clip7)" clip-rule="nonzero">
<path style="fill:none;stroke-width:0.8;stroke-linecap:square;stroke-linejoin:round;stroke:rgb(69.019608%,69.019608%,69.019608%);stroke-opacity:1;stroke-miterlimit:4;" d="M 254.25 145.8 L 254.25 7.2 " transform="matrix(1.25,0,0,1.25,0.000000000000028422,0)"/>
</g>
<path style="fill:none;stroke-width:0.8;stroke-linecap:butt;stroke-linejoin:round;stroke:rgb(0%,0%,0%);stroke-opacity:1;stroke-miterlimit:4;" d="M 0.000757 0 L 0.000757 3.5 " transform="matrix(1.25,0,0,1.25,317.811554,182.25)"/>
<path style=" stroke:none;fill-rule:nonzero;fill:rgb(0%,0%,0%);fill-opacity:1;" d="M 318.558594 192.460938 L 315.445312 197.324219 L 318.558594 197.324219 Z M 318.234375 191.386719 L 319.785156 191.386719 L 319.785156 197.324219 L 321.085938 197.324219 L 321.085938 198.351562 L 319.785156 198.351562 L 319.785156 200.5 L 318.558594 200.5 L 318.558594 198.351562 L 314.445312 198.351562 L 314.445312 197.160156 Z M 318.234375 191.386719 "/>
<g clip-path="url(#clip8)" clip-rule="nonzero">
<path style="fill:none;stroke-width:0.8;stroke-linecap:square;stroke-linejoin:round;stroke:rgb(69.019608%,69.019608%,69.019608%);stroke-opacity:1;stroke-miterlimit:4;" d="M 286.153125 145.8 L 286.153125 7.2 " transform="matrix(1.25,0,0,1.25,0.000000000000028422,0)"/>
</g>
<path style="fill:none;stroke-width:0.8;stroke-linecap:butt;stroke-linejoin:round;stroke:rgb(0%,0%,0%);stroke-opacity:1;stroke-miterlimit:4;" d="M -0.000064 0 L -0.000064 3.5 " transform="matrix(1.25,0,0,1.25,357.691486,182.25)"/>
<path style=" stroke:none;fill-rule:nonzero;fill:rgb(0%,0%,0%);fill-opacity:1;" d="M 357.84375 195.453125 C 357.289062 195.453125 356.851562 195.640625 356.527344 196.019531 C 356.203125 196.398438 356.042969 196.914062 356.042969 197.574219 C 356.042969 198.230469 356.203125 198.746094 356.527344 199.128906 C 356.851562 199.507812 357.289062 199.699219 357.84375 199.699219 C 358.394531 199.699219 358.832031 199.507812 359.15625 199.128906 C 359.480469 198.746094 359.640625 198.230469 359.640625 197.574219 C 359.640625 196.914062 359.480469 196.398438 359.15625 196.019531 C 358.832031 195.640625 358.394531 195.453125 357.84375 195.453125 Z M 360.289062 191.585938 L 360.289062 192.710938 C 359.980469 192.5625 359.667969 192.453125 359.351562 192.375 C 359.035156 192.296875 358.722656 192.257812 358.414062 192.257812 C 357.601562 192.257812 356.980469 192.53125 356.550781 193.082031 C 356.121094 193.632812 355.875 194.460938 355.816406 195.574219 C 356.054688 195.21875 356.355469 194.945312 356.71875 194.757812 C 357.082031 194.570312 357.480469 194.476562 357.914062 194.476562 C 358.828125 194.476562 359.554688 194.753906 360.085938 195.308594 C 360.617188 195.863281 360.882812 196.617188 360.882812 197.574219 C 360.882812 198.511719 360.605469 199.261719 360.050781 199.828125 C 359.496094 200.394531 358.761719 200.675781 357.84375 200.675781 C 356.789062 200.675781 355.980469 200.273438 355.425781 199.464844 C 354.867188 198.65625 354.589844 197.484375 354.589844 195.953125 C 354.589844 194.511719 354.929688 193.363281 355.613281 192.507812 C 356.296875 191.648438 357.214844 191.222656 358.367188 191.222656 C 358.675781 191.222656 358.988281 191.25 359.304688 191.3125 C 359.617188 191.375 359.945312 191.464844 360.289062 191.585938 Z M 360.289062 191.585938 "/>
<g clip-path="url(#clip9)" clip-rule="nonzero">
<path style="fill:none;stroke-width:0.8;stroke-linecap:square;stroke-linejoin:round;stroke:rgb(69.019608%,69.019608%,69.019608%);stroke-opacity:1;stroke-miterlimit:4;" d="M 318.05625 145.8 L 318.05625 7.2 " transform="matrix(1.25,0,0,1.25,0.000000000000028422,0)"/>
</g>
<path style="fill:none;stroke-width:0.8;stroke-linecap:butt;stroke-linejoin:round;stroke:rgb(0%,0%,0%);stroke-opacity:1;stroke-miterlimit:4;" d="M -0.000885 0 L -0.000885 3.5 " transform="matrix(1.25,0,0,1.25,397.571419,182.25)"/>
<path style=" stroke:none;fill-rule:nonzero;fill:rgb(0%,0%,0%);fill-opacity:1;" d="M 397.566406 196.171875 C 396.980469 196.171875 396.519531 196.328125 396.183594 196.640625 C 395.851562 196.953125 395.683594 197.386719 395.683594 197.933594 C 395.683594 198.484375 395.851562 198.914062 396.183594 199.230469 C 396.519531 199.542969 396.980469 199.699219 397.566406 199.699219 C 398.152344 199.699219 398.613281 199.542969 398.953125 199.226562 C 399.289062 198.910156 399.460938 198.480469 399.460938 197.933594 C 399.460938 197.386719 399.292969 196.953125 398.957031 196.640625 C 398.621094 196.328125 398.160156 196.171875 397.566406 196.171875 Z M 396.335938 195.648438 C 395.804688 195.515625 395.394531 195.269531 395.097656 194.910156 C 394.804688 194.546875 394.65625 194.101562 394.65625 193.582031 C 394.65625 192.855469 394.917969 192.277344 395.433594 191.855469 C 395.953125 191.433594 396.664062 191.222656 397.566406 191.222656 C 398.476562 191.222656 399.1875 191.433594 399.703125 191.855469 C 400.222656 192.277344 400.480469 192.855469 400.480469 193.582031 C 400.480469 194.101562 400.332031 194.546875 400.035156 194.910156 C 399.742188 195.269531 399.332031 195.515625 398.808594 195.648438 C 399.402344 195.785156 399.863281 196.054688 400.195312 196.460938 C 400.527344 196.863281 400.691406 197.351562 400.691406 197.933594 C 400.691406 198.816406 400.421875 199.496094 399.882812 199.96875 C 399.34375 200.441406 398.574219 200.675781 397.566406 200.675781 C 396.5625 200.675781 395.792969 200.441406 395.25 199.96875 C 394.710938 199.496094 394.441406 198.816406 394.441406 197.933594 C 394.441406 197.351562 394.609375 196.863281 394.941406 196.460938 C 395.277344 196.054688 395.742188 195.785156 396.335938 195.648438 Z M 395.882812 193.699219 C 395.882812 194.171875 396.03125 194.539062 396.324219 194.804688 C 396.621094 195.066406 397.035156 195.199219 397.566406 195.199219 C 398.097656 195.199219 398.511719 195.066406 398.808594 194.804688 C 399.109375 194.539062 399.257812 194.171875 399.257812 193.699219 C 399.257812 193.226562 399.109375 192.859375 398.808594 192.59375 C 398.511719 192.328125 398.097656 192.199219 397.566406 192.199219 C 397.035156 192.199219 396.621094 192.328125 396.324219 192.59375 C 396.03125 192.859375 395.882812 193.226562 395.882812 193.699219 Z M 395.882812 193.699219 "/>
<path style=" stroke:none;fill-rule:nonzero;fill:rgb(0%,0%,0%);fill-opacity:1;" d="M 240.214844 210.761719 L 237.742188 214.085938 L 240.34375 217.597656 L 239.019531 217.597656 L 237.027344 214.910156 L 235.039062 217.597656 L 233.714844 217.597656 L 236.371094 214.019531 L 233.941406 210.761719 L 235.265625 210.761719 L 237.078125 213.195312 L 238.890625 210.761719 Z M 240.214844 210.761719 "/>
<g clip-path="url(#clip10)" clip-rule="nonzero">
<path style="fill:none;stroke-width:0.8;stroke-linecap:square;stroke-linejoin:round;stroke:rgb(69.019608%,69.019608%,69.019608%);stroke-opacity:1;stroke-miterlimit:4;" d="M 50.14375 139.66875 L 329.14375 139.66875 " transform="matrix(1.25,0,0,1.25,0.000000000000028422,0)"/>
</g>
<path style="fill:none;stroke-width:0.8;stroke-linecap:butt;stroke-linejoin:round;stroke:rgb(0%,0%,0%);stroke-opacity:1;stroke-miterlimit:4;" d="M -0.000000000000007105 -0.000437 L -3.5 -0.000437 " transform="matrix(1.25,0,0,1.25,62.679688,174.586484)"/>
<path style=" stroke:none;fill-rule:nonzero;fill:rgb(0%,0%,0%);fill-opacity:1;" d="M 30.070312 171.035156 C 29.4375 171.035156 28.960938 171.347656 28.640625 171.972656 C 28.320312 172.597656 28.160156 173.535156 28.160156 174.789062 C 28.160156 176.039062 28.320312 176.972656 28.640625 177.597656 C 28.960938 178.222656 29.4375 178.535156 30.070312 178.535156 C 30.710938 178.535156 31.1875 178.222656 31.507812 177.597656 C 31.828125 176.972656 31.988281 176.039062 31.988281 174.789062 C 31.988281 173.535156 31.828125 172.597656 31.507812 171.972656 C 31.1875 171.347656 30.710938 171.035156 30.070312 171.035156 Z M 30.070312 170.058594 C 31.09375 170.058594 31.875 170.460938 32.414062 171.269531 C 32.953125 172.078125 33.222656 173.25 33.222656 174.789062 C 33.222656 176.324219 32.953125 177.492188 32.414062 178.300781 C 31.875 179.109375 31.09375 179.511719 30.070312 179.511719 C 29.050781 179.511719 28.269531 179.109375 27.730469 178.300781 C 27.191406 177.492188 26.921875 176.324219 26.921875 174.789062 C 26.921875 173.25 27.191406 172.078125 27.730469 171.269531 C 28.269531 170.460938 29.050781 170.058594 30.070312 170.058594 Z M 30.070312 170.058594 "/>
<path style=" stroke:none;fill-rule:nonzero;fill:rgb(0%,0%,0%);fill-opacity:1;" d="M 35.386719 177.785156 L 36.675781 177.785156 L 36.675781 179.335938 L 35.386719 179.335938 Z M 35.386719 177.785156 "/>
<path style=" stroke:none;fill-rule:nonzero;fill:rgb(0%,0%,0%);fill-opacity:1;" d="M 41.996094 171.035156 C 41.363281 171.035156 40.886719 171.347656 40.566406 171.972656 C 40.246094 172.597656 40.085938 173.535156 40.085938 174.789062 C 40.085938 176.039062 40.246094 176.972656 40.566406 177.597656 C 40.886719 178.222656 41.363281 178.535156 41.996094 178.535156 C 42.636719 178.535156 43.113281 178.222656 43.433594 177.597656 C 43.753906 176.972656 43.914062 176.039062 43.914062 174.789062 C 43.914062 173.535156 43.753906 172.597656 43.433594 171.972656 C 43.113281 171.347656 42.636719 171.035156 41.996094 171.035156 Z M 41.996094 170.058594 C 43.019531 170.058594 43.800781 170.460938 44.339844 171.269531 C 44.878906 172.078125 45.148438 173.25 45.148438 174.789062 C 45.148438 176.324219 44.878906 177.492188 44.339844 178.300781 C 43.800781 179.109375 43.019531 179.511719 41.996094 179.511719 C 40.976562 179.511719 40.195312 179.109375 39.65625 178.300781 C 39.117188 177.492188 38.847656 176.324219 38.847656 174.789062 C 38.847656 173.25 39.117188 172.078125 39.65625 171.269531 C 40.195312 170.460938 40.976562 170.058594 41.996094 170.058594 Z M 41.996094 170.058594 "/>
<path style=" stroke:none;fill-rule:nonzero;fill:rgb(0%,0%,0%);fill-opacity:1;" d="M 49.949219 171.035156 C 49.316406 171.035156 48.839844 171.347656 48.519531 171.972656 C 48.199219 172.597656 48.039062 173.535156 48.039062 174.789062 C 48.039062 176.039062 48.199219 176.972656 48.519531 177.597656 C 48.839844 178.222656 49.316406 178.535156 49.949219 178.535156 C 50.589844 178.535156 51.066406 178.222656 51.386719 177.597656 C 51.707031 176.972656 51.867188 176.039062 51.867188 174.789062 C 51.867188 173.535156 51.707031 172.597656 51.386719 171.972656 C 51.066406 171.347656 50.589844 171.035156 49.949219 171.035156 Z M 49.949219 170.058594 C 50.972656 170.058594 51.753906 170.460938 52.292969 171.269531 C 52.832031 172.078125 53.101562 173.25 53.101562 174.789062 C 53.101562 176.324219 52.832031 177.492188 52.292969 178.300781 C 51.753906 179.109375 50.972656 179.511719 49.949219 179.511719 C 48.929688 179.511719 48.148438 179.109375 47.609375 178.300781 C 47.070312 177.492188 46.800781 176.324219 46.800781 174.789062 C 46.800781 173.25 47.070312 172.078125 47.609375 171.269531 C 48.148438 170.460938 48.929688 170.058594 49.949219 170.058594 Z M 49.949219 170.058594 "/>
<g clip-path="url(#clip11)" clip-rule="nonzero">
<path style="fill:none;stroke-width:0.8;stroke-linecap:square;stroke-linejoin:round;stroke:rgb(69.019608%,69.019608%,69.019608%);stroke-opacity:1;stroke-miterlimit:4;" d="M 50.14375 114.434375 L 329.14375 114.434375 " transform="matrix(1.25,0,0,1.25,0.000000000000028422,0)"/>
</g>
<path style="fill:none;stroke-width:0.8;stroke-linecap:butt;stroke-linejoin:round;stroke:rgb(0%,0%,0%);stroke-opacity:1;stroke-miterlimit:4;" d="M -0.000000000000007105 -0.000974 L -3.5 -0.000974 " transform="matrix(1.25,0,0,1.25,62.679688,143.044186)"/>
<path style=" stroke:none;fill-rule:nonzero;fill:rgb(0%,0%,0%);fill-opacity:1;" d="M 30.070312 139.492188 C 29.4375 139.492188 28.960938 139.804688 28.640625 140.429688 C 28.320312 141.054688 28.160156 141.992188 28.160156 143.246094 C 28.160156 144.496094 28.320312 145.433594 28.640625 146.058594 C 28.960938 146.683594 29.4375 146.996094 30.070312 146.996094 C 30.710938 146.996094 31.1875 146.683594 31.507812 146.058594 C 31.828125 145.433594 31.988281 144.496094 31.988281 143.246094 C 31.988281 141.992188 31.828125 141.054688 31.507812 140.429688 C 31.1875 139.804688 30.710938 139.492188 30.070312 139.492188 Z M 30.070312 138.515625 C 31.09375 138.515625 31.875 138.921875 32.414062 139.730469 C 32.953125 140.535156 33.222656 141.707031 33.222656 143.246094 C 33.222656 144.78125 32.953125 145.953125 32.414062 146.761719 C 31.875 147.566406 31.09375 147.972656 30.070312 147.972656 C 29.050781 147.972656 28.269531 147.566406 27.730469 146.761719 C 27.191406 145.953125 26.921875 144.78125 26.921875 143.246094 C 26.921875 141.707031 27.191406 140.535156 27.730469 139.730469 C 28.269531 138.921875 29.050781 138.515625 30.070312 138.515625 Z M 30.070312 138.515625 "/>
<path style=" stroke:none;fill-rule:nonzero;fill:rgb(0%,0%,0%);fill-opacity:1;" d="M 35.386719 146.242188 L 36.675781 146.242188 L 36.675781 147.792969 L 35.386719 147.792969 Z M 35.386719 146.242188 "/>
<path style=" stroke:none;fill-rule:nonzero;fill:rgb(0%,0%,0%);fill-opacity:1;" d="M 41.996094 139.492188 C 41.363281 139.492188 40.886719 139.804688 40.566406 140.429688 C 40.246094 141.054688 40.085938 141.992188 40.085938 143.246094 C 40.085938 144.496094 40.246094 145.433594 40.566406 146.058594 C 40.886719 146.683594 41.363281 146.996094 41.996094 146.996094 C 42.636719 146.996094 43.113281 146.683594 43.433594 146.058594 C 43.753906 145.433594 43.914062 144.496094 43.914062 143.246094 C 43.914062 141.992188 43.753906 141.054688 43.433594 140.429688 C 43.113281 139.804688 42.636719 139.492188 41.996094 139.492188 Z M 41.996094 138.515625 C 43.019531 138.515625 43.800781 138.921875 44.339844 139.730469 C 44.878906 140.535156 45.148438 141.707031 45.148438 143.246094 C 45.148438 144.78125 44.878906 145.953125 44.339844 146.761719 C 43.800781 147.566406 43.019531 147.972656 41.996094 147.972656 C 40.976562 147.972656 40.195312 147.566406 39.65625 146.761719 C 39.117188 145.953125 38.847656 144.78125 38.847656 143.246094 C 38.847656 141.707031 39.117188 140.535156 39.65625 139.730469 C 40.195312 138.921875 40.976562 138.515625 41.996094 138.515625 Z M 41.996094 138.515625 "/>
<path style=" stroke:none;fill-rule:nonzero;fill:rgb(0%,0%,0%);fill-opacity:1;" d="M 47.328125 138.679688 L 52.167969 138.679688 L 52.167969 139.71875 L 48.457031 139.71875 L 48.457031 141.953125 C 48.632812 141.890625 48.8125 141.84375 48.992188 141.816406 C 49.171875 141.785156 49.351562 141.769531 49.53125 141.769531 C 50.546875 141.769531 51.351562 142.046875 51.945312 142.605469 C 52.539062 143.164062 52.839844 143.917969 52.839844 144.871094 C 52.839844 145.851562 52.53125 146.613281 51.921875 147.15625 C 51.3125 147.699219 50.449219 147.972656 49.339844 147.972656 C 48.957031 147.972656 48.566406 147.9375 48.171875 147.875 C 47.773438 147.808594 47.363281 147.710938 46.941406 147.582031 L 46.941406 146.339844 C 47.308594 146.539062 47.6875 146.6875 48.078125 146.785156 C 48.46875 146.882812 48.878906 146.933594 49.316406 146.933594 C 50.019531 146.933594 50.578125 146.746094 50.988281 146.378906 C 51.398438 146.007812 51.605469 145.503906 51.605469 144.871094 C 51.605469 144.234375 51.398438 143.734375 50.988281 143.363281 C 50.578125 142.992188 50.019531 142.808594 49.316406 142.808594 C 48.984375 142.808594 48.65625 142.84375 48.328125 142.917969 C 48 142.988281 47.667969 143.101562 47.328125 143.257812 Z M 47.328125 138.679688 "/>
<g clip-path="url(#clip12)" clip-rule="nonzero">
<path style="fill:none;stroke-width:0.8;stroke-linecap:square;stroke-linejoin:round;stroke:rgb(69.019608%,69.019608%,69.019608%);stroke-opacity:1;stroke-miterlimit:4;" d="M 50.14375 89.2 L 329.14375 89.2 " transform="matrix(1.25,0,0,1.25,0.000000000000028422,0)"/>
</g>
<path style="fill:none;stroke-width:0.8;stroke-linecap:butt;stroke-linejoin:round;stroke:rgb(0%,0%,0%);stroke-opacity:1;stroke-miterlimit:4;" d="M -0.000000000000007105 -0.001512 L -3.5 -0.001512 " transform="matrix(1.25,0,0,1.25,62.679688,111.50189)"/>
<path style=" stroke:none;fill-rule:nonzero;fill:rgb(0%,0%,0%);fill-opacity:1;" d="M 30.070312 107.949219 C 29.4375 107.949219 28.960938 108.261719 28.640625 108.886719 C 28.320312 109.511719 28.160156 110.449219 28.160156 111.703125 C 28.160156 112.953125 28.320312 113.890625 28.640625 114.515625 C 28.960938 115.140625 29.4375 115.453125 30.070312 115.453125 C 30.710938 115.453125 31.1875 115.140625 31.507812 114.515625 C 31.828125 113.890625 31.988281 112.953125 31.988281 111.703125 C 31.988281 110.449219 31.828125 109.511719 31.507812 108.886719 C 31.1875 108.261719 30.710938 107.949219 30.070312 107.949219 Z M 30.070312 106.972656 C 31.09375 106.972656 31.875 107.378906 32.414062 108.1875 C 32.953125 108.992188 33.222656 110.167969 33.222656 111.703125 C 33.222656 113.238281 32.953125 114.410156 32.414062 115.21875 C 31.875 116.023438 31.09375 116.429688 30.070312 116.429688 C 29.050781 116.429688 28.269531 116.023438 27.730469 115.21875 C 27.191406 114.410156 26.921875 113.238281 26.921875 111.703125 C 26.921875 110.167969 27.191406 108.992188 27.730469 108.1875 C 28.269531 107.378906 29.050781 106.972656 30.070312 106.972656 Z M 30.070312 106.972656 "/>
<path style=" stroke:none;fill-rule:nonzero;fill:rgb(0%,0%,0%);fill-opacity:1;" d="M 35.386719 114.699219 L 36.675781 114.699219 L 36.675781 116.25 L 35.386719 116.25 Z M 35.386719 114.699219 "/>
<path style=" stroke:none;fill-rule:nonzero;fill:rgb(0%,0%,0%);fill-opacity:1;" d="M 39.574219 115.214844 L 41.589844 115.214844 L 41.589844 108.261719 L 39.398438 108.699219 L 39.398438 107.578125 L 41.578125 107.136719 L 42.808594 107.136719 L 42.808594 115.214844 L 44.824219 115.214844 L 44.824219 116.25 L 39.574219 116.25 Z M 39.574219 115.214844 "/>
<path style=" stroke:none;fill-rule:nonzero;fill:rgb(0%,0%,0%);fill-opacity:1;" d="M 49.949219 107.949219 C 49.316406 107.949219 48.839844 108.261719 48.519531 108.886719 C 48.199219 109.511719 48.039062 110.449219 48.039062 111.703125 C 48.039062 112.953125 48.199219 113.890625 48.519531 114.515625 C 48.839844 115.140625 49.316406 115.453125 49.949219 115.453125 C 50.589844 115.453125 51.066406 115.140625 51.386719 114.515625 C 51.707031 113.890625 51.867188 112.953125 51.867188 111.703125 C 51.867188 110.449219 51.707031 109.511719 51.386719 108.886719 C 51.066406 108.261719 50.589844 107.949219 49.949219 107.949219 Z M 49.949219 106.972656 C 50.972656 106.972656 51.753906 107.378906 52.292969 108.1875 C 52.832031 108.992188 53.101562 110.167969 53.101562 111.703125 C 53.101562 113.238281 52.832031 114.410156 52.292969 115.21875 C 51.753906 116.023438 50.972656 116.429688 49.949219 116.429688 C 48.929688 116.429688 48.148438 116.023438 47.609375 115.21875 C 47.070312 114.410156 46.800781 113.238281 46.800781 111.703125 C 46.800781 110.167969 47.070312 108.992188 47.609375 108.1875 C 48.148438 107.378906 48.929688 106.972656 49.949219 106.972656 Z M 49.949219 106.972656 "/>
<g clip-path="url(#clip13)" clip-rule="nonzero">
<path style="fill:none;stroke-width:0.8;stroke-linecap:square;stroke-linejoin:round;stroke:rgb(69.019608%,69.019608%,69.019608%);stroke-opacity:1;stroke-miterlimit:4;" d="M 50.14375 63.96875 L 329.14375 63.96875 " transform="matrix(1.25,0,0,1.25,0.000000000000028422,0)"/>
</g>
<path style="fill:none;stroke-width:0.8;stroke-linecap:butt;stroke-linejoin:round;stroke:rgb(0%,0%,0%);stroke-opacity:1;stroke-miterlimit:4;" d="M -0.000000000000007105 0.001075 L -3.5 0.001075 " transform="matrix(1.25,0,0,1.25,62.679688,79.959594)"/>
<path style=" stroke:none;fill-rule:nonzero;fill:rgb(0%,0%,0%);fill-opacity:1;" d="M 30.070312 76.40625 C 29.4375 76.40625 28.960938 76.71875 28.640625 77.34375 C 28.320312 77.96875 28.160156 78.90625 28.160156 80.160156 C 28.160156 81.410156 28.320312 82.347656 28.640625 82.972656 C 28.960938 83.597656 29.4375 83.910156 30.070312 83.910156 C 30.710938 83.910156 31.1875 83.597656 31.507812 82.972656 C 31.828125 82.347656 31.988281 81.410156 31.988281 80.160156 C 31.988281 78.90625 31.828125 77.96875 31.507812 77.34375 C 31.1875 76.71875 30.710938 76.40625 30.070312 76.40625 Z M 30.070312 75.429688 C 31.09375 75.429688 31.875 75.835938 32.414062 76.644531 C 32.953125 77.453125 33.222656 78.625 33.222656 80.160156 C 33.222656 81.695312 32.953125 82.867188 32.414062 83.675781 C 31.875 84.484375 31.09375 84.886719 30.070312 84.886719 C 29.050781 84.886719 28.269531 84.484375 27.730469 83.675781 C 27.191406 82.867188 26.921875 81.695312 26.921875 80.160156 C 26.921875 78.625 27.191406 77.453125 27.730469 76.644531 C 28.269531 75.835938 29.050781 75.429688 30.070312 75.429688 Z M 30.070312 75.429688 "/>
<path style=" stroke:none;fill-rule:nonzero;fill:rgb(0%,0%,0%);fill-opacity:1;" d="M 35.386719 83.15625 L 36.675781 83.15625 L 36.675781 84.707031 L 35.386719 84.707031 Z M 35.386719 83.15625 "/>
<path style=" stroke:none;fill-rule:nonzero;fill:rgb(0%,0%,0%);fill-opacity:1;" d="M 39.574219 83.671875 L 41.589844 83.671875 L 41.589844 76.71875 L 39.398438 77.15625 L 39.398438 76.035156 L 41.578125 75.59375 L 42.808594 75.59375 L 42.808594 83.671875 L 44.824219 83.671875 L 44.824219 84.707031 L 39.574219 84.707031 Z M 39.574219 83.671875 "/>
<path style=" stroke:none;fill-rule:nonzero;fill:rgb(0%,0%,0%);fill-opacity:1;" d="M 47.328125 75.59375 L 52.167969 75.59375 L 52.167969 76.632812 L 48.457031 76.632812 L 48.457031 78.867188 C 48.632812 78.804688 48.8125 78.761719 48.992188 78.730469 C 49.171875 78.699219 49.351562 78.683594 49.53125 78.683594 C 50.546875 78.683594 51.351562 78.964844 51.945312 79.519531 C 52.539062 80.078125 52.839844 80.832031 52.839844 81.785156 C 52.839844 82.765625 52.53125 83.527344 51.921875 84.070312 C 51.3125 84.613281 50.449219 84.886719 49.339844 84.886719 C 48.957031 84.886719 48.566406 84.855469 48.171875 84.789062 C 47.773438 84.722656 47.363281 84.625 46.941406 84.496094 L 46.941406 83.253906 C 47.308594 83.453125 47.6875 83.601562 48.078125 83.699219 C 48.46875 83.796875 48.878906 83.847656 49.316406 83.847656 C 50.019531 83.847656 50.578125 83.664062 50.988281 83.292969 C 51.398438 82.921875 51.605469 82.421875 51.605469 81.785156 C 51.605469 81.152344 51.398438 80.648438 50.988281 80.277344 C 50.578125 79.90625 50.019531 79.722656 49.316406 79.722656 C 48.984375 79.722656 48.65625 79.757812 48.328125 79.832031 C 48 79.90625 47.667969 80.019531 47.328125 80.171875 Z M 47.328125 75.59375 "/>
<g clip-path="url(#clip14)" clip-rule="nonzero">
<path style="fill:none;stroke-width:0.8;stroke-linecap:square;stroke-linejoin:round;stroke:rgb(69.019608%,69.019608%,69.019608%);stroke-opacity:1;stroke-miterlimit:4;" d="M 50.14375 38.734375 L 329.14375 38.734375 " transform="matrix(1.25,0,0,1.25,0.000000000000028422,0)"/>
</g>
<path style="fill:none;stroke-width:0.8;stroke-linecap:butt;stroke-linejoin:round;stroke:rgb(0%,0%,0%);stroke-opacity:1;stroke-miterlimit:4;" d="M -0.000000000000007105 0.000538 L -3.5 0.000538 " transform="matrix(1.25,0,0,1.25,62.679688,48.417296)"/>
<path style=" stroke:none;fill-rule:nonzero;fill:rgb(0%,0%,0%);fill-opacity:1;" d="M 30.070312 44.867188 C 29.4375 44.867188 28.960938 45.179688 28.640625 45.804688 C 28.320312 46.425781 28.160156 47.367188 28.160156 48.621094 C 28.160156 49.867188 28.320312 50.804688 28.640625 51.429688 C 28.960938 52.054688 29.4375 52.367188 30.070312 52.367188 C 30.710938 52.367188 31.1875 52.054688 31.507812 51.429688 C 31.828125 50.804688 31.988281 49.867188 31.988281 48.621094 C 31.988281 47.367188 31.828125 46.425781 31.507812 45.804688 C 31.1875 45.179688 30.710938 44.867188 30.070312 44.867188 Z M 30.070312 43.890625 C 31.09375 43.890625 31.875 44.292969 32.414062 45.101562 C 32.953125 45.910156 33.222656 47.082031 33.222656 48.621094 C 33.222656 50.152344 32.953125 51.324219 32.414062 52.132812 C 31.875 52.941406 31.09375 53.34375 30.070312 53.34375 C 29.050781 53.34375 28.269531 52.941406 27.730469 52.132812 C 27.191406 51.324219 26.921875 50.152344 26.921875 48.621094 C 26.921875 47.082031 27.191406 45.910156 27.730469 45.101562 C 28.269531 44.292969 29.050781 43.890625 30.070312 43.890625 Z M 30.070312 43.890625 "/>
<path style=" stroke:none;fill-rule:nonzero;fill:rgb(0%,0%,0%);fill-opacity:1;" d="M 35.386719 51.617188 L 36.675781 51.617188 L 36.675781 53.167969 L 35.386719 53.167969 Z M 35.386719 51.617188 "/>
<path style=" stroke:none;fill-rule:nonzero;fill:rgb(0%,0%,0%);fill-opacity:1;" d="M 40.421875 52.128906 L 44.726562 52.128906 L 44.726562 53.167969 L 38.941406 53.167969 L 38.941406 52.128906 C 39.40625 51.644531 40.042969 50.996094 40.851562 50.179688 C 41.660156 49.363281 42.167969 48.835938 42.375 48.601562 C 42.769531 48.15625 43.046875 47.78125 43.203125 47.476562 C 43.359375 47.167969 43.4375 46.867188 43.4375 46.570312 C 43.4375 46.085938 43.269531 45.691406 42.929688 45.386719 C 42.589844 45.078125 42.144531 44.925781 41.601562 44.925781 C 41.214844 44.925781 40.804688 44.992188 40.375 45.128906 C 39.945312 45.261719 39.488281 45.464844 39 45.738281 L 39 44.492188 C 39.496094 44.292969 39.960938 44.144531 40.390625 44.042969 C 40.824219 43.941406 41.21875 43.890625 41.578125 43.890625 C 42.519531 43.890625 43.273438 44.125 43.835938 44.597656 C 44.394531 45.070312 44.675781 45.699219 44.675781 46.488281 C 44.675781 46.863281 44.605469 47.21875 44.464844 47.554688 C 44.324219 47.890625 44.070312 48.285156 43.699219 48.742188 C 43.597656 48.859375 43.273438 49.199219 42.730469 49.765625 C 42.183594 50.328125 41.414062 51.117188 40.421875 52.128906 Z M 40.421875 52.128906 "/>
<path style=" stroke:none;fill-rule:nonzero;fill:rgb(0%,0%,0%);fill-opacity:1;" d="M 49.949219 44.867188 C 49.316406 44.867188 48.839844 45.179688 48.519531 45.804688 C 48.199219 46.425781 48.039062 47.367188 48.039062 48.621094 C 48.039062 49.867188 48.199219 50.804688 48.519531 51.429688 C 48.839844 52.054688 49.316406 52.367188 49.949219 52.367188 C 50.589844 52.367188 51.066406 52.054688 51.386719 51.429688 C 51.707031 50.804688 51.867188 49.867188 51.867188 48.621094 C 51.867188 47.367188 51.707031 46.425781 51.386719 45.804688 C 51.066406 45.179688 50.589844 44.867188 49.949219 44.867188 Z M 49.949219 43.890625 C 50.972656 43.890625 51.753906 44.292969 52.292969 45.101562 C 52.832031 45.910156 53.101562 47.082031 53.101562 48.621094 C 53.101562 50.152344 52.832031 51.324219 52.292969 52.132812 C 51.753906 52.941406 50.972656 53.34375 49.949219 53.34375 C 48.929688 53.34375 48.148438 52.941406 47.609375 52.132812 C 47.070312 51.324219 46.800781 50.152344 46.800781 48.621094 C 46.800781 47.082031 47.070312 45.910156 47.609375 45.101562 C 48.148438 44.292969 48.929688 43.890625 49.949219 43.890625 Z M 49.949219 43.890625 "/>
<g clip-path="url(#clip15)" clip-rule="nonzero">
<path style="fill:none;stroke-width:0.8;stroke-linecap:square;stroke-linejoin:round;stroke:rgb(69.019608%,69.019608%,69.019608%);stroke-opacity:1;stroke-miterlimit:4;" d="M 50.14375 13.5 L 329.14375 13.5 " transform="matrix(1.25,0,0,1.25,0.000000000000028422,0)"/>
</g>
<path style="fill:none;stroke-width:0.8;stroke-linecap:butt;stroke-linejoin:round;stroke:rgb(0%,0%,0%);stroke-opacity:1;stroke-miterlimit:4;" d="M -0.000000000000007105 0 L -3.5 0 " transform="matrix(1.25,0,0,1.25,62.679688,16.875)"/>
<path style=" stroke:none;fill-rule:nonzero;fill:rgb(0%,0%,0%);fill-opacity:1;" d="M 30.070312 13.324219 C 29.4375 13.324219 28.960938 13.636719 28.640625 14.261719 C 28.320312 14.882812 28.160156 15.824219 28.160156 17.078125 C 28.160156 18.324219 28.320312 19.261719 28.640625 19.886719 C 28.960938 20.511719 29.4375 20.824219 30.070312 20.824219 C 30.710938 20.824219 31.1875 20.511719 31.507812 19.886719 C 31.828125 19.261719 31.988281 18.324219 31.988281 17.078125 C 31.988281 15.824219 31.828125 14.882812 31.507812 14.261719 C 31.1875 13.636719 30.710938 13.324219 30.070312 13.324219 Z M 30.070312 12.347656 C 31.09375 12.347656 31.875 12.75 32.414062 13.558594 C 32.953125 14.367188 33.222656 15.539062 33.222656 17.078125 C 33.222656 18.609375 32.953125 19.78125 32.414062 20.589844 C 31.875 21.398438 31.09375 21.800781 30.070312 21.800781 C 29.050781 21.800781 28.269531 21.398438 27.730469 20.589844 C 27.191406 19.78125 26.921875 18.609375 26.921875 17.078125 C 26.921875 15.539062 27.191406 14.367188 27.730469 13.558594 C 28.269531 12.75 29.050781 12.347656 30.070312 12.347656 Z M 30.070312 12.347656 "/>
<path style=" stroke:none;fill-rule:nonzero;fill:rgb(0%,0%,0%);fill-opacity:1;" d="M 35.386719 20.074219 L 36.675781 20.074219 L 36.675781 21.625 L 35.386719 21.625 Z M 35.386719 20.074219 "/>
<path style=" stroke:none;fill-rule:nonzero;fill:rgb(0%,0%,0%);fill-opacity:1;" d="M 40.421875 20.585938 L 44.726562 20.585938 L 44.726562 21.625 L 38.941406 21.625 L 38.941406 20.585938 C 39.40625 20.101562 40.042969 19.453125 40.851562 18.636719 C 41.660156 17.820312 42.167969 17.292969 42.375 17.058594 C 42.769531 16.613281 43.046875 16.238281 43.203125 15.933594 C 43.359375 15.625 43.4375 15.324219 43.4375 15.027344 C 43.4375 14.542969 43.269531 14.148438 42.929688 13.84375 C 42.589844 13.535156 42.144531 13.382812 41.601562 13.382812 C 41.214844 13.382812 40.804688 13.449219 40.375 13.585938 C 39.945312 13.71875 39.488281 13.921875 39 14.195312 L 39 12.949219 C 39.496094 12.75 39.960938 12.601562 40.390625 12.5 C 40.824219 12.398438 41.21875 12.347656 41.578125 12.347656 C 42.519531 12.347656 43.273438 12.582031 43.835938 13.054688 C 44.394531 13.527344 44.675781 14.15625 44.675781 14.945312 C 44.675781 15.320312 44.605469 15.675781 44.464844 16.011719 C 44.324219 16.347656 44.070312 16.742188 43.699219 17.199219 C 43.597656 17.316406 43.273438 17.65625 42.730469 18.222656 C 42.183594 18.785156 41.414062 19.574219 40.421875 20.585938 Z M 40.421875 20.585938 "/>
<path style=" stroke:none;fill-rule:nonzero;fill:rgb(0%,0%,0%);fill-opacity:1;" d="M 47.328125 12.511719 L 52.167969 12.511719 L 52.167969 13.550781 L 48.457031 13.550781 L 48.457031 15.78125 C 48.632812 15.722656 48.8125 15.675781 48.992188 15.644531 C 49.171875 15.617188 49.351562 15.601562 49.53125 15.601562 C 50.546875 15.601562 51.351562 15.878906 51.945312 16.4375 C 52.539062 16.992188 52.839844 17.75 52.839844 18.699219 C 52.839844 19.679688 52.53125 20.441406 51.921875 20.988281 C 51.3125 21.53125 50.449219 21.800781 49.339844 21.800781 C 48.957031 21.800781 48.566406 21.769531 48.171875 21.703125 C 47.773438 21.640625 47.363281 21.542969 46.941406 21.410156 L 46.941406 20.171875 C 47.308594 20.371094 47.6875 20.519531 48.078125 20.617188 C 48.46875 20.714844 48.878906 20.761719 49.316406 20.761719 C 50.019531 20.761719 50.578125 20.578125 50.988281 20.207031 C 51.398438 19.839844 51.605469 19.335938 51.605469 18.699219 C 51.605469 18.066406 51.398438 17.5625 50.988281 17.195312 C 50.578125 16.824219 50.019531 16.636719 49.316406 16.636719 C 48.984375 16.636719 48.65625 16.675781 48.328125 16.746094 C 48 16.820312 47.667969 16.933594 47.328125 17.089844 Z M 47.328125 12.511719 "/>
<path style=" stroke:none;fill-rule:nonzero;fill:rgb(0%,0%,0%);fill-opacity:1;" d="M 15 138.859375 C 14.1875 138.859375 13.554688 139.027344 13.109375 139.363281 C 12.660156 139.695312 12.4375 140.167969 12.4375 140.773438 C 12.4375 141.375 12.660156 141.84375 13.109375 142.179688 C 13.554688 142.515625 14.1875 142.683594 15 142.683594 C 15.808594 142.683594 16.4375 142.515625 16.886719 142.179688 C 17.335938 141.84375 17.558594 141.375 17.558594 140.773438 C 17.558594 140.167969 17.335938 139.695312 16.886719 139.363281 C 16.4375 139.027344 15.808594 138.859375 15 138.859375 Z M 17.652344 137.734375 C 18.8125 137.734375 19.679688 137.992188 20.246094 138.511719 C 20.8125 139.027344 21.097656 139.816406 21.097656 140.882812 C 21.097656 141.277344 21.070312 141.648438 21.011719 142 C 20.953125 142.351562 20.859375 142.691406 20.738281 143.019531 L 19.648438 143.019531 C 19.824219 142.691406 19.957031 142.363281 20.042969 142.042969 C 20.128906 141.722656 20.171875 141.394531 20.171875 141.0625 C 20.171875 140.324219 19.976562 139.773438 19.59375 139.40625 C 19.210938 139.039062 18.628906 138.859375 17.851562 138.859375 L 17.296875 138.859375 C 17.699219 139.089844 18 139.386719 18.199219 139.75 C 18.398438 140.109375 18.5 140.542969 18.5 141.050781 C 18.5 141.886719 18.179688 142.5625 17.542969 143.074219 C 16.902344 143.585938 16.054688 143.84375 15 143.84375 C 13.941406 143.84375 13.09375 143.585938 12.457031 143.074219 C 11.816406 142.5625 11.5 141.886719 11.5 141.050781 C 11.5 140.542969 11.597656 140.109375 11.796875 139.75 C 11.996094 139.386719 12.296875 139.089844 12.699219 138.859375 L 11.664062 138.859375 L 11.664062 137.734375 Z M 17.652344 137.734375 "/>
<path style=" stroke:none;fill-rule:nonzero;fill:rgb(0%,0%,0%);fill-opacity:1;" d="M 12.710938 131.460938 C 12.636719 131.585938 12.585938 131.722656 12.550781 131.871094 C 12.515625 132.019531 12.5 132.183594 12.5 132.363281 C 12.5 132.996094 12.703125 133.484375 13.117188 133.824219 C 13.53125 134.164062 14.125 134.335938 14.898438 134.335938 L 18.5 134.335938 L 18.5 135.464844 L 11.664062 135.464844 L 11.664062 134.335938 L 12.726562 134.335938 C 12.308594 134.097656 12 133.789062 11.800781 133.414062 C 11.597656 133.035156 11.5 132.574219 11.5 132.03125 C 11.5 131.957031 11.503906 131.871094 11.515625 131.777344 C 11.523438 131.683594 11.539062 131.578125 11.558594 131.464844 Z M 12.710938 131.460938 "/>
<path style=" stroke:none;fill-rule:nonzero;fill:rgb(0%,0%,0%);fill-opacity:1;" d="M 15.0625 127.175781 C 15.0625 128.082031 15.167969 128.710938 15.375 129.0625 C 15.582031 129.410156 15.933594 129.585938 16.4375 129.585938 C 16.835938 129.585938 17.152344 129.453125 17.386719 129.191406 C 17.617188 128.929688 17.734375 128.570312 17.734375 128.121094 C 17.734375 127.496094 17.515625 126.996094 17.074219 126.621094 C 16.632812 126.246094 16.042969 126.058594 15.3125 126.058594 L 15.0625 126.058594 Z M 14.597656 124.933594 L 18.5 124.933594 L 18.5 126.058594 L 17.460938 126.058594 C 17.875 126.3125 18.179688 126.632812 18.378906 127.015625 C 18.578125 127.398438 18.675781 127.867188 18.675781 128.421875 C 18.675781 129.121094 18.480469 129.675781 18.085938 130.089844 C 17.691406 130.503906 17.167969 130.710938 16.507812 130.710938 C 15.738281 130.710938 15.160156 130.453125 14.769531 129.9375 C 14.378906 129.421875 14.183594 128.652344 14.183594 127.632812 L 14.183594 126.058594 L 14.074219 126.058594 C 13.554688 126.058594 13.15625 126.226562 12.875 126.566406 C 12.589844 126.90625 12.449219 127.382812 12.449219 128 C 12.449219 128.390625 12.496094 128.769531 12.589844 129.140625 C 12.683594 129.511719 12.824219 129.867188 13.011719 130.207031 L 11.972656 130.207031 C 11.8125 129.796875 11.695312 129.398438 11.617188 129.011719 C 11.539062 128.625 11.5 128.25 11.5 127.882812 C 11.5 126.894531 11.753906 126.15625 12.269531 125.667969 C 12.78125 125.179688 13.554688 124.933594 14.597656 124.933594 Z M 14.597656 124.933594 "/>
<path style=" stroke:none;fill-rule:nonzero;fill:rgb(0%,0%,0%);fill-opacity:1;" d="M 12.699219 118.125 L 9 118.125 L 9 117 L 18.5 117 L 18.5 118.125 L 17.472656 118.125 C 17.878906 118.359375 18.179688 118.65625 18.378906 119.019531 C 18.578125 119.378906 18.675781 119.808594 18.675781 120.316406 C 18.675781 121.140625 18.347656 121.8125 17.6875 122.332031 C 17.027344 122.851562 16.160156 123.109375 15.085938 123.109375 C 14.011719 123.109375 13.144531 122.851562 12.488281 122.332031 C 11.828125 121.8125 11.5 121.140625 11.5 120.316406 C 11.5 119.808594 11.597656 119.378906 11.796875 119.019531 C 11.992188 118.65625 12.292969 118.359375 12.699219 118.125 Z M 15.085938 121.949219 C 15.910156 121.949219 16.558594 121.78125 17.03125 121.441406 C 17.5 121.101562 17.734375 120.632812 17.734375 120.039062 C 17.734375 119.445312 17.5 118.980469 17.03125 118.636719 C 16.558594 118.296875 15.910156 118.125 15.085938 118.125 C 14.261719 118.125 13.613281 118.296875 13.144531 118.636719 C 12.671875 118.980469 12.4375 119.445312 12.4375 120.039062 C 12.4375 120.632812 12.671875 121.101562 13.144531 121.441406 C 13.613281 121.78125 14.261719 121.949219 15.085938 121.949219 Z M 15.085938 121.949219 "/>
<path style=" stroke:none;fill-rule:nonzero;fill:rgb(0%,0%,0%);fill-opacity:1;" d="M 12.449219 108.066406 C 12.449219 108.667969 12.683594 109.144531 13.15625 109.492188 C 13.625 109.84375 14.269531 110.019531 15.085938 110.019531 C 15.902344 110.019531 16.546875 109.84375 17.019531 109.496094 C 17.488281 109.148438 17.722656 108.671875 17.722656 108.066406 C 17.722656 107.464844 17.488281 106.992188 17.015625 106.644531 C 16.542969 106.292969 15.898438 106.117188 15.085938 106.117188 C 14.277344 106.117188 13.632812 106.292969 13.160156 106.644531 C 12.6875 106.992188 12.449219 107.464844 12.449219 108.066406 Z M 11.5 108.066406 C 11.5 107.089844 11.816406 106.320312 12.453125 105.765625 C 13.085938 105.207031 13.964844 104.925781 15.085938 104.925781 C 16.203125 104.925781 17.082031 105.207031 17.722656 105.765625 C 18.359375 106.320312 18.675781 107.089844 18.675781 108.066406 C 18.675781 109.046875 18.359375 109.8125 17.722656 110.371094 C 17.082031 110.925781 16.203125 111.203125 15.085938 111.203125 C 13.964844 111.203125 13.085938 110.925781 12.453125 110.371094 C 11.816406 109.8125 11.5 109.046875 11.5 108.066406 Z M 11.5 108.066406 "/>
<path style=" stroke:none;fill-rule:nonzero;fill:rgb(0%,0%,0%);fill-opacity:1;" d="M 9 99.605469 L 9.9375 99.605469 L 9.9375 100.679688 C 9.9375 101.082031 10.015625 101.363281 10.179688 101.519531 C 10.34375 101.675781 10.636719 101.753906 11.058594 101.753906 L 11.664062 101.753906 L 11.664062 99.902344 L 12.535156 99.902344 L 12.535156 101.753906 L 18.5 101.753906 L 18.5 102.882812 L 12.535156 102.882812 L 12.535156 103.957031 L 11.664062 103.957031 L 11.664062 102.882812 L 11.1875 102.882812 C 10.425781 102.882812 9.871094 102.707031 9.523438 102.351562 C 9.175781 101.996094 9 101.4375 9 100.667969 Z M 9 99.605469 "/>
<path style=" stroke:none;fill-rule:nonzero;fill:rgb(0%,0%,0%);fill-opacity:1;" d="M 11.863281 90.335938 L 12.925781 90.335938 C 12.761719 90.652344 12.640625 90.980469 12.5625 91.324219 C 12.480469 91.664062 12.4375 92.019531 12.4375 92.386719 C 12.4375 92.941406 12.523438 93.359375 12.695312 93.640625 C 12.863281 93.917969 13.121094 94.058594 13.464844 94.058594 C 13.722656 94.058594 13.929688 93.957031 14.078125 93.757812 C 14.226562 93.558594 14.367188 93.160156 14.5 92.554688 L 14.585938 92.171875 C 14.757812 91.375 14.996094 90.808594 15.308594 90.472656 C 15.621094 90.136719 16.054688 89.96875 16.613281 89.96875 C 17.246094 89.96875 17.75 90.21875 18.121094 90.722656 C 18.492188 91.222656 18.675781 91.914062 18.675781 92.792969 C 18.675781 93.160156 18.640625 93.542969 18.570312 93.9375 C 18.496094 94.335938 18.390625 94.753906 18.25 95.191406 L 17.089844 95.191406 C 17.304688 94.777344 17.464844 94.367188 17.574219 93.964844 C 17.679688 93.5625 17.734375 93.164062 17.734375 92.769531 C 17.734375 92.238281 17.644531 91.832031 17.464844 91.550781 C 17.28125 91.265625 17.027344 91.121094 16.699219 91.121094 C 16.394531 91.121094 16.160156 91.226562 15.996094 91.429688 C 15.832031 91.636719 15.675781 92.085938 15.527344 92.78125 L 15.433594 93.171875 C 15.289062 93.867188 15.0625 94.371094 14.761719 94.679688 C 14.457031 94.988281 14.039062 95.144531 13.511719 95.144531 C 12.867188 95.144531 12.371094 94.914062 12.023438 94.460938 C 11.671875 94.003906 11.5 93.355469 11.5 92.519531 C 11.5 92.105469 11.527344 91.714844 11.589844 91.347656 C 11.648438 90.980469 11.742188 90.644531 11.863281 90.335938 Z M 11.863281 90.335938 "/>
<path style=" stroke:none;fill-rule:nonzero;fill:rgb(0%,0%,0%);fill-opacity:1;" d="M 11.664062 88.179688 L 11.664062 87.058594 L 18.5 87.058594 L 18.5 88.179688 Z M 9 88.179688 L 9 87.058594 L 10.425781 87.058594 L 10.425781 88.179688 Z M 9 88.179688 "/>
<path style=" stroke:none;fill-rule:nonzero;fill:rgb(0%,0%,0%);fill-opacity:1;" d="M 15 80.207031 C 14.1875 80.207031 13.554688 80.375 13.109375 80.710938 C 12.660156 81.046875 12.4375 81.519531 12.4375 82.125 C 12.4375 82.726562 12.660156 83.195312 13.109375 83.53125 C 13.554688 83.867188 14.1875 84.035156 15 84.035156 C 15.808594 84.035156 16.4375 83.867188 16.886719 83.53125 C 17.335938 83.195312 17.558594 82.726562 17.558594 82.125 C 17.558594 81.519531 17.335938 81.046875 16.886719 80.710938 C 16.4375 80.375 15.808594 80.207031 15 80.207031 Z M 17.652344 79.085938 C 18.8125 79.085938 19.679688 79.34375 20.246094 79.859375 C 20.8125 80.375 21.097656 81.167969 21.097656 82.234375 C 21.097656 82.628906 21.070312 83 21.011719 83.351562 C 20.953125 83.703125 20.859375 84.042969 20.738281 84.371094 L 19.648438 84.371094 C 19.824219 84.042969 19.957031 83.714844 20.042969 83.394531 C 20.128906 83.074219 20.171875 82.746094 20.171875 82.410156 C 20.171875 81.675781 19.976562 81.125 19.59375 80.757812 C 19.210938 80.390625 18.628906 80.207031 17.851562 80.207031 L 17.296875 80.207031 C 17.699219 80.441406 18 80.738281 18.199219 81.097656 C 18.398438 81.460938 18.5 81.894531 18.5 82.398438 C 18.5 83.238281 18.179688 83.914062 17.542969 84.425781 C 16.902344 84.9375 16.054688 85.195312 15 85.195312 C 13.941406 85.195312 13.09375 84.9375 12.457031 84.425781 C 11.816406 83.914062 11.5 83.238281 11.5 82.398438 C 11.5 81.894531 11.597656 81.460938 11.796875 81.097656 C 11.996094 80.738281 12.296875 80.441406 12.699219 80.207031 L 11.664062 80.207031 L 11.664062 79.085938 Z M 17.652344 79.085938 "/>
<path style=" stroke:none;fill-rule:nonzero;fill:rgb(0%,0%,0%);fill-opacity:1;" d="M 12.976562 71.449219 C 12.46875 71.167969 12.097656 70.832031 11.859375 70.441406 C 11.617188 70.050781 11.5 69.59375 11.5 69.0625 C 11.5 68.351562 11.746094 67.800781 12.246094 67.414062 C 12.742188 67.027344 13.453125 66.835938 14.371094 66.835938 L 18.5 66.835938 L 18.5 67.964844 L 14.410156 67.964844 C 13.753906 67.964844 13.269531 68.082031 12.953125 68.3125 C 12.632812 68.546875 12.476562 68.898438 12.476562 69.375 C 12.476562 69.957031 12.667969 70.417969 13.054688 70.753906 C 13.441406 71.09375 13.96875 71.261719 14.636719 71.261719 L 18.5 71.261719 L 18.5 72.390625 L 14.410156 72.390625 C 13.75 72.390625 13.261719 72.503906 12.949219 72.738281 C 12.632812 72.96875 12.476562 73.328125 12.476562 73.8125 C 12.476562 74.386719 12.667969 74.84375 13.058594 75.179688 C 13.445312 75.519531 13.972656 75.6875 14.636719 75.6875 L 18.5 75.6875 L 18.5 76.816406 L 11.664062 76.816406 L 11.664062 75.6875 L 12.726562 75.6875 C 12.304688 75.429688 11.996094 75.121094 11.796875 74.765625 C 11.597656 74.40625 11.5 73.980469 11.5 73.488281 C 11.5 72.992188 11.625 72.570312 11.878906 72.222656 C 12.128906 71.875 12.496094 71.617188 12.976562 71.449219 Z M 12.976562 71.449219 "/>
<path style=" stroke:none;fill-rule:nonzero;fill:rgb(0%,0%,0%);fill-opacity:1;" d="M 12.449219 61.949219 C 12.449219 62.550781 12.683594 63.023438 13.15625 63.375 C 13.625 63.726562 14.269531 63.902344 15.085938 63.902344 C 15.902344 63.902344 16.546875 63.726562 17.019531 63.378906 C 17.488281 63.03125 17.722656 62.554688 17.722656 61.949219 C 17.722656 61.347656 17.488281 60.875 17.015625 60.527344 C 16.542969 60.175781 15.898438 60 15.085938 60 C 14.277344 60 13.632812 60.175781 13.160156 60.527344 C 12.6875 60.875 12.449219 61.347656 12.449219 61.949219 Z M 11.5 61.949219 C 11.5 60.972656 11.816406 60.203125 12.453125 59.648438 C 13.085938 59.089844 13.964844 58.808594 15.085938 58.808594 C 16.203125 58.808594 17.082031 59.089844 17.722656 59.648438 C 18.359375 60.203125 18.675781 60.972656 18.675781 61.949219 C 18.675781 62.929688 18.359375 63.695312 17.722656 64.253906 C 17.082031 64.808594 16.203125 65.085938 15.085938 65.085938 C 13.964844 65.085938 13.085938 64.808594 12.453125 64.253906 C 11.816406 63.695312 11.5 62.929688 11.5 61.949219 Z M 11.5 61.949219 "/>
<path style=" stroke:none;fill-rule:nonzero;fill:rgb(0%,0%,0%);fill-opacity:1;" d="M 11.664062 56.949219 L 11.664062 55.824219 L 18.5 55.824219 L 18.5 56.949219 Z M 9 56.949219 L 9 55.824219 L 10.425781 55.824219 L 10.425781 56.949219 Z M 9 56.949219 "/>
<path style=" stroke:none;fill-rule:nonzero;fill:rgb(0%,0%,0%);fill-opacity:1;" d="M 12.699219 48.976562 L 9 48.976562 L 9 47.855469 L 18.5 47.855469 L 18.5 48.976562 L 17.472656 48.976562 C 17.878906 49.210938 18.179688 49.511719 18.378906 49.871094 C 18.578125 50.230469 18.675781 50.664062 18.675781 51.167969 C 18.675781 51.992188 18.347656 52.667969 17.6875 53.1875 C 17.027344 53.703125 16.160156 53.964844 15.085938 53.964844 C 14.011719 53.964844 13.144531 53.703125 12.488281 53.1875 C 11.828125 52.667969 11.5 51.992188 11.5 51.167969 C 11.5 50.664062 11.597656 50.230469 11.796875 49.871094 C 11.992188 49.511719 12.292969 49.210938 12.699219 48.976562 Z M 15.085938 52.804688 C 15.910156 52.804688 16.558594 52.632812 17.03125 52.292969 C 17.5 51.953125 17.734375 51.488281 17.734375 50.894531 C 17.734375 50.300781 17.5 49.832031 17.03125 49.492188 C 16.558594 49.148438 15.910156 48.976562 15.085938 48.976562 C 14.261719 48.976562 13.613281 49.148438 13.144531 49.492188 C 12.671875 49.832031 12.4375 50.300781 12.4375 50.894531 C 12.4375 51.488281 12.671875 51.953125 13.144531 52.292969 C 13.613281 52.632812 14.261719 52.804688 15.085938 52.804688 Z M 15.085938 52.804688 "/>
<path style="fill:none;stroke-width:1.5;stroke-linecap:square;stroke-linejoin:round;stroke:rgb(12.156863%,46.666667%,70.588235%);stroke-opacity:1;stroke-miterlimit:4;" d="M 62.825 139.5 L 77.18125 139.253125 L 86.753125 138.9125 L 94.728125 138.425 L 101.109375 137.815625 L 105.896875 137.175 L 110.68125 136.315625 L 115.465625 135.1625 L 118.65625 134.184375 L 121.846875 133.003125 L 125.0375 131.575 L 128.228125 129.85625 L 131.41875 127.7875 L 134.609375 125.309375 L 137.8 122.35625 L 140.990625 118.853125 L 144.18125 114.721875 L 147.371875 109.890625 L 150.5625 104.290625 L 153.753125 97.871875 L 156.94375 90.61875 L 160.13125 82.55 L 163.321875 73.75625 L 168.109375 59.584375 L 174.490625 40.44375 L 177.68125 31.7125 L 179.275 27.775 L 180.86875 24.20625 L 182.465625 21.06875 L 184.059375 18.415625 L 185.65625 16.296875 L 187.25 14.753125 L 188.846875 13.815625 L 190.440625 13.5 L 192.0375 13.815625 L 193.63125 14.753125 L 195.228125 16.296875 L 196.821875 18.415625 L 198.41875 21.06875 L 200.0125 24.20625 L 201.60625 27.775 L 203.203125 31.7125 L 206.39375 40.44375 L 211.178125 54.734375 L 215.965625 69.134375 L 219.15625 78.234375 L 222.34375 86.68125 L 225.534375 94.35 L 228.725 101.184375 L 231.915625 107.1875 L 235.10625 112.396875 L 238.296875 116.86875 L 241.4875 120.678125 L 244.678125 123.896875 L 247.86875 126.603125 L 251.059375 128.86875 L 254.25 130.75625 L 257.440625 132.321875 L 260.63125 133.621875 L 263.821875 134.696875 L 267.009375 135.584375 L 271.796875 136.628125 L 276.58125 137.409375 L 281.36875 137.990625 L 287.746875 138.54375 L 295.725 138.984375 L 306.890625 139.328125 L 316.4625 139.48125 " transform="matrix(1.25,0,0,1.25,0.000000000000028422,0)"/>
<path style="fill:none;stroke-width:0.8;stroke-linecap:square;stroke-linejoin:miter;stroke:rgb(0%,0%,0%);stroke-opacity:1;stroke-miterlimit:4;" d="M 50.14375 145.8 L 50.14375 7.2 " transform="matrix(1.25,0,0,1.25,0.000000000000028422,0)"/>
<path style="fill:none;stroke-width:0.8;stroke-linecap:square;stroke-linejoin:miter;stroke:rgb(0%,0%,0%);stroke-opacity:1;stroke-miterlimit:4;" d="M 329.14375 145.8 L 329.14375 7.2 " transform="matrix(1.25,0,0,1.25,0.000000000000028422,0)"/>
<path style="fill:none;stroke-width:0.8;stroke-linecap:square;stroke-linejoin:miter;stroke:rgb(0%,0%,0%);stroke-opacity:1;stroke-miterlimit:4;" d="M 50.14375 145.8 L 329.14375 145.8 " transform="matrix(1.25,0,0,1.25,0.000000000000028422,0)"/>
<path style="fill:none;stroke-width:0.8;stroke-linecap:square;stroke-linejoin:miter;stroke:rgb(0%,0%,0%);stroke-opacity:1;stroke-miterlimit:4;" d="M 50.14375 7.2 L 329.14375 7.2 " transform="matrix(1.25,0,0,1.25,0.000000000000028422,0)"/>
</g>
</svg>
