<?xml version="1.0" encoding="UTF-8"?>
<svg xmlns="http://www.w3.org/2000/svg" xmlns:xlink="http://www.w3.org/1999/xlink" width="310pt" height="229pt" viewBox="0 0 310 229" version="1.1">
<defs>
<clipPath id="clip1">
  <path d="M 67 9 L 69 9 L 69 182.25 L 67 182.25 Z M 67 9 "/>
</clipPath>
<clipPath id="clip2">
  <path d="M 116 9 L 119 9 L 119 182.25 L 116 182.25 Z M 116 9 "/>
</clipPath>
<clipPath id="clip3">
  <path d="M 166 9 L 168 9 L 168 182.25 L 166 182.25 Z M 166 9 "/>
</clipPath>
<clipPath id="clip4">
  <path d="M 216 9 L 218 9 L 218 182.25 L 216 182.25 Z M 216 9 "/>
</clipPath>
<clipPath id="clip5">
  <path d="M 265 9 L 268 9 L 268 182.25 L 265 182.25 Z M 265 9 "/>
</clipPath>
<clipPath id="clip6">
  <path d="M 56.847656 173 L 300.972656 173 L 300.972656 176 L 56.847656 176 Z M 56.847656 173 "/>
</clipPath>
<clipPath id="clip7">
  <path d="M 56.847656 126 L 300.972656 126 L 300.972656 129 L 56.847656 129 Z M 56.847656 126 "/>
</clipPath>
<clipPath id="clip8">
  <path d="M 56.847656 79 L 300.972656 79 L 300.972656 82 L 56.847656 82 Z M 56.847656 79 "/>
</clipPath>
<clipPath id="clip9">
  <path d="M 56.847656 32 L 300.972656 32 L 300.972656 35 L 56.847656 35 Z M 56.847656 32 "/>
</clipPath>
<clipPath id="clip10">
  <path d="M 56.847656 27 L 251 27 L 251 176 L 56.847656 176 Z M 56.847656 27 "/>
</clipPath>
<clipPath id="clip11">
  <path d="M 56.847656 68 L 283 68 L 283 176 L 56.847656 176 Z M 56.847656 68 "/>
</clipPath>
<clipPath id="clip12">
  <path d="M 56.847656 104 L 291 104 L 291 176 L 56.847656 176 Z M 56.847656 104 "/>
</clipPath>
<filter id="alpha" filterUnits="objectBoundingBox" x="0%" y="0%" width="100%" height="100%">
  <feColorMatrix type="matrix" in="SourceGraphic" values="0 0 0 0 1 0 0 0 0 1 0 0 0 0 1 0 0 0 1 0"/>
</filter>
<mask id="mask0">
  <g filter="url(#alpha)">
<rect x="0" y="0" width="310" height="229" style="fill:rgb(0%,0%,0%);fill-opacity:0.8;stroke:none;"/>
  </g>
</mask>
<clipPath id="clip13">
  <rect x="0" y="0" width="310" height="229"/>
</clipPath>
<g id="surface5" clip-path="url(#clip13)">
<path style="fill-rule:nonzero;fill:rgb(100%,100%,100%);fill-opacity:1;stroke-width:1;stroke-linecap:butt;stroke-linejoin:miter;stroke:rgb(80%,80%,80%);stroke-opacity:1;stroke-miterlimit:4;" d="M 159.996875 59.234375 L 233.778125 59.234375 C 235.1125 59.234375 235.778125 58.56875 235.778125 57.234375 L 235.778125 14.2 C 235.778125 12.865625 235.1125 12.2 233.778125 12.2 L 159.996875 12.2 C 158.6625 12.2 157.996875 12.865625 157.996875 14.2 L 157.996875 57.234375 C 157.996875 58.56875 158.6625 59.234375 159.996875 59.234375 Z M 159.996875 59.234375 " transform="matrix(1.25,0,0,1.25,0,0)"/>
</g>
</defs>
<g id="surface1">
<path style=" stroke:none;fill-rule:nonzero;fill:rgb(100%,100%,100%);fill-opacity:1;" d="M 0 229.195312 L 309.972656 229.195312 L 309.972656 0 L 0 0 Z M 0 229.195312 "/>
<path style=" stroke:none;fill-rule:nonzero;fill:rgb(100%,100%,100%);fill-opacity:1;" d="M 56.847656 182.25 L 300.972656 182.25 L 300.972656 9 L 56.847656 9 Z M 56.847656 182.25 "/>
<g clip-path="url(#clip1)" clip-rule="nonzero">
<path style="fill:none;stroke-width:0.8;stroke-linecap:square;stroke-linejoin:round;stroke:rgb(69.019608%,69.019608%,69.019608%);stroke-opacity:1;stroke-miterlimit:4;" d="M 54.35625 145.8 L 54.35625 7.2 " transform="matrix(1.25,0,0,1.25,0,0)"/>
</g>
<path style="fill:none;stroke-width:0.8;stroke-linecap:butt;stroke-linejoin:round;stroke:rgb(0%,0%,0%);stroke-opacity:1;stroke-miterlimit:4;" d="M 0.000852 0 L 0.000852 3.5 " transform="matrix(1.25,0,0,1.25,67.944248,182.25)"/>
<path style=" stroke:none;fill-rule:nonzero;fill:rgb(0%,0%,0%);fill-opacity:1;" d="M 58.496094 199.367188 L 60.507812 199.367188 L 60.507812 192.414062 L 58.316406 192.851562 L 58.316406 191.730469 L 60.496094 191.289062 L 61.730469 191.289062 L 61.730469 199.367188 L 63.742188 199.367188 L 63.742188 200.402344 L 58.496094 200.402344 Z M 58.496094 199.367188 "/>
<path style=" stroke:none;fill-rule:nonzero;fill:rgb(0%,0%,0%);fill-opacity:1;" d="M 68.871094 192.101562 C 68.234375 192.101562 67.757812 192.414062 67.4375 193.039062 C 67.117188 193.664062 66.960938 194.601562 66.960938 195.855469 C 66.960938 197.105469 67.117188 198.042969 67.4375 198.667969 C 67.757812 199.292969 68.234375 199.605469 68.871094 199.605469 C 69.507812 199.605469 69.988281 199.292969 70.308594 198.667969 C 70.628906 198.042969 70.789062 197.105469 70.789062 195.855469 C 70.789062 194.601562 70.628906 193.664062 70.308594 193.039062 C 69.988281 192.414062 69.507812 192.101562 68.871094 192.101562 Z M 68.871094 191.125 C 69.890625 191.125 70.671875 191.53125 71.210938 192.339844 C 71.75 193.144531 72.019531 194.316406 72.019531 195.855469 C 72.019531 197.390625 71.75 198.5625 71.210938 199.371094 C 70.671875 200.175781 69.890625 200.582031 68.871094 200.582031 C 67.847656 200.582031 67.070312 200.175781 66.53125 199.371094 C 65.992188 198.5625 65.722656 197.390625 65.722656 195.855469 C 65.722656 194.316406 65.992188 193.144531 66.53125 192.339844 C 67.070312 191.53125 67.847656 191.125 68.871094 191.125 Z M 68.871094 191.125 "/>
<path style=" stroke:none;fill-rule:nonzero;fill:rgb(0%,0%,0%);fill-opacity:1;" d="M 75.75 189.808594 C 75.304688 189.808594 74.972656 190.027344 74.75 190.464844 C 74.523438 190.898438 74.414062 191.558594 74.414062 192.433594 C 74.414062 193.308594 74.523438 193.964844 74.75 194.402344 C 74.972656 194.839844 75.304688 195.058594 75.75 195.058594 C 76.199219 195.058594 76.535156 194.839844 76.757812 194.402344 C 76.980469 193.964844 77.09375 193.308594 77.09375 192.433594 C 77.09375 191.558594 76.980469 190.898438 76.757812 190.464844 C 76.535156 190.027344 76.199219 189.808594 75.75 189.808594 Z M 75.75 189.125 C 76.464844 189.125 77.011719 189.40625 77.390625 189.972656 C 77.765625 190.539062 77.957031 191.359375 77.957031 192.433594 C 77.957031 193.507812 77.765625 194.328125 77.390625 194.894531 C 77.011719 195.460938 76.464844 195.742188 75.75 195.742188 C 75.035156 195.742188 74.488281 195.460938 74.113281 194.894531 C 73.734375 194.328125 73.546875 193.507812 73.546875 192.433594 C 73.546875 191.359375 73.734375 190.539062 74.113281 189.972656 C 74.488281 189.40625 75.035156 189.125 75.75 189.125 Z M 75.75 189.125 "/>
<g clip-path="url(#clip2)" clip-rule="nonzero">
<path style="fill:none;stroke-width:0.8;stroke-linecap:square;stroke-linejoin:round;stroke:rgb(69.019608%,69.019608%,69.019608%);stroke-opacity:1;stroke-miterlimit:4;" d="M 94.028125 145.8 L 94.028125 7.2 " transform="matrix(1.25,0,0,1.25,0,0)"/>
</g>
<path style="fill:none;stroke-width:0.8;stroke-linecap:butt;stroke-linejoin:round;stroke:rgb(0%,0%,0%);stroke-opacity:1;stroke-miterlimit:4;" d="M 0.001268 0 L 0.001268 3.5 " transform="matrix(1.25,0,0,1.25,117.533571,182.25)"/>
<path style=" stroke:none;fill-rule:nonzero;fill:rgb(0%,0%,0%);fill-opacity:1;" d="M 108.085938 199.375 L 110.097656 199.375 L 110.097656 192.421875 L 107.90625 192.863281 L 107.90625 191.738281 L 110.085938 191.300781 L 111.320312 191.300781 L 111.320312 199.375 L 113.332031 199.375 L 113.332031 200.414062 L 108.085938 200.414062 Z M 108.085938 199.375 "/>
<path style=" stroke:none;fill-rule:nonzero;fill:rgb(0%,0%,0%);fill-opacity:1;" d="M 118.460938 192.113281 C 117.824219 192.113281 117.347656 192.425781 117.027344 193.050781 C 116.707031 193.671875 116.550781 194.613281 116.550781 195.867188 C 116.550781 197.113281 116.707031 198.050781 117.027344 198.675781 C 117.347656 199.300781 117.824219 199.613281 118.460938 199.613281 C 119.097656 199.613281 119.578125 199.300781 119.898438 198.675781 C 120.21875 198.050781 120.378906 197.113281 120.378906 195.867188 C 120.378906 194.613281 120.21875 193.671875 119.898438 193.050781 C 119.578125 192.425781 119.097656 192.113281 118.460938 192.113281 Z M 118.460938 191.136719 C 119.480469 191.136719 120.261719 191.539062 120.800781 192.347656 C 121.339844 193.15625 121.609375 194.328125 121.609375 195.867188 C 121.609375 197.398438 121.339844 198.570312 120.800781 199.378906 C 120.261719 200.1875 119.480469 200.589844 118.460938 200.589844 C 117.4375 200.589844 116.660156 200.1875 116.121094 199.378906 C 115.582031 198.570312 115.3125 197.398438 115.3125 195.867188 C 115.3125 194.328125 115.582031 193.15625 116.121094 192.347656 C 116.660156 191.539062 117.4375 191.136719 118.460938 191.136719 Z M 118.460938 191.136719 "/>
<path style=" stroke:none;fill-rule:nonzero;fill:rgb(0%,0%,0%);fill-opacity:1;" d="M 123.644531 194.902344 L 125.054688 194.902344 L 125.054688 190.035156 L 123.519531 190.34375 L 123.519531 189.554688 L 125.046875 189.25 L 125.910156 189.25 L 125.910156 194.902344 L 127.316406 194.902344 L 127.316406 195.628906 L 123.644531 195.628906 Z M 123.644531 194.902344 "/>
<g clip-path="url(#clip3)" clip-rule="nonzero">
<path style="fill:none;stroke-width:0.8;stroke-linecap:square;stroke-linejoin:round;stroke:rgb(69.019608%,69.019608%,69.019608%);stroke-opacity:1;stroke-miterlimit:4;" d="M 133.696875 145.8 L 133.696875 7.2 " transform="matrix(1.25,0,0,1.25,0,0)"/>
</g>
<path style="fill:none;stroke-width:0.8;stroke-linecap:butt;stroke-linejoin:round;stroke:rgb(0%,0%,0%);stroke-opacity:1;stroke-miterlimit:4;" d="M -0.001441 0 L -0.001441 3.5 " transform="matrix(1.25,0,0,1.25,167.122895,182.25)"/>
<path style=" stroke:none;fill-rule:nonzero;fill:rgb(0%,0%,0%);fill-opacity:1;" d="M 157.671875 199.367188 L 159.6875 199.367188 L 159.6875 192.414062 L 157.496094 192.851562 L 157.496094 191.730469 L 159.675781 191.289062 L 160.90625 191.289062 L 160.90625 199.367188 L 162.921875 199.367188 L 162.921875 200.402344 L 157.671875 200.402344 Z M 157.671875 199.367188 "/>
<path style=" stroke:none;fill-rule:nonzero;fill:rgb(0%,0%,0%);fill-opacity:1;" d="M 168.046875 192.101562 C 167.414062 192.101562 166.9375 192.414062 166.617188 193.039062 C 166.296875 193.664062 166.136719 194.601562 166.136719 195.855469 C 166.136719 197.105469 166.296875 198.042969 166.617188 198.667969 C 166.9375 199.292969 167.414062 199.605469 168.046875 199.605469 C 168.6875 199.605469 169.167969 199.292969 169.484375 198.667969 C 169.804688 198.042969 169.964844 197.105469 169.964844 195.855469 C 169.964844 194.601562 169.804688 193.664062 169.484375 193.039062 C 169.167969 192.414062 168.6875 192.101562 168.046875 192.101562 Z M 168.046875 191.125 C 169.070312 191.125 169.851562 191.53125 170.390625 192.339844 C 170.929688 193.144531 171.199219 194.316406 171.199219 195.855469 C 171.199219 197.390625 170.929688 198.5625 170.390625 199.371094 C 169.851562 200.175781 169.070312 200.582031 168.046875 200.582031 C 167.027344 200.582031 166.246094 200.175781 165.707031 199.371094 C 165.167969 198.5625 164.898438 197.390625 164.898438 195.855469 C 164.898438 194.316406 165.167969 193.144531 165.707031 192.339844 C 166.246094 191.53125 167.027344 191.125 168.046875 191.125 Z M 168.046875 191.125 "/>
<path style=" stroke:none;fill-rule:nonzero;fill:rgb(0%,0%,0%);fill-opacity:1;" d="M 173.828125 194.890625 L 176.839844 194.890625 L 176.839844 195.617188 L 172.789062 195.617188 L 172.789062 194.890625 C 173.117188 194.550781 173.5625 194.097656 174.128906 193.527344 C 174.695312 192.957031 175.050781 192.585938 175.195312 192.421875 C 175.46875 192.109375 175.664062 191.847656 175.773438 191.632812 C 175.882812 191.417969 175.9375 191.207031 175.9375 191 C 175.9375 190.660156 175.820312 190.382812 175.582031 190.171875 C 175.34375 189.957031 175.035156 189.847656 174.652344 189.847656 C 174.382812 189.847656 174.09375 189.894531 173.792969 189.988281 C 173.496094 190.082031 173.171875 190.226562 172.832031 190.417969 L 172.832031 189.546875 C 173.179688 189.40625 173.503906 189.300781 173.804688 189.230469 C 174.109375 189.160156 174.382812 189.125 174.636719 189.125 C 175.296875 189.125 175.824219 189.289062 176.214844 189.621094 C 176.609375 189.949219 176.804688 190.390625 176.804688 190.941406 C 176.804688 191.207031 176.753906 191.453125 176.65625 191.6875 C 176.558594 191.921875 176.382812 192.199219 176.121094 192.519531 C 176.050781 192.601562 175.824219 192.839844 175.441406 193.234375 C 175.0625 193.628906 174.523438 194.183594 173.828125 194.890625 Z M 173.828125 194.890625 "/>
<g clip-path="url(#clip4)" clip-rule="nonzero">
<path style="fill:none;stroke-width:0.8;stroke-linecap:square;stroke-linejoin:round;stroke:rgb(69.019608%,69.019608%,69.019608%);stroke-opacity:1;stroke-miterlimit:4;" d="M 173.36875 145.8 L 173.36875 7.2 " transform="matrix(1.25,0,0,1.25,0,0)"/>
</g>
<path style="fill:none;stroke-width:0.8;stroke-linecap:butt;stroke-linejoin:round;stroke:rgb(0%,0%,0%);stroke-opacity:1;stroke-miterlimit:4;" d="M -0.001025 0 L -0.001025 3.5 " transform="matrix(1.25,0,0,1.25,216.712219,182.25)"/>
<path style=" stroke:none;fill-rule:nonzero;fill:rgb(0%,0%,0%);fill-opacity:1;" d="M 207.261719 199.367188 L 209.277344 199.367188 L 209.277344 192.414062 L 207.085938 192.851562 L 207.085938 191.730469 L 209.265625 191.289062 L 210.496094 191.289062 L 210.496094 199.367188 L 212.511719 199.367188 L 212.511719 200.402344 L 207.261719 200.402344 Z M 207.261719 199.367188 "/>
<path style=" stroke:none;fill-rule:nonzero;fill:rgb(0%,0%,0%);fill-opacity:1;" d="M 217.636719 192.101562 C 217.003906 192.101562 216.527344 192.414062 216.207031 193.039062 C 215.886719 193.664062 215.726562 194.601562 215.726562 195.855469 C 215.726562 197.105469 215.886719 198.042969 216.207031 198.667969 C 216.527344 199.292969 217.003906 199.605469 217.636719 199.605469 C 218.277344 199.605469 218.757812 199.292969 219.074219 198.667969 C 219.394531 198.042969 219.554688 197.105469 219.554688 195.855469 C 219.554688 194.601562 219.394531 193.664062 219.074219 193.039062 C 218.757812 192.414062 218.277344 192.101562 217.636719 192.101562 Z M 217.636719 191.125 C 218.660156 191.125 219.441406 191.53125 219.980469 192.339844 C 220.519531 193.144531 220.789062 194.316406 220.789062 195.855469 C 220.789062 197.390625 220.519531 198.5625 219.980469 199.371094 C 219.441406 200.175781 218.660156 200.582031 217.636719 200.582031 C 216.617188 200.582031 215.835938 200.175781 215.296875 199.371094 C 214.757812 198.5625 214.488281 197.390625 214.488281 195.855469 C 214.488281 194.316406 214.757812 193.144531 215.296875 192.339844 C 215.835938 191.53125 216.617188 191.125 217.636719 191.125 Z M 217.636719 191.125 "/>
<path style=" stroke:none;fill-rule:nonzero;fill:rgb(0%,0%,0%);fill-opacity:1;" d="M 225.289062 192.175781 C 225.699219 192.265625 226.023438 192.449219 226.253906 192.730469 C 226.488281 193.007812 226.601562 193.351562 226.601562 193.761719 C 226.601562 194.390625 226.386719 194.878906 225.953125 195.226562 C 225.519531 195.570312 224.90625 195.742188 224.109375 195.742188 C 223.839844 195.742188 223.566406 195.714844 223.28125 195.664062 C 223 195.609375 222.707031 195.53125 222.40625 195.425781 L 222.40625 194.59375 C 222.644531 194.730469 222.90625 194.835938 223.191406 194.90625 C 223.476562 194.980469 223.773438 195.015625 224.082031 195.015625 C 224.625 195.015625 225.035156 194.90625 225.320312 194.695312 C 225.601562 194.480469 225.746094 194.171875 225.746094 193.761719 C 225.746094 193.386719 225.613281 193.09375 225.351562 192.882812 C 225.085938 192.667969 224.71875 192.5625 224.25 192.5625 L 223.507812 192.5625 L 223.507812 191.851562 L 224.285156 191.851562 C 224.707031 191.851562 225.03125 191.769531 225.257812 191.597656 C 225.484375 191.429688 225.597656 191.183594 225.597656 190.867188 C 225.597656 190.539062 225.480469 190.289062 225.246094 190.113281 C 225.015625 189.9375 224.683594 189.847656 224.25 189.847656 C 224.011719 189.847656 223.757812 189.875 223.488281 189.925781 C 223.21875 189.976562 222.921875 190.058594 222.597656 190.164062 L 222.597656 189.398438 C 222.925781 189.304688 223.230469 189.238281 223.519531 189.191406 C 223.804688 189.144531 224.074219 189.125 224.328125 189.125 C 224.980469 189.125 225.5 189.273438 225.882812 189.570312 C 226.261719 189.867188 226.453125 190.269531 226.453125 190.777344 C 226.453125 191.128906 226.351562 191.429688 226.152344 191.671875 C 225.949219 191.914062 225.660156 192.082031 225.289062 192.175781 Z M 225.289062 192.175781 "/>
<g clip-path="url(#clip5)" clip-rule="nonzero">
<path style="fill:none;stroke-width:0.8;stroke-linecap:square;stroke-linejoin:round;stroke:rgb(69.019608%,69.019608%,69.019608%);stroke-opacity:1;stroke-miterlimit:4;" d="M 213.040625 145.8 L 213.040625 7.2 " transform="matrix(1.25,0,0,1.25,0,0)"/>
</g>
<path style="fill:none;stroke-width:0.8;stroke-linecap:butt;stroke-linejoin:round;stroke:rgb(0%,0%,0%);stroke-opacity:1;stroke-miterlimit:4;" d="M -0.000609 0 L -0.000609 3.5 " transform="matrix(1.25,0,0,1.25,266.301542,182.25)"/>
<path style=" stroke:none;fill-rule:nonzero;fill:rgb(0%,0%,0%);fill-opacity:1;" d="M 256.851562 199.375 L 258.867188 199.375 L 258.867188 192.421875 L 256.675781 192.863281 L 256.675781 191.738281 L 258.855469 191.300781 L 260.085938 191.300781 L 260.085938 199.375 L 262.101562 199.375 L 262.101562 200.414062 L 256.851562 200.414062 Z M 256.851562 199.375 "/>
<path style=" stroke:none;fill-rule:nonzero;fill:rgb(0%,0%,0%);fill-opacity:1;" d="M 267.226562 192.113281 C 266.59375 192.113281 266.117188 192.425781 265.796875 193.050781 C 265.476562 193.671875 265.316406 194.613281 265.316406 195.867188 C 265.316406 197.113281 265.476562 198.050781 265.796875 198.675781 C 266.117188 199.300781 266.59375 199.613281 267.226562 199.613281 C 267.867188 199.613281 268.34375 199.300781 268.664062 198.675781 C 268.984375 198.050781 269.144531 197.113281 269.144531 195.867188 C 269.144531 194.613281 268.984375 193.671875 268.664062 193.050781 C 268.34375 192.425781 267.867188 192.113281 267.226562 192.113281 Z M 267.226562 191.136719 C 268.25 191.136719 269.03125 191.539062 269.570312 192.347656 C 270.109375 193.15625 270.378906 194.328125 270.378906 195.867188 C 270.378906 197.398438 270.109375 198.570312 269.570312 199.378906 C 269.03125 200.1875 268.25 200.589844 267.226562 200.589844 C 266.207031 200.589844 265.425781 200.1875 264.886719 199.378906 C 264.347656 198.570312 264.078125 197.398438 264.078125 195.867188 C 264.078125 194.328125 264.347656 193.15625 264.886719 192.347656 C 265.425781 191.539062 266.207031 191.136719 267.226562 191.136719 Z M 267.226562 191.136719 "/>
<path style=" stroke:none;fill-rule:nonzero;fill:rgb(0%,0%,0%);fill-opacity:1;" d="M 274.632812 190 L 272.453125 193.40625 L 274.632812 193.40625 Z M 274.40625 189.25 L 275.492188 189.25 L 275.492188 193.40625 L 276.402344 193.40625 L 276.402344 194.125 L 275.492188 194.125 L 275.492188 195.628906 L 274.632812 195.628906 L 274.632812 194.125 L 271.753906 194.125 L 271.753906 193.289062 Z M 274.40625 189.25 "/>
<path style="fill:none;stroke-width:0.6;stroke-linecap:butt;stroke-linejoin:round;stroke:rgb(0%,0%,0%);stroke-opacity:1;stroke-miterlimit:4;" d="M -0.001209 0 L -0.001209 2 " transform="matrix(1.25,0,0,1.25,56.942917,182.25)"/>
<path style="fill:none;stroke-width:0.6;stroke-linecap:butt;stroke-linejoin:round;stroke:rgb(0%,0%,0%);stroke-opacity:1;stroke-miterlimit:4;" d="M -0.000836 0 L -0.000836 2 " transform="matrix(1.25,0,0,1.25,60.262764,182.25)"/>
<path style="fill:none;stroke-width:0.6;stroke-linecap:butt;stroke-linejoin:round;stroke:rgb(0%,0%,0%);stroke-opacity:1;stroke-miterlimit:4;" d="M -0.001461 0 L -0.001461 2 " transform="matrix(1.25,0,0,1.25,63.138545,182.25)"/>
<path style="fill:none;stroke-width:0.6;stroke-linecap:butt;stroke-linejoin:round;stroke:rgb(0%,0%,0%);stroke-opacity:1;stroke-miterlimit:4;" d="M 0.000494 0 L 0.000494 2 " transform="matrix(1.25,0,0,1.25,65.675164,182.25)"/>
<path style="fill:none;stroke-width:0.6;stroke-linecap:butt;stroke-linejoin:round;stroke:rgb(0%,0%,0%);stroke-opacity:1;stroke-miterlimit:4;" d="M -0.000822 0 L -0.000822 2 " transform="matrix(1.25,0,0,1.25,82.872121,182.25)"/>
<path style="fill:none;stroke-width:0.6;stroke-linecap:butt;stroke-linejoin:round;stroke:rgb(0%,0%,0%);stroke-opacity:1;stroke-miterlimit:4;" d="M 0.000881 0 L 0.000881 2 " transform="matrix(1.25,0,0,1.25,91.604368,182.25)"/>
<path style="fill:none;stroke-width:0.6;stroke-linecap:butt;stroke-linejoin:round;stroke:rgb(0%,0%,0%);stroke-opacity:1;stroke-miterlimit:4;" d="M 0.000629 0 L 0.000629 2 " transform="matrix(1.25,0,0,1.25,97.799995,182.25)"/>
<path style="fill:none;stroke-width:0.6;stroke-linecap:butt;stroke-linejoin:round;stroke:rgb(0%,0%,0%);stroke-opacity:1;stroke-miterlimit:4;" d="M -0.000183 0 L -0.000183 2 " transform="matrix(1.25,0,0,1.25,102.605698,182.25)"/>
<path style="fill:none;stroke-width:0.6;stroke-linecap:butt;stroke-linejoin:round;stroke:rgb(0%,0%,0%);stroke-opacity:1;stroke-miterlimit:4;" d="M -0.000793 0 L -0.000793 2 " transform="matrix(1.25,0,0,1.25,106.532241,182.25)"/>
<path style="fill:none;stroke-width:0.6;stroke-linecap:butt;stroke-linejoin:round;stroke:rgb(0%,0%,0%);stroke-opacity:1;stroke-miterlimit:4;" d="M -0.00042 0 L -0.00042 2 " transform="matrix(1.25,0,0,1.25,109.852087,182.25)"/>
<path style="fill:none;stroke-width:0.6;stroke-linecap:butt;stroke-linejoin:round;stroke:rgb(0%,0%,0%);stroke-opacity:1;stroke-miterlimit:4;" d="M -0.001045 0 L -0.001045 2 " transform="matrix(1.25,0,0,1.25,112.727869,182.25)"/>
<path style="fill:none;stroke-width:0.6;stroke-linecap:butt;stroke-linejoin:round;stroke:rgb(0%,0%,0%);stroke-opacity:1;stroke-miterlimit:4;" d="M 0.00091 0 L 0.00091 2 " transform="matrix(1.25,0,0,1.25,115.264488,182.25)"/>
<path style="fill:none;stroke-width:0.6;stroke-linecap:butt;stroke-linejoin:round;stroke:rgb(0%,0%,0%);stroke-opacity:1;stroke-miterlimit:4;" d="M -0.000406 0 L -0.000406 2 " transform="matrix(1.25,0,0,1.25,132.461445,182.25)"/>
<path style="fill:none;stroke-width:0.6;stroke-linecap:butt;stroke-linejoin:round;stroke:rgb(0%,0%,0%);stroke-opacity:1;stroke-miterlimit:4;" d="M 0.001297 0 L 0.001297 2 " transform="matrix(1.25,0,0,1.25,141.193691,182.25)"/>
<path style="fill:none;stroke-width:0.6;stroke-linecap:butt;stroke-linejoin:round;stroke:rgb(0%,0%,0%);stroke-opacity:1;stroke-miterlimit:4;" d="M 0.001045 0 L 0.001045 2 " transform="matrix(1.25,0,0,1.25,147.389319,182.25)"/>
<path style="fill:none;stroke-width:0.6;stroke-linecap:butt;stroke-linejoin:round;stroke:rgb(0%,0%,0%);stroke-opacity:1;stroke-miterlimit:4;" d="M 0.000233 0 L 0.000233 2 " transform="matrix(1.25,0,0,1.25,152.195021,182.25)"/>
<path style="fill:none;stroke-width:0.6;stroke-linecap:butt;stroke-linejoin:round;stroke:rgb(0%,0%,0%);stroke-opacity:1;stroke-miterlimit:4;" d="M -0.000377 0 L -0.000377 2 " transform="matrix(1.25,0,0,1.25,156.121565,182.25)"/>
<path style="fill:none;stroke-width:0.6;stroke-linecap:butt;stroke-linejoin:round;stroke:rgb(0%,0%,0%);stroke-opacity:1;stroke-miterlimit:4;" d="M -0.000004 0 L -0.000004 2 " transform="matrix(1.25,0,0,1.25,159.441411,182.25)"/>
<path style="fill:none;stroke-width:0.6;stroke-linecap:butt;stroke-linejoin:round;stroke:rgb(0%,0%,0%);stroke-opacity:1;stroke-miterlimit:4;" d="M -0.000629 0 L -0.000629 2 " transform="matrix(1.25,0,0,1.25,162.317193,182.25)"/>
<path style="fill:none;stroke-width:0.6;stroke-linecap:butt;stroke-linejoin:round;stroke:rgb(0%,0%,0%);stroke-opacity:1;stroke-miterlimit:4;" d="M 0.001326 0 L 0.001326 2 " transform="matrix(1.25,0,0,1.25,164.853811,182.25)"/>
<path style="fill:none;stroke-width:0.6;stroke-linecap:butt;stroke-linejoin:round;stroke:rgb(0%,0%,0%);stroke-opacity:1;stroke-miterlimit:4;" d="M 0.00001 0 L 0.00001 2 " transform="matrix(1.25,0,0,1.25,182.050769,182.25)"/>
<path style="fill:none;stroke-width:0.6;stroke-linecap:butt;stroke-linejoin:round;stroke:rgb(0%,0%,0%);stroke-opacity:1;stroke-miterlimit:4;" d="M -0.001412 0 L -0.001412 2 " transform="matrix(1.25,0,0,1.25,190.783015,182.25)"/>
<path style="fill:none;stroke-width:0.6;stroke-linecap:butt;stroke-linejoin:round;stroke:rgb(0%,0%,0%);stroke-opacity:1;stroke-miterlimit:4;" d="M 0.001461 0 L 0.001461 2 " transform="matrix(1.25,0,0,1.25,196.978642,182.25)"/>
<path style="fill:none;stroke-width:0.6;stroke-linecap:butt;stroke-linejoin:round;stroke:rgb(0%,0%,0%);stroke-opacity:1;stroke-miterlimit:4;" d="M 0.000649 0 L 0.000649 2 " transform="matrix(1.25,0,0,1.25,201.784345,182.25)"/>
<path style="fill:none;stroke-width:0.6;stroke-linecap:butt;stroke-linejoin:round;stroke:rgb(0%,0%,0%);stroke-opacity:1;stroke-miterlimit:4;" d="M 0.000039 0 L 0.000039 2 " transform="matrix(1.25,0,0,1.25,205.710889,182.25)"/>
<path style="fill:none;stroke-width:0.6;stroke-linecap:butt;stroke-linejoin:round;stroke:rgb(0%,0%,0%);stroke-opacity:1;stroke-miterlimit:4;" d="M 0.000412 0 L 0.000412 2 " transform="matrix(1.25,0,0,1.25,209.030735,182.25)"/>
<path style="fill:none;stroke-width:0.6;stroke-linecap:butt;stroke-linejoin:round;stroke:rgb(0%,0%,0%);stroke-opacity:1;stroke-miterlimit:4;" d="M -0.000213 0 L -0.000213 2 " transform="matrix(1.25,0,0,1.25,211.906516,182.25)"/>
<path style="fill:none;stroke-width:0.6;stroke-linecap:butt;stroke-linejoin:round;stroke:rgb(0%,0%,0%);stroke-opacity:1;stroke-miterlimit:4;" d="M -0.001383 0 L -0.001383 2 " transform="matrix(1.25,0,0,1.25,214.443135,182.25)"/>
<path style="fill:none;stroke-width:0.6;stroke-linecap:butt;stroke-linejoin:round;stroke:rgb(0%,0%,0%);stroke-opacity:1;stroke-miterlimit:4;" d="M 0.000426 0 L 0.000426 2 " transform="matrix(1.25,0,0,1.25,231.640092,182.25)"/>
<path style="fill:none;stroke-width:0.6;stroke-linecap:butt;stroke-linejoin:round;stroke:rgb(0%,0%,0%);stroke-opacity:1;stroke-miterlimit:4;" d="M -0.000996 0 L -0.000996 2 " transform="matrix(1.25,0,0,1.25,240.372339,182.25)"/>
<path style="fill:none;stroke-width:0.6;stroke-linecap:butt;stroke-linejoin:round;stroke:rgb(0%,0%,0%);stroke-opacity:1;stroke-miterlimit:4;" d="M -0.001248 0 L -0.001248 2 " transform="matrix(1.25,0,0,1.25,246.567966,182.25)"/>
<path style="fill:none;stroke-width:0.6;stroke-linecap:butt;stroke-linejoin:round;stroke:rgb(0%,0%,0%);stroke-opacity:1;stroke-miterlimit:4;" d="M 0.001065 0 L 0.001065 2 " transform="matrix(1.25,0,0,1.25,251.373669,182.25)"/>
<path style="fill:none;stroke-width:0.6;stroke-linecap:butt;stroke-linejoin:round;stroke:rgb(0%,0%,0%);stroke-opacity:1;stroke-miterlimit:4;" d="M 0.000455 0 L 0.000455 2 " transform="matrix(1.25,0,0,1.25,255.300213,182.25)"/>
<path style="fill:none;stroke-width:0.6;stroke-linecap:butt;stroke-linejoin:round;stroke:rgb(0%,0%,0%);stroke-opacity:1;stroke-miterlimit:4;" d="M 0.000828 0 L 0.000828 2 " transform="matrix(1.25,0,0,1.25,258.620059,182.25)"/>
<path style="fill:none;stroke-width:0.6;stroke-linecap:butt;stroke-linejoin:round;stroke:rgb(0%,0%,0%);stroke-opacity:1;stroke-miterlimit:4;" d="M 0.000203 0 L 0.000203 2 " transform="matrix(1.25,0,0,1.25,261.49584,182.25)"/>
<path style="fill:none;stroke-width:0.6;stroke-linecap:butt;stroke-linejoin:round;stroke:rgb(0%,0%,0%);stroke-opacity:1;stroke-miterlimit:4;" d="M -0.000968 0 L -0.000968 2 " transform="matrix(1.25,0,0,1.25,264.03246,182.25)"/>
<path style="fill:none;stroke-width:0.6;stroke-linecap:butt;stroke-linejoin:round;stroke:rgb(0%,0%,0%);stroke-opacity:1;stroke-miterlimit:4;" d="M 0.000842 0 L 0.000842 2 " transform="matrix(1.25,0,0,1.25,281.229416,182.25)"/>
<path style="fill:none;stroke-width:0.6;stroke-linecap:butt;stroke-linejoin:round;stroke:rgb(0%,0%,0%);stroke-opacity:1;stroke-miterlimit:4;" d="M -0.00058 0 L -0.00058 2 " transform="matrix(1.25,0,0,1.25,289.961662,182.25)"/>
<path style="fill:none;stroke-width:0.6;stroke-linecap:butt;stroke-linejoin:round;stroke:rgb(0%,0%,0%);stroke-opacity:1;stroke-miterlimit:4;" d="M -0.000832 0 L -0.000832 2 " transform="matrix(1.25,0,0,1.25,296.15729,182.25)"/>
<path style="fill:none;stroke-width:0.6;stroke-linecap:butt;stroke-linejoin:round;stroke:rgb(0%,0%,0%);stroke-opacity:1;stroke-miterlimit:4;" d="M 0.001481 0 L 0.001481 2 " transform="matrix(1.25,0,0,1.25,300.962993,182.25)"/>
<path style=" stroke:none;fill-rule:nonzero;fill:rgb(0%,0%,0%);fill-opacity:1;" d="M 155.933594 208.820312 L 155.933594 210.761719 L 158.246094 210.761719 L 158.246094 211.632812 L 155.933594 211.632812 L 155.933594 215.34375 C 155.933594 215.902344 156.011719 216.257812 156.164062 216.417969 C 156.316406 216.578125 156.625 216.65625 157.09375 216.65625 L 158.246094 216.65625 L 158.246094 217.597656 L 157.09375 217.597656 C 156.226562 217.597656 155.628906 217.433594 155.300781 217.113281 C 154.96875 216.789062 154.804688 216.199219 154.804688 215.34375 L 154.804688 211.632812 L 153.980469 211.632812 L 153.980469 210.761719 L 154.804688 210.761719 L 154.804688 208.820312 Z M 155.933594 208.820312 "/>
<path style=" stroke:none;fill-rule:nonzero;fill:rgb(0%,0%,0%);fill-opacity:1;" d="M 162.371094 211.546875 C 161.769531 211.546875 161.296875 211.78125 160.945312 212.253906 C 160.59375 212.722656 160.417969 213.367188 160.417969 214.183594 C 160.417969 215 160.59375 215.644531 160.941406 216.117188 C 161.289062 216.585938 161.765625 216.820312 162.371094 216.820312 C 162.972656 216.820312 163.445312 216.585938 163.792969 216.113281 C 164.144531 215.640625 164.320312 214.996094 164.320312 214.183594 C 164.320312 213.375 164.144531 212.730469 163.792969 212.257812 C 163.445312 211.785156 162.972656 211.546875 162.371094 211.546875 Z M 162.371094 210.597656 C 163.347656 210.597656 164.117188 210.914062 164.671875 211.550781 C 165.230469 212.183594 165.511719 213.0625 165.511719 214.183594 C 165.511719 215.300781 165.230469 216.179688 164.671875 216.820312 C 164.117188 217.457031 163.347656 217.773438 162.371094 217.773438 C 161.390625 217.773438 160.625 217.457031 160.066406 216.820312 C 159.511719 216.179688 159.234375 215.300781 159.234375 214.183594 C 159.234375 213.0625 159.511719 212.183594 160.066406 211.550781 C 160.625 210.914062 161.390625 210.597656 162.371094 210.597656 Z M 162.371094 210.597656 "/>
<path style=" stroke:none;fill-rule:nonzero;fill:rgb(0%,0%,0%);fill-opacity:1;" d="M 167.328125 208.097656 L 168.457031 208.097656 L 168.457031 213.707031 L 171.808594 210.761719 L 173.242188 210.761719 L 169.617188 213.957031 L 173.398438 217.597656 L 171.933594 217.597656 L 168.457031 214.257812 L 168.457031 217.597656 L 167.328125 217.597656 Z M 167.328125 208.097656 "/>
<path style=" stroke:none;fill-rule:nonzero;fill:rgb(0%,0%,0%);fill-opacity:1;" d="M 180.003906 213.898438 L 180.003906 214.445312 L 174.839844 214.445312 C 174.890625 215.21875 175.125 215.808594 175.539062 216.214844 C 175.957031 216.617188 176.539062 216.820312 177.28125 216.820312 C 177.714844 216.820312 178.132812 216.769531 178.535156 216.664062 C 178.941406 216.558594 179.34375 216.398438 179.742188 216.1875 L 179.742188 217.25 C 179.339844 217.417969 178.925781 217.550781 178.503906 217.640625 C 178.082031 217.730469 177.652344 217.773438 177.214844 217.773438 C 176.125 217.773438 175.261719 217.457031 174.625 216.824219 C 173.988281 216.1875 173.667969 215.328125 173.667969 214.246094 C 173.667969 213.125 173.972656 212.238281 174.574219 211.582031 C 175.179688 210.925781 175.996094 210.597656 177.019531 210.597656 C 177.941406 210.597656 178.667969 210.890625 179.203125 211.484375 C 179.738281 212.074219 180.003906 212.878906 180.003906 213.898438 Z M 178.882812 213.566406 C 178.875 212.953125 178.703125 212.464844 178.367188 212.097656 C 178.03125 211.730469 177.585938 211.546875 177.03125 211.546875 C 176.40625 211.546875 175.90625 211.722656 175.527344 212.078125 C 175.152344 212.433594 174.9375 212.929688 174.878906 213.574219 Z M 178.882812 213.566406 "/>
<path style=" stroke:none;fill-rule:nonzero;fill:rgb(0%,0%,0%);fill-opacity:1;" d="M 187.53125 213.46875 L 187.53125 217.597656 L 186.410156 217.597656 L 186.410156 213.507812 C 186.410156 212.859375 186.28125 212.375 186.03125 212.054688 C 185.777344 211.734375 185.398438 211.574219 184.894531 211.574219 C 184.289062 211.574219 183.808594 211.765625 183.460938 212.152344 C 183.109375 212.539062 182.933594 213.066406 182.933594 213.734375 L 182.933594 217.597656 L 181.804688 217.597656 L 181.804688 210.761719 L 182.933594 210.761719 L 182.933594 211.824219 C 183.203125 211.410156 183.519531 211.105469 183.882812 210.902344 C 184.246094 210.699219 184.667969 210.597656 185.144531 210.597656 C 185.929688 210.597656 186.523438 210.839844 186.925781 211.324219 C 187.328125 211.808594 187.53125 212.523438 187.53125 213.46875 Z M 187.53125 213.46875 "/>
<path style=" stroke:none;fill-rule:nonzero;fill:rgb(0%,0%,0%);fill-opacity:1;" d="M 190.058594 216.046875 L 191.34375 216.046875 L 191.34375 217.597656 L 190.058594 217.597656 Z M 190.058594 211.132812 L 191.34375 211.132812 L 191.34375 212.683594 L 190.058594 212.683594 Z M 190.058594 211.132812 "/>
<path style=" stroke:none;fill-rule:nonzero;fill:rgb(0%,0%,0%);fill-opacity:1;" d="M 203.640625 210.761719 L 201.167969 214.085938 L 203.765625 217.597656 L 202.441406 217.597656 L 200.453125 214.910156 L 198.464844 217.597656 L 197.136719 217.597656 L 199.792969 214.019531 L 197.363281 210.761719 L 198.6875 210.761719 L 200.5 213.195312 L 202.3125 210.761719 Z M 203.640625 210.761719 "/>
<g clip-path="url(#clip6)" clip-rule="nonzero">
<path style="fill:none;stroke-width:0.8;stroke-linecap:square;stroke-linejoin:round;stroke:rgb(69.019608%,69.019608%,69.019608%);stroke-opacity:1;stroke-miterlimit:4;" d="M 45.478125 139.5 L 240.778125 139.5 " transform="matrix(1.25,0,0,1.25,0,0)"/>
</g>
<path style="fill:none;stroke-width:0.8;stroke-linecap:butt;stroke-linejoin:round;stroke:rgb(0%,0%,0%);stroke-opacity:1;stroke-miterlimit:4;" d="M 0 0 L -3.5 0 " transform="matrix(1.25,0,0,1.25,56.847656,174.375)"/>
<path style=" stroke:none;fill-rule:nonzero;fill:rgb(0%,0%,0%);fill-opacity:1;" d="M 27.648438 177.992188 L 29.664062 177.992188 L 29.664062 171.039062 L 27.46875 171.476562 L 27.46875 170.355469 L 29.648438 169.914062 L 30.882812 169.914062 L 30.882812 177.992188 L 32.898438 177.992188 L 32.898438 179.027344 L 27.648438 179.027344 Z M 27.648438 177.992188 "/>
<path style=" stroke:none;fill-rule:nonzero;fill:rgb(0%,0%,0%);fill-opacity:1;" d="M 38.023438 170.726562 C 37.390625 170.726562 36.910156 171.039062 36.589844 171.664062 C 36.273438 172.289062 36.113281 173.226562 36.113281 174.480469 C 36.113281 175.730469 36.273438 176.667969 36.589844 177.292969 C 36.910156 177.917969 37.390625 178.230469 38.023438 178.230469 C 38.664062 178.230469 39.140625 177.917969 39.460938 177.292969 C 39.78125 176.667969 39.941406 175.730469 39.941406 174.480469 C 39.941406 173.226562 39.78125 172.289062 39.460938 171.664062 C 39.140625 171.039062 38.664062 170.726562 38.023438 170.726562 Z M 38.023438 169.75 C 39.046875 169.75 39.824219 170.15625 40.363281 170.964844 C 40.902344 171.769531 41.171875 172.945312 41.171875 174.480469 C 41.171875 176.015625 40.902344 177.1875 40.363281 177.996094 C 39.824219 178.800781 39.046875 179.207031 38.023438 179.207031 C 37.003906 179.207031 36.222656 178.800781 35.683594 177.996094 C 35.144531 177.1875 34.875 176.015625 34.875 174.480469 C 34.875 172.945312 35.144531 171.769531 35.683594 170.964844 C 36.222656 170.15625 37.003906 169.75 38.023438 169.75 Z M 38.023438 169.75 "/>
<path style=" stroke:none;fill-rule:nonzero;fill:rgb(0%,0%,0%);fill-opacity:1;" d="M 44.902344 168.433594 C 44.460938 168.433594 44.125 168.652344 43.902344 169.089844 C 43.679688 169.527344 43.566406 170.183594 43.566406 171.058594 C 43.566406 171.933594 43.679688 172.589844 43.902344 173.027344 C 44.125 173.464844 44.460938 173.683594 44.902344 173.683594 C 45.351562 173.683594 45.6875 173.464844 45.910156 173.027344 C 46.132812 172.589844 46.246094 171.933594 46.246094 171.058594 C 46.246094 170.183594 46.132812 169.527344 45.910156 169.089844 C 45.6875 168.652344 45.351562 168.433594 44.902344 168.433594 Z M 44.902344 167.75 C 45.621094 167.75 46.164062 168.03125 46.542969 168.597656 C 46.921875 169.164062 47.109375 169.984375 47.109375 171.058594 C 47.109375 172.132812 46.921875 172.953125 46.542969 173.519531 C 46.164062 174.085938 45.621094 174.367188 44.902344 174.367188 C 44.1875 174.367188 43.644531 174.085938 43.265625 173.519531 C 42.890625 172.953125 42.699219 172.132812 42.699219 171.058594 C 42.699219 169.984375 42.890625 169.164062 43.265625 168.597656 C 43.644531 168.03125 44.1875 167.75 44.902344 167.75 Z M 44.902344 167.75 "/>
<g clip-path="url(#clip7)" clip-rule="nonzero">
<path style="fill:none;stroke-width:0.8;stroke-linecap:square;stroke-linejoin:round;stroke:rgb(69.019608%,69.019608%,69.019608%);stroke-opacity:1;stroke-miterlimit:4;" d="M 45.478125 101.9375 L 240.778125 101.9375 " transform="matrix(1.25,0,0,1.25,0,0)"/>
</g>
<path style="fill:none;stroke-width:0.8;stroke-linecap:butt;stroke-linejoin:round;stroke:rgb(0%,0%,0%);stroke-opacity:1;stroke-miterlimit:4;" d="M 0 0.001218 L -3.5 0.001218 " transform="matrix(1.25,0,0,1.25,56.847656,127.420353)"/>
<path style=" stroke:none;fill-rule:nonzero;fill:rgb(0%,0%,0%);fill-opacity:1;" d="M 27.648438 131.046875 L 29.664062 131.046875 L 29.664062 124.09375 L 27.46875 124.53125 L 27.46875 123.410156 L 29.648438 122.96875 L 30.882812 122.96875 L 30.882812 131.046875 L 32.898438 131.046875 L 32.898438 132.082031 L 27.648438 132.082031 Z M 27.648438 131.046875 "/>
<path style=" stroke:none;fill-rule:nonzero;fill:rgb(0%,0%,0%);fill-opacity:1;" d="M 38.023438 123.78125 C 37.390625 123.78125 36.910156 124.09375 36.589844 124.71875 C 36.273438 125.34375 36.113281 126.28125 36.113281 127.535156 C 36.113281 128.785156 36.273438 129.722656 36.589844 130.347656 C 36.910156 130.972656 37.390625 131.285156 38.023438 131.285156 C 38.664062 131.285156 39.140625 130.972656 39.460938 130.347656 C 39.78125 129.722656 39.941406 128.785156 39.941406 127.535156 C 39.941406 126.28125 39.78125 125.34375 39.460938 124.71875 C 39.140625 124.09375 38.664062 123.78125 38.023438 123.78125 Z M 38.023438 122.804688 C 39.046875 122.804688 39.824219 123.210938 40.363281 124.019531 C 40.902344 124.828125 41.171875 126 41.171875 127.535156 C 41.171875 129.070312 40.902344 130.242188 40.363281 131.050781 C 39.824219 131.859375 39.046875 132.261719 38.023438 132.261719 C 37.003906 132.261719 36.222656 131.859375 35.683594 131.050781 C 35.144531 130.242188 34.875 129.070312 34.875 127.535156 C 34.875 126 35.144531 124.828125 35.683594 124.019531 C 36.222656 123.210938 37.003906 122.804688 38.023438 122.804688 Z M 38.023438 122.804688 "/>
<path style=" stroke:none;fill-rule:nonzero;fill:rgb(0%,0%,0%);fill-opacity:1;" d="M 43.207031 126.574219 L 44.617188 126.574219 L 44.617188 121.707031 L 43.085938 122.011719 L 43.085938 121.226562 L 44.609375 120.917969 L 45.472656 120.917969 L 45.472656 126.574219 L 46.882812 126.574219 L 46.882812 127.296875 L 43.207031 127.296875 Z M 43.207031 126.574219 "/>
<g clip-path="url(#clip8)" clip-rule="nonzero">
<path style="fill:none;stroke-width:0.8;stroke-linecap:square;stroke-linejoin:round;stroke:rgb(69.019608%,69.019608%,69.019608%);stroke-opacity:1;stroke-miterlimit:4;" d="M 45.478125 64.371875 L 240.778125 64.371875 " transform="matrix(1.25,0,0,1.25,0,0)"/>
</g>
<path style="fill:none;stroke-width:0.8;stroke-linecap:butt;stroke-linejoin:round;stroke:rgb(0%,0%,0%);stroke-opacity:1;stroke-miterlimit:4;" d="M 0 -0.000689 L -3.5 -0.000689 " transform="matrix(1.25,0,0,1.25,56.847656,80.465705)"/>
<path style=" stroke:none;fill-rule:nonzero;fill:rgb(0%,0%,0%);fill-opacity:1;" d="M 27.648438 84.082031 L 29.664062 84.082031 L 29.664062 77.128906 L 27.46875 77.566406 L 27.46875 76.445312 L 29.648438 76.003906 L 30.882812 76.003906 L 30.882812 84.082031 L 32.898438 84.082031 L 32.898438 85.117188 L 27.648438 85.117188 Z M 27.648438 84.082031 "/>
<path style=" stroke:none;fill-rule:nonzero;fill:rgb(0%,0%,0%);fill-opacity:1;" d="M 38.023438 76.816406 C 37.390625 76.816406 36.910156 77.128906 36.589844 77.753906 C 36.273438 78.378906 36.113281 79.316406 36.113281 80.570312 C 36.113281 81.820312 36.273438 82.757812 36.589844 83.382812 C 36.910156 84.007812 37.390625 84.320312 38.023438 84.320312 C 38.664062 84.320312 39.140625 84.007812 39.460938 83.382812 C 39.78125 82.757812 39.941406 81.820312 39.941406 80.570312 C 39.941406 79.316406 39.78125 78.378906 39.460938 77.753906 C 39.140625 77.128906 38.664062 76.816406 38.023438 76.816406 Z M 38.023438 75.839844 C 39.046875 75.839844 39.824219 76.246094 40.363281 77.054688 C 40.902344 77.863281 41.171875 79.035156 41.171875 80.570312 C 41.171875 82.105469 40.902344 83.277344 40.363281 84.085938 C 39.824219 84.894531 39.046875 85.296875 38.023438 85.296875 C 37.003906 85.296875 36.222656 84.894531 35.683594 84.085938 C 35.144531 83.277344 34.875 82.105469 34.875 80.570312 C 34.875 79.035156 35.144531 77.863281 35.683594 77.054688 C 36.222656 76.246094 37.003906 75.839844 38.023438 75.839844 Z M 38.023438 75.839844 "/>
<path style=" stroke:none;fill-rule:nonzero;fill:rgb(0%,0%,0%);fill-opacity:1;" d="M 43.800781 79.609375 L 46.8125 79.609375 L 46.8125 80.332031 L 42.765625 80.332031 L 42.765625 79.609375 C 43.089844 79.269531 43.539062 78.8125 44.101562 78.242188 C 44.667969 77.671875 45.023438 77.304688 45.167969 77.136719 C 45.445312 76.828125 45.636719 76.566406 45.746094 76.351562 C 45.859375 76.136719 45.914062 75.921875 45.914062 75.714844 C 45.914062 75.375 45.792969 75.101562 45.554688 74.886719 C 45.316406 74.671875 45.007812 74.566406 44.625 74.566406 C 44.355469 74.566406 44.070312 74.613281 43.769531 74.707031 C 43.46875 74.800781 43.148438 74.941406 42.804688 75.132812 L 42.804688 74.261719 C 43.152344 74.121094 43.476562 74.015625 43.78125 73.945312 C 44.082031 73.875 44.359375 73.839844 44.609375 73.839844 C 45.269531 73.839844 45.796875 74.003906 46.191406 74.335938 C 46.582031 74.664062 46.78125 75.105469 46.78125 75.660156 C 46.78125 75.921875 46.730469 76.171875 46.632812 76.40625 C 46.535156 76.640625 46.355469 76.917969 46.097656 77.234375 C 46.023438 77.320312 45.796875 77.558594 45.417969 77.953125 C 45.035156 78.347656 44.496094 78.898438 43.800781 79.609375 Z M 43.800781 79.609375 "/>
<g clip-path="url(#clip9)" clip-rule="nonzero">
<path style="fill:none;stroke-width:0.8;stroke-linecap:square;stroke-linejoin:round;stroke:rgb(69.019608%,69.019608%,69.019608%);stroke-opacity:1;stroke-miterlimit:4;" d="M 45.478125 26.809375 L 240.778125 26.809375 " transform="matrix(1.25,0,0,1.25,0,0)"/>
</g>
<path style="fill:none;stroke-width:0.8;stroke-linecap:butt;stroke-linejoin:round;stroke:rgb(0%,0%,0%);stroke-opacity:1;stroke-miterlimit:4;" d="M 0 0.000529 L -3.5 0.000529 " transform="matrix(1.25,0,0,1.25,56.847656,33.511057)"/>
<path style=" stroke:none;fill-rule:nonzero;fill:rgb(0%,0%,0%);fill-opacity:1;" d="M 27.648438 37.128906 L 29.664062 37.128906 L 29.664062 30.175781 L 27.46875 30.613281 L 27.46875 29.492188 L 29.648438 29.050781 L 30.882812 29.050781 L 30.882812 37.128906 L 32.898438 37.128906 L 32.898438 38.164062 L 27.648438 38.164062 Z M 27.648438 37.128906 "/>
<path style=" stroke:none;fill-rule:nonzero;fill:rgb(0%,0%,0%);fill-opacity:1;" d="M 38.023438 29.863281 C 37.390625 29.863281 36.910156 30.175781 36.589844 30.800781 C 36.273438 31.425781 36.113281 32.363281 36.113281 33.617188 C 36.113281 34.867188 36.273438 35.804688 36.589844 36.429688 C 36.910156 37.054688 37.390625 37.367188 38.023438 37.367188 C 38.664062 37.367188 39.140625 37.054688 39.460938 36.429688 C 39.78125 35.804688 39.941406 34.867188 39.941406 33.617188 C 39.941406 32.363281 39.78125 31.425781 39.460938 30.800781 C 39.140625 30.175781 38.664062 29.863281 38.023438 29.863281 Z M 38.023438 28.886719 C 39.046875 28.886719 39.824219 29.292969 40.363281 30.101562 C 40.902344 30.90625 41.171875 32.078125 41.171875 33.617188 C 41.171875 35.152344 40.902344 36.324219 40.363281 37.132812 C 39.824219 37.9375 39.046875 38.34375 38.023438 38.34375 C 37.003906 38.34375 36.222656 37.9375 35.683594 37.132812 C 35.144531 36.324219 34.875 35.152344 34.875 33.617188 C 34.875 32.078125 35.144531 30.90625 35.683594 30.101562 C 36.222656 29.292969 37.003906 28.886719 38.023438 28.886719 Z M 38.023438 28.886719 "/>
<path style=" stroke:none;fill-rule:nonzero;fill:rgb(0%,0%,0%);fill-opacity:1;" d="M 45.671875 29.9375 C 46.085938 30.027344 46.410156 30.210938 46.640625 30.492188 C 46.871094 30.769531 46.988281 31.113281 46.988281 31.523438 C 46.988281 32.152344 46.773438 32.640625 46.339844 32.988281 C 45.90625 33.332031 45.292969 33.503906 44.492188 33.503906 C 44.226562 33.503906 43.953125 33.476562 43.667969 33.425781 C 43.382812 33.371094 43.09375 33.292969 42.789062 33.1875 L 42.789062 32.355469 C 43.027344 32.492188 43.289062 32.597656 43.574219 32.667969 C 43.859375 32.742188 44.160156 32.777344 44.46875 32.777344 C 45.007812 32.777344 45.421875 32.667969 45.703125 32.457031 C 45.988281 32.242188 46.128906 31.933594 46.128906 31.523438 C 46.128906 31.148438 46 30.855469 45.734375 30.644531 C 45.472656 30.429688 45.105469 30.324219 44.636719 30.324219 L 43.890625 30.324219 L 43.890625 29.617188 L 44.671875 29.617188 C 45.09375 29.617188 45.417969 29.53125 45.644531 29.359375 C 45.867188 29.191406 45.980469 28.945312 45.980469 28.628906 C 45.980469 28.300781 45.863281 28.050781 45.632812 27.875 C 45.402344 27.699219 45.070312 27.609375 44.636719 27.609375 C 44.398438 27.609375 44.144531 27.636719 43.875 27.6875 C 43.605469 27.738281 43.304688 27.820312 42.980469 27.925781 L 42.980469 27.160156 C 43.308594 27.066406 43.617188 27 43.902344 26.953125 C 44.1875 26.90625 44.460938 26.886719 44.710938 26.886719 C 45.367188 26.886719 45.886719 27.035156 46.265625 27.332031 C 46.648438 27.628906 46.839844 28.03125 46.839844 28.539062 C 46.839844 28.890625 46.738281 29.191406 46.535156 29.433594 C 46.335938 29.675781 46.046875 29.84375 45.671875 29.9375 Z M 45.671875 29.9375 "/>
<path style="fill:none;stroke-width:0.6;stroke-linecap:butt;stroke-linejoin:round;stroke:rgb(0%,0%,0%);stroke-opacity:1;stroke-miterlimit:4;" d="M 0 0.000056 L -2 0.000056 " transform="matrix(1.25,0,0,1.25,56.847656,181.648368)"/>
<path style="fill:none;stroke-width:0.6;stroke-linecap:butt;stroke-linejoin:round;stroke:rgb(0%,0%,0%);stroke-opacity:1;stroke-miterlimit:4;" d="M 0 0.000325 L -2 0.000325 " transform="matrix(1.25,0,0,1.25,56.847656,178.925375)"/>
<path style="fill:none;stroke-width:0.6;stroke-linecap:butt;stroke-linejoin:round;stroke:rgb(0%,0%,0%);stroke-opacity:1;stroke-miterlimit:4;" d="M 0 -0.000071 L -2 -0.000071 " transform="matrix(1.25,0,0,1.25,56.847656,176.523526)"/>
<path style="fill:none;stroke-width:0.6;stroke-linecap:butt;stroke-linejoin:round;stroke:rgb(0%,0%,0%);stroke-opacity:1;stroke-miterlimit:4;" d="M 0 0.001556 L -2 0.001556 " transform="matrix(1.25,0,0,1.25,56.847656,160.240242)"/>
<path style="fill:none;stroke-width:0.6;stroke-linecap:butt;stroke-linejoin:round;stroke:rgb(0%,0%,0%);stroke-opacity:1;stroke-miterlimit:4;" d="M 0 0.000573 L -2 0.000573 " transform="matrix(1.25,0,0,1.25,56.847656,151.97194)"/>
<path style="fill:none;stroke-width:0.6;stroke-linecap:butt;stroke-linejoin:round;stroke:rgb(0%,0%,0%);stroke-opacity:1;stroke-miterlimit:4;" d="M 0 -0.000013 L -2 -0.000013 " transform="matrix(1.25,0,0,1.25,56.847656,146.105485)"/>
<path style="fill:none;stroke-width:0.6;stroke-linecap:butt;stroke-linejoin:round;stroke:rgb(0%,0%,0%);stroke-opacity:1;stroke-miterlimit:4;" d="M 0 -0.000338 L -2 -0.000338 " transform="matrix(1.25,0,0,1.25,56.847656,141.55511)"/>
<path style="fill:none;stroke-width:0.6;stroke-linecap:butt;stroke-linejoin:round;stroke:rgb(0%,0%,0%);stroke-opacity:1;stroke-miterlimit:4;" d="M 0 -0.000996 L -2 -0.000996 " transform="matrix(1.25,0,0,1.25,56.847656,137.837182)"/>
<path style="fill:none;stroke-width:0.6;stroke-linecap:butt;stroke-linejoin:round;stroke:rgb(0%,0%,0%);stroke-opacity:1;stroke-miterlimit:4;" d="M 0 0.001274 L -2 0.001274 " transform="matrix(1.25,0,0,1.25,56.847656,134.69372)"/>
<path style="fill:none;stroke-width:0.6;stroke-linecap:butt;stroke-linejoin:round;stroke:rgb(0%,0%,0%);stroke-opacity:1;stroke-miterlimit:4;" d="M 0 0.001542 L -2 0.001542 " transform="matrix(1.25,0,0,1.25,56.847656,131.970729)"/>
<path style="fill:none;stroke-width:0.6;stroke-linecap:butt;stroke-linejoin:round;stroke:rgb(0%,0%,0%);stroke-opacity:1;stroke-miterlimit:4;" d="M 0 0.001146 L -2 0.001146 " transform="matrix(1.25,0,0,1.25,56.847656,129.56888)"/>
<path style="fill:none;stroke-width:0.6;stroke-linecap:butt;stroke-linejoin:round;stroke:rgb(0%,0%,0%);stroke-opacity:1;stroke-miterlimit:4;" d="M 0 -0.000351 L -2 -0.000351 " transform="matrix(1.25,0,0,1.25,56.847656,113.285595)"/>
<path style="fill:none;stroke-width:0.6;stroke-linecap:butt;stroke-linejoin:round;stroke:rgb(0%,0%,0%);stroke-opacity:1;stroke-miterlimit:4;" d="M 0 -0.001334 L -2 -0.001334 " transform="matrix(1.25,0,0,1.25,56.847656,105.017292)"/>
<path style="fill:none;stroke-width:0.6;stroke-linecap:butt;stroke-linejoin:round;stroke:rgb(0%,0%,0%);stroke-opacity:1;stroke-miterlimit:4;" d="M 0 0.001205 L -2 0.001205 " transform="matrix(1.25,0,0,1.25,56.847656,99.150838)"/>
<path style="fill:none;stroke-width:0.6;stroke-linecap:butt;stroke-linejoin:round;stroke:rgb(0%,0%,0%);stroke-opacity:1;stroke-miterlimit:4;" d="M 0 0.00088 L -2 0.00088 " transform="matrix(1.25,0,0,1.25,56.847656,94.600462)"/>
<path style="fill:none;stroke-width:0.6;stroke-linecap:butt;stroke-linejoin:round;stroke:rgb(0%,0%,0%);stroke-opacity:1;stroke-miterlimit:4;" d="M 0 0.000222 L -2 0.000222 " transform="matrix(1.25,0,0,1.25,56.847656,90.882535)"/>
<path style="fill:none;stroke-width:0.6;stroke-linecap:butt;stroke-linejoin:round;stroke:rgb(0%,0%,0%);stroke-opacity:1;stroke-miterlimit:4;" d="M 0 -0.000633 L -2 -0.000633 " transform="matrix(1.25,0,0,1.25,56.847656,87.739073)"/>
<path style="fill:none;stroke-width:0.6;stroke-linecap:butt;stroke-linejoin:round;stroke:rgb(0%,0%,0%);stroke-opacity:1;stroke-miterlimit:4;" d="M 0 -0.000365 L -2 -0.000365 " transform="matrix(1.25,0,0,1.25,56.847656,85.016081)"/>
<path style="fill:none;stroke-width:0.6;stroke-linecap:butt;stroke-linejoin:round;stroke:rgb(0%,0%,0%);stroke-opacity:1;stroke-miterlimit:4;" d="M 0 -0.000761 L -2 -0.000761 " transform="matrix(1.25,0,0,1.25,56.847656,82.614232)"/>
<path style="fill:none;stroke-width:0.6;stroke-linecap:butt;stroke-linejoin:round;stroke:rgb(0%,0%,0%);stroke-opacity:1;stroke-miterlimit:4;" d="M 0 0.000867 L -2 0.000867 " transform="matrix(1.25,0,0,1.25,56.847656,66.330947)"/>
<path style="fill:none;stroke-width:0.6;stroke-linecap:butt;stroke-linejoin:round;stroke:rgb(0%,0%,0%);stroke-opacity:1;stroke-miterlimit:4;" d="M 0 -0.000116 L -2 -0.000116 " transform="matrix(1.25,0,0,1.25,56.847656,58.062645)"/>
<path style="fill:none;stroke-width:0.6;stroke-linecap:butt;stroke-linejoin:round;stroke:rgb(0%,0%,0%);stroke-opacity:1;stroke-miterlimit:4;" d="M 0 -0.000703 L -2 -0.000703 " transform="matrix(1.25,0,0,1.25,56.847656,52.196191)"/>
<path style="fill:none;stroke-width:0.6;stroke-linecap:butt;stroke-linejoin:round;stroke:rgb(0%,0%,0%);stroke-opacity:1;stroke-miterlimit:4;" d="M 0 -0.001027 L -2 -0.001027 " transform="matrix(1.25,0,0,1.25,56.847656,47.645815)"/>
<path style="fill:none;stroke-width:0.6;stroke-linecap:butt;stroke-linejoin:round;stroke:rgb(0%,0%,0%);stroke-opacity:1;stroke-miterlimit:4;" d="M 0 0.00144 L -2 0.00144 " transform="matrix(1.25,0,0,1.25,56.847656,43.927888)"/>
<path style="fill:none;stroke-width:0.6;stroke-linecap:butt;stroke-linejoin:round;stroke:rgb(0%,0%,0%);stroke-opacity:1;stroke-miterlimit:4;" d="M 0 0.000585 L -2 0.000585 " transform="matrix(1.25,0,0,1.25,56.847656,40.784425)"/>
<path style="fill:none;stroke-width:0.6;stroke-linecap:butt;stroke-linejoin:round;stroke:rgb(0%,0%,0%);stroke-opacity:1;stroke-miterlimit:4;" d="M 0 0.000853 L -2 0.000853 " transform="matrix(1.25,0,0,1.25,56.847656,38.061434)"/>
<path style="fill:none;stroke-width:0.6;stroke-linecap:butt;stroke-linejoin:round;stroke:rgb(0%,0%,0%);stroke-opacity:1;stroke-miterlimit:4;" d="M 0 0.000457 L -2 0.000457 " transform="matrix(1.25,0,0,1.25,56.847656,35.659585)"/>
<path style="fill:none;stroke-width:0.6;stroke-linecap:butt;stroke-linejoin:round;stroke:rgb(0%,0%,0%);stroke-opacity:1;stroke-miterlimit:4;" d="M 0 -0.001041 L -2 -0.001041 " transform="matrix(1.25,0,0,1.25,56.847656,19.376301)"/>
<path style="fill:none;stroke-width:0.6;stroke-linecap:butt;stroke-linejoin:round;stroke:rgb(0%,0%,0%);stroke-opacity:1;stroke-miterlimit:4;" d="M 0 0.001102 L -2 0.001102 " transform="matrix(1.25,0,0,1.25,56.847656,11.107997)"/>
<path style=" stroke:none;fill-rule:nonzero;fill:rgb(0%,0%,0%);fill-opacity:1;" d="M 9 138.507812 L 9.9375 138.507812 L 9.9375 139.582031 C 9.9375 139.984375 10.015625 140.265625 10.179688 140.421875 C 10.34375 140.578125 10.636719 140.65625 11.058594 140.65625 L 11.664062 140.65625 L 11.664062 138.808594 L 12.535156 138.808594 L 12.535156 140.65625 L 18.5 140.65625 L 18.5 141.785156 L 12.535156 141.785156 L 12.535156 142.859375 L 11.664062 142.859375 L 11.664062 141.785156 L 11.1875 141.785156 C 10.425781 141.785156 9.871094 141.609375 9.523438 141.253906 C 9.175781 140.898438 9 140.339844 9 139.570312 Z M 9 138.507812 "/>
<path style=" stroke:none;fill-rule:nonzero;fill:rgb(0%,0%,0%);fill-opacity:1;" d="M 12.710938 133.605469 C 12.636719 133.734375 12.585938 133.871094 12.550781 134.019531 C 12.515625 134.167969 12.5 134.332031 12.5 134.507812 C 12.5 135.144531 12.703125 135.632812 13.117188 135.972656 C 13.53125 136.3125 14.125 136.480469 14.898438 136.480469 L 18.5 136.480469 L 18.5 137.609375 L 11.664062 137.609375 L 11.664062 136.480469 L 12.726562 136.480469 C 12.308594 136.246094 12 135.9375 11.800781 135.558594 C 11.597656 135.179688 11.5 134.722656 11.5 134.179688 C 11.5 134.101562 11.503906 134.015625 11.515625 133.921875 C 11.523438 133.828125 11.539062 133.726562 11.558594 133.613281 Z M 12.710938 133.605469 "/>
<path style=" stroke:none;fill-rule:nonzero;fill:rgb(0%,0%,0%);fill-opacity:1;" d="M 14.800781 126.863281 L 15.347656 126.863281 L 15.347656 132.027344 C 16.121094 131.976562 16.710938 131.742188 17.117188 131.328125 C 17.519531 130.910156 17.722656 130.328125 17.722656 129.585938 C 17.722656 129.152344 17.671875 128.734375 17.566406 128.332031 C 17.460938 127.925781 17.300781 127.523438 17.089844 127.125 L 18.152344 127.125 C 18.320312 127.527344 18.453125 127.941406 18.542969 128.363281 C 18.632812 128.789062 18.675781 129.214844 18.675781 129.652344 C 18.675781 130.742188 18.359375 131.605469 17.726562 132.242188 C 17.089844 132.878906 16.230469 133.199219 15.148438 133.199219 C 14.027344 133.199219 13.140625 132.894531 12.484375 132.292969 C 11.828125 131.6875 11.5 130.871094 11.5 129.847656 C 11.5 128.925781 11.792969 128.199219 12.386719 127.664062 C 12.976562 127.128906 13.78125 126.863281 14.800781 126.863281 Z M 14.46875 127.984375 C 13.855469 127.992188 13.367188 128.164062 13 128.5 C 12.632812 128.835938 12.449219 129.28125 12.449219 129.835938 C 12.449219 130.460938 12.625 130.960938 12.980469 131.339844 C 13.335938 131.714844 13.832031 131.933594 14.476562 131.988281 Z M 14.46875 127.984375 "/>
<path style=" stroke:none;fill-rule:nonzero;fill:rgb(0%,0%,0%);fill-opacity:1;" d="M 15.085938 124.347656 C 15.910156 124.347656 16.558594 124.179688 17.03125 123.839844 C 17.5 123.5 17.734375 123.03125 17.734375 122.4375 C 17.734375 121.84375 17.5 121.375 17.03125 121.035156 C 16.558594 120.691406 15.910156 120.523438 15.085938 120.523438 C 14.261719 120.523438 13.613281 120.691406 13.144531 121.035156 C 12.671875 121.375 12.4375 121.84375 12.4375 122.4375 C 12.4375 123.03125 12.671875 123.5 13.144531 123.839844 C 13.613281 124.179688 14.261719 124.347656 15.085938 124.347656 Z M 17.472656 120.523438 C 17.878906 120.757812 18.179688 121.054688 18.378906 121.417969 C 18.578125 121.777344 18.675781 122.207031 18.675781 122.714844 C 18.675781 123.539062 18.347656 124.210938 17.6875 124.730469 C 17.027344 125.25 16.160156 125.507812 15.085938 125.507812 C 14.011719 125.507812 13.144531 125.25 12.488281 124.730469 C 11.828125 124.210938 11.5 123.539062 11.5 122.714844 C 11.5 122.207031 11.597656 121.777344 11.796875 121.417969 C 11.992188 121.054688 12.292969 120.757812 12.699219 120.523438 L 11.664062 120.523438 L 11.664062 119.398438 L 21.097656 119.398438 L 21.097656 120.523438 Z M 17.472656 120.523438 "/>
<path style=" stroke:none;fill-rule:nonzero;fill:rgb(0%,0%,0%);fill-opacity:1;" d="M 15.800781 117.199219 L 11.664062 117.199219 L 11.664062 116.078125 L 15.757812 116.078125 C 16.40625 116.078125 16.890625 115.953125 17.214844 115.699219 C 17.539062 115.449219 17.699219 115.070312 17.699219 114.5625 C 17.699219 113.957031 17.507812 113.480469 17.121094 113.128906 C 16.734375 112.773438 16.207031 112.597656 15.539062 112.597656 L 11.664062 112.597656 L 11.664062 111.476562 L 18.5 111.476562 L 18.5 112.597656 L 17.449219 112.597656 C 17.863281 112.871094 18.171875 113.1875 18.375 113.546875 C 18.574219 113.90625 18.675781 114.324219 18.675781 114.800781 C 18.675781 115.585938 18.433594 116.183594 17.945312 116.589844 C 17.457031 116.996094 16.742188 117.199219 15.800781 117.199219 Z M 11.5 114.375 Z M 11.5 114.375 "/>
<path style=" stroke:none;fill-rule:nonzero;fill:rgb(0%,0%,0%);fill-opacity:1;" d="M 14.800781 103.316406 L 15.347656 103.316406 L 15.347656 108.480469 C 16.121094 108.429688 16.710938 108.195312 17.117188 107.78125 C 17.519531 107.363281 17.722656 106.78125 17.722656 106.039062 C 17.722656 105.605469 17.671875 105.1875 17.566406 104.785156 C 17.460938 104.378906 17.300781 103.976562 17.089844 103.578125 L 18.152344 103.578125 C 18.320312 103.980469 18.453125 104.394531 18.542969 104.816406 C 18.632812 105.242188 18.675781 105.667969 18.675781 106.105469 C 18.675781 107.195312 18.359375 108.058594 17.726562 108.695312 C 17.089844 109.332031 16.230469 109.652344 15.148438 109.652344 C 14.027344 109.652344 13.140625 109.347656 12.484375 108.746094 C 11.828125 108.140625 11.5 107.324219 11.5 106.300781 C 11.5 105.378906 11.792969 104.652344 12.386719 104.117188 C 12.976562 103.582031 13.78125 103.316406 14.800781 103.316406 Z M 14.46875 104.4375 C 13.855469 104.445312 13.367188 104.617188 13 104.953125 C 12.632812 105.289062 12.449219 105.734375 12.449219 106.289062 C 12.449219 106.914062 12.625 107.414062 12.980469 107.792969 C 13.335938 108.167969 13.832031 108.386719 14.476562 108.441406 Z M 14.46875 104.4375 "/>
<path style=" stroke:none;fill-rule:nonzero;fill:rgb(0%,0%,0%);fill-opacity:1;" d="M 14.371094 95.789062 L 18.5 95.789062 L 18.5 96.910156 L 14.410156 96.910156 C 13.761719 96.910156 13.277344 97.039062 12.957031 97.289062 C 12.636719 97.542969 12.476562 97.921875 12.476562 98.425781 C 12.476562 99.03125 12.667969 99.511719 13.054688 99.859375 C 13.441406 100.210938 13.96875 100.386719 14.636719 100.386719 L 18.5 100.386719 L 18.5 101.515625 L 11.664062 101.515625 L 11.664062 100.386719 L 12.726562 100.386719 C 12.3125 100.117188 12.007812 99.800781 11.804688 99.4375 C 11.601562 99.074219 11.5 98.652344 11.5 98.175781 C 11.5 97.390625 11.742188 96.796875 12.226562 96.394531 C 12.710938 95.992188 13.425781 95.789062 14.371094 95.789062 Z M 14.371094 95.789062 "/>
<path style=" stroke:none;fill-rule:nonzero;fill:rgb(0%,0%,0%);fill-opacity:1;" d="M 11.925781 88.628906 L 12.976562 88.628906 C 12.800781 88.949219 12.667969 89.265625 12.582031 89.585938 C 12.492188 89.902344 12.449219 90.226562 12.449219 90.550781 C 12.449219 91.28125 12.679688 91.847656 13.144531 92.25 C 13.605469 92.652344 14.25 92.855469 15.085938 92.855469 C 15.921875 92.855469 16.570312 92.652344 17.03125 92.25 C 17.492188 91.847656 17.722656 91.28125 17.722656 90.550781 C 17.722656 90.226562 17.679688 89.902344 17.59375 89.585938 C 17.503906 89.265625 17.375 88.949219 17.199219 88.628906 L 18.238281 88.628906 C 18.382812 88.945312 18.492188 89.269531 18.566406 89.605469 C 18.640625 89.9375 18.675781 90.296875 18.675781 90.675781 C 18.675781 91.703125 18.351562 92.523438 17.707031 93.128906 C 17.058594 93.734375 16.183594 94.039062 15.085938 94.039062 C 13.972656 94.039062 13.09375 93.730469 12.457031 93.121094 C 11.816406 92.507812 11.5 91.667969 11.5 90.601562 C 11.5 90.253906 11.535156 89.917969 11.605469 89.589844 C 11.675781 89.257812 11.78125 88.941406 11.925781 88.628906 Z M 11.925781 88.628906 "/>
<path style=" stroke:none;fill-rule:nonzero;fill:rgb(0%,0%,0%);fill-opacity:1;" d="M 19.132812 83.832031 C 19.945312 84.148438 20.476562 84.460938 20.726562 84.761719 C 20.972656 85.0625 21.097656 85.464844 21.097656 85.96875 L 21.097656 86.867188 L 20.160156 86.867188 L 20.160156 86.207031 C 20.160156 85.898438 20.085938 85.660156 19.9375 85.488281 C 19.792969 85.316406 19.445312 85.125 18.902344 84.917969 L 18.390625 84.71875 L 11.664062 87.480469 L 11.664062 86.292969 L 17.007812 84.15625 L 11.664062 82.019531 L 11.664062 80.828125 Z M 19.132812 83.832031 "/>
<path style=" stroke:none;fill-rule:nonzero;fill:rgb(0%,0%,0%);fill-opacity:1;" d="M 16.949219 79.898438 L 16.949219 78.613281 L 18.5 78.613281 L 18.5 79.898438 Z M 12.035156 79.898438 L 12.035156 78.613281 L 13.585938 78.613281 L 13.585938 79.898438 Z M 12.035156 79.898438 "/>
<path style=" stroke:none;fill-rule:nonzero;fill:rgb(0%,0%,0%);fill-opacity:1;" d="M 14.371094 66.316406 L 18.5 66.316406 L 18.5 67.441406 L 14.410156 67.441406 C 13.761719 67.441406 13.277344 67.566406 12.957031 67.820312 C 12.636719 68.074219 12.476562 68.449219 12.476562 68.953125 C 12.476562 69.5625 12.667969 70.039062 13.054688 70.390625 C 13.441406 70.742188 13.96875 70.914062 14.636719 70.914062 L 18.5 70.914062 L 18.5 72.042969 L 11.664062 72.042969 L 11.664062 70.914062 L 12.726562 70.914062 C 12.3125 70.644531 12.007812 70.328125 11.804688 69.964844 C 11.601562 69.601562 11.5 69.179688 11.5 68.703125 C 11.5 67.917969 11.742188 67.324219 12.226562 66.921875 C 12.710938 66.519531 13.425781 66.316406 14.371094 66.316406 Z M 14.371094 66.316406 "/>
<path style=" stroke:none;fill-rule:nonzero;fill:rgb(0%,0%,0%);fill-opacity:1;" d="M 9.015625 61.382812 C 9.949219 61.925781 10.875 62.332031 11.792969 62.597656 C 12.707031 62.859375 13.632812 62.992188 14.574219 62.992188 C 15.511719 62.992188 16.445312 62.859375 17.367188 62.59375 C 18.289062 62.324219 19.214844 61.921875 20.148438 61.382812 L 20.148438 62.359375 C 19.191406 62.96875 18.25 63.425781 17.328125 63.726562 C 16.402344 64.03125 15.484375 64.183594 14.574219 64.183594 C 13.667969 64.183594 12.753906 64.03125 11.835938 63.730469 C 10.914062 63.429688 9.972656 62.972656 9.015625 62.359375 Z M 9.015625 61.382812 "/>
<path style=" stroke:none;fill-rule:nonzero;fill:rgb(0%,0%,0%);fill-opacity:1;" d="M 11.664062 53.519531 L 14.988281 55.992188 L 18.5 53.390625 L 18.5 54.714844 L 15.8125 56.707031 L 18.5 58.695312 L 18.5 60.019531 L 14.921875 57.363281 L 11.664062 59.792969 L 11.664062 58.46875 L 14.097656 56.65625 L 11.664062 54.84375 Z M 11.664062 53.519531 "/>
<path style=" stroke:none;fill-rule:nonzero;fill:rgb(0%,0%,0%);fill-opacity:1;" d="M 9.015625 51.980469 L 9.015625 51.003906 C 9.972656 50.394531 10.914062 49.9375 11.835938 49.636719 C 12.753906 49.332031 13.667969 49.179688 14.574219 49.179688 C 15.484375 49.179688 16.402344 49.332031 17.328125 49.636719 C 18.25 49.9375 19.191406 50.394531 20.148438 51.003906 L 20.148438 51.980469 C 19.214844 51.441406 18.289062 51.035156 17.367188 50.769531 C 16.445312 50.503906 15.511719 50.371094 14.574219 50.371094 C 13.632812 50.371094 12.707031 50.503906 11.792969 50.769531 C 10.875 51.035156 9.949219 51.441406 9.015625 51.980469 Z M 9.015625 51.980469 "/>
<g clip-path="url(#clip10)" clip-rule="nonzero">
<path style="fill:none;stroke-width:1.5;stroke-linecap:square;stroke-linejoin:round;stroke:rgb(12.156863%,46.666667%,70.588235%);stroke-opacity:1;stroke-miterlimit:4;" d="M -1 22.934375 L 54.35625 22.946875 L 66.296875 23.234375 L 73.284375 24.459375 L 78.240625 30.125 L 82.084375 32.74375 L 85.225 36.503125 L 87.88125 36.83125 L 90.18125 40.090625 L 94.028125 40.3125 L 95.66875 43.75 L 97.16875 47.51875 L 98.546875 48.16875 L 101.0125 51.434375 L 102.125 51.809375 L 103.16875 52.740625 L 104.153125 53.065625 L 105.084375 56.909375 L 105.96875 57.540625 L 106.809375 59.2375 L 107.6125 59.2375 L 108.378125 59.596875 L 109.109375 60.21875 L 109.8125 60.471875 L 110.490625 60.996875 L 111.140625 61.128125 L 112.371875 61.128125 L 113.51875 61.671875 L 114.065625 62.234375 L 114.596875 62.234375 L 115.1125 62.378125 L 115.609375 62.378125 L 116.096875 62.525 L 116.56875 63.421875 L 117.028125 63.578125 L 117.475 63.890625 L 117.9125 65.38125 L 118.753125 65.734375 L 119.15625 65.734375 L 119.553125 65.9125 L 119.940625 66.275 L 121.409375 67.025 L 122.096875 67.025 L 122.43125 67.215625 L 122.759375 67.215625 L 123.08125 67.609375 L 123.709375 68.6375 L 124.0125 69.065625 L 124.3125 69.284375 L 124.896875 69.284375 L 126.009375 70.190625 L 126.540625 70.190625 L 126.8 70.425 L 127.553125 72.4375 L 128.0375 72.98125 L 128.275 72.98125 L 128.509375 73.54375 L 128.96875 73.54375 L 129.41875 74.425 L 129.6375 74.425 L 130.896875 76.009375 L 131.690625 76.009375 L 131.884375 76.346875 L 132.071875 76.346875 L 132.2625 76.690625 L 132.446875 76.690625 L 132.63125 77.040625 L 133.175 77.040625 L 133.35 77.4 L 133.525 77.4 L 133.86875 78.140625 L 134.20625 78.140625 L 134.375 78.525 L 134.5375 78.525 L 134.8625 79.321875 L 135.340625 79.321875 L 135.65 80.15625 L 135.803125 80.15625 L 135.95625 80.59375 L 136.55 80.59375 L 136.696875 81.040625 L 137.403125 81.040625 L 137.54375 81.5 L 138.084375 81.5 L 138.21875 81.971875 L 138.86875 81.971875 L 138.996875 82.459375 L 139.246875 82.459375 L 139.371875 82.9625 L 139.859375 82.9625 L 139.98125 83.478125 L 140.21875 83.478125 L 140.3375 84.0125 L 140.56875 84.0125 L 140.684375 84.565625 L 140.8 84.565625 L 141.025 85.140625 L 141.46875 85.140625 L 141.6875 85.73125 L 142.009375 85.73125 L 142.221875 86.346875 L 142.7375 86.346875 L 142.940625 86.9875 L 143.140625 86.9875 L 143.340625 87.653125 L 143.634375 87.653125 L 143.825 88.35 L 144.203125 88.35 L 144.390625 89.075 L 145.203125 89.075 L 145.38125 89.83125 L 145.98125 89.83125 L 146.15 90.628125 L 147.046875 90.628125 L 147.203125 91.465625 L 147.896875 91.465625 L 148.05 92.346875 L 148.271875 92.346875 L 148.41875 93.28125 L 148.925 93.28125 L 149.065625 94.26875 L 150.159375 94.26875 L 150.29375 95.321875 L 150.9375 95.321875 L 151.065625 96.446875 L 151.803125 96.446875 L 151.921875 97.65625 L 153.246875 97.65625 L 153.4125 98.9625 L 154.1625 98.9625 L 154.321875 100.38125 L 155.76875 100.38125 L 155.909375 101.9375 L 157.496875 101.9375 L 157.625 103.65625 L 159.10625 103.65625 L 159.225 105.578125 L 161.428125 105.578125 L 161.565625 107.75625 L 164.103125 107.75625 L 164.221875 110.26875 L 166.675 110.26875 L 166.8 113.24375 L 170.0125 113.24375 L 170.1375 116.884375 L 174.078125 116.884375 L 174.19375 121.578125 L 179.3875 121.578125 L 179.509375 128.19375 L 186.80625 128.19375 L 186.921875 139.5 L 199.58125 139.5 " transform="matrix(1.25,0,0,1.25,0,0)"/>
</g>
<g clip-path="url(#clip11)" clip-rule="nonzero">
<path style="fill:none;stroke-width:1.5;stroke-linecap:butt;stroke-linejoin:round;stroke:rgb(74.901961%,0%,74.901961%);stroke-opacity:1;stroke-dasharray:5.55,2.4;stroke-miterlimit:4;" d="M -1 55.8 L 54.35625 55.8125 L 73.284375 62.525 L 78.240625 62.965625 L 82.084375 64.05 L 85.225 64.5375 L 87.88125 67.025 L 90.18125 68.425 L 92.2125 69.50625 L 94.028125 70.665625 L 95.66875 70.90625 L 97.16875 72.171875 L 98.546875 72.4375 L 99.825 72.4375 L 101.0125 72.70625 L 102.125 75.35625 L 103.16875 75.35625 L 104.153125 76.009375 L 105.084375 76.009375 L 105.96875 76.690625 L 106.809375 76.690625 L 108.378125 77.4 L 109.8125 77.4 L 110.490625 77.765625 L 111.140625 77.765625 L 111.765625 78.91875 L 112.371875 79.321875 L 112.95625 79.321875 L 113.51875 79.734375 L 115.1125 79.734375 L 115.609375 80.59375 L 116.096875 81.040625 L 117.028125 81.040625 L 117.475 81.971875 L 118.3375 81.971875 L 118.753125 82.9625 L 119.15625 82.9625 L 119.940625 84.0125 L 121.053125 84.0125 L 121.75625 85.140625 L 122.43125 85.140625 L 122.759375 85.73125 L 123.709375 85.73125 L 124.0125 86.346875 L 124.60625 86.346875 L 124.896875 86.9875 L 125.4625 86.9875 L 125.7375 87.653125 L 126.540625 87.653125 L 126.8 88.35 L 127.553125 88.35 L 127.796875 89.075 L 129.6375 89.075 L 129.853125 89.83125 L 130.896875 89.83125 L 131.1 90.628125 L 131.496875 90.628125 L 131.690625 91.465625 L 133.175 91.465625 L 133.35 92.346875 L 134.5375 92.346875 L 134.703125 93.28125 L 135.184375 93.28125 L 135.340625 94.26875 L 137.54375 94.26875 L 137.68125 95.321875 L 139.98125 95.321875 L 140.1 96.446875 L 141.796875 96.446875 L 142.009375 97.65625 L 143.534375 97.65625 L 143.728125 98.9625 L 145.29375 98.9625 L 145.46875 100.38125 L 147.4375 100.38125 L 147.59375 101.9375 L 150.490625 101.9375 L 150.61875 103.65625 L 152.853125 103.65625 L 152.96875 105.578125 L 156.1 105.578125 L 156.240625 107.75625 L 159.459375 107.75625 L 159.575 110.26875 L 163.225 110.26875 L 163.35 113.24375 L 167.828125 113.24375 L 167.946875 116.884375 L 174.128125 116.884375 L 174.24375 121.578125 L 182.20625 121.578125 L 182.31875 128.19375 L 195.478125 128.19375 L 195.590625 139.5 L 225.184375 139.5 " transform="matrix(1.25,0,0,1.25,0,0)"/>
</g>
<g clip-path="url(#clip12)" clip-rule="nonzero">
<path style="fill:none;stroke-width:1.5;stroke-linecap:butt;stroke-linejoin:round;stroke:rgb(0%,50.196078%,0%);stroke-opacity:1;stroke-dasharray:9.6,2.4,1.5,2.4;stroke-miterlimit:4;" d="M -1 84 L 54.35625 84.0125 L 66.296875 87.653125 L 73.284375 94.26875 L 78.240625 95.321875 L 82.084375 95.321875 L 85.225 96.446875 L 87.88125 96.446875 L 90.18125 97.65625 L 92.2125 97.65625 L 94.028125 98.9625 L 98.546875 98.9625 L 99.825 100.38125 L 105.96875 100.38125 L 106.809375 101.9375 L 109.8125 101.9375 L 110.490625 103.65625 L 114.065625 103.65625 L 114.596875 105.578125 L 121.053125 105.578125 L 121.409375 107.75625 L 126.275 107.75625 L 126.540625 110.26875 L 132.63125 110.26875 L 132.815625 113.24375 L 140.56875 113.24375 L 140.684375 116.884375 L 148.271875 116.884375 L 148.41875 121.578125 L 160.653125 121.578125 L 160.796875 128.19375 L 181.7875 128.19375 L 181.903125 139.5 L 231.9 139.5 " transform="matrix(1.25,0,0,1.25,0,0)"/>
</g>
<path style="fill:none;stroke-width:0.8;stroke-linecap:square;stroke-linejoin:miter;stroke:rgb(0%,0%,0%);stroke-opacity:1;stroke-miterlimit:4;" d="M 45.478125 145.8 L 45.478125 7.2 " transform="matrix(1.25,0,0,1.25,0,0)"/>
<path style="fill:none;stroke-width:0.8;stroke-linecap:square;stroke-linejoin:miter;stroke:rgb(0%,0%,0%);stroke-opacity:1;stroke-miterlimit:4;" d="M 240.778125 145.8 L 240.778125 7.2 " transform="matrix(1.25,0,0,1.25,0,0)"/>
<path style="fill:none;stroke-width:0.8;stroke-linecap:square;stroke-linejoin:miter;stroke:rgb(0%,0%,0%);stroke-opacity:1;stroke-miterlimit:4;" d="M 45.478125 145.8 L 240.778125 145.8 " transform="matrix(1.25,0,0,1.25,0,0)"/>
<path style="fill:none;stroke-width:0.8;stroke-linecap:square;stroke-linejoin:miter;stroke:rgb(0%,0%,0%);stroke-opacity:1;stroke-miterlimit:4;" d="M 45.478125 7.2 L 240.778125 7.2 " transform="matrix(1.25,0,0,1.25,0,0)"/>
<use xlink:href="#surface5" mask="url(#mask0)"/>
<path style="fill:none;stroke-width:1.5;stroke-linecap:square;stroke-linejoin:round;stroke:rgb(12.156863%,46.666667%,70.588235%);stroke-opacity:1;stroke-miterlimit:4;" d="M 161.996875 20.3 L 181.996875 20.3 " transform="matrix(1.25,0,0,1.25,0,0)"/>
<path style=" stroke:none;fill-rule:nonzero;fill:rgb(0%,0%,0%);fill-opacity:1;" d="M 238.558594 27.050781 L 238.558594 22.914062 L 239.679688 22.914062 L 239.679688 27.007812 C 239.679688 27.65625 239.808594 28.140625 240.058594 28.464844 C 240.3125 28.789062 240.691406 28.949219 241.195312 28.949219 C 241.800781 28.949219 242.28125 28.757812 242.632812 28.371094 C 242.984375 27.984375 243.160156 27.457031 243.160156 26.789062 L 243.160156 22.914062 L 244.28125 22.914062 L 244.28125 29.75 L 243.160156 29.75 L 243.160156 28.699219 C 242.886719 29.113281 242.570312 29.421875 242.210938 29.625 C 241.851562 29.824219 241.433594 29.925781 240.957031 29.925781 C 240.171875 29.925781 239.574219 29.683594 239.167969 29.195312 C 238.761719 28.707031 238.558594 27.992188 238.558594 27.050781 Z M 241.382812 22.75 Z M 241.382812 22.75 "/>
<path style=" stroke:none;fill-rule:nonzero;fill:rgb(0%,0%,0%);fill-opacity:1;" d="M 252.28125 25.621094 L 252.28125 29.75 L 251.15625 29.75 L 251.15625 25.660156 C 251.15625 25.011719 251.03125 24.527344 250.777344 24.207031 C 250.523438 23.886719 250.148438 23.726562 249.644531 23.726562 C 249.035156 23.726562 248.558594 23.917969 248.207031 24.304688 C 247.855469 24.691406 247.683594 25.21875 247.683594 25.886719 L 247.683594 29.75 L 246.554688 29.75 L 246.554688 22.914062 L 247.683594 22.914062 L 247.683594 23.976562 C 247.953125 23.5625 248.269531 23.257812 248.632812 23.054688 C 248.996094 22.851562 249.417969 22.75 249.894531 22.75 C 250.679688 22.75 251.273438 22.992188 251.675781 23.476562 C 252.078125 23.960938 252.28125 24.675781 252.28125 25.621094 Z M 252.28125 25.621094 "/>
<path style=" stroke:none;fill-rule:nonzero;fill:rgb(0%,0%,0%);fill-opacity:1;" d="M 254.519531 22.914062 L 255.640625 22.914062 L 255.640625 29.75 L 254.519531 29.75 Z M 254.519531 20.25 L 255.640625 20.25 L 255.640625 21.675781 L 254.519531 21.675781 Z M 254.519531 20.25 "/>
<path style=" stroke:none;fill-rule:nonzero;fill:rgb(0%,0%,0%);fill-opacity:1;" d="M 262.488281 26.25 C 262.488281 25.4375 262.320312 24.804688 261.984375 24.359375 C 261.652344 23.910156 261.179688 23.6875 260.574219 23.6875 C 259.972656 23.6875 259.503906 23.910156 259.167969 24.359375 C 258.832031 24.804688 258.664062 25.4375 258.664062 26.25 C 258.664062 27.058594 258.832031 27.6875 259.167969 28.136719 C 259.503906 28.585938 259.972656 28.808594 260.574219 28.808594 C 261.179688 28.808594 261.652344 28.585938 261.984375 28.136719 C 262.320312 27.6875 262.488281 27.058594 262.488281 26.25 Z M 263.613281 28.902344 C 263.613281 30.0625 263.355469 30.929688 262.835938 31.496094 C 262.320312 32.0625 261.53125 32.347656 260.464844 32.347656 C 260.070312 32.347656 259.695312 32.320312 259.347656 32.261719 C 258.996094 32.203125 258.65625 32.109375 258.328125 31.988281 L 258.328125 30.898438 C 258.65625 31.074219 258.980469 31.207031 259.304688 31.292969 C 259.625 31.378906 259.953125 31.421875 260.285156 31.421875 C 261.023438 31.421875 261.574219 31.226562 261.941406 30.84375 C 262.304688 30.460938 262.488281 29.878906 262.488281 29.101562 L 262.488281 28.546875 C 262.257812 28.949219 261.960938 29.25 261.597656 29.449219 C 261.238281 29.648438 260.804688 29.75 260.296875 29.75 C 259.460938 29.75 258.785156 29.429688 258.273438 28.792969 C 257.757812 28.152344 257.503906 27.304688 257.503906 26.25 C 257.503906 25.191406 257.757812 24.34375 258.273438 23.707031 C 258.785156 23.066406 259.460938 22.75 260.296875 22.75 C 260.804688 22.75 261.238281 22.847656 261.597656 23.046875 C 261.960938 23.246094 262.257812 23.546875 262.488281 23.949219 L 262.488281 22.914062 L 263.613281 22.914062 Z M 263.613281 28.902344 "/>
<path style=" stroke:none;fill-rule:nonzero;fill:rgb(0%,0%,0%);fill-opacity:1;" d="M 269.886719 23.960938 C 269.761719 23.886719 269.625 23.835938 269.476562 23.800781 C 269.328125 23.765625 269.164062 23.75 268.984375 23.75 C 268.347656 23.75 267.863281 23.953125 267.523438 24.367188 C 267.183594 24.78125 267.011719 25.375 267.011719 26.148438 L 267.011719 29.75 L 265.882812 29.75 L 265.882812 22.914062 L 267.011719 22.914062 L 267.011719 23.976562 C 267.25 23.558594 267.554688 23.25 267.933594 23.050781 C 268.3125 22.847656 268.773438 22.75 269.316406 22.75 C 269.390625 22.75 269.476562 22.753906 269.570312 22.765625 C 269.664062 22.773438 269.769531 22.789062 269.882812 22.808594 Z M 269.886719 23.960938 "/>
<path style=" stroke:none;fill-rule:nonzero;fill:rgb(0%,0%,0%);fill-opacity:1;" d="M 274.171875 26.3125 C 273.265625 26.3125 272.636719 26.417969 272.285156 26.625 C 271.9375 26.832031 271.761719 27.183594 271.761719 27.6875 C 271.761719 28.085938 271.890625 28.402344 272.15625 28.636719 C 272.417969 28.867188 272.773438 28.984375 273.226562 28.984375 C 273.847656 28.984375 274.347656 28.765625 274.726562 28.324219 C 275.101562 27.882812 275.289062 27.292969 275.289062 26.5625 L 275.289062 26.3125 Z M 276.414062 25.847656 L 276.414062 29.75 L 275.289062 29.75 L 275.289062 28.710938 C 275.035156 29.125 274.714844 29.429688 274.332031 29.628906 C 273.949219 29.828125 273.480469 29.925781 272.925781 29.925781 C 272.226562 29.925781 271.671875 29.730469 271.257812 29.335938 C 270.84375 28.941406 270.636719 28.417969 270.636719 27.757812 C 270.636719 26.988281 270.894531 26.410156 271.410156 26.019531 C 271.925781 25.628906 272.691406 25.433594 273.714844 25.433594 L 275.289062 25.433594 L 275.289062 25.324219 C 275.289062 24.804688 275.121094 24.40625 274.78125 24.125 C 274.441406 23.839844 273.964844 23.699219 273.347656 23.699219 C 272.957031 23.699219 272.578125 23.746094 272.207031 23.839844 C 271.835938 23.933594 271.480469 24.074219 271.140625 24.261719 L 271.140625 23.222656 C 271.550781 23.0625 271.949219 22.945312 272.335938 22.867188 C 272.722656 22.789062 273.097656 22.75 273.464844 22.75 C 274.453125 22.75 275.191406 23.003906 275.679688 23.519531 C 276.167969 24.03125 276.414062 24.804688 276.414062 25.847656 Z M 276.414062 25.847656 "/>
<path style=" stroke:none;fill-rule:nonzero;fill:rgb(0%,0%,0%);fill-opacity:1;" d="M 284.046875 24.226562 C 284.328125 23.71875 284.664062 23.347656 285.054688 23.109375 C 285.445312 22.867188 285.90625 22.75 286.433594 22.75 C 287.144531 22.75 287.695312 22.996094 288.082031 23.496094 C 288.46875 23.992188 288.664062 24.703125 288.664062 25.621094 L 288.664062 29.75 L 287.535156 29.75 L 287.535156 25.660156 C 287.535156 25.003906 287.417969 24.519531 287.183594 24.203125 C 286.953125 23.882812 286.597656 23.726562 286.125 23.726562 C 285.542969 23.726562 285.082031 23.917969 284.742188 24.304688 C 284.40625 24.691406 284.238281 25.21875 284.238281 25.886719 L 284.238281 29.75 L 283.109375 29.75 L 283.109375 25.660156 C 283.109375 25 282.992188 24.511719 282.761719 24.199219 C 282.527344 23.882812 282.171875 23.726562 281.6875 23.726562 C 281.113281 23.726562 280.65625 23.917969 280.316406 24.308594 C 279.980469 24.695312 279.8125 25.222656 279.8125 25.886719 L 279.8125 29.75 L 278.683594 29.75 L 278.683594 22.914062 L 279.8125 22.914062 L 279.8125 23.976562 C 280.066406 23.554688 280.375 23.246094 280.734375 23.046875 C 281.089844 22.847656 281.515625 22.75 282.007812 22.75 C 282.503906 22.75 282.929688 22.875 283.277344 23.128906 C 283.625 23.378906 283.878906 23.746094 284.046875 24.226562 Z M 284.046875 24.226562 "/>
<path style="fill:none;stroke-width:1.5;stroke-linecap:butt;stroke-linejoin:round;stroke:rgb(74.901961%,0%,74.901961%);stroke-opacity:1;stroke-dasharray:5.55,2.4;stroke-miterlimit:4;" d="M 161.996875 34.978125 L 181.996875 34.978125 " transform="matrix(1.25,0,0,1.25,0,0)"/>
<path style=" stroke:none;fill-rule:nonzero;fill:rgb(0%,0%,0%);fill-opacity:1;" d="M 243.582031 44.683594 C 243.582031 43.859375 243.414062 43.210938 243.070312 42.742188 C 242.734375 42.269531 242.265625 42.035156 241.671875 42.035156 C 241.078125 42.035156 240.609375 42.269531 240.269531 42.742188 C 239.929688 43.210938 239.757812 43.859375 239.757812 44.683594 C 239.757812 45.507812 239.929688 46.15625 240.269531 46.628906 C 240.609375 47.097656 241.078125 47.332031 241.671875 47.332031 C 242.265625 47.332031 242.734375 47.097656 243.070312 46.628906 C 243.414062 46.15625 243.582031 45.507812 243.582031 44.683594 Z M 239.757812 42.296875 C 239.996094 41.890625 240.296875 41.589844 240.65625 41.394531 C 241.015625 41.195312 241.445312 41.097656 241.945312 41.097656 C 242.777344 41.097656 243.449219 41.425781 243.96875 42.085938 C 244.488281 42.742188 244.75 43.609375 244.75 44.683594 C 244.75 45.757812 244.488281 46.625 243.96875 47.285156 C 243.449219 47.945312 242.777344 48.273438 241.945312 48.273438 C 241.445312 48.273438 241.015625 48.175781 240.65625 47.976562 C 240.296875 47.777344 239.996094 47.476562 239.757812 47.070312 L 239.757812 48.097656 L 238.632812 48.097656 L 238.632812 38.597656 L 239.757812 38.597656 Z M 239.757812 42.296875 "/>
<path style=" stroke:none;fill-rule:nonzero;fill:rgb(0%,0%,0%);fill-opacity:1;" d="M 246.609375 41.261719 L 247.730469 41.261719 L 247.730469 48.097656 L 246.609375 48.097656 Z M 246.609375 38.597656 L 247.730469 38.597656 L 247.730469 40.023438 L 246.609375 40.023438 Z M 246.609375 38.597656 "/>
<path style=" stroke:none;fill-rule:nonzero;fill:rgb(0%,0%,0%);fill-opacity:1;" d="M 254.578125 44.597656 C 254.578125 43.785156 254.410156 43.152344 254.074219 42.707031 C 253.742188 42.257812 253.269531 42.035156 252.664062 42.035156 C 252.0625 42.035156 251.59375 42.257812 251.257812 42.707031 C 250.921875 43.152344 250.753906 43.785156 250.753906 44.597656 C 250.753906 45.40625 250.921875 46.035156 251.257812 46.484375 C 251.59375 46.933594 252.0625 47.15625 252.664062 47.15625 C 253.269531 47.15625 253.742188 46.933594 254.074219 46.484375 C 254.410156 46.035156 254.578125 45.40625 254.578125 44.597656 Z M 255.703125 47.25 C 255.703125 48.410156 255.445312 49.277344 254.925781 49.84375 C 254.410156 50.410156 253.621094 50.695312 252.554688 50.695312 C 252.160156 50.695312 251.785156 50.667969 251.4375 50.609375 C 251.085938 50.550781 250.746094 50.457031 250.417969 50.335938 L 250.417969 49.246094 C 250.746094 49.421875 251.070312 49.554688 251.394531 49.640625 C 251.714844 49.726562 252.042969 49.769531 252.375 49.769531 C 253.113281 49.769531 253.664062 49.574219 254.03125 49.191406 C 254.394531 48.808594 254.578125 48.226562 254.578125 47.449219 L 254.578125 46.894531 C 254.347656 47.296875 254.050781 47.597656 253.6875 47.796875 C 253.328125 47.996094 252.894531 48.097656 252.386719 48.097656 C 251.550781 48.097656 250.875 47.777344 250.363281 47.140625 C 249.847656 46.5 249.59375 45.652344 249.59375 44.597656 C 249.59375 43.539062 249.847656 42.691406 250.363281 42.054688 C 250.875 41.414062 251.550781 41.097656 252.386719 41.097656 C 252.894531 41.097656 253.328125 41.195312 253.6875 41.394531 C 254.050781 41.59375 254.347656 41.894531 254.578125 42.296875 L 254.578125 41.261719 L 255.703125 41.261719 Z M 255.703125 47.25 "/>
<path style=" stroke:none;fill-rule:nonzero;fill:rgb(0%,0%,0%);fill-opacity:1;" d="M 261.976562 42.308594 C 261.851562 42.234375 261.714844 42.183594 261.566406 42.148438 C 261.417969 42.113281 261.253906 42.097656 261.074219 42.097656 C 260.4375 42.097656 259.953125 42.300781 259.613281 42.714844 C 259.273438 43.128906 259.101562 43.722656 259.101562 44.496094 L 259.101562 48.097656 L 257.972656 48.097656 L 257.972656 41.261719 L 259.101562 41.261719 L 259.101562 42.324219 C 259.339844 41.90625 259.644531 41.597656 260.023438 41.398438 C 260.402344 41.195312 260.863281 41.097656 261.40625 41.097656 C 261.480469 41.097656 261.566406 41.101562 261.660156 41.113281 C 261.753906 41.121094 261.859375 41.136719 261.972656 41.15625 Z M 261.976562 42.308594 "/>
<path style=" stroke:none;fill-rule:nonzero;fill:rgb(0%,0%,0%);fill-opacity:1;" d="M 266.261719 44.660156 C 265.355469 44.660156 264.726562 44.765625 264.375 44.972656 C 264.027344 45.179688 263.851562 45.53125 263.851562 46.035156 C 263.851562 46.433594 263.980469 46.75 264.246094 46.984375 C 264.507812 47.214844 264.863281 47.332031 265.316406 47.332031 C 265.9375 47.332031 266.4375 47.113281 266.816406 46.671875 C 267.191406 46.230469 267.378906 45.640625 267.378906 44.910156 L 267.378906 44.660156 Z M 268.503906 44.195312 L 268.503906 48.097656 L 267.378906 48.097656 L 267.378906 47.058594 C 267.125 47.472656 266.804688 47.777344 266.421875 47.976562 C 266.039062 48.175781 265.570312 48.273438 265.015625 48.273438 C 264.316406 48.273438 263.761719 48.078125 263.347656 47.683594 C 262.933594 47.289062 262.726562 46.765625 262.726562 46.105469 C 262.726562 45.335938 262.984375 44.757812 263.5 44.367188 C 264.015625 43.976562 264.78125 43.78125 265.804688 43.78125 L 267.378906 43.78125 L 267.378906 43.671875 C 267.378906 43.152344 267.210938 42.753906 266.871094 42.472656 C 266.53125 42.1875 266.054688 42.046875 265.4375 42.046875 C 265.046875 42.046875 264.667969 42.09375 264.296875 42.1875 C 263.925781 42.28125 263.570312 42.421875 263.230469 42.609375 L 263.230469 41.570312 C 263.640625 41.410156 264.039062 41.292969 264.425781 41.214844 C 264.8125 41.136719 265.1875 41.097656 265.554688 41.097656 C 266.542969 41.097656 267.28125 41.351562 267.769531 41.867188 C 268.257812 42.378906 268.503906 43.152344 268.503906 44.195312 Z M 268.503906 44.195312 "/>
<path style=" stroke:none;fill-rule:nonzero;fill:rgb(0%,0%,0%);fill-opacity:1;" d="M 276.136719 42.574219 C 276.417969 42.066406 276.753906 41.695312 277.144531 41.457031 C 277.535156 41.214844 277.996094 41.097656 278.523438 41.097656 C 279.234375 41.097656 279.785156 41.34375 280.171875 41.84375 C 280.558594 42.339844 280.753906 43.050781 280.753906 43.96875 L 280.753906 48.097656 L 279.625 48.097656 L 279.625 44.007812 C 279.625 43.351562 279.507812 42.867188 279.273438 42.550781 C 279.042969 42.230469 278.6875 42.074219 278.214844 42.074219 C 277.632812 42.074219 277.171875 42.265625 276.832031 42.652344 C 276.496094 43.039062 276.328125 43.566406 276.328125 44.234375 L 276.328125 48.097656 L 275.199219 48.097656 L 275.199219 44.007812 C 275.199219 43.347656 275.082031 42.859375 274.851562 42.546875 C 274.617188 42.230469 274.261719 42.074219 273.777344 42.074219 C 273.203125 42.074219 272.746094 42.265625 272.40625 42.65625 C 272.070312 43.042969 271.902344 43.570312 271.902344 44.234375 L 271.902344 48.097656 L 270.773438 48.097656 L 270.773438 41.261719 L 271.902344 41.261719 L 271.902344 42.324219 C 272.15625 41.902344 272.464844 41.59375 272.824219 41.394531 C 273.179688 41.195312 273.605469 41.097656 274.097656 41.097656 C 274.59375 41.097656 275.019531 41.222656 275.367188 41.476562 C 275.714844 41.726562 275.96875 42.09375 276.136719 42.574219 Z M 276.136719 42.574219 "/>
<path style="fill:none;stroke-width:1.5;stroke-linecap:butt;stroke-linejoin:round;stroke:rgb(0%,50.196078%,0%);stroke-opacity:1;stroke-dasharray:9.6,2.4,1.5,2.4;stroke-miterlimit:4;" d="M 161.996875 49.65625 L 181.996875 49.65625 " transform="matrix(1.25,0,0,1.25,0,0)"/>
<path style=" stroke:none;fill-rule:nonzero;fill:rgb(0%,0%,0%);fill-opacity:1;" d="M 239.785156 57.667969 L 239.785156 59.609375 L 242.097656 59.609375 L 242.097656 60.480469 L 239.785156 60.480469 L 239.785156 64.191406 C 239.785156 64.75 239.859375 65.105469 240.015625 65.265625 C 240.164062 65.425781 240.476562 65.503906 240.945312 65.503906 L 242.097656 65.503906 L 242.097656 66.445312 L 240.945312 66.445312 C 240.078125 66.445312 239.480469 66.28125 239.148438 65.960938 C 238.820312 65.636719 238.65625 65.046875 238.65625 64.191406 L 238.65625 60.480469 L 237.832031 60.480469 L 237.832031 59.609375 L 238.65625 59.609375 L 238.65625 57.667969 Z M 239.785156 57.667969 "/>
<path style=" stroke:none;fill-rule:nonzero;fill:rgb(0%,0%,0%);fill-opacity:1;" d="M 247.535156 60.65625 C 247.410156 60.582031 247.273438 60.53125 247.125 60.496094 C 246.976562 60.460938 246.8125 60.445312 246.632812 60.445312 C 246 60.445312 245.511719 60.648438 245.171875 61.0625 C 244.832031 61.476562 244.660156 62.070312 244.660156 62.84375 L 244.660156 66.445312 L 243.53125 66.445312 L 243.53125 59.609375 L 244.660156 59.609375 L 244.660156 60.671875 C 244.898438 60.253906 245.207031 59.945312 245.582031 59.746094 C 245.960938 59.542969 246.421875 59.445312 246.964844 59.445312 C 247.039062 59.445312 247.125 59.449219 247.21875 59.460938 C 247.3125 59.46875 247.417969 59.484375 247.53125 59.503906 Z M 247.535156 60.65625 "/>
<path style=" stroke:none;fill-rule:nonzero;fill:rgb(0%,0%,0%);fill-opacity:1;" d="M 248.714844 59.609375 L 249.835938 59.609375 L 249.835938 66.445312 L 248.714844 66.445312 Z M 248.714844 56.945312 L 249.835938 56.945312 L 249.835938 58.371094 L 248.714844 58.371094 Z M 248.714844 56.945312 "/>
<path style=" stroke:none;fill-rule:nonzero;fill:rgb(0%,0%,0%);fill-opacity:1;" d="M 256.683594 62.945312 C 256.683594 62.132812 256.515625 61.5 256.179688 61.054688 C 255.847656 60.605469 255.375 60.382812 254.769531 60.382812 C 254.167969 60.382812 253.699219 60.605469 253.363281 61.054688 C 253.027344 61.5 252.859375 62.132812 252.859375 62.945312 C 252.859375 63.753906 253.027344 64.382812 253.363281 64.832031 C 253.699219 65.28125 254.167969 65.503906 254.769531 65.503906 C 255.375 65.503906 255.847656 65.28125 256.179688 64.832031 C 256.515625 64.382812 256.683594 63.753906 256.683594 62.945312 Z M 257.808594 65.597656 C 257.808594 66.757812 257.550781 67.625 257.03125 68.191406 C 256.515625 68.757812 255.726562 69.042969 254.660156 69.042969 C 254.265625 69.042969 253.894531 69.015625 253.542969 68.957031 C 253.191406 68.898438 252.851562 68.804688 252.523438 68.683594 L 252.523438 67.59375 C 252.851562 67.769531 253.179688 67.902344 253.5 67.988281 C 253.820312 68.074219 254.148438 68.117188 254.480469 68.117188 C 255.21875 68.117188 255.769531 67.921875 256.136719 67.539062 C 256.503906 67.15625 256.683594 66.574219 256.683594 65.796875 L 256.683594 65.242188 C 256.453125 65.644531 256.15625 65.945312 255.792969 66.144531 C 255.433594 66.34375 255 66.445312 254.492188 66.445312 C 253.65625 66.445312 252.980469 66.125 252.46875 65.488281 C 251.957031 64.847656 251.699219 64 251.699219 62.945312 C 251.699219 61.886719 251.957031 61.039062 252.46875 60.402344 C 252.980469 59.761719 253.65625 59.445312 254.492188 59.445312 C 255 59.445312 255.433594 59.542969 255.792969 59.742188 C 256.15625 59.941406 256.453125 60.242188 256.683594 60.644531 L 256.683594 59.609375 L 257.808594 59.609375 Z M 257.808594 65.597656 "/>
<path style=" stroke:none;fill-rule:nonzero;fill:rgb(0%,0%,0%);fill-opacity:1;" d="M 264.082031 60.65625 C 263.957031 60.582031 263.820312 60.53125 263.671875 60.496094 C 263.523438 60.460938 263.359375 60.445312 263.179688 60.445312 C 262.542969 60.445312 262.058594 60.648438 261.71875 61.0625 C 261.378906 61.476562 261.207031 62.070312 261.207031 62.84375 L 261.207031 66.445312 L 260.078125 66.445312 L 260.078125 59.609375 L 261.207031 59.609375 L 261.207031 60.671875 C 261.445312 60.253906 261.75 59.945312 262.128906 59.746094 C 262.507812 59.542969 262.96875 59.445312 263.511719 59.445312 C 263.585938 59.445312 263.671875 59.449219 263.765625 59.460938 C 263.859375 59.46875 263.964844 59.484375 264.078125 59.503906 Z M 264.082031 60.65625 "/>
<path style=" stroke:none;fill-rule:nonzero;fill:rgb(0%,0%,0%);fill-opacity:1;" d="M 268.367188 63.007812 C 267.460938 63.007812 266.832031 63.113281 266.480469 63.320312 C 266.132812 63.527344 265.957031 63.878906 265.957031 64.382812 C 265.957031 64.78125 266.085938 65.097656 266.351562 65.332031 C 266.613281 65.5625 266.96875 65.679688 267.421875 65.679688 C 268.042969 65.679688 268.542969 65.460938 268.921875 65.019531 C 269.296875 64.578125 269.484375 63.988281 269.484375 63.257812 L 269.484375 63.007812 Z M 270.609375 62.542969 L 270.609375 66.445312 L 269.484375 66.445312 L 269.484375 65.40625 C 269.230469 65.820312 268.910156 66.125 268.527344 66.324219 C 268.144531 66.523438 267.675781 66.621094 267.121094 66.621094 C 266.421875 66.621094 265.867188 66.425781 265.453125 66.03125 C 265.039062 65.636719 264.832031 65.113281 264.832031 64.453125 C 264.832031 63.683594 265.089844 63.105469 265.605469 62.714844 C 266.121094 62.324219 266.886719 62.128906 267.910156 62.128906 L 269.484375 62.128906 L 269.484375 62.019531 C 269.484375 61.5 269.316406 61.101562 268.976562 60.820312 C 268.636719 60.535156 268.160156 60.394531 267.542969 60.394531 C 267.152344 60.394531 266.773438 60.441406 266.402344 60.535156 C 266.03125 60.628906 265.675781 60.769531 265.335938 60.957031 L 265.335938 59.917969 C 265.746094 59.757812 266.144531 59.640625 266.53125 59.5625 C 266.917969 59.484375 267.292969 59.445312 267.660156 59.445312 C 268.648438 59.445312 269.386719 59.699219 269.875 60.214844 C 270.363281 60.726562 270.609375 61.5 270.609375 62.542969 Z M 270.609375 62.542969 "/>
<path style=" stroke:none;fill-rule:nonzero;fill:rgb(0%,0%,0%);fill-opacity:1;" d="M 278.242188 60.921875 C 278.523438 60.414062 278.859375 60.042969 279.25 59.804688 C 279.640625 59.5625 280.101562 59.445312 280.628906 59.445312 C 281.34375 59.445312 281.890625 59.691406 282.277344 60.191406 C 282.664062 60.6875 282.859375 61.398438 282.859375 62.316406 L 282.859375 66.445312 L 281.730469 66.445312 L 281.730469 62.355469 C 281.730469 61.699219 281.613281 61.214844 281.378906 60.898438 C 281.148438 60.578125 280.792969 60.421875 280.320312 60.421875 C 279.738281 60.421875 279.277344 60.613281 278.9375 61 C 278.601562 61.386719 278.433594 61.914062 278.433594 62.582031 L 278.433594 66.445312 L 277.304688 66.445312 L 277.304688 62.355469 C 277.304688 61.695312 277.1875 61.207031 276.957031 60.894531 C 276.722656 60.578125 276.367188 60.421875 275.882812 60.421875 C 275.308594 60.421875 274.851562 60.613281 274.511719 61.003906 C 274.175781 61.390625 274.007812 61.917969 274.007812 62.582031 L 274.007812 66.445312 L 272.878906 66.445312 L 272.878906 59.609375 L 274.007812 59.609375 L 274.007812 60.671875 C 274.261719 60.25 274.570312 59.941406 274.929688 59.742188 C 275.285156 59.542969 275.710938 59.445312 276.203125 59.445312 C 276.703125 59.445312 277.125 59.570312 277.472656 59.824219 C 277.820312 60.074219 278.078125 60.441406 278.242188 60.921875 Z M 278.242188 60.921875 "/>
</g>
</svg>
