<?xml version="1.0" encoding="UTF-8"?>
<svg xmlns="http://www.w3.org/2000/svg" xmlns:xlink="http://www.w3.org/1999/xlink" width="322pt" height="229pt" viewBox="0 0 322 229" version="1.1">
<defs>
<clipPath id="clip1">
  <path d="M 102 9 L 105 9 L 105 182.25 L 102 182.25 Z M 102 9 "/>
</clipPath>
<clipPath id="clip2">
  <path d="M 152 9 L 154 9 L 154 182.25 L 152 182.25 Z M 152 9 "/>
</clipPath>
<clipPath id="clip3">
  <path d="M 201 9 L 204 9 L 204 182.25 L 201 182.25 Z M 201 9 "/>
</clipPath>
<clipPath id="clip4">
  <path d="M 250 9 L 253 9 L 253 182.25 L 250 182.25 Z M 250 9 "/>
</clipPath>
<clipPath id="clip5">
  <path d="M 300 9 L 300.972656 9 L 300.972656 182.25 L 300 182.25 Z M 300 9 "/>
</clipPath>
<clipPath id="clip6">
  <path d="M 56.847656 81 L 300.972656 81 L 300.972656 84 L 56.847656 84 Z M 56.847656 81 "/>
</clipPath>
<clipPath id="clip7">
  <path d="M 56.847656 15 L 300.972656 15 L 300.972656 172 L 56.847656 172 Z M 56.847656 15 "/>
</clipPath>
<clipPath id="clip8">
  <path d="M 56.847656 15 L 300.972656 15 L 300.972656 176 L 56.847656 176 Z M 56.847656 15 "/>
</clipPath>
<filter id="alpha" filterUnits="objectBoundingBox" x="0%" y="0%" width="100%" height="100%">
  <feColorMatrix type="matrix" in="SourceGraphic" values="0 0 0 0 1 0 0 0 0 1 0 0 0 0 1 0 0 0 1 0"/>
</filter>
<mask id="mask0">
  <g filter="url(#alpha)">
<rect x="0" y="0" width="322" height="229" style="fill:rgb(0%,0%,0%);fill-opacity:0.8;stroke:none;"/>
  </g>
</mask>
<clipPath id="clip9">
  <rect x="0" y="0" width="322" height="229"/>
</clipPath>
<g id="surface5" clip-path="url(#clip9)">
<path style="fill-rule:nonzero;fill:rgb(100%,100%,100%);fill-opacity:1;stroke-width:1;stroke-linecap:butt;stroke-linejoin:miter;stroke:rgb(80%,80%,80%);stroke-opacity:1;stroke-miterlimit:4;" d="M 177.825 44.55625 L 233.778125 44.55625 C 235.1125 44.55625 235.778125 43.890625 235.778125 42.55625 L 235.778125 14.2 C 235.778125 12.865625 235.1125 12.2 233.778125 12.2 L 177.825 12.2 C 176.49375 12.2 175.825 12.865625 175.825 14.2 L 175.825 42.55625 C 175.825 43.890625 176.49375 44.55625 177.825 44.55625 Z M 177.825 44.55625 " transform="matrix(1.25,0,0,1.25,0.000000000000028422,0)"/>
</g>
</defs>
<g id="surface1">
<path style=" stroke:none;fill-rule:nonzero;fill:rgb(100%,100%,100%);fill-opacity:1;" d="M 0 229.195312 L 321.902344 229.195312 L 321.902344 0 L 0 0 Z M 0 229.195312 "/>
<path style=" stroke:none;fill-rule:nonzero;fill:rgb(100%,100%,100%);fill-opacity:1;" d="M 56.847656 182.25 L 300.972656 182.25 L 300.972656 9 L 56.847656 9 Z M 56.847656 182.25 "/>
<g clip-path="url(#clip1)" clip-rule="nonzero">
<path style="fill:none;stroke-width:0.8;stroke-linecap:square;stroke-linejoin:round;stroke:rgb(69.019608%,69.019608%,69.019608%);stroke-opacity:1;stroke-miterlimit:4;" d="M 82.959375 145.8 L 82.959375 7.2 " transform="matrix(1.25,0,0,1.25,0.000000000000028422,0)"/>
</g>
<path style="fill:none;stroke-width:0.8;stroke-linecap:butt;stroke-linejoin:round;stroke:rgb(0%,0%,0%);stroke-opacity:1;stroke-miterlimit:4;" d="M -0.000568 0 L -0.000568 3.5 " transform="matrix(1.25,0,0,1.25,103.699929,182.25)"/>
<path style=" stroke:none;fill-rule:nonzero;fill:rgb(0%,0%,0%);fill-opacity:1;" d="M 98.144531 199.460938 L 102.449219 199.460938 L 102.449219 200.5 L 96.664062 200.5 L 96.664062 199.460938 C 97.128906 198.976562 97.769531 198.328125 98.574219 197.511719 C 99.382812 196.695312 99.890625 196.167969 100.097656 195.933594 C 100.492188 195.488281 100.769531 195.113281 100.925781 194.808594 C 101.082031 194.5 101.160156 194.199219 101.160156 193.902344 C 101.160156 193.417969 100.992188 193.023438 100.652344 192.71875 C 100.3125 192.410156 99.867188 192.257812 99.324219 192.257812 C 98.9375 192.257812 98.527344 192.324219 98.097656 192.460938 C 97.671875 192.59375 97.210938 192.796875 96.722656 193.070312 L 96.722656 191.824219 C 97.21875 191.625 97.683594 191.476562 98.113281 191.375 C 98.546875 191.273438 98.941406 191.222656 99.300781 191.222656 C 100.242188 191.222656 100.996094 191.457031 101.558594 191.929688 C 102.117188 192.402344 102.398438 193.03125 102.398438 193.820312 C 102.398438 194.195312 102.328125 194.550781 102.1875 194.886719 C 102.050781 195.222656 101.792969 195.617188 101.421875 196.074219 C 101.320312 196.191406 100.996094 196.53125 100.453125 197.097656 C 99.90625 197.660156 99.140625 198.449219 98.144531 199.460938 Z M 98.144531 199.460938 "/>
<path style=" stroke:none;fill-rule:nonzero;fill:rgb(0%,0%,0%);fill-opacity:1;" d="M 107.671875 192.199219 C 107.039062 192.199219 106.5625 192.511719 106.242188 193.136719 C 105.921875 193.757812 105.761719 194.699219 105.761719 195.953125 C 105.761719 197.199219 105.921875 198.136719 106.242188 198.761719 C 106.5625 199.386719 107.039062 199.699219 107.671875 199.699219 C 108.3125 199.699219 108.789062 199.386719 109.109375 198.761719 C 109.429688 198.136719 109.589844 197.199219 109.589844 195.953125 C 109.589844 194.699219 109.429688 193.757812 109.109375 193.136719 C 108.789062 192.511719 108.3125 192.199219 107.671875 192.199219 Z M 107.671875 191.222656 C 108.695312 191.222656 109.476562 191.625 110.015625 192.433594 C 110.554688 193.242188 110.824219 194.414062 110.824219 195.953125 C 110.824219 197.484375 110.554688 198.65625 110.015625 199.464844 C 109.476562 200.273438 108.695312 200.675781 107.671875 200.675781 C 106.652344 200.675781 105.871094 200.273438 105.332031 199.464844 C 104.792969 198.65625 104.523438 197.484375 104.523438 195.953125 C 104.523438 194.414062 104.792969 193.242188 105.332031 192.433594 C 105.871094 191.625 106.652344 191.222656 107.671875 191.222656 Z M 107.671875 191.222656 "/>
<g clip-path="url(#clip2)" clip-rule="nonzero">
<path style="fill:none;stroke-width:0.8;stroke-linecap:square;stroke-linejoin:round;stroke:rgb(69.019608%,69.019608%,69.019608%);stroke-opacity:1;stroke-miterlimit:4;" d="M 122.415625 145.8 L 122.415625 7.2 " transform="matrix(1.25,0,0,1.25,0.000000000000028422,0)"/>
</g>
<path style="fill:none;stroke-width:0.8;stroke-linecap:butt;stroke-linejoin:round;stroke:rgb(0%,0%,0%);stroke-opacity:1;stroke-miterlimit:4;" d="M 0.001136 0 L 0.001136 3.5 " transform="matrix(1.25,0,0,1.25,153.018111,182.25)"/>
<path style=" stroke:none;fill-rule:nonzero;fill:rgb(0%,0%,0%);fill-opacity:1;" d="M 149.789062 192.460938 L 146.675781 197.324219 L 149.789062 197.324219 Z M 149.464844 191.386719 L 151.015625 191.386719 L 151.015625 197.324219 L 152.316406 197.324219 L 152.316406 198.351562 L 151.015625 198.351562 L 151.015625 200.5 L 149.789062 200.5 L 149.789062 198.351562 L 145.675781 198.351562 L 145.675781 197.160156 Z M 149.464844 191.386719 "/>
<path style=" stroke:none;fill-rule:nonzero;fill:rgb(0%,0%,0%);fill-opacity:1;" d="M 156.992188 192.199219 C 156.355469 192.199219 155.878906 192.511719 155.558594 193.136719 C 155.238281 193.757812 155.082031 194.699219 155.082031 195.953125 C 155.082031 197.199219 155.238281 198.136719 155.558594 198.761719 C 155.878906 199.386719 156.355469 199.699219 156.992188 199.699219 C 157.628906 199.699219 158.109375 199.386719 158.429688 198.761719 C 158.75 198.136719 158.910156 197.199219 158.910156 195.953125 C 158.910156 194.699219 158.75 193.757812 158.429688 193.136719 C 158.109375 192.511719 157.628906 192.199219 156.992188 192.199219 Z M 156.992188 191.222656 C 158.011719 191.222656 158.792969 191.625 159.332031 192.433594 C 159.871094 193.242188 160.140625 194.414062 160.140625 195.953125 C 160.140625 197.484375 159.871094 198.65625 159.332031 199.464844 C 158.792969 200.273438 158.011719 200.675781 156.992188 200.675781 C 155.96875 200.675781 155.191406 200.273438 154.652344 199.464844 C 154.113281 198.65625 153.84375 197.484375 153.84375 195.953125 C 153.84375 194.414062 154.113281 193.242188 154.652344 192.433594 C 155.191406 191.625 155.96875 191.222656 156.992188 191.222656 Z M 156.992188 191.222656 "/>
<g clip-path="url(#clip3)" clip-rule="nonzero">
<path style="fill:none;stroke-width:0.8;stroke-linecap:square;stroke-linejoin:round;stroke:rgb(69.019608%,69.019608%,69.019608%);stroke-opacity:1;stroke-miterlimit:4;" d="M 161.86875 145.8 L 161.86875 7.2 " transform="matrix(1.25,0,0,1.25,0.000000000000028422,0)"/>
</g>
<path style="fill:none;stroke-width:0.8;stroke-linecap:butt;stroke-linejoin:round;stroke:rgb(0%,0%,0%);stroke-opacity:1;stroke-miterlimit:4;" d="M -0.000284 0 L -0.000284 3.5 " transform="matrix(1.25,0,0,1.25,202.336293,182.25)"/>
<path style=" stroke:none;fill-rule:nonzero;fill:rgb(0%,0%,0%);fill-opacity:1;" d="M 198.511719 195.453125 C 197.957031 195.453125 197.519531 195.640625 197.195312 196.019531 C 196.871094 196.398438 196.710938 196.914062 196.710938 197.574219 C 196.710938 198.230469 196.871094 198.746094 197.195312 199.128906 C 197.519531 199.507812 197.957031 199.699219 198.511719 199.699219 C 199.0625 199.699219 199.5 199.507812 199.824219 199.128906 C 200.148438 198.746094 200.308594 198.230469 200.308594 197.574219 C 200.308594 196.914062 200.148438 196.398438 199.824219 196.019531 C 199.5 195.640625 199.0625 195.453125 198.511719 195.453125 Z M 200.957031 191.585938 L 200.957031 192.710938 C 200.648438 192.5625 200.335938 192.453125 200.019531 192.375 C 199.703125 192.296875 199.390625 192.257812 199.082031 192.257812 C 198.269531 192.257812 197.648438 192.53125 197.21875 193.082031 C 196.789062 193.632812 196.542969 194.460938 196.484375 195.574219 C 196.722656 195.21875 197.023438 194.945312 197.386719 194.757812 C 197.75 194.570312 198.148438 194.476562 198.582031 194.476562 C 199.496094 194.476562 200.222656 194.753906 200.753906 195.308594 C 201.285156 195.863281 201.550781 196.617188 201.550781 197.574219 C 201.550781 198.511719 201.273438 199.261719 200.71875 199.828125 C 200.164062 200.394531 199.429688 200.675781 198.511719 200.675781 C 197.457031 200.675781 196.648438 200.273438 196.09375 199.464844 C 195.535156 198.65625 195.257812 197.484375 195.257812 195.953125 C 195.257812 194.511719 195.597656 193.363281 196.28125 192.507812 C 196.964844 191.648438 197.882812 191.222656 199.035156 191.222656 C 199.34375 191.222656 199.65625 191.25 199.972656 191.3125 C 200.285156 191.375 200.613281 191.464844 200.957031 191.585938 Z M 200.957031 191.585938 "/>
<path style=" stroke:none;fill-rule:nonzero;fill:rgb(0%,0%,0%);fill-opacity:1;" d="M 206.308594 192.199219 C 205.675781 192.199219 205.199219 192.511719 204.878906 193.136719 C 204.558594 193.757812 204.398438 194.699219 204.398438 195.953125 C 204.398438 197.199219 204.558594 198.136719 204.878906 198.761719 C 205.199219 199.386719 205.675781 199.699219 206.308594 199.699219 C 206.949219 199.699219 207.425781 199.386719 207.746094 198.761719 C 208.066406 198.136719 208.226562 197.199219 208.226562 195.953125 C 208.226562 194.699219 208.066406 193.757812 207.746094 193.136719 C 207.425781 192.511719 206.949219 192.199219 206.308594 192.199219 Z M 206.308594 191.222656 C 207.332031 191.222656 208.113281 191.625 208.652344 192.433594 C 209.191406 193.242188 209.460938 194.414062 209.460938 195.953125 C 209.460938 197.484375 209.191406 198.65625 208.652344 199.464844 C 208.113281 200.273438 207.332031 200.675781 206.308594 200.675781 C 205.289062 200.675781 204.507812 200.273438 203.96875 199.464844 C 203.429688 198.65625 203.160156 197.484375 203.160156 195.953125 C 203.160156 194.414062 203.429688 193.242188 203.96875 192.433594 C 204.507812 191.625 205.289062 191.222656 206.308594 191.222656 Z M 206.308594 191.222656 "/>
<g clip-path="url(#clip4)" clip-rule="nonzero">
<path style="fill:none;stroke-width:0.8;stroke-linecap:square;stroke-linejoin:round;stroke:rgb(69.019608%,69.019608%,69.019608%);stroke-opacity:1;stroke-miterlimit:4;" d="M 201.325 145.8 L 201.325 7.2 " transform="matrix(1.25,0,0,1.25,0.000000000000028422,0)"/>
</g>
<path style="fill:none;stroke-width:0.8;stroke-linecap:butt;stroke-linejoin:round;stroke:rgb(0%,0%,0%);stroke-opacity:1;stroke-miterlimit:4;" d="M 0.00142 0 L 0.00142 3.5 " transform="matrix(1.25,0,0,1.25,251.654475,182.25)"/>
<path style=" stroke:none;fill-rule:nonzero;fill:rgb(0%,0%,0%);fill-opacity:1;" d="M 247.675781 196.171875 C 247.089844 196.171875 246.628906 196.328125 246.292969 196.640625 C 245.957031 196.953125 245.789062 197.386719 245.789062 197.933594 C 245.789062 198.484375 245.957031 198.914062 246.292969 199.230469 C 246.628906 199.542969 247.089844 199.699219 247.675781 199.699219 C 248.261719 199.699219 248.722656 199.542969 249.058594 199.226562 C 249.398438 198.910156 249.566406 198.480469 249.566406 197.933594 C 249.566406 197.386719 249.398438 196.953125 249.0625 196.640625 C 248.726562 196.328125 248.265625 196.171875 247.675781 196.171875 Z M 246.441406 195.648438 C 245.914062 195.515625 245.5 195.269531 245.207031 194.910156 C 244.910156 194.546875 244.765625 194.101562 244.765625 193.582031 C 244.765625 192.855469 245.023438 192.277344 245.542969 191.855469 C 246.0625 191.433594 246.773438 191.222656 247.675781 191.222656 C 248.582031 191.222656 249.292969 191.433594 249.8125 191.855469 C 250.328125 192.277344 250.585938 192.855469 250.585938 193.582031 C 250.585938 194.101562 250.4375 194.546875 250.144531 194.910156 C 249.847656 195.269531 249.4375 195.515625 248.914062 195.648438 C 249.507812 195.785156 249.96875 196.054688 250.300781 196.460938 C 250.632812 196.863281 250.800781 197.351562 250.800781 197.933594 C 250.800781 198.816406 250.53125 199.496094 249.992188 199.96875 C 249.453125 200.441406 248.679688 200.675781 247.675781 200.675781 C 246.671875 200.675781 245.898438 200.441406 245.359375 199.96875 C 244.820312 199.496094 244.550781 198.816406 244.550781 197.933594 C 244.550781 197.351562 244.714844 196.863281 245.050781 196.460938 C 245.382812 196.054688 245.847656 195.785156 246.441406 195.648438 Z M 245.992188 193.699219 C 245.992188 194.171875 246.136719 194.539062 246.433594 194.804688 C 246.726562 195.066406 247.140625 195.199219 247.675781 195.199219 C 248.203125 195.199219 248.617188 195.066406 248.917969 194.804688 C 249.214844 194.539062 249.367188 194.171875 249.367188 193.699219 C 249.367188 193.226562 249.214844 192.859375 248.917969 192.59375 C 248.617188 192.328125 248.203125 192.199219 247.675781 192.199219 C 247.140625 192.199219 246.726562 192.328125 246.433594 192.59375 C 246.136719 192.859375 245.992188 193.226562 245.992188 193.699219 Z M 245.992188 193.699219 "/>
<path style=" stroke:none;fill-rule:nonzero;fill:rgb(0%,0%,0%);fill-opacity:1;" d="M 255.625 192.199219 C 254.992188 192.199219 254.515625 192.511719 254.195312 193.136719 C 253.875 193.757812 253.714844 194.699219 253.714844 195.953125 C 253.714844 197.199219 253.875 198.136719 254.195312 198.761719 C 254.515625 199.386719 254.992188 199.699219 255.625 199.699219 C 256.265625 199.699219 256.746094 199.386719 257.0625 198.761719 C 257.382812 198.136719 257.542969 197.199219 257.542969 195.953125 C 257.542969 194.699219 257.382812 193.757812 257.0625 193.136719 C 256.746094 192.511719 256.265625 192.199219 255.625 192.199219 Z M 255.625 191.222656 C 256.648438 191.222656 257.429688 191.625 257.96875 192.433594 C 258.507812 193.242188 258.777344 194.414062 258.777344 195.953125 C 258.777344 197.484375 258.507812 198.65625 257.96875 199.464844 C 257.429688 200.273438 256.648438 200.675781 255.625 200.675781 C 254.605469 200.675781 253.824219 200.273438 253.285156 199.464844 C 252.746094 198.65625 252.476562 197.484375 252.476562 195.953125 C 252.476562 194.414062 252.746094 193.242188 253.285156 192.433594 C 253.824219 191.625 254.605469 191.222656 255.625 191.222656 Z M 255.625 191.222656 "/>
<g clip-path="url(#clip5)" clip-rule="nonzero">
<path style="fill:none;stroke-width:0.8;stroke-linecap:square;stroke-linejoin:round;stroke:rgb(69.019608%,69.019608%,69.019608%);stroke-opacity:1;stroke-miterlimit:4;" d="M 240.778125 145.8 L 240.778125 7.2 " transform="matrix(1.25,0,0,1.25,0.000000000000028422,0)"/>
</g>
<path style="fill:none;stroke-width:0.8;stroke-linecap:butt;stroke-linejoin:round;stroke:rgb(0%,0%,0%);stroke-opacity:1;stroke-miterlimit:4;" d="M 0 0 L 0 3.5 " transform="matrix(1.25,0,0,1.25,300.972656,182.25)"/>
<path style=" stroke:none;fill-rule:nonzero;fill:rgb(0%,0%,0%);fill-opacity:1;" d="M 290.59375 199.460938 L 292.609375 199.460938 L 292.609375 192.507812 L 290.414062 192.949219 L 290.414062 191.824219 L 292.59375 191.386719 L 293.828125 191.386719 L 293.828125 199.460938 L 295.84375 199.460938 L 295.84375 200.5 L 290.59375 200.5 Z M 290.59375 199.460938 "/>
<path style=" stroke:none;fill-rule:nonzero;fill:rgb(0%,0%,0%);fill-opacity:1;" d="M 300.96875 192.199219 C 300.335938 192.199219 299.855469 192.511719 299.535156 193.136719 C 299.21875 193.757812 299.058594 194.699219 299.058594 195.953125 C 299.058594 197.199219 299.21875 198.136719 299.535156 198.761719 C 299.855469 199.386719 300.335938 199.699219 300.96875 199.699219 C 301.609375 199.699219 302.085938 199.386719 302.40625 198.761719 C 302.726562 198.136719 302.886719 197.199219 302.886719 195.953125 C 302.886719 194.699219 302.726562 193.757812 302.40625 193.136719 C 302.085938 192.511719 301.609375 192.199219 300.96875 192.199219 Z M 300.96875 191.222656 C 301.992188 191.222656 302.769531 191.625 303.308594 192.433594 C 303.847656 193.242188 304.117188 194.414062 304.117188 195.953125 C 304.117188 197.484375 303.847656 198.65625 303.308594 199.464844 C 302.769531 200.273438 301.992188 200.675781 300.96875 200.675781 C 299.949219 200.675781 299.167969 200.273438 298.628906 199.464844 C 298.089844 198.65625 297.820312 197.484375 297.820312 195.953125 C 297.820312 194.414062 298.089844 193.242188 298.628906 192.433594 C 299.167969 191.625 299.949219 191.222656 300.96875 191.222656 Z M 300.96875 191.222656 "/>
<path style=" stroke:none;fill-rule:nonzero;fill:rgb(0%,0%,0%);fill-opacity:1;" d="M 308.921875 192.199219 C 308.289062 192.199219 307.808594 192.511719 307.488281 193.136719 C 307.171875 193.757812 307.011719 194.699219 307.011719 195.953125 C 307.011719 197.199219 307.171875 198.136719 307.488281 198.761719 C 307.808594 199.386719 308.289062 199.699219 308.921875 199.699219 C 309.5625 199.699219 310.039062 199.386719 310.359375 198.761719 C 310.679688 198.136719 310.839844 197.199219 310.839844 195.953125 C 310.839844 194.699219 310.679688 193.757812 310.359375 193.136719 C 310.039062 192.511719 309.5625 192.199219 308.921875 192.199219 Z M 308.921875 191.222656 C 309.945312 191.222656 310.722656 191.625 311.261719 192.433594 C 311.800781 193.242188 312.070312 194.414062 312.070312 195.953125 C 312.070312 197.484375 311.800781 198.65625 311.261719 199.464844 C 310.722656 200.273438 309.945312 200.675781 308.921875 200.675781 C 307.902344 200.675781 307.121094 200.273438 306.582031 199.464844 C 306.042969 198.65625 305.773438 197.484375 305.773438 195.953125 C 305.773438 194.414062 306.042969 193.242188 306.582031 192.433594 C 307.121094 191.625 307.902344 191.222656 308.921875 191.222656 Z M 308.921875 191.222656 "/>
<path style=" stroke:none;fill-rule:nonzero;fill:rgb(0%,0%,0%);fill-opacity:1;" d="M 166.902344 213.898438 L 166.902344 214.445312 L 161.738281 214.445312 C 161.785156 215.21875 162.019531 215.808594 162.4375 216.214844 C 162.851562 216.617188 163.433594 216.820312 164.179688 216.820312 C 164.609375 216.820312 165.027344 216.769531 165.433594 216.664062 C 165.835938 216.558594 166.238281 216.398438 166.640625 216.1875 L 166.640625 217.25 C 166.234375 217.417969 165.820312 217.550781 165.398438 217.640625 C 164.976562 217.730469 164.546875 217.773438 164.113281 217.773438 C 163.019531 217.773438 162.15625 217.457031 161.519531 216.824219 C 160.882812 216.1875 160.566406 215.328125 160.566406 214.246094 C 160.566406 213.125 160.867188 212.238281 161.472656 211.582031 C 162.074219 210.925781 162.890625 210.597656 163.917969 210.597656 C 164.835938 210.597656 165.5625 210.890625 166.097656 211.484375 C 166.632812 212.074219 166.902344 212.878906 166.902344 213.898438 Z M 165.777344 213.566406 C 165.769531 212.953125 165.597656 212.464844 165.261719 212.097656 C 164.925781 211.730469 164.480469 211.546875 163.929688 211.546875 C 163.300781 211.546875 162.800781 211.722656 162.425781 212.078125 C 162.046875 212.433594 161.832031 212.929688 161.773438 213.574219 Z M 165.777344 213.566406 "/>
<path style=" stroke:none;fill-rule:nonzero;fill:rgb(0%,0%,0%);fill-opacity:1;" d="M 169.828125 216.570312 L 169.828125 220.195312 L 168.699219 220.195312 L 168.699219 210.761719 L 169.828125 210.761719 L 169.828125 211.796875 C 170.066406 211.390625 170.363281 211.089844 170.722656 210.894531 C 171.085938 210.695312 171.515625 210.597656 172.015625 210.597656 C 172.84375 210.597656 173.519531 210.925781 174.039062 211.585938 C 174.558594 212.242188 174.816406 213.109375 174.816406 214.183594 C 174.816406 215.257812 174.558594 216.125 174.039062 216.785156 C 173.519531 217.445312 172.84375 217.773438 172.015625 217.773438 C 171.515625 217.773438 171.085938 217.675781 170.722656 217.476562 C 170.363281 217.277344 170.066406 216.976562 169.828125 216.570312 Z M 173.652344 214.183594 C 173.652344 213.359375 173.480469 212.710938 173.140625 212.242188 C 172.800781 211.769531 172.335938 211.535156 171.742188 211.535156 C 171.144531 211.535156 170.679688 211.769531 170.339844 212.242188 C 170 212.710938 169.828125 213.359375 169.828125 214.183594 C 169.828125 215.007812 170 215.65625 170.339844 216.128906 C 170.679688 216.597656 171.144531 216.832031 171.742188 216.832031 C 172.335938 216.832031 172.800781 216.597656 173.140625 216.128906 C 173.480469 215.65625 173.652344 215.007812 173.652344 214.183594 Z M 173.652344 214.183594 "/>
<path style=" stroke:none;fill-rule:nonzero;fill:rgb(0%,0%,0%);fill-opacity:1;" d="M 179.328125 211.546875 C 178.726562 211.546875 178.25 211.78125 177.898438 212.253906 C 177.546875 212.722656 177.375 213.367188 177.375 214.183594 C 177.375 215 177.546875 215.644531 177.894531 216.117188 C 178.242188 216.585938 178.722656 216.820312 179.328125 216.820312 C 179.925781 216.820312 180.398438 216.585938 180.75 216.113281 C 181.097656 215.640625 181.273438 214.996094 181.273438 214.183594 C 181.273438 213.375 181.097656 212.730469 180.75 212.257812 C 180.398438 211.785156 179.925781 211.546875 179.328125 211.546875 Z M 179.328125 210.597656 C 180.304688 210.597656 181.070312 210.914062 181.628906 211.550781 C 182.1875 212.183594 182.464844 213.0625 182.464844 214.183594 C 182.464844 215.300781 182.1875 216.179688 181.628906 216.820312 C 181.070312 217.457031 180.304688 217.773438 179.328125 217.773438 C 178.347656 217.773438 177.578125 217.457031 177.023438 216.820312 C 176.46875 216.179688 176.191406 215.300781 176.191406 214.183594 C 176.191406 213.0625 176.46875 212.183594 177.023438 211.550781 C 177.578125 210.914062 178.347656 210.597656 179.328125 210.597656 Z M 179.328125 210.597656 "/>
<path style=" stroke:none;fill-rule:nonzero;fill:rgb(0%,0%,0%);fill-opacity:1;" d="M 189.246094 211.023438 L 189.246094 212.074219 C 188.925781 211.898438 188.609375 211.765625 188.289062 211.679688 C 187.972656 211.589844 187.648438 211.546875 187.324219 211.546875 C 186.59375 211.546875 186.027344 211.777344 185.625 212.242188 C 185.222656 212.703125 185.019531 213.347656 185.019531 214.183594 C 185.019531 215.019531 185.222656 215.667969 185.625 216.128906 C 186.027344 216.589844 186.59375 216.820312 187.324219 216.820312 C 187.648438 216.820312 187.972656 216.777344 188.289062 216.691406 C 188.609375 216.601562 188.925781 216.472656 189.246094 216.296875 L 189.246094 217.335938 C 188.929688 217.480469 188.605469 217.589844 188.269531 217.664062 C 187.9375 217.738281 187.578125 217.773438 187.199219 217.773438 C 186.171875 217.773438 185.351562 217.449219 184.746094 216.804688 C 184.140625 216.15625 183.835938 215.28125 183.835938 214.183594 C 183.835938 213.070312 184.144531 212.191406 184.753906 211.554688 C 185.367188 210.914062 186.207031 210.597656 187.273438 210.597656 C 187.621094 210.597656 187.957031 210.632812 188.285156 210.703125 C 188.617188 210.773438 188.933594 210.878906 189.246094 211.023438 Z M 189.246094 211.023438 "/>
<path style=" stroke:none;fill-rule:nonzero;fill:rgb(0%,0%,0%);fill-opacity:1;" d="M 196.882812 213.46875 L 196.882812 217.597656 L 195.757812 217.597656 L 195.757812 213.507812 C 195.757812 212.859375 195.632812 212.375 195.378906 212.054688 C 195.128906 211.734375 194.75 211.574219 194.246094 211.574219 C 193.636719 211.574219 193.160156 211.765625 192.808594 212.152344 C 192.460938 212.539062 192.285156 213.066406 192.285156 213.734375 L 192.285156 217.597656 L 191.15625 217.597656 L 191.15625 208.097656 L 192.285156 208.097656 L 192.285156 211.824219 C 192.554688 211.410156 192.871094 211.105469 193.234375 210.902344 C 193.597656 210.699219 194.019531 210.597656 194.496094 210.597656 C 195.28125 210.597656 195.875 210.839844 196.277344 211.324219 C 196.679688 211.808594 196.882812 212.523438 196.882812 213.46875 Z M 196.882812 213.46875 "/>
<g clip-path="url(#clip6)" clip-rule="nonzero">
<path style="fill:none;stroke-width:0.8;stroke-linecap:square;stroke-linejoin:round;stroke:rgb(69.019608%,69.019608%,69.019608%);stroke-opacity:1;stroke-miterlimit:4;" d="M 45.478125 66.04375 L 240.778125 66.04375 " transform="matrix(1.25,0,0,1.25,0.000000000000028422,0)"/>
</g>
<path style="fill:none;stroke-width:0.8;stroke-linecap:butt;stroke-linejoin:round;stroke:rgb(0%,0%,0%);stroke-opacity:1;stroke-miterlimit:4;" d="M -0.000000000000021316 0.000255 L -3.5 0.000255 " transform="matrix(1.25,0,0,1.25,56.847656,82.554369)"/>
<path style=" stroke:none;fill-rule:nonzero;fill:rgb(0%,0%,0%);fill-opacity:1;" d="M 27.648438 86.171875 L 29.664062 86.171875 L 29.664062 79.21875 L 27.472656 79.65625 L 27.472656 78.535156 L 29.652344 78.09375 L 30.882812 78.09375 L 30.882812 86.171875 L 32.898438 86.171875 L 32.898438 87.207031 L 27.648438 87.207031 Z M 27.648438 86.171875 "/>
<path style=" stroke:none;fill-rule:nonzero;fill:rgb(0%,0%,0%);fill-opacity:1;" d="M 38.023438 78.90625 C 37.390625 78.90625 36.910156 79.21875 36.589844 79.84375 C 36.273438 80.46875 36.113281 81.40625 36.113281 82.660156 C 36.113281 83.910156 36.273438 84.847656 36.589844 85.472656 C 36.910156 86.097656 37.390625 86.410156 38.023438 86.410156 C 38.664062 86.410156 39.140625 86.097656 39.460938 85.472656 C 39.78125 84.847656 39.941406 83.910156 39.941406 82.660156 C 39.941406 81.40625 39.78125 80.46875 39.460938 79.84375 C 39.140625 79.21875 38.664062 78.90625 38.023438 78.90625 Z M 38.023438 77.929688 C 39.046875 77.929688 39.824219 78.335938 40.363281 79.144531 C 40.902344 79.949219 41.171875 81.125 41.171875 82.660156 C 41.171875 84.195312 40.902344 85.367188 40.363281 86.175781 C 39.824219 86.980469 39.046875 87.386719 38.023438 87.386719 C 37.003906 87.386719 36.222656 86.980469 35.683594 86.175781 C 35.144531 85.367188 34.875 84.195312 34.875 82.660156 C 34.875 81.125 35.144531 79.949219 35.683594 79.144531 C 36.222656 78.335938 37.003906 77.929688 38.023438 77.929688 Z M 38.023438 77.929688 "/>
<path style=" stroke:none;fill-rule:nonzero;fill:rgb(0%,0%,0%);fill-opacity:1;" d="M 44.902344 76.613281 C 44.460938 76.613281 44.125 76.832031 43.902344 77.269531 C 43.679688 77.703125 43.566406 78.363281 43.566406 79.238281 C 43.566406 80.113281 43.679688 80.769531 43.902344 81.207031 C 44.125 81.644531 44.460938 81.863281 44.902344 81.863281 C 45.351562 81.863281 45.6875 81.644531 45.910156 81.207031 C 46.132812 80.769531 46.246094 80.113281 46.246094 79.238281 C 46.246094 78.363281 46.132812 77.703125 45.910156 77.269531 C 45.6875 76.832031 45.351562 76.613281 44.902344 76.613281 Z M 44.902344 75.929688 C 45.621094 75.929688 46.164062 76.210938 46.542969 76.777344 C 46.921875 77.34375 47.109375 78.164062 47.109375 79.238281 C 47.109375 80.3125 46.921875 81.132812 46.542969 81.699219 C 46.164062 82.265625 45.621094 82.546875 44.902344 82.546875 C 44.1875 82.546875 43.644531 82.265625 43.265625 81.699219 C 42.890625 81.132812 42.699219 80.3125 42.699219 79.238281 C 42.699219 78.164062 42.890625 77.34375 43.265625 76.777344 C 43.644531 76.210938 44.1875 75.929688 44.902344 75.929688 Z M 44.902344 75.929688 "/>
<path style="fill:none;stroke-width:0.6;stroke-linecap:butt;stroke-linejoin:round;stroke:rgb(0%,0%,0%);stroke-opacity:1;stroke-miterlimit:4;" d="M -0.000000000000021316 -0.000006 L -2 -0.000006 " transform="matrix(1.25,0,0,1.25,56.847656,162.402351)"/>
<path style="fill:none;stroke-width:0.6;stroke-linecap:butt;stroke-linejoin:round;stroke:rgb(0%,0%,0%);stroke-opacity:1;stroke-miterlimit:4;" d="M -0.000000000000021316 -0.000897 L -2 -0.000897 " transform="matrix(1.25,0,0,1.25,56.847656,142.286277)"/>
<path style="fill:none;stroke-width:0.6;stroke-linecap:butt;stroke-linejoin:round;stroke:rgb(0%,0%,0%);stroke-opacity:1;stroke-miterlimit:4;" d="M -0.000000000000021316 0.001543 L -2 0.001543 " transform="matrix(1.25,0,0,1.25,56.847656,128.013696)"/>
<path style="fill:none;stroke-width:0.6;stroke-linecap:butt;stroke-linejoin:round;stroke:rgb(0%,0%,0%);stroke-opacity:1;stroke-miterlimit:4;" d="M -0.000000000000021316 -0.001293 L -2 -0.001293 " transform="matrix(1.25,0,0,1.25,56.847656,116.943022)"/>
<path style="fill:none;stroke-width:0.6;stroke-linecap:butt;stroke-linejoin:round;stroke:rgb(0%,0%,0%);stroke-opacity:1;stroke-miterlimit:4;" d="M -0.000000000000021316 0.000651 L -2 0.000651 " transform="matrix(1.25,0,0,1.25,56.847656,107.897624)"/>
<path style="fill:none;stroke-width:0.6;stroke-linecap:butt;stroke-linejoin:round;stroke:rgb(0%,0%,0%);stroke-opacity:1;stroke-miterlimit:4;" d="M -0.000000000000021316 0.000122 L -2 0.000122 " transform="matrix(1.25,0,0,1.25,56.847656,100.249848)"/>
<path style="fill:none;stroke-width:0.6;stroke-linecap:butt;stroke-linejoin:round;stroke:rgb(0%,0%,0%);stroke-opacity:1;stroke-miterlimit:4;" d="M -0.000000000000021316 -0.000034 L -2 -0.000034 " transform="matrix(1.25,0,0,1.25,56.847656,93.625043)"/>
<path style="fill:none;stroke-width:0.6;stroke-linecap:butt;stroke-linejoin:round;stroke:rgb(0%,0%,0%);stroke-opacity:1;stroke-miterlimit:4;" d="M -0.000000000000021316 -0.00024 L -2 -0.00024 " transform="matrix(1.25,0,0,1.25,56.847656,87.78155)"/>
<path style="fill:none;stroke-width:0.6;stroke-linecap:butt;stroke-linejoin:round;stroke:rgb(0%,0%,0%);stroke-opacity:1;stroke-miterlimit:4;" d="M -0.000000000000021316 -0.001321 L -2 -0.001321 " transform="matrix(1.25,0,0,1.25,56.847656,48.165714)"/>
<path style="fill:none;stroke-width:0.6;stroke-linecap:butt;stroke-linejoin:round;stroke:rgb(0%,0%,0%);stroke-opacity:1;stroke-miterlimit:4;" d="M -0.000000000000021316 0.000913 L -2 0.000913 " transform="matrix(1.25,0,0,1.25,56.847656,28.04964)"/>
<path style="fill:none;stroke-width:0.6;stroke-linecap:butt;stroke-linejoin:round;stroke:rgb(0%,0%,0%);stroke-opacity:1;stroke-miterlimit:4;" d="M -0.000000000000021316 0.000228 L -2 0.000228 " transform="matrix(1.25,0,0,1.25,56.847656,13.777059)"/>
<path style=" stroke:none;fill-rule:nonzero;fill:rgb(0%,0%,0%);fill-opacity:1;" d="M 12.710938 106.136719 C 12.636719 106.261719 12.585938 106.398438 12.550781 106.546875 C 12.515625 106.695312 12.496094 106.859375 12.496094 107.039062 C 12.496094 107.671875 12.703125 108.160156 13.117188 108.5 C 13.53125 108.839844 14.121094 109.011719 14.894531 109.011719 L 18.496094 109.011719 L 18.496094 110.140625 L 11.660156 110.140625 L 11.660156 109.011719 L 12.722656 109.011719 C 12.308594 108.773438 12 108.464844 11.800781 108.089844 C 11.597656 107.710938 11.496094 107.25 11.496094 106.707031 C 11.496094 106.632812 11.503906 106.546875 11.511719 106.453125 C 11.523438 106.359375 11.539062 106.253906 11.558594 106.140625 Z M 12.710938 106.136719 "/>
<path style=" stroke:none;fill-rule:nonzero;fill:rgb(0%,0%,0%);fill-opacity:1;" d="M 12.972656 99.855469 C 12.46875 99.574219 12.097656 99.238281 11.855469 98.847656 C 11.617188 98.457031 11.496094 97.996094 11.496094 97.46875 C 11.496094 96.753906 11.746094 96.207031 12.246094 95.820312 C 12.742188 95.433594 13.453125 95.238281 14.371094 95.238281 L 18.496094 95.238281 L 18.496094 96.367188 L 14.40625 96.367188 C 13.753906 96.367188 13.265625 96.484375 12.949219 96.71875 C 12.632812 96.949219 12.472656 97.300781 12.472656 97.777344 C 12.472656 98.359375 12.667969 98.820312 13.054688 99.160156 C 13.441406 99.496094 13.964844 99.664062 14.632812 99.664062 L 18.496094 99.664062 L 18.496094 100.792969 L 14.40625 100.792969 C 13.75 100.792969 13.261719 100.910156 12.945312 101.140625 C 12.632812 101.371094 12.472656 101.730469 12.472656 102.214844 C 12.472656 102.789062 12.667969 103.246094 13.054688 103.585938 C 13.445312 103.921875 13.96875 104.089844 14.632812 104.089844 L 18.496094 104.089844 L 18.496094 105.21875 L 11.660156 105.21875 L 11.660156 104.089844 L 12.722656 104.089844 C 12.304688 103.832031 11.996094 103.527344 11.796875 103.167969 C 11.597656 102.808594 11.496094 102.386719 11.496094 101.894531 C 11.496094 101.394531 11.625 100.972656 11.875 100.625 C 12.128906 100.277344 12.492188 100.019531 12.972656 99.855469 Z M 12.972656 99.855469 "/>
<path style=" stroke:none;fill-rule:nonzero;fill:rgb(0%,0%,0%);fill-opacity:1;" d="M 11.863281 88.640625 L 12.925781 88.640625 C 12.761719 88.957031 12.640625 89.289062 12.558594 89.628906 C 12.476562 89.972656 12.4375 90.324219 12.4375 90.691406 C 12.4375 91.25 12.523438 91.667969 12.691406 91.945312 C 12.863281 92.226562 13.121094 92.363281 13.460938 92.363281 C 13.722656 92.363281 13.925781 92.265625 14.074219 92.066406 C 14.222656 91.867188 14.367188 91.464844 14.5 90.863281 L 14.585938 90.476562 C 14.757812 89.679688 14.996094 89.113281 15.308594 88.777344 C 15.621094 88.441406 16.054688 88.273438 16.609375 88.273438 C 17.246094 88.273438 17.75 88.527344 18.121094 89.027344 C 18.492188 89.53125 18.675781 90.222656 18.675781 91.101562 C 18.675781 91.46875 18.640625 91.847656 18.566406 92.246094 C 18.496094 92.644531 18.390625 93.0625 18.246094 93.5 L 17.085938 93.5 C 17.304688 93.085938 17.464844 92.675781 17.574219 92.273438 C 17.679688 91.871094 17.734375 91.472656 17.734375 91.074219 C 17.734375 90.546875 17.644531 90.140625 17.460938 89.855469 C 17.28125 89.570312 17.027344 89.429688 16.695312 89.429688 C 16.390625 89.429688 16.160156 89.53125 15.996094 89.738281 C 15.832031 89.941406 15.675781 90.394531 15.523438 91.089844 L 15.433594 91.480469 C 15.289062 92.175781 15.0625 92.679688 14.757812 92.988281 C 14.457031 93.296875 14.039062 93.449219 13.511719 93.449219 C 12.867188 93.449219 12.371094 93.222656 12.023438 92.765625 C 11.671875 92.3125 11.496094 91.664062 11.496094 90.824219 C 11.496094 90.410156 11.527344 90.023438 11.589844 89.65625 C 11.648438 89.289062 11.742188 88.949219 11.863281 88.640625 Z M 11.863281 88.640625 "/>
<path style=" stroke:none;fill-rule:nonzero;fill:rgb(0%,0%,0%);fill-opacity:1;" d="M 14.796875 80.640625 L 15.347656 80.640625 L 15.347656 85.804688 C 16.121094 85.753906 16.710938 85.519531 17.113281 85.105469 C 17.519531 84.6875 17.722656 84.105469 17.722656 83.363281 C 17.722656 82.929688 17.667969 82.511719 17.5625 82.109375 C 17.457031 81.703125 17.300781 81.300781 17.085938 80.902344 L 18.148438 80.902344 C 18.320312 81.304688 18.449219 81.71875 18.539062 82.140625 C 18.628906 82.566406 18.675781 82.992188 18.675781 83.429688 C 18.675781 84.519531 18.359375 85.382812 17.722656 86.019531 C 17.089844 86.65625 16.230469 86.976562 15.144531 86.976562 C 14.027344 86.976562 13.140625 86.671875 12.484375 86.070312 C 11.828125 85.464844 11.496094 84.648438 11.496094 83.625 C 11.496094 82.703125 11.792969 81.976562 12.386719 81.441406 C 12.976562 80.90625 13.78125 80.640625 14.796875 80.640625 Z M 14.46875 81.761719 C 13.855469 81.769531 13.367188 81.941406 13 82.277344 C 12.632812 82.613281 12.449219 83.058594 12.449219 83.613281 C 12.449219 84.238281 12.625 84.738281 12.980469 85.117188 C 13.335938 85.492188 13.832031 85.710938 14.476562 85.765625 Z M 14.46875 81.761719 "/>
<g clip-path="url(#clip7)" clip-rule="nonzero">
<path style="fill:none;stroke-width:1.5;stroke-linecap:square;stroke-linejoin:round;stroke:rgb(12.156863%,46.666667%,70.588235%);stroke-opacity:1;stroke-miterlimit:4;" d="M 45.478125 13.646875 L 47.45 21.728125 L 49.425 27.328125 L 51.396875 31.78125 L 53.36875 35.571875 L 55.340625 38.940625 L 57.315625 41.996875 L 59.2875 44.8375 L 61.259375 47.49375 L 63.23125 50.01875 L 65.20625 52.425 L 67.178125 54.7125 L 69.15 56.9375 L 71.125 59.09375 L 73.096875 61.184375 L 75.06875 63.225 L 77.040625 65.221875 L 79.015625 67.16875 L 80.9875 69.103125 L 82.959375 70.98125 L 84.93125 72.85 L 86.90625 74.690625 L 88.878125 76.503125 L 90.85 78.290625 L 92.825 80.071875 L 94.796875 81.8375 L 96.76875 83.56875 L 98.740625 85.309375 L 100.715625 87.0125 L 102.6875 88.7125 L 104.659375 90.375 L 106.63125 92.04375 L 108.60625 93.70625 L 110.578125 95.35625 L 112.55 96.965625 L 114.525 98.565625 L 116.496875 100.134375 L 118.46875 101.665625 L 120.440625 103.209375 L 122.415625 104.73125 L 124.3875 106.2375 L 126.359375 107.759375 L 128.33125 109.1875 L 130.30625 110.590625 L 132.278125 111.946875 L 134.25 113.26875 L 136.225 114.609375 L 138.196875 115.890625 L 140.16875 117.14375 L 142.140625 118.346875 L 144.115625 119.5125 L 146.0875 120.6125 L 148.059375 121.7 L 150.03125 122.753125 L 152.00625 123.746875 L 153.978125 124.66875 L 155.95 125.584375 L 157.925 126.434375 L 159.896875 127.25625 L 161.86875 128.009375 L 163.840625 128.7125 L 165.815625 129.3875 L 167.7875 130.015625 L 169.759375 130.578125 L 171.73125 131.128125 L 173.70625 131.628125 L 175.678125 132.10625 L 177.65 132.525 L 179.625 132.91875 L 181.596875 133.303125 L 183.56875 133.646875 L 185.540625 133.953125 L 187.515625 134.21875 L 189.4875 134.459375 L 191.459375 134.690625 L 193.43125 134.903125 L 195.40625 135.08125 L 197.378125 135.24375 L 199.35 135.39375 L 201.325 135.528125 L 203.296875 135.653125 L 205.26875 135.75625 L 207.240625 135.85 L 209.215625 135.928125 L 211.1875 135.99375 L 215.13125 136.13125 L 217.10625 136.178125 L 221.05 136.259375 L 223.025 136.29375 L 224.996875 136.3 L 226.96875 136.3 L 228.940625 136.30625 L 230.915625 136.328125 L 232.8875 136.3375 L 234.859375 136.365625 L 236.83125 136.4 L 238.80625 136.3875 L 240.778125 136.4 " transform="matrix(1.25,0,0,1.25,0.000000000000028422,0)"/>
</g>
<g clip-path="url(#clip8)" clip-rule="nonzero">
<path style="fill:none;stroke-width:1.5;stroke-linecap:butt;stroke-linejoin:round;stroke:rgb(74.901961%,0%,74.901961%);stroke-opacity:1;stroke-dasharray:5.55,2.4;stroke-miterlimit:4;" d="M 45.478125 13.5 L 47.45 21.540625 L 49.425 27.121875 L 51.396875 31.553125 L 53.36875 35.325 L 55.340625 38.675 L 57.315625 41.709375 L 59.2875 44.534375 L 61.259375 47.178125 L 63.23125 49.684375 L 65.20625 52.078125 L 67.178125 54.353125 L 69.15 56.559375 L 71.125 58.703125 L 73.096875 60.78125 L 75.06875 62.803125 L 77.040625 64.790625 L 79.015625 66.725 L 80.9875 68.65 L 82.959375 70.5125 L 84.93125 72.371875 L 86.90625 74.203125 L 88.878125 76.00625 L 90.85 77.7875 L 92.825 79.5625 L 94.796875 81.31875 L 96.76875 83.046875 L 98.740625 84.7875 L 100.715625 86.49375 L 102.6875 88.190625 L 104.659375 89.85 L 106.63125 91.525 L 108.60625 93.19375 L 110.578125 94.85625 L 112.55 96.48125 L 114.525 98.09375 L 116.496875 99.684375 L 118.46875 101.240625 L 120.440625 102.8125 L 122.415625 104.365625 L 124.3875 105.9125 L 126.359375 107.475 L 128.33125 108.953125 L 130.30625 110.4125 L 132.278125 111.825 L 134.25 113.215625 L 136.225 114.625 L 138.196875 115.98125 L 140.16875 117.315625 L 142.140625 118.609375 L 144.115625 119.86875 L 146.0875 121.06875 L 148.059375 122.259375 L 150.03125 123.428125 L 152.00625 124.534375 L 153.978125 125.571875 L 155.95 126.603125 L 157.925 127.571875 L 159.896875 128.515625 L 161.86875 129.384375 L 163.840625 130.209375 L 165.815625 131.00625 L 167.7875 131.75 L 169.759375 132.425 L 171.73125 133.0875 L 173.70625 133.690625 L 175.678125 134.26875 L 177.65 134.78125 L 179.625 135.290625 L 181.596875 135.75625 L 183.56875 136.1875 L 185.540625 136.565625 L 187.515625 136.903125 L 189.4875 137.209375 L 191.459375 137.49375 L 193.43125 137.771875 L 195.40625 137.99375 L 197.378125 138.190625 L 199.35 138.384375 L 201.325 138.55625 L 203.296875 138.703125 L 205.26875 138.821875 L 207.240625 138.93125 L 209.215625 139.0125 L 211.1875 139.090625 L 213.159375 139.171875 L 215.13125 139.271875 L 217.10625 139.309375 L 219.078125 139.346875 L 221.05 139.39375 L 223.025 139.43125 L 226.96875 139.4375 L 228.940625 139.43125 L 230.915625 139.45 L 232.8875 139.453125 L 234.859375 139.478125 L 236.83125 139.5 L 238.80625 139.46875 L 240.778125 139.46875 " transform="matrix(1.25,0,0,1.25,0.000000000000028422,0)"/>
</g>
<path style="fill:none;stroke-width:0.8;stroke-linecap:square;stroke-linejoin:miter;stroke:rgb(0%,0%,0%);stroke-opacity:1;stroke-miterlimit:4;" d="M 45.478125 145.8 L 45.478125 7.2 " transform="matrix(1.25,0,0,1.25,0.000000000000028422,0)"/>
<path style="fill:none;stroke-width:0.8;stroke-linecap:square;stroke-linejoin:miter;stroke:rgb(0%,0%,0%);stroke-opacity:1;stroke-miterlimit:4;" d="M 240.778125 145.8 L 240.778125 7.2 " transform="matrix(1.25,0,0,1.25,0.000000000000028422,0)"/>
<path style="fill:none;stroke-width:0.8;stroke-linecap:square;stroke-linejoin:miter;stroke:rgb(0%,0%,0%);stroke-opacity:1;stroke-miterlimit:4;" d="M 45.478125 145.8 L 240.778125 145.8 " transform="matrix(1.25,0,0,1.25,0.000000000000028422,0)"/>
<path style="fill:none;stroke-width:0.8;stroke-linecap:square;stroke-linejoin:miter;stroke:rgb(0%,0%,0%);stroke-opacity:1;stroke-miterlimit:4;" d="M 45.478125 7.2 L 240.778125 7.2 " transform="matrix(1.25,0,0,1.25,0.000000000000028422,0)"/>
<use xlink:href="#surface5" mask="url(#mask0)"/>
<path style="fill:none;stroke-width:1.5;stroke-linecap:square;stroke-linejoin:round;stroke:rgb(12.156863%,46.666667%,70.588235%);stroke-opacity:1;stroke-miterlimit:4;" d="M 179.825 20.3 L 199.825 20.3 " transform="matrix(1.25,0,0,1.25,0.000000000000028422,0)"/>
<path style=" stroke:none;fill-rule:nonzero;fill:rgb(0%,0%,0%);fill-opacity:1;" d="M 262.070312 20.972656 L 262.070312 22.914062 L 264.382812 22.914062 L 264.382812 23.785156 L 262.070312 23.785156 L 262.070312 27.496094 C 262.070312 28.054688 262.148438 28.410156 262.300781 28.570312 C 262.453125 28.730469 262.761719 28.808594 263.230469 28.808594 L 264.382812 28.808594 L 264.382812 29.75 L 263.230469 29.75 C 262.363281 29.75 261.765625 29.585938 261.4375 29.265625 C 261.109375 28.941406 260.941406 28.351562 260.941406 27.496094 L 260.941406 23.785156 L 260.117188 23.785156 L 260.117188 22.914062 L 260.941406 22.914062 L 260.941406 20.972656 Z M 262.070312 20.972656 "/>
<path style=" stroke:none;fill-rule:nonzero;fill:rgb(0%,0%,0%);fill-opacity:1;" d="M 269.824219 23.960938 C 269.695312 23.886719 269.558594 23.835938 269.410156 23.800781 C 269.261719 23.765625 269.097656 23.75 268.921875 23.75 C 268.285156 23.75 267.796875 23.953125 267.457031 24.367188 C 267.117188 24.78125 266.949219 25.375 266.949219 26.148438 L 266.949219 29.75 L 265.820312 29.75 L 265.820312 22.914062 L 266.949219 22.914062 L 266.949219 23.976562 C 267.183594 23.558594 267.492188 23.25 267.871094 23.050781 C 268.25 22.847656 268.710938 22.75 269.25 22.75 C 269.328125 22.75 269.414062 22.753906 269.507812 22.765625 C 269.601562 22.773438 269.703125 22.789062 269.816406 22.808594 Z M 269.824219 23.960938 "/>
<path style=" stroke:none;fill-rule:nonzero;fill:rgb(0%,0%,0%);fill-opacity:1;" d="M 274.109375 26.3125 C 273.199219 26.3125 272.570312 26.417969 272.222656 26.625 C 271.871094 26.832031 271.695312 27.183594 271.695312 27.6875 C 271.695312 28.085938 271.828125 28.402344 272.089844 28.636719 C 272.355469 28.867188 272.710938 28.984375 273.160156 28.984375 C 273.785156 28.984375 274.285156 28.765625 274.660156 28.324219 C 275.039062 27.882812 275.226562 27.292969 275.226562 26.5625 L 275.226562 26.3125 Z M 276.347656 25.847656 L 276.347656 29.75 L 275.226562 29.75 L 275.226562 28.710938 C 274.96875 29.125 274.648438 29.429688 274.265625 29.628906 C 273.882812 29.828125 273.414062 29.925781 272.863281 29.925781 C 272.164062 29.925781 271.605469 29.730469 271.191406 29.335938 C 270.78125 28.941406 270.574219 28.417969 270.574219 27.757812 C 270.574219 26.988281 270.832031 26.410156 271.34375 26.019531 C 271.859375 25.628906 272.628906 25.433594 273.648438 25.433594 L 275.226562 25.433594 L 275.226562 25.324219 C 275.226562 24.804688 275.054688 24.40625 274.714844 24.125 C 274.375 23.839844 273.898438 23.699219 273.285156 23.699219 C 272.894531 23.699219 272.511719 23.746094 272.140625 23.839844 C 271.773438 23.933594 271.417969 24.074219 271.074219 24.261719 L 271.074219 23.222656 C 271.484375 23.0625 271.882812 22.945312 272.269531 22.867188 C 272.65625 22.789062 273.035156 22.75 273.398438 22.75 C 274.390625 22.75 275.128906 23.003906 275.617188 23.519531 C 276.105469 24.03125 276.347656 24.804688 276.347656 25.847656 Z M 276.347656 25.847656 "/>
<path style=" stroke:none;fill-rule:nonzero;fill:rgb(0%,0%,0%);fill-opacity:1;" d="M 278.660156 22.914062 L 279.785156 22.914062 L 279.785156 29.75 L 278.660156 29.75 Z M 278.660156 20.25 L 279.785156 20.25 L 279.785156 21.675781 L 278.660156 21.675781 Z M 278.660156 20.25 "/>
<path style=" stroke:none;fill-rule:nonzero;fill:rgb(0%,0%,0%);fill-opacity:1;" d="M 287.816406 25.621094 L 287.816406 29.75 L 286.695312 29.75 L 286.695312 25.660156 C 286.695312 25.011719 286.566406 24.527344 286.316406 24.207031 C 286.0625 23.886719 285.683594 23.726562 285.179688 23.726562 C 284.574219 23.726562 284.09375 23.917969 283.746094 24.304688 C 283.394531 24.691406 283.21875 25.21875 283.21875 25.886719 L 283.21875 29.75 L 282.089844 29.75 L 282.089844 22.914062 L 283.21875 22.914062 L 283.21875 23.976562 C 283.488281 23.5625 283.804688 23.257812 284.167969 23.054688 C 284.535156 22.851562 284.953125 22.75 285.429688 22.75 C 286.214844 22.75 286.808594 22.992188 287.210938 23.476562 C 287.617188 23.960938 287.816406 24.675781 287.816406 25.621094 Z M 287.816406 25.621094 "/>
<path style="fill:none;stroke-width:1.5;stroke-linecap:butt;stroke-linejoin:round;stroke:rgb(74.901961%,0%,74.901961%);stroke-opacity:1;stroke-dasharray:5.55,2.4;stroke-miterlimit:4;" d="M 179.825 34.975 L 199.825 34.975 " transform="matrix(1.25,0,0,1.25,0.000000000000028422,0)"/>
<path style=" stroke:none;fill-rule:nonzero;fill:rgb(0%,0%,0%);fill-opacity:1;" d="M 260.15625 41.257812 L 261.34375 41.257812 L 263.480469 46.996094 L 265.617188 41.257812 L 266.808594 41.257812 L 264.242188 48.09375 L 262.71875 48.09375 Z M 260.15625 41.257812 "/>
<path style=" stroke:none;fill-rule:nonzero;fill:rgb(0%,0%,0%);fill-opacity:1;" d="M 271.464844 44.660156 C 270.558594 44.660156 269.929688 44.761719 269.578125 44.96875 C 269.230469 45.175781 269.054688 45.53125 269.054688 46.03125 C 269.054688 46.429688 269.183594 46.746094 269.449219 46.980469 C 269.710938 47.214844 270.066406 47.332031 270.519531 47.332031 C 271.140625 47.332031 271.640625 47.109375 272.019531 46.667969 C 272.394531 46.226562 272.582031 45.640625 272.582031 44.910156 L 272.582031 44.660156 Z M 273.707031 44.195312 L 273.707031 48.09375 L 272.582031 48.09375 L 272.582031 47.058594 C 272.328125 47.472656 272.007812 47.777344 271.625 47.976562 C 271.242188 48.175781 270.773438 48.273438 270.21875 48.273438 C 269.519531 48.273438 268.964844 48.078125 268.550781 47.683594 C 268.136719 47.289062 267.929688 46.765625 267.929688 46.105469 C 267.929688 45.335938 268.1875 44.757812 268.703125 44.367188 C 269.21875 43.976562 269.984375 43.78125 271.007812 43.78125 L 272.582031 43.78125 L 272.582031 43.667969 C 272.582031 43.152344 272.414062 42.753906 272.074219 42.46875 C 271.734375 42.1875 271.257812 42.046875 270.640625 42.046875 C 270.25 42.046875 269.871094 42.09375 269.5 42.1875 C 269.128906 42.28125 268.773438 42.421875 268.433594 42.609375 L 268.433594 41.570312 C 268.84375 41.410156 269.242188 41.292969 269.628906 41.214844 C 270.015625 41.136719 270.390625 41.09375 270.757812 41.09375 C 271.746094 41.09375 272.484375 41.351562 272.972656 41.863281 C 273.460938 42.375 273.707031 43.152344 273.707031 44.195312 Z M 273.707031 44.195312 "/>
<path style=" stroke:none;fill-rule:nonzero;fill:rgb(0%,0%,0%);fill-opacity:1;" d="M 276.019531 38.597656 L 277.140625 38.597656 L 277.140625 48.09375 L 276.019531 48.09375 Z M 276.019531 38.597656 "/>
<path style=" stroke:none;fill-rule:nonzero;fill:rgb(0%,0%,0%);fill-opacity:1;" d="M 279.492188 41.257812 L 280.613281 41.257812 L 280.613281 48.09375 L 279.492188 48.09375 Z M 279.492188 38.597656 L 280.613281 38.597656 L 280.613281 40.019531 L 279.492188 40.019531 Z M 279.492188 38.597656 "/>
<path style=" stroke:none;fill-rule:nonzero;fill:rgb(0%,0%,0%);fill-opacity:1;" d="M 287.460938 42.296875 L 287.460938 38.597656 L 288.585938 38.597656 L 288.585938 48.09375 L 287.460938 48.09375 L 287.460938 47.070312 C 287.226562 47.476562 286.929688 47.777344 286.566406 47.976562 C 286.207031 48.175781 285.777344 48.273438 285.269531 48.273438 C 284.445312 48.273438 283.773438 47.945312 283.253906 47.285156 C 282.734375 46.625 282.476562 45.757812 282.476562 44.683594 C 282.476562 43.609375 282.734375 42.742188 283.253906 42.082031 C 283.773438 41.425781 284.445312 41.09375 285.269531 41.09375 C 285.777344 41.09375 286.207031 41.195312 286.566406 41.390625 C 286.929688 41.589844 287.226562 41.890625 287.460938 42.296875 Z M 283.636719 44.683594 C 283.636719 45.507812 283.804688 46.15625 284.144531 46.625 C 284.484375 47.097656 284.953125 47.332031 285.546875 47.332031 C 286.140625 47.332031 286.605469 47.097656 286.949219 46.625 C 287.289062 46.15625 287.460938 45.507812 287.460938 44.683594 C 287.460938 43.859375 287.289062 43.210938 286.949219 42.738281 C 286.605469 42.269531 286.140625 42.035156 285.546875 42.035156 C 284.953125 42.035156 284.484375 42.269531 284.144531 42.738281 C 283.804688 43.210938 283.636719 43.859375 283.636719 44.683594 Z M 283.636719 44.683594 "/>
</g>
</svg>
