<?xml version="1.0" encoding="UTF-8"?>
<svg xmlns="http://www.w3.org/2000/svg" xmlns:xlink="http://www.w3.org/1999/xlink" width="304pt" height="229pt" viewBox="0 0 304 229" version="1.1">
<defs>
<clipPath id="clip1">
  <path d="M 61 9 L 63 9 L 63 182.25 L 61 182.25 Z M 61 9 "/>
</clipPath>
<clipPath id="clip2">
  <path d="M 137 9 L 140 9 L 140 182.25 L 137 182.25 Z M 137 9 "/>
</clipPath>
<clipPath id="clip3">
  <path d="M 214 9 L 216 9 L 216 182.25 L 214 182.25 Z M 214 9 "/>
</clipPath>
<clipPath id="clip4">
  <path d="M 290 9 L 293 9 L 293 182.25 L 290 182.25 Z M 290 9 "/>
</clipPath>
<clipPath id="clip5">
  <path d="M 50.753906 145 L 294.878906 145 L 294.878906 147 L 50.753906 147 Z M 50.753906 145 "/>
</clipPath>
<clipPath id="clip6">
  <path d="M 50.753906 97 L 294.878906 97 L 294.878906 100 L 50.753906 100 Z M 50.753906 97 "/>
</clipPath>
<clipPath id="clip7">
  <path d="M 50.753906 50 L 294.878906 50 L 294.878906 52 L 50.753906 52 Z M 50.753906 50 "/>
</clipPath>
<filter id="alpha" filterUnits="objectBoundingBox" x="0%" y="0%" width="100%" height="100%">
  <feColorMatrix type="matrix" in="SourceGraphic" values="0 0 0 0 1 0 0 0 0 1 0 0 0 0 1 0 0 0 1 0"/>
</filter>
<mask id="mask0">
  <g filter="url(#alpha)">
<rect x="0" y="0" width="304" height="229" style="fill:rgb(0%,0%,0%);fill-opacity:0.8;stroke:none;"/>
  </g>
</mask>
<clipPath id="clip8">
  <rect x="0" y="0" width="304" height="229"/>
</clipPath>
<g id="surface5" clip-path="url(#clip8)">
<path style="fill-rule:nonzero;fill:rgb(100%,100%,100%);fill-opacity:1;stroke-width:1;stroke-linecap:butt;stroke-linejoin:miter;stroke:rgb(80%,80%,80%);stroke-opacity:1;stroke-miterlimit:4;" d="M 47.603125 44.55625 L 172.153125 44.55625 C 173.4875 44.55625 174.153125 43.890625 174.153125 42.55625 L 174.153125 14.2 C 174.153125 12.865625 173.4875 12.2 172.153125 12.2 L 47.603125 12.2 C 46.26875 12.2 45.603125 12.865625 45.603125 14.2 L 45.603125 42.55625 C 45.603125 43.890625 46.26875 44.55625 47.603125 44.55625 Z M 47.603125 44.55625 " transform="matrix(1.25,0,0,1.25,0,0)"/>
</g>
</defs>
<g id="surface1">
<rect x="0" y="0" width="304" height="229" style="fill:rgb(100%,100%,100%);fill-opacity:1;stroke:none;"/>
<path style=" stroke:none;fill-rule:nonzero;fill:rgb(100%,100%,100%);fill-opacity:1;" d="M 50.753906 182.25 L 294.878906 182.25 L 294.878906 9 L 50.753906 9 Z M 50.753906 182.25 "/>
<g clip-path="url(#clip1)" clip-rule="nonzero">
<path style="fill:none;stroke-width:0.8;stroke-linecap:square;stroke-linejoin:round;stroke:rgb(69.019608%,69.019608%,69.019608%);stroke-opacity:1;stroke-miterlimit:4;" d="M 49.48125 145.8 L 49.48125 7.2 " transform="matrix(1.25,0,0,1.25,0,0)"/>
</g>
<path style="fill:none;stroke-width:0.8;stroke-linecap:butt;stroke-linejoin:round;stroke:rgb(0%,0%,0%);stroke-opacity:1;stroke-miterlimit:4;" d="M 0.000852 0 L 0.000852 3.5 " transform="matrix(1.25,0,0,1.25,61.850497,182.25)"/>
<path style=" stroke:none;fill-rule:nonzero;fill:rgb(0%,0%,0%);fill-opacity:1;" d="M 61.847656 192.199219 C 61.210938 192.199219 60.734375 192.511719 60.414062 193.136719 C 60.097656 193.757812 59.9375 194.699219 59.9375 195.953125 C 59.9375 197.199219 60.097656 198.136719 60.414062 198.761719 C 60.734375 199.386719 61.210938 199.699219 61.847656 199.699219 C 62.484375 199.699219 62.964844 199.386719 63.285156 198.761719 C 63.605469 198.136719 63.765625 197.199219 63.765625 195.953125 C 63.765625 194.699219 63.605469 193.757812 63.285156 193.136719 C 62.964844 192.511719 62.484375 192.199219 61.847656 192.199219 Z M 61.847656 191.222656 C 62.867188 191.222656 63.648438 191.625 64.1875 192.433594 C 64.726562 193.242188 64.996094 194.414062 64.996094 195.953125 C 64.996094 197.484375 64.726562 198.65625 64.1875 199.464844 C 63.648438 200.273438 62.867188 200.675781 61.847656 200.675781 C 60.824219 200.675781 60.046875 200.273438 59.507812 199.464844 C 58.96875 198.65625 58.699219 197.484375 58.699219 195.953125 C 58.699219 194.414062 58.96875 193.242188 59.507812 192.433594 C 60.046875 191.625 60.824219 191.222656 61.847656 191.222656 Z M 61.847656 191.222656 "/>
<g clip-path="url(#clip2)" clip-rule="nonzero">
<path style="fill:none;stroke-width:0.8;stroke-linecap:square;stroke-linejoin:round;stroke:rgb(69.019608%,69.019608%,69.019608%);stroke-opacity:1;stroke-miterlimit:4;" d="M 110.703125 145.8 L 110.703125 7.2 " transform="matrix(1.25,0,0,1.25,0,0)"/>
</g>
<path style="fill:none;stroke-width:0.8;stroke-linecap:butt;stroke-linejoin:round;stroke:rgb(0%,0%,0%);stroke-opacity:1;stroke-miterlimit:4;" d="M 0.000157 0 L 0.000157 3.5 " transform="matrix(1.25,0,0,1.25,138.37871,182.25)"/>
<path style=" stroke:none;fill-rule:nonzero;fill:rgb(0%,0%,0%);fill-opacity:1;" d="M 135.953125 199.460938 L 137.964844 199.460938 L 137.964844 192.507812 L 135.773438 192.949219 L 135.773438 191.824219 L 137.953125 191.386719 L 139.1875 191.386719 L 139.1875 199.460938 L 141.199219 199.460938 L 141.199219 200.5 L 135.953125 200.5 Z M 135.953125 199.460938 "/>
<g clip-path="url(#clip3)" clip-rule="nonzero">
<path style="fill:none;stroke-width:0.8;stroke-linecap:square;stroke-linejoin:round;stroke:rgb(69.019608%,69.019608%,69.019608%);stroke-opacity:1;stroke-miterlimit:4;" d="M 171.925 145.8 L 171.925 7.2 " transform="matrix(1.25,0,0,1.25,0,0)"/>
</g>
<path style="fill:none;stroke-width:0.8;stroke-linecap:butt;stroke-linejoin:round;stroke:rgb(0%,0%,0%);stroke-opacity:1;stroke-miterlimit:4;" d="M -0.000539 0 L -0.000539 3.5 " transform="matrix(1.25,0,0,1.25,214.906924,182.25)"/>
<path style=" stroke:none;fill-rule:nonzero;fill:rgb(0%,0%,0%);fill-opacity:1;" d="M 213.328125 199.460938 L 217.632812 199.460938 L 217.632812 200.5 L 211.847656 200.5 L 211.847656 199.460938 C 212.3125 198.976562 212.953125 198.328125 213.757812 197.511719 C 214.566406 196.695312 215.074219 196.167969 215.28125 195.933594 C 215.675781 195.488281 215.953125 195.113281 216.109375 194.808594 C 216.265625 194.5 216.34375 194.199219 216.34375 193.902344 C 216.34375 193.417969 216.175781 193.023438 215.835938 192.71875 C 215.496094 192.410156 215.050781 192.257812 214.507812 192.257812 C 214.121094 192.257812 213.710938 192.324219 213.28125 192.460938 C 212.855469 192.59375 212.394531 192.796875 211.90625 193.070312 L 211.90625 191.824219 C 212.402344 191.625 212.867188 191.476562 213.296875 191.375 C 213.730469 191.273438 214.125 191.222656 214.484375 191.222656 C 215.425781 191.222656 216.179688 191.457031 216.742188 191.929688 C 217.300781 192.402344 217.582031 193.03125 217.582031 193.820312 C 217.582031 194.195312 217.511719 194.550781 217.371094 194.886719 C 217.234375 195.222656 216.976562 195.617188 216.605469 196.074219 C 216.503906 196.191406 216.179688 196.53125 215.636719 197.097656 C 215.089844 197.660156 214.324219 198.449219 213.328125 199.460938 Z M 213.328125 199.460938 "/>
<g clip-path="url(#clip4)" clip-rule="nonzero">
<path style="fill:none;stroke-width:0.8;stroke-linecap:square;stroke-linejoin:round;stroke:rgb(69.019608%,69.019608%,69.019608%);stroke-opacity:1;stroke-miterlimit:4;" d="M 233.146875 145.8 L 233.146875 7.2 " transform="matrix(1.25,0,0,1.25,0,0)"/>
</g>
<path style="fill:none;stroke-width:0.8;stroke-linecap:butt;stroke-linejoin:round;stroke:rgb(0%,0%,0%);stroke-opacity:1;stroke-miterlimit:4;" d="M -0.001234 0 L -0.001234 3.5 " transform="matrix(1.25,0,0,1.25,291.435136,182.25)"/>
<path style=" stroke:none;fill-rule:nonzero;fill:rgb(0%,0%,0%);fill-opacity:1;" d="M 292.53125 195.585938 C 293.121094 195.710938 293.582031 195.972656 293.910156 196.375 C 294.242188 196.773438 294.410156 197.265625 294.410156 197.851562 C 294.410156 198.75 294.101562 199.445312 293.480469 199.9375 C 292.863281 200.429688 291.984375 200.675781 290.84375 200.675781 C 290.464844 200.675781 290.070312 200.636719 289.664062 200.5625 C 289.261719 200.488281 288.84375 200.375 288.410156 200.222656 L 288.410156 199.035156 C 288.753906 199.234375 289.125 199.382812 289.53125 199.484375 C 289.941406 199.585938 290.367188 199.636719 290.808594 199.636719 C 291.582031 199.636719 292.171875 199.484375 292.574219 199.179688 C 292.980469 198.875 293.183594 198.433594 293.183594 197.851562 C 293.183594 197.3125 292.996094 196.890625 292.617188 196.589844 C 292.242188 196.285156 291.71875 196.136719 291.046875 196.136719 L 289.984375 196.136719 L 289.984375 195.121094 L 291.097656 195.121094 C 291.703125 195.121094 292.167969 195 292.488281 194.757812 C 292.808594 194.515625 292.96875 194.167969 292.96875 193.710938 C 292.96875 193.242188 292.804688 192.886719 292.472656 192.636719 C 292.140625 192.382812 291.667969 192.257812 291.046875 192.257812 C 290.710938 192.257812 290.347656 192.296875 289.960938 192.371094 C 289.574219 192.441406 289.148438 192.554688 288.683594 192.710938 L 288.683594 191.613281 C 289.152344 191.480469 289.59375 191.382812 290 191.320312 C 290.410156 191.253906 290.796875 191.222656 291.15625 191.222656 C 292.09375 191.222656 292.835938 191.433594 293.378906 191.859375 C 293.925781 192.285156 294.195312 192.859375 294.195312 193.582031 C 294.195312 194.085938 294.050781 194.515625 293.761719 194.863281 C 293.472656 195.210938 293.0625 195.449219 292.53125 195.585938 Z M 292.53125 195.585938 "/>
<path style=" stroke:none;fill-rule:nonzero;fill:rgb(0%,0%,0%);fill-opacity:1;" d="M 175.976562 210.761719 L 173.503906 214.085938 L 176.105469 217.597656 L 174.78125 217.597656 L 172.789062 214.910156 L 170.800781 217.597656 L 169.476562 217.597656 L 172.132812 214.019531 L 169.703125 210.761719 L 171.027344 210.761719 L 172.839844 213.195312 L 174.652344 210.761719 Z M 175.976562 210.761719 "/>
<g clip-path="url(#clip5)" clip-rule="nonzero">
<path style="fill:none;stroke-width:0.8;stroke-linecap:square;stroke-linejoin:round;stroke:rgb(69.019608%,69.019608%,69.019608%);stroke-opacity:1;stroke-miterlimit:4;" d="M 40.603125 116.76875 L 235.903125 116.76875 " transform="matrix(1.25,0,0,1.25,0,0)"/>
</g>
<path style="fill:none;stroke-width:0.8;stroke-linecap:butt;stroke-linejoin:round;stroke:rgb(0%,0%,0%);stroke-opacity:1;stroke-miterlimit:4;" d="M 0.000000000000007105 -0.001244 L -3.5 -0.001244 " transform="matrix(1.25,0,0,1.25,50.753906,145.962492)"/>
<path style=" stroke:none;fill-rule:nonzero;fill:rgb(0%,0%,0%);fill-opacity:1;" d="M 38.023438 142.410156 C 37.390625 142.410156 36.910156 142.722656 36.589844 143.347656 C 36.273438 143.972656 36.113281 144.910156 36.113281 146.164062 C 36.113281 147.414062 36.273438 148.351562 36.589844 148.976562 C 36.910156 149.601562 37.390625 149.914062 38.023438 149.914062 C 38.664062 149.914062 39.140625 149.601562 39.460938 148.976562 C 39.78125 148.351562 39.941406 147.414062 39.941406 146.164062 C 39.941406 144.910156 39.78125 143.972656 39.460938 143.347656 C 39.140625 142.722656 38.664062 142.410156 38.023438 142.410156 Z M 38.023438 141.433594 C 39.046875 141.433594 39.824219 141.839844 40.363281 142.648438 C 40.902344 143.453125 41.171875 144.625 41.171875 146.164062 C 41.171875 147.699219 40.902344 148.871094 40.363281 149.679688 C 39.824219 150.484375 39.046875 150.890625 38.023438 150.890625 C 37.003906 150.890625 36.222656 150.484375 35.683594 149.679688 C 35.144531 148.871094 34.875 147.699219 34.875 146.164062 C 34.875 144.625 35.144531 143.453125 35.683594 142.648438 C 36.222656 141.839844 37.003906 141.433594 38.023438 141.433594 Z M 38.023438 141.433594 "/>
<g clip-path="url(#clip6)" clip-rule="nonzero">
<path style="fill:none;stroke-width:0.8;stroke-linecap:square;stroke-linejoin:round;stroke:rgb(69.019608%,69.019608%,69.019608%);stroke-opacity:1;stroke-miterlimit:4;" d="M 40.603125 78.8875 L 235.903125 78.8875 " transform="matrix(1.25,0,0,1.25,0,0)"/>
</g>
<path style="fill:none;stroke-width:0.8;stroke-linecap:butt;stroke-linejoin:round;stroke:rgb(0%,0%,0%);stroke-opacity:1;stroke-miterlimit:4;" d="M 0.000000000000007105 0.000849 L -3.5 0.000849 " transform="matrix(1.25,0,0,1.25,50.753906,98.608314)"/>
<path style=" stroke:none;fill-rule:nonzero;fill:rgb(0%,0%,0%);fill-opacity:1;" d="M 35.398438 94.242188 L 40.238281 94.242188 L 40.238281 95.28125 L 36.527344 95.28125 L 36.527344 97.515625 C 36.707031 97.453125 36.886719 97.410156 37.0625 97.378906 C 37.242188 97.347656 37.421875 97.332031 37.601562 97.332031 C 38.621094 97.332031 39.425781 97.613281 40.019531 98.167969 C 40.613281 98.726562 40.910156 99.480469 40.910156 100.433594 C 40.910156 101.414062 40.605469 102.175781 39.996094 102.71875 C 39.386719 103.261719 38.523438 103.535156 37.414062 103.535156 C 37.03125 103.535156 36.640625 103.503906 36.242188 103.4375 C 35.847656 103.371094 35.4375 103.273438 35.015625 103.144531 L 35.015625 101.902344 C 35.382812 102.101562 35.757812 102.25 36.148438 102.347656 C 36.539062 102.445312 36.953125 102.496094 37.386719 102.496094 C 38.09375 102.496094 38.648438 102.3125 39.058594 101.941406 C 39.472656 101.570312 39.675781 101.070312 39.675781 100.433594 C 39.675781 99.800781 39.472656 99.296875 39.058594 98.925781 C 38.648438 98.554688 38.09375 98.371094 37.386719 98.371094 C 37.058594 98.371094 36.730469 98.40625 36.402344 98.480469 C 36.074219 98.554688 35.742188 98.667969 35.398438 98.820312 Z M 35.398438 94.242188 "/>
<g clip-path="url(#clip7)" clip-rule="nonzero">
<path style="fill:none;stroke-width:0.8;stroke-linecap:square;stroke-linejoin:round;stroke:rgb(69.019608%,69.019608%,69.019608%);stroke-opacity:1;stroke-miterlimit:4;" d="M 40.603125 41.003125 L 235.903125 41.003125 " transform="matrix(1.25,0,0,1.25,0,0)"/>
</g>
<path style="fill:none;stroke-width:0.8;stroke-linecap:butt;stroke-linejoin:round;stroke:rgb(0%,0%,0%);stroke-opacity:1;stroke-miterlimit:4;" d="M 0.000000000000007105 -0.000182 L -3.5 -0.000182 " transform="matrix(1.25,0,0,1.25,50.753906,51.254134)"/>
<path style=" stroke:none;fill-rule:nonzero;fill:rgb(0%,0%,0%);fill-opacity:1;" d="M 27.648438 54.964844 L 29.660156 54.964844 L 29.660156 48.011719 L 27.46875 48.453125 L 27.46875 47.328125 L 29.648438 46.890625 L 30.882812 46.890625 L 30.882812 54.964844 L 32.894531 54.964844 L 32.894531 56.003906 L 27.648438 56.003906 Z M 27.648438 54.964844 "/>
<path style=" stroke:none;fill-rule:nonzero;fill:rgb(0%,0%,0%);fill-opacity:1;" d="M 38.023438 47.703125 C 37.390625 47.703125 36.910156 48.015625 36.589844 48.640625 C 36.273438 49.261719 36.113281 50.203125 36.113281 51.457031 C 36.113281 52.703125 36.273438 53.640625 36.589844 54.265625 C 36.910156 54.890625 37.390625 55.203125 38.023438 55.203125 C 38.664062 55.203125 39.140625 54.890625 39.460938 54.265625 C 39.78125 53.640625 39.941406 52.703125 39.941406 51.457031 C 39.941406 50.203125 39.78125 49.261719 39.460938 48.640625 C 39.140625 48.015625 38.664062 47.703125 38.023438 47.703125 Z M 38.023438 46.726562 C 39.046875 46.726562 39.824219 47.128906 40.363281 47.9375 C 40.902344 48.746094 41.171875 49.917969 41.171875 51.457031 C 41.171875 52.988281 40.902344 54.160156 40.363281 54.96875 C 39.824219 55.777344 39.046875 56.179688 38.023438 56.179688 C 37.003906 56.179688 36.222656 55.777344 35.683594 54.96875 C 35.144531 54.160156 34.875 52.988281 34.875 51.457031 C 34.875 49.917969 35.144531 48.746094 35.683594 47.9375 C 36.222656 47.128906 37.003906 46.726562 38.023438 46.726562 Z M 38.023438 46.726562 "/>
<path style=" stroke:none;fill-rule:nonzero;fill:rgb(0%,0%,0%);fill-opacity:1;" d="M 9 101.761719 L 9.933594 101.761719 L 9.933594 102.835938 C 9.933594 103.238281 10.015625 103.519531 10.179688 103.675781 C 10.34375 103.832031 10.636719 103.910156 11.058594 103.910156 L 11.660156 103.910156 L 11.660156 102.0625 L 12.535156 102.0625 L 12.535156 103.910156 L 18.496094 103.910156 L 18.496094 105.039062 L 12.535156 105.039062 L 12.535156 106.113281 L 11.660156 106.113281 L 11.660156 105.039062 L 11.183594 105.039062 C 10.425781 105.039062 9.871094 104.863281 9.523438 104.507812 C 9.175781 104.15625 9 103.59375 9 102.824219 Z M 9 101.761719 "/>
<path style=" stroke:none;fill-rule:nonzero;fill:rgb(0%,0%,0%);fill-opacity:1;" d="M 9.011719 98.125 C 9.949219 98.671875 10.875 99.074219 11.789062 99.339844 C 12.707031 99.605469 13.632812 99.738281 14.574219 99.738281 C 15.511719 99.738281 16.441406 99.605469 17.363281 99.335938 C 18.285156 99.070312 19.214844 98.667969 20.144531 98.125 L 20.144531 99.101562 C 19.1875 99.710938 18.25 100.167969 17.324219 100.472656 C 16.402344 100.773438 15.484375 100.925781 14.574219 100.925781 C 13.667969 100.925781 12.753906 100.777344 11.832031 100.476562 C 10.914062 100.171875 9.972656 99.714844 9.011719 99.101562 Z M 9.011719 98.125 "/>
<path style=" stroke:none;fill-rule:nonzero;fill:rgb(0%,0%,0%);fill-opacity:1;" d="M 11.660156 90.261719 L 14.988281 92.734375 L 18.496094 90.136719 L 18.496094 91.460938 L 15.8125 93.449219 L 18.496094 95.4375 L 18.496094 96.765625 L 14.921875 94.109375 L 11.660156 96.539062 L 11.660156 95.214844 L 14.097656 93.402344 L 11.660156 91.589844 Z M 11.660156 90.261719 "/>
<path style=" stroke:none;fill-rule:nonzero;fill:rgb(0%,0%,0%);fill-opacity:1;" d="M 9.011719 88.726562 L 9.011719 87.75 C 9.972656 87.140625 10.914062 86.683594 11.832031 86.378906 C 12.753906 86.074219 13.667969 85.925781 14.574219 85.925781 C 15.484375 85.925781 16.402344 86.074219 17.324219 86.378906 C 18.25 86.683594 19.1875 87.140625 20.144531 87.75 L 20.144531 88.726562 C 19.214844 88.183594 18.285156 87.78125 17.363281 87.515625 C 16.441406 87.246094 15.511719 87.113281 14.574219 87.113281 C 13.632812 87.113281 12.707031 87.246094 11.789062 87.515625 C 10.875 87.78125 9.949219 88.183594 9.011719 88.726562 Z M 9.011719 88.726562 "/>
<path style="fill:none;stroke-width:1.5;stroke-linecap:square;stroke-linejoin:round;stroke:rgb(12.156863%,46.666667%,70.588235%);stroke-opacity:1;stroke-miterlimit:4;" d="M 49.48125 116.76875 L 55.603125 119.571875 L 61.725 121.921875 L 67.846875 123.815625 L 73.96875 125.25625 L 80.090625 126.240625 L 86.2125 126.771875 L 92.3375 126.846875 L 98.459375 126.46875 L 104.58125 125.634375 L 110.703125 124.346875 L 116.825 122.603125 L 122.946875 120.40625 L 129.06875 117.75625 L 135.190625 114.65 L 141.315625 111.0875 L 147.4375 107.071875 L 153.559375 102.603125 L 159.68125 97.678125 L 165.803125 92.296875 L 171.925 86.4625 L 178.046875 80.175 L 184.16875 73.43125 L 190.29375 66.234375 L 196.415625 58.58125 L 202.5375 50.475 L 208.659375 41.9125 L 214.78125 32.896875 L 220.903125 23.425 L 227.025 13.5 " transform="matrix(1.25,0,0,1.25,0,0)"/>
<path style="fill:none;stroke-width:1.5;stroke-linecap:butt;stroke-linejoin:round;stroke:rgb(74.901961%,0%,74.901961%);stroke-opacity:1;stroke-dasharray:5.55,2.4;stroke-miterlimit:4;" d="M 49.48125 139.5 L 80.090625 131.921875 L 86.2125 130.409375 L 92.3375 128.89375 L 135.190625 118.284375 L 141.315625 116.76875 L 147.4375 115.253125 L 153.559375 113.740625 L 184.16875 106.1625 L 190.29375 104.646875 L 208.659375 100.1 L 214.78125 98.5875 L 227.025 95.55625 " transform="matrix(1.25,0,0,1.25,0,0)"/>
<path style="fill:none;stroke-width:0.8;stroke-linecap:square;stroke-linejoin:miter;stroke:rgb(0%,0%,0%);stroke-opacity:1;stroke-miterlimit:4;" d="M 40.603125 145.8 L 40.603125 7.2 " transform="matrix(1.25,0,0,1.25,0,0)"/>
<path style="fill:none;stroke-width:0.8;stroke-linecap:square;stroke-linejoin:miter;stroke:rgb(0%,0%,0%);stroke-opacity:1;stroke-miterlimit:4;" d="M 235.903125 145.8 L 235.903125 7.2 " transform="matrix(1.25,0,0,1.25,0,0)"/>
<path style="fill:none;stroke-width:0.8;stroke-linecap:square;stroke-linejoin:miter;stroke:rgb(0%,0%,0%);stroke-opacity:1;stroke-miterlimit:4;" d="M 40.603125 145.8 L 235.903125 145.8 " transform="matrix(1.25,0,0,1.25,0,0)"/>
<path style="fill:none;stroke-width:0.8;stroke-linecap:square;stroke-linejoin:miter;stroke:rgb(0%,0%,0%);stroke-opacity:1;stroke-miterlimit:4;" d="M 40.603125 7.2 L 235.903125 7.2 " transform="matrix(1.25,0,0,1.25,0,0)"/>
<use xlink:href="#surface5" mask="url(#mask0)"/>
<path style="fill:none;stroke-width:1.5;stroke-linecap:square;stroke-linejoin:round;stroke:rgb(12.156863%,46.666667%,70.588235%);stroke-opacity:1;stroke-miterlimit:4;" d="M 49.603125 20.3 L 69.603125 20.3 " transform="matrix(1.25,0,0,1.25,0,0)"/>
<path style=" stroke:none;fill-rule:nonzero;fill:rgb(0%,0%,0%);fill-opacity:1;" d="M 101.640625 20.25 L 101.640625 21.1875 L 100.566406 21.1875 C 100.164062 21.1875 99.886719 21.265625 99.726562 21.429688 C 99.570312 21.59375 99.492188 21.886719 99.492188 22.308594 L 99.492188 22.914062 L 101.34375 22.914062 L 101.34375 23.785156 L 99.492188 23.785156 L 99.492188 29.75 L 98.363281 29.75 L 98.363281 23.785156 L 97.289062 23.785156 L 97.289062 22.914062 L 98.363281 22.914062 L 98.363281 22.4375 C 98.363281 21.675781 98.542969 21.121094 98.894531 20.773438 C 99.25 20.425781 99.8125 20.25 100.578125 20.25 Z M 101.640625 20.25 "/>
<path style=" stroke:none;fill-rule:nonzero;fill:rgb(0%,0%,0%);fill-opacity:1;" d="M 105.28125 20.265625 C 104.734375 21.199219 104.332031 22.125 104.066406 23.042969 C 103.800781 23.957031 103.667969 24.882812 103.667969 25.824219 C 103.667969 26.761719 103.800781 27.695312 104.070312 28.617188 C 104.335938 29.539062 104.738281 30.464844 105.28125 31.398438 L 104.304688 31.398438 C 103.695312 30.441406 103.238281 29.5 102.933594 28.578125 C 102.628906 27.652344 102.480469 26.734375 102.480469 25.824219 C 102.480469 24.917969 102.628906 24.003906 102.929688 23.085938 C 103.230469 22.164062 103.691406 21.222656 104.304688 20.265625 Z M 105.28125 20.265625 "/>
<path style=" stroke:none;fill-rule:nonzero;fill:rgb(0%,0%,0%);fill-opacity:1;" d="M 113.140625 22.914062 L 110.667969 26.238281 L 113.269531 29.75 L 111.945312 29.75 L 109.953125 27.0625 L 107.964844 29.75 L 106.640625 29.75 L 109.296875 26.171875 L 106.867188 22.914062 L 108.191406 22.914062 L 110.003906 25.347656 L 111.816406 22.914062 Z M 113.140625 22.914062 "/>
<path style=" stroke:none;fill-rule:nonzero;fill:rgb(0%,0%,0%);fill-opacity:1;" d="M 114.679688 20.265625 L 115.65625 20.265625 C 116.265625 21.222656 116.722656 22.164062 117.027344 23.085938 C 117.328125 24.003906 117.480469 24.917969 117.480469 25.824219 C 117.480469 26.734375 117.328125 27.652344 117.027344 28.578125 C 116.722656 29.5 116.265625 30.441406 115.65625 31.398438 L 114.679688 31.398438 C 115.222656 30.464844 115.625 29.539062 115.890625 28.617188 C 116.160156 27.695312 116.292969 26.761719 116.292969 25.824219 C 116.292969 24.882812 116.160156 23.957031 115.890625 23.042969 C 115.625 22.125 115.222656 21.199219 114.679688 20.265625 Z M 114.679688 20.265625 "/>
<path style="fill:none;stroke-width:1.5;stroke-linecap:butt;stroke-linejoin:round;stroke:rgb(74.901961%,0%,74.901961%);stroke-opacity:1;stroke-dasharray:5.55,2.4;stroke-miterlimit:4;" d="M 49.603125 34.975 L 69.603125 34.975 " transform="matrix(1.25,0,0,1.25,0,0)"/>
<path style=" stroke:none;fill-rule:nonzero;fill:rgb(0%,0%,0%);fill-opacity:1;" d="M 96.964844 38.980469 L 104.675781 38.980469 L 104.675781 40.019531 L 101.441406 40.019531 L 101.441406 48.09375 L 100.203125 48.09375 L 100.203125 40.019531 L 96.964844 40.019531 Z M 96.964844 38.980469 "/>
<path style=" stroke:none;fill-rule:nonzero;fill:rgb(0%,0%,0%);fill-opacity:1;" d="M 106.863281 44.660156 C 105.953125 44.660156 105.324219 44.761719 104.976562 44.96875 C 104.625 45.175781 104.449219 45.53125 104.449219 46.03125 C 104.449219 46.429688 104.582031 46.746094 104.84375 46.980469 C 105.109375 47.214844 105.464844 47.332031 105.914062 47.332031 C 106.539062 47.332031 107.039062 47.109375 107.414062 46.667969 C 107.792969 46.226562 107.980469 45.640625 107.980469 44.910156 L 107.980469 44.660156 Z M 109.101562 44.195312 L 109.101562 48.09375 L 107.980469 48.09375 L 107.980469 47.058594 C 107.722656 47.472656 107.402344 47.777344 107.019531 47.976562 C 106.636719 48.175781 106.167969 48.273438 105.617188 48.273438 C 104.917969 48.273438 104.359375 48.078125 103.945312 47.683594 C 103.535156 47.289062 103.328125 46.765625 103.328125 46.105469 C 103.328125 45.335938 103.585938 44.757812 104.097656 44.367188 C 104.613281 43.976562 105.382812 43.78125 106.402344 43.78125 L 107.980469 43.78125 L 107.980469 43.667969 C 107.980469 43.152344 107.808594 42.753906 107.46875 42.46875 C 107.128906 42.1875 106.652344 42.046875 106.039062 42.046875 C 105.648438 42.046875 105.265625 42.09375 104.894531 42.1875 C 104.527344 42.28125 104.171875 42.421875 103.828125 42.609375 L 103.828125 41.570312 C 104.238281 41.410156 104.636719 41.292969 105.023438 41.214844 C 105.410156 41.136719 105.789062 41.09375 106.152344 41.09375 C 107.144531 41.09375 107.882812 41.351562 108.371094 41.863281 C 108.859375 42.375 109.101562 43.152344 109.101562 44.195312 Z M 109.101562 44.195312 "/>
<path style=" stroke:none;fill-rule:nonzero;fill:rgb(0%,0%,0%);fill-opacity:1;" d="M 117.097656 43.96875 L 117.097656 48.09375 L 115.976562 48.09375 L 115.976562 44.003906 C 115.976562 43.359375 115.847656 42.875 115.597656 42.554688 C 115.34375 42.234375 114.964844 42.070312 114.460938 42.070312 C 113.855469 42.070312 113.375 42.265625 113.027344 42.652344 C 112.675781 43.039062 112.5 43.5625 112.5 44.230469 L 112.5 48.09375 L 111.371094 48.09375 L 111.371094 41.257812 L 112.5 41.257812 L 112.5 42.320312 C 112.769531 41.910156 113.085938 41.601562 113.449219 41.398438 C 113.8125 41.195312 114.234375 41.09375 114.710938 41.09375 C 115.496094 41.09375 116.089844 41.339844 116.492188 41.824219 C 116.894531 42.308594 117.097656 43.023438 117.097656 43.96875 Z M 117.097656 43.96875 "/>
<path style=" stroke:none;fill-rule:nonzero;fill:rgb(0%,0%,0%);fill-opacity:1;" d="M 123.835938 44.597656 C 123.835938 43.785156 123.667969 43.152344 123.332031 42.707031 C 122.996094 42.257812 122.527344 42.035156 121.917969 42.035156 C 121.316406 42.035156 120.847656 42.257812 120.511719 42.707031 C 120.175781 43.152344 120.007812 43.785156 120.007812 44.597656 C 120.007812 45.40625 120.175781 46.035156 120.511719 46.484375 C 120.847656 46.933594 121.316406 47.15625 121.917969 47.15625 C 122.527344 47.15625 122.996094 46.933594 123.332031 46.484375 C 123.667969 46.035156 123.835938 45.40625 123.835938 44.597656 Z M 124.957031 47.246094 C 124.957031 48.410156 124.699219 49.277344 124.183594 49.84375 C 123.667969 50.410156 122.875 50.695312 121.808594 50.695312 C 121.414062 50.695312 121.042969 50.664062 120.691406 50.605469 C 120.34375 50.546875 120.003906 50.457031 119.671875 50.335938 L 119.671875 49.242188 C 120.003906 49.421875 120.328125 49.554688 120.648438 49.636719 C 120.972656 49.722656 121.296875 49.765625 121.632812 49.765625 C 122.367188 49.765625 122.921875 49.574219 123.285156 49.191406 C 123.652344 48.808594 123.835938 48.226562 123.835938 47.449219 L 123.835938 46.890625 C 123.601562 47.296875 123.304688 47.597656 122.945312 47.796875 C 122.582031 47.996094 122.148438 48.09375 121.644531 48.09375 C 120.804688 48.09375 120.132812 47.777344 119.617188 47.136719 C 119.105469 46.5 118.847656 45.652344 118.847656 44.597656 C 118.847656 43.539062 119.105469 42.691406 119.617188 42.054688 C 120.132812 41.414062 120.804688 41.09375 121.644531 41.09375 C 122.148438 41.09375 122.582031 41.195312 122.945312 41.394531 C 123.304688 41.59375 123.601562 41.894531 123.835938 42.296875 L 123.835938 41.257812 L 124.957031 41.257812 Z M 124.957031 47.246094 "/>
<path style=" stroke:none;fill-rule:nonzero;fill:rgb(0%,0%,0%);fill-opacity:1;" d="M 133.117188 44.394531 L 133.117188 44.945312 L 127.953125 44.945312 C 128.003906 45.71875 128.238281 46.308594 128.652344 46.710938 C 129.070312 47.117188 129.652344 47.320312 130.394531 47.320312 C 130.828125 47.320312 131.246094 47.265625 131.648438 47.160156 C 132.054688 47.054688 132.457031 46.898438 132.855469 46.683594 L 132.855469 47.746094 C 132.453125 47.917969 132.039062 48.046875 131.617188 48.136719 C 131.195312 48.226562 130.765625 48.273438 130.328125 48.273438 C 129.238281 48.273438 128.375 47.957031 127.738281 47.320312 C 127.101562 46.6875 126.78125 45.828125 126.78125 44.742188 C 126.78125 43.625 127.085938 42.738281 127.6875 42.082031 C 128.292969 41.425781 129.109375 41.09375 130.132812 41.09375 C 131.054688 41.09375 131.78125 41.390625 132.316406 41.984375 C 132.851562 42.574219 133.117188 43.378906 133.117188 44.394531 Z M 131.996094 44.066406 C 131.988281 43.453125 131.816406 42.964844 131.480469 42.597656 C 131.144531 42.230469 130.699219 42.046875 130.144531 42.046875 C 129.519531 42.046875 129.019531 42.222656 128.640625 42.578125 C 128.265625 42.933594 128.050781 43.429688 127.992188 44.074219 Z M 131.996094 44.066406 "/>
<path style=" stroke:none;fill-rule:nonzero;fill:rgb(0%,0%,0%);fill-opacity:1;" d="M 140.644531 43.96875 L 140.644531 48.09375 L 139.523438 48.09375 L 139.523438 44.003906 C 139.523438 43.359375 139.394531 42.875 139.144531 42.554688 C 138.890625 42.234375 138.511719 42.070312 138.007812 42.070312 C 137.402344 42.070312 136.921875 42.265625 136.574219 42.652344 C 136.222656 43.039062 136.046875 43.5625 136.046875 44.230469 L 136.046875 48.09375 L 134.917969 48.09375 L 134.917969 41.257812 L 136.046875 41.257812 L 136.046875 42.320312 C 136.316406 41.910156 136.632812 41.601562 136.996094 41.398438 C 137.363281 41.195312 137.78125 41.09375 138.257812 41.09375 C 139.042969 41.09375 139.636719 41.339844 140.039062 41.824219 C 140.445312 42.308594 140.644531 43.023438 140.644531 43.96875 Z M 140.644531 43.96875 "/>
<path style=" stroke:none;fill-rule:nonzero;fill:rgb(0%,0%,0%);fill-opacity:1;" d="M 143.996094 39.316406 L 143.996094 41.257812 L 146.308594 41.257812 L 146.308594 42.132812 L 143.996094 42.132812 L 143.996094 45.84375 C 143.996094 46.402344 144.070312 46.757812 144.222656 46.917969 C 144.375 47.078125 144.6875 47.15625 145.15625 47.15625 L 146.308594 47.15625 L 146.308594 48.09375 L 145.15625 48.09375 C 144.289062 48.09375 143.691406 47.933594 143.359375 47.609375 C 143.03125 47.285156 142.867188 46.699219 142.867188 45.84375 L 142.867188 42.132812 L 142.042969 42.132812 L 142.042969 41.257812 L 142.867188 41.257812 L 142.867188 39.316406 Z M 143.996094 39.316406 "/>
<path style=" stroke:none;fill-rule:nonzero;fill:rgb(0%,0%,0%);fill-opacity:1;" d="M 151.757812 38.597656 L 152.882812 38.597656 L 152.882812 48.09375 L 151.757812 48.09375 Z M 151.757812 38.597656 "/>
<path style=" stroke:none;fill-rule:nonzero;fill:rgb(0%,0%,0%);fill-opacity:1;" d="M 155.230469 41.257812 L 156.355469 41.257812 L 156.355469 48.09375 L 155.230469 48.09375 Z M 155.230469 38.597656 L 156.355469 38.597656 L 156.355469 40.019531 L 155.230469 40.019531 Z M 155.230469 38.597656 "/>
<path style=" stroke:none;fill-rule:nonzero;fill:rgb(0%,0%,0%);fill-opacity:1;" d="M 164.386719 43.96875 L 164.386719 48.09375 L 163.265625 48.09375 L 163.265625 44.003906 C 163.265625 43.359375 163.140625 42.875 162.886719 42.554688 C 162.632812 42.234375 162.253906 42.070312 161.75 42.070312 C 161.144531 42.070312 160.667969 42.265625 160.316406 42.652344 C 159.964844 43.039062 159.789062 43.5625 159.789062 44.230469 L 159.789062 48.09375 L 158.660156 48.09375 L 158.660156 41.257812 L 159.789062 41.257812 L 159.789062 42.320312 C 160.058594 41.910156 160.375 41.601562 160.738281 41.398438 C 161.105469 41.195312 161.523438 41.09375 162 41.09375 C 162.785156 41.09375 163.378906 41.339844 163.78125 41.824219 C 164.1875 42.308594 164.386719 43.023438 164.386719 43.96875 Z M 164.386719 43.96875 "/>
<path style=" stroke:none;fill-rule:nonzero;fill:rgb(0%,0%,0%);fill-opacity:1;" d="M 172.472656 44.394531 L 172.472656 44.945312 L 167.308594 44.945312 C 167.359375 45.71875 167.59375 46.308594 168.007812 46.710938 C 168.425781 47.117188 169.007812 47.320312 169.75 47.320312 C 170.183594 47.320312 170.601562 47.265625 171.003906 47.160156 C 171.410156 47.054688 171.8125 46.898438 172.210938 46.683594 L 172.210938 47.746094 C 171.808594 47.917969 171.394531 48.046875 170.972656 48.136719 C 170.550781 48.226562 170.121094 48.273438 169.683594 48.273438 C 168.59375 48.273438 167.730469 47.957031 167.09375 47.320312 C 166.457031 46.6875 166.136719 45.828125 166.136719 44.742188 C 166.136719 43.625 166.441406 42.738281 167.042969 42.082031 C 167.648438 41.425781 168.464844 41.09375 169.488281 41.09375 C 170.410156 41.09375 171.136719 41.390625 171.671875 41.984375 C 172.207031 42.574219 172.472656 43.378906 172.472656 44.394531 Z M 171.351562 44.066406 C 171.34375 43.453125 171.171875 42.964844 170.835938 42.597656 C 170.5 42.230469 170.054688 42.046875 169.5 42.046875 C 168.875 42.046875 168.375 42.222656 167.996094 42.578125 C 167.621094 42.933594 167.40625 43.429688 167.347656 44.074219 Z M 171.351562 44.066406 "/>
<path style=" stroke:none;fill-rule:nonzero;fill:rgb(0%,0%,0%);fill-opacity:1;" d="M 180.988281 38.609375 C 180.445312 39.546875 180.039062 40.472656 179.773438 41.386719 C 179.507812 42.304688 179.375 43.230469 179.375 44.171875 C 179.375 45.109375 179.511719 46.039062 179.777344 46.960938 C 180.042969 47.882812 180.449219 48.8125 180.988281 49.742188 L 180.011719 49.742188 C 179.402344 48.785156 178.945312 47.847656 178.640625 46.921875 C 178.339844 46 178.1875 45.082031 178.1875 44.171875 C 178.1875 43.265625 178.335938 42.351562 178.636719 41.429688 C 178.941406 40.511719 179.398438 39.570312 180.011719 38.609375 Z M 180.988281 38.609375 "/>
<path style=" stroke:none;fill-rule:nonzero;fill:rgb(0%,0%,0%);fill-opacity:1;" d="M 188.851562 41.257812 L 186.378906 44.585938 L 188.976562 48.09375 L 187.652344 48.09375 L 185.664062 45.410156 L 183.675781 48.09375 L 182.347656 48.09375 L 185.003906 44.519531 L 182.574219 41.257812 L 183.898438 41.257812 L 185.710938 43.695312 L 187.523438 41.257812 Z M 188.851562 41.257812 "/>
<path style=" stroke:none;fill-rule:nonzero;fill:rgb(0%,0%,0%);fill-opacity:1;" d="M 190.710938 42.417969 L 198.535156 42.417969 L 198.535156 43.445312 L 190.710938 43.445312 Z M 190.710938 44.910156 L 198.535156 44.910156 L 198.535156 45.945312 L 190.710938 45.945312 Z M 190.710938 44.910156 "/>
<path style=" stroke:none;fill-rule:nonzero;fill:rgb(0%,0%,0%);fill-opacity:1;" d="M 201.410156 47.058594 L 203.425781 47.058594 L 203.425781 40.105469 L 201.234375 40.542969 L 201.234375 39.421875 L 203.414062 38.980469 L 204.644531 38.980469 L 204.644531 47.058594 L 206.660156 47.058594 L 206.660156 48.09375 L 201.410156 48.09375 Z M 201.410156 47.058594 "/>
<path style=" stroke:none;fill-rule:nonzero;fill:rgb(0%,0%,0%);fill-opacity:1;" d="M 208.816406 38.609375 L 209.792969 38.609375 C 210.402344 39.570312 210.859375 40.511719 211.160156 41.429688 C 211.464844 42.351562 211.617188 43.265625 211.617188 44.171875 C 211.617188 45.082031 211.464844 46 211.160156 46.921875 C 210.859375 47.847656 210.402344 48.785156 209.792969 49.742188 L 208.816406 49.742188 C 209.355469 48.8125 209.757812 47.882812 210.027344 46.960938 C 210.292969 46.039062 210.425781 45.109375 210.425781 44.171875 C 210.425781 43.230469 210.292969 42.304688 210.027344 41.386719 C 209.757812 40.472656 209.355469 39.546875 208.816406 38.609375 Z M 208.816406 38.609375 "/>
</g>
</svg>
