<?xml version="1.0" encoding="UTF-8"?>
<svg xmlns="http://www.w3.org/2000/svg" xmlns:xlink="http://www.w3.org/1999/xlink" width="412pt" height="229pt" viewBox="0 0 412 229" version="1.1">
<defs>
<clipPath id="clip1">
  <path d="M 69 9 L 72 9 L 72 182.25 L 69 182.25 Z M 69 9 "/>
</clipPath>
<clipPath id="clip2">
  <path d="M 109 9 L 112 9 L 112 182.25 L 109 182.25 Z M 109 9 "/>
</clipPath>
<clipPath id="clip3">
  <path d="M 149 9 L 152 9 L 152 182.25 L 149 182.25 Z M 149 9 "/>
</clipPath>
<clipPath id="clip4">
  <path d="M 189 9 L 191 9 L 191 182.25 L 189 182.25 Z M 189 9 "/>
</clipPath>
<clipPath id="clip5">
  <path d="M 229 9 L 231 9 L 231 182.25 L 229 182.25 Z M 229 9 "/>
</clipPath>
<clipPath id="clip6">
  <path d="M 269 9 L 271 9 L 271 182.25 L 269 182.25 Z M 269 9 "/>
</clipPath>
<clipPath id="clip7">
  <path d="M 309 9 L 311 9 L 311 182.25 L 309 182.25 Z M 309 9 "/>
</clipPath>
<clipPath id="clip8">
  <path d="M 349 9 L 351 9 L 351 182.25 L 349 182.25 Z M 349 9 "/>
</clipPath>
<clipPath id="clip9">
  <path d="M 388 9 L 391 9 L 391 182.25 L 388 182.25 Z M 388 9 "/>
</clipPath>
<clipPath id="clip10">
  <path d="M 54.726562 173 L 403.476562 173 L 403.476562 176 L 54.726562 176 Z M 54.726562 173 "/>
</clipPath>
<clipPath id="clip11">
  <path d="M 54.726562 142 L 403.476562 142 L 403.476562 144 L 54.726562 144 Z M 54.726562 142 "/>
</clipPath>
<clipPath id="clip12">
  <path d="M 54.726562 110 L 403.476562 110 L 403.476562 113 L 54.726562 113 Z M 54.726562 110 "/>
</clipPath>
<clipPath id="clip13">
  <path d="M 54.726562 79 L 403.476562 79 L 403.476562 81 L 54.726562 81 Z M 54.726562 79 "/>
</clipPath>
<clipPath id="clip14">
  <path d="M 54.726562 47 L 403.476562 47 L 403.476562 50 L 54.726562 50 Z M 54.726562 47 "/>
</clipPath>
<clipPath id="clip15">
  <path d="M 54.726562 16 L 403.476562 16 L 403.476562 18 L 54.726562 18 Z M 54.726562 16 "/>
</clipPath>
</defs>
<g id="surface1">
<rect x="0" y="0" width="412" height="229" style="fill:rgb(100%,100%,100%);fill-opacity:1;stroke:none;"/>
<path style=" stroke:none;fill-rule:nonzero;fill:rgb(100%,100%,100%);fill-opacity:1;" d="M 54.726562 182.25 L 403.476562 182.25 L 403.476562 9 L 54.726562 9 Z M 54.726562 182.25 "/>
<g clip-path="url(#clip1)" clip-rule="nonzero">
<path style="fill:none;stroke-width:0.8;stroke-linecap:square;stroke-linejoin:round;stroke:rgb(69.019608%,69.019608%,69.019608%);stroke-opacity:1;stroke-miterlimit:4;" d="M 56.4625 145.8 L 56.4625 7.2 " transform="matrix(1.25,0,0,1.25,0,0)"/>
</g>
<path style="fill:none;stroke-width:0.8;stroke-linecap:butt;stroke-linejoin:round;stroke:rgb(0%,0%,0%);stroke-opacity:1;stroke-miterlimit:4;" d="M -0.000568 0 L -0.000568 3.5 " transform="matrix(1.25,0,0,1.25,70.578835,182.25)"/>
<path style=" stroke:none;fill-rule:nonzero;fill:rgb(0%,0%,0%);fill-opacity:1;" d="M 62.6875 196.0625 L 70.511719 196.0625 L 70.511719 197.097656 L 62.6875 197.097656 Z M 62.6875 196.0625 "/>
<path style=" stroke:none;fill-rule:nonzero;fill:rgb(0%,0%,0%);fill-opacity:1;" d="M 75.8125 196.171875 C 75.226562 196.171875 74.765625 196.328125 74.429688 196.640625 C 74.09375 196.953125 73.925781 197.386719 73.925781 197.933594 C 73.925781 198.484375 74.09375 198.914062 74.429688 199.230469 C 74.765625 199.542969 75.226562 199.699219 75.8125 199.699219 C 76.398438 199.699219 76.859375 199.542969 77.195312 199.226562 C 77.535156 198.910156 77.703125 198.480469 77.703125 197.933594 C 77.703125 197.386719 77.535156 196.953125 77.199219 196.640625 C 76.867188 196.328125 76.402344 196.171875 75.8125 196.171875 Z M 74.578125 195.648438 C 74.050781 195.515625 73.636719 195.269531 73.34375 194.910156 C 73.046875 194.546875 72.902344 194.101562 72.902344 193.582031 C 72.902344 192.855469 73.160156 192.277344 73.679688 191.855469 C 74.199219 191.433594 74.910156 191.222656 75.8125 191.222656 C 76.71875 191.222656 77.429688 191.433594 77.949219 191.855469 C 78.464844 192.277344 78.722656 192.855469 78.722656 193.582031 C 78.722656 194.101562 78.574219 194.546875 78.28125 194.910156 C 77.984375 195.269531 77.578125 195.515625 77.050781 195.648438 C 77.644531 195.785156 78.109375 196.054688 78.4375 196.460938 C 78.769531 196.863281 78.9375 197.351562 78.9375 197.933594 C 78.9375 198.816406 78.667969 199.496094 78.128906 199.96875 C 77.589844 200.441406 76.816406 200.675781 75.8125 200.675781 C 74.808594 200.675781 74.035156 200.441406 73.496094 199.96875 C 72.957031 199.496094 72.6875 198.816406 72.6875 197.933594 C 72.6875 197.351562 72.851562 196.863281 73.1875 196.460938 C 73.519531 196.054688 73.984375 195.785156 74.578125 195.648438 Z M 74.128906 193.699219 C 74.128906 194.171875 74.273438 194.539062 74.570312 194.804688 C 74.863281 195.066406 75.277344 195.199219 75.8125 195.199219 C 76.339844 195.199219 76.753906 195.066406 77.054688 194.804688 C 77.351562 194.539062 77.503906 194.171875 77.503906 193.699219 C 77.503906 193.226562 77.351562 192.859375 77.054688 192.59375 C 76.753906 192.328125 76.339844 192.199219 75.8125 192.199219 C 75.277344 192.199219 74.863281 192.328125 74.570312 192.59375 C 74.273438 192.859375 74.128906 193.226562 74.128906 193.699219 Z M 74.128906 193.699219 "/>
<g clip-path="url(#clip2)" clip-rule="nonzero">
<path style="fill:none;stroke-width:0.8;stroke-linecap:square;stroke-linejoin:round;stroke:rgb(69.019608%,69.019608%,69.019608%);stroke-opacity:1;stroke-miterlimit:4;" d="M 88.365625 145.8 L 88.365625 7.2 " transform="matrix(1.25,0,0,1.25,0,0)"/>
</g>
<path style="fill:none;stroke-width:0.8;stroke-linecap:butt;stroke-linejoin:round;stroke:rgb(0%,0%,0%);stroke-opacity:1;stroke-miterlimit:4;" d="M -0.001389 0 L -0.001389 3.5 " transform="matrix(1.25,0,0,1.25,110.458767,182.25)"/>
<path style=" stroke:none;fill-rule:nonzero;fill:rgb(0%,0%,0%);fill-opacity:1;" d="M 102.570312 196.0625 L 110.394531 196.0625 L 110.394531 197.097656 L 102.570312 197.097656 Z M 102.570312 196.0625 "/>
<path style=" stroke:none;fill-rule:nonzero;fill:rgb(0%,0%,0%);fill-opacity:1;" d="M 115.84375 195.453125 C 115.292969 195.453125 114.851562 195.640625 114.527344 196.019531 C 114.207031 196.398438 114.042969 196.914062 114.042969 197.574219 C 114.042969 198.230469 114.207031 198.746094 114.527344 199.128906 C 114.851562 199.507812 115.292969 199.699219 115.84375 199.699219 C 116.398438 199.699219 116.835938 199.507812 117.160156 199.128906 C 117.484375 198.746094 117.644531 198.230469 117.644531 197.574219 C 117.644531 196.914062 117.484375 196.398438 117.160156 196.019531 C 116.835938 195.640625 116.398438 195.453125 115.84375 195.453125 Z M 118.292969 191.585938 L 118.292969 192.710938 C 117.984375 192.5625 117.671875 192.453125 117.355469 192.375 C 117.039062 192.296875 116.726562 192.257812 116.417969 192.257812 C 115.605469 192.257812 114.980469 192.53125 114.550781 193.082031 C 114.125 193.632812 113.878906 194.460938 113.816406 195.574219 C 114.058594 195.21875 114.359375 194.945312 114.71875 194.757812 C 115.082031 194.570312 115.484375 194.476562 115.917969 194.476562 C 116.832031 194.476562 117.554688 194.753906 118.085938 195.308594 C 118.617188 195.863281 118.882812 196.617188 118.882812 197.574219 C 118.882812 198.511719 118.609375 199.261719 118.054688 199.828125 C 117.5 200.394531 116.765625 200.675781 115.84375 200.675781 C 114.789062 200.675781 113.984375 200.273438 113.425781 199.464844 C 112.871094 198.65625 112.589844 197.484375 112.589844 195.953125 C 112.589844 194.511719 112.933594 193.363281 113.617188 192.507812 C 114.300781 191.648438 115.21875 191.222656 116.367188 191.222656 C 116.679688 191.222656 116.992188 191.25 117.304688 191.3125 C 117.621094 191.375 117.949219 191.464844 118.292969 191.585938 Z M 118.292969 191.585938 "/>
<g clip-path="url(#clip3)" clip-rule="nonzero">
<path style="fill:none;stroke-width:0.8;stroke-linecap:square;stroke-linejoin:round;stroke:rgb(69.019608%,69.019608%,69.019608%);stroke-opacity:1;stroke-miterlimit:4;" d="M 120.271875 145.8 L 120.271875 7.2 " transform="matrix(1.25,0,0,1.25,0,0)"/>
</g>
<path style="fill:none;stroke-width:0.8;stroke-linecap:butt;stroke-linejoin:round;stroke:rgb(0%,0%,0%);stroke-opacity:1;stroke-miterlimit:4;" d="M 0.000915 0 L 0.000915 3.5 " transform="matrix(1.25,0,0,1.25,150.3387,182.25)"/>
<path style=" stroke:none;fill-rule:nonzero;fill:rgb(0%,0%,0%);fill-opacity:1;" d="M 142.449219 196.0625 L 150.273438 196.0625 L 150.273438 197.097656 L 142.449219 197.097656 Z M 142.449219 196.0625 "/>
<path style=" stroke:none;fill-rule:nonzero;fill:rgb(0%,0%,0%);fill-opacity:1;" d="M 156.324219 192.460938 L 153.210938 197.324219 L 156.324219 197.324219 Z M 156 191.386719 L 157.550781 191.386719 L 157.550781 197.324219 L 158.851562 197.324219 L 158.851562 198.351562 L 157.550781 198.351562 L 157.550781 200.5 L 156.324219 200.5 L 156.324219 198.351562 L 152.210938 198.351562 L 152.210938 197.160156 Z M 156 191.386719 "/>
<g clip-path="url(#clip4)" clip-rule="nonzero">
<path style="fill:none;stroke-width:0.8;stroke-linecap:square;stroke-linejoin:round;stroke:rgb(69.019608%,69.019608%,69.019608%);stroke-opacity:1;stroke-miterlimit:4;" d="M 152.175 145.8 L 152.175 7.2 " transform="matrix(1.25,0,0,1.25,0,0)"/>
</g>
<path style="fill:none;stroke-width:0.8;stroke-linecap:butt;stroke-linejoin:round;stroke:rgb(0%,0%,0%);stroke-opacity:1;stroke-miterlimit:4;" d="M 0.000094 0 L 0.000094 3.5 " transform="matrix(1.25,0,0,1.25,190.218632,182.25)"/>
<path style=" stroke:none;fill-rule:nonzero;fill:rgb(0%,0%,0%);fill-opacity:1;" d="M 182.328125 196.0625 L 190.152344 196.0625 L 190.152344 197.097656 L 182.328125 197.097656 Z M 182.328125 196.0625 "/>
<path style=" stroke:none;fill-rule:nonzero;fill:rgb(0%,0%,0%);fill-opacity:1;" d="M 193.875 199.460938 L 198.179688 199.460938 L 198.179688 200.5 L 192.394531 200.5 L 192.394531 199.460938 C 192.863281 198.976562 193.5 198.328125 194.304688 197.511719 C 195.113281 196.695312 195.621094 196.167969 195.828125 195.933594 C 196.222656 195.488281 196.5 195.113281 196.65625 194.808594 C 196.8125 194.5 196.890625 194.199219 196.890625 193.902344 C 196.890625 193.417969 196.722656 193.023438 196.382812 192.71875 C 196.042969 192.410156 195.601562 192.257812 195.054688 192.257812 C 194.667969 192.257812 194.257812 192.324219 193.828125 192.460938 C 193.402344 192.59375 192.941406 192.796875 192.453125 193.070312 L 192.453125 191.824219 C 192.949219 191.625 193.414062 191.476562 193.84375 191.375 C 194.277344 191.273438 194.671875 191.222656 195.03125 191.222656 C 195.976562 191.222656 196.726562 191.457031 197.289062 191.929688 C 197.851562 192.402344 198.128906 193.03125 198.128906 193.820312 C 198.128906 194.195312 198.058594 194.550781 197.917969 194.886719 C 197.78125 195.222656 197.523438 195.617188 197.152344 196.074219 C 197.050781 196.191406 196.730469 196.53125 196.183594 197.097656 C 195.640625 197.660156 194.871094 198.449219 193.875 199.460938 Z M 193.875 199.460938 "/>
<g clip-path="url(#clip5)" clip-rule="nonzero">
<path style="fill:none;stroke-width:0.8;stroke-linecap:square;stroke-linejoin:round;stroke:rgb(69.019608%,69.019608%,69.019608%);stroke-opacity:1;stroke-miterlimit:4;" d="M 184.078125 145.8 L 184.078125 7.2 " transform="matrix(1.25,0,0,1.25,0,0)"/>
</g>
<path style="fill:none;stroke-width:0.8;stroke-linecap:butt;stroke-linejoin:round;stroke:rgb(0%,0%,0%);stroke-opacity:1;stroke-miterlimit:4;" d="M -0.000727 0 L -0.000727 3.5 " transform="matrix(1.25,0,0,1.25,230.098565,182.25)"/>
<path style=" stroke:none;fill-rule:nonzero;fill:rgb(0%,0%,0%);fill-opacity:1;" d="M 230.09375 192.199219 C 229.460938 192.199219 228.984375 192.511719 228.664062 193.136719 C 228.34375 193.757812 228.183594 194.699219 228.183594 195.953125 C 228.183594 197.199219 228.34375 198.136719 228.664062 198.761719 C 228.984375 199.386719 229.460938 199.699219 230.09375 199.699219 C 230.734375 199.699219 231.214844 199.386719 231.53125 198.761719 C 231.851562 198.136719 232.011719 197.199219 232.011719 195.953125 C 232.011719 194.699219 231.851562 193.757812 231.53125 193.136719 C 231.214844 192.511719 230.734375 192.199219 230.09375 192.199219 Z M 230.09375 191.222656 C 231.117188 191.222656 231.898438 191.625 232.4375 192.433594 C 232.976562 193.242188 233.246094 194.414062 233.246094 195.953125 C 233.246094 197.484375 232.976562 198.65625 232.4375 199.464844 C 231.898438 200.273438 231.117188 200.675781 230.09375 200.675781 C 229.074219 200.675781 228.292969 200.273438 227.753906 199.464844 C 227.214844 198.65625 226.945312 197.484375 226.945312 195.953125 C 226.945312 194.414062 227.214844 193.242188 227.753906 192.433594 C 228.292969 191.625 229.074219 191.222656 230.09375 191.222656 Z M 230.09375 191.222656 "/>
<g clip-path="url(#clip6)" clip-rule="nonzero">
<path style="fill:none;stroke-width:0.8;stroke-linecap:square;stroke-linejoin:round;stroke:rgb(69.019608%,69.019608%,69.019608%);stroke-opacity:1;stroke-miterlimit:4;" d="M 215.98125 145.8 L 215.98125 7.2 " transform="matrix(1.25,0,0,1.25,0,0)"/>
</g>
<path style="fill:none;stroke-width:0.8;stroke-linecap:butt;stroke-linejoin:round;stroke:rgb(0%,0%,0%);stroke-opacity:1;stroke-miterlimit:4;" d="M -0.001548 0 L -0.001548 3.5 " transform="matrix(1.25,0,0,1.25,269.978498,182.25)"/>
<path style=" stroke:none;fill-rule:nonzero;fill:rgb(0%,0%,0%);fill-opacity:1;" d="M 268.398438 199.460938 L 272.703125 199.460938 L 272.703125 200.5 L 266.917969 200.5 L 266.917969 199.460938 C 267.386719 198.976562 268.023438 198.328125 268.828125 197.511719 C 269.636719 196.695312 270.144531 196.167969 270.351562 195.933594 C 270.746094 195.488281 271.023438 195.113281 271.179688 194.808594 C 271.335938 194.5 271.414062 194.199219 271.414062 193.902344 C 271.414062 193.417969 271.246094 193.023438 270.90625 192.71875 C 270.566406 192.410156 270.125 192.257812 269.578125 192.257812 C 269.191406 192.257812 268.78125 192.324219 268.351562 192.460938 C 267.925781 192.59375 267.464844 192.796875 266.976562 193.070312 L 266.976562 191.824219 C 267.472656 191.625 267.9375 191.476562 268.367188 191.375 C 268.800781 191.273438 269.195312 191.222656 269.554688 191.222656 C 270.5 191.222656 271.25 191.457031 271.8125 191.929688 C 272.375 192.402344 272.652344 193.03125 272.652344 193.820312 C 272.652344 194.195312 272.582031 194.550781 272.441406 194.886719 C 272.304688 195.222656 272.046875 195.617188 271.675781 196.074219 C 271.574219 196.191406 271.253906 196.53125 270.707031 197.097656 C 270.164062 197.660156 269.394531 198.449219 268.398438 199.460938 Z M 268.398438 199.460938 "/>
<g clip-path="url(#clip7)" clip-rule="nonzero">
<path style="fill:none;stroke-width:0.8;stroke-linecap:square;stroke-linejoin:round;stroke:rgb(69.019608%,69.019608%,69.019608%);stroke-opacity:1;stroke-miterlimit:4;" d="M 247.8875 145.8 L 247.8875 7.2 " transform="matrix(1.25,0,0,1.25,0,0)"/>
</g>
<path style="fill:none;stroke-width:0.8;stroke-linecap:butt;stroke-linejoin:round;stroke:rgb(0%,0%,0%);stroke-opacity:1;stroke-miterlimit:4;" d="M 0.000757 0 L 0.000757 3.5 " transform="matrix(1.25,0,0,1.25,309.858429,182.25)"/>
<path style=" stroke:none;fill-rule:nonzero;fill:rgb(0%,0%,0%);fill-opacity:1;" d="M 310.605469 192.460938 L 307.492188 197.324219 L 310.605469 197.324219 Z M 310.28125 191.386719 L 311.832031 191.386719 L 311.832031 197.324219 L 313.132812 197.324219 L 313.132812 198.351562 L 311.832031 198.351562 L 311.832031 200.5 L 310.605469 200.5 L 310.605469 198.351562 L 306.492188 198.351562 L 306.492188 197.160156 Z M 310.28125 191.386719 "/>
<g clip-path="url(#clip8)" clip-rule="nonzero">
<path style="fill:none;stroke-width:0.8;stroke-linecap:square;stroke-linejoin:round;stroke:rgb(69.019608%,69.019608%,69.019608%);stroke-opacity:1;stroke-miterlimit:4;" d="M 279.790625 145.8 L 279.790625 7.2 " transform="matrix(1.25,0,0,1.25,0,0)"/>
</g>
<path style="fill:none;stroke-width:0.8;stroke-linecap:butt;stroke-linejoin:round;stroke:rgb(0%,0%,0%);stroke-opacity:1;stroke-miterlimit:4;" d="M -0.000064 0 L -0.000064 3.5 " transform="matrix(1.25,0,0,1.25,349.738361,182.25)"/>
<path style=" stroke:none;fill-rule:nonzero;fill:rgb(0%,0%,0%);fill-opacity:1;" d="M 349.890625 195.453125 C 349.335938 195.453125 348.898438 195.640625 348.574219 196.019531 C 348.25 196.398438 348.089844 196.914062 348.089844 197.574219 C 348.089844 198.230469 348.25 198.746094 348.574219 199.128906 C 348.898438 199.507812 349.335938 199.699219 349.890625 199.699219 C 350.441406 199.699219 350.878906 199.507812 351.203125 199.128906 C 351.527344 198.746094 351.6875 198.230469 351.6875 197.574219 C 351.6875 196.914062 351.527344 196.398438 351.203125 196.019531 C 350.878906 195.640625 350.441406 195.453125 349.890625 195.453125 Z M 352.335938 191.585938 L 352.335938 192.710938 C 352.027344 192.5625 351.714844 192.453125 351.398438 192.375 C 351.082031 192.296875 350.769531 192.257812 350.460938 192.257812 C 349.648438 192.257812 349.027344 192.53125 348.597656 193.082031 C 348.167969 193.632812 347.921875 194.460938 347.863281 195.574219 C 348.101562 195.21875 348.402344 194.945312 348.765625 194.757812 C 349.128906 194.570312 349.527344 194.476562 349.960938 194.476562 C 350.875 194.476562 351.601562 194.753906 352.132812 195.308594 C 352.664062 195.863281 352.929688 196.617188 352.929688 197.574219 C 352.929688 198.511719 352.652344 199.261719 352.097656 199.828125 C 351.542969 200.394531 350.808594 200.675781 349.890625 200.675781 C 348.835938 200.675781 348.027344 200.273438 347.472656 199.464844 C 346.914062 198.65625 346.636719 197.484375 346.636719 195.953125 C 346.636719 194.511719 346.976562 193.363281 347.660156 192.507812 C 348.34375 191.648438 349.261719 191.222656 350.414062 191.222656 C 350.722656 191.222656 351.035156 191.25 351.351562 191.3125 C 351.664062 191.375 351.992188 191.464844 352.335938 191.585938 Z M 352.335938 191.585938 "/>
<g clip-path="url(#clip9)" clip-rule="nonzero">
<path style="fill:none;stroke-width:0.8;stroke-linecap:square;stroke-linejoin:round;stroke:rgb(69.019608%,69.019608%,69.019608%);stroke-opacity:1;stroke-miterlimit:4;" d="M 311.69375 145.8 L 311.69375 7.2 " transform="matrix(1.25,0,0,1.25,0,0)"/>
</g>
<path style="fill:none;stroke-width:0.8;stroke-linecap:butt;stroke-linejoin:round;stroke:rgb(0%,0%,0%);stroke-opacity:1;stroke-miterlimit:4;" d="M -0.000885 0 L -0.000885 3.5 " transform="matrix(1.25,0,0,1.25,389.618294,182.25)"/>
<path style=" stroke:none;fill-rule:nonzero;fill:rgb(0%,0%,0%);fill-opacity:1;" d="M 389.613281 196.171875 C 389.027344 196.171875 388.566406 196.328125 388.230469 196.640625 C 387.898438 196.953125 387.730469 197.386719 387.730469 197.933594 C 387.730469 198.484375 387.898438 198.914062 388.230469 199.230469 C 388.566406 199.542969 389.027344 199.699219 389.613281 199.699219 C 390.199219 199.699219 390.660156 199.542969 391 199.226562 C 391.335938 198.910156 391.507812 198.480469 391.507812 197.933594 C 391.507812 197.386719 391.339844 196.953125 391.003906 196.640625 C 390.667969 196.328125 390.207031 196.171875 389.613281 196.171875 Z M 388.382812 195.648438 C 387.851562 195.515625 387.441406 195.269531 387.144531 194.910156 C 386.851562 194.546875 386.703125 194.101562 386.703125 193.582031 C 386.703125 192.855469 386.964844 192.277344 387.480469 191.855469 C 388 191.433594 388.710938 191.222656 389.613281 191.222656 C 390.523438 191.222656 391.234375 191.433594 391.75 191.855469 C 392.269531 192.277344 392.527344 192.855469 392.527344 193.582031 C 392.527344 194.101562 392.378906 194.546875 392.082031 194.910156 C 391.789062 195.269531 391.378906 195.515625 390.855469 195.648438 C 391.449219 195.785156 391.910156 196.054688 392.242188 196.460938 C 392.574219 196.863281 392.738281 197.351562 392.738281 197.933594 C 392.738281 198.816406 392.46875 199.496094 391.929688 199.96875 C 391.390625 200.441406 390.621094 200.675781 389.613281 200.675781 C 388.609375 200.675781 387.839844 200.441406 387.296875 199.96875 C 386.757812 199.496094 386.488281 198.816406 386.488281 197.933594 C 386.488281 197.351562 386.65625 196.863281 386.988281 196.460938 C 387.324219 196.054688 387.789062 195.785156 388.382812 195.648438 Z M 387.929688 193.699219 C 387.929688 194.171875 388.078125 194.539062 388.371094 194.804688 C 388.667969 195.066406 389.082031 195.199219 389.613281 195.199219 C 390.144531 195.199219 390.558594 195.066406 390.855469 194.804688 C 391.15625 194.539062 391.304688 194.171875 391.304688 193.699219 C 391.304688 193.226562 391.15625 192.859375 390.855469 192.59375 C 390.558594 192.328125 390.144531 192.199219 389.613281 192.199219 C 389.082031 192.199219 388.667969 192.328125 388.371094 192.59375 C 388.078125 192.859375 387.929688 193.226562 387.929688 193.699219 Z M 387.929688 193.699219 "/>
<path style=" stroke:none;fill-rule:nonzero;fill:rgb(0%,0%,0%);fill-opacity:1;" d="M 232.265625 210.761719 L 229.789062 214.085938 L 232.390625 217.597656 L 231.066406 217.597656 L 229.078125 214.910156 L 227.085938 217.597656 L 225.761719 217.597656 L 228.417969 214.019531 L 225.988281 210.761719 L 227.3125 210.761719 L 229.125 213.195312 L 230.9375 210.761719 Z M 232.265625 210.761719 "/>
<g clip-path="url(#clip10)" clip-rule="nonzero">
<path style="fill:none;stroke-width:0.8;stroke-linecap:square;stroke-linejoin:round;stroke:rgb(69.019608%,69.019608%,69.019608%);stroke-opacity:1;stroke-miterlimit:4;" d="M 43.78125 139.54375 L 322.78125 139.54375 " transform="matrix(1.25,0,0,1.25,0,0)"/>
</g>
<path style="fill:none;stroke-width:0.8;stroke-linecap:butt;stroke-linejoin:round;stroke:rgb(0%,0%,0%);stroke-opacity:1;stroke-miterlimit:4;" d="M 0 0.001466 L -3.5 0.001466 " transform="matrix(1.25,0,0,1.25,54.726562,174.427855)"/>
<path style=" stroke:none;fill-rule:nonzero;fill:rgb(0%,0%,0%);fill-opacity:1;" d="M 30.070312 170.875 C 29.4375 170.875 28.960938 171.1875 28.640625 171.8125 C 28.320312 172.4375 28.160156 173.375 28.160156 174.628906 C 28.160156 175.878906 28.320312 176.816406 28.640625 177.441406 C 28.960938 178.066406 29.4375 178.378906 30.070312 178.378906 C 30.710938 178.378906 31.1875 178.066406 31.507812 177.441406 C 31.828125 176.816406 31.988281 175.878906 31.988281 174.628906 C 31.988281 173.375 31.828125 172.4375 31.507812 171.8125 C 31.1875 171.1875 30.710938 170.875 30.070312 170.875 Z M 30.070312 169.898438 C 31.09375 169.898438 31.875 170.304688 32.414062 171.113281 C 32.953125 171.917969 33.21875 173.09375 33.21875 174.628906 C 33.21875 176.164062 32.953125 177.335938 32.414062 178.144531 C 31.875 178.949219 31.09375 179.355469 30.070312 179.355469 C 29.050781 179.355469 28.269531 178.949219 27.730469 178.144531 C 27.191406 177.335938 26.921875 176.164062 26.921875 174.628906 C 26.921875 173.09375 27.191406 171.917969 27.730469 171.113281 C 28.269531 170.304688 29.050781 169.898438 30.070312 169.898438 Z M 30.070312 169.898438 "/>
<path style=" stroke:none;fill-rule:nonzero;fill:rgb(0%,0%,0%);fill-opacity:1;" d="M 35.386719 177.625 L 36.675781 177.625 L 36.675781 179.175781 L 35.386719 179.175781 Z M 35.386719 177.625 "/>
<path style=" stroke:none;fill-rule:nonzero;fill:rgb(0%,0%,0%);fill-opacity:1;" d="M 41.996094 170.875 C 41.363281 170.875 40.886719 171.1875 40.566406 171.8125 C 40.246094 172.4375 40.085938 173.375 40.085938 174.628906 C 40.085938 175.878906 40.246094 176.816406 40.566406 177.441406 C 40.886719 178.066406 41.363281 178.378906 41.996094 178.378906 C 42.636719 178.378906 43.113281 178.066406 43.433594 177.441406 C 43.753906 176.816406 43.914062 175.878906 43.914062 174.628906 C 43.914062 173.375 43.753906 172.4375 43.433594 171.8125 C 43.113281 171.1875 42.636719 170.875 41.996094 170.875 Z M 41.996094 169.898438 C 43.019531 169.898438 43.800781 170.304688 44.339844 171.113281 C 44.878906 171.917969 45.148438 173.09375 45.148438 174.628906 C 45.148438 176.164062 44.878906 177.335938 44.339844 178.144531 C 43.800781 178.949219 43.019531 179.355469 41.996094 179.355469 C 40.976562 179.355469 40.195312 178.949219 39.65625 178.144531 C 39.117188 177.335938 38.847656 176.164062 38.847656 174.628906 C 38.847656 173.09375 39.117188 171.917969 39.65625 171.113281 C 40.195312 170.304688 40.976562 169.898438 41.996094 169.898438 Z M 41.996094 169.898438 "/>
<g clip-path="url(#clip11)" clip-rule="nonzero">
<path style="fill:none;stroke-width:0.8;stroke-linecap:square;stroke-linejoin:round;stroke:rgb(69.019608%,69.019608%,69.019608%);stroke-opacity:1;stroke-miterlimit:4;" d="M 43.78125 114.325 L 322.78125 114.325 " transform="matrix(1.25,0,0,1.25,0,0)"/>
</g>
<path style="fill:none;stroke-width:0.8;stroke-linecap:butt;stroke-linejoin:round;stroke:rgb(0%,0%,0%);stroke-opacity:1;stroke-miterlimit:4;" d="M 0 0.000519 L -3.5 0.000519 " transform="matrix(1.25,0,0,1.25,54.726562,142.905601)"/>
<path style=" stroke:none;fill-rule:nonzero;fill:rgb(0%,0%,0%);fill-opacity:1;" d="M 30.070312 139.355469 C 29.4375 139.355469 28.960938 139.667969 28.640625 140.292969 C 28.320312 140.914062 28.160156 141.855469 28.160156 143.109375 C 28.160156 144.355469 28.320312 145.292969 28.640625 145.917969 C 28.960938 146.542969 29.4375 146.855469 30.070312 146.855469 C 30.710938 146.855469 31.1875 146.542969 31.507812 145.917969 C 31.828125 145.292969 31.988281 144.355469 31.988281 143.109375 C 31.988281 141.855469 31.828125 140.914062 31.507812 140.292969 C 31.1875 139.667969 30.710938 139.355469 30.070312 139.355469 Z M 30.070312 138.378906 C 31.09375 138.378906 31.875 138.78125 32.414062 139.589844 C 32.953125 140.398438 33.21875 141.570312 33.21875 143.109375 C 33.21875 144.640625 32.953125 145.8125 32.414062 146.621094 C 31.875 147.429688 31.09375 147.832031 30.070312 147.832031 C 29.050781 147.832031 28.269531 147.429688 27.730469 146.621094 C 27.191406 145.8125 26.921875 144.640625 26.921875 143.109375 C 26.921875 141.570312 27.191406 140.398438 27.730469 139.589844 C 28.269531 138.78125 29.050781 138.378906 30.070312 138.378906 Z M 30.070312 138.378906 "/>
<path style=" stroke:none;fill-rule:nonzero;fill:rgb(0%,0%,0%);fill-opacity:1;" d="M 35.386719 146.105469 L 36.675781 146.105469 L 36.675781 147.65625 L 35.386719 147.65625 Z M 35.386719 146.105469 "/>
<path style=" stroke:none;fill-rule:nonzero;fill:rgb(0%,0%,0%);fill-opacity:1;" d="M 40.421875 146.617188 L 44.726562 146.617188 L 44.726562 147.65625 L 38.941406 147.65625 L 38.941406 146.617188 C 39.40625 146.132812 40.042969 145.484375 40.851562 144.667969 C 41.660156 143.851562 42.167969 143.324219 42.375 143.089844 C 42.769531 142.644531 43.046875 142.269531 43.203125 141.964844 C 43.359375 141.65625 43.4375 141.355469 43.4375 141.058594 C 43.4375 140.574219 43.269531 140.179688 42.929688 139.875 C 42.589844 139.566406 42.144531 139.414062 41.601562 139.414062 C 41.214844 139.414062 40.804688 139.480469 40.375 139.617188 C 39.945312 139.75 39.488281 139.953125 39 140.226562 L 39 138.980469 C 39.496094 138.78125 39.960938 138.632812 40.390625 138.53125 C 40.824219 138.429688 41.21875 138.378906 41.578125 138.378906 C 42.519531 138.378906 43.273438 138.613281 43.835938 139.085938 C 44.394531 139.558594 44.675781 140.1875 44.675781 140.976562 C 44.675781 141.351562 44.605469 141.707031 44.464844 142.042969 C 44.324219 142.378906 44.070312 142.773438 43.699219 143.230469 C 43.597656 143.347656 43.273438 143.6875 42.730469 144.253906 C 42.183594 144.816406 41.414062 145.605469 40.421875 146.617188 Z M 40.421875 146.617188 "/>
<g clip-path="url(#clip12)" clip-rule="nonzero">
<path style="fill:none;stroke-width:0.8;stroke-linecap:square;stroke-linejoin:round;stroke:rgb(69.019608%,69.019608%,69.019608%);stroke-opacity:1;stroke-miterlimit:4;" d="M 43.78125 89.10625 L 322.78125 89.10625 " transform="matrix(1.25,0,0,1.25,0,0)"/>
</g>
<path style="fill:none;stroke-width:0.8;stroke-linecap:butt;stroke-linejoin:round;stroke:rgb(0%,0%,0%);stroke-opacity:1;stroke-miterlimit:4;" d="M 0 -0.000428 L -3.5 -0.000428 " transform="matrix(1.25,0,0,1.25,54.726562,111.383347)"/>
<path style=" stroke:none;fill-rule:nonzero;fill:rgb(0%,0%,0%);fill-opacity:1;" d="M 30.070312 107.832031 C 29.4375 107.832031 28.960938 108.144531 28.640625 108.769531 C 28.320312 109.394531 28.160156 110.332031 28.160156 111.585938 C 28.160156 112.835938 28.320312 113.769531 28.640625 114.394531 C 28.960938 115.019531 29.4375 115.332031 30.070312 115.332031 C 30.710938 115.332031 31.1875 115.019531 31.507812 114.394531 C 31.828125 113.769531 31.988281 112.835938 31.988281 111.585938 C 31.988281 110.332031 31.828125 109.394531 31.507812 108.769531 C 31.1875 108.144531 30.710938 107.832031 30.070312 107.832031 Z M 30.070312 106.855469 C 31.09375 106.855469 31.875 107.257812 32.414062 108.066406 C 32.953125 108.875 33.21875 110.046875 33.21875 111.585938 C 33.21875 113.121094 32.953125 114.289062 32.414062 115.097656 C 31.875 115.90625 31.09375 116.308594 30.070312 116.308594 C 29.050781 116.308594 28.269531 115.90625 27.730469 115.097656 C 27.191406 114.289062 26.921875 113.121094 26.921875 111.585938 C 26.921875 110.046875 27.191406 108.875 27.730469 108.066406 C 28.269531 107.257812 29.050781 106.855469 30.070312 106.855469 Z M 30.070312 106.855469 "/>
<path style=" stroke:none;fill-rule:nonzero;fill:rgb(0%,0%,0%);fill-opacity:1;" d="M 35.386719 114.582031 L 36.675781 114.582031 L 36.675781 116.132812 L 35.386719 116.132812 Z M 35.386719 114.582031 "/>
<path style=" stroke:none;fill-rule:nonzero;fill:rgb(0%,0%,0%);fill-opacity:1;" d="M 42.75 108.09375 L 39.636719 112.957031 L 42.75 112.957031 Z M 42.425781 107.019531 L 43.976562 107.019531 L 43.976562 112.957031 L 45.277344 112.957031 L 45.277344 113.984375 L 43.976562 113.984375 L 43.976562 116.132812 L 42.75 116.132812 L 42.75 113.984375 L 38.636719 113.984375 L 38.636719 112.792969 Z M 42.425781 107.019531 "/>
<g clip-path="url(#clip13)" clip-rule="nonzero">
<path style="fill:none;stroke-width:0.8;stroke-linecap:square;stroke-linejoin:round;stroke:rgb(69.019608%,69.019608%,69.019608%);stroke-opacity:1;stroke-miterlimit:4;" d="M 43.78125 63.8875 L 322.78125 63.8875 " transform="matrix(1.25,0,0,1.25,0,0)"/>
</g>
<path style="fill:none;stroke-width:0.8;stroke-linecap:butt;stroke-linejoin:round;stroke:rgb(0%,0%,0%);stroke-opacity:1;stroke-miterlimit:4;" d="M 0 -0.001375 L -3.5 -0.001375 " transform="matrix(1.25,0,0,1.25,54.726562,79.861094)"/>
<path style=" stroke:none;fill-rule:nonzero;fill:rgb(0%,0%,0%);fill-opacity:1;" d="M 30.070312 76.308594 C 29.4375 76.308594 28.960938 76.621094 28.640625 77.246094 C 28.320312 77.871094 28.160156 78.808594 28.160156 80.0625 C 28.160156 81.3125 28.320312 82.25 28.640625 82.875 C 28.960938 83.5 29.4375 83.8125 30.070312 83.8125 C 30.710938 83.8125 31.1875 83.5 31.507812 82.875 C 31.828125 82.25 31.988281 81.3125 31.988281 80.0625 C 31.988281 78.808594 31.828125 77.871094 31.507812 77.246094 C 31.1875 76.621094 30.710938 76.308594 30.070312 76.308594 Z M 30.070312 75.332031 C 31.09375 75.332031 31.875 75.738281 32.414062 76.546875 C 32.953125 77.351562 33.21875 78.527344 33.21875 80.0625 C 33.21875 81.597656 32.953125 82.769531 32.414062 83.578125 C 31.875 84.382812 31.09375 84.789062 30.070312 84.789062 C 29.050781 84.789062 28.269531 84.382812 27.730469 83.578125 C 27.191406 82.769531 26.921875 81.597656 26.921875 80.0625 C 26.921875 78.527344 27.191406 77.351562 27.730469 76.546875 C 28.269531 75.738281 29.050781 75.332031 30.070312 75.332031 Z M 30.070312 75.332031 "/>
<path style=" stroke:none;fill-rule:nonzero;fill:rgb(0%,0%,0%);fill-opacity:1;" d="M 35.386719 83.058594 L 36.675781 83.058594 L 36.675781 84.609375 L 35.386719 84.609375 Z M 35.386719 83.058594 "/>
<path style=" stroke:none;fill-rule:nonzero;fill:rgb(0%,0%,0%);fill-opacity:1;" d="M 42.152344 79.5625 C 41.597656 79.5625 41.160156 79.753906 40.835938 80.132812 C 40.511719 80.507812 40.351562 81.027344 40.351562 81.6875 C 40.351562 82.339844 40.511719 82.859375 40.835938 83.242188 C 41.160156 83.621094 41.597656 83.8125 42.152344 83.8125 C 42.703125 83.8125 43.140625 83.621094 43.464844 83.242188 C 43.789062 82.859375 43.949219 82.339844 43.949219 81.6875 C 43.949219 81.027344 43.789062 80.507812 43.464844 80.132812 C 43.140625 79.753906 42.703125 79.5625 42.152344 79.5625 Z M 44.597656 75.699219 L 44.597656 76.820312 C 44.289062 76.675781 43.976562 76.5625 43.660156 76.488281 C 43.34375 76.410156 43.03125 76.371094 42.722656 76.371094 C 41.910156 76.371094 41.289062 76.644531 40.859375 77.195312 C 40.429688 77.742188 40.183594 78.574219 40.125 79.683594 C 40.363281 79.332031 40.664062 79.058594 41.027344 78.871094 C 41.390625 78.679688 41.789062 78.585938 42.222656 78.585938 C 43.136719 78.585938 43.863281 78.863281 44.394531 79.421875 C 44.925781 79.976562 45.191406 80.730469 45.191406 81.6875 C 45.191406 82.621094 44.914062 83.375 44.359375 83.941406 C 43.804688 84.503906 43.070312 84.789062 42.152344 84.789062 C 41.097656 84.789062 40.289062 84.382812 39.734375 83.578125 C 39.175781 82.769531 38.898438 81.597656 38.898438 80.0625 C 38.898438 78.625 39.238281 77.476562 39.921875 76.617188 C 40.605469 75.761719 41.523438 75.332031 42.675781 75.332031 C 42.984375 75.332031 43.296875 75.363281 43.613281 75.425781 C 43.925781 75.484375 44.253906 75.578125 44.597656 75.699219 Z M 44.597656 75.699219 "/>
<g clip-path="url(#clip14)" clip-rule="nonzero">
<path style="fill:none;stroke-width:0.8;stroke-linecap:square;stroke-linejoin:round;stroke:rgb(69.019608%,69.019608%,69.019608%);stroke-opacity:1;stroke-miterlimit:4;" d="M 43.78125 38.671875 L 322.78125 38.671875 " transform="matrix(1.25,0,0,1.25,0,0)"/>
</g>
<path style="fill:none;stroke-width:0.8;stroke-linecap:butt;stroke-linejoin:round;stroke:rgb(0%,0%,0%);stroke-opacity:1;stroke-miterlimit:4;" d="M 0 0.000803 L -3.5 0.000803 " transform="matrix(1.25,0,0,1.25,54.726562,48.33884)"/>
<path style=" stroke:none;fill-rule:nonzero;fill:rgb(0%,0%,0%);fill-opacity:1;" d="M 30.070312 44.785156 C 29.4375 44.785156 28.960938 45.097656 28.640625 45.722656 C 28.320312 46.347656 28.160156 47.285156 28.160156 48.539062 C 28.160156 49.789062 28.320312 50.726562 28.640625 51.351562 C 28.960938 51.976562 29.4375 52.289062 30.070312 52.289062 C 30.710938 52.289062 31.1875 51.976562 31.507812 51.351562 C 31.828125 50.726562 31.988281 49.789062 31.988281 48.539062 C 31.988281 47.285156 31.828125 46.347656 31.507812 45.722656 C 31.1875 45.097656 30.710938 44.785156 30.070312 44.785156 Z M 30.070312 43.808594 C 31.09375 43.808594 31.875 44.214844 32.414062 45.023438 C 32.953125 45.832031 33.21875 47.003906 33.21875 48.539062 C 33.21875 50.074219 32.953125 51.246094 32.414062 52.054688 C 31.875 52.863281 31.09375 53.265625 30.070312 53.265625 C 29.050781 53.265625 28.269531 52.863281 27.730469 52.054688 C 27.191406 51.246094 26.921875 50.074219 26.921875 48.539062 C 26.921875 47.003906 27.191406 45.832031 27.730469 45.023438 C 28.269531 44.214844 29.050781 43.808594 30.070312 43.808594 Z M 30.070312 43.808594 "/>
<path style=" stroke:none;fill-rule:nonzero;fill:rgb(0%,0%,0%);fill-opacity:1;" d="M 35.386719 51.535156 L 36.675781 51.535156 L 36.675781 53.085938 L 35.386719 53.085938 Z M 35.386719 51.535156 "/>
<path style=" stroke:none;fill-rule:nonzero;fill:rgb(0%,0%,0%);fill-opacity:1;" d="M 41.996094 48.757812 C 41.410156 48.757812 40.949219 48.917969 40.613281 49.230469 C 40.277344 49.542969 40.113281 49.976562 40.113281 50.523438 C 40.113281 51.074219 40.277344 51.503906 40.613281 51.816406 C 40.949219 52.132812 41.410156 52.289062 41.996094 52.289062 C 42.582031 52.289062 43.042969 52.132812 43.382812 51.816406 C 43.71875 51.5 43.890625 51.070312 43.890625 50.523438 C 43.890625 49.976562 43.722656 49.542969 43.386719 49.230469 C 43.050781 48.917969 42.585938 48.757812 41.996094 48.757812 Z M 40.765625 48.234375 C 40.234375 48.105469 39.824219 47.859375 39.527344 47.496094 C 39.234375 47.132812 39.085938 46.691406 39.085938 46.171875 C 39.085938 45.445312 39.34375 44.867188 39.863281 44.445312 C 40.382812 44.023438 41.09375 43.808594 41.996094 43.808594 C 42.902344 43.808594 43.617188 44.023438 44.132812 44.445312 C 44.648438 44.867188 44.910156 45.445312 44.910156 46.171875 C 44.910156 46.691406 44.761719 47.132812 44.464844 47.496094 C 44.171875 47.859375 43.761719 48.105469 43.238281 48.234375 C 43.832031 48.375 44.292969 48.644531 44.625 49.046875 C 44.957031 49.449219 45.121094 49.941406 45.121094 50.523438 C 45.121094 51.40625 44.851562 52.085938 44.3125 52.558594 C 43.773438 53.03125 43 53.265625 41.996094 53.265625 C 40.992188 53.265625 40.21875 53.03125 39.679688 52.558594 C 39.140625 52.085938 38.871094 51.40625 38.871094 50.523438 C 38.871094 49.941406 39.039062 49.449219 39.371094 49.046875 C 39.707031 48.644531 40.171875 48.375 40.765625 48.234375 Z M 40.3125 46.289062 C 40.3125 46.761719 40.460938 47.128906 40.753906 47.390625 C 41.050781 47.65625 41.464844 47.789062 41.996094 47.789062 C 42.527344 47.789062 42.941406 47.65625 43.238281 47.390625 C 43.539062 47.128906 43.6875 46.761719 43.6875 46.289062 C 43.6875 45.816406 43.539062 45.449219 43.238281 45.183594 C 42.941406 44.917969 42.527344 44.785156 41.996094 44.785156 C 41.464844 44.785156 41.050781 44.917969 40.753906 45.183594 C 40.460938 45.449219 40.3125 45.816406 40.3125 46.289062 Z M 40.3125 46.289062 "/>
<g clip-path="url(#clip15)" clip-rule="nonzero">
<path style="fill:none;stroke-width:0.8;stroke-linecap:square;stroke-linejoin:round;stroke:rgb(69.019608%,69.019608%,69.019608%);stroke-opacity:1;stroke-miterlimit:4;" d="M 43.78125 13.453125 L 322.78125 13.453125 " transform="matrix(1.25,0,0,1.25,0,0)"/>
</g>
<path style="fill:none;stroke-width:0.8;stroke-linecap:butt;stroke-linejoin:round;stroke:rgb(0%,0%,0%);stroke-opacity:1;stroke-miterlimit:4;" d="M 0 -0.000144 L -3.5 -0.000144 " transform="matrix(1.25,0,0,1.25,54.726562,16.816586)"/>
<path style=" stroke:none;fill-rule:nonzero;fill:rgb(0%,0%,0%);fill-opacity:1;" d="M 27.648438 20.527344 L 29.664062 20.527344 L 29.664062 13.574219 L 27.46875 14.015625 L 27.46875 12.890625 L 29.648438 12.453125 L 30.882812 12.453125 L 30.882812 20.527344 L 32.898438 20.527344 L 32.898438 21.566406 L 27.648438 21.566406 Z M 27.648438 20.527344 "/>
<path style=" stroke:none;fill-rule:nonzero;fill:rgb(0%,0%,0%);fill-opacity:1;" d="M 35.386719 20.015625 L 36.675781 20.015625 L 36.675781 21.566406 L 35.386719 21.566406 Z M 35.386719 20.015625 "/>
<path style=" stroke:none;fill-rule:nonzero;fill:rgb(0%,0%,0%);fill-opacity:1;" d="M 41.996094 13.265625 C 41.363281 13.265625 40.886719 13.578125 40.566406 14.203125 C 40.246094 14.824219 40.085938 15.765625 40.085938 17.019531 C 40.085938 18.265625 40.246094 19.203125 40.566406 19.828125 C 40.886719 20.453125 41.363281 20.765625 41.996094 20.765625 C 42.636719 20.765625 43.113281 20.453125 43.433594 19.828125 C 43.753906 19.203125 43.914062 18.265625 43.914062 17.019531 C 43.914062 15.765625 43.753906 14.824219 43.433594 14.203125 C 43.113281 13.578125 42.636719 13.265625 41.996094 13.265625 Z M 41.996094 12.289062 C 43.019531 12.289062 43.800781 12.691406 44.339844 13.5 C 44.878906 14.308594 45.148438 15.480469 45.148438 17.019531 C 45.148438 18.550781 44.878906 19.722656 44.339844 20.53125 C 43.800781 21.339844 43.019531 21.742188 41.996094 21.742188 C 40.976562 21.742188 40.195312 21.339844 39.65625 20.53125 C 39.117188 19.722656 38.847656 18.550781 38.847656 17.019531 C 38.847656 15.480469 39.117188 14.308594 39.65625 13.5 C 40.195312 12.691406 40.976562 12.289062 41.996094 12.289062 Z M 41.996094 12.289062 "/>
<path style=" stroke:none;fill-rule:nonzero;fill:rgb(0%,0%,0%);fill-opacity:1;" d="M 11.863281 123.242188 L 12.925781 123.242188 C 12.761719 123.558594 12.640625 123.886719 12.5625 124.230469 C 12.480469 124.570312 12.4375 124.925781 12.4375 125.292969 C 12.4375 125.851562 12.523438 126.269531 12.695312 126.546875 C 12.863281 126.824219 13.121094 126.964844 13.464844 126.964844 C 13.722656 126.964844 13.929688 126.867188 14.078125 126.664062 C 14.226562 126.46875 14.367188 126.066406 14.5 125.460938 L 14.585938 125.078125 C 14.757812 124.28125 14.996094 123.714844 15.308594 123.378906 C 15.621094 123.042969 16.054688 122.875 16.613281 122.875 C 17.246094 122.875 17.75 123.125 18.121094 123.628906 C 18.492188 124.132812 18.675781 124.820312 18.675781 125.703125 C 18.675781 126.066406 18.640625 126.449219 18.570312 126.84375 C 18.496094 127.242188 18.390625 127.660156 18.25 128.101562 L 17.089844 128.101562 C 17.304688 127.683594 17.464844 127.273438 17.574219 126.875 C 17.679688 126.46875 17.734375 126.070312 17.734375 125.675781 C 17.734375 125.148438 17.644531 124.742188 17.464844 124.457031 C 17.28125 124.171875 17.027344 124.03125 16.699219 124.03125 C 16.394531 124.03125 16.160156 124.132812 15.996094 124.335938 C 15.832031 124.542969 15.675781 124.992188 15.527344 125.6875 L 15.433594 126.078125 C 15.289062 126.773438 15.0625 127.277344 14.761719 127.585938 C 14.457031 127.898438 14.039062 128.050781 13.511719 128.050781 C 12.867188 128.050781 12.371094 127.824219 12.023438 127.367188 C 11.671875 126.910156 11.5 126.265625 11.5 125.425781 C 11.5 125.011719 11.527344 124.621094 11.589844 124.257812 C 11.648438 123.890625 11.742188 123.550781 11.863281 123.242188 Z M 11.863281 123.242188 "/>
<path style=" stroke:none;fill-rule:nonzero;fill:rgb(0%,0%,0%);fill-opacity:1;" d="M 11.664062 121.085938 L 11.664062 119.964844 L 18.5 119.964844 L 18.5 121.085938 Z M 9 121.085938 L 9 119.964844 L 10.425781 119.964844 L 10.425781 121.085938 Z M 9 121.085938 "/>
<path style=" stroke:none;fill-rule:nonzero;fill:rgb(0%,0%,0%);fill-opacity:1;" d="M 15 113.117188 C 14.1875 113.117188 13.554688 113.285156 13.109375 113.621094 C 12.660156 113.953125 12.4375 114.425781 12.4375 115.03125 C 12.4375 115.632812 12.660156 116.101562 13.109375 116.4375 C 13.554688 116.773438 14.1875 116.941406 15 116.941406 C 15.808594 116.941406 16.4375 116.773438 16.886719 116.4375 C 17.335938 116.101562 17.558594 115.632812 17.558594 115.03125 C 17.558594 114.425781 17.335938 113.953125 16.886719 113.621094 C 16.4375 113.285156 15.808594 113.117188 15 113.117188 Z M 17.652344 111.992188 C 18.8125 111.992188 19.679688 112.25 20.246094 112.769531 C 20.8125 113.285156 21.097656 114.074219 21.097656 115.140625 C 21.097656 115.535156 21.070312 115.910156 21.011719 116.257812 C 20.953125 116.609375 20.859375 116.949219 20.738281 117.277344 L 19.648438 117.277344 C 19.824219 116.949219 19.957031 116.625 20.042969 116.300781 C 20.128906 115.980469 20.171875 115.652344 20.171875 115.320312 C 20.171875 114.582031 19.976562 114.03125 19.59375 113.664062 C 19.210938 113.300781 18.628906 113.117188 17.851562 113.117188 L 17.296875 113.117188 C 17.699219 113.347656 18 113.644531 18.199219 114.007812 C 18.398438 114.367188 18.5 114.800781 18.5 115.308594 C 18.5 116.144531 18.179688 116.820312 17.542969 117.332031 C 16.902344 117.847656 16.054688 118.101562 15 118.101562 C 13.941406 118.101562 13.09375 117.847656 12.457031 117.332031 C 11.816406 116.820312 11.5 116.144531 11.5 115.308594 C 11.5 114.800781 11.597656 114.367188 11.796875 114.007812 C 11.996094 113.644531 12.296875 113.347656 12.699219 113.117188 L 11.664062 113.117188 L 11.664062 111.992188 Z M 17.652344 111.992188 "/>
<path style=" stroke:none;fill-rule:nonzero;fill:rgb(0%,0%,0%);fill-opacity:1;" d="M 12.976562 104.359375 C 12.46875 104.078125 12.097656 103.742188 11.859375 103.351562 C 11.617188 102.960938 11.5 102.5 11.5 101.96875 C 11.5 101.257812 11.746094 100.710938 12.246094 100.320312 C 12.742188 99.9375 13.453125 99.742188 14.371094 99.742188 L 18.5 99.742188 L 18.5 100.871094 L 14.410156 100.871094 C 13.753906 100.871094 13.269531 100.988281 12.953125 101.21875 C 12.632812 101.453125 12.476562 101.804688 12.476562 102.28125 C 12.476562 102.863281 12.667969 103.324219 13.054688 103.664062 C 13.441406 104 13.96875 104.167969 14.636719 104.167969 L 18.5 104.167969 L 18.5 105.296875 L 14.410156 105.296875 C 13.75 105.296875 13.261719 105.414062 12.949219 105.644531 C 12.632812 105.875 12.476562 106.234375 12.476562 106.71875 C 12.476562 107.292969 12.667969 107.75 13.058594 108.085938 C 13.445312 108.425781 13.972656 108.59375 14.636719 108.59375 L 18.5 108.59375 L 18.5 109.722656 L 11.664062 109.722656 L 11.664062 108.59375 L 12.726562 108.59375 C 12.304688 108.335938 11.996094 108.03125 11.796875 107.671875 C 11.597656 107.3125 11.5 106.890625 11.5 106.398438 C 11.5 105.898438 11.625 105.476562 11.878906 105.128906 C 12.128906 104.78125 12.496094 104.523438 12.976562 104.359375 Z M 12.976562 104.359375 "/>
<path style=" stroke:none;fill-rule:nonzero;fill:rgb(0%,0%,0%);fill-opacity:1;" d="M 12.449219 94.855469 C 12.449219 95.457031 12.683594 95.933594 13.15625 96.28125 C 13.625 96.632812 14.269531 96.808594 15.085938 96.808594 C 15.902344 96.808594 16.546875 96.632812 17.019531 96.285156 C 17.488281 95.9375 17.722656 95.460938 17.722656 94.855469 C 17.722656 94.253906 17.488281 93.78125 17.015625 93.433594 C 16.542969 93.082031 15.898438 92.90625 15.085938 92.90625 C 14.277344 92.90625 13.632812 93.082031 13.160156 93.433594 C 12.6875 93.78125 12.449219 94.253906 12.449219 94.855469 Z M 11.5 94.855469 C 11.5 93.878906 11.816406 93.109375 12.453125 92.554688 C 13.085938 91.996094 13.964844 91.714844 15.085938 91.714844 C 16.203125 91.714844 17.082031 91.996094 17.722656 92.554688 C 18.359375 93.109375 18.675781 93.878906 18.675781 94.855469 C 18.675781 95.835938 18.359375 96.601562 17.722656 97.160156 C 17.082031 97.714844 16.203125 97.992188 15.085938 97.992188 C 13.964844 97.992188 13.085938 97.714844 12.453125 97.160156 C 11.816406 96.601562 11.5 95.835938 11.5 94.855469 Z M 11.5 94.855469 "/>
<path style=" stroke:none;fill-rule:nonzero;fill:rgb(0%,0%,0%);fill-opacity:1;" d="M 11.664062 89.855469 L 11.664062 88.734375 L 18.5 88.734375 L 18.5 89.855469 Z M 9 89.855469 L 9 88.734375 L 10.425781 88.734375 L 10.425781 89.855469 Z M 9 89.855469 "/>
<path style=" stroke:none;fill-rule:nonzero;fill:rgb(0%,0%,0%);fill-opacity:1;" d="M 12.699219 81.882812 L 9 81.882812 L 9 80.761719 L 18.5 80.761719 L 18.5 81.882812 L 17.472656 81.882812 C 17.878906 82.121094 18.179688 82.417969 18.378906 82.777344 C 18.578125 83.136719 18.675781 83.570312 18.675781 84.074219 C 18.675781 84.902344 18.347656 85.574219 17.6875 86.09375 C 17.027344 86.613281 16.160156 86.871094 15.085938 86.871094 C 14.011719 86.871094 13.144531 86.613281 12.488281 86.09375 C 11.828125 85.574219 11.5 84.902344 11.5 84.074219 C 11.5 83.570312 11.597656 83.136719 11.796875 82.777344 C 11.992188 82.417969 12.292969 82.121094 12.699219 81.882812 Z M 15.085938 85.710938 C 15.910156 85.710938 16.558594 85.539062 17.03125 85.199219 C 17.5 84.859375 17.734375 84.394531 17.734375 83.800781 C 17.734375 83.207031 17.5 82.738281 17.03125 82.398438 C 16.558594 82.054688 15.910156 81.882812 15.085938 81.882812 C 14.261719 81.882812 13.613281 82.054688 13.144531 82.398438 C 12.671875 82.738281 12.4375 83.207031 12.4375 83.800781 C 12.4375 84.394531 12.671875 84.859375 13.144531 85.199219 C 13.613281 85.539062 14.261719 85.710938 15.085938 85.710938 Z M 15.085938 85.710938 "/>
<path style=" stroke:none;fill-rule:nonzero;fill:rgb(0%,0%,0%);fill-opacity:1;" d="M 9.015625 75.75 C 9.949219 76.296875 10.875 76.699219 11.792969 76.964844 C 12.707031 77.230469 13.632812 77.363281 14.574219 77.363281 C 15.511719 77.363281 16.445312 77.230469 17.367188 76.960938 C 18.289062 76.695312 19.214844 76.292969 20.148438 75.75 L 20.148438 76.726562 C 19.191406 77.335938 18.25 77.792969 17.328125 78.097656 C 16.402344 78.398438 15.484375 78.550781 14.574219 78.550781 C 13.667969 78.550781 12.753906 78.402344 11.835938 78.101562 C 10.914062 77.796875 9.972656 77.339844 9.015625 76.726562 Z M 9.015625 75.75 "/>
<path style=" stroke:none;fill-rule:nonzero;fill:rgb(0%,0%,0%);fill-opacity:1;" d="M 11.664062 67.886719 L 14.988281 70.359375 L 18.5 67.761719 L 18.5 69.085938 L 15.8125 71.074219 L 18.5 73.0625 L 18.5 74.390625 L 14.921875 71.734375 L 11.664062 74.164062 L 11.664062 72.839844 L 14.097656 71.027344 L 11.664062 69.214844 Z M 11.664062 67.886719 "/>
<path style=" stroke:none;fill-rule:nonzero;fill:rgb(0%,0%,0%);fill-opacity:1;" d="M 9.015625 66.351562 L 9.015625 65.375 C 9.972656 64.765625 10.914062 64.308594 11.835938 64.003906 C 12.753906 63.699219 13.667969 63.546875 14.574219 63.546875 C 15.484375 63.546875 16.402344 63.699219 17.328125 64.003906 C 18.25 64.308594 19.191406 64.765625 20.148438 65.375 L 20.148438 66.351562 C 19.214844 65.808594 18.289062 65.40625 17.367188 65.140625 C 16.445312 64.871094 15.511719 64.738281 14.574219 64.738281 C 13.632812 64.738281 12.707031 64.871094 11.792969 65.140625 C 10.875 65.40625 9.949219 65.808594 9.015625 66.351562 Z M 9.015625 66.351562 "/>
<path style="fill:none;stroke-width:1.5;stroke-linecap:square;stroke-linejoin:round;stroke:rgb(12.156863%,46.666667%,70.588235%);stroke-opacity:1;stroke-miterlimit:4;" d="M 56.4625 139.5 L 81.9875 139.334375 L 96.34375 139.028125 L 105.915625 138.609375 L 113.890625 138.0125 L 120.271875 137.275 L 125.05625 136.5 L 129.840625 135.46875 L 133.03125 134.603125 L 136.221875 133.5625 L 139.4125 132.315625 L 142.603125 130.825 L 145.79375 129.05625 L 148.984375 126.965625 L 152.175 124.5125 L 155.365625 121.65625 L 158.55625 118.3625 L 161.746875 114.6 L 164.9375 110.35625 L 168.128125 105.63125 L 171.31875 100.45 L 174.50625 94.8625 L 179.29375 85.884375 L 193.65 58.13125 L 196.840625 52.54375 L 200.03125 47.3625 L 203.221875 42.640625 L 206.4125 38.396875 L 209.603125 34.634375 L 212.79375 31.340625 L 215.98125 28.484375 L 219.171875 26.03125 L 222.3625 23.940625 L 225.553125 22.171875 L 228.74375 20.68125 L 231.934375 19.434375 L 235.125 18.390625 L 238.315625 17.525 L 243.1 16.496875 L 247.8875 15.721875 L 254.26875 14.98125 L 260.646875 14.48125 L 268.625 14.078125 L 279.790625 13.765625 L 295.74375 13.56875 L 310.1 13.5 " transform="matrix(1.25,0,0,1.25,0,0)"/>
<path style="fill:none;stroke-width:0.8;stroke-linecap:square;stroke-linejoin:miter;stroke:rgb(0%,0%,0%);stroke-opacity:1;stroke-miterlimit:4;" d="M 43.78125 145.8 L 43.78125 7.2 " transform="matrix(1.25,0,0,1.25,0,0)"/>
<path style="fill:none;stroke-width:0.8;stroke-linecap:square;stroke-linejoin:miter;stroke:rgb(0%,0%,0%);stroke-opacity:1;stroke-miterlimit:4;" d="M 322.78125 145.8 L 322.78125 7.2 " transform="matrix(1.25,0,0,1.25,0,0)"/>
<path style="fill:none;stroke-width:0.8;stroke-linecap:square;stroke-linejoin:miter;stroke:rgb(0%,0%,0%);stroke-opacity:1;stroke-miterlimit:4;" d="M 43.78125 145.8 L 322.78125 145.8 " transform="matrix(1.25,0,0,1.25,0,0)"/>
<path style="fill:none;stroke-width:0.8;stroke-linecap:square;stroke-linejoin:miter;stroke:rgb(0%,0%,0%);stroke-opacity:1;stroke-miterlimit:4;" d="M 43.78125 7.2 L 322.78125 7.2 " transform="matrix(1.25,0,0,1.25,0,0)"/>
</g>
</svg>
