<?xml version="1.0" encoding="UTF-8"?>
<svg xmlns="http://www.w3.org/2000/svg" xmlns:xlink="http://www.w3.org/1999/xlink" width="329pt" height="233pt" viewBox="0 0 329 233" version="1.1">
<defs>
<clipPath id="clip1">
  <path d="M 102 13.238281 L 104 13.238281 L 104 186.488281 L 102 186.488281 Z M 102 13.238281 "/>
</clipPath>
<clipPath id="clip2">
  <path d="M 153 13.238281 L 155 13.238281 L 155 186.488281 L 153 186.488281 Z M 153 13.238281 "/>
</clipPath>
<clipPath id="clip3">
  <path d="M 204 13.238281 L 207 13.238281 L 207 186.488281 L 204 186.488281 Z M 204 13.238281 "/>
</clipPath>
<clipPath id="clip4">
  <path d="M 256 13.238281 L 258 13.238281 L 258 186.488281 L 256 186.488281 Z M 256 13.238281 "/>
</clipPath>
<clipPath id="clip5">
  <path d="M 307 13.238281 L 308.347656 13.238281 L 308.347656 186.488281 L 307 186.488281 Z M 307 13.238281 "/>
</clipPath>
<clipPath id="clip6">
  <path d="M 64.222656 138 L 308.347656 138 L 308.347656 140 L 64.222656 140 Z M 64.222656 138 "/>
</clipPath>
<clipPath id="clip7">
  <path d="M 64.222656 75 L 308.347656 75 L 308.347656 78 L 64.222656 78 Z M 64.222656 75 "/>
</clipPath>
<clipPath id="clip8">
  <path d="M 64.222656 13.238281 L 308.347656 13.238281 L 308.347656 15 L 64.222656 15 Z M 64.222656 13.238281 "/>
</clipPath>
<clipPath id="clip9">
  <path d="M 64.222656 33 L 308.347656 33 L 308.347656 180 L 64.222656 180 Z M 64.222656 33 "/>
</clipPath>
<clipPath id="clip10">
  <path d="M 64.222656 20 L 308.347656 20 L 308.347656 111 L 64.222656 111 Z M 64.222656 20 "/>
</clipPath>
<filter id="alpha" filterUnits="objectBoundingBox" x="0%" y="0%" width="100%" height="100%">
  <feColorMatrix type="matrix" in="SourceGraphic" values="0 0 0 0 1 0 0 0 0 1 0 0 0 0 1 0 0 0 1 0"/>
</filter>
<mask id="mask0">
  <g filter="url(#alpha)">
<rect x="0" y="0" width="329" height="233" style="fill:rgb(0%,0%,0%);fill-opacity:0.8;stroke:none;"/>
  </g>
</mask>
<clipPath id="clip11">
  <rect x="0" y="0" width="329" height="233"/>
</clipPath>
<g id="surface5" clip-path="url(#clip11)">
<path style="fill-rule:nonzero;fill:rgb(100%,100%,100%);fill-opacity:1;stroke-width:1;stroke-linecap:butt;stroke-linejoin:miter;stroke:rgb(80%,80%,80%);stroke-opacity:1;stroke-miterlimit:4;" d="M 184.403125 47.946875 L 239.678125 47.946875 C 241.0125 47.946875 241.678125 47.28125 241.678125 45.946875 L 241.678125 17.590625 C 241.678125 16.25625 241.0125 15.590625 239.678125 15.590625 L 184.403125 15.590625 C 183.06875 15.590625 182.403125 16.25625 182.403125 17.590625 L 182.403125 45.946875 C 182.403125 47.28125 183.06875 47.946875 184.403125 47.946875 Z M 184.403125 47.946875 " transform="matrix(1.25,0,0,1.25,0,0)"/>
</g>
</defs>
<g id="surface1">
<rect x="0" y="0" width="329" height="233" style="fill:rgb(100%,100%,100%);fill-opacity:1;stroke:none;"/>
<path style=" stroke:none;fill-rule:nonzero;fill:rgb(100%,100%,100%);fill-opacity:1;" d="M 64.222656 186.488281 L 308.347656 186.488281 L 308.347656 13.238281 L 64.222656 13.238281 Z M 64.222656 186.488281 "/>
<g clip-path="url(#clip1)" clip-rule="nonzero">
<path style="fill:none;stroke-width:0.8;stroke-linecap:square;stroke-linejoin:round;stroke:rgb(69.019608%,69.019608%,69.019608%);stroke-opacity:1;stroke-miterlimit:4;" d="M 82.215625 149.190625 L 82.215625 10.590625 " transform="matrix(1.25,0,0,1.25,0,0)"/>
</g>
<path style="fill:none;stroke-width:0.8;stroke-linecap:butt;stroke-linejoin:round;stroke:rgb(0%,0%,0%);stroke-opacity:1;stroke-miterlimit:4;" d="M 0.000658 0.000297 L 0.000658 3.500297 " transform="matrix(1.25,0,0,1.25,102.768709,186.48791)"/>
<path style=" stroke:none;fill-rule:nonzero;fill:rgb(0%,0%,0%);fill-opacity:1;" d="M 97.214844 203.699219 L 101.515625 203.699219 L 101.515625 204.734375 L 95.730469 204.734375 L 95.730469 203.699219 C 96.199219 203.214844 96.835938 202.566406 97.644531 201.75 C 98.453125 200.933594 98.960938 200.40625 99.167969 200.167969 C 99.5625 199.726562 99.835938 199.351562 99.992188 199.042969 C 100.152344 198.738281 100.230469 198.433594 100.230469 198.136719 C 100.230469 197.652344 100.058594 197.257812 99.71875 196.953125 C 99.378906 196.648438 98.9375 196.496094 98.390625 196.496094 C 98.003906 196.496094 97.597656 196.5625 97.167969 196.695312 C 96.738281 196.832031 96.28125 197.035156 95.792969 197.308594 L 95.792969 196.0625 C 96.289062 195.863281 96.75 195.710938 97.183594 195.609375 C 97.613281 195.507812 98.011719 195.457031 98.367188 195.457031 C 99.3125 195.457031 100.066406 195.695312 100.625 196.167969 C 101.1875 196.640625 101.46875 197.269531 101.46875 198.058594 C 101.46875 198.433594 101.398438 198.789062 101.257812 199.125 C 101.117188 199.460938 100.863281 199.855469 100.492188 200.308594 C 100.390625 200.429688 100.066406 200.769531 99.519531 201.332031 C 98.976562 201.898438 98.207031 202.6875 97.214844 203.699219 Z M 97.214844 203.699219 "/>
<path style=" stroke:none;fill-rule:nonzero;fill:rgb(0%,0%,0%);fill-opacity:1;" d="M 106.742188 196.433594 C 106.105469 196.433594 105.628906 196.746094 105.308594 197.371094 C 104.992188 197.996094 104.832031 198.933594 104.832031 200.1875 C 104.832031 201.4375 104.992188 202.375 105.308594 203 C 105.628906 203.625 106.105469 203.9375 106.742188 203.9375 C 107.378906 203.9375 107.859375 203.625 108.179688 203 C 108.5 202.375 108.660156 201.4375 108.660156 200.1875 C 108.660156 198.933594 108.5 197.996094 108.179688 197.371094 C 107.859375 196.746094 107.378906 196.433594 106.742188 196.433594 Z M 106.742188 195.457031 C 107.761719 195.457031 108.542969 195.863281 109.082031 196.671875 C 109.621094 197.480469 109.890625 198.652344 109.890625 200.1875 C 109.890625 201.722656 109.621094 202.894531 109.082031 203.703125 C 108.542969 204.511719 107.761719 204.914062 106.742188 204.914062 C 105.71875 204.914062 104.941406 204.511719 104.402344 203.703125 C 103.863281 202.894531 103.59375 201.722656 103.59375 200.1875 C 103.59375 198.652344 103.863281 197.480469 104.402344 196.671875 C 104.941406 195.863281 105.71875 195.457031 106.742188 195.457031 Z M 106.742188 195.457031 "/>
<g clip-path="url(#clip2)" clip-rule="nonzero">
<path style="fill:none;stroke-width:0.8;stroke-linecap:square;stroke-linejoin:round;stroke:rgb(69.019608%,69.019608%,69.019608%);stroke-opacity:1;stroke-miterlimit:4;" d="M 123.33125 149.190625 L 123.33125 10.590625 " transform="matrix(1.25,0,0,1.25,0,0)"/>
</g>
<path style="fill:none;stroke-width:0.8;stroke-linecap:butt;stroke-linejoin:round;stroke:rgb(0%,0%,0%);stroke-opacity:1;stroke-miterlimit:4;" d="M 0.000493 0.000297 L 0.000493 3.500297 " transform="matrix(1.25,0,0,1.25,154.163446,186.48791)"/>
<path style=" stroke:none;fill-rule:nonzero;fill:rgb(0%,0%,0%);fill-opacity:1;" d="M 150.933594 196.695312 L 147.820312 201.5625 L 150.933594 201.5625 Z M 150.609375 195.621094 L 152.160156 195.621094 L 152.160156 201.5625 L 153.460938 201.5625 L 153.460938 202.585938 L 152.160156 202.585938 L 152.160156 204.734375 L 150.933594 204.734375 L 150.933594 202.585938 L 146.820312 202.585938 L 146.820312 201.398438 Z M 150.609375 195.621094 "/>
<path style=" stroke:none;fill-rule:nonzero;fill:rgb(0%,0%,0%);fill-opacity:1;" d="M 158.136719 196.433594 C 157.5 196.433594 157.023438 196.746094 156.703125 197.371094 C 156.386719 197.996094 156.226562 198.933594 156.226562 200.1875 C 156.226562 201.4375 156.386719 202.375 156.703125 203 C 157.023438 203.625 157.5 203.9375 158.136719 203.9375 C 158.773438 203.9375 159.253906 203.625 159.574219 203 C 159.894531 202.375 160.054688 201.4375 160.054688 200.1875 C 160.054688 198.933594 159.894531 197.996094 159.574219 197.371094 C 159.253906 196.746094 158.773438 196.433594 158.136719 196.433594 Z M 158.136719 195.457031 C 159.15625 195.457031 159.9375 195.863281 160.476562 196.671875 C 161.015625 197.480469 161.285156 198.652344 161.285156 200.1875 C 161.285156 201.722656 161.015625 202.894531 160.476562 203.703125 C 159.9375 204.511719 159.15625 204.914062 158.136719 204.914062 C 157.113281 204.914062 156.335938 204.511719 155.796875 203.703125 C 155.257812 202.894531 154.988281 201.722656 154.988281 200.1875 C 154.988281 198.652344 155.257812 197.480469 155.796875 196.671875 C 156.335938 195.863281 157.113281 195.457031 158.136719 195.457031 Z M 158.136719 195.457031 "/>
<g clip-path="url(#clip3)" clip-rule="nonzero">
<path style="fill:none;stroke-width:0.8;stroke-linecap:square;stroke-linejoin:round;stroke:rgb(69.019608%,69.019608%,69.019608%);stroke-opacity:1;stroke-miterlimit:4;" d="M 164.446875 149.190625 L 164.446875 10.590625 " transform="matrix(1.25,0,0,1.25,0,0)"/>
</g>
<path style="fill:none;stroke-width:0.8;stroke-linecap:butt;stroke-linejoin:round;stroke:rgb(0%,0%,0%);stroke-opacity:1;stroke-miterlimit:4;" d="M 0.000329 0.000297 L 0.000329 3.500297 " transform="matrix(1.25,0,0,1.25,205.558183,186.48791)"/>
<path style=" stroke:none;fill-rule:nonzero;fill:rgb(0%,0%,0%);fill-opacity:1;" d="M 201.730469 199.6875 C 201.179688 199.6875 200.738281 199.878906 200.414062 200.257812 C 200.09375 200.636719 199.929688 201.152344 199.929688 201.8125 C 199.929688 202.46875 200.09375 202.984375 200.414062 203.367188 C 200.738281 203.746094 201.179688 203.9375 201.730469 203.9375 C 202.285156 203.9375 202.722656 203.746094 203.046875 203.367188 C 203.371094 202.984375 203.53125 202.46875 203.53125 201.8125 C 203.53125 201.152344 203.371094 200.636719 203.046875 200.257812 C 202.722656 199.878906 202.285156 199.6875 201.730469 199.6875 Z M 204.179688 195.824219 L 204.179688 196.945312 C 203.871094 196.800781 203.558594 196.691406 203.242188 196.613281 C 202.925781 196.535156 202.613281 196.496094 202.304688 196.496094 C 201.492188 196.496094 200.867188 196.769531 200.4375 197.320312 C 200.011719 197.871094 199.765625 198.699219 199.703125 199.808594 C 199.945312 199.457031 200.246094 199.183594 200.605469 198.996094 C 200.96875 198.808594 201.371094 198.710938 201.804688 198.710938 C 202.71875 198.710938 203.441406 198.992188 203.972656 199.546875 C 204.503906 200.101562 204.769531 200.855469 204.769531 201.8125 C 204.769531 202.75 204.496094 203.5 203.941406 204.066406 C 203.386719 204.632812 202.652344 204.914062 201.730469 204.914062 C 200.675781 204.914062 199.871094 204.511719 199.3125 203.703125 C 198.757812 202.894531 198.476562 201.722656 198.476562 200.1875 C 198.476562 198.75 198.820312 197.601562 199.503906 196.742188 C 200.1875 195.886719 201.105469 195.457031 202.253906 195.457031 C 202.566406 195.457031 202.878906 195.488281 203.191406 195.550781 C 203.507812 195.613281 203.835938 195.703125 204.179688 195.824219 Z M 204.179688 195.824219 "/>
<path style=" stroke:none;fill-rule:nonzero;fill:rgb(0%,0%,0%);fill-opacity:1;" d="M 209.53125 196.433594 C 208.894531 196.433594 208.417969 196.746094 208.097656 197.371094 C 207.78125 197.996094 207.621094 198.933594 207.621094 200.1875 C 207.621094 201.4375 207.78125 202.375 208.097656 203 C 208.417969 203.625 208.894531 203.9375 209.53125 203.9375 C 210.167969 203.9375 210.648438 203.625 210.96875 203 C 211.289062 202.375 211.449219 201.4375 211.449219 200.1875 C 211.449219 198.933594 211.289062 197.996094 210.96875 197.371094 C 210.648438 196.746094 210.167969 196.433594 209.53125 196.433594 Z M 209.53125 195.457031 C 210.550781 195.457031 211.332031 195.863281 211.871094 196.671875 C 212.410156 197.480469 212.679688 198.652344 212.679688 200.1875 C 212.679688 201.722656 212.410156 202.894531 211.871094 203.703125 C 211.332031 204.511719 210.550781 204.914062 209.53125 204.914062 C 208.507812 204.914062 207.730469 204.511719 207.191406 203.703125 C 206.652344 202.894531 206.382812 201.722656 206.382812 200.1875 C 206.382812 198.652344 206.652344 197.480469 207.191406 196.671875 C 207.730469 195.863281 208.507812 195.457031 209.53125 195.457031 Z M 209.53125 195.457031 "/>
<g clip-path="url(#clip4)" clip-rule="nonzero">
<path style="fill:none;stroke-width:0.8;stroke-linecap:square;stroke-linejoin:round;stroke:rgb(69.019608%,69.019608%,69.019608%);stroke-opacity:1;stroke-miterlimit:4;" d="M 205.5625 149.190625 L 205.5625 10.590625 " transform="matrix(1.25,0,0,1.25,0,0)"/>
</g>
<path style="fill:none;stroke-width:0.8;stroke-linecap:butt;stroke-linejoin:round;stroke:rgb(0%,0%,0%);stroke-opacity:1;stroke-miterlimit:4;" d="M 0.000164 0.000297 L 0.000164 3.500297 " transform="matrix(1.25,0,0,1.25,256.95292,186.48791)"/>
<path style=" stroke:none;fill-rule:nonzero;fill:rgb(0%,0%,0%);fill-opacity:1;" d="M 252.972656 200.40625 C 252.386719 200.40625 251.925781 200.566406 251.589844 200.878906 C 251.253906 201.191406 251.085938 201.625 251.085938 202.171875 C 251.085938 202.722656 251.253906 203.152344 251.589844 203.464844 C 251.925781 203.78125 252.386719 203.9375 252.972656 203.9375 C 253.558594 203.9375 254.019531 203.78125 254.355469 203.464844 C 254.695312 203.148438 254.863281 202.71875 254.863281 202.171875 C 254.863281 201.625 254.695312 201.191406 254.359375 200.878906 C 254.027344 200.566406 253.5625 200.40625 252.972656 200.40625 Z M 251.738281 199.882812 C 251.210938 199.753906 250.800781 199.507812 250.503906 199.144531 C 250.210938 198.78125 250.0625 198.339844 250.0625 197.820312 C 250.0625 197.09375 250.320312 196.515625 250.839844 196.09375 C 251.359375 195.671875 252.070312 195.457031 252.972656 195.457031 C 253.878906 195.457031 254.59375 195.671875 255.109375 196.09375 C 255.625 196.515625 255.882812 197.09375 255.882812 197.820312 C 255.882812 198.339844 255.738281 198.78125 255.441406 199.144531 C 255.148438 199.507812 254.738281 199.753906 254.210938 199.882812 C 254.804688 200.023438 255.269531 200.292969 255.597656 200.695312 C 255.929688 201.097656 256.097656 201.589844 256.097656 202.171875 C 256.097656 203.054688 255.828125 203.734375 255.289062 204.207031 C 254.75 204.679688 253.976562 204.914062 252.972656 204.914062 C 251.96875 204.914062 251.195312 204.679688 250.65625 204.207031 C 250.117188 203.734375 249.847656 203.054688 249.847656 202.171875 C 249.847656 201.589844 250.015625 201.097656 250.347656 200.695312 C 250.683594 200.292969 251.144531 200.023438 251.738281 199.882812 Z M 251.289062 197.9375 C 251.289062 198.410156 251.4375 198.777344 251.730469 199.039062 C 252.027344 199.304688 252.441406 199.4375 252.972656 199.4375 C 253.503906 199.4375 253.917969 199.304688 254.214844 199.039062 C 254.515625 198.777344 254.664062 198.410156 254.664062 197.9375 C 254.664062 197.464844 254.515625 197.097656 254.214844 196.832031 C 253.917969 196.566406 253.503906 196.433594 252.972656 196.433594 C 252.441406 196.433594 252.027344 196.566406 251.730469 196.832031 C 251.4375 197.097656 251.289062 197.464844 251.289062 197.9375 Z M 251.289062 197.9375 "/>
<path style=" stroke:none;fill-rule:nonzero;fill:rgb(0%,0%,0%);fill-opacity:1;" d="M 260.925781 196.433594 C 260.292969 196.433594 259.8125 196.746094 259.492188 197.371094 C 259.175781 197.996094 259.015625 198.933594 259.015625 200.1875 C 259.015625 201.4375 259.175781 202.375 259.492188 203 C 259.8125 203.625 260.292969 203.9375 260.925781 203.9375 C 261.566406 203.9375 262.042969 203.625 262.363281 203 C 262.683594 202.375 262.84375 201.4375 262.84375 200.1875 C 262.84375 198.933594 262.683594 197.996094 262.363281 197.371094 C 262.042969 196.746094 261.566406 196.433594 260.925781 196.433594 Z M 260.925781 195.457031 C 261.949219 195.457031 262.726562 195.863281 263.265625 196.671875 C 263.804688 197.480469 264.074219 198.652344 264.074219 200.1875 C 264.074219 201.722656 263.804688 202.894531 263.265625 203.703125 C 262.726562 204.511719 261.949219 204.914062 260.925781 204.914062 C 259.90625 204.914062 259.125 204.511719 258.585938 203.703125 C 258.046875 202.894531 257.777344 201.722656 257.777344 200.1875 C 257.777344 198.652344 258.046875 197.480469 258.585938 196.671875 C 259.125 195.863281 259.90625 195.457031 260.925781 195.457031 Z M 260.925781 195.457031 "/>
<g clip-path="url(#clip5)" clip-rule="nonzero">
<path style="fill:none;stroke-width:0.8;stroke-linecap:square;stroke-linejoin:round;stroke:rgb(69.019608%,69.019608%,69.019608%);stroke-opacity:1;stroke-miterlimit:4;" d="M 246.678125 149.190625 L 246.678125 10.590625 " transform="matrix(1.25,0,0,1.25,0,0)"/>
</g>
<path style="fill:none;stroke-width:0.8;stroke-linecap:butt;stroke-linejoin:round;stroke:rgb(0%,0%,0%);stroke-opacity:1;stroke-miterlimit:4;" d="M 0 0.000297 L 0 3.500297 " transform="matrix(1.25,0,0,1.25,308.347656,186.48791)"/>
<path style=" stroke:none;fill-rule:nonzero;fill:rgb(0%,0%,0%);fill-opacity:1;" d="M 297.96875 203.699219 L 299.984375 203.699219 L 299.984375 196.746094 L 297.789062 197.183594 L 297.789062 196.0625 L 299.96875 195.621094 L 301.203125 195.621094 L 301.203125 203.699219 L 303.21875 203.699219 L 303.21875 204.734375 L 297.96875 204.734375 Z M 297.96875 203.699219 "/>
<path style=" stroke:none;fill-rule:nonzero;fill:rgb(0%,0%,0%);fill-opacity:1;" d="M 308.34375 196.433594 C 307.710938 196.433594 307.230469 196.746094 306.910156 197.371094 C 306.59375 197.996094 306.433594 198.933594 306.433594 200.1875 C 306.433594 201.4375 306.59375 202.375 306.910156 203 C 307.230469 203.625 307.710938 203.9375 308.34375 203.9375 C 308.984375 203.9375 309.460938 203.625 309.78125 203 C 310.101562 202.375 310.261719 201.4375 310.261719 200.1875 C 310.261719 198.933594 310.101562 197.996094 309.78125 197.371094 C 309.460938 196.746094 308.984375 196.433594 308.34375 196.433594 Z M 308.34375 195.457031 C 309.367188 195.457031 310.144531 195.863281 310.683594 196.671875 C 311.222656 197.480469 311.492188 198.652344 311.492188 200.1875 C 311.492188 201.722656 311.222656 202.894531 310.683594 203.703125 C 310.144531 204.511719 309.367188 204.914062 308.34375 204.914062 C 307.324219 204.914062 306.542969 204.511719 306.003906 203.703125 C 305.464844 202.894531 305.195312 201.722656 305.195312 200.1875 C 305.195312 198.652344 305.464844 197.480469 306.003906 196.671875 C 306.542969 195.863281 307.324219 195.457031 308.34375 195.457031 Z M 308.34375 195.457031 "/>
<path style=" stroke:none;fill-rule:nonzero;fill:rgb(0%,0%,0%);fill-opacity:1;" d="M 316.296875 196.433594 C 315.664062 196.433594 315.183594 196.746094 314.863281 197.371094 C 314.546875 197.996094 314.386719 198.933594 314.386719 200.1875 C 314.386719 201.4375 314.546875 202.375 314.863281 203 C 315.183594 203.625 315.664062 203.9375 316.296875 203.9375 C 316.9375 203.9375 317.414062 203.625 317.734375 203 C 318.054688 202.375 318.214844 201.4375 318.214844 200.1875 C 318.214844 198.933594 318.054688 197.996094 317.734375 197.371094 C 317.414062 196.746094 316.9375 196.433594 316.296875 196.433594 Z M 316.296875 195.457031 C 317.320312 195.457031 318.097656 195.863281 318.636719 196.671875 C 319.175781 197.480469 319.445312 198.652344 319.445312 200.1875 C 319.445312 201.722656 319.175781 202.894531 318.636719 203.703125 C 318.097656 204.511719 317.320312 204.914062 316.296875 204.914062 C 315.277344 204.914062 314.496094 204.511719 313.957031 203.703125 C 313.417969 202.894531 313.148438 201.722656 313.148438 200.1875 C 313.148438 198.652344 313.417969 197.480469 313.957031 196.671875 C 314.496094 195.863281 315.277344 195.457031 316.296875 195.457031 Z M 316.296875 195.457031 "/>
<path style=" stroke:none;fill-rule:nonzero;fill:rgb(0%,0%,0%);fill-opacity:1;" d="M 171.019531 218.132812 L 171.019531 218.683594 L 165.855469 218.683594 C 165.90625 219.457031 166.136719 220.046875 166.554688 220.449219 C 166.972656 220.855469 167.550781 221.058594 168.296875 221.058594 C 168.726562 221.058594 169.144531 221.003906 169.550781 220.898438 C 169.957031 220.792969 170.359375 220.636719 170.757812 220.421875 L 170.757812 221.484375 C 170.355469 221.65625 169.941406 221.785156 169.515625 221.875 C 169.09375 221.964844 168.664062 222.011719 168.230469 222.011719 C 167.140625 222.011719 166.273438 221.695312 165.636719 221.058594 C 165 220.425781 164.683594 219.566406 164.683594 218.480469 C 164.683594 217.363281 164.984375 216.476562 165.589844 215.820312 C 166.195312 215.164062 167.007812 214.832031 168.035156 214.832031 C 168.953125 214.832031 169.679688 215.128906 170.214844 215.722656 C 170.75 216.3125 171.019531 217.117188 171.019531 218.132812 Z M 169.894531 217.804688 C 169.886719 217.191406 169.714844 216.703125 169.378906 216.335938 C 169.042969 215.96875 168.601562 215.785156 168.046875 215.785156 C 167.421875 215.785156 166.917969 215.960938 166.542969 216.316406 C 166.167969 216.671875 165.949219 217.167969 165.890625 217.8125 Z M 169.894531 217.804688 "/>
<path style=" stroke:none;fill-rule:nonzero;fill:rgb(0%,0%,0%);fill-opacity:1;" d="M 173.949219 220.808594 L 173.949219 224.433594 L 172.820312 224.433594 L 172.820312 214.996094 L 173.949219 214.996094 L 173.949219 216.035156 C 174.183594 215.628906 174.484375 215.328125 174.84375 215.128906 C 175.203125 214.933594 175.632812 214.832031 176.132812 214.832031 C 176.964844 214.832031 177.640625 215.164062 178.15625 215.820312 C 178.675781 216.480469 178.9375 217.347656 178.9375 218.421875 C 178.9375 219.496094 178.675781 220.363281 178.15625 221.023438 C 177.640625 221.683594 176.964844 222.011719 176.132812 222.011719 C 175.632812 222.011719 175.203125 221.914062 174.84375 221.714844 C 174.484375 221.515625 174.183594 221.214844 173.949219 220.808594 Z M 177.769531 218.421875 C 177.769531 217.597656 177.601562 216.949219 177.261719 216.476562 C 176.921875 216.007812 176.453125 215.773438 175.859375 215.773438 C 175.265625 215.773438 174.796875 216.007812 174.457031 216.476562 C 174.117188 216.949219 173.949219 217.597656 173.949219 218.421875 C 173.949219 219.246094 174.117188 219.894531 174.457031 220.363281 C 174.796875 220.835938 175.265625 221.070312 175.859375 221.070312 C 176.453125 221.070312 176.921875 220.835938 177.261719 220.363281 C 177.601562 219.894531 177.769531 219.246094 177.769531 218.421875 Z M 177.769531 218.421875 "/>
<path style=" stroke:none;fill-rule:nonzero;fill:rgb(0%,0%,0%);fill-opacity:1;" d="M 183.445312 215.785156 C 182.84375 215.785156 182.367188 216.019531 182.015625 216.488281 C 181.667969 216.960938 181.492188 217.605469 181.492188 218.421875 C 181.492188 219.238281 181.664062 219.882812 182.011719 220.351562 C 182.363281 220.824219 182.839844 221.058594 183.445312 221.058594 C 184.042969 221.058594 184.519531 220.824219 184.867188 220.351562 C 185.21875 219.878906 185.390625 219.234375 185.390625 218.421875 C 185.390625 217.613281 185.21875 216.96875 184.867188 216.496094 C 184.519531 216.023438 184.042969 215.785156 183.445312 215.785156 Z M 183.445312 214.832031 C 184.421875 214.832031 185.1875 215.152344 185.746094 215.785156 C 186.304688 216.421875 186.582031 217.300781 186.582031 218.421875 C 186.582031 219.539062 186.304688 220.417969 185.746094 221.054688 C 185.1875 221.691406 184.421875 222.011719 183.445312 222.011719 C 182.464844 222.011719 181.695312 221.691406 181.140625 221.054688 C 180.585938 220.417969 180.308594 219.539062 180.308594 218.421875 C 180.308594 217.300781 180.585938 216.421875 181.140625 215.785156 C 181.695312 215.152344 182.464844 214.832031 183.445312 214.832031 Z M 183.445312 214.832031 "/>
<path style=" stroke:none;fill-rule:nonzero;fill:rgb(0%,0%,0%);fill-opacity:1;" d="M 193.363281 215.257812 L 193.363281 216.308594 C 193.046875 216.132812 192.726562 216.003906 192.410156 215.914062 C 192.089844 215.828125 191.769531 215.785156 191.441406 215.785156 C 190.714844 215.785156 190.148438 216.015625 189.742188 216.476562 C 189.339844 216.9375 189.140625 217.585938 189.140625 218.421875 C 189.140625 219.257812 189.339844 219.90625 189.742188 220.367188 C 190.148438 220.828125 190.714844 221.058594 191.441406 221.058594 C 191.769531 221.058594 192.089844 221.015625 192.410156 220.925781 C 192.726562 220.839844 193.046875 220.707031 193.363281 220.53125 L 193.363281 221.570312 C 193.050781 221.71875 192.726562 221.828125 192.390625 221.898438 C 192.054688 221.972656 191.699219 222.011719 191.320312 222.011719 C 190.289062 222.011719 189.472656 221.6875 188.863281 221.039062 C 188.257812 220.394531 187.957031 219.519531 187.957031 218.421875 C 187.957031 217.308594 188.261719 216.429688 188.875 215.792969 C 189.488281 215.152344 190.328125 214.832031 191.394531 214.832031 C 191.738281 214.832031 192.074219 214.871094 192.40625 214.941406 C 192.734375 215.011719 193.054688 215.117188 193.363281 215.257812 Z M 193.363281 215.257812 "/>
<path style=" stroke:none;fill-rule:nonzero;fill:rgb(0%,0%,0%);fill-opacity:1;" d="M 201 217.707031 L 201 221.832031 L 199.878906 221.832031 L 199.878906 217.742188 C 199.878906 217.097656 199.75 216.613281 199.5 216.292969 C 199.246094 215.972656 198.867188 215.808594 198.363281 215.808594 C 197.757812 215.808594 197.277344 216.003906 196.929688 216.390625 C 196.578125 216.777344 196.402344 217.300781 196.402344 217.96875 L 196.402344 221.832031 L 195.273438 221.832031 L 195.273438 212.335938 L 196.402344 212.335938 L 196.402344 216.058594 C 196.671875 215.648438 196.988281 215.339844 197.351562 215.136719 C 197.71875 214.933594 198.136719 214.832031 198.613281 214.832031 C 199.398438 214.832031 199.992188 215.078125 200.394531 215.5625 C 200.800781 216.046875 201 216.761719 201 217.707031 Z M 201 217.707031 "/>
<path style=" stroke:none;fill-rule:nonzero;fill:rgb(0%,0%,0%);fill-opacity:1;" d="M 207.597656 215.199219 L 207.597656 216.261719 C 207.28125 216.097656 206.949219 215.976562 206.609375 215.894531 C 206.265625 215.8125 205.914062 215.773438 205.546875 215.773438 C 204.988281 215.773438 204.570312 215.859375 204.292969 216.027344 C 204.011719 216.199219 203.875 216.457031 203.875 216.796875 C 203.875 217.058594 203.972656 217.261719 204.171875 217.410156 C 204.371094 217.558594 204.773438 217.703125 205.375 217.835938 L 205.761719 217.921875 C 206.558594 218.09375 207.125 218.332031 207.460938 218.644531 C 207.796875 218.957031 207.964844 219.390625 207.964844 219.945312 C 207.964844 220.582031 207.710938 221.085938 207.210938 221.457031 C 206.707031 221.828125 206.015625 222.011719 205.136719 222.011719 C 204.773438 222.011719 204.390625 221.976562 203.992188 221.902344 C 203.597656 221.832031 203.179688 221.726562 202.738281 221.582031 L 202.738281 220.421875 C 203.15625 220.640625 203.5625 220.800781 203.964844 220.910156 C 204.367188 221.015625 204.765625 221.070312 205.164062 221.070312 C 205.691406 221.070312 206.097656 220.980469 206.382812 220.796875 C 206.667969 220.617188 206.808594 220.363281 206.808594 220.03125 C 206.808594 219.726562 206.707031 219.496094 206.5 219.332031 C 206.296875 219.167969 205.847656 219.011719 205.148438 218.859375 L 204.757812 218.769531 C 204.0625 218.625 203.5625 218.398438 203.25 218.09375 C 202.941406 217.792969 202.789062 217.375 202.789062 216.847656 C 202.789062 216.203125 203.015625 215.707031 203.472656 215.359375 C 203.925781 215.007812 204.574219 214.832031 205.414062 214.832031 C 205.828125 214.832031 206.21875 214.863281 206.582031 214.925781 C 206.949219 214.984375 207.289062 215.078125 207.597656 215.199219 Z M 207.597656 215.199219 "/>
<g clip-path="url(#clip6)" clip-rule="nonzero">
<path style="fill:none;stroke-width:0.8;stroke-linecap:square;stroke-linejoin:round;stroke:rgb(69.019608%,69.019608%,69.019608%);stroke-opacity:1;stroke-miterlimit:4;" d="M 51.378125 111.08125 L 246.678125 111.08125 " transform="matrix(1.25,0,0,1.25,0,0)"/>
</g>
<path style="fill:none;stroke-width:0.8;stroke-linecap:butt;stroke-linejoin:round;stroke:rgb(0%,0%,0%);stroke-opacity:1;stroke-miterlimit:4;" d="M 0 -0.001232 L -3.5 -0.001232 " transform="matrix(1.25,0,0,1.25,64.222656,138.853103)"/>
<path style=" stroke:none;fill-rule:nonzero;fill:rgb(0%,0%,0%);fill-opacity:1;" d="M 27.648438 142.46875 L 29.664062 142.46875 L 29.664062 135.515625 L 27.46875 135.957031 L 27.46875 134.832031 L 29.648438 134.394531 L 30.882812 134.394531 L 30.882812 142.46875 L 32.898438 142.46875 L 32.898438 143.507812 L 27.648438 143.507812 Z M 27.648438 142.46875 "/>
<path style=" stroke:none;fill-rule:nonzero;fill:rgb(0%,0%,0%);fill-opacity:1;" d="M 38.023438 135.207031 C 37.390625 135.207031 36.910156 135.519531 36.589844 136.144531 C 36.273438 136.765625 36.113281 137.707031 36.113281 138.960938 C 36.113281 140.207031 36.273438 141.144531 36.589844 141.769531 C 36.910156 142.394531 37.390625 142.707031 38.023438 142.707031 C 38.664062 142.707031 39.140625 142.394531 39.460938 141.769531 C 39.78125 141.144531 39.941406 140.207031 39.941406 138.960938 C 39.941406 137.707031 39.78125 136.765625 39.460938 136.144531 C 39.140625 135.519531 38.664062 135.207031 38.023438 135.207031 Z M 38.023438 134.230469 C 39.046875 134.230469 39.824219 134.632812 40.363281 135.441406 C 40.902344 136.25 41.171875 137.421875 41.171875 138.960938 C 41.171875 140.492188 40.902344 141.664062 40.363281 142.472656 C 39.824219 143.28125 39.046875 143.683594 38.023438 143.683594 C 37.003906 143.683594 36.222656 143.28125 35.683594 142.472656 C 35.144531 141.664062 34.875 140.492188 34.875 138.960938 C 34.875 137.421875 35.144531 136.25 35.683594 135.441406 C 36.222656 134.632812 37.003906 134.230469 38.023438 134.230469 Z M 38.023438 134.230469 "/>
<path style=" stroke:none;fill-rule:nonzero;fill:rgb(0%,0%,0%);fill-opacity:1;" d="M 43.050781 135.613281 L 48.527344 135.613281 L 48.527344 136.339844 L 43.050781 136.339844 Z M 43.050781 135.613281 "/>
<path style=" stroke:none;fill-rule:nonzero;fill:rgb(0%,0%,0%);fill-opacity:1;" d="M 51.132812 137.996094 L 54.144531 137.996094 L 54.144531 138.722656 L 50.097656 138.722656 L 50.097656 137.996094 C 50.421875 137.65625 50.871094 137.203125 51.433594 136.628906 C 52 136.058594 52.355469 135.691406 52.5 135.523438 C 52.777344 135.214844 52.96875 134.953125 53.078125 134.738281 C 53.1875 134.523438 53.246094 134.3125 53.246094 134.101562 C 53.246094 133.765625 53.125 133.488281 52.886719 133.273438 C 52.648438 133.058594 52.339844 132.953125 51.957031 132.953125 C 51.6875 132.953125 51.402344 133 51.101562 133.09375 C 50.800781 133.1875 50.480469 133.332031 50.136719 133.523438 L 50.136719 132.648438 C 50.484375 132.511719 50.808594 132.40625 51.113281 132.332031 C 51.414062 132.261719 51.691406 132.226562 51.941406 132.226562 C 52.601562 132.226562 53.128906 132.390625 53.523438 132.722656 C 53.914062 133.054688 54.109375 133.496094 54.109375 134.046875 C 54.109375 134.308594 54.0625 134.558594 53.964844 134.792969 C 53.867188 135.027344 53.6875 135.304688 53.425781 135.625 C 53.355469 135.707031 53.128906 135.945312 52.75 136.339844 C 52.367188 136.734375 51.828125 137.285156 51.132812 137.996094 Z M 51.132812 137.996094 "/>
<g clip-path="url(#clip7)" clip-rule="nonzero">
<path style="fill:none;stroke-width:0.8;stroke-linecap:square;stroke-linejoin:round;stroke:rgb(69.019608%,69.019608%,69.019608%);stroke-opacity:1;stroke-miterlimit:4;" d="M 51.378125 61.040625 L 246.678125 61.040625 " transform="matrix(1.25,0,0,1.25,0,0)"/>
</g>
<path style="fill:none;stroke-width:0.8;stroke-linecap:butt;stroke-linejoin:round;stroke:rgb(0%,0%,0%);stroke-opacity:1;stroke-miterlimit:4;" d="M 0 -0.000225 L -3.5 -0.000225 " transform="matrix(1.25,0,0,1.25,64.222656,76.301063)"/>
<path style=" stroke:none;fill-rule:nonzero;fill:rgb(0%,0%,0%);fill-opacity:1;" d="M 35.023438 79.917969 L 37.039062 79.917969 L 37.039062 72.964844 L 34.84375 73.402344 L 34.84375 72.28125 L 37.023438 71.839844 L 38.257812 71.839844 L 38.257812 79.917969 L 40.273438 79.917969 L 40.273438 80.953125 L 35.023438 80.953125 Z M 35.023438 79.917969 "/>
<path style=" stroke:none;fill-rule:nonzero;fill:rgb(0%,0%,0%);fill-opacity:1;" d="M 45.398438 72.652344 C 44.765625 72.652344 44.285156 72.964844 43.964844 73.589844 C 43.648438 74.214844 43.488281 75.152344 43.488281 76.40625 C 43.488281 77.65625 43.648438 78.59375 43.964844 79.21875 C 44.285156 79.84375 44.765625 80.15625 45.398438 80.15625 C 46.039062 80.15625 46.515625 79.84375 46.835938 79.21875 C 47.15625 78.59375 47.316406 77.65625 47.316406 76.40625 C 47.316406 75.152344 47.15625 74.214844 46.835938 73.589844 C 46.515625 72.964844 46.039062 72.652344 45.398438 72.652344 Z M 45.398438 71.675781 C 46.421875 71.675781 47.199219 72.082031 47.738281 72.890625 C 48.277344 73.695312 48.546875 74.871094 48.546875 76.40625 C 48.546875 77.941406 48.277344 79.113281 47.738281 79.921875 C 47.199219 80.726562 46.421875 81.132812 45.398438 81.132812 C 44.378906 81.132812 43.597656 80.726562 43.058594 79.921875 C 42.519531 79.113281 42.25 77.941406 42.25 76.40625 C 42.25 74.871094 42.519531 73.695312 43.058594 72.890625 C 43.597656 72.082031 44.378906 71.675781 45.398438 71.675781 Z M 45.398438 71.675781 "/>
<path style=" stroke:none;fill-rule:nonzero;fill:rgb(0%,0%,0%);fill-opacity:1;" d="M 52.277344 70.359375 C 51.835938 70.359375 51.5 70.578125 51.277344 71.015625 C 51.054688 71.453125 50.941406 72.109375 50.941406 72.988281 C 50.941406 73.859375 51.054688 74.515625 51.277344 74.953125 C 51.5 75.390625 51.835938 75.609375 52.277344 75.609375 C 52.726562 75.609375 53.0625 75.390625 53.285156 74.953125 C 53.507812 74.515625 53.621094 73.859375 53.621094 72.988281 C 53.621094 72.109375 53.507812 71.453125 53.285156 71.015625 C 53.0625 70.578125 52.726562 70.359375 52.277344 70.359375 Z M 52.277344 69.675781 C 52.996094 69.675781 53.539062 69.957031 53.917969 70.523438 C 54.296875 71.089844 54.484375 71.910156 54.484375 72.988281 C 54.484375 74.058594 54.296875 74.878906 53.917969 75.445312 C 53.539062 76.011719 52.996094 76.292969 52.277344 76.292969 C 51.5625 76.292969 51.019531 76.011719 50.640625 75.445312 C 50.265625 74.878906 50.074219 74.058594 50.074219 72.988281 C 50.074219 71.910156 50.265625 71.089844 50.640625 70.523438 C 51.019531 69.957031 51.5625 69.675781 52.277344 69.675781 Z M 52.277344 69.675781 "/>
<g clip-path="url(#clip8)" clip-rule="nonzero">
<path style="fill:none;stroke-width:0.8;stroke-linecap:square;stroke-linejoin:round;stroke:rgb(69.019608%,69.019608%,69.019608%);stroke-opacity:1;stroke-miterlimit:4;" d="M 51.378125 11 L 246.678125 11 " transform="matrix(1.25,0,0,1.25,0,0)"/>
</g>
<path style="fill:none;stroke-width:0.8;stroke-linecap:butt;stroke-linejoin:round;stroke:rgb(0%,0%,0%);stroke-opacity:1;stroke-miterlimit:4;" d="M 0 0.000781 L -3.5 0.000781 " transform="matrix(1.25,0,0,1.25,64.222656,13.749024)"/>
<path style=" stroke:none;fill-rule:nonzero;fill:rgb(0%,0%,0%);fill-opacity:1;" d="M 35.023438 17.367188 L 37.039062 17.367188 L 37.039062 10.414062 L 34.84375 10.851562 L 34.84375 9.730469 L 37.023438 9.289062 L 38.257812 9.289062 L 38.257812 17.367188 L 40.273438 17.367188 L 40.273438 18.402344 L 35.023438 18.402344 Z M 35.023438 17.367188 "/>
<path style=" stroke:none;fill-rule:nonzero;fill:rgb(0%,0%,0%);fill-opacity:1;" d="M 45.398438 10.101562 C 44.765625 10.101562 44.285156 10.414062 43.964844 11.039062 C 43.648438 11.664062 43.488281 12.601562 43.488281 13.855469 C 43.488281 15.105469 43.648438 16.042969 43.964844 16.667969 C 44.285156 17.292969 44.765625 17.605469 45.398438 17.605469 C 46.039062 17.605469 46.515625 17.292969 46.835938 16.667969 C 47.15625 16.042969 47.316406 15.105469 47.316406 13.855469 C 47.316406 12.601562 47.15625 11.664062 46.835938 11.039062 C 46.515625 10.414062 46.039062 10.101562 45.398438 10.101562 Z M 45.398438 9.125 C 46.421875 9.125 47.199219 9.53125 47.738281 10.339844 C 48.277344 11.144531 48.546875 12.316406 48.546875 13.855469 C 48.546875 15.390625 48.277344 16.5625 47.738281 17.371094 C 47.199219 18.175781 46.421875 18.582031 45.398438 18.582031 C 44.378906 18.582031 43.597656 18.175781 43.058594 17.371094 C 42.519531 16.5625 42.25 15.390625 42.25 13.855469 C 42.25 12.316406 42.519531 11.144531 43.058594 10.339844 C 43.597656 9.53125 44.378906 9.125 45.398438 9.125 Z M 45.398438 9.125 "/>
<path style=" stroke:none;fill-rule:nonzero;fill:rgb(0%,0%,0%);fill-opacity:1;" d="M 51.175781 12.890625 L 54.1875 12.890625 L 54.1875 13.617188 L 50.140625 13.617188 L 50.140625 12.890625 C 50.464844 12.550781 50.914062 12.097656 51.476562 11.527344 C 52.042969 10.957031 52.398438 10.585938 52.542969 10.421875 C 52.820312 10.109375 53.011719 9.847656 53.121094 9.632812 C 53.234375 9.417969 53.289062 9.207031 53.289062 9 C 53.289062 8.660156 53.167969 8.382812 52.929688 8.171875 C 52.691406 7.957031 52.382812 7.847656 52 7.847656 C 51.730469 7.847656 51.445312 7.894531 51.144531 7.988281 C 50.84375 8.082031 50.523438 8.226562 50.179688 8.417969 L 50.179688 7.546875 C 50.527344 7.40625 50.851562 7.300781 51.15625 7.230469 C 51.457031 7.160156 51.734375 7.125 51.984375 7.125 C 52.644531 7.125 53.171875 7.289062 53.566406 7.621094 C 53.957031 7.949219 54.15625 8.390625 54.15625 8.941406 C 54.15625 9.207031 54.105469 9.453125 54.007812 9.6875 C 53.910156 9.921875 53.730469 10.199219 53.472656 10.519531 C 53.398438 10.601562 53.171875 10.839844 52.792969 11.234375 C 52.410156 11.628906 51.871094 12.183594 51.175781 12.890625 Z M 51.175781 12.890625 "/>
<path style=" stroke:none;fill-rule:nonzero;fill:rgb(0%,0%,0%);fill-opacity:1;" d="M 9 110.757812 L 9 109.632812 L 18.496094 109.632812 L 18.496094 110.757812 Z M 9 110.757812 "/>
<path style=" stroke:none;fill-rule:nonzero;fill:rgb(0%,0%,0%);fill-opacity:1;" d="M 12.449219 104.636719 C 12.449219 105.238281 12.683594 105.714844 13.152344 106.0625 C 13.625 106.414062 14.269531 106.589844 15.085938 106.589844 C 15.902344 106.589844 16.546875 106.414062 17.015625 106.066406 C 17.488281 105.71875 17.722656 105.242188 17.722656 104.636719 C 17.722656 104.039062 17.488281 103.5625 17.015625 103.214844 C 16.542969 102.863281 15.898438 102.6875 15.085938 102.6875 C 14.277344 102.6875 13.632812 102.863281 13.160156 103.214844 C 12.6875 103.5625 12.449219 104.039062 12.449219 104.636719 Z M 11.496094 104.636719 C 11.496094 103.660156 11.816406 102.894531 12.449219 102.335938 C 13.085938 101.777344 13.964844 101.496094 15.085938 101.496094 C 16.203125 101.496094 17.082031 101.777344 17.71875 102.335938 C 18.355469 102.894531 18.675781 103.660156 18.675781 104.636719 C 18.675781 105.617188 18.355469 106.386719 17.71875 106.941406 C 17.082031 107.496094 16.203125 107.773438 15.085938 107.773438 C 13.964844 107.773438 13.085938 107.496094 12.449219 106.941406 C 11.816406 106.386719 11.496094 105.617188 11.496094 104.636719 Z M 11.496094 104.636719 "/>
<path style=" stroke:none;fill-rule:nonzero;fill:rgb(0%,0%,0%);fill-opacity:1;" d="M 11.863281 95.28125 L 12.925781 95.28125 C 12.761719 95.597656 12.640625 95.925781 12.558594 96.269531 C 12.476562 96.609375 12.4375 96.964844 12.4375 97.332031 C 12.4375 97.886719 12.523438 98.304688 12.691406 98.585938 C 12.863281 98.863281 13.121094 99.003906 13.460938 99.003906 C 13.722656 99.003906 13.925781 98.902344 14.074219 98.703125 C 14.222656 98.503906 14.367188 98.101562 14.5 97.5 L 14.585938 97.117188 C 14.757812 96.320312 14.996094 95.753906 15.308594 95.417969 C 15.621094 95.082031 16.054688 94.914062 16.609375 94.914062 C 17.246094 94.914062 17.75 95.164062 18.121094 95.667969 C 18.492188 96.167969 18.675781 96.859375 18.675781 97.738281 C 18.675781 98.105469 18.640625 98.484375 18.566406 98.882812 C 18.496094 99.28125 18.390625 99.699219 18.246094 100.136719 L 17.085938 100.136719 C 17.304688 99.722656 17.464844 99.3125 17.574219 98.910156 C 17.679688 98.507812 17.734375 98.109375 17.734375 97.714844 C 17.734375 97.183594 17.644531 96.777344 17.460938 96.496094 C 17.28125 96.210938 17.027344 96.066406 16.695312 96.066406 C 16.390625 96.066406 16.160156 96.167969 15.996094 96.375 C 15.832031 96.578125 15.675781 97.03125 15.523438 97.726562 L 15.433594 98.117188 C 15.289062 98.8125 15.0625 99.316406 14.757812 99.625 C 14.457031 99.933594 14.039062 100.089844 13.511719 100.089844 C 12.867188 100.089844 12.371094 99.859375 12.023438 99.40625 C 11.671875 98.949219 11.496094 98.300781 11.496094 97.464844 C 11.496094 97.050781 11.527344 96.660156 11.589844 96.292969 C 11.648438 95.925781 11.742188 95.589844 11.863281 95.28125 Z M 11.863281 95.28125 "/>
<path style=" stroke:none;fill-rule:nonzero;fill:rgb(0%,0%,0%);fill-opacity:1;" d="M 11.863281 88.765625 L 12.925781 88.765625 C 12.761719 89.082031 12.640625 89.414062 12.558594 89.753906 C 12.476562 90.097656 12.4375 90.449219 12.4375 90.816406 C 12.4375 91.375 12.523438 91.792969 12.691406 92.070312 C 12.863281 92.351562 13.121094 92.488281 13.460938 92.488281 C 13.722656 92.488281 13.925781 92.390625 14.074219 92.191406 C 14.222656 91.992188 14.367188 91.589844 14.5 90.988281 L 14.585938 90.601562 C 14.757812 89.804688 14.996094 89.238281 15.308594 88.902344 C 15.621094 88.566406 16.054688 88.398438 16.609375 88.398438 C 17.246094 88.398438 17.75 88.652344 18.121094 89.152344 C 18.492188 89.65625 18.675781 90.347656 18.675781 91.226562 C 18.675781 91.59375 18.640625 91.972656 18.566406 92.371094 C 18.496094 92.769531 18.390625 93.1875 18.246094 93.625 L 17.085938 93.625 C 17.304688 93.210938 17.464844 92.800781 17.574219 92.398438 C 17.679688 91.996094 17.734375 91.597656 17.734375 91.199219 C 17.734375 90.671875 17.644531 90.265625 17.460938 89.980469 C 17.28125 89.695312 17.027344 89.554688 16.695312 89.554688 C 16.390625 89.554688 16.160156 89.65625 15.996094 89.863281 C 15.832031 90.066406 15.675781 90.519531 15.523438 91.214844 L 15.433594 91.605469 C 15.289062 92.300781 15.0625 92.804688 14.757812 93.113281 C 14.457031 93.421875 14.039062 93.574219 13.511719 93.574219 C 12.867188 93.574219 12.371094 93.347656 12.023438 92.890625 C 11.671875 92.4375 11.496094 91.789062 11.496094 90.949219 C 11.496094 90.535156 11.527344 90.148438 11.589844 89.78125 C 11.648438 89.414062 11.742188 89.074219 11.863281 88.765625 Z M 11.863281 88.765625 "/>
<g clip-path="url(#clip9)" clip-rule="nonzero">
<path style="fill:none;stroke-width:1.5;stroke-linecap:square;stroke-linejoin:round;stroke:rgb(12.156863%,46.666667%,70.588235%);stroke-opacity:1;stroke-miterlimit:4;" d="M 51.378125 27.4875 L 61.65625 45.403125 L 71.9375 62.18125 L 82.215625 77.84375 L 92.49375 92.475 L 102.771875 105.965625 L 113.053125 118.0125 L 123.33125 127.9 L 133.609375 134.884375 L 143.8875 138.89375 L 154.16875 140.990625 L 164.446875 141.90625 L 174.725 142.36875 L 185.003125 142.4875 L 195.284375 142.69375 L 205.5625 142.725 L 215.840625 142.890625 L 226.11875 142.86875 L 236.4 142.86875 L 246.678125 142.721875 " transform="matrix(1.25,0,0,1.25,0,0)"/>
</g>
<g clip-path="url(#clip10)" clip-rule="nonzero">
<path style="fill:none;stroke-width:1.5;stroke-linecap:butt;stroke-linejoin:round;stroke:rgb(74.901961%,0%,74.901961%);stroke-opacity:1;stroke-dasharray:5.55,2.4;stroke-miterlimit:4;" d="M 51.378125 16.890625 L 61.65625 20.95625 L 71.9375 24.909375 L 82.215625 28.8375 L 92.49375 32.753125 L 102.771875 36.659375 L 113.053125 40.553125 L 123.33125 44.4375 L 133.609375 48.309375 L 143.8875 52.1625 L 154.16875 55.996875 L 164.446875 59.80625 L 174.725 63.578125 L 185.003125 67.30625 L 195.284375 70.978125 L 205.5625 74.575 L 215.840625 78.075 L 226.11875 81.45 L 236.4 84.671875 L 246.678125 87.7 " transform="matrix(1.25,0,0,1.25,0,0)"/>
</g>
<path style="fill:none;stroke-width:0.8;stroke-linecap:square;stroke-linejoin:miter;stroke:rgb(0%,0%,0%);stroke-opacity:1;stroke-miterlimit:4;" d="M 51.378125 149.190625 L 51.378125 10.590625 " transform="matrix(1.25,0,0,1.25,0,0)"/>
<path style="fill:none;stroke-width:0.8;stroke-linecap:square;stroke-linejoin:miter;stroke:rgb(0%,0%,0%);stroke-opacity:1;stroke-miterlimit:4;" d="M 246.678125 149.190625 L 246.678125 10.590625 " transform="matrix(1.25,0,0,1.25,0,0)"/>
<path style="fill:none;stroke-width:0.8;stroke-linecap:square;stroke-linejoin:miter;stroke:rgb(0%,0%,0%);stroke-opacity:1;stroke-miterlimit:4;" d="M 51.378125 149.190625 L 246.678125 149.190625 " transform="matrix(1.25,0,0,1.25,0,0)"/>
<path style="fill:none;stroke-width:0.8;stroke-linecap:square;stroke-linejoin:miter;stroke:rgb(0%,0%,0%);stroke-opacity:1;stroke-miterlimit:4;" d="M 51.378125 10.590625 L 246.678125 10.590625 " transform="matrix(1.25,0,0,1.25,0,0)"/>
<use xlink:href="#surface5" mask="url(#mask0)"/>
<path style="fill:none;stroke-width:1.5;stroke-linecap:square;stroke-linejoin:round;stroke:rgb(12.156863%,46.666667%,70.588235%);stroke-opacity:1;stroke-miterlimit:4;" d="M 186.403125 23.6875 L 206.403125 23.6875 " transform="matrix(1.25,0,0,1.25,0,0)"/>
<path style=" stroke:none;fill-rule:nonzero;fill:rgb(0%,0%,0%);fill-opacity:1;" d="M 270.292969 25.207031 L 270.292969 27.148438 L 272.605469 27.148438 L 272.605469 28.023438 L 270.292969 28.023438 L 270.292969 31.734375 C 270.292969 32.292969 270.367188 32.648438 270.523438 32.808594 C 270.671875 32.96875 270.984375 33.046875 271.453125 33.046875 L 272.605469 33.046875 L 272.605469 33.984375 L 271.453125 33.984375 C 270.585938 33.984375 269.988281 33.824219 269.65625 33.5 C 269.328125 33.175781 269.164062 32.589844 269.164062 31.734375 L 269.164062 28.023438 L 268.339844 28.023438 L 268.339844 27.148438 L 269.164062 27.148438 L 269.164062 25.207031 Z M 270.292969 25.207031 "/>
<path style=" stroke:none;fill-rule:nonzero;fill:rgb(0%,0%,0%);fill-opacity:1;" d="M 278.042969 28.199219 C 277.917969 28.125 277.78125 28.074219 277.632812 28.039062 C 277.484375 28.003906 277.320312 27.984375 277.140625 27.984375 C 276.507812 27.984375 276.019531 28.191406 275.679688 28.605469 C 275.339844 29.019531 275.167969 29.609375 275.167969 30.382812 L 275.167969 33.984375 L 274.039062 33.984375 L 274.039062 27.148438 L 275.167969 27.148438 L 275.167969 28.210938 C 275.40625 27.796875 275.714844 27.488281 276.089844 27.289062 C 276.46875 27.085938 276.929688 26.984375 277.472656 26.984375 C 277.546875 26.984375 277.632812 26.992188 277.726562 27 C 277.820312 27.011719 277.925781 27.027344 278.039062 27.046875 Z M 278.042969 28.199219 "/>
<path style=" stroke:none;fill-rule:nonzero;fill:rgb(0%,0%,0%);fill-opacity:1;" d="M 282.328125 30.550781 C 281.421875 30.550781 280.792969 30.652344 280.441406 30.859375 C 280.09375 31.066406 279.917969 31.421875 279.917969 31.921875 C 279.917969 32.320312 280.046875 32.636719 280.3125 32.871094 C 280.574219 33.105469 280.929688 33.222656 281.382812 33.222656 C 282.003906 33.222656 282.503906 33 282.882812 32.558594 C 283.257812 32.117188 283.445312 31.53125 283.445312 30.800781 L 283.445312 30.550781 Z M 284.570312 30.085938 L 284.570312 33.984375 L 283.445312 33.984375 L 283.445312 32.949219 C 283.191406 33.363281 282.871094 33.667969 282.488281 33.867188 C 282.105469 34.066406 281.636719 34.164062 281.082031 34.164062 C 280.382812 34.164062 279.828125 33.96875 279.414062 33.574219 C 279 33.179688 278.792969 32.65625 278.792969 31.996094 C 278.792969 31.226562 279.050781 30.648438 279.566406 30.257812 C 280.082031 29.867188 280.847656 29.671875 281.871094 29.671875 L 283.445312 29.671875 L 283.445312 29.558594 C 283.445312 29.042969 283.277344 28.644531 282.9375 28.359375 C 282.597656 28.078125 282.121094 27.9375 281.503906 27.9375 C 281.113281 27.9375 280.734375 27.984375 280.363281 28.078125 C 279.992188 28.171875 279.636719 28.3125 279.296875 28.5 L 279.296875 27.460938 C 279.707031 27.300781 280.105469 27.183594 280.492188 27.105469 C 280.878906 27.027344 281.253906 26.984375 281.621094 26.984375 C 282.609375 26.984375 283.347656 27.242188 283.835938 27.753906 C 284.324219 28.265625 284.570312 29.042969 284.570312 30.085938 Z M 284.570312 30.085938 "/>
<path style=" stroke:none;fill-rule:nonzero;fill:rgb(0%,0%,0%);fill-opacity:1;" d="M 286.882812 27.148438 L 288.003906 27.148438 L 288.003906 33.984375 L 286.882812 33.984375 Z M 286.882812 24.488281 L 288.003906 24.488281 L 288.003906 25.910156 L 286.882812 25.910156 Z M 286.882812 24.488281 "/>
<path style=" stroke:none;fill-rule:nonzero;fill:rgb(0%,0%,0%);fill-opacity:1;" d="M 296.039062 29.859375 L 296.039062 33.984375 L 294.914062 33.984375 L 294.914062 29.894531 C 294.914062 29.25 294.789062 28.765625 294.535156 28.445312 C 294.285156 28.125 293.90625 27.960938 293.402344 27.960938 C 292.792969 27.960938 292.316406 28.15625 291.964844 28.542969 C 291.617188 28.929688 291.441406 29.453125 291.441406 30.121094 L 291.441406 33.984375 L 290.3125 33.984375 L 290.3125 27.148438 L 291.441406 27.148438 L 291.441406 28.210938 C 291.710938 27.800781 292.027344 27.492188 292.390625 27.289062 C 292.753906 27.085938 293.175781 26.984375 293.652344 26.984375 C 294.4375 26.984375 295.03125 27.230469 295.433594 27.714844 C 295.835938 28.199219 296.039062 28.914062 296.039062 29.859375 Z M 296.039062 29.859375 "/>
<path style="fill:none;stroke-width:1.5;stroke-linecap:butt;stroke-linejoin:round;stroke:rgb(74.901961%,0%,74.901961%);stroke-opacity:1;stroke-dasharray:5.55,2.4;stroke-miterlimit:4;" d="M 186.403125 38.365625 L 206.403125 38.365625 " transform="matrix(1.25,0,0,1.25,0,0)"/>
<path style=" stroke:none;fill-rule:nonzero;fill:rgb(0%,0%,0%);fill-opacity:1;" d="M 270.292969 43.554688 L 270.292969 45.496094 L 272.605469 45.496094 L 272.605469 46.371094 L 270.292969 46.371094 L 270.292969 50.082031 C 270.292969 50.640625 270.367188 50.996094 270.523438 51.15625 C 270.671875 51.316406 270.984375 51.394531 271.453125 51.394531 L 272.605469 51.394531 L 272.605469 52.332031 L 271.453125 52.332031 C 270.585938 52.332031 269.988281 52.171875 269.65625 51.847656 C 269.328125 51.523438 269.164062 50.9375 269.164062 50.082031 L 269.164062 46.371094 L 268.339844 46.371094 L 268.339844 45.496094 L 269.164062 45.496094 L 269.164062 43.554688 Z M 270.292969 43.554688 "/>
<path style=" stroke:none;fill-rule:nonzero;fill:rgb(0%,0%,0%);fill-opacity:1;" d="M 279.929688 48.632812 L 279.929688 49.183594 L 274.765625 49.183594 C 274.816406 49.957031 275.050781 50.546875 275.464844 50.949219 C 275.882812 51.355469 276.464844 51.558594 277.207031 51.558594 C 277.640625 51.558594 278.058594 51.503906 278.460938 51.398438 C 278.867188 51.292969 279.269531 51.136719 279.667969 50.921875 L 279.667969 51.984375 C 279.265625 52.15625 278.851562 52.285156 278.429688 52.375 C 278.003906 52.464844 277.578125 52.511719 277.140625 52.511719 C 276.050781 52.511719 275.1875 52.195312 274.550781 51.558594 C 273.914062 50.925781 273.59375 50.066406 273.59375 48.980469 C 273.59375 47.863281 273.898438 46.976562 274.5 46.320312 C 275.105469 45.664062 275.921875 45.332031 276.945312 45.332031 C 277.867188 45.332031 278.59375 45.628906 279.128906 46.222656 C 279.664062 46.8125 279.929688 47.617188 279.929688 48.632812 Z M 278.808594 48.304688 C 278.800781 47.691406 278.628906 47.203125 278.292969 46.835938 C 277.957031 46.46875 277.511719 46.285156 276.957031 46.285156 C 276.332031 46.285156 275.832031 46.460938 275.453125 46.816406 C 275.078125 47.171875 274.859375 47.667969 274.804688 48.3125 Z M 278.808594 48.304688 "/>
<path style=" stroke:none;fill-rule:nonzero;fill:rgb(0%,0%,0%);fill-opacity:1;" d="M 286.128906 45.699219 L 286.128906 46.761719 C 285.8125 46.597656 285.484375 46.476562 285.140625 46.394531 C 284.800781 46.3125 284.445312 46.273438 284.078125 46.273438 C 283.523438 46.273438 283.105469 46.359375 282.824219 46.527344 C 282.546875 46.699219 282.40625 46.957031 282.40625 47.296875 C 282.40625 47.558594 282.507812 47.761719 282.707031 47.910156 C 282.90625 48.058594 283.308594 48.203125 283.910156 48.335938 L 284.292969 48.421875 C 285.089844 48.59375 285.65625 48.832031 285.992188 49.144531 C 286.328125 49.457031 286.496094 49.890625 286.496094 50.445312 C 286.496094 51.082031 286.246094 51.585938 285.742188 51.957031 C 285.242188 52.328125 284.550781 52.511719 283.671875 52.511719 C 283.304688 52.511719 282.925781 52.476562 282.527344 52.402344 C 282.128906 52.332031 281.710938 52.226562 281.273438 52.082031 L 281.273438 50.921875 C 281.6875 51.140625 282.097656 51.300781 282.5 51.410156 C 282.902344 51.515625 283.300781 51.570312 283.695312 51.570312 C 284.226562 51.570312 284.632812 51.480469 284.914062 51.296875 C 285.199219 51.117188 285.34375 50.863281 285.34375 50.53125 C 285.34375 50.226562 285.242188 49.996094 285.035156 49.832031 C 284.832031 49.667969 284.378906 49.511719 283.683594 49.359375 L 283.292969 49.269531 C 282.597656 49.125 282.09375 48.898438 281.785156 48.59375 C 281.476562 48.292969 281.320312 47.875 281.320312 47.347656 C 281.320312 46.703125 281.550781 46.207031 282.003906 45.859375 C 282.460938 45.507812 283.109375 45.332031 283.945312 45.332031 C 284.359375 45.332031 284.75 45.363281 285.117188 45.425781 C 285.484375 45.484375 285.820312 45.578125 286.128906 45.699219 Z M 286.128906 45.699219 "/>
<path style=" stroke:none;fill-rule:nonzero;fill:rgb(0%,0%,0%);fill-opacity:1;" d="M 289.398438 43.554688 L 289.398438 45.496094 L 291.710938 45.496094 L 291.710938 46.371094 L 289.398438 46.371094 L 289.398438 50.082031 C 289.398438 50.640625 289.472656 50.996094 289.625 51.15625 C 289.777344 51.316406 290.089844 51.394531 290.558594 51.394531 L 291.710938 51.394531 L 291.710938 52.332031 L 290.558594 52.332031 C 289.691406 52.332031 289.089844 52.171875 288.761719 51.847656 C 288.433594 51.523438 288.269531 50.9375 288.269531 50.082031 L 288.269531 46.371094 L 287.445312 46.371094 L 287.445312 45.496094 L 288.269531 45.496094 L 288.269531 43.554688 Z M 289.398438 43.554688 "/>
</g>
</svg>
