<?xml version="1.0" encoding="UTF-8"?>
<svg xmlns="http://www.w3.org/2000/svg" xmlns:xlink="http://www.w3.org/1999/xlink" width="310pt" height="229pt" viewBox="0 0 310 229" version="1.1">
<defs>
<clipPath id="clip1">
  <path d="M 67 9 L 69 9 L 69 182.25 L 67 182.25 Z M 67 9 "/>
</clipPath>
<clipPath id="clip2">
  <path d="M 127 9 L 130 9 L 130 182.25 L 127 182.25 Z M 127 9 "/>
</clipPath>
<clipPath id="clip3">
  <path d="M 188 9 L 190 9 L 190 182.25 L 188 182.25 Z M 188 9 "/>
</clipPath>
<clipPath id="clip4">
  <path d="M 249 9 L 251 9 L 251 182.25 L 249 182.25 Z M 249 9 "/>
</clipPath>
<clipPath id="clip5">
  <path d="M 56.847656 173 L 300.972656 173 L 300.972656 176 L 56.847656 176 Z M 56.847656 173 "/>
</clipPath>
<clipPath id="clip6">
  <path d="M 56.847656 126 L 300.972656 126 L 300.972656 129 L 56.847656 129 Z M 56.847656 126 "/>
</clipPath>
<clipPath id="clip7">
  <path d="M 56.847656 79 L 300.972656 79 L 300.972656 82 L 56.847656 82 Z M 56.847656 79 "/>
</clipPath>
<clipPath id="clip8">
  <path d="M 56.847656 32 L 300.972656 32 L 300.972656 35 L 56.847656 35 Z M 56.847656 32 "/>
</clipPath>
<clipPath id="clip9">
  <path d="M 56.847656 27 L 292 27 L 292 176 L 56.847656 176 Z M 56.847656 27 "/>
</clipPath>
</defs>
<g id="surface1">
<path style=" stroke:none;fill-rule:nonzero;fill:rgb(100%,100%,100%);fill-opacity:1;" d="M 0 229.195312 L 309.972656 229.195312 L 309.972656 0 L 0 0 Z M 0 229.195312 "/>
<path style=" stroke:none;fill-rule:nonzero;fill:rgb(100%,100%,100%);fill-opacity:1;" d="M 56.847656 182.25 L 300.972656 182.25 L 300.972656 9 L 56.847656 9 Z M 56.847656 182.25 "/>
<g clip-path="url(#clip1)" clip-rule="nonzero">
<path style="fill:none;stroke-width:0.8;stroke-linecap:square;stroke-linejoin:round;stroke:rgb(69.019608%,69.019608%,69.019608%);stroke-opacity:1;stroke-miterlimit:4;" d="M 54.35625 145.8 L 54.35625 7.2 " transform="matrix(1.25,0,0,1.25,0,0)"/>
</g>
<path style="fill:none;stroke-width:0.8;stroke-linecap:butt;stroke-linejoin:round;stroke:rgb(0%,0%,0%);stroke-opacity:1;stroke-miterlimit:4;" d="M 0.000852 0 L 0.000852 3.5 " transform="matrix(1.25,0,0,1.25,67.944248,182.25)"/>
<path style=" stroke:none;fill-rule:nonzero;fill:rgb(0%,0%,0%);fill-opacity:1;" d="M 58.496094 199.367188 L 60.507812 199.367188 L 60.507812 192.414062 L 58.316406 192.851562 L 58.316406 191.730469 L 60.496094 191.289062 L 61.730469 191.289062 L 61.730469 199.367188 L 63.742188 199.367188 L 63.742188 200.402344 L 58.496094 200.402344 Z M 58.496094 199.367188 "/>
<path style=" stroke:none;fill-rule:nonzero;fill:rgb(0%,0%,0%);fill-opacity:1;" d="M 68.871094 192.101562 C 68.234375 192.101562 67.757812 192.414062 67.4375 193.039062 C 67.117188 193.664062 66.960938 194.601562 66.960938 195.855469 C 66.960938 197.105469 67.117188 198.042969 67.4375 198.667969 C 67.757812 199.292969 68.234375 199.605469 68.871094 199.605469 C 69.507812 199.605469 69.988281 199.292969 70.308594 198.667969 C 70.628906 198.042969 70.789062 197.105469 70.789062 195.855469 C 70.789062 194.601562 70.628906 193.664062 70.308594 193.039062 C 69.988281 192.414062 69.507812 192.101562 68.871094 192.101562 Z M 68.871094 191.125 C 69.890625 191.125 70.671875 191.53125 71.210938 192.339844 C 71.75 193.144531 72.019531 194.316406 72.019531 195.855469 C 72.019531 197.390625 71.75 198.5625 71.210938 199.371094 C 70.671875 200.175781 69.890625 200.582031 68.871094 200.582031 C 67.847656 200.582031 67.070312 200.175781 66.53125 199.371094 C 65.992188 198.5625 65.722656 197.390625 65.722656 195.855469 C 65.722656 194.316406 65.992188 193.144531 66.53125 192.339844 C 67.070312 191.53125 67.847656 191.125 68.871094 191.125 Z M 68.871094 191.125 "/>
<path style=" stroke:none;fill-rule:nonzero;fill:rgb(0%,0%,0%);fill-opacity:1;" d="M 75.75 189.808594 C 75.304688 189.808594 74.972656 190.027344 74.75 190.464844 C 74.523438 190.898438 74.414062 191.558594 74.414062 192.433594 C 74.414062 193.308594 74.523438 193.964844 74.75 194.402344 C 74.972656 194.839844 75.304688 195.058594 75.75 195.058594 C 76.199219 195.058594 76.535156 194.839844 76.757812 194.402344 C 76.980469 193.964844 77.09375 193.308594 77.09375 192.433594 C 77.09375 191.558594 76.980469 190.898438 76.757812 190.464844 C 76.535156 190.027344 76.199219 189.808594 75.75 189.808594 Z M 75.75 189.125 C 76.464844 189.125 77.011719 189.40625 77.390625 189.972656 C 77.765625 190.539062 77.957031 191.359375 77.957031 192.433594 C 77.957031 193.507812 77.765625 194.328125 77.390625 194.894531 C 77.011719 195.460938 76.464844 195.742188 75.75 195.742188 C 75.035156 195.742188 74.488281 195.460938 74.113281 194.894531 C 73.734375 194.328125 73.546875 193.507812 73.546875 192.433594 C 73.546875 191.359375 73.734375 190.539062 74.113281 189.972656 C 74.488281 189.40625 75.035156 189.125 75.75 189.125 Z M 75.75 189.125 "/>
<g clip-path="url(#clip2)" clip-rule="nonzero">
<path style="fill:none;stroke-width:0.8;stroke-linecap:square;stroke-linejoin:round;stroke:rgb(69.019608%,69.019608%,69.019608%);stroke-opacity:1;stroke-miterlimit:4;" d="M 102.85625 145.8 L 102.85625 7.2 " transform="matrix(1.25,0,0,1.25,0,0)"/>
</g>
<path style="fill:none;stroke-width:0.8;stroke-linecap:butt;stroke-linejoin:round;stroke:rgb(0%,0%,0%);stroke-opacity:1;stroke-miterlimit:4;" d="M 0.00012 0 L 0.00012 3.5 " transform="matrix(1.25,0,0,1.25,128.570162,182.25)"/>
<path style=" stroke:none;fill-rule:nonzero;fill:rgb(0%,0%,0%);fill-opacity:1;" d="M 119.121094 199.375 L 121.132812 199.375 L 121.132812 192.421875 L 118.941406 192.863281 L 118.941406 191.738281 L 121.121094 191.300781 L 122.355469 191.300781 L 122.355469 199.375 L 124.367188 199.375 L 124.367188 200.414062 L 119.121094 200.414062 Z M 119.121094 199.375 "/>
<path style=" stroke:none;fill-rule:nonzero;fill:rgb(0%,0%,0%);fill-opacity:1;" d="M 129.496094 192.113281 C 128.863281 192.113281 128.382812 192.425781 128.0625 193.050781 C 127.746094 193.671875 127.585938 194.613281 127.585938 195.867188 C 127.585938 197.113281 127.746094 198.050781 128.0625 198.675781 C 128.382812 199.300781 128.863281 199.613281 129.496094 199.613281 C 130.136719 199.613281 130.613281 199.300781 130.933594 198.675781 C 131.253906 198.050781 131.414062 197.113281 131.414062 195.867188 C 131.414062 194.613281 131.253906 193.671875 130.933594 193.050781 C 130.613281 192.425781 130.136719 192.113281 129.496094 192.113281 Z M 129.496094 191.136719 C 130.519531 191.136719 131.296875 191.539062 131.835938 192.347656 C 132.375 193.15625 132.644531 194.328125 132.644531 195.867188 C 132.644531 197.398438 132.375 198.570312 131.835938 199.378906 C 131.296875 200.1875 130.519531 200.589844 129.496094 200.589844 C 128.476562 200.589844 127.695312 200.1875 127.15625 199.378906 C 126.617188 198.570312 126.347656 197.398438 126.347656 195.867188 C 126.347656 194.328125 126.617188 193.15625 127.15625 192.347656 C 127.695312 191.539062 128.476562 191.136719 129.496094 191.136719 Z M 129.496094 191.136719 "/>
<path style=" stroke:none;fill-rule:nonzero;fill:rgb(0%,0%,0%);fill-opacity:1;" d="M 134.679688 194.902344 L 136.089844 194.902344 L 136.089844 190.035156 L 134.558594 190.34375 L 134.558594 189.554688 L 136.082031 189.25 L 136.945312 189.25 L 136.945312 194.902344 L 138.355469 194.902344 L 138.355469 195.628906 L 134.679688 195.628906 Z M 134.679688 194.902344 "/>
<g clip-path="url(#clip3)" clip-rule="nonzero">
<path style="fill:none;stroke-width:0.8;stroke-linecap:square;stroke-linejoin:round;stroke:rgb(69.019608%,69.019608%,69.019608%);stroke-opacity:1;stroke-miterlimit:4;" d="M 151.35625 145.8 L 151.35625 7.2 " transform="matrix(1.25,0,0,1.25,0,0)"/>
</g>
<path style="fill:none;stroke-width:0.8;stroke-linecap:butt;stroke-linejoin:round;stroke:rgb(0%,0%,0%);stroke-opacity:1;stroke-miterlimit:4;" d="M -0.000611 0 L -0.000611 3.5 " transform="matrix(1.25,0,0,1.25,189.196076,182.25)"/>
<path style=" stroke:none;fill-rule:nonzero;fill:rgb(0%,0%,0%);fill-opacity:1;" d="M 179.746094 199.367188 L 181.761719 199.367188 L 181.761719 192.414062 L 179.570312 192.851562 L 179.570312 191.730469 L 181.75 191.289062 L 182.980469 191.289062 L 182.980469 199.367188 L 184.996094 199.367188 L 184.996094 200.402344 L 179.746094 200.402344 Z M 179.746094 199.367188 "/>
<path style=" stroke:none;fill-rule:nonzero;fill:rgb(0%,0%,0%);fill-opacity:1;" d="M 190.121094 192.101562 C 189.488281 192.101562 189.011719 192.414062 188.691406 193.039062 C 188.371094 193.664062 188.210938 194.601562 188.210938 195.855469 C 188.210938 197.105469 188.371094 198.042969 188.691406 198.667969 C 189.011719 199.292969 189.488281 199.605469 190.121094 199.605469 C 190.761719 199.605469 191.238281 199.292969 191.558594 198.667969 C 191.878906 198.042969 192.039062 197.105469 192.039062 195.855469 C 192.039062 194.601562 191.878906 193.664062 191.558594 193.039062 C 191.238281 192.414062 190.761719 192.101562 190.121094 192.101562 Z M 190.121094 191.125 C 191.144531 191.125 191.925781 191.53125 192.464844 192.339844 C 193.003906 193.144531 193.273438 194.316406 193.273438 195.855469 C 193.273438 197.390625 193.003906 198.5625 192.464844 199.371094 C 191.925781 200.175781 191.144531 200.582031 190.121094 200.582031 C 189.101562 200.582031 188.320312 200.175781 187.78125 199.371094 C 187.242188 198.5625 186.972656 197.390625 186.972656 195.855469 C 186.972656 194.316406 187.242188 193.144531 187.78125 192.339844 C 188.320312 191.53125 189.101562 191.125 190.121094 191.125 Z M 190.121094 191.125 "/>
<path style=" stroke:none;fill-rule:nonzero;fill:rgb(0%,0%,0%);fill-opacity:1;" d="M 195.898438 194.890625 L 198.914062 194.890625 L 198.914062 195.617188 L 194.863281 195.617188 L 194.863281 194.890625 C 195.191406 194.550781 195.636719 194.097656 196.199219 193.527344 C 196.765625 192.957031 197.121094 192.585938 197.265625 192.421875 C 197.542969 192.109375 197.738281 191.847656 197.847656 191.632812 C 197.957031 191.417969 198.011719 191.207031 198.011719 191 C 198.011719 190.660156 197.890625 190.382812 197.65625 190.171875 C 197.417969 189.957031 197.105469 189.847656 196.726562 189.847656 C 196.453125 189.847656 196.167969 189.894531 195.867188 189.988281 C 195.566406 190.082031 195.246094 190.226562 194.90625 190.417969 L 194.90625 189.546875 C 195.253906 189.40625 195.578125 189.300781 195.878906 189.230469 C 196.179688 189.160156 196.457031 189.125 196.707031 189.125 C 197.371094 189.125 197.894531 189.289062 198.289062 189.621094 C 198.683594 189.949219 198.878906 190.390625 198.878906 190.941406 C 198.878906 191.207031 198.828125 191.453125 198.730469 191.6875 C 198.632812 191.921875 198.453125 192.199219 198.195312 192.519531 C 198.125 192.601562 197.898438 192.839844 197.515625 193.234375 C 197.132812 193.628906 196.597656 194.183594 195.898438 194.890625 Z M 195.898438 194.890625 "/>
<g clip-path="url(#clip4)" clip-rule="nonzero">
<path style="fill:none;stroke-width:0.8;stroke-linecap:square;stroke-linejoin:round;stroke:rgb(69.019608%,69.019608%,69.019608%);stroke-opacity:1;stroke-miterlimit:4;" d="M 199.85625 145.8 L 199.85625 7.2 " transform="matrix(1.25,0,0,1.25,0,0)"/>
</g>
<path style="fill:none;stroke-width:0.8;stroke-linecap:butt;stroke-linejoin:round;stroke:rgb(0%,0%,0%);stroke-opacity:1;stroke-miterlimit:4;" d="M -0.001343 0 L -0.001343 3.5 " transform="matrix(1.25,0,0,1.25,249.821991,182.25)"/>
<path style=" stroke:none;fill-rule:nonzero;fill:rgb(0%,0%,0%);fill-opacity:1;" d="M 240.371094 199.367188 L 242.386719 199.367188 L 242.386719 192.414062 L 240.195312 192.851562 L 240.195312 191.730469 L 242.375 191.289062 L 243.605469 191.289062 L 243.605469 199.367188 L 245.621094 199.367188 L 245.621094 200.402344 L 240.371094 200.402344 Z M 240.371094 199.367188 "/>
<path style=" stroke:none;fill-rule:nonzero;fill:rgb(0%,0%,0%);fill-opacity:1;" d="M 250.746094 192.101562 C 250.113281 192.101562 249.636719 192.414062 249.316406 193.039062 C 248.996094 193.664062 248.835938 194.601562 248.835938 195.855469 C 248.835938 197.105469 248.996094 198.042969 249.316406 198.667969 C 249.636719 199.292969 250.113281 199.605469 250.746094 199.605469 C 251.386719 199.605469 251.867188 199.292969 252.183594 198.667969 C 252.503906 198.042969 252.664062 197.105469 252.664062 195.855469 C 252.664062 194.601562 252.503906 193.664062 252.183594 193.039062 C 251.867188 192.414062 251.386719 192.101562 250.746094 192.101562 Z M 250.746094 191.125 C 251.769531 191.125 252.550781 191.53125 253.089844 192.339844 C 253.628906 193.144531 253.898438 194.316406 253.898438 195.855469 C 253.898438 197.390625 253.628906 198.5625 253.089844 199.371094 C 252.550781 200.175781 251.769531 200.582031 250.746094 200.582031 C 249.726562 200.582031 248.945312 200.175781 248.40625 199.371094 C 247.867188 198.5625 247.597656 197.390625 247.597656 195.855469 C 247.597656 194.316406 247.867188 193.144531 248.40625 192.339844 C 248.945312 191.53125 249.726562 191.125 250.746094 191.125 Z M 250.746094 191.125 "/>
<path style=" stroke:none;fill-rule:nonzero;fill:rgb(0%,0%,0%);fill-opacity:1;" d="M 258.398438 192.175781 C 258.8125 192.265625 259.132812 192.449219 259.363281 192.730469 C 259.597656 193.007812 259.714844 193.351562 259.714844 193.761719 C 259.714844 194.390625 259.496094 194.878906 259.0625 195.226562 C 258.628906 195.570312 258.015625 195.742188 257.21875 195.742188 C 256.949219 195.742188 256.675781 195.714844 256.390625 195.664062 C 256.109375 195.609375 255.816406 195.53125 255.515625 195.425781 L 255.515625 194.59375 C 255.753906 194.730469 256.015625 194.835938 256.300781 194.90625 C 256.585938 194.980469 256.882812 195.015625 257.195312 195.015625 C 257.734375 195.015625 258.144531 194.90625 258.429688 194.695312 C 258.710938 194.480469 258.855469 194.171875 258.855469 193.761719 C 258.855469 193.386719 258.722656 193.09375 258.460938 192.882812 C 258.195312 192.667969 257.828125 192.5625 257.359375 192.5625 L 256.617188 192.5625 L 256.617188 191.851562 L 257.394531 191.851562 C 257.816406 191.851562 258.144531 191.769531 258.367188 191.597656 C 258.59375 191.429688 258.707031 191.183594 258.707031 190.867188 C 258.707031 190.539062 258.589844 190.289062 258.355469 190.113281 C 258.125 189.9375 257.792969 189.847656 257.359375 189.847656 C 257.125 189.847656 256.871094 189.875 256.597656 189.925781 C 256.328125 189.976562 256.03125 190.058594 255.707031 190.164062 L 255.707031 189.398438 C 256.035156 189.304688 256.339844 189.238281 256.628906 189.191406 C 256.914062 189.144531 257.183594 189.125 257.4375 189.125 C 258.09375 189.125 258.609375 189.273438 258.992188 189.570312 C 259.375 189.867188 259.5625 190.269531 259.5625 190.777344 C 259.5625 191.128906 259.464844 191.429688 259.261719 191.671875 C 259.058594 191.914062 258.769531 192.082031 258.398438 192.175781 Z M 258.398438 192.175781 "/>
<path style="fill:none;stroke-width:0.6;stroke-linecap:butt;stroke-linejoin:round;stroke:rgb(0%,0%,0%);stroke-opacity:1;stroke-miterlimit:4;" d="M 0.001211 0 L 0.001211 2 " transform="matrix(1.25,0,0,1.25,58.553174,182.25)"/>
<path style="fill:none;stroke-width:0.6;stroke-linecap:butt;stroke-linejoin:round;stroke:rgb(0%,0%,0%);stroke-opacity:1;stroke-miterlimit:4;" d="M 0.001059 0 L 0.001059 2 " transform="matrix(1.25,0,0,1.25,62.068989,182.25)"/>
<path style="fill:none;stroke-width:0.6;stroke-linecap:butt;stroke-linejoin:round;stroke:rgb(0%,0%,0%);stroke-opacity:1;stroke-miterlimit:4;" d="M 0.001374 0 L 0.001374 2 " transform="matrix(1.25,0,0,1.25,65.170158,182.25)"/>
<path style="fill:none;stroke-width:0.6;stroke-linecap:butt;stroke-linejoin:round;stroke:rgb(0%,0%,0%);stroke-opacity:1;stroke-miterlimit:4;" d="M 0.000677 0 L 0.000677 2 " transform="matrix(1.25,0,0,1.25,86.194466,182.25)"/>
<path style="fill:none;stroke-width:0.6;stroke-linecap:butt;stroke-linejoin:round;stroke:rgb(0%,0%,0%);stroke-opacity:1;stroke-miterlimit:4;" d="M 0.000747 0 L 0.000747 2 " transform="matrix(1.25,0,0,1.25,96.87016,182.25)"/>
<path style="fill:none;stroke-width:0.6;stroke-linecap:butt;stroke-linejoin:round;stroke:rgb(0%,0%,0%);stroke-opacity:1;stroke-miterlimit:4;" d="M 0.000502 0 L 0.000502 2 " transform="matrix(1.25,0,0,1.25,104.444685,182.25)"/>
<path style="fill:none;stroke-width:0.6;stroke-linecap:butt;stroke-linejoin:round;stroke:rgb(0%,0%,0%);stroke-opacity:1;stroke-miterlimit:4;" d="M 0.000296 0 L 0.000296 2 " transform="matrix(1.25,0,0,1.25,110.319942,182.25)"/>
<path style="fill:none;stroke-width:0.6;stroke-linecap:butt;stroke-linejoin:round;stroke:rgb(0%,0%,0%);stroke-opacity:1;stroke-miterlimit:4;" d="M 0.000572 0 L 0.000572 2 " transform="matrix(1.25,0,0,1.25,115.120379,182.25)"/>
<path style="fill:none;stroke-width:0.6;stroke-linecap:butt;stroke-linejoin:round;stroke:rgb(0%,0%,0%);stroke-opacity:1;stroke-miterlimit:4;" d="M 0.000479 0 L 0.000479 2 " transform="matrix(1.25,0,0,1.25,119.179089,182.25)"/>
<path style="fill:none;stroke-width:0.6;stroke-linecap:butt;stroke-linejoin:round;stroke:rgb(0%,0%,0%);stroke-opacity:1;stroke-miterlimit:4;" d="M 0.000327 0 L 0.000327 2 " transform="matrix(1.25,0,0,1.25,122.694904,182.25)"/>
<path style="fill:none;stroke-width:0.6;stroke-linecap:butt;stroke-linejoin:round;stroke:rgb(0%,0%,0%);stroke-opacity:1;stroke-miterlimit:4;" d="M 0.000642 0 L 0.000642 2 " transform="matrix(1.25,0,0,1.25,125.796073,182.25)"/>
<path style="fill:none;stroke-width:0.6;stroke-linecap:butt;stroke-linejoin:round;stroke:rgb(0%,0%,0%);stroke-opacity:1;stroke-miterlimit:4;" d="M -0.000055 0 L -0.000055 2 " transform="matrix(1.25,0,0,1.25,146.820381,182.25)"/>
<path style="fill:none;stroke-width:0.6;stroke-linecap:butt;stroke-linejoin:round;stroke:rgb(0%,0%,0%);stroke-opacity:1;stroke-miterlimit:4;" d="M 0.000015 0 L 0.000015 2 " transform="matrix(1.25,0,0,1.25,157.496075,182.25)"/>
<path style="fill:none;stroke-width:0.6;stroke-linecap:butt;stroke-linejoin:round;stroke:rgb(0%,0%,0%);stroke-opacity:1;stroke-miterlimit:4;" d="M -0.00023 0 L -0.00023 2 " transform="matrix(1.25,0,0,1.25,165.0706,182.25)"/>
<path style="fill:none;stroke-width:0.6;stroke-linecap:butt;stroke-linejoin:round;stroke:rgb(0%,0%,0%);stroke-opacity:1;stroke-miterlimit:4;" d="M -0.000436 0 L -0.000436 2 " transform="matrix(1.25,0,0,1.25,170.945857,182.25)"/>
<path style="fill:none;stroke-width:0.6;stroke-linecap:butt;stroke-linejoin:round;stroke:rgb(0%,0%,0%);stroke-opacity:1;stroke-miterlimit:4;" d="M -0.00016 0 L -0.00016 2 " transform="matrix(1.25,0,0,1.25,175.746294,182.25)"/>
<path style="fill:none;stroke-width:0.6;stroke-linecap:butt;stroke-linejoin:round;stroke:rgb(0%,0%,0%);stroke-opacity:1;stroke-miterlimit:4;" d="M -0.000253 0 L -0.000253 2 " transform="matrix(1.25,0,0,1.25,179.805004,182.25)"/>
<path style="fill:none;stroke-width:0.6;stroke-linecap:butt;stroke-linejoin:round;stroke:rgb(0%,0%,0%);stroke-opacity:1;stroke-miterlimit:4;" d="M -0.000405 0 L -0.000405 2 " transform="matrix(1.25,0,0,1.25,183.320819,182.25)"/>
<path style="fill:none;stroke-width:0.6;stroke-linecap:butt;stroke-linejoin:round;stroke:rgb(0%,0%,0%);stroke-opacity:1;stroke-miterlimit:4;" d="M -0.00009 0 L -0.00009 2 " transform="matrix(1.25,0,0,1.25,186.421988,182.25)"/>
<path style="fill:none;stroke-width:0.6;stroke-linecap:butt;stroke-linejoin:round;stroke:rgb(0%,0%,0%);stroke-opacity:1;stroke-miterlimit:4;" d="M -0.000786 0 L -0.000786 2 " transform="matrix(1.25,0,0,1.25,207.446295,182.25)"/>
<path style="fill:none;stroke-width:0.6;stroke-linecap:butt;stroke-linejoin:round;stroke:rgb(0%,0%,0%);stroke-opacity:1;stroke-miterlimit:4;" d="M -0.000716 0 L -0.000716 2 " transform="matrix(1.25,0,0,1.25,218.121989,182.25)"/>
<path style="fill:none;stroke-width:0.6;stroke-linecap:butt;stroke-linejoin:round;stroke:rgb(0%,0%,0%);stroke-opacity:1;stroke-miterlimit:4;" d="M -0.000961 0 L -0.000961 2 " transform="matrix(1.25,0,0,1.25,225.696514,182.25)"/>
<path style="fill:none;stroke-width:0.6;stroke-linecap:butt;stroke-linejoin:round;stroke:rgb(0%,0%,0%);stroke-opacity:1;stroke-miterlimit:4;" d="M -0.001168 0 L -0.001168 2 " transform="matrix(1.25,0,0,1.25,231.571773,182.25)"/>
<path style="fill:none;stroke-width:0.6;stroke-linecap:butt;stroke-linejoin:round;stroke:rgb(0%,0%,0%);stroke-opacity:1;stroke-miterlimit:4;" d="M -0.000891 0 L -0.000891 2 " transform="matrix(1.25,0,0,1.25,236.372208,182.25)"/>
<path style="fill:none;stroke-width:0.6;stroke-linecap:butt;stroke-linejoin:round;stroke:rgb(0%,0%,0%);stroke-opacity:1;stroke-miterlimit:4;" d="M -0.000985 0 L -0.000985 2 " transform="matrix(1.25,0,0,1.25,240.430919,182.25)"/>
<path style="fill:none;stroke-width:0.6;stroke-linecap:butt;stroke-linejoin:round;stroke:rgb(0%,0%,0%);stroke-opacity:1;stroke-miterlimit:4;" d="M -0.001137 0 L -0.001137 2 " transform="matrix(1.25,0,0,1.25,243.946734,182.25)"/>
<path style="fill:none;stroke-width:0.6;stroke-linecap:butt;stroke-linejoin:round;stroke:rgb(0%,0%,0%);stroke-opacity:1;stroke-miterlimit:4;" d="M -0.000821 0 L -0.000821 2 " transform="matrix(1.25,0,0,1.25,247.047901,182.25)"/>
<path style="fill:none;stroke-width:0.6;stroke-linecap:butt;stroke-linejoin:round;stroke:rgb(0%,0%,0%);stroke-opacity:1;stroke-miterlimit:4;" d="M -0.001518 0 L -0.001518 2 " transform="matrix(1.25,0,0,1.25,268.07221,182.25)"/>
<path style="fill:none;stroke-width:0.6;stroke-linecap:butt;stroke-linejoin:round;stroke:rgb(0%,0%,0%);stroke-opacity:1;stroke-miterlimit:4;" d="M -0.001448 0 L -0.001448 2 " transform="matrix(1.25,0,0,1.25,278.747904,182.25)"/>
<path style="fill:none;stroke-width:0.6;stroke-linecap:butt;stroke-linejoin:round;stroke:rgb(0%,0%,0%);stroke-opacity:1;stroke-miterlimit:4;" d="M 0.001432 0 L 0.001432 2 " transform="matrix(1.25,0,0,1.25,286.322429,182.25)"/>
<path style="fill:none;stroke-width:0.6;stroke-linecap:butt;stroke-linejoin:round;stroke:rgb(0%,0%,0%);stroke-opacity:1;stroke-miterlimit:4;" d="M 0.001225 0 L 0.001225 2 " transform="matrix(1.25,0,0,1.25,292.197688,182.25)"/>
<path style="fill:none;stroke-width:0.6;stroke-linecap:butt;stroke-linejoin:round;stroke:rgb(0%,0%,0%);stroke-opacity:1;stroke-miterlimit:4;" d="M 0.001502 0 L 0.001502 2 " transform="matrix(1.25,0,0,1.25,296.998123,182.25)"/>
<path style=" stroke:none;fill-rule:nonzero;fill:rgb(0%,0%,0%);fill-opacity:1;" d="M 155.933594 208.820312 L 155.933594 210.761719 L 158.246094 210.761719 L 158.246094 211.632812 L 155.933594 211.632812 L 155.933594 215.34375 C 155.933594 215.902344 156.011719 216.257812 156.164062 216.417969 C 156.316406 216.578125 156.625 216.65625 157.09375 216.65625 L 158.246094 216.65625 L 158.246094 217.597656 L 157.09375 217.597656 C 156.226562 217.597656 155.628906 217.433594 155.300781 217.113281 C 154.96875 216.789062 154.804688 216.199219 154.804688 215.34375 L 154.804688 211.632812 L 153.980469 211.632812 L 153.980469 210.761719 L 154.804688 210.761719 L 154.804688 208.820312 Z M 155.933594 208.820312 "/>
<path style=" stroke:none;fill-rule:nonzero;fill:rgb(0%,0%,0%);fill-opacity:1;" d="M 162.371094 211.546875 C 161.769531 211.546875 161.296875 211.78125 160.945312 212.253906 C 160.59375 212.722656 160.417969 213.367188 160.417969 214.183594 C 160.417969 215 160.59375 215.644531 160.941406 216.117188 C 161.289062 216.585938 161.765625 216.820312 162.371094 216.820312 C 162.972656 216.820312 163.445312 216.585938 163.792969 216.113281 C 164.144531 215.640625 164.320312 214.996094 164.320312 214.183594 C 164.320312 213.375 164.144531 212.730469 163.792969 212.257812 C 163.445312 211.785156 162.972656 211.546875 162.371094 211.546875 Z M 162.371094 210.597656 C 163.347656 210.597656 164.117188 210.914062 164.671875 211.550781 C 165.230469 212.183594 165.511719 213.0625 165.511719 214.183594 C 165.511719 215.300781 165.230469 216.179688 164.671875 216.820312 C 164.117188 217.457031 163.347656 217.773438 162.371094 217.773438 C 161.390625 217.773438 160.625 217.457031 160.066406 216.820312 C 159.511719 216.179688 159.234375 215.300781 159.234375 214.183594 C 159.234375 213.0625 159.511719 212.183594 160.066406 211.550781 C 160.625 210.914062 161.390625 210.597656 162.371094 210.597656 Z M 162.371094 210.597656 "/>
<path style=" stroke:none;fill-rule:nonzero;fill:rgb(0%,0%,0%);fill-opacity:1;" d="M 167.328125 208.097656 L 168.457031 208.097656 L 168.457031 213.707031 L 171.808594 210.761719 L 173.242188 210.761719 L 169.617188 213.957031 L 173.398438 217.597656 L 171.933594 217.597656 L 168.457031 214.257812 L 168.457031 217.597656 L 167.328125 217.597656 Z M 167.328125 208.097656 "/>
<path style=" stroke:none;fill-rule:nonzero;fill:rgb(0%,0%,0%);fill-opacity:1;" d="M 180.003906 213.898438 L 180.003906 214.445312 L 174.839844 214.445312 C 174.890625 215.21875 175.125 215.808594 175.539062 216.214844 C 175.957031 216.617188 176.539062 216.820312 177.28125 216.820312 C 177.714844 216.820312 178.132812 216.769531 178.535156 216.664062 C 178.941406 216.558594 179.34375 216.398438 179.742188 216.1875 L 179.742188 217.25 C 179.339844 217.417969 178.925781 217.550781 178.503906 217.640625 C 178.082031 217.730469 177.652344 217.773438 177.214844 217.773438 C 176.125 217.773438 175.261719 217.457031 174.625 216.824219 C 173.988281 216.1875 173.667969 215.328125 173.667969 214.246094 C 173.667969 213.125 173.972656 212.238281 174.574219 211.582031 C 175.179688 210.925781 175.996094 210.597656 177.019531 210.597656 C 177.941406 210.597656 178.667969 210.890625 179.203125 211.484375 C 179.738281 212.074219 180.003906 212.878906 180.003906 213.898438 Z M 178.882812 213.566406 C 178.875 212.953125 178.703125 212.464844 178.367188 212.097656 C 178.03125 211.730469 177.585938 211.546875 177.03125 211.546875 C 176.40625 211.546875 175.90625 211.722656 175.527344 212.078125 C 175.152344 212.433594 174.9375 212.929688 174.878906 213.574219 Z M 178.882812 213.566406 "/>
<path style=" stroke:none;fill-rule:nonzero;fill:rgb(0%,0%,0%);fill-opacity:1;" d="M 187.53125 213.46875 L 187.53125 217.597656 L 186.410156 217.597656 L 186.410156 213.507812 C 186.410156 212.859375 186.28125 212.375 186.03125 212.054688 C 185.777344 211.734375 185.398438 211.574219 184.894531 211.574219 C 184.289062 211.574219 183.808594 211.765625 183.460938 212.152344 C 183.109375 212.539062 182.933594 213.066406 182.933594 213.734375 L 182.933594 217.597656 L 181.804688 217.597656 L 181.804688 210.761719 L 182.933594 210.761719 L 182.933594 211.824219 C 183.203125 211.410156 183.519531 211.105469 183.882812 210.902344 C 184.246094 210.699219 184.667969 210.597656 185.144531 210.597656 C 185.929688 210.597656 186.523438 210.839844 186.925781 211.324219 C 187.328125 211.808594 187.53125 212.523438 187.53125 213.46875 Z M 187.53125 213.46875 "/>
<path style=" stroke:none;fill-rule:nonzero;fill:rgb(0%,0%,0%);fill-opacity:1;" d="M 190.058594 216.046875 L 191.34375 216.046875 L 191.34375 217.597656 L 190.058594 217.597656 Z M 190.058594 211.132812 L 191.34375 211.132812 L 191.34375 212.683594 L 190.058594 212.683594 Z M 190.058594 211.132812 "/>
<path style=" stroke:none;fill-rule:nonzero;fill:rgb(0%,0%,0%);fill-opacity:1;" d="M 203.640625 210.761719 L 201.167969 214.085938 L 203.765625 217.597656 L 202.441406 217.597656 L 200.453125 214.910156 L 198.464844 217.597656 L 197.136719 217.597656 L 199.792969 214.019531 L 197.363281 210.761719 L 198.6875 210.761719 L 200.5 213.195312 L 202.3125 210.761719 Z M 203.640625 210.761719 "/>
<g clip-path="url(#clip5)" clip-rule="nonzero">
<path style="fill:none;stroke-width:0.8;stroke-linecap:square;stroke-linejoin:round;stroke:rgb(69.019608%,69.019608%,69.019608%);stroke-opacity:1;stroke-miterlimit:4;" d="M 45.478125 139.5 L 240.778125 139.5 " transform="matrix(1.25,0,0,1.25,0,0)"/>
</g>
<path style="fill:none;stroke-width:0.8;stroke-linecap:butt;stroke-linejoin:round;stroke:rgb(0%,0%,0%);stroke-opacity:1;stroke-miterlimit:4;" d="M 0 0 L -3.5 0 " transform="matrix(1.25,0,0,1.25,56.847656,174.375)"/>
<path style=" stroke:none;fill-rule:nonzero;fill:rgb(0%,0%,0%);fill-opacity:1;" d="M 27.648438 177.992188 L 29.664062 177.992188 L 29.664062 171.039062 L 27.46875 171.476562 L 27.46875 170.355469 L 29.648438 169.914062 L 30.882812 169.914062 L 30.882812 177.992188 L 32.898438 177.992188 L 32.898438 179.027344 L 27.648438 179.027344 Z M 27.648438 177.992188 "/>
<path style=" stroke:none;fill-rule:nonzero;fill:rgb(0%,0%,0%);fill-opacity:1;" d="M 38.023438 170.726562 C 37.390625 170.726562 36.910156 171.039062 36.589844 171.664062 C 36.273438 172.289062 36.113281 173.226562 36.113281 174.480469 C 36.113281 175.730469 36.273438 176.667969 36.589844 177.292969 C 36.910156 177.917969 37.390625 178.230469 38.023438 178.230469 C 38.664062 178.230469 39.140625 177.917969 39.460938 177.292969 C 39.78125 176.667969 39.941406 175.730469 39.941406 174.480469 C 39.941406 173.226562 39.78125 172.289062 39.460938 171.664062 C 39.140625 171.039062 38.664062 170.726562 38.023438 170.726562 Z M 38.023438 169.75 C 39.046875 169.75 39.824219 170.15625 40.363281 170.964844 C 40.902344 171.769531 41.171875 172.945312 41.171875 174.480469 C 41.171875 176.015625 40.902344 177.1875 40.363281 177.996094 C 39.824219 178.800781 39.046875 179.207031 38.023438 179.207031 C 37.003906 179.207031 36.222656 178.800781 35.683594 177.996094 C 35.144531 177.1875 34.875 176.015625 34.875 174.480469 C 34.875 172.945312 35.144531 171.769531 35.683594 170.964844 C 36.222656 170.15625 37.003906 169.75 38.023438 169.75 Z M 38.023438 169.75 "/>
<path style=" stroke:none;fill-rule:nonzero;fill:rgb(0%,0%,0%);fill-opacity:1;" d="M 44.902344 168.433594 C 44.460938 168.433594 44.125 168.652344 43.902344 169.089844 C 43.679688 169.527344 43.566406 170.183594 43.566406 171.058594 C 43.566406 171.933594 43.679688 172.589844 43.902344 173.027344 C 44.125 173.464844 44.460938 173.683594 44.902344 173.683594 C 45.351562 173.683594 45.6875 173.464844 45.910156 173.027344 C 46.132812 172.589844 46.246094 171.933594 46.246094 171.058594 C 46.246094 170.183594 46.132812 169.527344 45.910156 169.089844 C 45.6875 168.652344 45.351562 168.433594 44.902344 168.433594 Z M 44.902344 167.75 C 45.621094 167.75 46.164062 168.03125 46.542969 168.597656 C 46.921875 169.164062 47.109375 169.984375 47.109375 171.058594 C 47.109375 172.132812 46.921875 172.953125 46.542969 173.519531 C 46.164062 174.085938 45.621094 174.367188 44.902344 174.367188 C 44.1875 174.367188 43.644531 174.085938 43.265625 173.519531 C 42.890625 172.953125 42.699219 172.132812 42.699219 171.058594 C 42.699219 169.984375 42.890625 169.164062 43.265625 168.597656 C 43.644531 168.03125 44.1875 167.75 44.902344 167.75 Z M 44.902344 167.75 "/>
<g clip-path="url(#clip6)" clip-rule="nonzero">
<path style="fill:none;stroke-width:0.8;stroke-linecap:square;stroke-linejoin:round;stroke:rgb(69.019608%,69.019608%,69.019608%);stroke-opacity:1;stroke-miterlimit:4;" d="M 45.478125 101.9375 L 240.778125 101.9375 " transform="matrix(1.25,0,0,1.25,0,0)"/>
</g>
<path style="fill:none;stroke-width:0.8;stroke-linecap:butt;stroke-linejoin:round;stroke:rgb(0%,0%,0%);stroke-opacity:1;stroke-miterlimit:4;" d="M 0 0.001218 L -3.5 0.001218 " transform="matrix(1.25,0,0,1.25,56.847656,127.420353)"/>
<path style=" stroke:none;fill-rule:nonzero;fill:rgb(0%,0%,0%);fill-opacity:1;" d="M 27.648438 131.046875 L 29.664062 131.046875 L 29.664062 124.09375 L 27.46875 124.53125 L 27.46875 123.410156 L 29.648438 122.96875 L 30.882812 122.96875 L 30.882812 131.046875 L 32.898438 131.046875 L 32.898438 132.082031 L 27.648438 132.082031 Z M 27.648438 131.046875 "/>
<path style=" stroke:none;fill-rule:nonzero;fill:rgb(0%,0%,0%);fill-opacity:1;" d="M 38.023438 123.78125 C 37.390625 123.78125 36.910156 124.09375 36.589844 124.71875 C 36.273438 125.34375 36.113281 126.28125 36.113281 127.535156 C 36.113281 128.785156 36.273438 129.722656 36.589844 130.347656 C 36.910156 130.972656 37.390625 131.285156 38.023438 131.285156 C 38.664062 131.285156 39.140625 130.972656 39.460938 130.347656 C 39.78125 129.722656 39.941406 128.785156 39.941406 127.535156 C 39.941406 126.28125 39.78125 125.34375 39.460938 124.71875 C 39.140625 124.09375 38.664062 123.78125 38.023438 123.78125 Z M 38.023438 122.804688 C 39.046875 122.804688 39.824219 123.210938 40.363281 124.019531 C 40.902344 124.828125 41.171875 126 41.171875 127.535156 C 41.171875 129.070312 40.902344 130.242188 40.363281 131.050781 C 39.824219 131.859375 39.046875 132.261719 38.023438 132.261719 C 37.003906 132.261719 36.222656 131.859375 35.683594 131.050781 C 35.144531 130.242188 34.875 129.070312 34.875 127.535156 C 34.875 126 35.144531 124.828125 35.683594 124.019531 C 36.222656 123.210938 37.003906 122.804688 38.023438 122.804688 Z M 38.023438 122.804688 "/>
<path style=" stroke:none;fill-rule:nonzero;fill:rgb(0%,0%,0%);fill-opacity:1;" d="M 43.207031 126.574219 L 44.617188 126.574219 L 44.617188 121.707031 L 43.085938 122.011719 L 43.085938 121.226562 L 44.609375 120.917969 L 45.472656 120.917969 L 45.472656 126.574219 L 46.882812 126.574219 L 46.882812 127.296875 L 43.207031 127.296875 Z M 43.207031 126.574219 "/>
<g clip-path="url(#clip7)" clip-rule="nonzero">
<path style="fill:none;stroke-width:0.8;stroke-linecap:square;stroke-linejoin:round;stroke:rgb(69.019608%,69.019608%,69.019608%);stroke-opacity:1;stroke-miterlimit:4;" d="M 45.478125 64.371875 L 240.778125 64.371875 " transform="matrix(1.25,0,0,1.25,0,0)"/>
</g>
<path style="fill:none;stroke-width:0.8;stroke-linecap:butt;stroke-linejoin:round;stroke:rgb(0%,0%,0%);stroke-opacity:1;stroke-miterlimit:4;" d="M 0 -0.000689 L -3.5 -0.000689 " transform="matrix(1.25,0,0,1.25,56.847656,80.465705)"/>
<path style=" stroke:none;fill-rule:nonzero;fill:rgb(0%,0%,0%);fill-opacity:1;" d="M 27.648438 84.082031 L 29.664062 84.082031 L 29.664062 77.128906 L 27.46875 77.566406 L 27.46875 76.445312 L 29.648438 76.003906 L 30.882812 76.003906 L 30.882812 84.082031 L 32.898438 84.082031 L 32.898438 85.117188 L 27.648438 85.117188 Z M 27.648438 84.082031 "/>
<path style=" stroke:none;fill-rule:nonzero;fill:rgb(0%,0%,0%);fill-opacity:1;" d="M 38.023438 76.816406 C 37.390625 76.816406 36.910156 77.128906 36.589844 77.753906 C 36.273438 78.378906 36.113281 79.316406 36.113281 80.570312 C 36.113281 81.820312 36.273438 82.757812 36.589844 83.382812 C 36.910156 84.007812 37.390625 84.320312 38.023438 84.320312 C 38.664062 84.320312 39.140625 84.007812 39.460938 83.382812 C 39.78125 82.757812 39.941406 81.820312 39.941406 80.570312 C 39.941406 79.316406 39.78125 78.378906 39.460938 77.753906 C 39.140625 77.128906 38.664062 76.816406 38.023438 76.816406 Z M 38.023438 75.839844 C 39.046875 75.839844 39.824219 76.246094 40.363281 77.054688 C 40.902344 77.863281 41.171875 79.035156 41.171875 80.570312 C 41.171875 82.105469 40.902344 83.277344 40.363281 84.085938 C 39.824219 84.894531 39.046875 85.296875 38.023438 85.296875 C 37.003906 85.296875 36.222656 84.894531 35.683594 84.085938 C 35.144531 83.277344 34.875 82.105469 34.875 80.570312 C 34.875 79.035156 35.144531 77.863281 35.683594 77.054688 C 36.222656 76.246094 37.003906 75.839844 38.023438 75.839844 Z M 38.023438 75.839844 "/>
<path style=" stroke:none;fill-rule:nonzero;fill:rgb(0%,0%,0%);fill-opacity:1;" d="M 43.800781 79.609375 L 46.8125 79.609375 L 46.8125 80.332031 L 42.765625 80.332031 L 42.765625 79.609375 C 43.089844 79.269531 43.539062 78.8125 44.101562 78.242188 C 44.667969 77.671875 45.023438 77.304688 45.167969 77.136719 C 45.445312 76.828125 45.636719 76.566406 45.746094 76.351562 C 45.859375 76.136719 45.914062 75.921875 45.914062 75.714844 C 45.914062 75.375 45.792969 75.101562 45.554688 74.886719 C 45.316406 74.671875 45.007812 74.566406 44.625 74.566406 C 44.355469 74.566406 44.070312 74.613281 43.769531 74.707031 C 43.46875 74.800781 43.148438 74.941406 42.804688 75.132812 L 42.804688 74.261719 C 43.152344 74.121094 43.476562 74.015625 43.78125 73.945312 C 44.082031 73.875 44.359375 73.839844 44.609375 73.839844 C 45.269531 73.839844 45.796875 74.003906 46.191406 74.335938 C 46.582031 74.664062 46.78125 75.105469 46.78125 75.660156 C 46.78125 75.921875 46.730469 76.171875 46.632812 76.40625 C 46.535156 76.640625 46.355469 76.917969 46.097656 77.234375 C 46.023438 77.320312 45.796875 77.558594 45.417969 77.953125 C 45.035156 78.347656 44.496094 78.898438 43.800781 79.609375 Z M 43.800781 79.609375 "/>
<g clip-path="url(#clip8)" clip-rule="nonzero">
<path style="fill:none;stroke-width:0.8;stroke-linecap:square;stroke-linejoin:round;stroke:rgb(69.019608%,69.019608%,69.019608%);stroke-opacity:1;stroke-miterlimit:4;" d="M 45.478125 26.809375 L 240.778125 26.809375 " transform="matrix(1.25,0,0,1.25,0,0)"/>
</g>
<path style="fill:none;stroke-width:0.8;stroke-linecap:butt;stroke-linejoin:round;stroke:rgb(0%,0%,0%);stroke-opacity:1;stroke-miterlimit:4;" d="M 0 0.000529 L -3.5 0.000529 " transform="matrix(1.25,0,0,1.25,56.847656,33.511057)"/>
<path style=" stroke:none;fill-rule:nonzero;fill:rgb(0%,0%,0%);fill-opacity:1;" d="M 27.648438 37.128906 L 29.664062 37.128906 L 29.664062 30.175781 L 27.46875 30.613281 L 27.46875 29.492188 L 29.648438 29.050781 L 30.882812 29.050781 L 30.882812 37.128906 L 32.898438 37.128906 L 32.898438 38.164062 L 27.648438 38.164062 Z M 27.648438 37.128906 "/>
<path style=" stroke:none;fill-rule:nonzero;fill:rgb(0%,0%,0%);fill-opacity:1;" d="M 38.023438 29.863281 C 37.390625 29.863281 36.910156 30.175781 36.589844 30.800781 C 36.273438 31.425781 36.113281 32.363281 36.113281 33.617188 C 36.113281 34.867188 36.273438 35.804688 36.589844 36.429688 C 36.910156 37.054688 37.390625 37.367188 38.023438 37.367188 C 38.664062 37.367188 39.140625 37.054688 39.460938 36.429688 C 39.78125 35.804688 39.941406 34.867188 39.941406 33.617188 C 39.941406 32.363281 39.78125 31.425781 39.460938 30.800781 C 39.140625 30.175781 38.664062 29.863281 38.023438 29.863281 Z M 38.023438 28.886719 C 39.046875 28.886719 39.824219 29.292969 40.363281 30.101562 C 40.902344 30.90625 41.171875 32.078125 41.171875 33.617188 C 41.171875 35.152344 40.902344 36.324219 40.363281 37.132812 C 39.824219 37.9375 39.046875 38.34375 38.023438 38.34375 C 37.003906 38.34375 36.222656 37.9375 35.683594 37.132812 C 35.144531 36.324219 34.875 35.152344 34.875 33.617188 C 34.875 32.078125 35.144531 30.90625 35.683594 30.101562 C 36.222656 29.292969 37.003906 28.886719 38.023438 28.886719 Z M 38.023438 28.886719 "/>
<path style=" stroke:none;fill-rule:nonzero;fill:rgb(0%,0%,0%);fill-opacity:1;" d="M 45.671875 29.9375 C 46.085938 30.027344 46.410156 30.210938 46.640625 30.492188 C 46.871094 30.769531 46.988281 31.113281 46.988281 31.523438 C 46.988281 32.152344 46.773438 32.640625 46.339844 32.988281 C 45.90625 33.332031 45.292969 33.503906 44.492188 33.503906 C 44.226562 33.503906 43.953125 33.476562 43.667969 33.425781 C 43.382812 33.371094 43.09375 33.292969 42.789062 33.1875 L 42.789062 32.355469 C 43.027344 32.492188 43.289062 32.597656 43.574219 32.667969 C 43.859375 32.742188 44.160156 32.777344 44.46875 32.777344 C 45.007812 32.777344 45.421875 32.667969 45.703125 32.457031 C 45.988281 32.242188 46.128906 31.933594 46.128906 31.523438 C 46.128906 31.148438 46 30.855469 45.734375 30.644531 C 45.472656 30.429688 45.105469 30.324219 44.636719 30.324219 L 43.890625 30.324219 L 43.890625 29.617188 L 44.671875 29.617188 C 45.09375 29.617188 45.417969 29.53125 45.644531 29.359375 C 45.867188 29.191406 45.980469 28.945312 45.980469 28.628906 C 45.980469 28.300781 45.863281 28.050781 45.632812 27.875 C 45.402344 27.699219 45.070312 27.609375 44.636719 27.609375 C 44.398438 27.609375 44.144531 27.636719 43.875 27.6875 C 43.605469 27.738281 43.304688 27.820312 42.980469 27.925781 L 42.980469 27.160156 C 43.308594 27.066406 43.617188 27 43.902344 26.953125 C 44.1875 26.90625 44.460938 26.886719 44.710938 26.886719 C 45.367188 26.886719 45.886719 27.035156 46.265625 27.332031 C 46.648438 27.628906 46.839844 28.03125 46.839844 28.539062 C 46.839844 28.890625 46.738281 29.191406 46.535156 29.433594 C 46.335938 29.675781 46.046875 29.84375 45.671875 29.9375 Z M 45.671875 29.9375 "/>
<path style="fill:none;stroke-width:0.6;stroke-linecap:butt;stroke-linejoin:round;stroke:rgb(0%,0%,0%);stroke-opacity:1;stroke-miterlimit:4;" d="M 0 0.000056 L -2 0.000056 " transform="matrix(1.25,0,0,1.25,56.847656,181.648368)"/>
<path style="fill:none;stroke-width:0.6;stroke-linecap:butt;stroke-linejoin:round;stroke:rgb(0%,0%,0%);stroke-opacity:1;stroke-miterlimit:4;" d="M 0 0.000325 L -2 0.000325 " transform="matrix(1.25,0,0,1.25,56.847656,178.925375)"/>
<path style="fill:none;stroke-width:0.6;stroke-linecap:butt;stroke-linejoin:round;stroke:rgb(0%,0%,0%);stroke-opacity:1;stroke-miterlimit:4;" d="M 0 -0.000071 L -2 -0.000071 " transform="matrix(1.25,0,0,1.25,56.847656,176.523526)"/>
<path style="fill:none;stroke-width:0.6;stroke-linecap:butt;stroke-linejoin:round;stroke:rgb(0%,0%,0%);stroke-opacity:1;stroke-miterlimit:4;" d="M 0 0.001556 L -2 0.001556 " transform="matrix(1.25,0,0,1.25,56.847656,160.240242)"/>
<path style="fill:none;stroke-width:0.6;stroke-linecap:butt;stroke-linejoin:round;stroke:rgb(0%,0%,0%);stroke-opacity:1;stroke-miterlimit:4;" d="M 0 0.000573 L -2 0.000573 " transform="matrix(1.25,0,0,1.25,56.847656,151.97194)"/>
<path style="fill:none;stroke-width:0.6;stroke-linecap:butt;stroke-linejoin:round;stroke:rgb(0%,0%,0%);stroke-opacity:1;stroke-miterlimit:4;" d="M 0 -0.000013 L -2 -0.000013 " transform="matrix(1.25,0,0,1.25,56.847656,146.105485)"/>
<path style="fill:none;stroke-width:0.6;stroke-linecap:butt;stroke-linejoin:round;stroke:rgb(0%,0%,0%);stroke-opacity:1;stroke-miterlimit:4;" d="M 0 -0.000338 L -2 -0.000338 " transform="matrix(1.25,0,0,1.25,56.847656,141.55511)"/>
<path style="fill:none;stroke-width:0.6;stroke-linecap:butt;stroke-linejoin:round;stroke:rgb(0%,0%,0%);stroke-opacity:1;stroke-miterlimit:4;" d="M 0 -0.000996 L -2 -0.000996 " transform="matrix(1.25,0,0,1.25,56.847656,137.837182)"/>
<path style="fill:none;stroke-width:0.6;stroke-linecap:butt;stroke-linejoin:round;stroke:rgb(0%,0%,0%);stroke-opacity:1;stroke-miterlimit:4;" d="M 0 0.001274 L -2 0.001274 " transform="matrix(1.25,0,0,1.25,56.847656,134.69372)"/>
<path style="fill:none;stroke-width:0.6;stroke-linecap:butt;stroke-linejoin:round;stroke:rgb(0%,0%,0%);stroke-opacity:1;stroke-miterlimit:4;" d="M 0 0.001542 L -2 0.001542 " transform="matrix(1.25,0,0,1.25,56.847656,131.970729)"/>
<path style="fill:none;stroke-width:0.6;stroke-linecap:butt;stroke-linejoin:round;stroke:rgb(0%,0%,0%);stroke-opacity:1;stroke-miterlimit:4;" d="M 0 0.001146 L -2 0.001146 " transform="matrix(1.25,0,0,1.25,56.847656,129.56888)"/>
<path style="fill:none;stroke-width:0.6;stroke-linecap:butt;stroke-linejoin:round;stroke:rgb(0%,0%,0%);stroke-opacity:1;stroke-miterlimit:4;" d="M 0 -0.000351 L -2 -0.000351 " transform="matrix(1.25,0,0,1.25,56.847656,113.285595)"/>
<path style="fill:none;stroke-width:0.6;stroke-linecap:butt;stroke-linejoin:round;stroke:rgb(0%,0%,0%);stroke-opacity:1;stroke-miterlimit:4;" d="M 0 -0.001334 L -2 -0.001334 " transform="matrix(1.25,0,0,1.25,56.847656,105.017292)"/>
<path style="fill:none;stroke-width:0.6;stroke-linecap:butt;stroke-linejoin:round;stroke:rgb(0%,0%,0%);stroke-opacity:1;stroke-miterlimit:4;" d="M 0 0.001205 L -2 0.001205 " transform="matrix(1.25,0,0,1.25,56.847656,99.150838)"/>
<path style="fill:none;stroke-width:0.6;stroke-linecap:butt;stroke-linejoin:round;stroke:rgb(0%,0%,0%);stroke-opacity:1;stroke-miterlimit:4;" d="M 0 0.00088 L -2 0.00088 " transform="matrix(1.25,0,0,1.25,56.847656,94.600462)"/>
<path style="fill:none;stroke-width:0.6;stroke-linecap:butt;stroke-linejoin:round;stroke:rgb(0%,0%,0%);stroke-opacity:1;stroke-miterlimit:4;" d="M 0 0.000222 L -2 0.000222 " transform="matrix(1.25,0,0,1.25,56.847656,90.882535)"/>
<path style="fill:none;stroke-width:0.6;stroke-linecap:butt;stroke-linejoin:round;stroke:rgb(0%,0%,0%);stroke-opacity:1;stroke-miterlimit:4;" d="M 0 -0.000633 L -2 -0.000633 " transform="matrix(1.25,0,0,1.25,56.847656,87.739073)"/>
<path style="fill:none;stroke-width:0.6;stroke-linecap:butt;stroke-linejoin:round;stroke:rgb(0%,0%,0%);stroke-opacity:1;stroke-miterlimit:4;" d="M 0 -0.000365 L -2 -0.000365 " transform="matrix(1.25,0,0,1.25,56.847656,85.016081)"/>
<path style="fill:none;stroke-width:0.6;stroke-linecap:butt;stroke-linejoin:round;stroke:rgb(0%,0%,0%);stroke-opacity:1;stroke-miterlimit:4;" d="M 0 -0.000761 L -2 -0.000761 " transform="matrix(1.25,0,0,1.25,56.847656,82.614232)"/>
<path style="fill:none;stroke-width:0.6;stroke-linecap:butt;stroke-linejoin:round;stroke:rgb(0%,0%,0%);stroke-opacity:1;stroke-miterlimit:4;" d="M 0 0.000867 L -2 0.000867 " transform="matrix(1.25,0,0,1.25,56.847656,66.330947)"/>
<path style="fill:none;stroke-width:0.6;stroke-linecap:butt;stroke-linejoin:round;stroke:rgb(0%,0%,0%);stroke-opacity:1;stroke-miterlimit:4;" d="M 0 -0.000116 L -2 -0.000116 " transform="matrix(1.25,0,0,1.25,56.847656,58.062645)"/>
<path style="fill:none;stroke-width:0.6;stroke-linecap:butt;stroke-linejoin:round;stroke:rgb(0%,0%,0%);stroke-opacity:1;stroke-miterlimit:4;" d="M 0 -0.000703 L -2 -0.000703 " transform="matrix(1.25,0,0,1.25,56.847656,52.196191)"/>
<path style="fill:none;stroke-width:0.6;stroke-linecap:butt;stroke-linejoin:round;stroke:rgb(0%,0%,0%);stroke-opacity:1;stroke-miterlimit:4;" d="M 0 -0.001027 L -2 -0.001027 " transform="matrix(1.25,0,0,1.25,56.847656,47.645815)"/>
<path style="fill:none;stroke-width:0.6;stroke-linecap:butt;stroke-linejoin:round;stroke:rgb(0%,0%,0%);stroke-opacity:1;stroke-miterlimit:4;" d="M 0 0.00144 L -2 0.00144 " transform="matrix(1.25,0,0,1.25,56.847656,43.927888)"/>
<path style="fill:none;stroke-width:0.6;stroke-linecap:butt;stroke-linejoin:round;stroke:rgb(0%,0%,0%);stroke-opacity:1;stroke-miterlimit:4;" d="M 0 0.000585 L -2 0.000585 " transform="matrix(1.25,0,0,1.25,56.847656,40.784425)"/>
<path style="fill:none;stroke-width:0.6;stroke-linecap:butt;stroke-linejoin:round;stroke:rgb(0%,0%,0%);stroke-opacity:1;stroke-miterlimit:4;" d="M 0 0.000853 L -2 0.000853 " transform="matrix(1.25,0,0,1.25,56.847656,38.061434)"/>
<path style="fill:none;stroke-width:0.6;stroke-linecap:butt;stroke-linejoin:round;stroke:rgb(0%,0%,0%);stroke-opacity:1;stroke-miterlimit:4;" d="M 0 0.000457 L -2 0.000457 " transform="matrix(1.25,0,0,1.25,56.847656,35.659585)"/>
<path style="fill:none;stroke-width:0.6;stroke-linecap:butt;stroke-linejoin:round;stroke:rgb(0%,0%,0%);stroke-opacity:1;stroke-miterlimit:4;" d="M 0 -0.001041 L -2 -0.001041 " transform="matrix(1.25,0,0,1.25,56.847656,19.376301)"/>
<path style="fill:none;stroke-width:0.6;stroke-linecap:butt;stroke-linejoin:round;stroke:rgb(0%,0%,0%);stroke-opacity:1;stroke-miterlimit:4;" d="M 0 0.001102 L -2 0.001102 " transform="matrix(1.25,0,0,1.25,56.847656,11.107997)"/>
<path style=" stroke:none;fill-rule:nonzero;fill:rgb(0%,0%,0%);fill-opacity:1;" d="M 9 138.507812 L 9.9375 138.507812 L 9.9375 139.582031 C 9.9375 139.984375 10.015625 140.265625 10.179688 140.421875 C 10.34375 140.578125 10.636719 140.65625 11.058594 140.65625 L 11.664062 140.65625 L 11.664062 138.808594 L 12.535156 138.808594 L 12.535156 140.65625 L 18.5 140.65625 L 18.5 141.785156 L 12.535156 141.785156 L 12.535156 142.859375 L 11.664062 142.859375 L 11.664062 141.785156 L 11.1875 141.785156 C 10.425781 141.785156 9.871094 141.609375 9.523438 141.253906 C 9.175781 140.898438 9 140.339844 9 139.570312 Z M 9 138.507812 "/>
<path style=" stroke:none;fill-rule:nonzero;fill:rgb(0%,0%,0%);fill-opacity:1;" d="M 12.710938 133.605469 C 12.636719 133.734375 12.585938 133.871094 12.550781 134.019531 C 12.515625 134.167969 12.5 134.332031 12.5 134.507812 C 12.5 135.144531 12.703125 135.632812 13.117188 135.972656 C 13.53125 136.3125 14.125 136.480469 14.898438 136.480469 L 18.5 136.480469 L 18.5 137.609375 L 11.664062 137.609375 L 11.664062 136.480469 L 12.726562 136.480469 C 12.308594 136.246094 12 135.9375 11.800781 135.558594 C 11.597656 135.179688 11.5 134.722656 11.5 134.179688 C 11.5 134.101562 11.503906 134.015625 11.515625 133.921875 C 11.523438 133.828125 11.539062 133.726562 11.558594 133.613281 Z M 12.710938 133.605469 "/>
<path style=" stroke:none;fill-rule:nonzero;fill:rgb(0%,0%,0%);fill-opacity:1;" d="M 14.800781 126.863281 L 15.347656 126.863281 L 15.347656 132.027344 C 16.121094 131.976562 16.710938 131.742188 17.117188 131.328125 C 17.519531 130.910156 17.722656 130.328125 17.722656 129.585938 C 17.722656 129.152344 17.671875 128.734375 17.566406 128.332031 C 17.460938 127.925781 17.300781 127.523438 17.089844 127.125 L 18.152344 127.125 C 18.320312 127.527344 18.453125 127.941406 18.542969 128.363281 C 18.632812 128.789062 18.675781 129.214844 18.675781 129.652344 C 18.675781 130.742188 18.359375 131.605469 17.726562 132.242188 C 17.089844 132.878906 16.230469 133.199219 15.148438 133.199219 C 14.027344 133.199219 13.140625 132.894531 12.484375 132.292969 C 11.828125 131.6875 11.5 130.871094 11.5 129.847656 C 11.5 128.925781 11.792969 128.199219 12.386719 127.664062 C 12.976562 127.128906 13.78125 126.863281 14.800781 126.863281 Z M 14.46875 127.984375 C 13.855469 127.992188 13.367188 128.164062 13 128.5 C 12.632812 128.835938 12.449219 129.28125 12.449219 129.835938 C 12.449219 130.460938 12.625 130.960938 12.980469 131.339844 C 13.335938 131.714844 13.832031 131.933594 14.476562 131.988281 Z M 14.46875 127.984375 "/>
<path style=" stroke:none;fill-rule:nonzero;fill:rgb(0%,0%,0%);fill-opacity:1;" d="M 15.085938 124.347656 C 15.910156 124.347656 16.558594 124.179688 17.03125 123.839844 C 17.5 123.5 17.734375 123.03125 17.734375 122.4375 C 17.734375 121.84375 17.5 121.375 17.03125 121.035156 C 16.558594 120.691406 15.910156 120.523438 15.085938 120.523438 C 14.261719 120.523438 13.613281 120.691406 13.144531 121.035156 C 12.671875 121.375 12.4375 121.84375 12.4375 122.4375 C 12.4375 123.03125 12.671875 123.5 13.144531 123.839844 C 13.613281 124.179688 14.261719 124.347656 15.085938 124.347656 Z M 17.472656 120.523438 C 17.878906 120.757812 18.179688 121.054688 18.378906 121.417969 C 18.578125 121.777344 18.675781 122.207031 18.675781 122.714844 C 18.675781 123.539062 18.347656 124.210938 17.6875 124.730469 C 17.027344 125.25 16.160156 125.507812 15.085938 125.507812 C 14.011719 125.507812 13.144531 125.25 12.488281 124.730469 C 11.828125 124.210938 11.5 123.539062 11.5 122.714844 C 11.5 122.207031 11.597656 121.777344 11.796875 121.417969 C 11.992188 121.054688 12.292969 120.757812 12.699219 120.523438 L 11.664062 120.523438 L 11.664062 119.398438 L 21.097656 119.398438 L 21.097656 120.523438 Z M 17.472656 120.523438 "/>
<path style=" stroke:none;fill-rule:nonzero;fill:rgb(0%,0%,0%);fill-opacity:1;" d="M 15.800781 117.199219 L 11.664062 117.199219 L 11.664062 116.078125 L 15.757812 116.078125 C 16.40625 116.078125 16.890625 115.953125 17.214844 115.699219 C 17.539062 115.449219 17.699219 115.070312 17.699219 114.5625 C 17.699219 113.957031 17.507812 113.480469 17.121094 113.128906 C 16.734375 112.773438 16.207031 112.597656 15.539062 112.597656 L 11.664062 112.597656 L 11.664062 111.476562 L 18.5 111.476562 L 18.5 112.597656 L 17.449219 112.597656 C 17.863281 112.871094 18.171875 113.1875 18.375 113.546875 C 18.574219 113.90625 18.675781 114.324219 18.675781 114.800781 C 18.675781 115.585938 18.433594 116.183594 17.945312 116.589844 C 17.457031 116.996094 16.742188 117.199219 15.800781 117.199219 Z M 11.5 114.375 Z M 11.5 114.375 "/>
<path style=" stroke:none;fill-rule:nonzero;fill:rgb(0%,0%,0%);fill-opacity:1;" d="M 14.800781 103.316406 L 15.347656 103.316406 L 15.347656 108.480469 C 16.121094 108.429688 16.710938 108.195312 17.117188 107.78125 C 17.519531 107.363281 17.722656 106.78125 17.722656 106.039062 C 17.722656 105.605469 17.671875 105.1875 17.566406 104.785156 C 17.460938 104.378906 17.300781 103.976562 17.089844 103.578125 L 18.152344 103.578125 C 18.320312 103.980469 18.453125 104.394531 18.542969 104.816406 C 18.632812 105.242188 18.675781 105.667969 18.675781 106.105469 C 18.675781 107.195312 18.359375 108.058594 17.726562 108.695312 C 17.089844 109.332031 16.230469 109.652344 15.148438 109.652344 C 14.027344 109.652344 13.140625 109.347656 12.484375 108.746094 C 11.828125 108.140625 11.5 107.324219 11.5 106.300781 C 11.5 105.378906 11.792969 104.652344 12.386719 104.117188 C 12.976562 103.582031 13.78125 103.316406 14.800781 103.316406 Z M 14.46875 104.4375 C 13.855469 104.445312 13.367188 104.617188 13 104.953125 C 12.632812 105.289062 12.449219 105.734375 12.449219 106.289062 C 12.449219 106.914062 12.625 107.414062 12.980469 107.792969 C 13.335938 108.167969 13.832031 108.386719 14.476562 108.441406 Z M 14.46875 104.4375 "/>
<path style=" stroke:none;fill-rule:nonzero;fill:rgb(0%,0%,0%);fill-opacity:1;" d="M 14.371094 95.789062 L 18.5 95.789062 L 18.5 96.910156 L 14.410156 96.910156 C 13.761719 96.910156 13.277344 97.039062 12.957031 97.289062 C 12.636719 97.542969 12.476562 97.921875 12.476562 98.425781 C 12.476562 99.03125 12.667969 99.511719 13.054688 99.859375 C 13.441406 100.210938 13.96875 100.386719 14.636719 100.386719 L 18.5 100.386719 L 18.5 101.515625 L 11.664062 101.515625 L 11.664062 100.386719 L 12.726562 100.386719 C 12.3125 100.117188 12.007812 99.800781 11.804688 99.4375 C 11.601562 99.074219 11.5 98.652344 11.5 98.175781 C 11.5 97.390625 11.742188 96.796875 12.226562 96.394531 C 12.710938 95.992188 13.425781 95.789062 14.371094 95.789062 Z M 14.371094 95.789062 "/>
<path style=" stroke:none;fill-rule:nonzero;fill:rgb(0%,0%,0%);fill-opacity:1;" d="M 11.925781 88.628906 L 12.976562 88.628906 C 12.800781 88.949219 12.667969 89.265625 12.582031 89.585938 C 12.492188 89.902344 12.449219 90.226562 12.449219 90.550781 C 12.449219 91.28125 12.679688 91.847656 13.144531 92.25 C 13.605469 92.652344 14.25 92.855469 15.085938 92.855469 C 15.921875 92.855469 16.570312 92.652344 17.03125 92.25 C 17.492188 91.847656 17.722656 91.28125 17.722656 90.550781 C 17.722656 90.226562 17.679688 89.902344 17.59375 89.585938 C 17.503906 89.265625 17.375 88.949219 17.199219 88.628906 L 18.238281 88.628906 C 18.382812 88.945312 18.492188 89.269531 18.566406 89.605469 C 18.640625 89.9375 18.675781 90.296875 18.675781 90.675781 C 18.675781 91.703125 18.351562 92.523438 17.707031 93.128906 C 17.058594 93.734375 16.183594 94.039062 15.085938 94.039062 C 13.972656 94.039062 13.09375 93.730469 12.457031 93.121094 C 11.816406 92.507812 11.5 91.667969 11.5 90.601562 C 11.5 90.253906 11.535156 89.917969 11.605469 89.589844 C 11.675781 89.257812 11.78125 88.941406 11.925781 88.628906 Z M 11.925781 88.628906 "/>
<path style=" stroke:none;fill-rule:nonzero;fill:rgb(0%,0%,0%);fill-opacity:1;" d="M 19.132812 83.832031 C 19.945312 84.148438 20.476562 84.460938 20.726562 84.761719 C 20.972656 85.0625 21.097656 85.464844 21.097656 85.96875 L 21.097656 86.867188 L 20.160156 86.867188 L 20.160156 86.207031 C 20.160156 85.898438 20.085938 85.660156 19.9375 85.488281 C 19.792969 85.316406 19.445312 85.125 18.902344 84.917969 L 18.390625 84.71875 L 11.664062 87.480469 L 11.664062 86.292969 L 17.007812 84.15625 L 11.664062 82.019531 L 11.664062 80.828125 Z M 19.132812 83.832031 "/>
<path style=" stroke:none;fill-rule:nonzero;fill:rgb(0%,0%,0%);fill-opacity:1;" d="M 16.949219 79.898438 L 16.949219 78.613281 L 18.5 78.613281 L 18.5 79.898438 Z M 12.035156 79.898438 L 12.035156 78.613281 L 13.585938 78.613281 L 13.585938 79.898438 Z M 12.035156 79.898438 "/>
<path style=" stroke:none;fill-rule:nonzero;fill:rgb(0%,0%,0%);fill-opacity:1;" d="M 14.371094 66.316406 L 18.5 66.316406 L 18.5 67.441406 L 14.410156 67.441406 C 13.761719 67.441406 13.277344 67.566406 12.957031 67.820312 C 12.636719 68.074219 12.476562 68.449219 12.476562 68.953125 C 12.476562 69.5625 12.667969 70.039062 13.054688 70.390625 C 13.441406 70.742188 13.96875 70.914062 14.636719 70.914062 L 18.5 70.914062 L 18.5 72.042969 L 11.664062 72.042969 L 11.664062 70.914062 L 12.726562 70.914062 C 12.3125 70.644531 12.007812 70.328125 11.804688 69.964844 C 11.601562 69.601562 11.5 69.179688 11.5 68.703125 C 11.5 67.917969 11.742188 67.324219 12.226562 66.921875 C 12.710938 66.519531 13.425781 66.316406 14.371094 66.316406 Z M 14.371094 66.316406 "/>
<path style=" stroke:none;fill-rule:nonzero;fill:rgb(0%,0%,0%);fill-opacity:1;" d="M 9.015625 61.382812 C 9.949219 61.925781 10.875 62.332031 11.792969 62.597656 C 12.707031 62.859375 13.632812 62.992188 14.574219 62.992188 C 15.511719 62.992188 16.445312 62.859375 17.367188 62.59375 C 18.289062 62.324219 19.214844 61.921875 20.148438 61.382812 L 20.148438 62.359375 C 19.191406 62.96875 18.25 63.425781 17.328125 63.726562 C 16.402344 64.03125 15.484375 64.183594 14.574219 64.183594 C 13.667969 64.183594 12.753906 64.03125 11.835938 63.730469 C 10.914062 63.429688 9.972656 62.972656 9.015625 62.359375 Z M 9.015625 61.382812 "/>
<path style=" stroke:none;fill-rule:nonzero;fill:rgb(0%,0%,0%);fill-opacity:1;" d="M 11.664062 53.519531 L 14.988281 55.992188 L 18.5 53.390625 L 18.5 54.714844 L 15.8125 56.707031 L 18.5 58.695312 L 18.5 60.019531 L 14.921875 57.363281 L 11.664062 59.792969 L 11.664062 58.46875 L 14.097656 56.65625 L 11.664062 54.84375 Z M 11.664062 53.519531 "/>
<path style=" stroke:none;fill-rule:nonzero;fill:rgb(0%,0%,0%);fill-opacity:1;" d="M 9.015625 51.980469 L 9.015625 51.003906 C 9.972656 50.394531 10.914062 49.9375 11.835938 49.636719 C 12.753906 49.332031 13.667969 49.179688 14.574219 49.179688 C 15.484375 49.179688 16.402344 49.332031 17.328125 49.636719 C 18.25 49.9375 19.191406 50.394531 20.148438 51.003906 L 20.148438 51.980469 C 19.214844 51.441406 18.289062 51.035156 17.367188 50.769531 C 16.445312 50.503906 15.511719 50.371094 14.574219 50.371094 C 13.632812 50.371094 12.707031 50.503906 11.792969 50.769531 C 10.875 51.035156 9.949219 51.441406 9.015625 51.980469 Z M 9.015625 51.980469 "/>
<g clip-path="url(#clip9)" clip-rule="nonzero">
<path style="fill:none;stroke-width:1.5;stroke-linecap:square;stroke-linejoin:round;stroke:rgb(12.156863%,46.666667%,70.588235%);stroke-opacity:1;stroke-miterlimit:4;" d="M -1 22.9375 L 54.35625 22.946875 L 68.95625 23.234375 L 77.496875 24.459375 L 83.55625 30.125 L 88.25625 32.74375 L 92.096875 36.503125 L 95.34375 36.83125 L 98.15625 40.090625 L 102.85625 40.3125 L 104.8625 43.75 L 106.696875 47.51875 L 108.38125 48.16875 L 111.396875 51.434375 L 112.75625 51.809375 L 114.034375 52.740625 L 115.2375 53.065625 L 116.375 56.909375 L 117.45625 57.540625 L 118.484375 59.2375 L 119.4625 59.2375 L 120.4 59.596875 L 121.296875 60.21875 L 122.15625 60.471875 L 122.98125 60.996875 L 123.778125 61.128125 L 125.28125 61.128125 L 126.6875 61.671875 L 127.35625 62.234375 L 128.003125 62.234375 L 128.634375 62.378125 L 129.24375 62.378125 L 129.8375 62.525 L 130.415625 63.421875 L 130.975 63.578125 L 131.521875 63.890625 L 132.05625 65.38125 L 133.084375 65.734375 L 133.58125 65.734375 L 134.0625 65.9125 L 134.5375 66.275 L 136.33125 67.025 L 137.175 67.025 L 137.584375 67.215625 L 137.984375 67.215625 L 138.378125 67.609375 L 139.14375 68.6375 L 139.515625 69.065625 L 139.884375 69.284375 L 140.596875 69.284375 L 141.95625 70.190625 L 142.603125 70.190625 L 142.921875 70.425 L 143.234375 71.15 L 143.540625 72.171875 L 144.4375 72.98125 L 144.728125 72.98125 L 145.015625 73.54375 L 145.575 73.54375 L 145.853125 74.125 L 146.121875 74.425 L 146.390625 74.425 L 147.684375 76.009375 L 148.903125 76.009375 L 149.1375 76.346875 L 149.371875 76.346875 L 149.6 76.690625 L 149.828125 76.690625 L 150.053125 77.040625 L 150.715625 77.040625 L 150.93125 77.4 L 151.14375 77.4 L 151.565625 78.140625 L 151.978125 78.140625 L 152.184375 78.525 L 152.384375 78.525 L 152.78125 79.321875 L 153.365625 79.321875 L 153.74375 80.15625 L 153.93125 80.15625 L 154.115625 80.59375 L 154.84375 80.59375 L 155.021875 81.040625 L 155.8875 81.040625 L 156.05625 81.5 L 156.721875 81.5 L 156.884375 81.971875 L 157.678125 81.971875 L 157.834375 82.459375 L 158.140625 82.459375 L 158.29375 82.9625 L 158.890625 82.9625 L 159.0375 83.478125 L 159.328125 83.478125 L 159.471875 84.0125 L 159.75625 84.0125 L 159.896875 84.565625 L 160.0375 84.565625 L 160.175 85.140625 L 160.859375 85.140625 L 160.990625 85.73125 L 161.51875 85.73125 L 161.646875 86.346875 L 162.409375 86.346875 L 162.534375 86.9875 L 162.903125 86.9875 L 163.025 87.653125 L 163.503125 87.653125 L 163.621875 88.35 L 164.2 88.35 L 164.315625 89.075 L 165.425 89.075 L 165.6375 89.83125 L 166.375 89.83125 L 166.578125 90.628125 L 167.675 90.628125 L 167.86875 91.465625 L 168.715625 91.465625 L 168.9 92.346875 L 169.175 92.346875 L 169.353125 93.28125 L 169.971875 93.28125 L 170.146875 94.26875 L 171.484375 94.26875 L 171.64375 95.321875 L 172.434375 95.321875 L 172.5875 96.446875 L 173.490625 96.446875 L 173.6375 97.65625 L 175.25625 97.65625 L 175.390625 98.9625 L 176.378125 98.9625 L 176.50625 100.38125 L 178.3375 100.38125 L 178.453125 101.9375 L 180.453125 101.9375 L 180.609375 103.65625 L 182.421875 103.65625 L 182.565625 105.578125 L 185.25625 105.578125 L 185.384375 107.75625 L 188.528125 107.75625 L 188.671875 110.26875 L 191.671875 110.26875 L 191.796875 113.24375 L 195.753125 113.24375 L 195.88125 116.884375 L 200.725 116.884375 L 200.84375 121.578125 L 207.2125 121.578125 L 207.33125 128.19375 L 216.28125 128.19375 L 216.396875 139.5 L 231.9 139.5 " transform="matrix(1.25,0,0,1.25,0,0)"/>
</g>
<path style="fill:none;stroke-width:0.8;stroke-linecap:square;stroke-linejoin:miter;stroke:rgb(0%,0%,0%);stroke-opacity:1;stroke-miterlimit:4;" d="M 45.478125 145.8 L 45.478125 7.2 " transform="matrix(1.25,0,0,1.25,0,0)"/>
<path style="fill:none;stroke-width:0.8;stroke-linecap:square;stroke-linejoin:miter;stroke:rgb(0%,0%,0%);stroke-opacity:1;stroke-miterlimit:4;" d="M 240.778125 145.8 L 240.778125 7.2 " transform="matrix(1.25,0,0,1.25,0,0)"/>
<path style="fill:none;stroke-width:0.8;stroke-linecap:square;stroke-linejoin:miter;stroke:rgb(0%,0%,0%);stroke-opacity:1;stroke-miterlimit:4;" d="M 45.478125 145.8 L 240.778125 145.8 " transform="matrix(1.25,0,0,1.25,0,0)"/>
<path style="fill:none;stroke-width:0.8;stroke-linecap:square;stroke-linejoin:miter;stroke:rgb(0%,0%,0%);stroke-opacity:1;stroke-miterlimit:4;" d="M 45.478125 7.2 L 240.778125 7.2 " transform="matrix(1.25,0,0,1.25,0,0)"/>
</g>
</svg>
