<?xml version="1.0" encoding="UTF-8"?>
<svg xmlns="http://www.w3.org/2000/svg" xmlns:xlink="http://www.w3.org/1999/xlink" width="333pt" height="234pt" viewBox="0 0 333 234" version="1.1">
<defs>
<clipPath id="clip1">
  <path d="M 104 13.75 L 106 13.75 L 106 187 L 104 187 Z M 104 13.75 "/>
</clipPath>
<clipPath id="clip2">
  <path d="M 144 13.75 L 147 13.75 L 147 187 L 144 187 Z M 144 13.75 "/>
</clipPath>
<clipPath id="clip3">
  <path d="M 185 13.75 L 187 13.75 L 187 187 L 185 187 Z M 185 13.75 "/>
</clipPath>
<clipPath id="clip4">
  <path d="M 226 13.75 L 228 13.75 L 228 187 L 226 187 Z M 226 13.75 "/>
</clipPath>
<clipPath id="clip5">
  <path d="M 266 13.75 L 269 13.75 L 269 187 L 266 187 Z M 266 13.75 "/>
</clipPath>
<clipPath id="clip6">
  <path d="M 307 13.75 L 308.347656 13.75 L 308.347656 187 L 307 187 Z M 307 13.75 "/>
</clipPath>
<clipPath id="clip7">
  <path d="M 64.222656 186 L 308.347656 186 L 308.347656 187 L 64.222656 187 Z M 64.222656 186 "/>
</clipPath>
<clipPath id="clip8">
  <path d="M 64.222656 151 L 308.347656 151 L 308.347656 154 L 64.222656 154 Z M 64.222656 151 "/>
</clipPath>
<clipPath id="clip9">
  <path d="M 64.222656 116 L 308.347656 116 L 308.347656 119 L 64.222656 119 Z M 64.222656 116 "/>
</clipPath>
<clipPath id="clip10">
  <path d="M 64.222656 82 L 308.347656 82 L 308.347656 84 L 64.222656 84 Z M 64.222656 82 "/>
</clipPath>
<clipPath id="clip11">
  <path d="M 64.222656 47 L 308.347656 47 L 308.347656 50 L 64.222656 50 Z M 64.222656 47 "/>
</clipPath>
<clipPath id="clip12">
  <path d="M 64.222656 13.75 L 308.347656 13.75 L 308.347656 15 L 64.222656 15 Z M 64.222656 13.75 "/>
</clipPath>
<clipPath id="clip13">
  <path d="M 64.222656 39 L 308.347656 39 L 308.347656 163 L 64.222656 163 Z M 64.222656 39 "/>
</clipPath>
<clipPath id="clip14">
  <path d="M 64.222656 34 L 308.347656 34 L 308.347656 139 L 64.222656 139 Z M 64.222656 34 "/>
</clipPath>
<filter id="alpha" filterUnits="objectBoundingBox" x="0%" y="0%" width="100%" height="100%">
  <feColorMatrix type="matrix" in="SourceGraphic" values="0 0 0 0 1 0 0 0 0 1 0 0 0 0 1 0 0 0 1 0"/>
</filter>
<mask id="mask0">
  <g filter="url(#alpha)">
<rect x="0" y="0" width="333" height="234" style="fill:rgb(0%,0%,0%);fill-opacity:0.8;stroke:none;"/>
  </g>
</mask>
<clipPath id="clip15">
  <rect x="0" y="0" width="333" height="234"/>
</clipPath>
<g id="surface5" clip-path="url(#clip15)">
<path style="fill-rule:nonzero;fill:rgb(100%,100%,100%);fill-opacity:1;stroke-width:1;stroke-linecap:butt;stroke-linejoin:miter;stroke:rgb(80%,80%,80%);stroke-opacity:1;stroke-miterlimit:4;" d="M 184.403125 48.35625 L 239.678125 48.35625 C 241.0125 48.35625 241.678125 47.6875 241.678125 46.35625 L 241.678125 18 C 241.678125 16.665625 241.0125 16 239.678125 16 L 184.403125 16 C 183.06875 16 182.403125 16.665625 182.403125 18 L 182.403125 46.35625 C 182.403125 47.6875 183.06875 48.35625 184.403125 48.35625 Z M 184.403125 48.35625 " transform="matrix(1.25,0,0,1.25,0,0)"/>
</g>
</defs>
<g id="surface1">
<path style=" stroke:none;fill-rule:nonzero;fill:rgb(100%,100%,100%);fill-opacity:1;" d="M 0 233.945312 L 333.253906 233.945312 L 333.253906 0 L 0 0 Z M 0 233.945312 "/>
<path style=" stroke:none;fill-rule:nonzero;fill:rgb(100%,100%,100%);fill-opacity:1;" d="M 64.222656 187 L 308.347656 187 L 308.347656 13.75 L 64.222656 13.75 Z M 64.222656 187 "/>
<g clip-path="url(#clip1)" clip-rule="nonzero">
<path style="fill:none;stroke-width:0.8;stroke-linecap:square;stroke-linejoin:round;stroke:rgb(69.019608%,69.019608%,69.019608%);stroke-opacity:1;stroke-miterlimit:4;" d="M 83.81875 149.6 L 83.81875 11 " transform="matrix(1.25,0,0,1.25,0,0)"/>
</g>
<path style="fill:none;stroke-width:0.8;stroke-linecap:butt;stroke-linejoin:round;stroke:rgb(0%,0%,0%);stroke-opacity:1;stroke-miterlimit:4;" d="M -0.000803 0.000781 L -0.000803 3.500781 " transform="matrix(1.25,0,0,1.25,104.774441,186.999024)"/>
<path style=" stroke:none;fill-rule:nonzero;fill:rgb(0%,0%,0%);fill-opacity:1;" d="M 95.242188 204.210938 L 99.546875 204.210938 L 99.546875 205.246094 L 93.761719 205.246094 L 93.761719 204.210938 C 94.226562 203.726562 94.867188 203.074219 95.671875 202.261719 C 96.480469 201.445312 96.988281 200.917969 97.195312 200.679688 C 97.589844 200.238281 97.867188 199.863281 98.023438 199.554688 C 98.179688 199.25 98.257812 198.945312 98.257812 198.648438 C 98.257812 198.164062 98.089844 197.769531 97.75 197.464844 C 97.410156 197.160156 96.964844 197.007812 96.421875 197.007812 C 96.035156 197.007812 95.625 197.074219 95.195312 197.207031 C 94.769531 197.34375 94.308594 197.546875 93.820312 197.820312 L 93.820312 196.574219 C 94.316406 196.375 94.78125 196.222656 95.210938 196.121094 C 95.644531 196.019531 96.039062 195.96875 96.398438 195.96875 C 97.339844 195.96875 98.09375 196.207031 98.65625 196.679688 C 99.214844 197.148438 99.496094 197.78125 99.496094 198.570312 C 99.496094 198.945312 99.425781 199.300781 99.285156 199.636719 C 99.148438 199.96875 98.890625 200.367188 98.519531 200.820312 C 98.417969 200.941406 98.09375 201.28125 97.550781 201.84375 C 97.003906 202.410156 96.238281 203.195312 95.242188 204.210938 Z M 95.242188 204.210938 "/>
<path style=" stroke:none;fill-rule:nonzero;fill:rgb(0%,0%,0%);fill-opacity:1;" d="M 102.148438 196.132812 L 106.988281 196.132812 L 106.988281 197.171875 L 103.277344 197.171875 L 103.277344 199.40625 C 103.453125 199.34375 103.632812 199.296875 103.8125 199.269531 C 103.992188 199.238281 104.171875 199.222656 104.351562 199.222656 C 105.367188 199.222656 106.171875 199.503906 106.765625 200.058594 C 107.363281 200.617188 107.660156 201.371094 107.660156 202.324219 C 107.660156 203.304688 107.355469 204.066406 106.742188 204.609375 C 106.132812 205.152344 105.273438 205.425781 104.160156 205.425781 C 103.777344 205.425781 103.386719 205.390625 102.992188 205.328125 C 102.59375 205.261719 102.1875 205.164062 101.761719 205.035156 L 101.761719 203.792969 C 102.128906 203.992188 102.507812 204.140625 102.898438 204.238281 C 103.289062 204.335938 103.699219 204.386719 104.136719 204.386719 C 104.839844 204.386719 105.398438 204.199219 105.808594 203.832031 C 106.21875 203.460938 106.425781 202.957031 106.425781 202.324219 C 106.425781 201.6875 106.21875 201.1875 105.808594 200.816406 C 105.398438 200.445312 104.839844 200.261719 104.136719 200.261719 C 103.804688 200.261719 103.476562 200.296875 103.148438 200.371094 C 102.824219 200.441406 102.488281 200.558594 102.148438 200.710938 Z M 102.148438 196.132812 "/>
<path style=" stroke:none;fill-rule:nonzero;fill:rgb(0%,0%,0%);fill-opacity:1;" d="M 112.722656 196.945312 C 112.089844 196.945312 111.613281 197.257812 111.292969 197.882812 C 110.972656 198.507812 110.8125 199.445312 110.8125 200.699219 C 110.8125 201.949219 110.972656 202.886719 111.292969 203.511719 C 111.613281 204.136719 112.089844 204.449219 112.722656 204.449219 C 113.363281 204.449219 113.839844 204.136719 114.160156 203.511719 C 114.480469 202.886719 114.640625 201.949219 114.640625 200.699219 C 114.640625 199.445312 114.480469 198.507812 114.160156 197.882812 C 113.839844 197.257812 113.363281 196.945312 112.722656 196.945312 Z M 112.722656 195.96875 C 113.746094 195.96875 114.527344 196.375 115.066406 197.183594 C 115.605469 197.988281 115.875 199.164062 115.875 200.699219 C 115.875 202.234375 115.605469 203.40625 115.066406 204.214844 C 114.527344 205.019531 113.746094 205.425781 112.722656 205.425781 C 111.703125 205.425781 110.921875 205.019531 110.382812 204.214844 C 109.84375 203.40625 109.574219 202.234375 109.574219 200.699219 C 109.574219 199.164062 109.84375 197.988281 110.382812 197.183594 C 110.921875 196.375 111.703125 195.96875 112.722656 195.96875 Z M 112.722656 195.96875 "/>
<g clip-path="url(#clip2)" clip-rule="nonzero">
<path style="fill:none;stroke-width:0.8;stroke-linecap:square;stroke-linejoin:round;stroke:rgb(69.019608%,69.019608%,69.019608%);stroke-opacity:1;stroke-miterlimit:4;" d="M 116.390625 149.6 L 116.390625 11 " transform="matrix(1.25,0,0,1.25,0,0)"/>
</g>
<path style="fill:none;stroke-width:0.8;stroke-linecap:butt;stroke-linejoin:round;stroke:rgb(0%,0%,0%);stroke-opacity:1;stroke-miterlimit:4;" d="M -0.000642 0.000781 L -0.000642 3.500781 " transform="matrix(1.25,0,0,1.25,145.489084,186.999024)"/>
<path style=" stroke:none;fill-rule:nonzero;fill:rgb(0%,0%,0%);fill-opacity:1;" d="M 134.910156 196.132812 L 139.75 196.132812 L 139.75 197.171875 L 136.039062 197.171875 L 136.039062 199.40625 C 136.214844 199.34375 136.394531 199.296875 136.574219 199.269531 C 136.753906 199.238281 136.933594 199.222656 137.113281 199.222656 C 138.128906 199.222656 138.933594 199.503906 139.527344 200.058594 C 140.125 200.617188 140.421875 201.371094 140.421875 202.324219 C 140.421875 203.304688 140.117188 204.066406 139.503906 204.609375 C 138.894531 205.152344 138.035156 205.425781 136.921875 205.425781 C 136.539062 205.425781 136.148438 205.390625 135.753906 205.328125 C 135.355469 205.261719 134.949219 205.164062 134.523438 205.035156 L 134.523438 203.792969 C 134.890625 203.992188 135.269531 204.140625 135.660156 204.238281 C 136.050781 204.335938 136.460938 204.386719 136.898438 204.386719 C 137.601562 204.386719 138.160156 204.199219 138.570312 203.832031 C 138.980469 203.460938 139.1875 202.957031 139.1875 202.324219 C 139.1875 201.6875 138.980469 201.1875 138.570312 200.816406 C 138.160156 200.445312 137.601562 200.261719 136.898438 200.261719 C 136.566406 200.261719 136.238281 200.296875 135.910156 200.371094 C 135.585938 200.441406 135.25 200.558594 134.910156 200.710938 Z M 134.910156 196.132812 "/>
<path style=" stroke:none;fill-rule:nonzero;fill:rgb(0%,0%,0%);fill-opacity:1;" d="M 145.484375 196.945312 C 144.851562 196.945312 144.375 197.257812 144.054688 197.882812 C 143.734375 198.507812 143.574219 199.445312 143.574219 200.699219 C 143.574219 201.949219 143.734375 202.886719 144.054688 203.511719 C 144.375 204.136719 144.851562 204.449219 145.484375 204.449219 C 146.125 204.449219 146.601562 204.136719 146.921875 203.511719 C 147.242188 202.886719 147.402344 201.949219 147.402344 200.699219 C 147.402344 199.445312 147.242188 198.507812 146.921875 197.882812 C 146.601562 197.257812 146.125 196.945312 145.484375 196.945312 Z M 145.484375 195.96875 C 146.507812 195.96875 147.289062 196.375 147.828125 197.183594 C 148.367188 197.988281 148.636719 199.164062 148.636719 200.699219 C 148.636719 202.234375 148.367188 203.40625 147.828125 204.214844 C 147.289062 205.019531 146.507812 205.425781 145.484375 205.425781 C 144.464844 205.425781 143.683594 205.019531 143.144531 204.214844 C 142.605469 203.40625 142.335938 202.234375 142.335938 200.699219 C 142.335938 199.164062 142.605469 197.988281 143.144531 197.183594 C 143.683594 196.375 144.464844 195.96875 145.484375 195.96875 Z M 145.484375 195.96875 "/>
<path style=" stroke:none;fill-rule:nonzero;fill:rgb(0%,0%,0%);fill-opacity:1;" d="M 153.4375 196.945312 C 152.804688 196.945312 152.328125 197.257812 152.007812 197.882812 C 151.6875 198.507812 151.527344 199.445312 151.527344 200.699219 C 151.527344 201.949219 151.6875 202.886719 152.007812 203.511719 C 152.328125 204.136719 152.804688 204.449219 153.4375 204.449219 C 154.078125 204.449219 154.554688 204.136719 154.875 203.511719 C 155.195312 202.886719 155.355469 201.949219 155.355469 200.699219 C 155.355469 199.445312 155.195312 198.507812 154.875 197.882812 C 154.554688 197.257812 154.078125 196.945312 153.4375 196.945312 Z M 153.4375 195.96875 C 154.460938 195.96875 155.242188 196.375 155.78125 197.183594 C 156.320312 197.988281 156.589844 199.164062 156.589844 200.699219 C 156.589844 202.234375 156.320312 203.40625 155.78125 204.214844 C 155.242188 205.019531 154.460938 205.425781 153.4375 205.425781 C 152.417969 205.425781 151.636719 205.019531 151.097656 204.214844 C 150.558594 203.40625 150.289062 202.234375 150.289062 200.699219 C 150.289062 199.164062 150.558594 197.988281 151.097656 197.183594 C 151.636719 196.375 152.417969 195.96875 153.4375 195.96875 Z M 153.4375 195.96875 "/>
<g clip-path="url(#clip3)" clip-rule="nonzero">
<path style="fill:none;stroke-width:0.8;stroke-linecap:square;stroke-linejoin:round;stroke:rgb(69.019608%,69.019608%,69.019608%);stroke-opacity:1;stroke-miterlimit:4;" d="M 148.9625 149.6 L 148.9625 11 " transform="matrix(1.25,0,0,1.25,0,0)"/>
</g>
<path style="fill:none;stroke-width:0.8;stroke-linecap:butt;stroke-linejoin:round;stroke:rgb(0%,0%,0%);stroke-opacity:1;stroke-miterlimit:4;" d="M -0.000482 0.000781 L -0.000482 3.500781 " transform="matrix(1.25,0,0,1.25,186.203728,186.999024)"/>
<path style=" stroke:none;fill-rule:nonzero;fill:rgb(0%,0%,0%);fill-opacity:1;" d="M 175.300781 196.132812 L 181.160156 196.132812 L 181.160156 196.660156 L 177.851562 205.246094 L 176.5625 205.246094 L 179.675781 197.171875 L 175.300781 197.171875 Z M 175.300781 196.132812 "/>
<path style=" stroke:none;fill-rule:nonzero;fill:rgb(0%,0%,0%);fill-opacity:1;" d="M 183.578125 196.132812 L 188.417969 196.132812 L 188.417969 197.171875 L 184.707031 197.171875 L 184.707031 199.40625 C 184.882812 199.34375 185.0625 199.296875 185.242188 199.269531 C 185.421875 199.238281 185.601562 199.222656 185.78125 199.222656 C 186.796875 199.222656 187.601562 199.503906 188.195312 200.058594 C 188.789062 200.617188 189.089844 201.371094 189.089844 202.324219 C 189.089844 203.304688 188.78125 204.066406 188.171875 204.609375 C 187.5625 205.152344 186.699219 205.425781 185.589844 205.425781 C 185.207031 205.425781 184.816406 205.390625 184.421875 205.328125 C 184.023438 205.261719 183.613281 205.164062 183.191406 205.035156 L 183.191406 203.792969 C 183.558594 203.992188 183.9375 204.140625 184.328125 204.238281 C 184.71875 204.335938 185.128906 204.386719 185.566406 204.386719 C 186.269531 204.386719 186.828125 204.199219 187.238281 203.832031 C 187.648438 203.460938 187.855469 202.957031 187.855469 202.324219 C 187.855469 201.6875 187.648438 201.1875 187.238281 200.816406 C 186.828125 200.445312 186.269531 200.261719 185.566406 200.261719 C 185.234375 200.261719 184.90625 200.296875 184.578125 200.371094 C 184.25 200.441406 183.917969 200.558594 183.578125 200.710938 Z M 183.578125 196.132812 "/>
<path style=" stroke:none;fill-rule:nonzero;fill:rgb(0%,0%,0%);fill-opacity:1;" d="M 194.152344 196.945312 C 193.519531 196.945312 193.042969 197.257812 192.722656 197.882812 C 192.402344 198.507812 192.242188 199.445312 192.242188 200.699219 C 192.242188 201.949219 192.402344 202.886719 192.722656 203.511719 C 193.042969 204.136719 193.519531 204.449219 194.152344 204.449219 C 194.792969 204.449219 195.269531 204.136719 195.589844 203.511719 C 195.910156 202.886719 196.070312 201.949219 196.070312 200.699219 C 196.070312 199.445312 195.910156 198.507812 195.589844 197.882812 C 195.269531 197.257812 194.792969 196.945312 194.152344 196.945312 Z M 194.152344 195.96875 C 195.175781 195.96875 195.957031 196.375 196.496094 197.183594 C 197.035156 197.988281 197.304688 199.164062 197.304688 200.699219 C 197.304688 202.234375 197.035156 203.40625 196.496094 204.214844 C 195.957031 205.019531 195.175781 205.425781 194.152344 205.425781 C 193.132812 205.425781 192.351562 205.019531 191.8125 204.214844 C 191.273438 203.40625 191.003906 202.234375 191.003906 200.699219 C 191.003906 199.164062 191.273438 197.988281 191.8125 197.183594 C 192.351562 196.375 193.132812 195.96875 194.152344 195.96875 Z M 194.152344 195.96875 "/>
<g clip-path="url(#clip4)" clip-rule="nonzero">
<path style="fill:none;stroke-width:0.8;stroke-linecap:square;stroke-linejoin:round;stroke:rgb(69.019608%,69.019608%,69.019608%);stroke-opacity:1;stroke-miterlimit:4;" d="M 181.534375 149.6 L 181.534375 11 " transform="matrix(1.25,0,0,1.25,0,0)"/>
</g>
<path style="fill:none;stroke-width:0.8;stroke-linecap:butt;stroke-linejoin:round;stroke:rgb(0%,0%,0%);stroke-opacity:1;stroke-miterlimit:4;" d="M -0.000321 0.000781 L -0.000321 3.500781 " transform="matrix(1.25,0,0,1.25,226.91837,186.999024)"/>
<path style=" stroke:none;fill-rule:nonzero;fill:rgb(0%,0%,0%);fill-opacity:1;" d="M 212.5625 204.210938 L 214.578125 204.210938 L 214.578125 197.257812 L 212.386719 197.695312 L 212.386719 196.574219 L 214.566406 196.132812 L 215.796875 196.132812 L 215.796875 204.210938 L 217.8125 204.210938 L 217.8125 205.246094 L 212.5625 205.246094 Z M 212.5625 204.210938 "/>
<path style=" stroke:none;fill-rule:nonzero;fill:rgb(0%,0%,0%);fill-opacity:1;" d="M 222.9375 196.945312 C 222.304688 196.945312 221.828125 197.257812 221.507812 197.882812 C 221.1875 198.507812 221.027344 199.445312 221.027344 200.699219 C 221.027344 201.949219 221.1875 202.886719 221.507812 203.511719 C 221.828125 204.136719 222.304688 204.449219 222.9375 204.449219 C 223.578125 204.449219 224.054688 204.136719 224.375 203.511719 C 224.695312 202.886719 224.855469 201.949219 224.855469 200.699219 C 224.855469 199.445312 224.695312 198.507812 224.375 197.882812 C 224.054688 197.257812 223.578125 196.945312 222.9375 196.945312 Z M 222.9375 195.96875 C 223.960938 195.96875 224.742188 196.375 225.28125 197.183594 C 225.820312 197.988281 226.089844 199.164062 226.089844 200.699219 C 226.089844 202.234375 225.820312 203.40625 225.28125 204.214844 C 224.742188 205.019531 223.960938 205.425781 222.9375 205.425781 C 221.917969 205.425781 221.136719 205.019531 220.597656 204.214844 C 220.058594 203.40625 219.789062 202.234375 219.789062 200.699219 C 219.789062 199.164062 220.058594 197.988281 220.597656 197.183594 C 221.136719 196.375 221.917969 195.96875 222.9375 195.96875 Z M 222.9375 195.96875 "/>
<path style=" stroke:none;fill-rule:nonzero;fill:rgb(0%,0%,0%);fill-opacity:1;" d="M 230.890625 196.945312 C 230.257812 196.945312 229.777344 197.257812 229.457031 197.882812 C 229.140625 198.507812 228.980469 199.445312 228.980469 200.699219 C 228.980469 201.949219 229.140625 202.886719 229.457031 203.511719 C 229.777344 204.136719 230.257812 204.449219 230.890625 204.449219 C 231.53125 204.449219 232.007812 204.136719 232.328125 203.511719 C 232.648438 202.886719 232.808594 201.949219 232.808594 200.699219 C 232.808594 199.445312 232.648438 198.507812 232.328125 197.882812 C 232.007812 197.257812 231.53125 196.945312 230.890625 196.945312 Z M 230.890625 195.96875 C 231.914062 195.96875 232.691406 196.375 233.230469 197.183594 C 233.769531 197.988281 234.039062 199.164062 234.039062 200.699219 C 234.039062 202.234375 233.769531 203.40625 233.230469 204.214844 C 232.691406 205.019531 231.914062 205.425781 230.890625 205.425781 C 229.871094 205.425781 229.089844 205.019531 228.550781 204.214844 C 228.011719 203.40625 227.742188 202.234375 227.742188 200.699219 C 227.742188 199.164062 228.011719 197.988281 228.550781 197.183594 C 229.089844 196.375 229.871094 195.96875 230.890625 195.96875 Z M 230.890625 195.96875 "/>
<path style=" stroke:none;fill-rule:nonzero;fill:rgb(0%,0%,0%);fill-opacity:1;" d="M 238.84375 196.945312 C 238.210938 196.945312 237.730469 197.257812 237.410156 197.882812 C 237.09375 198.507812 236.933594 199.445312 236.933594 200.699219 C 236.933594 201.949219 237.09375 202.886719 237.410156 203.511719 C 237.730469 204.136719 238.210938 204.449219 238.84375 204.449219 C 239.484375 204.449219 239.960938 204.136719 240.28125 203.511719 C 240.601562 202.886719 240.761719 201.949219 240.761719 200.699219 C 240.761719 199.445312 240.601562 198.507812 240.28125 197.882812 C 239.960938 197.257812 239.484375 196.945312 238.84375 196.945312 Z M 238.84375 195.96875 C 239.867188 195.96875 240.644531 196.375 241.183594 197.183594 C 241.722656 197.988281 241.992188 199.164062 241.992188 200.699219 C 241.992188 202.234375 241.722656 203.40625 241.183594 204.214844 C 240.644531 205.019531 239.867188 205.425781 238.84375 205.425781 C 237.824219 205.425781 237.042969 205.019531 236.503906 204.214844 C 235.964844 203.40625 235.695312 202.234375 235.695312 200.699219 C 235.695312 199.164062 235.964844 197.988281 236.503906 197.183594 C 237.042969 196.375 237.824219 195.96875 238.84375 195.96875 Z M 238.84375 195.96875 "/>
<g clip-path="url(#clip5)" clip-rule="nonzero">
<path style="fill:none;stroke-width:0.8;stroke-linecap:square;stroke-linejoin:round;stroke:rgb(69.019608%,69.019608%,69.019608%);stroke-opacity:1;stroke-miterlimit:4;" d="M 214.10625 149.6 L 214.10625 11 " transform="matrix(1.25,0,0,1.25,0,0)"/>
</g>
<path style="fill:none;stroke-width:0.8;stroke-linecap:butt;stroke-linejoin:round;stroke:rgb(0%,0%,0%);stroke-opacity:1;stroke-miterlimit:4;" d="M -0.000161 0.000781 L -0.000161 3.500781 " transform="matrix(1.25,0,0,1.25,267.633014,186.999024)"/>
<path style=" stroke:none;fill-rule:nonzero;fill:rgb(0%,0%,0%);fill-opacity:1;" d="M 253.277344 204.210938 L 255.292969 204.210938 L 255.292969 197.257812 L 253.101562 197.695312 L 253.101562 196.574219 L 255.28125 196.132812 L 256.511719 196.132812 L 256.511719 204.210938 L 258.527344 204.210938 L 258.527344 205.246094 L 253.277344 205.246094 Z M 253.277344 204.210938 "/>
<path style=" stroke:none;fill-rule:nonzero;fill:rgb(0%,0%,0%);fill-opacity:1;" d="M 262.078125 204.210938 L 266.378906 204.210938 L 266.378906 205.246094 L 260.59375 205.246094 L 260.59375 204.210938 C 261.0625 203.726562 261.699219 203.074219 262.507812 202.261719 C 263.316406 201.445312 263.824219 200.917969 264.03125 200.679688 C 264.425781 200.238281 264.699219 199.863281 264.855469 199.554688 C 265.015625 199.25 265.09375 198.945312 265.09375 198.648438 C 265.09375 198.164062 264.921875 197.769531 264.582031 197.464844 C 264.242188 197.160156 263.800781 197.007812 263.253906 197.007812 C 262.867188 197.007812 262.460938 197.074219 262.03125 197.207031 C 261.601562 197.34375 261.144531 197.546875 260.65625 197.820312 L 260.65625 196.574219 C 261.152344 196.375 261.617188 196.222656 262.046875 196.121094 C 262.480469 196.019531 262.875 195.96875 263.230469 195.96875 C 264.175781 195.96875 264.929688 196.207031 265.488281 196.679688 C 266.050781 197.148438 266.332031 197.78125 266.332031 198.570312 C 266.332031 198.945312 266.261719 199.300781 266.121094 199.636719 C 265.980469 199.96875 265.726562 200.367188 265.355469 200.820312 C 265.253906 200.941406 264.929688 201.28125 264.382812 201.84375 C 263.839844 202.410156 263.070312 203.195312 262.078125 204.210938 Z M 262.078125 204.210938 "/>
<path style=" stroke:none;fill-rule:nonzero;fill:rgb(0%,0%,0%);fill-opacity:1;" d="M 268.980469 196.132812 L 273.820312 196.132812 L 273.820312 197.171875 L 270.109375 197.171875 L 270.109375 199.40625 C 270.289062 199.34375 270.46875 199.296875 270.644531 199.269531 C 270.824219 199.238281 271.003906 199.222656 271.183594 199.222656 C 272.203125 199.222656 273.007812 199.503906 273.601562 200.058594 C 274.195312 200.617188 274.492188 201.371094 274.492188 202.324219 C 274.492188 203.304688 274.1875 204.066406 273.578125 204.609375 C 272.96875 205.152344 272.105469 205.425781 270.996094 205.425781 C 270.613281 205.425781 270.222656 205.390625 269.824219 205.328125 C 269.429688 205.261719 269.019531 205.164062 268.597656 205.035156 L 268.597656 203.792969 C 268.964844 203.992188 269.339844 204.140625 269.730469 204.238281 C 270.121094 204.335938 270.535156 204.386719 270.96875 204.386719 C 271.675781 204.386719 272.230469 204.199219 272.640625 203.832031 C 273.054688 203.460938 273.257812 202.957031 273.257812 202.324219 C 273.257812 201.6875 273.054688 201.1875 272.640625 200.816406 C 272.230469 200.445312 271.675781 200.261719 270.96875 200.261719 C 270.640625 200.261719 270.3125 200.296875 269.984375 200.371094 C 269.65625 200.441406 269.324219 200.558594 268.980469 200.710938 Z M 268.980469 196.132812 "/>
<path style=" stroke:none;fill-rule:nonzero;fill:rgb(0%,0%,0%);fill-opacity:1;" d="M 279.558594 196.945312 C 278.925781 196.945312 278.445312 197.257812 278.125 197.882812 C 277.808594 198.507812 277.648438 199.445312 277.648438 200.699219 C 277.648438 201.949219 277.808594 202.886719 278.125 203.511719 C 278.445312 204.136719 278.925781 204.449219 279.558594 204.449219 C 280.199219 204.449219 280.675781 204.136719 280.996094 203.511719 C 281.316406 202.886719 281.476562 201.949219 281.476562 200.699219 C 281.476562 199.445312 281.316406 198.507812 280.996094 197.882812 C 280.675781 197.257812 280.199219 196.945312 279.558594 196.945312 Z M 279.558594 195.96875 C 280.582031 195.96875 281.359375 196.375 281.898438 197.183594 C 282.4375 197.988281 282.707031 199.164062 282.707031 200.699219 C 282.707031 202.234375 282.4375 203.40625 281.898438 204.214844 C 281.359375 205.019531 280.582031 205.425781 279.558594 205.425781 C 278.539062 205.425781 277.757812 205.019531 277.21875 204.214844 C 276.679688 203.40625 276.410156 202.234375 276.410156 200.699219 C 276.410156 199.164062 276.679688 197.988281 277.21875 197.183594 C 277.757812 196.375 278.539062 195.96875 279.558594 195.96875 Z M 279.558594 195.96875 "/>
<g clip-path="url(#clip6)" clip-rule="nonzero">
<path style="fill:none;stroke-width:0.8;stroke-linecap:square;stroke-linejoin:round;stroke:rgb(69.019608%,69.019608%,69.019608%);stroke-opacity:1;stroke-miterlimit:4;" d="M 246.678125 149.6 L 246.678125 11 " transform="matrix(1.25,0,0,1.25,0,0)"/>
</g>
<path style="fill:none;stroke-width:0.8;stroke-linecap:butt;stroke-linejoin:round;stroke:rgb(0%,0%,0%);stroke-opacity:1;stroke-miterlimit:4;" d="M 0 0.000781 L 0 3.500781 " transform="matrix(1.25,0,0,1.25,308.347656,186.999024)"/>
<path style=" stroke:none;fill-rule:nonzero;fill:rgb(0%,0%,0%);fill-opacity:1;" d="M 293.992188 204.210938 L 296.007812 204.210938 L 296.007812 197.257812 L 293.8125 197.695312 L 293.8125 196.574219 L 295.992188 196.132812 L 297.226562 196.132812 L 297.226562 204.210938 L 299.242188 204.210938 L 299.242188 205.246094 L 293.992188 205.246094 Z M 293.992188 204.210938 "/>
<path style=" stroke:none;fill-rule:nonzero;fill:rgb(0%,0%,0%);fill-opacity:1;" d="M 301.742188 196.132812 L 306.582031 196.132812 L 306.582031 197.171875 L 302.871094 197.171875 L 302.871094 199.40625 C 303.050781 199.34375 303.230469 199.296875 303.40625 199.269531 C 303.585938 199.238281 303.765625 199.222656 303.945312 199.222656 C 304.964844 199.222656 305.769531 199.503906 306.363281 200.058594 C 306.957031 200.617188 307.253906 201.371094 307.253906 202.324219 C 307.253906 203.304688 306.949219 204.066406 306.339844 204.609375 C 305.730469 205.152344 304.867188 205.425781 303.757812 205.425781 C 303.375 205.425781 302.984375 205.390625 302.585938 205.328125 C 302.191406 205.261719 301.78125 205.164062 301.359375 205.035156 L 301.359375 203.792969 C 301.726562 203.992188 302.101562 204.140625 302.492188 204.238281 C 302.882812 204.335938 303.296875 204.386719 303.730469 204.386719 C 304.4375 204.386719 304.992188 204.199219 305.402344 203.832031 C 305.816406 203.460938 306.019531 202.957031 306.019531 202.324219 C 306.019531 201.6875 305.816406 201.1875 305.402344 200.816406 C 304.992188 200.445312 304.4375 200.261719 303.730469 200.261719 C 303.402344 200.261719 303.074219 200.296875 302.746094 200.371094 C 302.417969 200.441406 302.085938 200.558594 301.742188 200.710938 Z M 301.742188 196.132812 "/>
<path style=" stroke:none;fill-rule:nonzero;fill:rgb(0%,0%,0%);fill-opacity:1;" d="M 312.320312 196.945312 C 311.6875 196.945312 311.207031 197.257812 310.886719 197.882812 C 310.570312 198.507812 310.410156 199.445312 310.410156 200.699219 C 310.410156 201.949219 310.570312 202.886719 310.886719 203.511719 C 311.207031 204.136719 311.6875 204.449219 312.320312 204.449219 C 312.960938 204.449219 313.4375 204.136719 313.757812 203.511719 C 314.078125 202.886719 314.238281 201.949219 314.238281 200.699219 C 314.238281 199.445312 314.078125 198.507812 313.757812 197.882812 C 313.4375 197.257812 312.960938 196.945312 312.320312 196.945312 Z M 312.320312 195.96875 C 313.34375 195.96875 314.121094 196.375 314.660156 197.183594 C 315.199219 197.988281 315.46875 199.164062 315.46875 200.699219 C 315.46875 202.234375 315.199219 203.40625 314.660156 204.214844 C 314.121094 205.019531 313.34375 205.425781 312.320312 205.425781 C 311.300781 205.425781 310.519531 205.019531 309.980469 204.214844 C 309.441406 203.40625 309.171875 202.234375 309.171875 200.699219 C 309.171875 199.164062 309.441406 197.988281 309.980469 197.183594 C 310.519531 196.375 311.300781 195.96875 312.320312 195.96875 Z M 312.320312 195.96875 "/>
<path style=" stroke:none;fill-rule:nonzero;fill:rgb(0%,0%,0%);fill-opacity:1;" d="M 320.273438 196.945312 C 319.636719 196.945312 319.160156 197.257812 318.839844 197.882812 C 318.523438 198.507812 318.363281 199.445312 318.363281 200.699219 C 318.363281 201.949219 318.523438 202.886719 318.839844 203.511719 C 319.160156 204.136719 319.636719 204.449219 320.273438 204.449219 C 320.910156 204.449219 321.390625 204.136719 321.710938 203.511719 C 322.03125 202.886719 322.191406 201.949219 322.191406 200.699219 C 322.191406 199.445312 322.03125 198.507812 321.710938 197.882812 C 321.390625 197.257812 320.910156 196.945312 320.273438 196.945312 Z M 320.273438 195.96875 C 321.292969 195.96875 322.074219 196.375 322.613281 197.183594 C 323.152344 197.988281 323.421875 199.164062 323.421875 200.699219 C 323.421875 202.234375 323.152344 203.40625 322.613281 204.214844 C 322.074219 205.019531 321.292969 205.425781 320.273438 205.425781 C 319.25 205.425781 318.472656 205.019531 317.933594 204.214844 C 317.394531 203.40625 317.125 202.234375 317.125 200.699219 C 317.125 199.164062 317.394531 197.988281 317.933594 197.183594 C 318.472656 196.375 319.25 195.96875 320.273438 195.96875 Z M 320.273438 195.96875 "/>
<path style=" stroke:none;fill-rule:nonzero;fill:rgb(0%,0%,0%);fill-opacity:1;" d="M 174.273438 218.644531 L 174.273438 219.195312 L 169.109375 219.195312 C 169.160156 219.96875 169.394531 220.558594 169.8125 220.960938 C 170.226562 221.367188 170.808594 221.570312 171.554688 221.570312 C 171.984375 221.570312 172.402344 221.515625 172.804688 221.410156 C 173.210938 221.304688 173.613281 221.148438 174.015625 220.933594 L 174.015625 221.996094 C 173.609375 222.167969 173.195312 222.296875 172.773438 222.386719 C 172.351562 222.476562 171.921875 222.523438 171.484375 222.523438 C 170.394531 222.523438 169.53125 222.207031 168.894531 221.570312 C 168.257812 220.9375 167.9375 220.078125 167.9375 218.992188 C 167.9375 217.875 168.242188 216.988281 168.84375 216.332031 C 169.449219 215.671875 170.265625 215.34375 171.289062 215.34375 C 172.210938 215.34375 172.9375 215.640625 173.472656 216.234375 C 174.007812 216.824219 174.273438 217.628906 174.273438 218.644531 Z M 173.152344 218.316406 C 173.144531 217.703125 172.972656 217.210938 172.636719 216.847656 C 172.300781 216.480469 171.855469 216.296875 171.304688 216.296875 C 170.675781 216.296875 170.175781 216.472656 169.796875 216.828125 C 169.421875 217.179688 169.207031 217.679688 169.148438 218.324219 Z M 173.152344 218.316406 "/>
<path style=" stroke:none;fill-rule:nonzero;fill:rgb(0%,0%,0%);fill-opacity:1;" d="M 177.203125 221.320312 L 177.203125 224.945312 L 176.074219 224.945312 L 176.074219 215.507812 L 177.203125 215.507812 L 177.203125 216.546875 C 177.441406 216.140625 177.738281 215.839844 178.097656 215.640625 C 178.460938 215.445312 178.890625 215.34375 179.390625 215.34375 C 180.21875 215.34375 180.894531 215.675781 181.414062 216.332031 C 181.933594 216.992188 182.191406 217.859375 182.191406 218.933594 C 182.191406 220.007812 181.933594 220.875 181.414062 221.535156 C 180.894531 222.191406 180.21875 222.523438 179.390625 222.523438 C 178.890625 222.523438 178.460938 222.421875 178.097656 222.226562 C 177.738281 222.027344 177.441406 221.726562 177.203125 221.320312 Z M 181.027344 218.933594 C 181.027344 218.105469 180.855469 217.460938 180.515625 216.988281 C 180.175781 216.519531 179.710938 216.285156 179.117188 216.285156 C 178.519531 216.285156 178.054688 216.519531 177.714844 216.988281 C 177.375 217.460938 177.203125 218.105469 177.203125 218.933594 C 177.203125 219.757812 177.375 220.40625 177.714844 220.875 C 178.054688 221.347656 178.519531 221.582031 179.117188 221.582031 C 179.710938 221.582031 180.175781 221.347656 180.515625 220.875 C 180.855469 220.40625 181.027344 219.757812 181.027344 218.933594 Z M 181.027344 218.933594 "/>
<path style=" stroke:none;fill-rule:nonzero;fill:rgb(0%,0%,0%);fill-opacity:1;" d="M 186.703125 216.296875 C 186.101562 216.296875 185.625 216.53125 185.273438 217 C 184.921875 217.472656 184.75 218.113281 184.75 218.933594 C 184.75 219.75 184.921875 220.394531 185.269531 220.863281 C 185.617188 221.335938 186.09375 221.570312 186.703125 221.570312 C 187.300781 221.570312 187.773438 221.332031 188.125 220.863281 C 188.472656 220.390625 188.648438 219.746094 188.648438 218.933594 C 188.648438 218.121094 188.472656 217.480469 188.125 217.007812 C 187.773438 216.53125 187.300781 216.296875 186.703125 216.296875 Z M 186.703125 215.34375 C 187.679688 215.34375 188.445312 215.664062 189 216.296875 C 189.5625 216.933594 189.839844 217.808594 189.839844 218.933594 C 189.839844 220.050781 189.5625 220.929688 189 221.566406 C 188.445312 222.203125 187.679688 222.523438 186.703125 222.523438 C 185.71875 222.523438 184.953125 222.203125 184.398438 221.566406 C 183.84375 220.929688 183.5625 220.050781 183.5625 218.933594 C 183.5625 217.808594 183.84375 216.933594 184.398438 216.296875 C 184.953125 215.664062 185.71875 215.34375 186.703125 215.34375 Z M 186.703125 215.34375 "/>
<path style=" stroke:none;fill-rule:nonzero;fill:rgb(0%,0%,0%);fill-opacity:1;" d="M 196.621094 215.769531 L 196.621094 216.820312 C 196.300781 216.644531 195.984375 216.515625 195.664062 216.425781 C 195.347656 216.339844 195.023438 216.296875 194.699219 216.296875 C 193.96875 216.296875 193.402344 216.527344 193 216.988281 C 192.597656 217.449219 192.394531 218.097656 192.394531 218.933594 C 192.394531 219.765625 192.597656 220.414062 193 220.878906 C 193.402344 221.339844 193.96875 221.570312 194.699219 221.570312 C 195.023438 221.570312 195.347656 221.527344 195.664062 221.4375 C 195.984375 221.351562 196.300781 221.21875 196.621094 221.042969 L 196.621094 222.082031 C 196.304688 222.230469 195.980469 222.339844 195.644531 222.410156 C 195.3125 222.484375 194.953125 222.523438 194.574219 222.523438 C 193.546875 222.523438 192.726562 222.199219 192.121094 221.550781 C 191.515625 220.90625 191.210938 220.03125 191.210938 218.933594 C 191.210938 217.816406 191.519531 216.941406 192.128906 216.304688 C 192.742188 215.664062 193.582031 215.34375 194.648438 215.34375 C 194.996094 215.34375 195.332031 215.378906 195.660156 215.453125 C 195.992188 215.523438 196.308594 215.628906 196.621094 215.769531 Z M 196.621094 215.769531 "/>
<path style=" stroke:none;fill-rule:nonzero;fill:rgb(0%,0%,0%);fill-opacity:1;" d="M 204.257812 218.21875 L 204.257812 222.34375 L 203.132812 222.34375 L 203.132812 218.253906 C 203.132812 217.609375 203.007812 217.125 202.753906 216.804688 C 202.503906 216.480469 202.125 216.320312 201.621094 216.320312 C 201.011719 216.320312 200.535156 216.515625 200.183594 216.902344 C 199.835938 217.285156 199.660156 217.8125 199.660156 218.480469 L 199.660156 222.34375 L 198.53125 222.34375 L 198.53125 212.847656 L 199.660156 212.847656 L 199.660156 216.570312 C 199.929688 216.160156 200.246094 215.851562 200.609375 215.648438 C 200.972656 215.445312 201.394531 215.34375 201.871094 215.34375 C 202.65625 215.34375 203.25 215.585938 203.652344 216.074219 C 204.054688 216.558594 204.257812 217.273438 204.257812 218.21875 Z M 204.257812 218.21875 "/>
<g clip-path="url(#clip7)" clip-rule="nonzero">
<path style="fill:none;stroke-width:0.8;stroke-linecap:square;stroke-linejoin:round;stroke:rgb(69.019608%,69.019608%,69.019608%);stroke-opacity:1;stroke-miterlimit:4;" d="M 51.378125 149.6 L 246.678125 149.6 " transform="matrix(1.25,0,0,1.25,0,0)"/>
</g>
<path style="fill:none;stroke-width:0.8;stroke-linecap:butt;stroke-linejoin:round;stroke:rgb(0%,0%,0%);stroke-opacity:1;stroke-miterlimit:4;" d="M 0 0.000781 L -3.5 0.000781 " transform="matrix(1.25,0,0,1.25,64.222656,186.999024)"/>
<path style=" stroke:none;fill-rule:nonzero;fill:rgb(0%,0%,0%);fill-opacity:1;" d="M 27.648438 190.617188 L 29.664062 190.617188 L 29.664062 183.664062 L 27.46875 184.101562 L 27.46875 182.980469 L 29.648438 182.539062 L 30.882812 182.539062 L 30.882812 190.617188 L 32.898438 190.617188 L 32.898438 191.652344 L 27.648438 191.652344 Z M 27.648438 190.617188 "/>
<path style=" stroke:none;fill-rule:nonzero;fill:rgb(0%,0%,0%);fill-opacity:1;" d="M 38.023438 183.351562 C 37.390625 183.351562 36.910156 183.664062 36.589844 184.289062 C 36.273438 184.914062 36.113281 185.851562 36.113281 187.105469 C 36.113281 188.355469 36.273438 189.292969 36.589844 189.917969 C 36.910156 190.542969 37.390625 190.855469 38.023438 190.855469 C 38.664062 190.855469 39.140625 190.542969 39.460938 189.917969 C 39.78125 189.292969 39.941406 188.355469 39.941406 187.105469 C 39.941406 185.851562 39.78125 184.914062 39.460938 184.289062 C 39.140625 183.664062 38.664062 183.351562 38.023438 183.351562 Z M 38.023438 182.375 C 39.046875 182.375 39.824219 182.78125 40.363281 183.589844 C 40.902344 184.394531 41.171875 185.566406 41.171875 187.105469 C 41.171875 188.640625 40.902344 189.8125 40.363281 190.621094 C 39.824219 191.425781 39.046875 191.832031 38.023438 191.832031 C 37.003906 191.832031 36.222656 191.425781 35.683594 190.621094 C 35.144531 189.8125 34.875 188.640625 34.875 187.105469 C 34.875 185.566406 35.144531 184.394531 35.683594 183.589844 C 36.222656 182.78125 37.003906 182.375 38.023438 182.375 Z M 38.023438 182.375 "/>
<path style=" stroke:none;fill-rule:nonzero;fill:rgb(0%,0%,0%);fill-opacity:1;" d="M 43.050781 183.761719 L 48.527344 183.761719 L 48.527344 184.488281 L 43.050781 184.488281 Z M 43.050781 183.761719 "/>
<path style=" stroke:none;fill-rule:nonzero;fill:rgb(0%,0%,0%);fill-opacity:1;" d="M 53.003906 183.425781 C 53.417969 183.515625 53.742188 183.699219 53.972656 183.980469 C 54.203125 184.257812 54.320312 184.601562 54.320312 185.011719 C 54.320312 185.640625 54.105469 186.128906 53.671875 186.476562 C 53.238281 186.820312 52.621094 186.992188 51.824219 186.992188 C 51.558594 186.992188 51.28125 186.964844 51 186.914062 C 50.714844 186.859375 50.421875 186.78125 50.121094 186.675781 L 50.121094 185.84375 C 50.359375 185.980469 50.621094 186.085938 50.90625 186.15625 C 51.191406 186.230469 51.488281 186.265625 51.800781 186.265625 C 52.339844 186.265625 52.753906 186.15625 53.035156 185.945312 C 53.320312 185.730469 53.460938 185.421875 53.460938 185.011719 C 53.460938 184.636719 53.332031 184.34375 53.066406 184.132812 C 52.804688 183.917969 52.4375 183.8125 51.96875 183.8125 L 51.222656 183.8125 L 51.222656 183.101562 L 52 183.101562 C 52.425781 183.101562 52.75 183.019531 52.976562 182.847656 C 53.199219 182.679688 53.3125 182.433594 53.3125 182.117188 C 53.3125 181.789062 53.195312 181.539062 52.964844 181.363281 C 52.734375 181.1875 52.402344 181.097656 51.96875 181.097656 C 51.730469 181.097656 51.476562 181.125 51.207031 181.175781 C 50.933594 181.226562 50.636719 181.308594 50.3125 181.414062 L 50.3125 180.648438 C 50.640625 180.554688 50.949219 180.488281 51.234375 180.441406 C 51.519531 180.394531 51.789062 180.375 52.042969 180.375 C 52.699219 180.375 53.21875 180.523438 53.597656 180.820312 C 53.980469 181.117188 54.171875 181.519531 54.171875 182.027344 C 54.171875 182.378906 54.070312 182.679688 53.867188 182.921875 C 53.664062 183.164062 53.378906 183.332031 53.003906 183.425781 Z M 53.003906 183.425781 "/>
<g clip-path="url(#clip8)" clip-rule="nonzero">
<path style="fill:none;stroke-width:0.8;stroke-linecap:square;stroke-linejoin:round;stroke:rgb(69.019608%,69.019608%,69.019608%);stroke-opacity:1;stroke-miterlimit:4;" d="M 51.378125 121.878125 L 246.678125 121.878125 " transform="matrix(1.25,0,0,1.25,0,0)"/>
</g>
<path style="fill:none;stroke-width:0.8;stroke-linecap:butt;stroke-linejoin:round;stroke:rgb(0%,0%,0%);stroke-opacity:1;stroke-miterlimit:4;" d="M 0 -0.001094 L -3.5 -0.001094 " transform="matrix(1.25,0,0,1.25,64.222656,152.349024)"/>
<path style=" stroke:none;fill-rule:nonzero;fill:rgb(0%,0%,0%);fill-opacity:1;" d="M 27.648438 155.964844 L 29.664062 155.964844 L 29.664062 149.011719 L 27.46875 149.453125 L 27.46875 148.328125 L 29.648438 147.890625 L 30.882812 147.890625 L 30.882812 155.964844 L 32.898438 155.964844 L 32.898438 157.003906 L 27.648438 157.003906 Z M 27.648438 155.964844 "/>
<path style=" stroke:none;fill-rule:nonzero;fill:rgb(0%,0%,0%);fill-opacity:1;" d="M 38.023438 148.703125 C 37.390625 148.703125 36.910156 149.015625 36.589844 149.640625 C 36.273438 150.261719 36.113281 151.203125 36.113281 152.457031 C 36.113281 153.703125 36.273438 154.640625 36.589844 155.265625 C 36.910156 155.890625 37.390625 156.203125 38.023438 156.203125 C 38.664062 156.203125 39.140625 155.890625 39.460938 155.265625 C 39.78125 154.640625 39.941406 153.703125 39.941406 152.457031 C 39.941406 151.203125 39.78125 150.261719 39.460938 149.640625 C 39.140625 149.015625 38.664062 148.703125 38.023438 148.703125 Z M 38.023438 147.726562 C 39.046875 147.726562 39.824219 148.128906 40.363281 148.9375 C 40.902344 149.746094 41.171875 150.917969 41.171875 152.457031 C 41.171875 153.988281 40.902344 155.160156 40.363281 155.96875 C 39.824219 156.777344 39.046875 157.179688 38.023438 157.179688 C 37.003906 157.179688 36.222656 156.777344 35.683594 155.96875 C 35.144531 155.160156 34.875 153.988281 34.875 152.457031 C 34.875 150.917969 35.144531 149.746094 35.683594 148.9375 C 36.222656 148.128906 37.003906 147.726562 38.023438 147.726562 Z M 38.023438 147.726562 "/>
<path style=" stroke:none;fill-rule:nonzero;fill:rgb(0%,0%,0%);fill-opacity:1;" d="M 43.050781 149.109375 L 48.527344 149.109375 L 48.527344 149.835938 L 43.050781 149.835938 Z M 43.050781 149.109375 "/>
<path style=" stroke:none;fill-rule:nonzero;fill:rgb(0%,0%,0%);fill-opacity:1;" d="M 51.132812 151.492188 L 54.144531 151.492188 L 54.144531 152.21875 L 50.097656 152.21875 L 50.097656 151.492188 C 50.421875 151.152344 50.871094 150.699219 51.433594 150.125 C 52 149.554688 52.355469 149.1875 52.5 149.019531 C 52.777344 148.710938 52.96875 148.449219 53.078125 148.234375 C 53.1875 148.019531 53.246094 147.808594 53.246094 147.597656 C 53.246094 147.261719 53.125 146.984375 52.886719 146.769531 C 52.648438 146.554688 52.339844 146.449219 51.957031 146.449219 C 51.6875 146.449219 51.402344 146.496094 51.101562 146.589844 C 50.800781 146.683594 50.480469 146.828125 50.136719 147.019531 L 50.136719 146.144531 C 50.484375 146.007812 50.808594 145.902344 51.113281 145.828125 C 51.414062 145.757812 51.691406 145.722656 51.941406 145.722656 C 52.601562 145.722656 53.128906 145.886719 53.523438 146.21875 C 53.914062 146.550781 54.109375 146.992188 54.109375 147.542969 C 54.109375 147.804688 54.0625 148.054688 53.964844 148.289062 C 53.867188 148.523438 53.6875 148.800781 53.425781 149.121094 C 53.355469 149.203125 53.128906 149.441406 52.75 149.835938 C 52.367188 150.230469 51.828125 150.78125 51.132812 151.492188 Z M 51.132812 151.492188 "/>
<g clip-path="url(#clip9)" clip-rule="nonzero">
<path style="fill:none;stroke-width:0.8;stroke-linecap:square;stroke-linejoin:round;stroke:rgb(69.019608%,69.019608%,69.019608%);stroke-opacity:1;stroke-miterlimit:4;" d="M 51.378125 94.159375 L 246.678125 94.159375 " transform="matrix(1.25,0,0,1.25,0,0)"/>
</g>
<path style="fill:none;stroke-width:0.8;stroke-linecap:butt;stroke-linejoin:round;stroke:rgb(0%,0%,0%);stroke-opacity:1;stroke-miterlimit:4;" d="M 0 0.000156 L -3.5 0.000156 " transform="matrix(1.25,0,0,1.25,64.222656,117.699024)"/>
<path style=" stroke:none;fill-rule:nonzero;fill:rgb(0%,0%,0%);fill-opacity:1;" d="M 27.648438 121.324219 L 29.664062 121.324219 L 29.664062 114.371094 L 27.46875 114.8125 L 27.46875 113.6875 L 29.648438 113.25 L 30.882812 113.25 L 30.882812 121.324219 L 32.898438 121.324219 L 32.898438 122.363281 L 27.648438 122.363281 Z M 27.648438 121.324219 "/>
<path style=" stroke:none;fill-rule:nonzero;fill:rgb(0%,0%,0%);fill-opacity:1;" d="M 38.023438 114.0625 C 37.390625 114.0625 36.910156 114.375 36.589844 115 C 36.273438 115.621094 36.113281 116.5625 36.113281 117.816406 C 36.113281 119.0625 36.273438 120 36.589844 120.625 C 36.910156 121.25 37.390625 121.5625 38.023438 121.5625 C 38.664062 121.5625 39.140625 121.25 39.460938 120.625 C 39.78125 120 39.941406 119.0625 39.941406 117.816406 C 39.941406 116.5625 39.78125 115.621094 39.460938 115 C 39.140625 114.375 38.664062 114.0625 38.023438 114.0625 Z M 38.023438 113.085938 C 39.046875 113.085938 39.824219 113.488281 40.363281 114.296875 C 40.902344 115.105469 41.171875 116.277344 41.171875 117.816406 C 41.171875 119.347656 40.902344 120.519531 40.363281 121.328125 C 39.824219 122.136719 39.046875 122.539062 38.023438 122.539062 C 37.003906 122.539062 36.222656 122.136719 35.683594 121.328125 C 35.144531 120.519531 34.875 119.347656 34.875 117.816406 C 34.875 116.277344 35.144531 115.105469 35.683594 114.296875 C 36.222656 113.488281 37.003906 113.085938 38.023438 113.085938 Z M 38.023438 113.085938 "/>
<path style=" stroke:none;fill-rule:nonzero;fill:rgb(0%,0%,0%);fill-opacity:1;" d="M 43.050781 114.472656 L 48.527344 114.472656 L 48.527344 115.195312 L 43.050781 115.195312 Z M 43.050781 114.472656 "/>
<path style=" stroke:none;fill-rule:nonzero;fill:rgb(0%,0%,0%);fill-opacity:1;" d="M 50.539062 116.851562 L 51.949219 116.851562 L 51.949219 111.984375 L 50.414062 112.292969 L 50.414062 111.503906 L 51.941406 111.199219 L 52.804688 111.199219 L 52.804688 116.851562 L 54.214844 116.851562 L 54.214844 117.578125 L 50.539062 117.578125 Z M 50.539062 116.851562 "/>
<g clip-path="url(#clip10)" clip-rule="nonzero">
<path style="fill:none;stroke-width:0.8;stroke-linecap:square;stroke-linejoin:round;stroke:rgb(69.019608%,69.019608%,69.019608%);stroke-opacity:1;stroke-miterlimit:4;" d="M 51.378125 66.440625 L 246.678125 66.440625 " transform="matrix(1.25,0,0,1.25,0,0)"/>
</g>
<path style="fill:none;stroke-width:0.8;stroke-linecap:butt;stroke-linejoin:round;stroke:rgb(0%,0%,0%);stroke-opacity:1;stroke-miterlimit:4;" d="M 0 0.001406 L -3.5 0.001406 " transform="matrix(1.25,0,0,1.25,64.222656,83.049024)"/>
<path style=" stroke:none;fill-rule:nonzero;fill:rgb(0%,0%,0%);fill-opacity:1;" d="M 35.023438 86.664062 L 37.039062 86.664062 L 37.039062 79.710938 L 34.84375 80.152344 L 34.84375 79.027344 L 37.023438 78.589844 L 38.257812 78.589844 L 38.257812 86.664062 L 40.273438 86.664062 L 40.273438 87.703125 L 35.023438 87.703125 Z M 35.023438 86.664062 "/>
<path style=" stroke:none;fill-rule:nonzero;fill:rgb(0%,0%,0%);fill-opacity:1;" d="M 45.398438 79.402344 C 44.765625 79.402344 44.285156 79.714844 43.964844 80.339844 C 43.648438 80.960938 43.488281 81.902344 43.488281 83.15625 C 43.488281 84.402344 43.648438 85.339844 43.964844 85.964844 C 44.285156 86.589844 44.765625 86.902344 45.398438 86.902344 C 46.039062 86.902344 46.515625 86.589844 46.835938 85.964844 C 47.15625 85.339844 47.316406 84.402344 47.316406 83.15625 C 47.316406 81.902344 47.15625 80.960938 46.835938 80.339844 C 46.515625 79.714844 46.039062 79.402344 45.398438 79.402344 Z M 45.398438 78.425781 C 46.421875 78.425781 47.199219 78.828125 47.738281 79.636719 C 48.277344 80.445312 48.546875 81.617188 48.546875 83.15625 C 48.546875 84.6875 48.277344 85.859375 47.738281 86.667969 C 47.199219 87.476562 46.421875 87.878906 45.398438 87.878906 C 44.378906 87.878906 43.597656 87.476562 43.058594 86.667969 C 42.519531 85.859375 42.25 84.6875 42.25 83.15625 C 42.25 81.617188 42.519531 80.445312 43.058594 79.636719 C 43.597656 78.828125 44.378906 78.425781 45.398438 78.425781 Z M 45.398438 78.425781 "/>
<path style=" stroke:none;fill-rule:nonzero;fill:rgb(0%,0%,0%);fill-opacity:1;" d="M 52.277344 77.105469 C 51.835938 77.105469 51.5 77.324219 51.277344 77.761719 C 51.054688 78.199219 50.941406 78.855469 50.941406 79.734375 C 50.941406 80.609375 51.054688 81.265625 51.277344 81.703125 C 51.5 82.140625 51.835938 82.359375 52.277344 82.359375 C 52.726562 82.359375 53.0625 82.140625 53.285156 81.703125 C 53.507812 81.265625 53.621094 80.609375 53.621094 79.734375 C 53.621094 78.855469 53.507812 78.199219 53.285156 77.761719 C 53.0625 77.324219 52.726562 77.105469 52.277344 77.105469 Z M 52.277344 76.421875 C 52.996094 76.421875 53.539062 76.707031 53.917969 77.273438 C 54.296875 77.835938 54.484375 78.65625 54.484375 79.734375 C 54.484375 80.808594 54.296875 81.628906 53.917969 82.195312 C 53.539062 82.757812 52.996094 83.042969 52.277344 83.042969 C 51.5625 83.042969 51.019531 82.757812 50.640625 82.195312 C 50.265625 81.628906 50.074219 80.808594 50.074219 79.734375 C 50.074219 78.65625 50.265625 77.835938 50.640625 77.273438 C 51.019531 76.707031 51.5625 76.421875 52.277344 76.421875 Z M 52.277344 76.421875 "/>
<g clip-path="url(#clip11)" clip-rule="nonzero">
<path style="fill:none;stroke-width:0.8;stroke-linecap:square;stroke-linejoin:round;stroke:rgb(69.019608%,69.019608%,69.019608%);stroke-opacity:1;stroke-miterlimit:4;" d="M 51.378125 38.71875 L 246.678125 38.71875 " transform="matrix(1.25,0,0,1.25,0,0)"/>
</g>
<path style="fill:none;stroke-width:0.8;stroke-linecap:butt;stroke-linejoin:round;stroke:rgb(0%,0%,0%);stroke-opacity:1;stroke-miterlimit:4;" d="M 0 -0.000469 L -3.5 -0.000469 " transform="matrix(1.25,0,0,1.25,64.222656,48.399024)"/>
<path style=" stroke:none;fill-rule:nonzero;fill:rgb(0%,0%,0%);fill-opacity:1;" d="M 35.023438 52.023438 L 37.039062 52.023438 L 37.039062 45.070312 L 34.84375 45.511719 L 34.84375 44.386719 L 37.023438 43.949219 L 38.257812 43.949219 L 38.257812 52.023438 L 40.273438 52.023438 L 40.273438 53.0625 L 35.023438 53.0625 Z M 35.023438 52.023438 "/>
<path style=" stroke:none;fill-rule:nonzero;fill:rgb(0%,0%,0%);fill-opacity:1;" d="M 45.398438 44.761719 C 44.765625 44.761719 44.285156 45.074219 43.964844 45.699219 C 43.648438 46.324219 43.488281 47.261719 43.488281 48.515625 C 43.488281 49.765625 43.648438 50.699219 43.964844 51.324219 C 44.285156 51.949219 44.765625 52.261719 45.398438 52.261719 C 46.039062 52.261719 46.515625 51.949219 46.835938 51.324219 C 47.15625 50.699219 47.316406 49.765625 47.316406 48.515625 C 47.316406 47.261719 47.15625 46.324219 46.835938 45.699219 C 46.515625 45.074219 46.039062 44.761719 45.398438 44.761719 Z M 45.398438 43.785156 C 46.421875 43.785156 47.199219 44.1875 47.738281 44.996094 C 48.277344 45.804688 48.546875 46.976562 48.546875 48.515625 C 48.546875 50.050781 48.277344 51.21875 47.738281 52.027344 C 47.199219 52.835938 46.421875 53.238281 45.398438 53.238281 C 44.378906 53.238281 43.597656 52.835938 43.058594 52.027344 C 42.519531 51.21875 42.25 50.050781 42.25 48.515625 C 42.25 46.976562 42.519531 45.804688 43.058594 44.996094 C 43.597656 44.1875 44.378906 43.785156 45.398438 43.785156 Z M 45.398438 43.785156 "/>
<path style=" stroke:none;fill-rule:nonzero;fill:rgb(0%,0%,0%);fill-opacity:1;" d="M 50.582031 47.550781 L 51.992188 47.550781 L 51.992188 42.683594 L 50.460938 42.992188 L 50.460938 42.207031 L 51.984375 41.898438 L 52.847656 41.898438 L 52.847656 47.550781 L 54.257812 47.550781 L 54.257812 48.277344 L 50.582031 48.277344 Z M 50.582031 47.550781 "/>
<g clip-path="url(#clip12)" clip-rule="nonzero">
<path style="fill:none;stroke-width:0.8;stroke-linecap:square;stroke-linejoin:round;stroke:rgb(69.019608%,69.019608%,69.019608%);stroke-opacity:1;stroke-miterlimit:4;" d="M 51.378125 11 L 246.678125 11 " transform="matrix(1.25,0,0,1.25,0,0)"/>
</g>
<path style="fill:none;stroke-width:0.8;stroke-linecap:butt;stroke-linejoin:round;stroke:rgb(0%,0%,0%);stroke-opacity:1;stroke-miterlimit:4;" d="M 0 0.000781 L -3.5 0.000781 " transform="matrix(1.25,0,0,1.25,64.222656,13.749024)"/>
<path style=" stroke:none;fill-rule:nonzero;fill:rgb(0%,0%,0%);fill-opacity:1;" d="M 35.023438 17.367188 L 37.039062 17.367188 L 37.039062 10.414062 L 34.84375 10.851562 L 34.84375 9.730469 L 37.023438 9.289062 L 38.257812 9.289062 L 38.257812 17.367188 L 40.273438 17.367188 L 40.273438 18.402344 L 35.023438 18.402344 Z M 35.023438 17.367188 "/>
<path style=" stroke:none;fill-rule:nonzero;fill:rgb(0%,0%,0%);fill-opacity:1;" d="M 45.398438 10.101562 C 44.765625 10.101562 44.285156 10.414062 43.964844 11.039062 C 43.648438 11.664062 43.488281 12.601562 43.488281 13.855469 C 43.488281 15.105469 43.648438 16.042969 43.964844 16.667969 C 44.285156 17.292969 44.765625 17.605469 45.398438 17.605469 C 46.039062 17.605469 46.515625 17.292969 46.835938 16.667969 C 47.15625 16.042969 47.316406 15.105469 47.316406 13.855469 C 47.316406 12.601562 47.15625 11.664062 46.835938 11.039062 C 46.515625 10.414062 46.039062 10.101562 45.398438 10.101562 Z M 45.398438 9.125 C 46.421875 9.125 47.199219 9.53125 47.738281 10.339844 C 48.277344 11.144531 48.546875 12.316406 48.546875 13.855469 C 48.546875 15.390625 48.277344 16.5625 47.738281 17.371094 C 47.199219 18.175781 46.421875 18.582031 45.398438 18.582031 C 44.378906 18.582031 43.597656 18.175781 43.058594 17.371094 C 42.519531 16.5625 42.25 15.390625 42.25 13.855469 C 42.25 12.316406 42.519531 11.144531 43.058594 10.339844 C 43.597656 9.53125 44.378906 9.125 45.398438 9.125 Z M 45.398438 9.125 "/>
<path style=" stroke:none;fill-rule:nonzero;fill:rgb(0%,0%,0%);fill-opacity:1;" d="M 51.175781 12.890625 L 54.1875 12.890625 L 54.1875 13.617188 L 50.140625 13.617188 L 50.140625 12.890625 C 50.464844 12.550781 50.914062 12.097656 51.476562 11.527344 C 52.042969 10.957031 52.398438 10.585938 52.542969 10.421875 C 52.820312 10.109375 53.011719 9.847656 53.121094 9.632812 C 53.234375 9.417969 53.289062 9.207031 53.289062 9 C 53.289062 8.660156 53.167969 8.382812 52.929688 8.171875 C 52.691406 7.957031 52.382812 7.847656 52 7.847656 C 51.730469 7.847656 51.445312 7.894531 51.144531 7.988281 C 50.84375 8.082031 50.523438 8.226562 50.179688 8.417969 L 50.179688 7.546875 C 50.527344 7.40625 50.851562 7.300781 51.15625 7.230469 C 51.457031 7.160156 51.734375 7.125 51.984375 7.125 C 52.644531 7.125 53.171875 7.289062 53.566406 7.621094 C 53.957031 7.949219 54.15625 8.390625 54.15625 8.941406 C 54.15625 9.207031 54.105469 9.453125 54.007812 9.6875 C 53.910156 9.921875 53.730469 10.199219 53.472656 10.519531 C 53.398438 10.601562 53.171875 10.839844 52.792969 11.234375 C 52.410156 11.628906 51.871094 12.183594 51.175781 12.890625 Z M 51.175781 12.890625 "/>
<path style="fill:none;stroke-width:0.6;stroke-linecap:butt;stroke-linejoin:round;stroke:rgb(0%,0%,0%);stroke-opacity:1;stroke-miterlimit:4;" d="M 0 -0.001542 L -2 -0.001542 " transform="matrix(1.25,0,0,1.25,64.222656,176.568334)"/>
<path style="fill:none;stroke-width:0.6;stroke-linecap:butt;stroke-linejoin:round;stroke:rgb(0%,0%,0%);stroke-opacity:1;stroke-miterlimit:4;" d="M 0 -0.001543 L -2 -0.001543 " transform="matrix(1.25,0,0,1.25,64.222656,170.466772)"/>
<path style="fill:none;stroke-width:0.6;stroke-linecap:butt;stroke-linejoin:round;stroke:rgb(0%,0%,0%);stroke-opacity:1;stroke-miterlimit:4;" d="M 0 -0.000741 L -2 -0.000741 " transform="matrix(1.25,0,0,1.25,64.222656,166.137645)"/>
<path style="fill:none;stroke-width:0.6;stroke-linecap:butt;stroke-linejoin:round;stroke:rgb(0%,0%,0%);stroke-opacity:1;stroke-miterlimit:4;" d="M 0 0.00123 L -2 0.00123 " transform="matrix(1.25,0,0,1.25,64.222656,162.779712)"/>
<path style="fill:none;stroke-width:0.6;stroke-linecap:butt;stroke-linejoin:round;stroke:rgb(0%,0%,0%);stroke-opacity:1;stroke-miterlimit:4;" d="M 0 -0.000741 L -2 -0.000741 " transform="matrix(1.25,0,0,1.25,64.222656,160.036082)"/>
<path style="fill:none;stroke-width:0.6;stroke-linecap:butt;stroke-linejoin:round;stroke:rgb(0%,0%,0%);stroke-opacity:1;stroke-miterlimit:4;" d="M 0 -0.001226 L -2 -0.001226 " transform="matrix(1.25,0,0,1.25,64.222656,157.716376)"/>
<path style="fill:none;stroke-width:0.6;stroke-linecap:butt;stroke-linejoin:round;stroke:rgb(0%,0%,0%);stroke-opacity:1;stroke-miterlimit:4;" d="M 0 0.000061 L -2 0.000061 " transform="matrix(1.25,0,0,1.25,64.222656,155.706955)"/>
<path style="fill:none;stroke-width:0.6;stroke-linecap:butt;stroke-linejoin:round;stroke:rgb(0%,0%,0%);stroke-opacity:1;stroke-miterlimit:4;" d="M 0 -0.000741 L -2 -0.000741 " transform="matrix(1.25,0,0,1.25,64.222656,153.93452)"/>
<path style="fill:none;stroke-width:0.6;stroke-linecap:butt;stroke-linejoin:round;stroke:rgb(0%,0%,0%);stroke-opacity:1;stroke-miterlimit:4;" d="M 0 -0.000292 L -2 -0.000292 " transform="matrix(1.25,0,0,1.25,64.222656,141.918334)"/>
<path style="fill:none;stroke-width:0.6;stroke-linecap:butt;stroke-linejoin:round;stroke:rgb(0%,0%,0%);stroke-opacity:1;stroke-miterlimit:4;" d="M 0 -0.000293 L -2 -0.000293 " transform="matrix(1.25,0,0,1.25,64.222656,135.816772)"/>
<path style="fill:none;stroke-width:0.6;stroke-linecap:butt;stroke-linejoin:round;stroke:rgb(0%,0%,0%);stroke-opacity:1;stroke-miterlimit:4;" d="M 0 0.000509 L -2 0.000509 " transform="matrix(1.25,0,0,1.25,64.222656,131.487645)"/>
<path style="fill:none;stroke-width:0.6;stroke-linecap:butt;stroke-linejoin:round;stroke:rgb(0%,0%,0%);stroke-opacity:1;stroke-miterlimit:4;" d="M 0 -0.000645 L -2 -0.000645 " transform="matrix(1.25,0,0,1.25,64.222656,128.129712)"/>
<path style="fill:none;stroke-width:0.6;stroke-linecap:butt;stroke-linejoin:round;stroke:rgb(0%,0%,0%);stroke-opacity:1;stroke-miterlimit:4;" d="M 0 0.000509 L -2 0.000509 " transform="matrix(1.25,0,0,1.25,64.222656,125.386082)"/>
<path style="fill:none;stroke-width:0.6;stroke-linecap:butt;stroke-linejoin:round;stroke:rgb(0%,0%,0%);stroke-opacity:1;stroke-miterlimit:4;" d="M 0 0.000024 L -2 0.000024 " transform="matrix(1.25,0,0,1.25,64.222656,123.066376)"/>
<path style="fill:none;stroke-width:0.6;stroke-linecap:butt;stroke-linejoin:round;stroke:rgb(0%,0%,0%);stroke-opacity:1;stroke-miterlimit:4;" d="M 0 0.001311 L -2 0.001311 " transform="matrix(1.25,0,0,1.25,64.222656,121.056955)"/>
<path style="fill:none;stroke-width:0.6;stroke-linecap:butt;stroke-linejoin:round;stroke:rgb(0%,0%,0%);stroke-opacity:1;stroke-miterlimit:4;" d="M 0 0.000509 L -2 0.000509 " transform="matrix(1.25,0,0,1.25,64.222656,119.28452)"/>
<path style="fill:none;stroke-width:0.6;stroke-linecap:butt;stroke-linejoin:round;stroke:rgb(0%,0%,0%);stroke-opacity:1;stroke-miterlimit:4;" d="M 0 0.000958 L -2 0.000958 " transform="matrix(1.25,0,0,1.25,64.222656,107.268334)"/>
<path style="fill:none;stroke-width:0.6;stroke-linecap:butt;stroke-linejoin:round;stroke:rgb(0%,0%,0%);stroke-opacity:1;stroke-miterlimit:4;" d="M 0 0.000957 L -2 0.000957 " transform="matrix(1.25,0,0,1.25,64.222656,101.166772)"/>
<path style="fill:none;stroke-width:0.6;stroke-linecap:butt;stroke-linejoin:round;stroke:rgb(0%,0%,0%);stroke-opacity:1;stroke-miterlimit:4;" d="M 0 -0.001366 L -2 -0.001366 " transform="matrix(1.25,0,0,1.25,64.222656,96.837645)"/>
<path style="fill:none;stroke-width:0.6;stroke-linecap:butt;stroke-linejoin:round;stroke:rgb(0%,0%,0%);stroke-opacity:1;stroke-miterlimit:4;" d="M 0 0.000605 L -2 0.000605 " transform="matrix(1.25,0,0,1.25,64.222656,93.479712)"/>
<path style="fill:none;stroke-width:0.6;stroke-linecap:butt;stroke-linejoin:round;stroke:rgb(0%,0%,0%);stroke-opacity:1;stroke-miterlimit:4;" d="M 0 -0.001366 L -2 -0.001366 " transform="matrix(1.25,0,0,1.25,64.222656,90.736082)"/>
<path style="fill:none;stroke-width:0.6;stroke-linecap:butt;stroke-linejoin:round;stroke:rgb(0%,0%,0%);stroke-opacity:1;stroke-miterlimit:4;" d="M 0 0.001274 L -2 0.001274 " transform="matrix(1.25,0,0,1.25,64.222656,88.416376)"/>
<path style="fill:none;stroke-width:0.6;stroke-linecap:butt;stroke-linejoin:round;stroke:rgb(0%,0%,0%);stroke-opacity:1;stroke-miterlimit:4;" d="M 0 -0.000564 L -2 -0.000564 " transform="matrix(1.25,0,0,1.25,64.222656,86.406955)"/>
<path style="fill:none;stroke-width:0.6;stroke-linecap:butt;stroke-linejoin:round;stroke:rgb(0%,0%,0%);stroke-opacity:1;stroke-miterlimit:4;" d="M 0 -0.001366 L -2 -0.001366 " transform="matrix(1.25,0,0,1.25,64.222656,84.63452)"/>
<path style="fill:none;stroke-width:0.6;stroke-linecap:butt;stroke-linejoin:round;stroke:rgb(0%,0%,0%);stroke-opacity:1;stroke-miterlimit:4;" d="M 0 -0.000917 L -2 -0.000917 " transform="matrix(1.25,0,0,1.25,64.222656,72.618334)"/>
<path style="fill:none;stroke-width:0.6;stroke-linecap:butt;stroke-linejoin:round;stroke:rgb(0%,0%,0%);stroke-opacity:1;stroke-miterlimit:4;" d="M 0 -0.000918 L -2 -0.000918 " transform="matrix(1.25,0,0,1.25,64.222656,66.516772)"/>
<path style="fill:none;stroke-width:0.6;stroke-linecap:butt;stroke-linejoin:round;stroke:rgb(0%,0%,0%);stroke-opacity:1;stroke-miterlimit:4;" d="M 0 -0.000116 L -2 -0.000116 " transform="matrix(1.25,0,0,1.25,64.222656,62.187645)"/>
<path style="fill:none;stroke-width:0.6;stroke-linecap:butt;stroke-linejoin:round;stroke:rgb(0%,0%,0%);stroke-opacity:1;stroke-miterlimit:4;" d="M 0 -0.00127 L -2 -0.00127 " transform="matrix(1.25,0,0,1.25,64.222656,58.829712)"/>
<path style="fill:none;stroke-width:0.6;stroke-linecap:butt;stroke-linejoin:round;stroke:rgb(0%,0%,0%);stroke-opacity:1;stroke-miterlimit:4;" d="M 0 -0.000116 L -2 -0.000116 " transform="matrix(1.25,0,0,1.25,64.222656,56.086082)"/>
<path style="fill:none;stroke-width:0.6;stroke-linecap:butt;stroke-linejoin:round;stroke:rgb(0%,0%,0%);stroke-opacity:1;stroke-miterlimit:4;" d="M 0 -0.000601 L -2 -0.000601 " transform="matrix(1.25,0,0,1.25,64.222656,53.766376)"/>
<path style="fill:none;stroke-width:0.6;stroke-linecap:butt;stroke-linejoin:round;stroke:rgb(0%,0%,0%);stroke-opacity:1;stroke-miterlimit:4;" d="M 0 0.000686 L -2 0.000686 " transform="matrix(1.25,0,0,1.25,64.222656,51.756955)"/>
<path style="fill:none;stroke-width:0.6;stroke-linecap:butt;stroke-linejoin:round;stroke:rgb(0%,0%,0%);stroke-opacity:1;stroke-miterlimit:4;" d="M 0 -0.000116 L -2 -0.000116 " transform="matrix(1.25,0,0,1.25,64.222656,49.98452)"/>
<path style="fill:none;stroke-width:0.6;stroke-linecap:butt;stroke-linejoin:round;stroke:rgb(0%,0%,0%);stroke-opacity:1;stroke-miterlimit:4;" d="M 0 0.000333 L -2 0.000333 " transform="matrix(1.25,0,0,1.25,64.222656,37.968334)"/>
<path style="fill:none;stroke-width:0.6;stroke-linecap:butt;stroke-linejoin:round;stroke:rgb(0%,0%,0%);stroke-opacity:1;stroke-miterlimit:4;" d="M 0 0.000332 L -2 0.000332 " transform="matrix(1.25,0,0,1.25,64.222656,31.866772)"/>
<path style="fill:none;stroke-width:0.6;stroke-linecap:butt;stroke-linejoin:round;stroke:rgb(0%,0%,0%);stroke-opacity:1;stroke-miterlimit:4;" d="M 0 0.001134 L -2 0.001134 " transform="matrix(1.25,0,0,1.25,64.222656,27.537645)"/>
<path style="fill:none;stroke-width:0.6;stroke-linecap:butt;stroke-linejoin:round;stroke:rgb(0%,0%,0%);stroke-opacity:1;stroke-miterlimit:4;" d="M 0 -0.00002 L -2 -0.00002 " transform="matrix(1.25,0,0,1.25,64.222656,24.179712)"/>
<path style="fill:none;stroke-width:0.6;stroke-linecap:butt;stroke-linejoin:round;stroke:rgb(0%,0%,0%);stroke-opacity:1;stroke-miterlimit:4;" d="M 0 0.001134 L -2 0.001134 " transform="matrix(1.25,0,0,1.25,64.222656,21.436082)"/>
<path style="fill:none;stroke-width:0.6;stroke-linecap:butt;stroke-linejoin:round;stroke:rgb(0%,0%,0%);stroke-opacity:1;stroke-miterlimit:4;" d="M 0 0.000649 L -2 0.000649 " transform="matrix(1.25,0,0,1.25,64.222656,19.116376)"/>
<path style="fill:none;stroke-width:0.6;stroke-linecap:butt;stroke-linejoin:round;stroke:rgb(0%,0%,0%);stroke-opacity:1;stroke-miterlimit:4;" d="M 0 -0.001189 L -2 -0.001189 " transform="matrix(1.25,0,0,1.25,64.222656,17.106955)"/>
<path style="fill:none;stroke-width:0.6;stroke-linecap:butt;stroke-linejoin:round;stroke:rgb(0%,0%,0%);stroke-opacity:1;stroke-miterlimit:4;" d="M 0 0.001134 L -2 0.001134 " transform="matrix(1.25,0,0,1.25,64.222656,15.33452)"/>
<path style=" stroke:none;fill-rule:nonzero;fill:rgb(0%,0%,0%);fill-opacity:1;" d="M 9 111.269531 L 9 110.144531 L 18.496094 110.144531 L 18.496094 111.269531 Z M 9 111.269531 "/>
<path style=" stroke:none;fill-rule:nonzero;fill:rgb(0%,0%,0%);fill-opacity:1;" d="M 12.449219 105.148438 C 12.449219 105.75 12.683594 106.226562 13.152344 106.574219 C 13.625 106.925781 14.269531 107.101562 15.085938 107.101562 C 15.902344 107.101562 16.546875 106.925781 17.015625 106.578125 C 17.488281 106.230469 17.722656 105.753906 17.722656 105.148438 C 17.722656 104.546875 17.488281 104.074219 17.015625 103.726562 C 16.542969 103.375 15.898438 103.199219 15.085938 103.199219 C 14.277344 103.199219 13.632812 103.375 13.160156 103.726562 C 12.6875 104.074219 12.449219 104.546875 12.449219 105.148438 Z M 11.496094 105.148438 C 11.496094 104.171875 11.816406 103.402344 12.449219 102.847656 C 13.085938 102.289062 13.964844 102.007812 15.085938 102.007812 C 16.203125 102.007812 17.082031 102.289062 17.71875 102.847656 C 18.355469 103.402344 18.675781 104.171875 18.675781 105.148438 C 18.675781 106.128906 18.355469 106.894531 17.71875 107.453125 C 17.082031 108.007812 16.203125 108.285156 15.085938 108.285156 C 13.964844 108.285156 13.085938 108.007812 12.449219 107.453125 C 11.816406 106.894531 11.496094 106.128906 11.496094 105.148438 Z M 11.496094 105.148438 "/>
<path style=" stroke:none;fill-rule:nonzero;fill:rgb(0%,0%,0%);fill-opacity:1;" d="M 11.863281 95.789062 L 12.925781 95.789062 C 12.761719 96.105469 12.640625 96.4375 12.558594 96.777344 C 12.476562 97.121094 12.4375 97.472656 12.4375 97.839844 C 12.4375 98.398438 12.523438 98.816406 12.691406 99.09375 C 12.863281 99.375 13.121094 99.511719 13.460938 99.511719 C 13.722656 99.511719 13.925781 99.414062 14.074219 99.214844 C 14.222656 99.015625 14.367188 98.613281 14.5 98.011719 L 14.585938 97.625 C 14.757812 96.828125 14.996094 96.261719 15.308594 95.925781 C 15.621094 95.589844 16.054688 95.421875 16.609375 95.421875 C 17.246094 95.421875 17.75 95.675781 18.121094 96.175781 C 18.492188 96.679688 18.675781 97.371094 18.675781 98.25 C 18.675781 98.617188 18.640625 98.996094 18.566406 99.394531 C 18.496094 99.792969 18.390625 100.210938 18.246094 100.648438 L 17.085938 100.648438 C 17.304688 100.234375 17.464844 99.824219 17.574219 99.421875 C 17.679688 99.019531 17.734375 98.621094 17.734375 98.222656 C 17.734375 97.695312 17.644531 97.289062 17.460938 97.003906 C 17.28125 96.71875 17.027344 96.578125 16.695312 96.578125 C 16.390625 96.578125 16.160156 96.679688 15.996094 96.886719 C 15.832031 97.089844 15.675781 97.542969 15.523438 98.238281 L 15.433594 98.628906 C 15.289062 99.324219 15.0625 99.828125 14.757812 100.136719 C 14.457031 100.445312 14.039062 100.597656 13.511719 100.597656 C 12.867188 100.597656 12.371094 100.371094 12.023438 99.914062 C 11.671875 99.460938 11.496094 98.8125 11.496094 97.972656 C 11.496094 97.558594 11.527344 97.171875 11.589844 96.804688 C 11.648438 96.4375 11.742188 96.097656 11.863281 95.789062 Z M 11.863281 95.789062 "/>
<path style=" stroke:none;fill-rule:nonzero;fill:rgb(0%,0%,0%);fill-opacity:1;" d="M 11.863281 89.277344 L 12.925781 89.277344 C 12.761719 89.59375 12.640625 89.925781 12.558594 90.265625 C 12.476562 90.609375 12.4375 90.960938 12.4375 91.328125 C 12.4375 91.886719 12.523438 92.304688 12.691406 92.582031 C 12.863281 92.863281 13.121094 93 13.460938 93 C 13.722656 93 13.925781 92.902344 14.074219 92.703125 C 14.222656 92.503906 14.367188 92.101562 14.5 91.5 L 14.585938 91.113281 C 14.757812 90.316406 14.996094 89.75 15.308594 89.414062 C 15.621094 89.078125 16.054688 88.910156 16.609375 88.910156 C 17.246094 88.910156 17.75 89.164062 18.121094 89.664062 C 18.492188 90.167969 18.675781 90.859375 18.675781 91.738281 C 18.675781 92.101562 18.640625 92.484375 18.566406 92.882812 C 18.496094 93.277344 18.390625 93.695312 18.246094 94.136719 L 17.085938 94.136719 C 17.304688 93.71875 17.464844 93.3125 17.574219 92.910156 C 17.679688 92.507812 17.734375 92.109375 17.734375 91.710938 C 17.734375 91.183594 17.644531 90.777344 17.460938 90.492188 C 17.28125 90.207031 17.027344 90.066406 16.695312 90.066406 C 16.390625 90.066406 16.160156 90.167969 15.996094 90.375 C 15.832031 90.578125 15.675781 91.027344 15.523438 91.726562 L 15.433594 92.117188 C 15.289062 92.8125 15.0625 93.3125 14.757812 93.625 C 14.457031 93.933594 14.039062 94.085938 13.511719 94.085938 C 12.867188 94.085938 12.371094 93.859375 12.023438 93.402344 C 11.671875 92.949219 11.496094 92.300781 11.496094 91.460938 C 11.496094 91.046875 11.527344 90.65625 11.589844 90.292969 C 11.648438 89.925781 11.742188 89.585938 11.863281 89.277344 Z M 11.863281 89.277344 "/>
<g clip-path="url(#clip13)" clip-rule="nonzero">
<path style="fill:none;stroke-width:1.5;stroke-linecap:square;stroke-linejoin:round;stroke:rgb(12.156863%,46.666667%,70.588235%);stroke-opacity:1;stroke-miterlimit:4;" d="M 51.378125 32.334375 L 53.853125 60.15625 L 56.459375 74.925 L 59.065625 84.8625 L 61.671875 90.840625 L 64.275 94.696875 L 66.88125 97.509375 L 69.4875 99.69375 L 72.09375 101.43125 L 74.7 102.834375 L 77.30625 103.99375 L 79.9125 104.971875 L 82.515625 105.825 L 85.121875 106.59375 L 87.728125 107.303125 L 90.334375 107.96875 L 92.940625 108.60625 L 95.546875 109.221875 L 98.15 109.821875 L 100.75625 110.409375 L 103.3625 110.984375 L 105.96875 111.553125 L 108.575 112.109375 L 111.18125 112.659375 L 113.784375 113.20625 L 116.390625 113.740625 L 118.996875 114.26875 L 121.603125 114.790625 L 124.209375 115.303125 L 126.815625 115.809375 L 129.41875 116.30625 L 132.025 116.79375 L 134.63125 117.275 L 137.2375 117.746875 L 139.84375 118.2125 L 142.45 118.665625 L 145.053125 119.109375 L 147.659375 119.546875 L 150.265625 119.971875 L 152.871875 120.390625 L 155.478125 120.796875 L 158.084375 121.196875 L 160.6875 121.58125 L 163.29375 121.9625 L 165.9 122.33125 L 168.50625 122.6875 L 171.1125 123.0375 L 173.71875 123.375 L 176.321875 123.703125 L 178.928125 124.021875 L 181.534375 124.33125 L 184.140625 124.63125 L 186.746875 124.91875 L 189.353125 125.2 L 191.95625 125.46875 L 194.5625 125.73125 L 197.16875 125.98125 L 199.775 126.225 L 202.38125 126.459375 L 204.9875 126.68125 L 207.590625 126.9 L 210.196875 127.10625 L 212.803125 127.30625 L 215.409375 127.496875 L 218.015625 127.68125 L 220.621875 127.859375 L 223.225 128.028125 L 225.83125 128.1875 L 228.4375 128.34375 L 231.04375 128.490625 L 233.65 128.63125 L 236.25625 128.76875 L 238.859375 128.896875 L 241.465625 129.021875 L 244.071875 129.1375 L 246.678125 129.25 " transform="matrix(1.25,0,0,1.25,0,0)"/>
</g>
<g clip-path="url(#clip14)" clip-rule="nonzero">
<path style="fill:none;stroke-width:1.5;stroke-linecap:butt;stroke-linejoin:round;stroke:rgb(74.901961%,0%,74.901961%);stroke-opacity:1;stroke-dasharray:5.55,2.4;stroke-miterlimit:4;" d="M 51.378125 27.984375 L 53.853125 56.05625 L 56.459375 66.353125 L 59.065625 69.915625 L 61.671875 71.990625 L 64.275 74.009375 L 66.88125 76.003125 L 69.4875 77.88125 L 72.09375 79.653125 L 74.7 81.21875 L 77.30625 82.659375 L 79.9125 83.925 L 82.515625 85.109375 L 85.121875 86.2 L 87.728125 87.215625 L 90.334375 88.20625 L 92.940625 89.11875 L 95.546875 90.00625 L 98.15 90.89375 L 100.75625 91.709375 L 103.3625 92.55 L 105.96875 93.334375 L 108.575 94.146875 L 111.18125 94.978125 L 113.784375 95.725 L 116.390625 96.471875 L 118.996875 97.228125 L 121.603125 97.934375 L 124.209375 98.675 L 126.815625 99.35625 L 129.41875 100.059375 L 132.025 100.725 L 134.63125 101.36875 L 137.2375 102.071875 L 139.84375 102.6125 L 142.45 103.215625 L 145.053125 103.8 L 147.659375 104.33125 L 150.265625 104.89375 L 152.871875 105.3375 L 155.478125 105.803125 L 158.084375 106.25625 L 160.6875 106.690625 L 163.29375 107.053125 L 165.9 107.409375 L 168.50625 107.73125 L 171.1125 108.01875 L 173.71875 108.309375 L 176.321875 108.5625 L 178.928125 108.73125 L 181.534375 108.9625 L 184.140625 109.134375 L 186.746875 109.234375 L 189.353125 109.359375 L 191.95625 109.478125 L 194.5625 109.575 L 197.16875 109.58125 L 199.775 109.675 L 202.38125 109.684375 L 204.9875 109.68125 L 207.590625 109.696875 L 210.196875 109.690625 L 212.803125 109.6625 L 215.409375 109.621875 L 218.015625 109.596875 L 220.621875 109.515625 L 223.225 109.421875 L 225.83125 109.378125 L 228.4375 109.321875 L 231.04375 109.228125 L 233.65 109.146875 L 236.25625 109.05 L 238.859375 108.96875 L 241.465625 108.875 L 244.071875 108.778125 L 246.678125 108.7125 " transform="matrix(1.25,0,0,1.25,0,0)"/>
</g>
<path style="fill:none;stroke-width:0.8;stroke-linecap:square;stroke-linejoin:miter;stroke:rgb(0%,0%,0%);stroke-opacity:1;stroke-miterlimit:4;" d="M 51.378125 149.6 L 51.378125 11 " transform="matrix(1.25,0,0,1.25,0,0)"/>
<path style="fill:none;stroke-width:0.8;stroke-linecap:square;stroke-linejoin:miter;stroke:rgb(0%,0%,0%);stroke-opacity:1;stroke-miterlimit:4;" d="M 246.678125 149.6 L 246.678125 11 " transform="matrix(1.25,0,0,1.25,0,0)"/>
<path style="fill:none;stroke-width:0.8;stroke-linecap:square;stroke-linejoin:miter;stroke:rgb(0%,0%,0%);stroke-opacity:1;stroke-miterlimit:4;" d="M 51.378125 149.6 L 246.678125 149.6 " transform="matrix(1.25,0,0,1.25,0,0)"/>
<path style="fill:none;stroke-width:0.8;stroke-linecap:square;stroke-linejoin:miter;stroke:rgb(0%,0%,0%);stroke-opacity:1;stroke-miterlimit:4;" d="M 51.378125 11 L 246.678125 11 " transform="matrix(1.25,0,0,1.25,0,0)"/>
<use xlink:href="#surface5" mask="url(#mask0)"/>
<path style="fill:none;stroke-width:1.5;stroke-linecap:square;stroke-linejoin:round;stroke:rgb(12.156863%,46.666667%,70.588235%);stroke-opacity:1;stroke-miterlimit:4;" d="M 186.403125 24.096875 L 206.403125 24.096875 " transform="matrix(1.25,0,0,1.25,0,0)"/>
<path style=" stroke:none;fill-rule:nonzero;fill:rgb(0%,0%,0%);fill-opacity:1;" d="M 270.292969 25.71875 L 270.292969 27.660156 L 272.605469 27.660156 L 272.605469 28.535156 L 270.292969 28.535156 L 270.292969 32.246094 C 270.292969 32.800781 270.367188 33.160156 270.523438 33.320312 C 270.671875 33.476562 270.984375 33.558594 271.453125 33.558594 L 272.605469 33.558594 L 272.605469 34.496094 L 271.453125 34.496094 C 270.585938 34.496094 269.988281 34.335938 269.65625 34.011719 C 269.328125 33.6875 269.164062 33.097656 269.164062 32.246094 L 269.164062 28.535156 L 268.339844 28.535156 L 268.339844 27.660156 L 269.164062 27.660156 L 269.164062 25.71875 Z M 270.292969 25.71875 "/>
<path style=" stroke:none;fill-rule:nonzero;fill:rgb(0%,0%,0%);fill-opacity:1;" d="M 278.042969 28.710938 C 277.917969 28.636719 277.78125 28.582031 277.632812 28.550781 C 277.484375 28.515625 277.320312 28.496094 277.140625 28.496094 C 276.507812 28.496094 276.019531 28.703125 275.679688 29.117188 C 275.339844 29.527344 275.167969 30.121094 275.167969 30.894531 L 275.167969 34.496094 L 274.039062 34.496094 L 274.039062 27.660156 L 275.167969 27.660156 L 275.167969 28.722656 C 275.40625 28.308594 275.714844 28 276.089844 27.800781 C 276.46875 27.597656 276.929688 27.496094 277.472656 27.496094 C 277.546875 27.496094 277.632812 27.503906 277.726562 27.511719 C 277.820312 27.523438 277.925781 27.535156 278.039062 27.558594 Z M 278.042969 28.710938 "/>
<path style=" stroke:none;fill-rule:nonzero;fill:rgb(0%,0%,0%);fill-opacity:1;" d="M 282.328125 31.0625 C 281.421875 31.0625 280.792969 31.164062 280.441406 31.371094 C 280.09375 31.578125 279.917969 31.933594 279.917969 32.433594 C 279.917969 32.832031 280.046875 33.148438 280.3125 33.382812 C 280.574219 33.617188 280.929688 33.734375 281.382812 33.734375 C 282.003906 33.734375 282.503906 33.511719 282.882812 33.070312 C 283.257812 32.628906 283.445312 32.042969 283.445312 31.3125 L 283.445312 31.0625 Z M 284.570312 30.597656 L 284.570312 34.496094 L 283.445312 34.496094 L 283.445312 33.460938 C 283.191406 33.875 282.871094 34.179688 282.488281 34.378906 C 282.105469 34.574219 281.636719 34.675781 281.082031 34.675781 C 280.382812 34.675781 279.828125 34.476562 279.414062 34.085938 C 279 33.691406 278.792969 33.164062 278.792969 32.507812 C 278.792969 31.738281 279.050781 31.160156 279.566406 30.769531 C 280.082031 30.378906 280.847656 30.183594 281.871094 30.183594 L 283.445312 30.183594 L 283.445312 30.070312 C 283.445312 29.554688 283.277344 29.15625 282.9375 28.871094 C 282.597656 28.589844 282.121094 28.449219 281.503906 28.449219 C 281.113281 28.449219 280.734375 28.496094 280.363281 28.589844 C 279.992188 28.683594 279.636719 28.824219 279.296875 29.011719 L 279.296875 27.972656 C 279.707031 27.8125 280.105469 27.695312 280.492188 27.617188 C 280.878906 27.535156 281.253906 27.496094 281.621094 27.496094 C 282.609375 27.496094 283.347656 27.753906 283.835938 28.265625 C 284.324219 28.777344 284.570312 29.554688 284.570312 30.597656 Z M 284.570312 30.597656 "/>
<path style=" stroke:none;fill-rule:nonzero;fill:rgb(0%,0%,0%);fill-opacity:1;" d="M 286.882812 27.660156 L 288.003906 27.660156 L 288.003906 34.496094 L 286.882812 34.496094 Z M 286.882812 25 L 288.003906 25 L 288.003906 26.421875 L 286.882812 26.421875 Z M 286.882812 25 "/>
<path style=" stroke:none;fill-rule:nonzero;fill:rgb(0%,0%,0%);fill-opacity:1;" d="M 296.039062 30.371094 L 296.039062 34.496094 L 294.914062 34.496094 L 294.914062 30.40625 C 294.914062 29.761719 294.789062 29.277344 294.535156 28.957031 C 294.285156 28.632812 293.90625 28.472656 293.402344 28.472656 C 292.792969 28.472656 292.316406 28.667969 291.964844 29.054688 C 291.617188 29.4375 291.441406 29.964844 291.441406 30.632812 L 291.441406 34.496094 L 290.3125 34.496094 L 290.3125 27.660156 L 291.441406 27.660156 L 291.441406 28.722656 C 291.710938 28.3125 292.027344 28.003906 292.390625 27.800781 C 292.753906 27.597656 293.175781 27.496094 293.652344 27.496094 C 294.4375 27.496094 295.03125 27.738281 295.433594 28.226562 C 295.835938 28.710938 296.039062 29.425781 296.039062 30.371094 Z M 296.039062 30.371094 "/>
<path style="fill:none;stroke-width:1.5;stroke-linecap:butt;stroke-linejoin:round;stroke:rgb(74.901961%,0%,74.901961%);stroke-opacity:1;stroke-dasharray:5.55,2.4;stroke-miterlimit:4;" d="M 186.403125 38.775 L 206.403125 38.775 " transform="matrix(1.25,0,0,1.25,0,0)"/>
<path style=" stroke:none;fill-rule:nonzero;fill:rgb(0%,0%,0%);fill-opacity:1;" d="M 270.292969 44.066406 L 270.292969 46.007812 L 272.605469 46.007812 L 272.605469 46.882812 L 270.292969 46.882812 L 270.292969 50.59375 C 270.292969 51.148438 270.367188 51.507812 270.523438 51.667969 C 270.671875 51.824219 270.984375 51.90625 271.453125 51.90625 L 272.605469 51.90625 L 272.605469 52.84375 L 271.453125 52.84375 C 270.585938 52.84375 269.988281 52.683594 269.65625 52.359375 C 269.328125 52.035156 269.164062 51.445312 269.164062 50.59375 L 269.164062 46.882812 L 268.339844 46.882812 L 268.339844 46.007812 L 269.164062 46.007812 L 269.164062 44.066406 Z M 270.292969 44.066406 "/>
<path style=" stroke:none;fill-rule:nonzero;fill:rgb(0%,0%,0%);fill-opacity:1;" d="M 279.929688 49.144531 L 279.929688 49.695312 L 274.765625 49.695312 C 274.816406 50.46875 275.050781 51.058594 275.464844 51.460938 C 275.882812 51.867188 276.464844 52.070312 277.207031 52.070312 C 277.640625 52.070312 278.058594 52.015625 278.460938 51.910156 C 278.867188 51.804688 279.269531 51.648438 279.667969 51.433594 L 279.667969 52.496094 C 279.265625 52.667969 278.851562 52.796875 278.429688 52.886719 C 278.003906 52.976562 277.578125 53.023438 277.140625 53.023438 C 276.050781 53.023438 275.1875 52.707031 274.550781 52.070312 C 273.914062 51.4375 273.59375 50.578125 273.59375 49.492188 C 273.59375 48.375 273.898438 47.488281 274.5 46.832031 C 275.105469 46.171875 275.921875 45.84375 276.945312 45.84375 C 277.867188 45.84375 278.59375 46.140625 279.128906 46.734375 C 279.664062 47.324219 279.929688 48.128906 279.929688 49.144531 Z M 278.808594 48.816406 C 278.800781 48.203125 278.628906 47.710938 278.292969 47.347656 C 277.957031 46.980469 277.511719 46.796875 276.957031 46.796875 C 276.332031 46.796875 275.832031 46.972656 275.453125 47.328125 C 275.078125 47.679688 274.859375 48.179688 274.804688 48.824219 Z M 278.808594 48.816406 "/>
<path style=" stroke:none;fill-rule:nonzero;fill:rgb(0%,0%,0%);fill-opacity:1;" d="M 286.128906 46.210938 L 286.128906 47.273438 C 285.8125 47.109375 285.484375 46.988281 285.140625 46.90625 C 284.800781 46.824219 284.445312 46.785156 284.078125 46.785156 C 283.523438 46.785156 283.105469 46.871094 282.824219 47.039062 C 282.546875 47.210938 282.40625 47.46875 282.40625 47.808594 C 282.40625 48.070312 282.507812 48.273438 282.707031 48.421875 C 282.90625 48.570312 283.308594 48.710938 283.910156 48.847656 L 284.292969 48.933594 C 285.089844 49.101562 285.65625 49.34375 285.992188 49.65625 C 286.328125 49.964844 286.496094 50.402344 286.496094 50.957031 C 286.496094 51.59375 286.246094 52.097656 285.742188 52.46875 C 285.242188 52.835938 284.550781 53.023438 283.671875 53.023438 C 283.304688 53.023438 282.925781 52.988281 282.527344 52.914062 C 282.128906 52.84375 281.710938 52.738281 281.273438 52.59375 L 281.273438 51.433594 C 281.6875 51.652344 282.097656 51.8125 282.5 51.921875 C 282.902344 52.027344 283.300781 52.082031 283.695312 52.082031 C 284.226562 52.082031 284.632812 51.992188 284.914062 51.808594 C 285.199219 51.628906 285.34375 51.375 285.34375 51.042969 C 285.34375 50.738281 285.242188 50.503906 285.035156 50.34375 C 284.832031 50.179688 284.378906 50.023438 283.683594 49.871094 L 283.292969 49.78125 C 282.597656 49.632812 282.09375 49.410156 281.785156 49.105469 C 281.476562 48.804688 281.320312 48.386719 281.320312 47.859375 C 281.320312 47.214844 281.550781 46.71875 282.003906 46.371094 C 282.460938 46.019531 283.109375 45.84375 283.945312 45.84375 C 284.359375 45.84375 284.75 45.875 285.117188 45.9375 C 285.484375 45.996094 285.820312 46.085938 286.128906 46.210938 Z M 286.128906 46.210938 "/>
<path style=" stroke:none;fill-rule:nonzero;fill:rgb(0%,0%,0%);fill-opacity:1;" d="M 289.398438 44.066406 L 289.398438 46.007812 L 291.710938 46.007812 L 291.710938 46.882812 L 289.398438 46.882812 L 289.398438 50.59375 C 289.398438 51.148438 289.472656 51.507812 289.625 51.667969 C 289.777344 51.824219 290.089844 51.90625 290.558594 51.90625 L 291.710938 51.90625 L 291.710938 52.84375 L 290.558594 52.84375 C 289.691406 52.84375 289.089844 52.683594 288.761719 52.359375 C 288.433594 52.035156 288.269531 51.445312 288.269531 50.59375 L 288.269531 46.882812 L 287.445312 46.882812 L 287.445312 46.007812 L 288.269531 46.007812 L 288.269531 44.066406 Z M 289.398438 44.066406 "/>
</g>
</svg>
