<?xml version="1.0" encoding="UTF-8"?>
<svg xmlns="http://www.w3.org/2000/svg" xmlns:xlink="http://www.w3.org/1999/xlink" width="320" height="188" viewBox="0 0 320 188" version="1.1">
<g id="surface1">
<path style="fill:none;stroke-width:1;stroke-linecap:round;stroke-linejoin:round;stroke:rgb(0%,0%,0%);stroke-opacity:1;stroke-miterlimit:10;" d="M 203.899414 516.399414 L 227.899414 516.399414 L 227.899414 540.399414 L 203.899414 540.399414 Z M 203.899414 516.399414 " transform="matrix(1.333333,0,0,1.333333,-106.666667,-585.333333)"/>
<path style=" stroke:none;fill-rule:nonzero;fill:rgb(0%,0%,0%);fill-opacity:1;" d="M 183.636719 123.199219 L 183.636719 122.910156 C 182.78125 122.785156 182.574219 122.660156 182.574219 122.035156 L 182.574219 116.285156 C 182.574219 115.636719 182.824219 115.449219 183.636719 115.386719 L 183.636719 115.097656 L 179.574219 115.097656 L 179.574219 115.386719 C 180.40625 115.449219 180.636719 115.597656 180.636719 116.285156 L 180.636719 118.722656 L 177.742188 118.722656 L 177.742188 116.285156 C 177.742188 115.597656 177.96875 115.449219 178.824219 115.386719 L 178.824219 115.097656 L 174.78125 115.097656 L 174.78125 115.386719 C 175.59375 115.449219 175.804688 115.617188 175.804688 116.285156 L 175.804688 122.035156 C 175.804688 122.660156 175.617188 122.785156 174.78125 122.910156 L 174.78125 123.199219 L 178.824219 123.199219 L 178.824219 122.910156 C 177.949219 122.804688 177.742188 122.660156 177.742188 122.035156 L 177.742188 119.285156 L 180.636719 119.285156 L 180.636719 122.035156 C 180.636719 122.636719 180.449219 122.804688 179.574219 122.910156 L 179.574219 123.199219 Z M 183.636719 123.199219 "/>
<path style=" stroke:none;fill-rule:nonzero;fill:rgb(0%,0%,0%);fill-opacity:1;" d="M 184.347656 123.117188 C 184.679688 122.535156 185.054688 122.261719 185.554688 122.261719 C 186.078125 122.261719 186.410156 122.554688 186.410156 123.097656 C 186.410156 123.574219 186.160156 123.929688 185.765625 124.160156 C 185.597656 124.261719 185.390625 124.347656 185.097656 124.449219 L 185.097656 124.554688 C 185.554688 124.554688 185.722656 124.574219 185.910156 124.636719 C 186.453125 124.804688 186.742188 125.199219 186.742188 125.804688 C 186.742188 126.472656 186.285156 127.035156 185.703125 127.035156 C 185.472656 127.035156 185.304688 126.992188 185.015625 126.785156 C 184.785156 126.617188 184.660156 126.574219 184.515625 126.574219 C 184.347656 126.574219 184.203125 126.679688 184.203125 126.847656 C 184.203125 127.136719 184.515625 127.304688 185.097656 127.304688 C 185.804688 127.304688 186.554688 127.074219 186.953125 126.574219 C 187.179688 126.261719 187.328125 125.867188 187.328125 125.449219 C 187.328125 125.035156 187.179688 124.660156 186.972656 124.410156 C 186.804688 124.242188 186.660156 124.136719 186.304688 123.992188 C 186.828125 123.679688 187.035156 123.261719 187.035156 122.886719 C 187.035156 122.242188 186.535156 121.785156 185.804688 121.785156 C 184.972656 121.785156 184.453125 122.324219 184.222656 123.097656 Z M 184.347656 123.117188 "/>
<path style="fill-rule:nonzero;fill:rgb(69.803923%,85.09804%,100%);fill-opacity:1;stroke-width:1;stroke-linecap:round;stroke-linejoin:round;stroke:rgb(0%,0%,0%);stroke-opacity:1;stroke-miterlimit:10;" d="M 150.766602 554.602539 L 174.766602 554.602539 L 174.766602 578.602539 L 150.766602 578.602539 Z M 150.766602 554.602539 " transform="matrix(1.333333,0,0,1.333333,-106.666667,-585.333333)"/>
<path style=" stroke:none;fill-rule:nonzero;fill:rgb(0%,0%,0%);fill-opacity:1;" d="M 112.414062 171.464844 L 112.414062 171.175781 C 112 171.152344 111.8125 171.007812 111.25 170.132812 L 109.0625 166.738281 L 110.019531 165.402344 C 111.0625 163.945312 111.375 163.738281 112.269531 163.652344 L 112.269531 163.363281 L 109.269531 163.363281 L 109.269531 163.652344 L 109.519531 163.675781 C 109.976562 163.714844 110.144531 163.820312 110.144531 164.089844 C 110.144531 164.363281 110 164.589844 109.4375 165.363281 L 108.769531 166.300781 L 107.601562 164.488281 C 107.457031 164.257812 107.4375 164.195312 107.4375 164.050781 C 107.4375 163.800781 107.5625 163.695312 108 163.675781 L 108.375 163.652344 L 108.375 163.363281 L 104.226562 163.363281 L 104.226562 163.652344 C 104.664062 163.695312 104.8125 163.820312 105.1875 164.339844 L 107.5625 167.839844 L 105.457031 170.488281 C 105.101562 170.945312 104.8125 171.089844 104.207031 171.175781 L 104.207031 171.464844 L 107.207031 171.464844 L 107.207031 171.175781 C 106.476562 171.089844 106.25 170.964844 106.25 170.652344 C 106.25 170.402344 106.476562 170.027344 107.375 168.820312 L 107.832031 168.214844 L 109.039062 170.152344 C 109.1875 170.382812 109.289062 170.652344 109.289062 170.800781 C 109.289062 171.007812 109.082031 171.113281 108.664062 171.132812 L 108.332031 171.175781 L 108.332031 171.464844 Z M 112.414062 171.464844 "/>
<path style=" stroke:none;fill-rule:nonzero;fill:rgb(0%,0%,0%);fill-opacity:1;" d="M 116.476562 175.695312 L 116.371094 175.652344 C 116.101562 176.113281 115.933594 176.195312 115.601562 176.195312 L 113.726562 176.195312 L 115.039062 174.777344 C 115.746094 174.027344 116.058594 173.425781 116.058594 172.800781 C 116.058594 172.007812 115.496094 171.382812 114.578125 171.382812 C 113.601562 171.382812 113.101562 172.050781 112.933594 172.988281 L 113.101562 173.027344 C 113.414062 172.238281 113.683594 171.988281 114.265625 171.988281 C 114.953125 171.988281 115.371094 172.382812 115.371094 173.113281 C 115.371094 173.800781 115.101562 174.402344 114.328125 175.195312 L 112.914062 176.695312 L 112.914062 176.800781 L 116.039062 176.800781 Z M 116.476562 175.695312 "/>
<path style="fill:none;stroke-width:1;stroke-linecap:round;stroke-linejoin:round;stroke:rgb(0%,0%,0%);stroke-opacity:1;stroke-miterlimit:10;" d="M 150.766602 478.199219 L 174.766602 478.199219 L 174.766602 502.199219 L 150.766602 502.199219 Z M 150.766602 478.199219 " transform="matrix(1.333333,0,0,1.333333,-106.666667,-585.333333)"/>
<path style=" stroke:none;fill-rule:nonzero;fill:rgb(0%,0%,0%);fill-opacity:1;" d="M 112.789062 72.265625 L 112.789062 71.976562 C 111.933594 71.851562 111.726562 71.726562 111.726562 71.101562 L 111.726562 65.351562 C 111.726562 64.703125 111.976562 64.515625 112.789062 64.453125 L 112.789062 64.164062 L 108.726562 64.164062 L 108.726562 64.453125 C 109.558594 64.515625 109.789062 64.664062 109.789062 65.351562 L 109.789062 67.789062 L 106.890625 67.789062 L 106.890625 65.351562 C 106.890625 64.664062 107.121094 64.515625 107.976562 64.453125 L 107.976562 64.164062 L 103.933594 64.164062 L 103.933594 64.453125 C 104.746094 64.515625 104.953125 64.683594 104.953125 65.351562 L 104.953125 71.101562 C 104.953125 71.726562 104.765625 71.851562 103.933594 71.976562 L 103.933594 72.265625 L 107.976562 72.265625 L 107.976562 71.976562 C 107.101562 71.871094 106.890625 71.726562 106.890625 71.101562 L 106.890625 68.351562 L 109.789062 68.351562 L 109.789062 71.101562 C 109.789062 71.703125 109.601562 71.871094 108.726562 71.976562 L 108.726562 72.265625 Z M 112.789062 72.265625 "/>
<path style=" stroke:none;fill-rule:nonzero;fill:rgb(0%,0%,0%);fill-opacity:1;" d="M 116.8125 75.164062 L 116.707031 75.121094 C 116.4375 75.578125 116.269531 75.664062 115.9375 75.664062 L 114.0625 75.664062 L 115.375 74.246094 C 116.082031 73.496094 116.394531 72.890625 116.394531 72.265625 C 116.394531 71.476562 115.832031 70.851562 114.914062 70.851562 C 113.9375 70.851562 113.4375 71.515625 113.269531 72.453125 L 113.4375 72.496094 C 113.75 71.703125 114.019531 71.453125 114.601562 71.453125 C 115.289062 71.453125 115.707031 71.851562 115.707031 72.578125 C 115.707031 73.265625 115.4375 73.871094 114.664062 74.664062 L 113.25 76.164062 L 113.25 76.265625 L 116.375 76.265625 Z M 116.8125 75.164062 "/>
<path style="fill:none;stroke-width:1;stroke-linecap:round;stroke-linejoin:round;stroke:rgb(0%,0%,0%);stroke-opacity:1;stroke-miterlimit:10;" d="M 150.766602 516.399414 L 174.766602 516.399414 L 174.766602 540.399414 L 150.766602 540.399414 Z M 150.766602 516.399414 " transform="matrix(1.333333,0,0,1.333333,-106.666667,-585.333333)"/>
<path style=" stroke:none;fill-rule:nonzero;fill:rgb(0%,0%,0%);fill-opacity:1;" d="M 112.789062 123.199219 L 112.789062 122.910156 C 111.933594 122.785156 111.726562 122.660156 111.726562 122.035156 L 111.726562 116.285156 C 111.726562 115.636719 111.976562 115.449219 112.789062 115.386719 L 112.789062 115.097656 L 108.726562 115.097656 L 108.726562 115.386719 C 109.558594 115.449219 109.789062 115.597656 109.789062 116.285156 L 109.789062 118.722656 L 106.890625 118.722656 L 106.890625 116.285156 C 106.890625 115.597656 107.121094 115.449219 107.976562 115.386719 L 107.976562 115.097656 L 103.933594 115.097656 L 103.933594 115.386719 C 104.746094 115.449219 104.953125 115.617188 104.953125 116.285156 L 104.953125 122.035156 C 104.953125 122.660156 104.765625 122.785156 103.933594 122.910156 L 103.933594 123.199219 L 107.976562 123.199219 L 107.976562 122.910156 C 107.101562 122.804688 106.890625 122.660156 106.890625 122.035156 L 106.890625 119.285156 L 109.789062 119.285156 L 109.789062 122.035156 C 109.789062 122.636719 109.601562 122.804688 108.726562 122.910156 L 108.726562 123.199219 Z M 112.789062 123.199219 "/>
<path style=" stroke:none;fill-rule:nonzero;fill:rgb(0%,0%,0%);fill-opacity:1;" d="M 116.8125 126.097656 L 116.707031 126.054688 C 116.4375 126.511719 116.269531 126.597656 115.9375 126.597656 L 114.0625 126.597656 L 115.375 125.179688 C 116.082031 124.429688 116.394531 123.824219 116.394531 123.199219 C 116.394531 122.410156 115.832031 121.785156 114.914062 121.785156 C 113.9375 121.785156 113.4375 122.449219 113.269531 123.386719 L 113.4375 123.429688 C 113.75 122.636719 114.019531 122.386719 114.601562 122.386719 C 115.289062 122.386719 115.707031 122.785156 115.707031 123.511719 C 115.707031 124.199219 115.4375 124.804688 114.664062 125.597656 L 113.25 127.097656 L 113.25 127.199219 L 116.375 127.199219 Z M 116.8125 126.097656 "/>
<path style="fill:none;stroke-width:0.5;stroke-linecap:round;stroke-linejoin:round;stroke:rgb(0%,0%,0%);stroke-opacity:1;stroke-miterlimit:10;" d="M 157.745117 522.601562 L 162.546875 522.601562 " transform="matrix(1.333333,0,0,1.333333,-106.666667,-585.333333)"/>
<path style="fill:none;stroke-width:0.5;stroke-linecap:butt;stroke-linejoin:miter;stroke:rgb(0%,0%,0%);stroke-opacity:1;stroke-miterlimit:10;" d="M 164.547852 522.601562 L 162.546875 522.601562 M 162.546875 521.851562 L 164.547852 522.601562 L 162.546875 523.351562 " transform="matrix(1.333333,0,0,1.333333,-106.666667,-585.333333)"/>
<path style="fill:none;stroke-width:1;stroke-linecap:round;stroke-linejoin:round;stroke:rgb(0%,0%,0%);stroke-opacity:1;stroke-miterlimit:10;" d="M 151.088867 554.602539 C 146.782227 549.036133 142.581055 541.878906 141.078125 533.866211 M 140.867188 522.915039 C 141.78125 516.874023 144.297852 511.389648 147.3125 506.710938 " transform="matrix(1.333333,0,0,1.333333,-106.666667,-585.333333)"/>
<path style="fill:none;stroke-width:1;stroke-linecap:butt;stroke-linejoin:miter;stroke:rgb(0%,0%,0%);stroke-opacity:1;stroke-miterlimit:10;" d="M 149.65332 503.464844 L 147.31543 506.710938 M 146.09668 505.832031 L 149.65332 503.464844 L 148.53125 507.586914 " transform="matrix(1.333333,0,0,1.333333,-106.666667,-585.333333)"/>
<path style="fill:none;stroke-width:1;stroke-linecap:round;stroke-linejoin:round;stroke:rgb(0%,0%,0%);stroke-opacity:1;stroke-miterlimit:10;" d="M 162.766602 554.602539 L 162.766602 546.299805 " transform="matrix(1.333333,0,0,1.333333,-106.666667,-585.333333)"/>
<path style="fill:none;stroke-width:1;stroke-linecap:butt;stroke-linejoin:miter;stroke:rgb(0%,0%,0%);stroke-opacity:1;stroke-miterlimit:10;" d="M 162.766602 542.300781 L 162.766602 546.299805 M 161.266602 546.299805 L 162.766602 542.300781 L 164.266602 546.299805 " transform="matrix(1.333333,0,0,1.333333,-106.666667,-585.333333)"/>
<path style="fill-rule:nonzero;fill:rgb(69.803923%,85.09804%,100%);fill-opacity:1;stroke-width:1;stroke-linecap:round;stroke-linejoin:round;stroke:rgb(0%,0%,0%);stroke-opacity:1;stroke-miterlimit:10;" d="M 150.766602 439.999023 L 174.766602 439.999023 L 174.766602 463.999023 L 150.766602 463.999023 Z M 150.766602 439.999023 " transform="matrix(1.333333,0,0,1.333333,-106.666667,-585.333333)"/>
<path style=" stroke:none;fill-rule:nonzero;fill:rgb(0%,0%,0%);fill-opacity:1;" d="M 112.601562 15.3125 C 112.601562 12.832031 110.828125 11.042969 108.414062 11.042969 C 105.914062 11.042969 104.101562 12.769531 104.101562 15.332031 C 104.101562 17.8125 105.851562 19.5625 108.328125 19.5625 C 110.828125 19.5625 112.601562 17.8125 112.601562 15.3125 Z M 110.476562 15.394531 C 110.476562 17.875 109.746094 19.167969 108.371094 19.167969 C 106.996094 19.167969 106.226562 17.894531 106.226562 15.375 C 106.226562 12.855469 106.976562 11.4375 108.308594 11.4375 C 109.703125 11.4375 110.476562 12.832031 110.476562 15.394531 Z M 110.476562 15.394531 "/>
<path style=" stroke:none;fill-rule:nonzero;fill:rgb(0%,0%,0%);fill-opacity:1;" d="M 116.8125 22.230469 L 116.707031 22.1875 C 116.4375 22.644531 116.269531 22.730469 115.9375 22.730469 L 114.0625 22.730469 L 115.375 21.3125 C 116.082031 20.5625 116.394531 19.957031 116.394531 19.332031 C 116.394531 18.542969 115.832031 17.917969 114.914062 17.917969 C 113.9375 17.917969 113.4375 18.582031 113.269531 19.519531 L 113.4375 19.5625 C 113.75 18.769531 114.019531 18.519531 114.601562 18.519531 C 115.289062 18.519531 115.707031 18.917969 115.707031 19.644531 C 115.707031 20.332031 115.4375 20.9375 114.664062 21.730469 L 113.25 23.230469 L 113.25 23.332031 L 116.375 23.332031 Z M 116.8125 22.230469 "/>
<path style="fill:none;stroke-width:1;stroke-linecap:round;stroke-linejoin:round;stroke:rgb(0%,0%,0%);stroke-opacity:1;stroke-miterlimit:10;" d="M 162.766602 478.199219 L 162.766602 469.899414 " transform="matrix(1.333333,0,0,1.333333,-106.666667,-585.333333)"/>
<path style="fill:none;stroke-width:1;stroke-linecap:butt;stroke-linejoin:miter;stroke:rgb(0%,0%,0%);stroke-opacity:1;stroke-miterlimit:10;" d="M 162.766602 465.897461 L 162.766602 469.899414 M 161.266602 469.899414 L 162.766602 465.897461 L 164.266602 469.899414 " transform="matrix(1.333333,0,0,1.333333,-106.666667,-585.333333)"/>
<path style="fill:none;stroke-width:1;stroke-linecap:round;stroke-linejoin:round;stroke:rgb(0%,0%,0%);stroke-opacity:1;stroke-miterlimit:10;" d="M 174.766602 523.331055 C 180.652344 519.475586 186.5 512.942383 186.5 502.199219 C 186.5 500.03418 186.262695 497.804688 185.834961 495.53418 M 182.706055 485.007812 C 180.491211 479.368164 177.567383 473.848633 174.637695 468.991211 " transform="matrix(1.333333,0,0,1.333333,-106.666667,-585.333333)"/>
<path style="fill:none;stroke-width:1;stroke-linecap:butt;stroke-linejoin:miter;stroke:rgb(0%,0%,0%);stroke-opacity:1;stroke-miterlimit:10;" d="M 172.504883 465.604492 L 174.637695 468.991211 M 173.366211 469.793945 L 172.504883 465.604492 L 175.90625 468.191406 " transform="matrix(1.333333,0,0,1.333333,-106.666667,-585.333333)"/>
<path style="fill-rule:nonzero;fill:rgb(69.803923%,85.09804%,100%);fill-opacity:1;stroke-width:1;stroke-linecap:round;stroke-linejoin:round;stroke:rgb(0%,0%,0%);stroke-opacity:1;stroke-miterlimit:10;" d="M 203.899414 554.602539 L 227.899414 554.602539 L 227.899414 578.602539 L 203.899414 578.602539 Z M 203.899414 554.602539 " transform="matrix(1.333333,0,0,1.333333,-106.666667,-585.333333)"/>
<path style=" stroke:none;fill-rule:nonzero;fill:rgb(0%,0%,0%);fill-opacity:1;" d="M 183.265625 171.464844 L 183.265625 171.175781 C 182.847656 171.152344 182.660156 171.007812 182.097656 170.132812 L 179.910156 166.738281 L 180.867188 165.402344 C 181.910156 163.945312 182.222656 163.738281 183.117188 163.652344 L 183.117188 163.363281 L 180.117188 163.363281 L 180.117188 163.652344 L 180.367188 163.675781 C 180.828125 163.714844 180.992188 163.820312 180.992188 164.089844 C 180.992188 164.363281 180.847656 164.589844 180.285156 165.363281 L 179.617188 166.300781 L 178.453125 164.488281 C 178.304688 164.257812 178.285156 164.195312 178.285156 164.050781 C 178.285156 163.800781 178.410156 163.695312 178.847656 163.675781 L 179.222656 163.652344 L 179.222656 163.363281 L 175.078125 163.363281 L 175.078125 163.652344 C 175.515625 163.695312 175.660156 163.820312 176.035156 164.339844 L 178.410156 167.839844 L 176.304688 170.488281 C 175.953125 170.945312 175.660156 171.089844 175.054688 171.175781 L 175.054688 171.464844 L 178.054688 171.464844 L 178.054688 171.175781 C 177.328125 171.089844 177.097656 170.964844 177.097656 170.652344 C 177.097656 170.402344 177.328125 170.027344 178.222656 168.820312 L 178.679688 168.214844 L 179.890625 170.152344 C 180.035156 170.382812 180.140625 170.652344 180.140625 170.800781 C 180.140625 171.007812 179.929688 171.113281 179.515625 171.132812 L 179.179688 171.175781 L 179.179688 171.464844 Z M 183.265625 171.464844 "/>
<path style=" stroke:none;fill-rule:nonzero;fill:rgb(0%,0%,0%);fill-opacity:1;" d="M 184.011719 172.714844 C 184.34375 172.132812 184.71875 171.863281 185.21875 171.863281 C 185.742188 171.863281 186.074219 172.152344 186.074219 172.695312 C 186.074219 173.175781 185.824219 173.527344 185.429688 173.757812 C 185.261719 173.863281 185.054688 173.945312 184.761719 174.050781 L 184.761719 174.152344 C 185.21875 174.152344 185.386719 174.175781 185.574219 174.238281 C 186.117188 174.402344 186.40625 174.800781 186.40625 175.402344 C 186.40625 176.070312 185.949219 176.632812 185.367188 176.632812 C 185.136719 176.632812 184.96875 176.589844 184.679688 176.382812 C 184.449219 176.214844 184.324219 176.175781 184.179688 176.175781 C 184.011719 176.175781 183.867188 176.277344 183.867188 176.445312 C 183.867188 176.738281 184.179688 176.902344 184.761719 176.902344 C 185.46875 176.902344 186.21875 176.675781 186.617188 176.175781 C 186.84375 175.863281 186.992188 175.464844 186.992188 175.050781 C 186.992188 174.632812 186.84375 174.257812 186.636719 174.007812 C 186.46875 173.839844 186.324219 173.738281 185.96875 173.589844 C 186.492188 173.277344 186.699219 172.863281 186.699219 172.488281 C 186.699219 171.839844 186.199219 171.382812 185.46875 171.382812 C 184.636719 171.382812 184.117188 171.925781 183.886719 172.695312 Z M 184.011719 172.714844 "/>
<path style="fill:none;stroke-width:1;stroke-linecap:round;stroke-linejoin:round;stroke:rgb(0%,0%,0%);stroke-opacity:1;stroke-miterlimit:10;" d="M 203.899414 478.199219 L 227.899414 478.199219 L 227.899414 502.199219 L 203.899414 502.199219 Z M 203.899414 478.199219 " transform="matrix(1.333333,0,0,1.333333,-106.666667,-585.333333)"/>
<path style=" stroke:none;fill-rule:nonzero;fill:rgb(0%,0%,0%);fill-opacity:1;" d="M 183.636719 72.265625 L 183.636719 71.976562 C 182.78125 71.851562 182.574219 71.726562 182.574219 71.101562 L 182.574219 65.351562 C 182.574219 64.703125 182.824219 64.515625 183.636719 64.453125 L 183.636719 64.164062 L 179.574219 64.164062 L 179.574219 64.453125 C 180.40625 64.515625 180.636719 64.664062 180.636719 65.351562 L 180.636719 67.789062 L 177.742188 67.789062 L 177.742188 65.351562 C 177.742188 64.664062 177.96875 64.515625 178.824219 64.453125 L 178.824219 64.164062 L 174.78125 64.164062 L 174.78125 64.453125 C 175.59375 64.515625 175.804688 64.683594 175.804688 65.351562 L 175.804688 71.101562 C 175.804688 71.726562 175.617188 71.851562 174.78125 71.976562 L 174.78125 72.265625 L 178.824219 72.265625 L 178.824219 71.976562 C 177.949219 71.871094 177.742188 71.726562 177.742188 71.101562 L 177.742188 68.351562 L 180.636719 68.351562 L 180.636719 71.101562 C 180.636719 71.703125 180.449219 71.871094 179.574219 71.976562 L 179.574219 72.265625 Z M 183.636719 72.265625 "/>
<path style=" stroke:none;fill-rule:nonzero;fill:rgb(0%,0%,0%);fill-opacity:1;" d="M 184.347656 72.183594 C 184.679688 71.601562 185.054688 71.328125 185.554688 71.328125 C 186.078125 71.328125 186.410156 71.621094 186.410156 72.164062 C 186.410156 72.640625 186.160156 72.996094 185.765625 73.226562 C 185.597656 73.328125 185.390625 73.414062 185.097656 73.515625 L 185.097656 73.621094 C 185.554688 73.621094 185.722656 73.640625 185.910156 73.703125 C 186.453125 73.871094 186.742188 74.265625 186.742188 74.871094 C 186.742188 75.539062 186.285156 76.101562 185.703125 76.101562 C 185.472656 76.101562 185.304688 76.058594 185.015625 75.851562 C 184.785156 75.683594 184.660156 75.640625 184.515625 75.640625 C 184.347656 75.640625 184.203125 75.746094 184.203125 75.914062 C 184.203125 76.203125 184.515625 76.371094 185.097656 76.371094 C 185.804688 76.371094 186.554688 76.140625 186.953125 75.640625 C 187.179688 75.328125 187.328125 74.933594 187.328125 74.515625 C 187.328125 74.101562 187.179688 73.726562 186.972656 73.476562 C 186.804688 73.308594 186.660156 73.203125 186.304688 73.058594 C 186.828125 72.746094 187.035156 72.328125 187.035156 71.953125 C 187.035156 71.308594 186.535156 70.851562 185.804688 70.851562 C 184.972656 70.851562 184.453125 71.390625 184.222656 72.164062 Z M 184.347656 72.183594 "/>
<path style="fill:none;stroke-width:0.5;stroke-linecap:round;stroke-linejoin:round;stroke:rgb(0%,0%,0%);stroke-opacity:1;stroke-miterlimit:10;" d="M 217.25 484.448242 L 212.448242 484.448242 " transform="matrix(1.333333,0,0,1.333333,-106.666667,-585.333333)"/>
<path style="fill:none;stroke-width:0.5;stroke-linecap:butt;stroke-linejoin:miter;stroke:rgb(0%,0%,0%);stroke-opacity:1;stroke-miterlimit:10;" d="M 210.450195 484.448242 L 212.448242 484.448242 M 212.448242 485.198242 L 210.450195 484.448242 L 212.448242 483.698242 " transform="matrix(1.333333,0,0,1.333333,-106.666667,-585.333333)"/>
<path style="fill:none;stroke-width:0.5;stroke-linecap:round;stroke-linejoin:round;stroke:rgb(0%,0%,0%);stroke-opacity:1;stroke-miterlimit:10;" d="M 210.397461 522.601562 L 215.199219 522.601562 " transform="matrix(1.333333,0,0,1.333333,-106.666667,-585.333333)"/>
<path style="fill:none;stroke-width:0.5;stroke-linecap:butt;stroke-linejoin:miter;stroke:rgb(0%,0%,0%);stroke-opacity:1;stroke-miterlimit:10;" d="M 217.200195 522.601562 L 215.199219 522.601562 M 215.199219 521.851562 L 217.200195 522.601562 L 215.199219 523.351562 " transform="matrix(1.333333,0,0,1.333333,-106.666667,-585.333333)"/>
<path style="fill:none;stroke-width:1;stroke-linecap:round;stroke-linejoin:round;stroke:rgb(0%,0%,0%);stroke-opacity:1;stroke-miterlimit:10;" d="M 204.942383 554.602539 C 200.899414 549.036133 196.956055 541.878906 195.546875 533.875 M 195.344727 522.90918 C 196.179688 517.043945 198.432617 511.700195 201.157227 507.109375 " transform="matrix(1.333333,0,0,1.333333,-106.666667,-585.333333)"/>
<path style="fill:none;stroke-width:1;stroke-linecap:butt;stroke-linejoin:miter;stroke:rgb(0%,0%,0%);stroke-opacity:1;stroke-miterlimit:10;" d="M 203.375 503.78125 L 201.157227 507.109375 M 199.90918 506.277344 L 203.375 503.78125 L 202.405273 507.941406 " transform="matrix(1.333333,0,0,1.333333,-106.666667,-585.333333)"/>
<path style="fill:none;stroke-width:1;stroke-linecap:round;stroke-linejoin:round;stroke:rgb(0%,0%,0%);stroke-opacity:1;stroke-miterlimit:10;" d="M 215.899414 554.602539 L 215.899414 546.299805 " transform="matrix(1.333333,0,0,1.333333,-106.666667,-585.333333)"/>
<path style="fill:none;stroke-width:1;stroke-linecap:butt;stroke-linejoin:miter;stroke:rgb(0%,0%,0%);stroke-opacity:1;stroke-miterlimit:10;" d="M 215.899414 542.300781 L 215.899414 546.299805 M 214.399414 546.299805 L 215.899414 542.300781 L 217.399414 546.299805 " transform="matrix(1.333333,0,0,1.333333,-106.666667,-585.333333)"/>
<path style="fill-rule:nonzero;fill:rgb(69.803923%,85.09804%,100%);fill-opacity:1;stroke-width:1;stroke-linecap:round;stroke-linejoin:round;stroke:rgb(0%,0%,0%);stroke-opacity:1;stroke-miterlimit:10;" d="M 204.432617 439.999023 L 228.432617 439.999023 L 228.432617 463.999023 L 204.432617 463.999023 Z M 204.432617 439.999023 " transform="matrix(1.333333,0,0,1.333333,-106.666667,-585.333333)"/>
<path style=" stroke:none;fill-rule:nonzero;fill:rgb(0%,0%,0%);fill-opacity:1;" d="M 184.160156 15.3125 C 184.160156 12.832031 182.390625 11.042969 179.972656 11.042969 C 177.472656 11.042969 175.660156 12.769531 175.660156 15.332031 C 175.660156 17.8125 177.410156 19.5625 179.890625 19.5625 C 182.390625 19.5625 184.160156 17.8125 184.160156 15.3125 Z M 182.035156 15.394531 C 182.035156 17.875 181.308594 19.167969 179.933594 19.167969 C 178.558594 19.167969 177.785156 17.894531 177.785156 15.375 C 177.785156 12.855469 178.535156 11.4375 179.871094 11.4375 C 181.265625 11.4375 182.035156 12.832031 182.035156 15.394531 Z M 182.035156 15.394531 "/>
<path style=" stroke:none;fill-rule:nonzero;fill:rgb(0%,0%,0%);fill-opacity:1;" d="M 185.058594 19.25 C 185.394531 18.667969 185.769531 18.394531 186.269531 18.394531 C 186.789062 18.394531 187.121094 18.6875 187.121094 19.230469 C 187.121094 19.707031 186.871094 20.0625 186.476562 20.292969 C 186.308594 20.394531 186.101562 20.480469 185.808594 20.582031 L 185.808594 20.6875 C 186.269531 20.6875 186.433594 20.707031 186.621094 20.769531 C 187.164062 20.9375 187.457031 21.332031 187.457031 21.9375 C 187.457031 22.605469 186.996094 23.167969 186.414062 23.167969 C 186.183594 23.167969 186.019531 23.125 185.726562 22.917969 C 185.496094 22.75 185.371094 22.707031 185.226562 22.707031 C 185.058594 22.707031 184.914062 22.8125 184.914062 22.980469 C 184.914062 23.269531 185.226562 23.4375 185.808594 23.4375 C 186.519531 23.4375 187.269531 23.207031 187.664062 22.707031 C 187.894531 22.394531 188.039062 22 188.039062 21.582031 C 188.039062 21.167969 187.894531 20.792969 187.683594 20.542969 C 187.519531 20.375 187.371094 20.269531 187.019531 20.125 C 187.539062 19.8125 187.746094 19.394531 187.746094 19.019531 C 187.746094 18.375 187.246094 17.917969 186.519531 17.917969 C 185.683594 17.917969 185.164062 18.457031 184.933594 19.230469 Z M 185.058594 19.25 "/>
<path style="fill:none;stroke-width:1;stroke-linecap:round;stroke-linejoin:round;stroke:rgb(0%,0%,0%);stroke-opacity:1;stroke-miterlimit:10;" d="M 216.066406 478.199219 L 216.183594 469.899414 " transform="matrix(1.333333,0,0,1.333333,-106.666667,-585.333333)"/>
<path style="fill:none;stroke-width:1;stroke-linecap:butt;stroke-linejoin:miter;stroke:rgb(0%,0%,0%);stroke-opacity:1;stroke-miterlimit:10;" d="M 216.239258 465.897461 L 216.183594 469.899414 M 214.683594 469.878906 L 216.239258 465.897461 L 217.683594 469.922852 " transform="matrix(1.333333,0,0,1.333333,-106.666667,-585.333333)"/>
<path style="fill:none;stroke-width:1;stroke-linecap:round;stroke-linejoin:round;stroke:rgb(0%,0%,0%);stroke-opacity:1;stroke-miterlimit:10;" d="M 227.899414 522.882812 C 233.269531 518.977539 238.425781 512.538086 238.499023 502.199219 C 238.516602 499.864258 238.273438 497.450195 237.825195 494.995117 M 234.825195 484.421875 C 232.8125 479.022461 230.199219 473.754883 227.583008 469.084961 " transform="matrix(1.333333,0,0,1.333333,-106.666667,-585.333333)"/>
<path style="fill:none;stroke-width:1;stroke-linecap:butt;stroke-linejoin:miter;stroke:rgb(0%,0%,0%);stroke-opacity:1;stroke-miterlimit:10;" d="M 225.555664 465.636719 L 227.583008 469.084961 M 226.288086 469.84668 L 225.555664 465.636719 L 228.875 468.329102 " transform="matrix(1.333333,0,0,1.333333,-106.666667,-585.333333)"/>
<path style="fill-rule:nonzero;fill:rgb(69.803923%,85.09804%,100%);fill-opacity:1;stroke-width:1;stroke-linecap:round;stroke-linejoin:round;stroke:rgb(0%,0%,0%);stroke-opacity:1;stroke-miterlimit:10;" d="M 277.897461 554.602539 L 301.897461 554.602539 L 301.897461 578.602539 L 277.897461 578.602539 Z M 277.897461 554.602539 " transform="matrix(1.333333,0,0,1.333333,-106.666667,-585.333333)"/>
<path style=" stroke:none;fill-rule:nonzero;fill:rgb(0%,0%,0%);fill-opacity:1;" d="M 281.707031 171.464844 L 281.707031 171.175781 C 281.289062 171.152344 281.101562 171.007812 280.539062 170.132812 L 278.351562 166.738281 L 279.3125 165.402344 C 280.351562 163.945312 280.664062 163.738281 281.5625 163.652344 L 281.5625 163.363281 L 278.5625 163.363281 L 278.5625 163.652344 L 278.8125 163.675781 C 279.269531 163.714844 279.4375 163.820312 279.4375 164.089844 C 279.4375 164.363281 279.289062 164.589844 278.726562 165.363281 L 278.0625 166.300781 L 276.894531 164.488281 C 276.75 164.257812 276.726562 164.195312 276.726562 164.050781 C 276.726562 163.800781 276.851562 163.695312 277.289062 163.675781 L 277.664062 163.652344 L 277.664062 163.363281 L 273.519531 163.363281 L 273.519531 163.652344 C 273.957031 163.695312 274.101562 163.820312 274.476562 164.339844 L 276.851562 167.839844 L 274.75 170.488281 C 274.394531 170.945312 274.101562 171.089844 273.5 171.175781 L 273.5 171.464844 L 276.5 171.464844 L 276.5 171.175781 C 275.769531 171.089844 275.539062 170.964844 275.539062 170.652344 C 275.539062 170.402344 275.769531 170.027344 276.664062 168.820312 L 277.125 168.214844 L 278.332031 170.152344 C 278.476562 170.382812 278.582031 170.652344 278.582031 170.800781 C 278.582031 171.007812 278.375 171.113281 277.957031 171.132812 L 277.625 171.175781 L 277.625 171.464844 Z M 281.707031 171.464844 "/>
<path style=" stroke:none;fill-rule:nonzero;fill:rgb(0%,0%,0%);fill-opacity:1;" d="M 287.039062 171.570312 L 282.789062 171.570312 L 282.453125 172.820312 L 282.601562 172.839844 C 282.976562 171.988281 283.226562 171.863281 284.496094 171.863281 L 283.351562 176.070312 C 283.226562 176.507812 283.039062 176.632812 282.496094 176.675781 L 282.496094 176.800781 L 284.808594 176.800781 L 284.808594 176.675781 L 284.515625 176.652344 C 284.183594 176.613281 284.101562 176.550781 284.101562 176.300781 C 284.101562 176.132812 284.164062 175.945312 284.203125 175.777344 L 285.308594 171.863281 L 285.765625 171.863281 C 286.289062 171.863281 286.578125 172.070312 286.578125 172.507812 C 286.578125 172.613281 286.558594 172.738281 286.558594 172.863281 L 286.683594 172.882812 Z M 287.039062 171.570312 "/>
<path style="fill:none;stroke-width:1;stroke-linecap:round;stroke-linejoin:round;stroke:rgb(0%,0%,0%);stroke-opacity:1;stroke-miterlimit:10;" d="M 277.897461 478.199219 L 301.897461 478.199219 L 301.897461 502.199219 L 277.897461 502.199219 Z M 277.897461 478.199219 " transform="matrix(1.333333,0,0,1.333333,-106.666667,-585.333333)"/>
<path style=" stroke:none;fill-rule:nonzero;fill:rgb(0%,0%,0%);fill-opacity:1;" d="M 282.078125 72.265625 L 282.078125 71.976562 C 281.226562 71.851562 281.015625 71.726562 281.015625 71.101562 L 281.015625 65.351562 C 281.015625 64.703125 281.265625 64.515625 282.078125 64.453125 L 282.078125 64.164062 L 278.015625 64.164062 L 278.015625 64.453125 C 278.851562 64.515625 279.078125 64.664062 279.078125 65.351562 L 279.078125 67.789062 L 276.183594 67.789062 L 276.183594 65.351562 C 276.183594 64.664062 276.414062 64.515625 277.265625 64.453125 L 277.265625 64.164062 L 273.226562 64.164062 L 273.226562 64.453125 C 274.039062 64.515625 274.246094 64.683594 274.246094 65.351562 L 274.246094 71.101562 C 274.246094 71.726562 274.058594 71.851562 273.226562 71.976562 L 273.226562 72.265625 L 277.265625 72.265625 L 277.265625 71.976562 C 276.390625 71.871094 276.183594 71.726562 276.183594 71.101562 L 276.183594 68.351562 L 279.078125 68.351562 L 279.078125 71.101562 C 279.078125 71.703125 278.890625 71.871094 278.015625 71.976562 L 278.015625 72.265625 Z M 282.078125 72.265625 "/>
<path style=" stroke:none;fill-rule:nonzero;fill:rgb(0%,0%,0%);fill-opacity:1;" d="M 287.375 71.039062 L 283.125 71.039062 L 282.789062 72.289062 L 282.9375 72.308594 C 283.3125 71.453125 283.5625 71.328125 284.832031 71.328125 L 283.6875 75.539062 C 283.5625 75.976562 283.375 76.101562 282.832031 76.140625 L 282.832031 76.265625 L 285.144531 76.265625 L 285.144531 76.140625 L 284.851562 76.121094 C 284.519531 76.078125 284.4375 76.015625 284.4375 75.765625 C 284.4375 75.601562 284.5 75.414062 284.539062 75.246094 L 285.644531 71.328125 L 286.101562 71.328125 C 286.625 71.328125 286.914062 71.539062 286.914062 71.976562 C 286.914062 72.078125 286.894531 72.203125 286.894531 72.328125 L 287.019531 72.351562 Z M 287.375 71.039062 "/>
<path style="fill:none;stroke-width:0.5;stroke-linecap:round;stroke-linejoin:round;stroke:rgb(0%,0%,0%);stroke-opacity:1;stroke-miterlimit:10;" d="M 291.198242 484.448242 L 286.399414 484.448242 " transform="matrix(1.333333,0,0,1.333333,-106.666667,-585.333333)"/>
<path style="fill:none;stroke-width:0.5;stroke-linecap:butt;stroke-linejoin:miter;stroke:rgb(0%,0%,0%);stroke-opacity:1;stroke-miterlimit:10;" d="M 284.398438 484.448242 L 286.399414 484.448242 M 286.399414 485.198242 L 284.398438 484.448242 L 286.399414 483.698242 " transform="matrix(1.333333,0,0,1.333333,-106.666667,-585.333333)"/>
<path style="fill:none;stroke-width:1;stroke-linecap:round;stroke-linejoin:round;stroke:rgb(0%,0%,0%);stroke-opacity:1;stroke-miterlimit:10;" d="M 277.897461 516.399414 L 301.897461 516.399414 L 301.897461 540.399414 L 277.897461 540.399414 Z M 277.897461 516.399414 " transform="matrix(1.333333,0,0,1.333333,-106.666667,-585.333333)"/>
<path style=" stroke:none;fill-rule:nonzero;fill:rgb(0%,0%,0%);fill-opacity:1;" d="M 282.078125 123.199219 L 282.078125 122.910156 C 281.226562 122.785156 281.015625 122.660156 281.015625 122.035156 L 281.015625 116.285156 C 281.015625 115.636719 281.265625 115.449219 282.078125 115.386719 L 282.078125 115.097656 L 278.015625 115.097656 L 278.015625 115.386719 C 278.851562 115.449219 279.078125 115.597656 279.078125 116.285156 L 279.078125 118.722656 L 276.183594 118.722656 L 276.183594 116.285156 C 276.183594 115.597656 276.414062 115.449219 277.265625 115.386719 L 277.265625 115.097656 L 273.226562 115.097656 L 273.226562 115.386719 C 274.039062 115.449219 274.246094 115.617188 274.246094 116.285156 L 274.246094 122.035156 C 274.246094 122.660156 274.058594 122.785156 273.226562 122.910156 L 273.226562 123.199219 L 277.265625 123.199219 L 277.265625 122.910156 C 276.390625 122.804688 276.183594 122.660156 276.183594 122.035156 L 276.183594 119.285156 L 279.078125 119.285156 L 279.078125 122.035156 C 279.078125 122.636719 278.890625 122.804688 278.015625 122.910156 L 278.015625 123.199219 Z M 282.078125 123.199219 "/>
<path style=" stroke:none;fill-rule:nonzero;fill:rgb(0%,0%,0%);fill-opacity:1;" d="M 287.375 121.972656 L 283.125 121.972656 L 282.789062 123.222656 L 282.9375 123.242188 C 283.3125 122.386719 283.5625 122.261719 284.832031 122.261719 L 283.6875 126.472656 C 283.5625 126.910156 283.375 127.035156 282.832031 127.074219 L 282.832031 127.199219 L 285.144531 127.199219 L 285.144531 127.074219 L 284.851562 127.054688 C 284.519531 127.011719 284.4375 126.949219 284.4375 126.699219 C 284.4375 126.535156 284.5 126.347656 284.539062 126.179688 L 285.644531 122.261719 L 286.101562 122.261719 C 286.625 122.261719 286.914062 122.472656 286.914062 122.910156 C 286.914062 123.011719 286.894531 123.136719 286.894531 123.261719 L 287.019531 123.285156 Z M 287.375 121.972656 "/>
<path style="fill:none;stroke-width:0.5;stroke-linecap:round;stroke-linejoin:round;stroke:rgb(0%,0%,0%);stroke-opacity:1;stroke-miterlimit:10;" d="M 284.647461 522.601562 L 289.449219 522.601562 " transform="matrix(1.333333,0,0,1.333333,-106.666667,-585.333333)"/>
<path style="fill:none;stroke-width:0.5;stroke-linecap:butt;stroke-linejoin:miter;stroke:rgb(0%,0%,0%);stroke-opacity:1;stroke-miterlimit:10;" d="M 291.450195 522.601562 L 289.449219 522.601562 M 289.449219 521.851562 L 291.450195 522.601562 L 289.449219 523.351562 " transform="matrix(1.333333,0,0,1.333333,-106.666667,-585.333333)"/>
<path style="fill:none;stroke-width:1;stroke-linecap:round;stroke-linejoin:round;stroke:rgb(0%,0%,0%);stroke-opacity:1;stroke-miterlimit:10;" d="M 278.27832 554.602539 C 274.015625 548.954102 269.949219 541.629883 268.8125 533.3125 M 269.108398 522.355469 C 270.171875 516.733398 272.506836 511.5625 275.246094 507.077148 " transform="matrix(1.333333,0,0,1.333333,-106.666667,-585.333333)"/>
<path style="fill:none;stroke-width:1;stroke-linecap:butt;stroke-linejoin:miter;stroke:rgb(0%,0%,0%);stroke-opacity:1;stroke-miterlimit:10;" d="M 277.493164 503.772461 L 275.246094 507.083008 M 274.003906 506.239258 L 277.493164 503.772461 L 276.488281 507.920898 " transform="matrix(1.333333,0,0,1.333333,-106.666667,-585.333333)"/>
<path style="fill:none;stroke-width:1;stroke-linecap:round;stroke-linejoin:round;stroke:rgb(0%,0%,0%);stroke-opacity:1;stroke-miterlimit:10;" d="M 289.897461 554.602539 L 289.897461 546.299805 " transform="matrix(1.333333,0,0,1.333333,-106.666667,-585.333333)"/>
<path style="fill:none;stroke-width:1;stroke-linecap:butt;stroke-linejoin:miter;stroke:rgb(0%,0%,0%);stroke-opacity:1;stroke-miterlimit:10;" d="M 289.897461 542.300781 L 289.897461 546.299805 M 288.397461 546.299805 L 289.897461 542.300781 L 291.397461 546.299805 " transform="matrix(1.333333,0,0,1.333333,-106.666667,-585.333333)"/>
<path style="fill-rule:nonzero;fill:rgb(69.803923%,85.09804%,100%);fill-opacity:1;stroke-width:1;stroke-linecap:round;stroke-linejoin:round;stroke:rgb(0%,0%,0%);stroke-opacity:1;stroke-miterlimit:10;" d="M 277.897461 439.999023 L 301.897461 439.999023 L 301.897461 463.999023 L 277.897461 463.999023 Z M 277.897461 439.999023 " transform="matrix(1.333333,0,0,1.333333,-106.666667,-585.333333)"/>
<path style=" stroke:none;fill-rule:nonzero;fill:rgb(0%,0%,0%);fill-opacity:1;" d="M 281.890625 15.3125 C 281.890625 12.832031 280.121094 11.042969 277.703125 11.042969 C 275.203125 11.042969 273.390625 12.769531 273.390625 15.332031 C 273.390625 17.8125 275.140625 19.5625 277.621094 19.5625 C 280.121094 19.5625 281.890625 17.8125 281.890625 15.3125 Z M 279.765625 15.394531 C 279.765625 17.875 279.039062 19.167969 277.664062 19.167969 C 276.289062 19.167969 275.515625 17.894531 275.515625 15.375 C 275.515625 12.855469 276.265625 11.4375 277.601562 11.4375 C 278.996094 11.4375 279.765625 12.832031 279.765625 15.394531 Z M 279.765625 15.394531 "/>
<path style=" stroke:none;fill-rule:nonzero;fill:rgb(0%,0%,0%);fill-opacity:1;" d="M 287.375 18.105469 L 283.125 18.105469 L 282.789062 19.355469 L 282.9375 19.375 C 283.3125 18.519531 283.5625 18.394531 284.832031 18.394531 L 283.6875 22.605469 C 283.5625 23.042969 283.375 23.167969 282.832031 23.207031 L 282.832031 23.332031 L 285.144531 23.332031 L 285.144531 23.207031 L 284.851562 23.1875 C 284.519531 23.144531 284.4375 23.082031 284.4375 22.832031 C 284.4375 22.667969 284.5 22.480469 284.539062 22.3125 L 285.644531 18.394531 L 286.101562 18.394531 C 286.625 18.394531 286.914062 18.605469 286.914062 19.042969 C 286.914062 19.144531 286.894531 19.269531 286.894531 19.394531 L 287.019531 19.417969 Z M 287.375 18.105469 "/>
<path style="fill:none;stroke-width:1;stroke-linecap:round;stroke-linejoin:round;stroke:rgb(0%,0%,0%);stroke-opacity:1;stroke-miterlimit:10;" d="M 289.897461 478.199219 L 289.897461 469.899414 " transform="matrix(1.333333,0,0,1.333333,-106.666667,-585.333333)"/>
<path style="fill:none;stroke-width:1;stroke-linecap:butt;stroke-linejoin:miter;stroke:rgb(0%,0%,0%);stroke-opacity:1;stroke-miterlimit:10;" d="M 289.897461 465.897461 L 289.897461 469.899414 M 288.397461 469.899414 L 289.897461 465.897461 L 291.397461 469.899414 " transform="matrix(1.333333,0,0,1.333333,-106.666667,-585.333333)"/>
<path style="fill:none;stroke-width:1;stroke-linecap:round;stroke-linejoin:round;stroke:rgb(0%,0%,0%);stroke-opacity:1;stroke-miterlimit:10;" d="M 301.897461 523.448242 C 307.941406 519.610352 314 513.050781 314 502.199219 C 314 491.374023 307.967773 478.817383 301.941406 468.967773 " transform="matrix(1.333333,0,0,1.333333,-106.666667,-585.333333)"/>
<path style="fill:none;stroke-width:1;stroke-linecap:butt;stroke-linejoin:miter;stroke:rgb(0%,0%,0%);stroke-opacity:1;stroke-miterlimit:10;" d="M 299.785156 465.601562 L 301.941406 468.967773 M 300.678711 469.776367 L 299.785156 465.601562 L 303.204102 468.15918 " transform="matrix(1.333333,0,0,1.333333,-106.666667,-585.333333)"/>
<path style=" stroke:none;fill-rule:nonzero;fill:rgb(0%,0%,0%);fill-opacity:1;" d="M 234.34375 120.679688 C 234.34375 120.304688 234.03125 119.992188 233.679688 119.992188 C 233.304688 119.992188 233.011719 120.304688 233.011719 120.679688 C 233.011719 121.035156 233.304688 121.324219 233.65625 121.324219 C 234.03125 121.324219 234.34375 121.054688 234.34375 120.679688 Z M 230.78125 120.679688 C 230.78125 120.304688 230.46875 119.992188 230.117188 119.992188 C 229.742188 119.992188 229.449219 120.304688 229.449219 120.679688 C 229.449219 121.035156 229.742188 121.324219 230.074219 121.324219 C 230.46875 121.324219 230.78125 121.054688 230.78125 120.679688 Z M 227.21875 120.679688 C 227.21875 120.304688 226.90625 119.992188 226.554688 119.992188 C 226.179688 119.992188 225.886719 120.304688 225.886719 120.679688 C 225.886719 121.035156 226.179688 121.324219 226.511719 121.324219 C 226.90625 121.324219 227.21875 121.054688 227.21875 120.679688 Z M 227.21875 120.679688 "/>
<path style=" stroke:none;fill-rule:nonzero;fill:rgb(0%,0%,0%);fill-opacity:1;" d="M 234.34375 69.746094 C 234.34375 69.371094 234.03125 69.058594 233.679688 69.058594 C 233.304688 69.058594 233.011719 69.371094 233.011719 69.746094 C 233.011719 70.101562 233.304688 70.390625 233.65625 70.390625 C 234.03125 70.390625 234.34375 70.121094 234.34375 69.746094 Z M 230.78125 69.746094 C 230.78125 69.371094 230.46875 69.058594 230.117188 69.058594 C 229.742188 69.058594 229.449219 69.371094 229.449219 69.746094 C 229.449219 70.101562 229.742188 70.390625 230.074219 70.390625 C 230.46875 70.390625 230.78125 70.121094 230.78125 69.746094 Z M 227.21875 69.746094 C 227.21875 69.371094 226.90625 69.058594 226.554688 69.058594 C 226.179688 69.058594 225.886719 69.371094 225.886719 69.746094 C 225.886719 70.101562 226.179688 70.390625 226.511719 70.390625 C 226.90625 70.390625 227.21875 70.121094 227.21875 69.746094 Z M 227.21875 69.746094 "/>
<path style="fill:none;stroke-width:1;stroke-linecap:round;stroke-linejoin:round;stroke:rgb(0%,0%,0%);stroke-opacity:1;stroke-miterlimit:10;" d="M 174.766602 528.399414 L 197.999023 528.399414 " transform="matrix(1.333333,0,0,1.333333,-106.666667,-585.333333)"/>
<path style="fill:none;stroke-width:1;stroke-linecap:butt;stroke-linejoin:miter;stroke:rgb(0%,0%,0%);stroke-opacity:1;stroke-miterlimit:10;" d="M 202.000977 528.399414 L 197.999023 528.399414 M 197.999023 526.899414 L 202.000977 528.399414 L 197.999023 529.899414 " transform="matrix(1.333333,0,0,1.333333,-106.666667,-585.333333)"/>
<path style="fill:none;stroke-width:1;stroke-linecap:round;stroke-linejoin:round;stroke:rgb(0%,0%,0%);stroke-opacity:1;stroke-miterlimit:10;" d="M 227.899414 528.074219 L 238.000977 527.801758 " transform="matrix(1.333333,0,0,1.333333,-106.666667,-585.333333)"/>
<path style="fill:none;stroke-width:1;stroke-linecap:butt;stroke-linejoin:miter;stroke:rgb(0%,0%,0%);stroke-opacity:1;stroke-miterlimit:10;" d="M 242 527.696289 L 238.000977 527.801758 M 237.959961 526.304688 L 242 527.696289 L 238.041992 529.301758 " transform="matrix(1.333333,0,0,1.333333,-106.666667,-585.333333)"/>
<path style="fill:none;stroke-width:1;stroke-linecap:round;stroke-linejoin:round;stroke:rgb(0%,0%,0%);stroke-opacity:1;stroke-miterlimit:10;" d="M 261.901367 527.643555 L 272.00293 527.918945 " transform="matrix(1.333333,0,0,1.333333,-106.666667,-585.333333)"/>
<path style="fill:none;stroke-width:1;stroke-linecap:butt;stroke-linejoin:miter;stroke:rgb(0%,0%,0%);stroke-opacity:1;stroke-miterlimit:10;" d="M 275.999023 528.024414 L 272.00293 527.918945 M 272.043945 526.418945 L 275.999023 528.024414 L 271.961914 529.413086 " transform="matrix(1.333333,0,0,1.333333,-106.666667,-585.333333)"/>
<path style="fill:none;stroke-width:1;stroke-linecap:round;stroke-linejoin:round;stroke:rgb(0%,0%,0%);stroke-opacity:1;stroke-miterlimit:10;" d="M 277.897461 489.874023 L 267.795898 489.601562 " transform="matrix(1.333333,0,0,1.333333,-106.666667,-585.333333)"/>
<path style="fill:none;stroke-width:1;stroke-linecap:butt;stroke-linejoin:miter;stroke:rgb(0%,0%,0%);stroke-opacity:1;stroke-miterlimit:10;" d="M 263.799805 489.496094 L 267.795898 489.601562 M 267.757812 491.101562 L 263.799805 489.496094 L 267.839844 488.101562 " transform="matrix(1.333333,0,0,1.333333,-106.666667,-585.333333)"/>
<path style="fill:none;stroke-width:1;stroke-linecap:round;stroke-linejoin:round;stroke:rgb(0%,0%,0%);stroke-opacity:1;stroke-miterlimit:10;" d="M 243.898438 489.44043 L 233.796875 489.71582 " transform="matrix(1.333333,0,0,1.333333,-106.666667,-585.333333)"/>
<path style="fill:none;stroke-width:1;stroke-linecap:butt;stroke-linejoin:miter;stroke:rgb(0%,0%,0%);stroke-opacity:1;stroke-miterlimit:10;" d="M 229.800781 489.824219 L 233.796875 489.71582 M 233.84082 491.21582 L 229.800781 489.824219 L 233.758789 488.21875 " transform="matrix(1.333333,0,0,1.333333,-106.666667,-585.333333)"/>
<path style="fill:none;stroke-width:1;stroke-linecap:round;stroke-linejoin:round;stroke:rgb(0%,0%,0%);stroke-opacity:1;stroke-miterlimit:10;" d="M 203.899414 490.199219 L 180.664062 490.199219 " transform="matrix(1.333333,0,0,1.333333,-106.666667,-585.333333)"/>
<path style="fill:none;stroke-width:1;stroke-linecap:butt;stroke-linejoin:miter;stroke:rgb(0%,0%,0%);stroke-opacity:1;stroke-miterlimit:10;" d="M 176.665039 490.199219 L 180.664062 490.199219 M 180.664062 491.699219 L 176.665039 490.199219 L 180.664062 488.699219 " transform="matrix(1.333333,0,0,1.333333,-106.666667,-585.333333)"/>
<path style="fill:none;stroke-width:0.5;stroke-linecap:round;stroke-linejoin:round;stroke:rgb(0%,0%,0%);stroke-opacity:1;stroke-miterlimit:10;" d="M 164.398438 484.448242 L 159.602539 484.448242 " transform="matrix(1.333333,0,0,1.333333,-106.666667,-585.333333)"/>
<path style="fill:none;stroke-width:0.5;stroke-linecap:butt;stroke-linejoin:miter;stroke:rgb(0%,0%,0%);stroke-opacity:1;stroke-miterlimit:10;" d="M 157.601562 484.448242 L 159.602539 484.448242 M 159.602539 485.198242 L 157.601562 484.448242 L 159.602539 483.698242 " transform="matrix(1.333333,0,0,1.333333,-106.666667,-585.333333)"/>
<path style="fill-rule:nonzero;fill:rgb(69.803923%,85.09804%,100%);fill-opacity:1;stroke-width:1;stroke-linecap:round;stroke-linejoin:round;stroke:rgb(0%,0%,0%);stroke-opacity:1;stroke-miterlimit:10;" d="M 97.094727 554.602539 L 121.094727 554.602539 L 121.094727 578.602539 L 97.094727 578.602539 Z M 97.094727 554.602539 " transform="matrix(1.333333,0,0,1.333333,-106.666667,-585.333333)"/>
<path style=" stroke:none;fill-rule:nonzero;fill:rgb(0%,0%,0%);fill-opacity:1;" d="M 40.855469 171.464844 L 40.855469 171.175781 C 40.4375 171.152344 40.25 171.007812 39.6875 170.132812 L 37.5 166.738281 L 38.457031 165.402344 C 39.5 163.945312 39.8125 163.738281 40.707031 163.652344 L 40.707031 163.363281 L 37.707031 163.363281 L 37.707031 163.652344 L 37.957031 163.675781 C 38.417969 163.714844 38.582031 163.820312 38.582031 164.089844 C 38.582031 164.363281 38.4375 164.589844 37.875 165.363281 L 37.207031 166.300781 L 36.042969 164.488281 C 35.894531 164.257812 35.875 164.195312 35.875 164.050781 C 35.875 163.800781 36 163.695312 36.4375 163.675781 L 36.8125 163.652344 L 36.8125 163.363281 L 32.667969 163.363281 L 32.667969 163.652344 C 33.105469 163.695312 33.25 163.820312 33.625 164.339844 L 36 167.839844 L 33.894531 170.488281 C 33.542969 170.945312 33.25 171.089844 32.644531 171.175781 L 32.644531 171.464844 L 35.644531 171.464844 L 35.644531 171.175781 C 34.917969 171.089844 34.6875 170.964844 34.6875 170.652344 C 34.6875 170.402344 34.917969 170.027344 35.8125 168.820312 L 36.269531 168.214844 L 37.480469 170.152344 C 37.625 170.382812 37.730469 170.652344 37.730469 170.800781 C 37.730469 171.007812 37.519531 171.113281 37.105469 171.132812 L 36.769531 171.175781 L 36.769531 171.464844 Z M 40.855469 171.464844 "/>
<path style=" stroke:none;fill-rule:nonzero;fill:rgb(0%,0%,0%);fill-opacity:1;" d="M 44.269531 176.800781 L 44.269531 176.675781 C 43.664062 176.675781 43.519531 176.527344 43.519531 176.195312 L 43.519531 171.425781 L 43.433594 171.382812 L 42.019531 172.113281 L 42.019531 172.238281 L 42.226562 172.152344 C 42.371094 172.089844 42.496094 172.050781 42.582031 172.050781 C 42.746094 172.050781 42.832031 172.175781 42.832031 172.445312 L 42.832031 176.050781 C 42.832031 176.488281 42.664062 176.652344 42.058594 176.675781 L 42.058594 176.800781 Z M 44.269531 176.800781 "/>
<path style="fill:none;stroke-width:1;stroke-linecap:round;stroke-linejoin:round;stroke:rgb(0%,0%,0%);stroke-opacity:1;stroke-miterlimit:10;" d="M 97.094727 478.199219 L 121.094727 478.199219 L 121.094727 502.199219 L 97.094727 502.199219 Z M 97.094727 478.199219 " transform="matrix(1.333333,0,0,1.333333,-106.666667,-585.333333)"/>
<path style=" stroke:none;fill-rule:nonzero;fill:rgb(0%,0%,0%);fill-opacity:1;" d="M 41.226562 72.265625 L 41.226562 71.976562 C 40.371094 71.851562 40.164062 71.726562 40.164062 71.101562 L 40.164062 65.351562 C 40.164062 64.703125 40.414062 64.515625 41.226562 64.453125 L 41.226562 64.164062 L 37.164062 64.164062 L 37.164062 64.453125 C 37.996094 64.515625 38.226562 64.664062 38.226562 65.351562 L 38.226562 67.789062 L 35.332031 67.789062 L 35.332031 65.351562 C 35.332031 64.664062 35.558594 64.515625 36.414062 64.453125 L 36.414062 64.164062 L 32.371094 64.164062 L 32.371094 64.453125 C 33.183594 64.515625 33.394531 64.683594 33.394531 65.351562 L 33.394531 71.101562 C 33.394531 71.726562 33.207031 71.851562 32.371094 71.976562 L 32.371094 72.265625 L 36.414062 72.265625 L 36.414062 71.976562 C 35.539062 71.871094 35.332031 71.726562 35.332031 71.101562 L 35.332031 68.351562 L 38.226562 68.351562 L 38.226562 71.101562 C 38.226562 71.703125 38.039062 71.871094 37.164062 71.976562 L 37.164062 72.265625 Z M 41.226562 72.265625 "/>
<path style=" stroke:none;fill-rule:nonzero;fill:rgb(0%,0%,0%);fill-opacity:1;" d="M 44.605469 76.265625 L 44.605469 76.140625 C 44 76.140625 43.855469 75.996094 43.855469 75.664062 L 43.855469 70.890625 L 43.769531 70.851562 L 42.355469 71.578125 L 42.355469 71.703125 L 42.5625 71.621094 C 42.707031 71.558594 42.832031 71.515625 42.917969 71.515625 C 43.082031 71.515625 43.167969 71.640625 43.167969 71.914062 L 43.167969 75.515625 C 43.167969 75.953125 43 76.121094 42.394531 76.140625 L 42.394531 76.265625 Z M 44.605469 76.265625 "/>
<path style="fill:none;stroke-width:1;stroke-linecap:round;stroke-linejoin:round;stroke:rgb(0%,0%,0%);stroke-opacity:1;stroke-miterlimit:10;" d="M 97.094727 516.399414 L 121.094727 516.399414 L 121.094727 540.399414 L 97.094727 540.399414 Z M 97.094727 516.399414 " transform="matrix(1.333333,0,0,1.333333,-106.666667,-585.333333)"/>
<path style=" stroke:none;fill-rule:nonzero;fill:rgb(0%,0%,0%);fill-opacity:1;" d="M 41.226562 123.199219 L 41.226562 122.910156 C 40.371094 122.785156 40.164062 122.660156 40.164062 122.035156 L 40.164062 116.285156 C 40.164062 115.636719 40.414062 115.449219 41.226562 115.386719 L 41.226562 115.097656 L 37.164062 115.097656 L 37.164062 115.386719 C 37.996094 115.449219 38.226562 115.597656 38.226562 116.285156 L 38.226562 118.722656 L 35.332031 118.722656 L 35.332031 116.285156 C 35.332031 115.597656 35.558594 115.449219 36.414062 115.386719 L 36.414062 115.097656 L 32.371094 115.097656 L 32.371094 115.386719 C 33.183594 115.449219 33.394531 115.617188 33.394531 116.285156 L 33.394531 122.035156 C 33.394531 122.660156 33.207031 122.785156 32.371094 122.910156 L 32.371094 123.199219 L 36.414062 123.199219 L 36.414062 122.910156 C 35.539062 122.804688 35.332031 122.660156 35.332031 122.035156 L 35.332031 119.285156 L 38.226562 119.285156 L 38.226562 122.035156 C 38.226562 122.636719 38.039062 122.804688 37.164062 122.910156 L 37.164062 123.199219 Z M 41.226562 123.199219 "/>
<path style=" stroke:none;fill-rule:nonzero;fill:rgb(0%,0%,0%);fill-opacity:1;" d="M 44.605469 127.199219 L 44.605469 127.074219 C 44 127.074219 43.855469 126.929688 43.855469 126.597656 L 43.855469 121.824219 L 43.769531 121.785156 L 42.355469 122.511719 L 42.355469 122.636719 L 42.5625 122.554688 C 42.707031 122.492188 42.832031 122.449219 42.917969 122.449219 C 43.082031 122.449219 43.167969 122.574219 43.167969 122.847656 L 43.167969 126.449219 C 43.167969 126.886719 43 127.054688 42.394531 127.074219 L 42.394531 127.199219 Z M 44.605469 127.199219 "/>
<path style="fill:none;stroke-width:0.5;stroke-linecap:round;stroke-linejoin:round;stroke:rgb(0%,0%,0%);stroke-opacity:1;stroke-miterlimit:10;" d="M 103.800781 522.601562 L 108.602539 522.601562 " transform="matrix(1.333333,0,0,1.333333,-106.666667,-585.333333)"/>
<path style="fill:none;stroke-width:0.5;stroke-linecap:butt;stroke-linejoin:miter;stroke:rgb(0%,0%,0%);stroke-opacity:1;stroke-miterlimit:10;" d="M 110.600586 522.601562 L 108.602539 522.601562 M 108.602539 521.851562 L 110.600586 522.601562 L 108.602539 523.351562 " transform="matrix(1.333333,0,0,1.333333,-106.666667,-585.333333)"/>
<path style="fill:none;stroke-width:1;stroke-linecap:round;stroke-linejoin:round;stroke:rgb(0%,0%,0%);stroke-opacity:1;stroke-miterlimit:10;" d="M 97.416992 554.602539 C 92.038086 547.65332 86.829102 538.219727 86.829102 527.749023 C 86.829102 519.791992 89.84082 512.614258 93.643555 506.710938 " transform="matrix(1.333333,0,0,1.333333,-106.666667,-585.333333)"/>
<path style="fill:none;stroke-width:1;stroke-linecap:butt;stroke-linejoin:miter;stroke:rgb(0%,0%,0%);stroke-opacity:1;stroke-miterlimit:10;" d="M 95.981445 503.464844 L 93.643555 506.710938 M 92.424805 505.832031 L 95.981445 503.464844 L 94.859375 507.586914 " transform="matrix(1.333333,0,0,1.333333,-106.666667,-585.333333)"/>
<path style="fill:none;stroke-width:1;stroke-linecap:round;stroke-linejoin:round;stroke:rgb(0%,0%,0%);stroke-opacity:1;stroke-miterlimit:10;" d="M 109.094727 554.602539 L 109.094727 546.299805 " transform="matrix(1.333333,0,0,1.333333,-106.666667,-585.333333)"/>
<path style="fill:none;stroke-width:1;stroke-linecap:butt;stroke-linejoin:miter;stroke:rgb(0%,0%,0%);stroke-opacity:1;stroke-miterlimit:10;" d="M 109.094727 542.300781 L 109.094727 546.299805 M 107.594727 546.299805 L 109.094727 542.300781 L 110.594727 546.299805 " transform="matrix(1.333333,0,0,1.333333,-106.666667,-585.333333)"/>
<path style="fill-rule:nonzero;fill:rgb(69.803923%,85.09804%,100%);fill-opacity:1;stroke-width:1;stroke-linecap:round;stroke-linejoin:round;stroke:rgb(0%,0%,0%);stroke-opacity:1;stroke-miterlimit:10;" d="M 97.094727 439.999023 L 121.094727 439.999023 L 121.094727 463.999023 L 97.094727 463.999023 Z M 97.094727 439.999023 " transform="matrix(1.333333,0,0,1.333333,-106.666667,-585.333333)"/>
<path style=" stroke:none;fill-rule:nonzero;fill:rgb(0%,0%,0%);fill-opacity:1;" d="M 41.039062 15.3125 C 41.039062 12.832031 39.269531 11.042969 36.851562 11.042969 C 34.351562 11.042969 32.539062 12.769531 32.539062 15.332031 C 32.539062 17.8125 34.289062 19.5625 36.769531 19.5625 C 39.269531 19.5625 41.039062 17.8125 41.039062 15.3125 Z M 38.914062 15.394531 C 38.914062 17.875 38.183594 19.167969 36.808594 19.167969 C 35.433594 19.167969 34.664062 17.894531 34.664062 15.375 C 34.664062 12.855469 35.414062 11.4375 36.746094 11.4375 C 38.144531 11.4375 38.914062 12.832031 38.914062 15.394531 Z M 38.914062 15.394531 "/>
<path style=" stroke:none;fill-rule:nonzero;fill:rgb(0%,0%,0%);fill-opacity:1;" d="M 44.605469 23.332031 L 44.605469 23.207031 C 44 23.207031 43.855469 23.0625 43.855469 22.730469 L 43.855469 17.957031 L 43.769531 17.917969 L 42.355469 18.644531 L 42.355469 18.769531 L 42.5625 18.6875 C 42.707031 18.625 42.832031 18.582031 42.917969 18.582031 C 43.082031 18.582031 43.167969 18.707031 43.167969 18.980469 L 43.167969 22.582031 C 43.167969 23.019531 43 23.1875 42.394531 23.207031 L 42.394531 23.332031 Z M 44.605469 23.332031 "/>
<path style="fill:none;stroke-width:1;stroke-linecap:round;stroke-linejoin:round;stroke:rgb(0%,0%,0%);stroke-opacity:1;stroke-miterlimit:10;" d="M 109.094727 478.199219 L 109.094727 469.899414 " transform="matrix(1.333333,0,0,1.333333,-106.666667,-585.333333)"/>
<path style="fill:none;stroke-width:1;stroke-linecap:butt;stroke-linejoin:miter;stroke:rgb(0%,0%,0%);stroke-opacity:1;stroke-miterlimit:10;" d="M 109.094727 465.897461 L 109.094727 469.899414 M 107.594727 469.899414 L 109.094727 465.897461 L 110.594727 469.899414 " transform="matrix(1.333333,0,0,1.333333,-106.666667,-585.333333)"/>
<path style="fill:none;stroke-width:1;stroke-linecap:round;stroke-linejoin:round;stroke:rgb(0%,0%,0%);stroke-opacity:1;stroke-miterlimit:10;" d="M 121.094727 528.399414 L 144.863281 528.399414 " transform="matrix(1.333333,0,0,1.333333,-106.666667,-585.333333)"/>
<path style="fill:none;stroke-width:1;stroke-linecap:butt;stroke-linejoin:miter;stroke:rgb(0%,0%,0%);stroke-opacity:1;stroke-miterlimit:10;" d="M 148.862305 528.399414 L 144.863281 528.399414 M 144.863281 526.899414 L 148.862305 528.399414 L 144.863281 529.899414 " transform="matrix(1.333333,0,0,1.333333,-106.666667,-585.333333)"/>
<path style="fill:none;stroke-width:1;stroke-linecap:round;stroke-linejoin:round;stroke:rgb(0%,0%,0%);stroke-opacity:1;stroke-miterlimit:10;" d="M 150.766602 490.199219 L 126.992188 490.199219 " transform="matrix(1.333333,0,0,1.333333,-106.666667,-585.333333)"/>
<path style="fill:none;stroke-width:1;stroke-linecap:butt;stroke-linejoin:miter;stroke:rgb(0%,0%,0%);stroke-opacity:1;stroke-miterlimit:10;" d="M 122.993164 490.199219 L 126.992188 490.199219 M 126.992188 491.699219 L 122.993164 490.199219 L 126.992188 488.699219 " transform="matrix(1.333333,0,0,1.333333,-106.666667,-585.333333)"/>
<path style="fill:none;stroke-width:0.5;stroke-linecap:round;stroke-linejoin:round;stroke:rgb(0%,0%,0%);stroke-opacity:1;stroke-miterlimit:10;" d="M 110.594727 484.448242 L 105.792969 484.448242 " transform="matrix(1.333333,0,0,1.333333,-106.666667,-585.333333)"/>
<path style="fill:none;stroke-width:0.5;stroke-linecap:butt;stroke-linejoin:miter;stroke:rgb(0%,0%,0%);stroke-opacity:1;stroke-miterlimit:10;" d="M 103.791992 484.448242 L 105.792969 484.448242 M 105.792969 485.198242 L 103.791992 484.448242 L 105.792969 483.698242 " transform="matrix(1.333333,0,0,1.333333,-106.666667,-585.333333)"/>
<path style="fill:none;stroke-width:1;stroke-linecap:round;stroke-linejoin:round;stroke:rgb(0%,0%,0%);stroke-opacity:1;stroke-miterlimit:10;" d="M 121.094727 523.492188 C 127.194336 519.660156 133.334961 513.094727 133.334961 502.199219 C 133.334961 491.371094 127.264648 478.808594 121.200195 468.961914 " transform="matrix(1.333333,0,0,1.333333,-106.666667,-585.333333)"/>
<path style="fill:none;stroke-width:1;stroke-linecap:butt;stroke-linejoin:miter;stroke:rgb(0%,0%,0%);stroke-opacity:1;stroke-miterlimit:10;" d="M 119.035156 465.598633 L 121.200195 468.961914 M 119.94043 469.773438 L 119.035156 465.598633 L 122.459961 468.147461 " transform="matrix(1.333333,0,0,1.333333,-106.666667,-585.333333)"/>
</g>
</svg>
