<?xml version="1.0" encoding="UTF-8"?>
<svg xmlns="http://www.w3.org/2000/svg" xmlns:xlink="http://www.w3.org/1999/xlink" width="299pt" height="229pt" viewBox="0 0 299 229" version="1.1">
<defs>
<clipPath id="clip1">
  <path d="M 61 92 L 281.753906 92 L 281.753906 152 L 61 152 Z M 61 92 "/>
</clipPath>
<clipPath id="clip2">
  <path d="M 61 92 L 281.753906 92 L 281.753906 152 L 61 152 Z M 61 92 "/>
</clipPath>
<clipPath id="clip3">
  <path d="M 61 15 L 281.753906 15 L 281.753906 39 L 61 39 Z M 61 15 "/>
</clipPath>
<filter id="alpha" filterUnits="objectBoundingBox" x="0%" y="0%" width="100%" height="100%">
  <feColorMatrix type="matrix" in="SourceGraphic" values="0 0 0 0 1 0 0 0 0 1 0 0 0 0 1 0 0 0 1 0"/>
</filter>
<mask id="mask0">
  <g filter="url(#alpha)">
<rect x="0" y="0" width="299" height="229" style="fill:rgb(0%,0%,0%);fill-opacity:0.8;stroke:none;"/>
  </g>
</mask>
<clipPath id="clip4">
  <rect x="0" y="0" width="299" height="229"/>
</clipPath>
<g id="surface5" clip-path="url(#clip4)">
<path style="fill-rule:nonzero;fill:rgb(100%,100%,100%);fill-opacity:1;stroke-width:1;stroke-linecap:butt;stroke-linejoin:miter;stroke:rgb(80%,80%,80%);stroke-opacity:1;stroke-miterlimit:4;" d="M 138.8125 100.434375 L 218.403125 100.434375 C 219.7375 100.434375 220.403125 99.76875 220.403125 98.434375 L 220.403125 54.565625 C 220.403125 53.23125 219.7375 52.565625 218.403125 52.565625 L 138.8125 52.565625 C 137.478125 52.565625 136.8125 53.23125 136.8125 54.565625 L 136.8125 98.434375 C 136.8125 99.76875 137.478125 100.434375 138.8125 100.434375 Z M 138.8125 100.434375 " transform="matrix(1.25,0,0,1.25,0.000000000000028422,0)"/>
</g>
</defs>
<g id="surface1">
<path style=" stroke:none;fill-rule:nonzero;fill:rgb(100%,100%,100%);fill-opacity:1;" d="M 0 229.195312 L 298.707031 229.195312 L 298.707031 0 L 0 0 Z M 0 229.195312 "/>
<path style=" stroke:none;fill-rule:nonzero;fill:rgb(100%,100%,100%);fill-opacity:1;" d="M 37.628906 182.25 L 281.753906 182.25 L 281.753906 9 L 37.628906 9 Z M 37.628906 182.25 "/>
<path style="fill:none;stroke-width:0.8;stroke-linecap:butt;stroke-linejoin:round;stroke:rgb(0%,0%,0%);stroke-opacity:1;stroke-miterlimit:4;" d="M -0.000000000000017764 0 L -0.000000000000017764 3.5 " transform="matrix(1.25,0,0,1.25,37.628906,182.25)"/>
<path style=" stroke:none;fill-rule:nonzero;fill:rgb(0%,0%,0%);fill-opacity:1;" d="M 37.625 192.199219 C 36.992188 192.199219 36.515625 192.511719 36.195312 193.136719 C 35.875 193.757812 35.714844 194.699219 35.714844 195.953125 C 35.714844 197.199219 35.875 198.136719 36.195312 198.761719 C 36.515625 199.386719 36.992188 199.699219 37.625 199.699219 C 38.265625 199.699219 38.742188 199.386719 39.0625 198.761719 C 39.382812 198.136719 39.542969 197.199219 39.542969 195.953125 C 39.542969 194.699219 39.382812 193.757812 39.0625 193.136719 C 38.742188 192.511719 38.265625 192.199219 37.625 192.199219 Z M 37.625 191.222656 C 38.648438 191.222656 39.429688 191.625 39.96875 192.433594 C 40.507812 193.242188 40.777344 194.414062 40.777344 195.953125 C 40.777344 197.484375 40.507812 198.65625 39.96875 199.464844 C 39.429688 200.273438 38.648438 200.675781 37.625 200.675781 C 36.605469 200.675781 35.824219 200.273438 35.285156 199.464844 C 34.746094 198.65625 34.476562 197.484375 34.476562 195.953125 C 34.476562 194.414062 34.746094 193.242188 35.285156 192.433594 C 35.824219 191.625 36.605469 191.222656 37.625 191.222656 Z M 37.625 191.222656 "/>
<path style="fill:none;stroke-width:0.8;stroke-linecap:butt;stroke-linejoin:round;stroke:rgb(0%,0%,0%);stroke-opacity:1;stroke-miterlimit:4;" d="M -0.000625 0 L -0.000625 3.5 " transform="matrix(1.25,0,0,1.25,86.453906,182.25)"/>
<path style=" stroke:none;fill-rule:nonzero;fill:rgb(0%,0%,0%);fill-opacity:1;" d="M 84.875 199.460938 L 89.179688 199.460938 L 89.179688 200.5 L 83.394531 200.5 L 83.394531 199.460938 C 83.859375 198.976562 84.5 198.328125 85.304688 197.511719 C 86.113281 196.695312 86.621094 196.167969 86.828125 195.933594 C 87.222656 195.488281 87.5 195.113281 87.65625 194.808594 C 87.8125 194.5 87.890625 194.199219 87.890625 193.902344 C 87.890625 193.417969 87.722656 193.023438 87.382812 192.71875 C 87.042969 192.410156 86.597656 192.257812 86.054688 192.257812 C 85.667969 192.257812 85.257812 192.324219 84.828125 192.460938 C 84.402344 192.59375 83.941406 192.796875 83.453125 193.070312 L 83.453125 191.824219 C 83.949219 191.625 84.414062 191.476562 84.84375 191.375 C 85.277344 191.273438 85.671875 191.222656 86.03125 191.222656 C 86.972656 191.222656 87.726562 191.457031 88.289062 191.929688 C 88.847656 192.402344 89.128906 193.03125 89.128906 193.820312 C 89.128906 194.195312 89.058594 194.550781 88.917969 194.886719 C 88.78125 195.222656 88.523438 195.617188 88.152344 196.074219 C 88.050781 196.191406 87.726562 196.53125 87.183594 197.097656 C 86.636719 197.660156 85.871094 198.449219 84.875 199.460938 Z M 84.875 199.460938 "/>
<path style="fill:none;stroke-width:0.8;stroke-linecap:butt;stroke-linejoin:round;stroke:rgb(0%,0%,0%);stroke-opacity:1;stroke-miterlimit:4;" d="M -0.00125 0 L -0.00125 3.5 " transform="matrix(1.25,0,0,1.25,135.278906,182.25)"/>
<path style=" stroke:none;fill-rule:nonzero;fill:rgb(0%,0%,0%);fill-opacity:1;" d="M 136.027344 192.460938 L 132.914062 197.324219 L 136.027344 197.324219 Z M 135.703125 191.386719 L 137.253906 191.386719 L 137.253906 197.324219 L 138.554688 197.324219 L 138.554688 198.351562 L 137.253906 198.351562 L 137.253906 200.5 L 136.027344 200.5 L 136.027344 198.351562 L 131.914062 198.351562 L 131.914062 197.160156 Z M 135.703125 191.386719 "/>
<path style="fill:none;stroke-width:0.8;stroke-linecap:butt;stroke-linejoin:round;stroke:rgb(0%,0%,0%);stroke-opacity:1;stroke-miterlimit:4;" d="M 0.00125 0 L 0.00125 3.5 " transform="matrix(1.25,0,0,1.25,184.103906,182.25)"/>
<path style=" stroke:none;fill-rule:nonzero;fill:rgb(0%,0%,0%);fill-opacity:1;" d="M 184.253906 195.453125 C 183.699219 195.453125 183.261719 195.640625 182.9375 196.019531 C 182.613281 196.398438 182.453125 196.914062 182.453125 197.574219 C 182.453125 198.230469 182.613281 198.746094 182.9375 199.128906 C 183.261719 199.507812 183.699219 199.699219 184.253906 199.699219 C 184.808594 199.699219 185.246094 199.507812 185.570312 199.128906 C 185.890625 198.746094 186.054688 198.230469 186.054688 197.574219 C 186.054688 196.914062 185.890625 196.398438 185.570312 196.019531 C 185.246094 195.640625 184.808594 195.453125 184.253906 195.453125 Z M 186.703125 191.585938 L 186.703125 192.710938 C 186.390625 192.5625 186.078125 192.453125 185.765625 192.375 C 185.449219 192.296875 185.136719 192.257812 184.828125 192.257812 C 184.011719 192.257812 183.390625 192.53125 182.960938 193.082031 C 182.53125 193.632812 182.289062 194.460938 182.226562 195.574219 C 182.464844 195.21875 182.765625 194.945312 183.128906 194.757812 C 183.492188 194.570312 183.890625 194.476562 184.328125 194.476562 C 185.242188 194.476562 185.964844 194.753906 186.496094 195.308594 C 187.027344 195.863281 187.292969 196.617188 187.292969 197.574219 C 187.292969 198.511719 187.015625 199.261719 186.464844 199.828125 C 185.910156 200.394531 185.171875 200.675781 184.253906 200.675781 C 183.199219 200.675781 182.394531 200.273438 181.835938 199.464844 C 181.277344 198.65625 181 197.484375 181 195.953125 C 181 194.511719 181.34375 193.363281 182.027344 192.507812 C 182.710938 191.648438 183.625 191.222656 184.777344 191.222656 C 185.085938 191.222656 185.398438 191.25 185.714844 191.3125 C 186.03125 191.375 186.359375 191.464844 186.703125 191.585938 Z M 186.703125 191.585938 "/>
<path style="fill:none;stroke-width:0.8;stroke-linecap:butt;stroke-linejoin:round;stroke:rgb(0%,0%,0%);stroke-opacity:1;stroke-miterlimit:4;" d="M 0.000625 0 L 0.000625 3.5 " transform="matrix(1.25,0,0,1.25,232.928906,182.25)"/>
<path style=" stroke:none;fill-rule:nonzero;fill:rgb(0%,0%,0%);fill-opacity:1;" d="M 232.925781 196.171875 C 232.339844 196.171875 231.878906 196.328125 231.542969 196.640625 C 231.207031 196.953125 231.039062 197.386719 231.039062 197.933594 C 231.039062 198.484375 231.207031 198.914062 231.542969 199.230469 C 231.878906 199.542969 232.339844 199.699219 232.925781 199.699219 C 233.511719 199.699219 233.972656 199.542969 234.308594 199.226562 C 234.648438 198.910156 234.816406 198.480469 234.816406 197.933594 C 234.816406 197.386719 234.648438 196.953125 234.3125 196.640625 C 233.980469 196.328125 233.515625 196.171875 232.925781 196.171875 Z M 231.691406 195.648438 C 231.164062 195.515625 230.75 195.269531 230.457031 194.910156 C 230.160156 194.546875 230.015625 194.101562 230.015625 193.582031 C 230.015625 192.855469 230.273438 192.277344 230.792969 191.855469 C 231.3125 191.433594 232.023438 191.222656 232.925781 191.222656 C 233.832031 191.222656 234.542969 191.433594 235.0625 191.855469 C 235.578125 192.277344 235.835938 192.855469 235.835938 193.582031 C 235.835938 194.101562 235.6875 194.546875 235.394531 194.910156 C 235.097656 195.269531 234.691406 195.515625 234.164062 195.648438 C 234.757812 195.785156 235.222656 196.054688 235.550781 196.460938 C 235.882812 196.863281 236.050781 197.351562 236.050781 197.933594 C 236.050781 198.816406 235.78125 199.496094 235.242188 199.96875 C 234.703125 200.441406 233.929688 200.675781 232.925781 200.675781 C 231.921875 200.675781 231.148438 200.441406 230.609375 199.96875 C 230.070312 199.496094 229.800781 198.816406 229.800781 197.933594 C 229.800781 197.351562 229.964844 196.863281 230.300781 196.460938 C 230.632812 196.054688 231.097656 195.785156 231.691406 195.648438 Z M 231.242188 193.699219 C 231.242188 194.171875 231.386719 194.539062 231.683594 194.804688 C 231.976562 195.066406 232.390625 195.199219 232.925781 195.199219 C 233.453125 195.199219 233.867188 195.066406 234.167969 194.804688 C 234.464844 194.539062 234.617188 194.171875 234.617188 193.699219 C 234.617188 193.226562 234.464844 192.859375 234.167969 192.59375 C 233.867188 192.328125 233.453125 192.199219 232.925781 192.199219 C 232.390625 192.199219 231.976562 192.328125 231.683594 192.59375 C 231.386719 192.859375 231.242188 193.226562 231.242188 193.699219 Z M 231.242188 193.699219 "/>
<path style="fill:none;stroke-width:0.8;stroke-linecap:butt;stroke-linejoin:round;stroke:rgb(0%,0%,0%);stroke-opacity:1;stroke-miterlimit:4;" d="M 0 0 L 0 3.5 " transform="matrix(1.25,0,0,1.25,281.753906,182.25)"/>
<path style=" stroke:none;fill-rule:nonzero;fill:rgb(0%,0%,0%);fill-opacity:1;" d="M 275.351562 199.460938 L 277.367188 199.460938 L 277.367188 192.507812 L 275.171875 192.949219 L 275.171875 191.824219 L 277.351562 191.386719 L 278.585938 191.386719 L 278.585938 199.460938 L 280.601562 199.460938 L 280.601562 200.5 L 275.351562 200.5 Z M 275.351562 199.460938 "/>
<path style=" stroke:none;fill-rule:nonzero;fill:rgb(0%,0%,0%);fill-opacity:1;" d="M 285.726562 192.199219 C 285.09375 192.199219 284.613281 192.511719 284.292969 193.136719 C 283.976562 193.757812 283.816406 194.699219 283.816406 195.953125 C 283.816406 197.199219 283.976562 198.136719 284.292969 198.761719 C 284.613281 199.386719 285.09375 199.699219 285.726562 199.699219 C 286.367188 199.699219 286.84375 199.386719 287.164062 198.761719 C 287.484375 198.136719 287.644531 197.199219 287.644531 195.953125 C 287.644531 194.699219 287.484375 193.757812 287.164062 193.136719 C 286.84375 192.511719 286.367188 192.199219 285.726562 192.199219 Z M 285.726562 191.222656 C 286.75 191.222656 287.527344 191.625 288.066406 192.433594 C 288.605469 193.242188 288.875 194.414062 288.875 195.953125 C 288.875 197.484375 288.605469 198.65625 288.066406 199.464844 C 287.527344 200.273438 286.75 200.675781 285.726562 200.675781 C 284.707031 200.675781 283.925781 200.273438 283.386719 199.464844 C 282.847656 198.65625 282.578125 197.484375 282.578125 195.953125 C 282.578125 194.414062 282.847656 193.242188 283.386719 192.433594 C 283.925781 191.625 284.707031 191.222656 285.726562 191.222656 Z M 285.726562 191.222656 "/>
<path style=" stroke:none;fill-rule:nonzero;fill:rgb(0%,0%,0%);fill-opacity:1;" d="M 147.679688 213.898438 L 147.679688 214.445312 L 142.515625 214.445312 C 142.566406 215.21875 142.800781 215.808594 143.21875 216.214844 C 143.632812 216.617188 144.214844 216.820312 144.960938 216.820312 C 145.390625 216.820312 145.808594 216.769531 146.210938 216.664062 C 146.617188 216.558594 147.019531 216.398438 147.421875 216.1875 L 147.421875 217.25 C 147.015625 217.417969 146.601562 217.550781 146.179688 217.640625 C 145.757812 217.730469 145.328125 217.773438 144.890625 217.773438 C 143.800781 217.773438 142.9375 217.457031 142.300781 216.824219 C 141.664062 216.1875 141.34375 215.328125 141.34375 214.246094 C 141.34375 213.125 141.648438 212.238281 142.25 211.582031 C 142.855469 210.925781 143.671875 210.597656 144.695312 210.597656 C 145.617188 210.597656 146.34375 210.890625 146.878906 211.484375 C 147.414062 212.074219 147.679688 212.878906 147.679688 213.898438 Z M 146.558594 213.566406 C 146.550781 212.953125 146.378906 212.464844 146.042969 212.097656 C 145.707031 211.730469 145.261719 211.546875 144.710938 211.546875 C 144.082031 211.546875 143.582031 211.722656 143.203125 212.078125 C 142.828125 212.433594 142.613281 212.929688 142.554688 213.574219 Z M 146.558594 213.566406 "/>
<path style=" stroke:none;fill-rule:nonzero;fill:rgb(0%,0%,0%);fill-opacity:1;" d="M 150.609375 216.570312 L 150.609375 220.195312 L 149.480469 220.195312 L 149.480469 210.761719 L 150.609375 210.761719 L 150.609375 211.796875 C 150.847656 211.390625 151.144531 211.089844 151.503906 210.894531 C 151.867188 210.695312 152.296875 210.597656 152.796875 210.597656 C 153.625 210.597656 154.300781 210.925781 154.820312 211.585938 C 155.339844 212.242188 155.597656 213.109375 155.597656 214.183594 C 155.597656 215.257812 155.339844 216.125 154.820312 216.785156 C 154.300781 217.445312 153.625 217.773438 152.796875 217.773438 C 152.296875 217.773438 151.867188 217.675781 151.503906 217.476562 C 151.144531 217.277344 150.847656 216.976562 150.609375 216.570312 Z M 154.433594 214.183594 C 154.433594 213.359375 154.261719 212.710938 153.921875 212.242188 C 153.582031 211.769531 153.117188 211.535156 152.523438 211.535156 C 151.925781 211.535156 151.460938 211.769531 151.121094 212.242188 C 150.78125 212.710938 150.609375 213.359375 150.609375 214.183594 C 150.609375 215.007812 150.78125 215.65625 151.121094 216.128906 C 151.460938 216.597656 151.925781 216.832031 152.523438 216.832031 C 153.117188 216.832031 153.582031 216.597656 153.921875 216.128906 C 154.261719 215.65625 154.433594 215.007812 154.433594 214.183594 Z M 154.433594 214.183594 "/>
<path style=" stroke:none;fill-rule:nonzero;fill:rgb(0%,0%,0%);fill-opacity:1;" d="M 160.109375 211.546875 C 159.507812 211.546875 159.03125 211.78125 158.679688 212.253906 C 158.328125 212.722656 158.15625 213.367188 158.15625 214.183594 C 158.15625 215 158.328125 215.644531 158.675781 216.117188 C 159.023438 216.585938 159.5 216.820312 160.109375 216.820312 C 160.707031 216.820312 161.179688 216.585938 161.53125 216.113281 C 161.878906 215.640625 162.054688 214.996094 162.054688 214.183594 C 162.054688 213.375 161.878906 212.730469 161.53125 212.257812 C 161.179688 211.785156 160.707031 211.546875 160.109375 211.546875 Z M 160.109375 210.597656 C 161.085938 210.597656 161.851562 210.914062 162.40625 211.550781 C 162.96875 212.183594 163.246094 213.0625 163.246094 214.183594 C 163.246094 215.300781 162.96875 216.179688 162.40625 216.820312 C 161.851562 217.457031 161.085938 217.773438 160.109375 217.773438 C 159.125 217.773438 158.359375 217.457031 157.804688 216.820312 C 157.25 216.179688 156.96875 215.300781 156.96875 214.183594 C 156.96875 213.0625 157.25 212.183594 157.804688 211.550781 C 158.359375 210.914062 159.125 210.597656 160.109375 210.597656 Z M 160.109375 210.597656 "/>
<path style=" stroke:none;fill-rule:nonzero;fill:rgb(0%,0%,0%);fill-opacity:1;" d="M 170.027344 211.023438 L 170.027344 212.074219 C 169.707031 211.898438 169.390625 211.765625 169.070312 211.679688 C 168.753906 211.589844 168.429688 211.546875 168.105469 211.546875 C 167.375 211.546875 166.808594 211.777344 166.40625 212.242188 C 166.003906 212.703125 165.800781 213.347656 165.800781 214.183594 C 165.800781 215.019531 166.003906 215.667969 166.40625 216.128906 C 166.808594 216.589844 167.375 216.820312 168.105469 216.820312 C 168.429688 216.820312 168.753906 216.777344 169.070312 216.691406 C 169.390625 216.601562 169.707031 216.472656 170.027344 216.296875 L 170.027344 217.335938 C 169.710938 217.480469 169.386719 217.589844 169.050781 217.664062 C 168.71875 217.738281 168.359375 217.773438 167.980469 217.773438 C 166.953125 217.773438 166.132812 217.449219 165.527344 216.804688 C 164.921875 216.15625 164.617188 215.28125 164.617188 214.183594 C 164.617188 213.070312 164.925781 212.191406 165.535156 211.554688 C 166.148438 210.914062 166.988281 210.597656 168.054688 210.597656 C 168.402344 210.597656 168.738281 210.632812 169.066406 210.703125 C 169.398438 210.773438 169.714844 210.878906 170.027344 211.023438 Z M 170.027344 211.023438 "/>
<path style=" stroke:none;fill-rule:nonzero;fill:rgb(0%,0%,0%);fill-opacity:1;" d="M 177.664062 213.46875 L 177.664062 217.597656 L 176.539062 217.597656 L 176.539062 213.507812 C 176.539062 212.859375 176.414062 212.375 176.160156 212.054688 C 175.910156 211.734375 175.53125 211.574219 175.027344 211.574219 C 174.417969 211.574219 173.941406 211.765625 173.589844 212.152344 C 173.242188 212.539062 173.066406 213.066406 173.066406 213.734375 L 173.066406 217.597656 L 171.9375 217.597656 L 171.9375 208.097656 L 173.066406 208.097656 L 173.066406 211.824219 C 173.335938 211.410156 173.652344 211.105469 174.015625 210.902344 C 174.378906 210.699219 174.800781 210.597656 175.277344 210.597656 C 176.0625 210.597656 176.65625 210.839844 177.058594 211.324219 C 177.460938 211.808594 177.664062 212.523438 177.664062 213.46875 Z M 177.664062 213.46875 "/>
<path style="fill:none;stroke-width:0.8;stroke-linecap:butt;stroke-linejoin:round;stroke:rgb(0%,0%,0%);stroke-opacity:1;stroke-miterlimit:4;" d="M -0.000000000000017764 -0.000622 L -3.5 -0.000622 " transform="matrix(1.25,0,0,1.25,37.628906,165.47734)"/>
<path style=" stroke:none;fill-rule:nonzero;fill:rgb(0%,0%,0%);fill-opacity:1;" d="M 12.972656 161.925781 C 12.339844 161.925781 11.863281 162.238281 11.542969 162.863281 C 11.222656 163.488281 11.0625 164.425781 11.0625 165.679688 C 11.0625 166.929688 11.222656 167.863281 11.542969 168.488281 C 11.863281 169.113281 12.339844 169.425781 12.972656 169.425781 C 13.613281 169.425781 14.089844 169.113281 14.410156 168.488281 C 14.730469 167.863281 14.890625 166.929688 14.890625 165.679688 C 14.890625 164.425781 14.730469 163.488281 14.410156 162.863281 C 14.089844 162.238281 13.613281 161.925781 12.972656 161.925781 Z M 12.972656 160.949219 C 13.996094 160.949219 14.777344 161.351562 15.316406 162.160156 C 15.855469 162.96875 16.125 164.140625 16.125 165.679688 C 16.125 167.214844 15.855469 168.382812 15.316406 169.191406 C 14.777344 170 13.996094 170.402344 12.972656 170.402344 C 11.953125 170.402344 11.171875 170 10.632812 169.191406 C 10.09375 168.382812 9.824219 167.214844 9.824219 165.679688 C 9.824219 164.140625 10.09375 162.96875 10.632812 162.160156 C 11.171875 161.351562 11.953125 160.949219 12.972656 160.949219 Z M 12.972656 160.949219 "/>
<path style=" stroke:none;fill-rule:nonzero;fill:rgb(0%,0%,0%);fill-opacity:1;" d="M 18.289062 168.675781 L 19.578125 168.675781 L 19.578125 170.226562 L 18.289062 170.226562 Z M 18.289062 168.675781 "/>
<path style=" stroke:none;fill-rule:nonzero;fill:rgb(0%,0%,0%);fill-opacity:1;" d="M 23.324219 169.1875 L 27.628906 169.1875 L 27.628906 170.226562 L 21.84375 170.226562 L 21.84375 169.1875 C 22.308594 168.703125 22.945312 168.054688 23.753906 167.238281 C 24.5625 166.421875 25.070312 165.898438 25.277344 165.660156 C 25.671875 165.21875 25.949219 164.84375 26.105469 164.535156 C 26.261719 164.226562 26.339844 163.925781 26.339844 163.628906 C 26.339844 163.144531 26.171875 162.75 25.832031 162.445312 C 25.492188 162.140625 25.046875 161.984375 24.503906 161.984375 C 24.117188 161.984375 23.707031 162.054688 23.277344 162.1875 C 22.847656 162.320312 22.390625 162.523438 21.902344 162.796875 L 21.902344 161.550781 C 22.398438 161.351562 22.863281 161.203125 23.292969 161.101562 C 23.726562 161 24.121094 160.949219 24.480469 160.949219 C 25.421875 160.949219 26.175781 161.183594 26.738281 161.65625 C 27.296875 162.128906 27.578125 162.757812 27.578125 163.546875 C 27.578125 163.921875 27.507812 164.277344 27.367188 164.613281 C 27.226562 164.949219 26.972656 165.34375 26.601562 165.800781 C 26.5 165.917969 26.175781 166.261719 25.632812 166.824219 C 25.085938 167.386719 24.316406 168.175781 23.324219 169.1875 Z M 23.324219 169.1875 "/>
<path style="fill:none;stroke-width:0.8;stroke-linecap:butt;stroke-linejoin:round;stroke:rgb(0%,0%,0%);stroke-opacity:1;stroke-miterlimit:4;" d="M -0.000000000000017764 -0.00082 L -3.5 -0.00082 " transform="matrix(1.25,0,0,1.25,37.628906,123.223681)"/>
<path style=" stroke:none;fill-rule:nonzero;fill:rgb(0%,0%,0%);fill-opacity:1;" d="M 12.972656 119.671875 C 12.339844 119.671875 11.863281 119.984375 11.542969 120.609375 C 11.222656 121.234375 11.0625 122.171875 11.0625 123.425781 C 11.0625 124.675781 11.222656 125.613281 11.542969 126.238281 C 11.863281 126.863281 12.339844 127.175781 12.972656 127.175781 C 13.613281 127.175781 14.089844 126.863281 14.410156 126.238281 C 14.730469 125.613281 14.890625 124.675781 14.890625 123.425781 C 14.890625 122.171875 14.730469 121.234375 14.410156 120.609375 C 14.089844 119.984375 13.613281 119.671875 12.972656 119.671875 Z M 12.972656 118.695312 C 13.996094 118.695312 14.777344 119.101562 15.316406 119.910156 C 15.855469 120.714844 16.125 121.886719 16.125 123.425781 C 16.125 124.960938 15.855469 126.132812 15.316406 126.941406 C 14.777344 127.746094 13.996094 128.152344 12.972656 128.152344 C 11.953125 128.152344 11.171875 127.746094 10.632812 126.941406 C 10.09375 126.132812 9.824219 124.960938 9.824219 123.425781 C 9.824219 121.886719 10.09375 120.714844 10.632812 119.910156 C 11.171875 119.101562 11.953125 118.695312 12.972656 118.695312 Z M 12.972656 118.695312 "/>
<path style=" stroke:none;fill-rule:nonzero;fill:rgb(0%,0%,0%);fill-opacity:1;" d="M 18.289062 126.421875 L 19.578125 126.421875 L 19.578125 127.972656 L 18.289062 127.972656 Z M 18.289062 126.421875 "/>
<path style=" stroke:none;fill-rule:nonzero;fill:rgb(0%,0%,0%);fill-opacity:1;" d="M 25.652344 119.933594 L 22.539062 124.800781 L 25.652344 124.800781 Z M 25.328125 118.859375 L 26.878906 118.859375 L 26.878906 124.800781 L 28.179688 124.800781 L 28.179688 125.824219 L 26.878906 125.824219 L 26.878906 127.972656 L 25.652344 127.972656 L 25.652344 125.824219 L 21.539062 125.824219 L 21.539062 124.636719 Z M 25.328125 118.859375 "/>
<path style="fill:none;stroke-width:0.8;stroke-linecap:butt;stroke-linejoin:round;stroke:rgb(0%,0%,0%);stroke-opacity:1;stroke-miterlimit:4;" d="M -0.000000000000017764 -0.001018 L -3.5 -0.001018 " transform="matrix(1.25,0,0,1.25,37.628906,80.970022)"/>
<path style=" stroke:none;fill-rule:nonzero;fill:rgb(0%,0%,0%);fill-opacity:1;" d="M 12.972656 77.417969 C 12.339844 77.417969 11.863281 77.730469 11.542969 78.355469 C 11.222656 78.980469 11.0625 79.917969 11.0625 81.171875 C 11.0625 82.421875 11.222656 83.359375 11.542969 83.984375 C 11.863281 84.609375 12.339844 84.921875 12.972656 84.921875 C 13.613281 84.921875 14.089844 84.609375 14.410156 83.984375 C 14.730469 83.359375 14.890625 82.421875 14.890625 81.171875 C 14.890625 79.917969 14.730469 78.980469 14.410156 78.355469 C 14.089844 77.730469 13.613281 77.417969 12.972656 77.417969 Z M 12.972656 76.441406 C 13.996094 76.441406 14.777344 76.847656 15.316406 77.65625 C 15.855469 78.460938 16.125 79.632812 16.125 81.171875 C 16.125 82.707031 15.855469 83.878906 15.316406 84.6875 C 14.777344 85.492188 13.996094 85.898438 12.972656 85.898438 C 11.953125 85.898438 11.171875 85.492188 10.632812 84.6875 C 10.09375 83.878906 9.824219 82.707031 9.824219 81.171875 C 9.824219 79.632812 10.09375 78.460938 10.632812 77.65625 C 11.171875 76.847656 11.953125 76.441406 12.972656 76.441406 Z M 12.972656 76.441406 "/>
<path style=" stroke:none;fill-rule:nonzero;fill:rgb(0%,0%,0%);fill-opacity:1;" d="M 18.289062 84.167969 L 19.578125 84.167969 L 19.578125 85.71875 L 18.289062 85.71875 Z M 18.289062 84.167969 "/>
<path style=" stroke:none;fill-rule:nonzero;fill:rgb(0%,0%,0%);fill-opacity:1;" d="M 25.054688 80.671875 C 24.5 80.671875 24.0625 80.863281 23.738281 81.242188 C 23.414062 81.617188 23.253906 82.136719 23.253906 82.796875 C 23.253906 83.449219 23.414062 83.96875 23.738281 84.351562 C 24.0625 84.730469 24.5 84.921875 25.054688 84.921875 C 25.605469 84.921875 26.042969 84.730469 26.367188 84.351562 C 26.691406 83.96875 26.851562 83.449219 26.851562 82.796875 C 26.851562 82.136719 26.691406 81.617188 26.367188 81.242188 C 26.042969 80.863281 25.605469 80.671875 25.054688 80.671875 Z M 27.5 76.808594 L 27.5 77.929688 C 27.191406 77.785156 26.878906 77.671875 26.5625 77.597656 C 26.246094 77.519531 25.933594 77.480469 25.625 77.480469 C 24.8125 77.480469 24.191406 77.753906 23.761719 78.304688 C 23.332031 78.851562 23.085938 79.683594 23.027344 80.792969 C 23.265625 80.4375 23.566406 80.167969 23.929688 79.980469 C 24.292969 79.789062 24.691406 79.695312 25.125 79.695312 C 26.039062 79.695312 26.765625 79.972656 27.296875 80.53125 C 27.828125 81.085938 28.09375 81.839844 28.09375 82.796875 C 28.09375 83.730469 27.816406 84.484375 27.261719 85.050781 C 26.707031 85.613281 25.972656 85.898438 25.054688 85.898438 C 24 85.898438 23.191406 85.492188 22.636719 84.6875 C 22.078125 83.878906 21.800781 82.707031 21.800781 81.171875 C 21.800781 79.730469 22.140625 78.582031 22.824219 77.726562 C 23.507812 76.871094 24.425781 76.441406 25.578125 76.441406 C 25.886719 76.441406 26.199219 76.472656 26.515625 76.535156 C 26.828125 76.59375 27.15625 76.6875 27.5 76.808594 Z M 27.5 76.808594 "/>
<path style="fill:none;stroke-width:0.8;stroke-linecap:butt;stroke-linejoin:round;stroke:rgb(0%,0%,0%);stroke-opacity:1;stroke-miterlimit:4;" d="M -0.000000000000017764 -0.001216 L -3.5 -0.001216 " transform="matrix(1.25,0,0,1.25,37.628906,38.716364)"/>
<path style=" stroke:none;fill-rule:nonzero;fill:rgb(0%,0%,0%);fill-opacity:1;" d="M 12.972656 35.164062 C 12.339844 35.164062 11.863281 35.476562 11.542969 36.101562 C 11.222656 36.726562 11.0625 37.664062 11.0625 38.917969 C 11.0625 40.167969 11.222656 41.105469 11.542969 41.730469 C 11.863281 42.355469 12.339844 42.667969 12.972656 42.667969 C 13.613281 42.667969 14.089844 42.355469 14.410156 41.730469 C 14.730469 41.105469 14.890625 40.167969 14.890625 38.917969 C 14.890625 37.664062 14.730469 36.726562 14.410156 36.101562 C 14.089844 35.476562 13.613281 35.164062 12.972656 35.164062 Z M 12.972656 34.1875 C 13.996094 34.1875 14.777344 34.59375 15.316406 35.402344 C 15.855469 36.207031 16.125 37.378906 16.125 38.917969 C 16.125 40.453125 15.855469 41.625 15.316406 42.433594 C 14.777344 43.238281 13.996094 43.644531 12.972656 43.644531 C 11.953125 43.644531 11.171875 43.238281 10.632812 42.433594 C 10.09375 41.625 9.824219 40.453125 9.824219 38.917969 C 9.824219 37.378906 10.09375 36.207031 10.632812 35.402344 C 11.171875 34.59375 11.953125 34.1875 12.972656 34.1875 Z M 12.972656 34.1875 "/>
<path style=" stroke:none;fill-rule:nonzero;fill:rgb(0%,0%,0%);fill-opacity:1;" d="M 18.289062 41.914062 L 19.578125 41.914062 L 19.578125 43.464844 L 18.289062 43.464844 Z M 18.289062 41.914062 "/>
<path style=" stroke:none;fill-rule:nonzero;fill:rgb(0%,0%,0%);fill-opacity:1;" d="M 24.898438 39.136719 C 24.3125 39.136719 23.851562 39.292969 23.515625 39.609375 C 23.179688 39.921875 23.015625 40.351562 23.015625 40.902344 C 23.015625 41.449219 23.179688 41.882812 23.515625 42.195312 C 23.851562 42.507812 24.3125 42.667969 24.898438 42.667969 C 25.484375 42.667969 25.945312 42.507812 26.285156 42.195312 C 26.621094 41.878906 26.792969 41.445312 26.792969 40.902344 C 26.792969 40.351562 26.625 39.921875 26.289062 39.609375 C 25.953125 39.292969 25.488281 39.136719 24.898438 39.136719 Z M 23.667969 38.613281 C 23.136719 38.484375 22.726562 38.238281 22.429688 37.875 C 22.136719 37.511719 21.988281 37.070312 21.988281 36.550781 C 21.988281 35.820312 22.246094 35.246094 22.765625 34.824219 C 23.285156 34.398438 23.996094 34.1875 24.898438 34.1875 C 25.804688 34.1875 26.519531 34.398438 27.035156 34.824219 C 27.550781 35.246094 27.8125 35.820312 27.8125 36.550781 C 27.8125 37.070312 27.664062 37.511719 27.367188 37.875 C 27.074219 38.238281 26.664062 38.484375 26.140625 38.613281 C 26.734375 38.75 27.195312 39.023438 27.527344 39.425781 C 27.859375 39.828125 28.023438 40.320312 28.023438 40.902344 C 28.023438 41.785156 27.753906 42.464844 27.214844 42.9375 C 26.675781 43.40625 25.902344 43.644531 24.898438 43.644531 C 23.894531 43.644531 23.121094 43.40625 22.582031 42.9375 C 22.042969 42.464844 21.773438 41.785156 21.773438 40.902344 C 21.773438 40.320312 21.941406 39.828125 22.273438 39.425781 C 22.609375 39.023438 23.074219 38.75 23.667969 38.613281 Z M 23.214844 36.667969 C 23.214844 37.136719 23.363281 37.503906 23.65625 37.769531 C 23.953125 38.035156 24.367188 38.167969 24.898438 38.167969 C 25.429688 38.167969 25.84375 38.035156 26.140625 37.769531 C 26.441406 37.503906 26.589844 37.136719 26.589844 36.667969 C 26.589844 36.195312 26.441406 35.824219 26.140625 35.5625 C 25.84375 35.296875 25.429688 35.164062 24.898438 35.164062 C 24.367188 35.164062 23.953125 35.296875 23.65625 35.5625 C 23.363281 35.824219 23.214844 36.195312 23.214844 36.667969 Z M 23.214844 36.667969 "/>
<path style="fill:none;stroke-width:1.5;stroke-linecap:square;stroke-linejoin:round;stroke:rgb(12.156863%,46.666667%,70.588235%);stroke-opacity:1;stroke-miterlimit:4;" d="M 34.953125 17.434375 L 44.7 87.34375 " transform="matrix(1.25,0,0,1.25,0.000000000000028422,0)"/>
<path style="fill:none;stroke-width:1.5;stroke-linecap:square;stroke-linejoin:round;stroke:rgb(12.156863%,46.666667%,70.588235%);stroke-opacity:1;stroke-miterlimit:4;" d="M 34.953125 17.434375 L 44.7 87.34375 " transform="matrix(1.25,0,0,1.25,0.000000000000028422,0)"/>
<path style="fill:none;stroke-width:1.5;stroke-linecap:square;stroke-linejoin:round;stroke:rgb(12.156863%,46.666667%,70.588235%);stroke-opacity:1;stroke-miterlimit:4;" d="M 34.953125 17.434375 L 44.7 87.34375 " transform="matrix(1.25,0,0,1.25,0.000000000000028422,0)"/>
<path style="fill:none;stroke-width:1.5;stroke-linecap:square;stroke-linejoin:round;stroke:rgb(12.156863%,46.666667%,70.588235%);stroke-opacity:1;stroke-miterlimit:4;" d="M 34.953125 17.434375 L 44.7 87.34375 L 54.44375 102.403125 " transform="matrix(1.25,0,0,1.25,0.000000000000028422,0)"/>
<path style="fill:none;stroke-width:1.5;stroke-linecap:square;stroke-linejoin:round;stroke:rgb(12.156863%,46.666667%,70.588235%);stroke-opacity:1;stroke-miterlimit:4;" d="M 34.953125 17.434375 L 44.7 87.34375 L 54.44375 102.403125 L 64.1875 108.96875 " transform="matrix(1.25,0,0,1.25,0.000000000000028422,0)"/>
<path style="fill:none;stroke-width:1.5;stroke-linecap:square;stroke-linejoin:round;stroke:rgb(12.156863%,46.666667%,70.588235%);stroke-opacity:1;stroke-miterlimit:4;" d="M 34.953125 17.434375 L 44.7 87.34375 L 54.44375 102.403125 L 64.1875 108.96875 " transform="matrix(1.25,0,0,1.25,0.000000000000028422,0)"/>
<path style="fill:none;stroke-width:1.5;stroke-linecap:butt;stroke-linejoin:round;stroke:rgb(100%,49.803922%,5.490196%);stroke-opacity:1;stroke-dasharray:5.55,2.4;stroke-miterlimit:4;" d="M 49.634375 89.096875 L 69.1625 75.0375 " transform="matrix(1.25,0,0,1.25,0.000000000000028422,0)"/>
<path style="fill:none;stroke-width:1.5;stroke-linecap:square;stroke-linejoin:round;stroke:rgb(12.156863%,46.666667%,70.588235%);stroke-opacity:1;stroke-miterlimit:4;" d="M 34.953125 17.434375 L 44.7 87.34375 L 54.44375 102.403125 L 64.1875 108.96875 " transform="matrix(1.25,0,0,1.25,0.000000000000028422,0)"/>
<path style="fill:none;stroke-width:1.5;stroke-linecap:butt;stroke-linejoin:round;stroke:rgb(100%,49.803922%,5.490196%);stroke-opacity:1;stroke-dasharray:5.55,2.4;stroke-miterlimit:4;" d="M 49.634375 89.096875 L 69.1625 75.0375 " transform="matrix(1.25,0,0,1.25,0.000000000000028422,0)"/>
<path style="fill:none;stroke-width:1.5;stroke-linecap:butt;stroke-linejoin:round;stroke:rgb(17.254902%,62.745098%,17.254902%);stroke-opacity:1;stroke-dasharray:9.6,2.4,1.5,2.4;stroke-miterlimit:4;" d="M 49.634375 25.76875 L 69.1625 29.746875 " transform="matrix(1.25,0,0,1.25,0.000000000000028422,0)"/>
<path style="fill:none;stroke-width:1.5;stroke-linecap:square;stroke-linejoin:round;stroke:rgb(12.156863%,46.666667%,70.588235%);stroke-opacity:1;stroke-miterlimit:4;" d="M 34.953125 17.434375 L 44.7 87.34375 L 54.44375 102.403125 L 64.1875 108.96875 L 73.93125 115.378125 " transform="matrix(1.25,0,0,1.25,0.000000000000028422,0)"/>
<path style="fill:none;stroke-width:1.5;stroke-linecap:butt;stroke-linejoin:round;stroke:rgb(100%,49.803922%,5.490196%);stroke-opacity:1;stroke-dasharray:5.55,2.4;stroke-miterlimit:4;" d="M 49.634375 89.096875 L 69.1625 75.0375 " transform="matrix(1.25,0,0,1.25,0.000000000000028422,0)"/>
<path style="fill:none;stroke-width:1.5;stroke-linecap:butt;stroke-linejoin:round;stroke:rgb(17.254902%,62.745098%,17.254902%);stroke-opacity:1;stroke-dasharray:9.6,2.4,1.5,2.4;stroke-miterlimit:4;" d="M 49.634375 25.76875 L 69.1625 29.746875 " transform="matrix(1.25,0,0,1.25,0.000000000000028422,0)"/>
<path style="fill:none;stroke-width:1.5;stroke-linecap:square;stroke-linejoin:round;stroke:rgb(12.156863%,46.666667%,70.588235%);stroke-opacity:1;stroke-miterlimit:4;" d="M 34.953125 17.434375 L 44.7 87.34375 L 54.44375 102.403125 L 64.1875 108.96875 L 73.93125 115.378125 L 83.675 117 " transform="matrix(1.25,0,0,1.25,0.000000000000028422,0)"/>
<path style="fill:none;stroke-width:1.5;stroke-linecap:butt;stroke-linejoin:round;stroke:rgb(100%,49.803922%,5.490196%);stroke-opacity:1;stroke-dasharray:5.55,2.4;stroke-miterlimit:4;" d="M 49.634375 89.096875 L 69.1625 75.0375 " transform="matrix(1.25,0,0,1.25,0.000000000000028422,0)"/>
<path style="fill:none;stroke-width:1.5;stroke-linecap:butt;stroke-linejoin:round;stroke:rgb(17.254902%,62.745098%,17.254902%);stroke-opacity:1;stroke-dasharray:9.6,2.4,1.5,2.4;stroke-miterlimit:4;" d="M 49.634375 25.76875 L 69.1625 29.746875 " transform="matrix(1.25,0,0,1.25,0.000000000000028422,0)"/>
<path style="fill:none;stroke-width:1.5;stroke-linecap:square;stroke-linejoin:round;stroke:rgb(12.156863%,46.666667%,70.588235%);stroke-opacity:1;stroke-miterlimit:4;" d="M 34.953125 17.434375 L 44.7 87.34375 L 54.44375 102.403125 L 64.1875 108.96875 L 73.93125 115.378125 L 83.675 117 " transform="matrix(1.25,0,0,1.25,0.000000000000028422,0)"/>
<path style="fill:none;stroke-width:1.5;stroke-linecap:butt;stroke-linejoin:round;stroke:rgb(100%,49.803922%,5.490196%);stroke-opacity:1;stroke-dasharray:5.55,2.4;stroke-miterlimit:4;" d="M 49.634375 89.096875 L 69.1625 75.0375 L 88.69375 94.478125 " transform="matrix(1.25,0,0,1.25,0.000000000000028422,0)"/>
<path style="fill:none;stroke-width:1.5;stroke-linecap:butt;stroke-linejoin:round;stroke:rgb(17.254902%,62.745098%,17.254902%);stroke-opacity:1;stroke-dasharray:9.6,2.4,1.5,2.4;stroke-miterlimit:4;" d="M 49.634375 25.76875 L 69.1625 29.746875 " transform="matrix(1.25,0,0,1.25,0.000000000000028422,0)"/>
<path style="fill:none;stroke-width:1.5;stroke-linecap:square;stroke-linejoin:round;stroke:rgb(12.156863%,46.666667%,70.588235%);stroke-opacity:1;stroke-miterlimit:4;" d="M 34.953125 17.434375 L 44.7 87.34375 L 54.44375 102.403125 L 64.1875 108.96875 L 73.93125 115.378125 L 83.675 117 " transform="matrix(1.25,0,0,1.25,0.000000000000028422,0)"/>
<path style="fill:none;stroke-width:1.5;stroke-linecap:butt;stroke-linejoin:round;stroke:rgb(100%,49.803922%,5.490196%);stroke-opacity:1;stroke-dasharray:5.55,2.4;stroke-miterlimit:4;" d="M 49.634375 89.096875 L 69.1625 75.0375 L 88.69375 94.478125 " transform="matrix(1.25,0,0,1.25,0.000000000000028422,0)"/>
<path style="fill:none;stroke-width:1.5;stroke-linecap:butt;stroke-linejoin:round;stroke:rgb(17.254902%,62.745098%,17.254902%);stroke-opacity:1;stroke-dasharray:9.6,2.4,1.5,2.4;stroke-miterlimit:4;" d="M 49.634375 25.76875 L 69.1625 29.746875 L 88.69375 23.109375 " transform="matrix(1.25,0,0,1.25,0.000000000000028422,0)"/>
<path style="fill:none;stroke-width:1.5;stroke-linecap:square;stroke-linejoin:round;stroke:rgb(12.156863%,46.666667%,70.588235%);stroke-opacity:1;stroke-miterlimit:4;" d="M 34.953125 17.434375 L 44.7 87.34375 L 54.44375 102.403125 L 64.1875 108.96875 L 73.93125 115.378125 L 83.675 117 L 93.41875 121.3875 " transform="matrix(1.25,0,0,1.25,0.000000000000028422,0)"/>
<path style="fill:none;stroke-width:1.5;stroke-linecap:butt;stroke-linejoin:round;stroke:rgb(100%,49.803922%,5.490196%);stroke-opacity:1;stroke-dasharray:5.55,2.4;stroke-miterlimit:4;" d="M 49.634375 89.096875 L 69.1625 75.0375 L 88.69375 94.478125 " transform="matrix(1.25,0,0,1.25,0.000000000000028422,0)"/>
<path style="fill:none;stroke-width:1.5;stroke-linecap:butt;stroke-linejoin:round;stroke:rgb(17.254902%,62.745098%,17.254902%);stroke-opacity:1;stroke-dasharray:9.6,2.4,1.5,2.4;stroke-miterlimit:4;" d="M 49.634375 25.76875 L 69.1625 29.746875 L 88.69375 23.109375 " transform="matrix(1.25,0,0,1.25,0.000000000000028422,0)"/>
<path style="fill:none;stroke-width:1.5;stroke-linecap:square;stroke-linejoin:round;stroke:rgb(12.156863%,46.666667%,70.588235%);stroke-opacity:1;stroke-miterlimit:4;" d="M 34.953125 17.434375 L 44.7 87.34375 L 54.44375 102.403125 L 64.1875 108.96875 L 73.93125 115.378125 L 83.675 117 L 93.41875 121.3875 L 103.1625 122.059375 " transform="matrix(1.25,0,0,1.25,0.000000000000028422,0)"/>
<path style="fill:none;stroke-width:1.5;stroke-linecap:butt;stroke-linejoin:round;stroke:rgb(100%,49.803922%,5.490196%);stroke-opacity:1;stroke-dasharray:5.55,2.4;stroke-miterlimit:4;" d="M 49.634375 89.096875 L 69.1625 75.0375 L 88.69375 94.478125 " transform="matrix(1.25,0,0,1.25,0.000000000000028422,0)"/>
<path style="fill:none;stroke-width:1.5;stroke-linecap:butt;stroke-linejoin:round;stroke:rgb(17.254902%,62.745098%,17.254902%);stroke-opacity:1;stroke-dasharray:9.6,2.4,1.5,2.4;stroke-miterlimit:4;" d="M 49.634375 25.76875 L 69.1625 29.746875 L 88.69375 23.109375 " transform="matrix(1.25,0,0,1.25,0.000000000000028422,0)"/>
<path style="fill:none;stroke-width:1.5;stroke-linecap:square;stroke-linejoin:round;stroke:rgb(12.156863%,46.666667%,70.588235%);stroke-opacity:1;stroke-miterlimit:4;" d="M 34.953125 17.434375 L 44.7 87.34375 L 54.44375 102.403125 L 64.1875 108.96875 L 73.93125 115.378125 L 83.675 117 L 93.41875 121.3875 L 103.1625 122.059375 " transform="matrix(1.25,0,0,1.25,0.000000000000028422,0)"/>
<path style="fill:none;stroke-width:1.5;stroke-linecap:butt;stroke-linejoin:round;stroke:rgb(100%,49.803922%,5.490196%);stroke-opacity:1;stroke-dasharray:5.55,2.4;stroke-miterlimit:4;" d="M 49.634375 89.096875 L 69.1625 75.0375 L 88.69375 94.478125 L 108.221875 107.20625 " transform="matrix(1.25,0,0,1.25,0.000000000000028422,0)"/>
<path style="fill:none;stroke-width:1.5;stroke-linecap:butt;stroke-linejoin:round;stroke:rgb(17.254902%,62.745098%,17.254902%);stroke-opacity:1;stroke-dasharray:9.6,2.4,1.5,2.4;stroke-miterlimit:4;" d="M 49.634375 25.76875 L 69.1625 29.746875 L 88.69375 23.109375 " transform="matrix(1.25,0,0,1.25,0.000000000000028422,0)"/>
<path style="fill:none;stroke-width:1.5;stroke-linecap:square;stroke-linejoin:round;stroke:rgb(12.156863%,46.666667%,70.588235%);stroke-opacity:1;stroke-miterlimit:4;" d="M 34.953125 17.434375 L 44.7 87.34375 L 54.44375 102.403125 L 64.1875 108.96875 L 73.93125 115.378125 L 83.675 117 L 93.41875 121.3875 L 103.1625 122.059375 " transform="matrix(1.25,0,0,1.25,0.000000000000028422,0)"/>
<path style="fill:none;stroke-width:1.5;stroke-linecap:butt;stroke-linejoin:round;stroke:rgb(100%,49.803922%,5.490196%);stroke-opacity:1;stroke-dasharray:5.55,2.4;stroke-miterlimit:4;" d="M 49.634375 89.096875 L 69.1625 75.0375 L 88.69375 94.478125 L 108.221875 107.20625 " transform="matrix(1.25,0,0,1.25,0.000000000000028422,0)"/>
<path style="fill:none;stroke-width:1.5;stroke-linecap:butt;stroke-linejoin:round;stroke:rgb(17.254902%,62.745098%,17.254902%);stroke-opacity:1;stroke-dasharray:9.6,2.4,1.5,2.4;stroke-miterlimit:4;" d="M 49.634375 25.76875 L 69.1625 29.746875 L 88.69375 23.109375 L 108.221875 18.23125 " transform="matrix(1.25,0,0,1.25,0.000000000000028422,0)"/>
<path style="fill:none;stroke-width:1.5;stroke-linecap:square;stroke-linejoin:round;stroke:rgb(12.156863%,46.666667%,70.588235%);stroke-opacity:1;stroke-miterlimit:4;" d="M 34.953125 17.434375 L 44.7 87.34375 L 54.44375 102.403125 L 64.1875 108.96875 L 73.93125 115.378125 L 83.675 117 L 93.41875 121.3875 L 103.1625 122.059375 L 112.909375 125.96875 " transform="matrix(1.25,0,0,1.25,0.000000000000028422,0)"/>
<path style="fill:none;stroke-width:1.5;stroke-linecap:butt;stroke-linejoin:round;stroke:rgb(100%,49.803922%,5.490196%);stroke-opacity:1;stroke-dasharray:5.55,2.4;stroke-miterlimit:4;" d="M 49.634375 89.096875 L 69.1625 75.0375 L 88.69375 94.478125 L 108.221875 107.20625 " transform="matrix(1.25,0,0,1.25,0.000000000000028422,0)"/>
<path style="fill:none;stroke-width:1.5;stroke-linecap:butt;stroke-linejoin:round;stroke:rgb(17.254902%,62.745098%,17.254902%);stroke-opacity:1;stroke-dasharray:9.6,2.4,1.5,2.4;stroke-miterlimit:4;" d="M 49.634375 25.76875 L 69.1625 29.746875 L 88.69375 23.109375 L 108.221875 18.23125 " transform="matrix(1.25,0,0,1.25,0.000000000000028422,0)"/>
<path style="fill:none;stroke-width:1.5;stroke-linecap:square;stroke-linejoin:round;stroke:rgb(12.156863%,46.666667%,70.588235%);stroke-opacity:1;stroke-miterlimit:4;" d="M 34.953125 17.434375 L 44.7 87.34375 L 54.44375 102.403125 L 64.1875 108.96875 L 73.93125 115.378125 L 83.675 117 L 93.41875 121.3875 L 103.1625 122.059375 L 112.909375 125.96875 L 122.653125 126.36875 " transform="matrix(1.25,0,0,1.25,0.000000000000028422,0)"/>
<path style="fill:none;stroke-width:1.5;stroke-linecap:butt;stroke-linejoin:round;stroke:rgb(100%,49.803922%,5.490196%);stroke-opacity:1;stroke-dasharray:5.55,2.4;stroke-miterlimit:4;" d="M 49.634375 89.096875 L 69.1625 75.0375 L 88.69375 94.478125 L 108.221875 107.20625 " transform="matrix(1.25,0,0,1.25,0.000000000000028422,0)"/>
<path style="fill:none;stroke-width:1.5;stroke-linecap:butt;stroke-linejoin:round;stroke:rgb(17.254902%,62.745098%,17.254902%);stroke-opacity:1;stroke-dasharray:9.6,2.4,1.5,2.4;stroke-miterlimit:4;" d="M 49.634375 25.76875 L 69.1625 29.746875 L 88.69375 23.109375 L 108.221875 18.23125 " transform="matrix(1.25,0,0,1.25,0.000000000000028422,0)"/>
<path style="fill:none;stroke-width:1.5;stroke-linecap:square;stroke-linejoin:round;stroke:rgb(12.156863%,46.666667%,70.588235%);stroke-opacity:1;stroke-miterlimit:4;" d="M 34.953125 17.434375 L 44.7 87.34375 L 54.44375 102.403125 L 64.1875 108.96875 L 73.93125 115.378125 L 83.675 117 L 93.41875 121.3875 L 103.1625 122.059375 L 112.909375 125.96875 L 122.653125 126.36875 " transform="matrix(1.25,0,0,1.25,0.000000000000028422,0)"/>
<path style="fill:none;stroke-width:1.5;stroke-linecap:butt;stroke-linejoin:round;stroke:rgb(100%,49.803922%,5.490196%);stroke-opacity:1;stroke-dasharray:5.55,2.4;stroke-miterlimit:4;" d="M 49.634375 89.096875 L 69.1625 75.0375 L 88.69375 94.478125 L 108.221875 107.20625 L 127.753125 114.9 " transform="matrix(1.25,0,0,1.25,0.000000000000028422,0)"/>
<path style="fill:none;stroke-width:1.5;stroke-linecap:butt;stroke-linejoin:round;stroke:rgb(17.254902%,62.745098%,17.254902%);stroke-opacity:1;stroke-dasharray:9.6,2.4,1.5,2.4;stroke-miterlimit:4;" d="M 49.634375 25.76875 L 69.1625 29.746875 L 88.69375 23.109375 L 108.221875 18.23125 " transform="matrix(1.25,0,0,1.25,0.000000000000028422,0)"/>
<path style="fill:none;stroke-width:1.5;stroke-linecap:square;stroke-linejoin:round;stroke:rgb(12.156863%,46.666667%,70.588235%);stroke-opacity:1;stroke-miterlimit:4;" d="M 34.953125 17.434375 L 44.7 87.34375 L 54.44375 102.403125 L 64.1875 108.96875 L 73.93125 115.378125 L 83.675 117 L 93.41875 121.3875 L 103.1625 122.059375 L 112.909375 125.96875 L 122.653125 126.36875 " transform="matrix(1.25,0,0,1.25,0.000000000000028422,0)"/>
<path style="fill:none;stroke-width:1.5;stroke-linecap:butt;stroke-linejoin:round;stroke:rgb(100%,49.803922%,5.490196%);stroke-opacity:1;stroke-dasharray:5.55,2.4;stroke-miterlimit:4;" d="M 49.634375 89.096875 L 69.1625 75.0375 L 88.69375 94.478125 L 108.221875 107.20625 L 127.753125 114.9 " transform="matrix(1.25,0,0,1.25,0.000000000000028422,0)"/>
<path style="fill:none;stroke-width:1.5;stroke-linecap:butt;stroke-linejoin:round;stroke:rgb(17.254902%,62.745098%,17.254902%);stroke-opacity:1;stroke-dasharray:9.6,2.4,1.5,2.4;stroke-miterlimit:4;" d="M 49.634375 25.76875 L 69.1625 29.746875 L 88.69375 23.109375 L 108.221875 18.23125 L 127.753125 15.721875 " transform="matrix(1.25,0,0,1.25,0.000000000000028422,0)"/>
<path style="fill:none;stroke-width:1.5;stroke-linecap:square;stroke-linejoin:round;stroke:rgb(12.156863%,46.666667%,70.588235%);stroke-opacity:1;stroke-miterlimit:4;" d="M 34.953125 17.434375 L 44.7 87.34375 L 54.44375 102.403125 L 64.1875 108.96875 L 73.93125 115.378125 L 83.675 117 L 93.41875 121.3875 L 103.1625 122.059375 L 112.909375 125.96875 L 122.653125 126.36875 L 132.396875 129.846875 " transform="matrix(1.25,0,0,1.25,0.000000000000028422,0)"/>
<path style="fill:none;stroke-width:1.5;stroke-linecap:butt;stroke-linejoin:round;stroke:rgb(100%,49.803922%,5.490196%);stroke-opacity:1;stroke-dasharray:5.55,2.4;stroke-miterlimit:4;" d="M 49.634375 89.096875 L 69.1625 75.0375 L 88.69375 94.478125 L 108.221875 107.20625 L 127.753125 114.9 " transform="matrix(1.25,0,0,1.25,0.000000000000028422,0)"/>
<path style="fill:none;stroke-width:1.5;stroke-linecap:butt;stroke-linejoin:round;stroke:rgb(17.254902%,62.745098%,17.254902%);stroke-opacity:1;stroke-dasharray:9.6,2.4,1.5,2.4;stroke-miterlimit:4;" d="M 49.634375 25.76875 L 69.1625 29.746875 L 88.69375 23.109375 L 108.221875 18.23125 L 127.753125 15.721875 " transform="matrix(1.25,0,0,1.25,0.000000000000028422,0)"/>
<path style="fill:none;stroke-width:1.5;stroke-linecap:square;stroke-linejoin:round;stroke:rgb(12.156863%,46.666667%,70.588235%);stroke-opacity:1;stroke-miterlimit:4;" d="M 34.953125 17.434375 L 44.7 87.34375 L 54.44375 102.403125 L 64.1875 108.96875 L 73.93125 115.378125 L 83.675 117 L 93.41875 121.3875 L 103.1625 122.059375 L 112.909375 125.96875 L 122.653125 126.36875 L 132.396875 129.846875 L 142.140625 129.0375 " transform="matrix(1.25,0,0,1.25,0.000000000000028422,0)"/>
<path style="fill:none;stroke-width:1.5;stroke-linecap:butt;stroke-linejoin:round;stroke:rgb(100%,49.803922%,5.490196%);stroke-opacity:1;stroke-dasharray:5.55,2.4;stroke-miterlimit:4;" d="M 49.634375 89.096875 L 69.1625 75.0375 L 88.69375 94.478125 L 108.221875 107.20625 L 127.753125 114.9 " transform="matrix(1.25,0,0,1.25,0.000000000000028422,0)"/>
<path style="fill:none;stroke-width:1.5;stroke-linecap:butt;stroke-linejoin:round;stroke:rgb(17.254902%,62.745098%,17.254902%);stroke-opacity:1;stroke-dasharray:9.6,2.4,1.5,2.4;stroke-miterlimit:4;" d="M 49.634375 25.76875 L 69.1625 29.746875 L 88.69375 23.109375 L 108.221875 18.23125 L 127.753125 15.721875 " transform="matrix(1.25,0,0,1.25,0.000000000000028422,0)"/>
<path style="fill:none;stroke-width:1.5;stroke-linecap:square;stroke-linejoin:round;stroke:rgb(12.156863%,46.666667%,70.588235%);stroke-opacity:1;stroke-miterlimit:4;" d="M 34.953125 17.434375 L 44.7 87.34375 L 54.44375 102.403125 L 64.1875 108.96875 L 73.93125 115.378125 L 83.675 117 L 93.41875 121.3875 L 103.1625 122.059375 L 112.909375 125.96875 L 122.653125 126.36875 L 132.396875 129.846875 L 142.140625 129.0375 " transform="matrix(1.25,0,0,1.25,0.000000000000028422,0)"/>
<path style="fill:none;stroke-width:1.5;stroke-linecap:butt;stroke-linejoin:round;stroke:rgb(100%,49.803922%,5.490196%);stroke-opacity:1;stroke-dasharray:5.55,2.4;stroke-miterlimit:4;" d="M 49.634375 89.096875 L 69.1625 75.0375 L 88.69375 94.478125 L 108.221875 107.20625 L 127.753125 114.9 L 147.284375 118.334375 " transform="matrix(1.25,0,0,1.25,0.000000000000028422,0)"/>
<path style="fill:none;stroke-width:1.5;stroke-linecap:butt;stroke-linejoin:round;stroke:rgb(17.254902%,62.745098%,17.254902%);stroke-opacity:1;stroke-dasharray:9.6,2.4,1.5,2.4;stroke-miterlimit:4;" d="M 49.634375 25.76875 L 69.1625 29.746875 L 88.69375 23.109375 L 108.221875 18.23125 L 127.753125 15.721875 " transform="matrix(1.25,0,0,1.25,0.000000000000028422,0)"/>
<path style="fill:none;stroke-width:1.5;stroke-linecap:square;stroke-linejoin:round;stroke:rgb(12.156863%,46.666667%,70.588235%);stroke-opacity:1;stroke-miterlimit:4;" d="M 34.953125 17.434375 L 44.7 87.34375 L 54.44375 102.403125 L 64.1875 108.96875 L 73.93125 115.378125 L 83.675 117 L 93.41875 121.3875 L 103.1625 122.059375 L 112.909375 125.96875 L 122.653125 126.36875 L 132.396875 129.846875 L 142.140625 129.0375 " transform="matrix(1.25,0,0,1.25,0.000000000000028422,0)"/>
<path style="fill:none;stroke-width:1.5;stroke-linecap:butt;stroke-linejoin:round;stroke:rgb(100%,49.803922%,5.490196%);stroke-opacity:1;stroke-dasharray:5.55,2.4;stroke-miterlimit:4;" d="M 49.634375 89.096875 L 69.1625 75.0375 L 88.69375 94.478125 L 108.221875 107.20625 L 127.753125 114.9 L 147.284375 118.334375 " transform="matrix(1.25,0,0,1.25,0.000000000000028422,0)"/>
<path style="fill:none;stroke-width:1.5;stroke-linecap:butt;stroke-linejoin:round;stroke:rgb(17.254902%,62.745098%,17.254902%);stroke-opacity:1;stroke-dasharray:9.6,2.4,1.5,2.4;stroke-miterlimit:4;" d="M 49.634375 25.76875 L 69.1625 29.746875 L 88.69375 23.109375 L 108.221875 18.23125 L 127.753125 15.721875 L 147.284375 13.784375 " transform="matrix(1.25,0,0,1.25,0.000000000000028422,0)"/>
<path style="fill:none;stroke-width:1.5;stroke-linecap:square;stroke-linejoin:round;stroke:rgb(12.156863%,46.666667%,70.588235%);stroke-opacity:1;stroke-miterlimit:4;" d="M 34.953125 17.434375 L 44.7 87.34375 L 54.44375 102.403125 L 64.1875 108.96875 L 73.93125 115.378125 L 83.675 117 L 93.41875 121.3875 L 103.1625 122.059375 L 112.909375 125.96875 L 122.653125 126.36875 L 132.396875 129.846875 L 142.140625 129.0375 L 151.884375 132.7375 " transform="matrix(1.25,0,0,1.25,0.000000000000028422,0)"/>
<path style="fill:none;stroke-width:1.5;stroke-linecap:butt;stroke-linejoin:round;stroke:rgb(100%,49.803922%,5.490196%);stroke-opacity:1;stroke-dasharray:5.55,2.4;stroke-miterlimit:4;" d="M 49.634375 89.096875 L 69.1625 75.0375 L 88.69375 94.478125 L 108.221875 107.20625 L 127.753125 114.9 L 147.284375 118.334375 " transform="matrix(1.25,0,0,1.25,0.000000000000028422,0)"/>
<path style="fill:none;stroke-width:1.5;stroke-linecap:butt;stroke-linejoin:round;stroke:rgb(17.254902%,62.745098%,17.254902%);stroke-opacity:1;stroke-dasharray:9.6,2.4,1.5,2.4;stroke-miterlimit:4;" d="M 49.634375 25.76875 L 69.1625 29.746875 L 88.69375 23.109375 L 108.221875 18.23125 L 127.753125 15.721875 L 147.284375 13.784375 " transform="matrix(1.25,0,0,1.25,0.000000000000028422,0)"/>
<path style="fill:none;stroke-width:1.5;stroke-linecap:square;stroke-linejoin:round;stroke:rgb(12.156863%,46.666667%,70.588235%);stroke-opacity:1;stroke-miterlimit:4;" d="M 34.953125 17.434375 L 44.7 87.34375 L 54.44375 102.403125 L 64.1875 108.96875 L 73.93125 115.378125 L 83.675 117 L 93.41875 121.3875 L 103.1625 122.059375 L 112.909375 125.96875 L 122.653125 126.36875 L 132.396875 129.846875 L 142.140625 129.0375 L 151.884375 132.7375 L 161.628125 131.475 " transform="matrix(1.25,0,0,1.25,0.000000000000028422,0)"/>
<path style="fill:none;stroke-width:1.5;stroke-linecap:butt;stroke-linejoin:round;stroke:rgb(100%,49.803922%,5.490196%);stroke-opacity:1;stroke-dasharray:5.55,2.4;stroke-miterlimit:4;" d="M 49.634375 89.096875 L 69.1625 75.0375 L 88.69375 94.478125 L 108.221875 107.20625 L 127.753125 114.9 L 147.284375 118.334375 " transform="matrix(1.25,0,0,1.25,0.000000000000028422,0)"/>
<path style="fill:none;stroke-width:1.5;stroke-linecap:butt;stroke-linejoin:round;stroke:rgb(17.254902%,62.745098%,17.254902%);stroke-opacity:1;stroke-dasharray:9.6,2.4,1.5,2.4;stroke-miterlimit:4;" d="M 49.634375 25.76875 L 69.1625 29.746875 L 88.69375 23.109375 L 108.221875 18.23125 L 127.753125 15.721875 L 147.284375 13.784375 " transform="matrix(1.25,0,0,1.25,0.000000000000028422,0)"/>
<path style="fill:none;stroke-width:1.5;stroke-linecap:square;stroke-linejoin:round;stroke:rgb(12.156863%,46.666667%,70.588235%);stroke-opacity:1;stroke-miterlimit:4;" d="M 34.953125 17.434375 L 44.7 87.34375 L 54.44375 102.403125 L 64.1875 108.96875 L 73.93125 115.378125 L 83.675 117 L 93.41875 121.3875 L 103.1625 122.059375 L 112.909375 125.96875 L 122.653125 126.36875 L 132.396875 129.846875 L 142.140625 129.0375 L 151.884375 132.7375 L 161.628125 131.475 " transform="matrix(1.25,0,0,1.25,0.000000000000028422,0)"/>
<path style="fill:none;stroke-width:1.5;stroke-linecap:butt;stroke-linejoin:round;stroke:rgb(100%,49.803922%,5.490196%);stroke-opacity:1;stroke-dasharray:5.55,2.4;stroke-miterlimit:4;" d="M 49.634375 89.096875 L 69.1625 75.0375 L 88.69375 94.478125 L 108.221875 107.20625 L 127.753125 114.9 L 147.284375 118.334375 L 166.8125 114.240625 " transform="matrix(1.25,0,0,1.25,0.000000000000028422,0)"/>
<path style="fill:none;stroke-width:1.5;stroke-linecap:butt;stroke-linejoin:round;stroke:rgb(17.254902%,62.745098%,17.254902%);stroke-opacity:1;stroke-dasharray:9.6,2.4,1.5,2.4;stroke-miterlimit:4;" d="M 49.634375 25.76875 L 69.1625 29.746875 L 88.69375 23.109375 L 108.221875 18.23125 L 127.753125 15.721875 L 147.284375 13.784375 " transform="matrix(1.25,0,0,1.25,0.000000000000028422,0)"/>
<path style="fill:none;stroke-width:1.5;stroke-linecap:square;stroke-linejoin:round;stroke:rgb(12.156863%,46.666667%,70.588235%);stroke-opacity:1;stroke-miterlimit:4;" d="M 34.953125 17.434375 L 44.7 87.34375 L 54.44375 102.403125 L 64.1875 108.96875 L 73.93125 115.378125 L 83.675 117 L 93.41875 121.3875 L 103.1625 122.059375 L 112.909375 125.96875 L 122.653125 126.36875 L 132.396875 129.846875 L 142.140625 129.0375 L 151.884375 132.7375 L 161.628125 131.475 " transform="matrix(1.25,0,0,1.25,0.000000000000028422,0)"/>
<path style="fill:none;stroke-width:1.5;stroke-linecap:butt;stroke-linejoin:round;stroke:rgb(100%,49.803922%,5.490196%);stroke-opacity:1;stroke-dasharray:5.55,2.4;stroke-miterlimit:4;" d="M 49.634375 89.096875 L 69.1625 75.0375 L 88.69375 94.478125 L 108.221875 107.20625 L 127.753125 114.9 L 147.284375 118.334375 L 166.8125 114.240625 " transform="matrix(1.25,0,0,1.25,0.000000000000028422,0)"/>
<path style="fill:none;stroke-width:1.5;stroke-linecap:butt;stroke-linejoin:round;stroke:rgb(17.254902%,62.745098%,17.254902%);stroke-opacity:1;stroke-dasharray:9.6,2.4,1.5,2.4;stroke-miterlimit:4;" d="M 49.634375 25.76875 L 69.1625 29.746875 L 88.69375 23.109375 L 108.221875 18.23125 L 127.753125 15.721875 L 147.284375 13.784375 L 166.8125 14.603125 " transform="matrix(1.25,0,0,1.25,0.000000000000028422,0)"/>
<path style="fill:none;stroke-width:1.5;stroke-linecap:square;stroke-linejoin:round;stroke:rgb(12.156863%,46.666667%,70.588235%);stroke-opacity:1;stroke-miterlimit:4;" d="M 34.953125 17.434375 L 44.7 87.34375 L 54.44375 102.403125 L 64.1875 108.96875 L 73.93125 115.378125 L 83.675 117 L 93.41875 121.3875 L 103.1625 122.059375 L 112.909375 125.96875 L 122.653125 126.36875 L 132.396875 129.846875 L 142.140625 129.0375 L 151.884375 132.7375 L 161.628125 131.475 L 171.371875 135.209375 " transform="matrix(1.25,0,0,1.25,0.000000000000028422,0)"/>
<path style="fill:none;stroke-width:1.5;stroke-linecap:butt;stroke-linejoin:round;stroke:rgb(100%,49.803922%,5.490196%);stroke-opacity:1;stroke-dasharray:5.55,2.4;stroke-miterlimit:4;" d="M 49.634375 89.096875 L 69.1625 75.0375 L 88.69375 94.478125 L 108.221875 107.20625 L 127.753125 114.9 L 147.284375 118.334375 L 166.8125 114.240625 " transform="matrix(1.25,0,0,1.25,0.000000000000028422,0)"/>
<path style="fill:none;stroke-width:1.5;stroke-linecap:butt;stroke-linejoin:round;stroke:rgb(17.254902%,62.745098%,17.254902%);stroke-opacity:1;stroke-dasharray:9.6,2.4,1.5,2.4;stroke-miterlimit:4;" d="M 49.634375 25.76875 L 69.1625 29.746875 L 88.69375 23.109375 L 108.221875 18.23125 L 127.753125 15.721875 L 147.284375 13.784375 L 166.8125 14.603125 " transform="matrix(1.25,0,0,1.25,0.000000000000028422,0)"/>
<path style="fill:none;stroke-width:1.5;stroke-linecap:square;stroke-linejoin:round;stroke:rgb(12.156863%,46.666667%,70.588235%);stroke-opacity:1;stroke-miterlimit:4;" d="M 34.953125 17.434375 L 44.7 87.34375 L 54.44375 102.403125 L 64.1875 108.96875 L 73.93125 115.378125 L 83.675 117 L 93.41875 121.3875 L 103.1625 122.059375 L 112.909375 125.96875 L 122.653125 126.36875 L 132.396875 129.846875 L 142.140625 129.0375 L 151.884375 132.7375 L 161.628125 131.475 L 171.371875 135.209375 L 181.115625 133.284375 " transform="matrix(1.25,0,0,1.25,0.000000000000028422,0)"/>
<path style="fill:none;stroke-width:1.5;stroke-linecap:butt;stroke-linejoin:round;stroke:rgb(100%,49.803922%,5.490196%);stroke-opacity:1;stroke-dasharray:5.55,2.4;stroke-miterlimit:4;" d="M 49.634375 89.096875 L 69.1625 75.0375 L 88.69375 94.478125 L 108.221875 107.20625 L 127.753125 114.9 L 147.284375 118.334375 L 166.8125 114.240625 " transform="matrix(1.25,0,0,1.25,0.000000000000028422,0)"/>
<path style="fill:none;stroke-width:1.5;stroke-linecap:butt;stroke-linejoin:round;stroke:rgb(17.254902%,62.745098%,17.254902%);stroke-opacity:1;stroke-dasharray:9.6,2.4,1.5,2.4;stroke-miterlimit:4;" d="M 49.634375 25.76875 L 69.1625 29.746875 L 88.69375 23.109375 L 108.221875 18.23125 L 127.753125 15.721875 L 147.284375 13.784375 L 166.8125 14.603125 " transform="matrix(1.25,0,0,1.25,0.000000000000028422,0)"/>
<path style="fill:none;stroke-width:1.5;stroke-linecap:square;stroke-linejoin:round;stroke:rgb(12.156863%,46.666667%,70.588235%);stroke-opacity:1;stroke-miterlimit:4;" d="M 34.953125 17.434375 L 44.7 87.34375 L 54.44375 102.403125 L 64.1875 108.96875 L 73.93125 115.378125 L 83.675 117 L 93.41875 121.3875 L 103.1625 122.059375 L 112.909375 125.96875 L 122.653125 126.36875 L 132.396875 129.846875 L 142.140625 129.0375 L 151.884375 132.7375 L 161.628125 131.475 L 171.371875 135.209375 L 181.115625 133.284375 " transform="matrix(1.25,0,0,1.25,0.000000000000028422,0)"/>
<path style="fill:none;stroke-width:1.5;stroke-linecap:butt;stroke-linejoin:round;stroke:rgb(100%,49.803922%,5.490196%);stroke-opacity:1;stroke-dasharray:5.55,2.4;stroke-miterlimit:4;" d="M 49.634375 89.096875 L 69.1625 75.0375 L 88.69375 94.478125 L 108.221875 107.20625 L 127.753125 114.9 L 147.284375 118.334375 L 166.8125 114.240625 L 186.34375 116.240625 " transform="matrix(1.25,0,0,1.25,0.000000000000028422,0)"/>
<path style="fill:none;stroke-width:1.5;stroke-linecap:butt;stroke-linejoin:round;stroke:rgb(17.254902%,62.745098%,17.254902%);stroke-opacity:1;stroke-dasharray:9.6,2.4,1.5,2.4;stroke-miterlimit:4;" d="M 49.634375 25.76875 L 69.1625 29.746875 L 88.69375 23.109375 L 108.221875 18.23125 L 127.753125 15.721875 L 147.284375 13.784375 L 166.8125 14.603125 " transform="matrix(1.25,0,0,1.25,0.000000000000028422,0)"/>
<path style="fill:none;stroke-width:1.5;stroke-linecap:square;stroke-linejoin:round;stroke:rgb(12.156863%,46.666667%,70.588235%);stroke-opacity:1;stroke-miterlimit:4;" d="M 34.953125 17.434375 L 44.7 87.34375 L 54.44375 102.403125 L 64.1875 108.96875 L 73.93125 115.378125 L 83.675 117 L 93.41875 121.3875 L 103.1625 122.059375 L 112.909375 125.96875 L 122.653125 126.36875 L 132.396875 129.846875 L 142.140625 129.0375 L 151.884375 132.7375 L 161.628125 131.475 L 171.371875 135.209375 L 181.115625 133.284375 " transform="matrix(1.25,0,0,1.25,0.000000000000028422,0)"/>
<path style="fill:none;stroke-width:1.5;stroke-linecap:butt;stroke-linejoin:round;stroke:rgb(100%,49.803922%,5.490196%);stroke-opacity:1;stroke-dasharray:5.55,2.4;stroke-miterlimit:4;" d="M 49.634375 89.096875 L 69.1625 75.0375 L 88.69375 94.478125 L 108.221875 107.20625 L 127.753125 114.9 L 147.284375 118.334375 L 166.8125 114.240625 L 186.34375 116.240625 " transform="matrix(1.25,0,0,1.25,0.000000000000028422,0)"/>
<path style="fill:none;stroke-width:1.5;stroke-linecap:butt;stroke-linejoin:round;stroke:rgb(17.254902%,62.745098%,17.254902%);stroke-opacity:1;stroke-dasharray:9.6,2.4,1.5,2.4;stroke-miterlimit:4;" d="M 49.634375 25.76875 L 69.1625 29.746875 L 88.69375 23.109375 L 108.221875 18.23125 L 127.753125 15.721875 L 147.284375 13.784375 L 166.8125 14.603125 L 186.34375 14.4875 " transform="matrix(1.25,0,0,1.25,0.000000000000028422,0)"/>
<path style="fill:none;stroke-width:1.5;stroke-linecap:square;stroke-linejoin:round;stroke:rgb(12.156863%,46.666667%,70.588235%);stroke-opacity:1;stroke-miterlimit:4;" d="M 34.953125 17.434375 L 44.7 87.34375 L 54.44375 102.403125 L 64.1875 108.96875 L 73.93125 115.378125 L 83.675 117 L 93.41875 121.3875 L 103.1625 122.059375 L 112.909375 125.96875 L 122.653125 126.36875 L 132.396875 129.846875 L 142.140625 129.0375 L 151.884375 132.7375 L 161.628125 131.475 L 171.371875 135.209375 L 181.115625 133.284375 L 190.8625 137.7625 " transform="matrix(1.25,0,0,1.25,0.000000000000028422,0)"/>
<path style="fill:none;stroke-width:1.5;stroke-linecap:butt;stroke-linejoin:round;stroke:rgb(100%,49.803922%,5.490196%);stroke-opacity:1;stroke-dasharray:5.55,2.4;stroke-miterlimit:4;" d="M 49.634375 89.096875 L 69.1625 75.0375 L 88.69375 94.478125 L 108.221875 107.20625 L 127.753125 114.9 L 147.284375 118.334375 L 166.8125 114.240625 L 186.34375 116.240625 " transform="matrix(1.25,0,0,1.25,0.000000000000028422,0)"/>
<path style="fill:none;stroke-width:1.5;stroke-linecap:butt;stroke-linejoin:round;stroke:rgb(17.254902%,62.745098%,17.254902%);stroke-opacity:1;stroke-dasharray:9.6,2.4,1.5,2.4;stroke-miterlimit:4;" d="M 49.634375 25.76875 L 69.1625 29.746875 L 88.69375 23.109375 L 108.221875 18.23125 L 127.753125 15.721875 L 147.284375 13.784375 L 166.8125 14.603125 L 186.34375 14.4875 " transform="matrix(1.25,0,0,1.25,0.000000000000028422,0)"/>
<path style="fill:none;stroke-width:1.5;stroke-linecap:square;stroke-linejoin:round;stroke:rgb(12.156863%,46.666667%,70.588235%);stroke-opacity:1;stroke-miterlimit:4;" d="M 34.953125 17.434375 L 44.7 87.34375 L 54.44375 102.403125 L 64.1875 108.96875 L 73.93125 115.378125 L 83.675 117 L 93.41875 121.3875 L 103.1625 122.059375 L 112.909375 125.96875 L 122.653125 126.36875 L 132.396875 129.846875 L 142.140625 129.0375 L 151.884375 132.7375 L 161.628125 131.475 L 171.371875 135.209375 L 181.115625 133.284375 L 190.8625 137.7625 L 200.60625 135.359375 " transform="matrix(1.25,0,0,1.25,0.000000000000028422,0)"/>
<path style="fill:none;stroke-width:1.5;stroke-linecap:butt;stroke-linejoin:round;stroke:rgb(100%,49.803922%,5.490196%);stroke-opacity:1;stroke-dasharray:5.55,2.4;stroke-miterlimit:4;" d="M 49.634375 89.096875 L 69.1625 75.0375 L 88.69375 94.478125 L 108.221875 107.20625 L 127.753125 114.9 L 147.284375 118.334375 L 166.8125 114.240625 L 186.34375 116.240625 " transform="matrix(1.25,0,0,1.25,0.000000000000028422,0)"/>
<path style="fill:none;stroke-width:1.5;stroke-linecap:butt;stroke-linejoin:round;stroke:rgb(17.254902%,62.745098%,17.254902%);stroke-opacity:1;stroke-dasharray:9.6,2.4,1.5,2.4;stroke-miterlimit:4;" d="M 49.634375 25.76875 L 69.1625 29.746875 L 88.69375 23.109375 L 108.221875 18.23125 L 127.753125 15.721875 L 147.284375 13.784375 L 166.8125 14.603125 L 186.34375 14.4875 " transform="matrix(1.25,0,0,1.25,0.000000000000028422,0)"/>
<path style="fill:none;stroke-width:1.5;stroke-linecap:square;stroke-linejoin:round;stroke:rgb(12.156863%,46.666667%,70.588235%);stroke-opacity:1;stroke-miterlimit:4;" d="M 34.953125 17.434375 L 44.7 87.34375 L 54.44375 102.403125 L 64.1875 108.96875 L 73.93125 115.378125 L 83.675 117 L 93.41875 121.3875 L 103.1625 122.059375 L 112.909375 125.96875 L 122.653125 126.36875 L 132.396875 129.846875 L 142.140625 129.0375 L 151.884375 132.7375 L 161.628125 131.475 L 171.371875 135.209375 L 181.115625 133.284375 L 190.8625 137.7625 L 200.60625 135.359375 " transform="matrix(1.25,0,0,1.25,0.000000000000028422,0)"/>
<path style="fill:none;stroke-width:1.5;stroke-linecap:butt;stroke-linejoin:round;stroke:rgb(100%,49.803922%,5.490196%);stroke-opacity:1;stroke-dasharray:5.55,2.4;stroke-miterlimit:4;" d="M 49.634375 89.096875 L 69.1625 75.0375 L 88.69375 94.478125 L 108.221875 107.20625 L 127.753125 114.9 L 147.284375 118.334375 L 166.8125 114.240625 L 186.34375 116.240625 L 205.871875 120.484375 " transform="matrix(1.25,0,0,1.25,0.000000000000028422,0)"/>
<path style="fill:none;stroke-width:1.5;stroke-linecap:butt;stroke-linejoin:round;stroke:rgb(17.254902%,62.745098%,17.254902%);stroke-opacity:1;stroke-dasharray:9.6,2.4,1.5,2.4;stroke-miterlimit:4;" d="M 49.634375 25.76875 L 69.1625 29.746875 L 88.69375 23.109375 L 108.221875 18.23125 L 127.753125 15.721875 L 147.284375 13.784375 L 166.8125 14.603125 L 186.34375 14.4875 " transform="matrix(1.25,0,0,1.25,0.000000000000028422,0)"/>
<path style="fill:none;stroke-width:1.5;stroke-linecap:square;stroke-linejoin:round;stroke:rgb(12.156863%,46.666667%,70.588235%);stroke-opacity:1;stroke-miterlimit:4;" d="M 34.953125 17.434375 L 44.7 87.34375 L 54.44375 102.403125 L 64.1875 108.96875 L 73.93125 115.378125 L 83.675 117 L 93.41875 121.3875 L 103.1625 122.059375 L 112.909375 125.96875 L 122.653125 126.36875 L 132.396875 129.846875 L 142.140625 129.0375 L 151.884375 132.7375 L 161.628125 131.475 L 171.371875 135.209375 L 181.115625 133.284375 L 190.8625 137.7625 L 200.60625 135.359375 " transform="matrix(1.25,0,0,1.25,0.000000000000028422,0)"/>
<path style="fill:none;stroke-width:1.5;stroke-linecap:butt;stroke-linejoin:round;stroke:rgb(100%,49.803922%,5.490196%);stroke-opacity:1;stroke-dasharray:5.55,2.4;stroke-miterlimit:4;" d="M 49.634375 89.096875 L 69.1625 75.0375 L 88.69375 94.478125 L 108.221875 107.20625 L 127.753125 114.9 L 147.284375 118.334375 L 166.8125 114.240625 L 186.34375 116.240625 L 205.871875 120.484375 " transform="matrix(1.25,0,0,1.25,0.000000000000028422,0)"/>
<path style="fill:none;stroke-width:1.5;stroke-linecap:butt;stroke-linejoin:round;stroke:rgb(17.254902%,62.745098%,17.254902%);stroke-opacity:1;stroke-dasharray:9.6,2.4,1.5,2.4;stroke-miterlimit:4;" d="M 49.634375 25.76875 L 69.1625 29.746875 L 88.69375 23.109375 L 108.221875 18.23125 L 127.753125 15.721875 L 147.284375 13.784375 L 166.8125 14.603125 L 186.34375 14.4875 L 205.871875 13.5 " transform="matrix(1.25,0,0,1.25,0.000000000000028422,0)"/>
<path style="fill:none;stroke-width:1.5;stroke-linecap:square;stroke-linejoin:round;stroke:rgb(12.156863%,46.666667%,70.588235%);stroke-opacity:1;stroke-miterlimit:4;" d="M 34.953125 17.434375 L 44.7 87.34375 L 54.44375 102.403125 L 64.1875 108.96875 L 73.93125 115.378125 L 83.675 117 L 93.41875 121.3875 L 103.1625 122.059375 L 112.909375 125.96875 L 122.653125 126.36875 L 132.396875 129.846875 L 142.140625 129.0375 L 151.884375 132.7375 L 161.628125 131.475 L 171.371875 135.209375 L 181.115625 133.284375 L 190.8625 137.7625 L 200.60625 135.359375 L 210.35 139.5 " transform="matrix(1.25,0,0,1.25,0.000000000000028422,0)"/>
<path style="fill:none;stroke-width:1.5;stroke-linecap:butt;stroke-linejoin:round;stroke:rgb(100%,49.803922%,5.490196%);stroke-opacity:1;stroke-dasharray:5.55,2.4;stroke-miterlimit:4;" d="M 49.634375 89.096875 L 69.1625 75.0375 L 88.69375 94.478125 L 108.221875 107.20625 L 127.753125 114.9 L 147.284375 118.334375 L 166.8125 114.240625 L 186.34375 116.240625 L 205.871875 120.484375 " transform="matrix(1.25,0,0,1.25,0.000000000000028422,0)"/>
<path style="fill:none;stroke-width:1.5;stroke-linecap:butt;stroke-linejoin:round;stroke:rgb(17.254902%,62.745098%,17.254902%);stroke-opacity:1;stroke-dasharray:9.6,2.4,1.5,2.4;stroke-miterlimit:4;" d="M 49.634375 25.76875 L 69.1625 29.746875 L 88.69375 23.109375 L 108.221875 18.23125 L 127.753125 15.721875 L 147.284375 13.784375 L 166.8125 14.603125 L 186.34375 14.4875 L 205.871875 13.5 " transform="matrix(1.25,0,0,1.25,0.000000000000028422,0)"/>
<path style="fill:none;stroke-width:1.5;stroke-linecap:square;stroke-linejoin:round;stroke:rgb(12.156863%,46.666667%,70.588235%);stroke-opacity:1;stroke-miterlimit:4;" d="M 34.953125 17.434375 L 44.7 87.34375 L 54.44375 102.403125 L 64.1875 108.96875 L 73.93125 115.378125 L 83.675 117 L 93.41875 121.3875 L 103.1625 122.059375 L 112.909375 125.96875 L 122.653125 126.36875 L 132.396875 129.846875 L 142.140625 129.0375 L 151.884375 132.7375 L 161.628125 131.475 L 171.371875 135.209375 L 181.115625 133.284375 L 190.8625 137.7625 L 200.60625 135.359375 L 210.35 139.5 L 220.09375 137.978125 " transform="matrix(1.25,0,0,1.25,0.000000000000028422,0)"/>
<path style="fill:none;stroke-width:1.5;stroke-linecap:butt;stroke-linejoin:round;stroke:rgb(100%,49.803922%,5.490196%);stroke-opacity:1;stroke-dasharray:5.55,2.4;stroke-miterlimit:4;" d="M 49.634375 89.096875 L 69.1625 75.0375 L 88.69375 94.478125 L 108.221875 107.20625 L 127.753125 114.9 L 147.284375 118.334375 L 166.8125 114.240625 L 186.34375 116.240625 L 205.871875 120.484375 " transform="matrix(1.25,0,0,1.25,0.000000000000028422,0)"/>
<path style="fill:none;stroke-width:1.5;stroke-linecap:butt;stroke-linejoin:round;stroke:rgb(17.254902%,62.745098%,17.254902%);stroke-opacity:1;stroke-dasharray:9.6,2.4,1.5,2.4;stroke-miterlimit:4;" d="M 49.634375 25.76875 L 69.1625 29.746875 L 88.69375 23.109375 L 108.221875 18.23125 L 127.753125 15.721875 L 147.284375 13.784375 L 166.8125 14.603125 L 186.34375 14.4875 L 205.871875 13.5 " transform="matrix(1.25,0,0,1.25,0.000000000000028422,0)"/>
<path style="fill:none;stroke-width:1.5;stroke-linecap:square;stroke-linejoin:round;stroke:rgb(12.156863%,46.666667%,70.588235%);stroke-opacity:1;stroke-miterlimit:4;" d="M 34.953125 17.434375 L 44.7 87.34375 L 54.44375 102.403125 L 64.1875 108.96875 L 73.93125 115.378125 L 83.675 117 L 93.41875 121.3875 L 103.1625 122.059375 L 112.909375 125.96875 L 122.653125 126.36875 L 132.396875 129.846875 L 142.140625 129.0375 L 151.884375 132.7375 L 161.628125 131.475 L 171.371875 135.209375 L 181.115625 133.284375 L 190.8625 137.7625 L 200.60625 135.359375 L 210.35 139.5 L 220.09375 137.978125 " transform="matrix(1.25,0,0,1.25,0.000000000000028422,0)"/>
<g clip-path="url(#clip1)" clip-rule="nonzero">
<path style="fill:none;stroke-width:1.5;stroke-linecap:butt;stroke-linejoin:round;stroke:rgb(100%,49.803922%,5.490196%);stroke-opacity:1;stroke-dasharray:5.55,2.4;stroke-miterlimit:4;" d="M 49.634375 89.096875 L 69.1625 75.0375 L 88.69375 94.478125 L 108.221875 107.20625 L 127.753125 114.9 L 147.284375 118.334375 L 166.8125 114.240625 L 186.34375 116.240625 L 205.871875 120.484375 L 225.403125 106.725 " transform="matrix(1.25,0,0,1.25,0.000000000000028422,0)"/>
</g>
<path style="fill:none;stroke-width:1.5;stroke-linecap:butt;stroke-linejoin:round;stroke:rgb(17.254902%,62.745098%,17.254902%);stroke-opacity:1;stroke-dasharray:9.6,2.4,1.5,2.4;stroke-miterlimit:4;" d="M 49.634375 25.76875 L 69.1625 29.746875 L 88.69375 23.109375 L 108.221875 18.23125 L 127.753125 15.721875 L 147.284375 13.784375 L 166.8125 14.603125 L 186.34375 14.4875 L 205.871875 13.5 " transform="matrix(1.25,0,0,1.25,0.000000000000028422,0)"/>
<path style="fill:none;stroke-width:1.5;stroke-linecap:square;stroke-linejoin:round;stroke:rgb(12.156863%,46.666667%,70.588235%);stroke-opacity:1;stroke-miterlimit:4;" d="M 34.953125 17.434375 L 44.7 87.34375 L 54.44375 102.403125 L 64.1875 108.96875 L 73.93125 115.378125 L 83.675 117 L 93.41875 121.3875 L 103.1625 122.059375 L 112.909375 125.96875 L 122.653125 126.36875 L 132.396875 129.846875 L 142.140625 129.0375 L 151.884375 132.7375 L 161.628125 131.475 L 171.371875 135.209375 L 181.115625 133.284375 L 190.8625 137.7625 L 200.60625 135.359375 L 210.35 139.5 L 220.09375 137.978125 " transform="matrix(1.25,0,0,1.25,0.000000000000028422,0)"/>
<g clip-path="url(#clip2)" clip-rule="nonzero">
<path style="fill:none;stroke-width:1.5;stroke-linecap:butt;stroke-linejoin:round;stroke:rgb(100%,49.803922%,5.490196%);stroke-opacity:1;stroke-dasharray:5.55,2.4;stroke-miterlimit:4;" d="M 49.634375 89.096875 L 69.1625 75.0375 L 88.69375 94.478125 L 108.221875 107.20625 L 127.753125 114.9 L 147.284375 118.334375 L 166.8125 114.240625 L 186.34375 116.240625 L 205.871875 120.484375 L 225.403125 106.725 " transform="matrix(1.25,0,0,1.25,0.000000000000028422,0)"/>
</g>
<g clip-path="url(#clip3)" clip-rule="nonzero">
<path style="fill:none;stroke-width:1.5;stroke-linecap:butt;stroke-linejoin:round;stroke:rgb(17.254902%,62.745098%,17.254902%);stroke-opacity:1;stroke-dasharray:9.6,2.4,1.5,2.4;stroke-miterlimit:4;" d="M 49.634375 25.76875 L 69.1625 29.746875 L 88.69375 23.109375 L 108.221875 18.23125 L 127.753125 15.721875 L 147.284375 13.784375 L 166.8125 14.603125 L 186.34375 14.4875 L 205.871875 13.5 L 225.403125 16.94375 " transform="matrix(1.25,0,0,1.25,0.000000000000028422,0)"/>
</g>
<path style="fill:none;stroke-width:0.8;stroke-linecap:square;stroke-linejoin:miter;stroke:rgb(0%,0%,0%);stroke-opacity:1;stroke-miterlimit:4;" d="M 30.103125 145.8 L 30.103125 7.2 " transform="matrix(1.25,0,0,1.25,0.000000000000028422,0)"/>
<path style="fill:none;stroke-width:0.8;stroke-linecap:square;stroke-linejoin:miter;stroke:rgb(0%,0%,0%);stroke-opacity:1;stroke-miterlimit:4;" d="M 225.403125 145.8 L 225.403125 7.2 " transform="matrix(1.25,0,0,1.25,0.000000000000028422,0)"/>
<path style="fill:none;stroke-width:0.8;stroke-linecap:square;stroke-linejoin:miter;stroke:rgb(0%,0%,0%);stroke-opacity:1;stroke-miterlimit:4;" d="M 30.103125 145.8 L 225.403125 145.8 " transform="matrix(1.25,0,0,1.25,0.000000000000028422,0)"/>
<path style="fill:none;stroke-width:0.8;stroke-linecap:square;stroke-linejoin:miter;stroke:rgb(0%,0%,0%);stroke-opacity:1;stroke-miterlimit:4;" d="M 30.103125 7.2 L 225.403125 7.2 " transform="matrix(1.25,0,0,1.25,0.000000000000028422,0)"/>
<use xlink:href="#surface5" mask="url(#mask0)"/>
<path style="fill:none;stroke-width:1.5;stroke-linecap:square;stroke-linejoin:round;stroke:rgb(12.156863%,46.666667%,70.588235%);stroke-opacity:1;stroke-miterlimit:4;" d="M 140.8125 60.665625 L 160.8125 60.665625 " transform="matrix(1.25,0,0,1.25,0.000000000000028422,0)"/>
<path style=" stroke:none;fill-rule:nonzero;fill:rgb(0%,0%,0%);fill-opacity:1;" d="M 213.304688 71.429688 L 213.304688 73.371094 L 215.617188 73.371094 L 215.617188 74.242188 L 213.304688 74.242188 L 213.304688 77.953125 C 213.304688 78.511719 213.382812 78.867188 213.53125 79.027344 C 213.6875 79.1875 213.996094 79.265625 214.464844 79.265625 L 215.617188 79.265625 L 215.617188 80.207031 L 214.464844 80.207031 C 213.597656 80.207031 213 80.042969 212.671875 79.722656 C 212.339844 79.398438 212.175781 78.808594 212.175781 77.953125 L 212.175781 74.242188 L 211.351562 74.242188 L 211.351562 73.371094 L 212.175781 73.371094 L 212.175781 71.429688 Z M 213.304688 71.429688 "/>
<path style=" stroke:none;fill-rule:nonzero;fill:rgb(0%,0%,0%);fill-opacity:1;" d="M 221.054688 74.417969 C 220.929688 74.34375 220.792969 74.292969 220.644531 74.257812 C 220.496094 74.222656 220.332031 74.207031 220.152344 74.207031 C 219.519531 74.207031 219.03125 74.410156 218.691406 74.824219 C 218.351562 75.238281 218.179688 75.832031 218.179688 76.605469 L 218.179688 80.207031 L 217.050781 80.207031 L 217.050781 73.371094 L 218.179688 73.371094 L 218.179688 74.433594 C 218.417969 74.015625 218.726562 73.707031 219.101562 73.507812 C 219.480469 73.304688 219.941406 73.207031 220.484375 73.207031 C 220.558594 73.207031 220.644531 73.210938 220.738281 73.222656 C 220.832031 73.230469 220.9375 73.246094 221.050781 73.265625 Z M 221.054688 74.417969 "/>
<path style=" stroke:none;fill-rule:nonzero;fill:rgb(0%,0%,0%);fill-opacity:1;" d="M 225.339844 76.769531 C 224.433594 76.769531 223.804688 76.875 223.453125 77.082031 C 223.105469 77.289062 222.929688 77.640625 222.929688 78.144531 C 222.929688 78.542969 223.058594 78.859375 223.324219 79.09375 C 223.585938 79.324219 223.941406 79.441406 224.394531 79.441406 C 225.015625 79.441406 225.515625 79.222656 225.894531 78.78125 C 226.269531 78.339844 226.457031 77.75 226.457031 77.019531 L 226.457031 76.769531 Z M 227.582031 76.304688 L 227.582031 80.207031 L 226.457031 80.207031 L 226.457031 79.167969 C 226.203125 79.582031 225.882812 79.886719 225.5 80.085938 C 225.117188 80.285156 224.648438 80.382812 224.09375 80.382812 C 223.394531 80.382812 222.839844 80.1875 222.425781 79.792969 C 222.011719 79.398438 221.804688 78.875 221.804688 78.214844 C 221.804688 77.445312 222.0625 76.867188 222.578125 76.476562 C 223.09375 76.085938 223.859375 75.890625 224.882812 75.890625 L 226.457031 75.890625 L 226.457031 75.78125 C 226.457031 75.261719 226.289062 74.863281 225.949219 74.582031 C 225.609375 74.296875 225.132812 74.15625 224.515625 74.15625 C 224.125 74.15625 223.746094 74.203125 223.375 74.296875 C 223.003906 74.390625 222.648438 74.53125 222.308594 74.71875 L 222.308594 73.679688 C 222.71875 73.519531 223.117188 73.402344 223.503906 73.324219 C 223.890625 73.246094 224.265625 73.207031 224.632812 73.207031 C 225.621094 73.207031 226.359375 73.460938 226.847656 73.976562 C 227.335938 74.488281 227.582031 75.261719 227.582031 76.304688 Z M 227.582031 76.304688 "/>
<path style=" stroke:none;fill-rule:nonzero;fill:rgb(0%,0%,0%);fill-opacity:1;" d="M 229.894531 73.371094 L 231.015625 73.371094 L 231.015625 80.207031 L 229.894531 80.207031 Z M 229.894531 70.707031 L 231.015625 70.707031 L 231.015625 72.132812 L 229.894531 72.132812 Z M 229.894531 70.707031 "/>
<path style=" stroke:none;fill-rule:nonzero;fill:rgb(0%,0%,0%);fill-opacity:1;" d="M 239.050781 76.078125 L 239.050781 80.207031 L 237.925781 80.207031 L 237.925781 76.117188 C 237.925781 75.46875 237.800781 74.984375 237.546875 74.664062 C 237.296875 74.34375 236.917969 74.183594 236.414062 74.183594 C 235.804688 74.183594 235.328125 74.375 234.976562 74.761719 C 234.628906 75.148438 234.453125 75.675781 234.453125 76.34375 L 234.453125 80.207031 L 233.324219 80.207031 L 233.324219 73.371094 L 234.453125 73.371094 L 234.453125 74.433594 C 234.722656 74.019531 235.039062 73.714844 235.402344 73.511719 C 235.765625 73.308594 236.1875 73.207031 236.664062 73.207031 C 237.449219 73.207031 238.042969 73.449219 238.445312 73.933594 C 238.847656 74.417969 239.050781 75.132812 239.050781 76.078125 Z M 239.050781 76.078125 "/>
<path style=" stroke:none;fill-rule:nonzero;fill:rgb(0%,0%,0%);fill-opacity:1;" d="M 246.484375 82.28125 L 246.484375 83.152344 L 239.988281 83.152344 L 239.988281 82.28125 Z M 246.484375 82.28125 "/>
<path style=" stroke:none;fill-rule:nonzero;fill:rgb(0%,0%,0%);fill-opacity:1;" d="M 247.539062 70.707031 L 248.660156 70.707031 L 248.660156 80.207031 L 247.539062 80.207031 Z M 247.539062 70.707031 "/>
<path style=" stroke:none;fill-rule:nonzero;fill:rgb(0%,0%,0%);fill-opacity:1;" d="M 253.660156 74.15625 C 253.058594 74.15625 252.582031 74.390625 252.234375 74.863281 C 251.882812 75.332031 251.707031 75.976562 251.707031 76.792969 C 251.707031 77.609375 251.882812 78.253906 252.226562 78.726562 C 252.578125 79.195312 253.054688 79.429688 253.660156 79.429688 C 254.257812 79.429688 254.734375 79.195312 255.082031 78.722656 C 255.433594 78.25 255.609375 77.605469 255.609375 76.792969 C 255.609375 75.984375 255.433594 75.339844 255.082031 74.867188 C 254.734375 74.394531 254.257812 74.15625 253.660156 74.15625 Z M 253.660156 73.207031 C 254.636719 73.207031 255.402344 73.523438 255.960938 74.160156 C 256.519531 74.792969 256.796875 75.671875 256.796875 76.792969 C 256.796875 77.910156 256.519531 78.789062 255.960938 79.429688 C 255.402344 80.066406 254.636719 80.382812 253.660156 80.382812 C 252.679688 80.382812 251.910156 80.066406 251.355469 79.429688 C 250.800781 78.789062 250.523438 77.910156 250.523438 76.792969 C 250.523438 75.671875 250.800781 74.792969 251.355469 74.160156 C 251.910156 73.523438 252.679688 73.207031 253.660156 73.207031 Z M 253.660156 73.207031 "/>
<path style=" stroke:none;fill-rule:nonzero;fill:rgb(0%,0%,0%);fill-opacity:1;" d="M 263.015625 73.570312 L 263.015625 74.632812 C 262.699219 74.46875 262.371094 74.347656 262.027344 74.269531 C 261.6875 74.1875 261.332031 74.144531 260.964844 74.144531 C 260.410156 74.144531 259.992188 74.230469 259.710938 74.402344 C 259.433594 74.570312 259.292969 74.828125 259.292969 75.171875 C 259.292969 75.429688 259.394531 75.636719 259.59375 75.785156 C 259.792969 75.933594 260.191406 76.074219 260.796875 76.207031 L 261.179688 76.292969 C 261.976562 76.464844 262.542969 76.703125 262.878906 77.015625 C 263.214844 77.328125 263.382812 77.761719 263.382812 78.320312 C 263.382812 78.953125 263.132812 79.457031 262.628906 79.828125 C 262.128906 80.199219 261.4375 80.382812 260.558594 80.382812 C 260.191406 80.382812 259.808594 80.347656 259.414062 80.277344 C 259.015625 80.203125 258.597656 80.097656 258.160156 79.957031 L 258.160156 78.796875 C 258.574219 79.011719 258.984375 79.171875 259.386719 79.28125 C 259.789062 79.386719 260.1875 79.441406 260.582031 79.441406 C 261.113281 79.441406 261.519531 79.351562 261.800781 79.171875 C 262.085938 78.988281 262.230469 78.734375 262.230469 78.40625 C 262.230469 78.101562 262.125 77.867188 261.921875 77.703125 C 261.714844 77.539062 261.265625 77.382812 260.570312 77.234375 L 260.179688 77.140625 C 259.484375 76.996094 258.980469 76.769531 258.671875 76.46875 C 258.363281 76.164062 258.207031 75.746094 258.207031 75.21875 C 258.207031 74.574219 258.4375 74.078125 258.890625 73.730469 C 259.347656 73.378906 259.996094 73.207031 260.832031 73.207031 C 261.246094 73.207031 261.636719 73.234375 262.003906 73.296875 C 262.371094 73.355469 262.707031 73.449219 263.015625 73.570312 Z M 263.015625 73.570312 "/>
<path style=" stroke:none;fill-rule:nonzero;fill:rgb(0%,0%,0%);fill-opacity:1;" d="M 269.53125 73.570312 L 269.53125 74.632812 C 269.210938 74.46875 268.882812 74.347656 268.539062 74.269531 C 268.199219 74.1875 267.84375 74.144531 267.476562 74.144531 C 266.921875 74.144531 266.503906 74.230469 266.226562 74.402344 C 265.945312 74.570312 265.804688 74.828125 265.804688 75.171875 C 265.804688 75.429688 265.90625 75.636719 266.105469 75.785156 C 266.304688 75.933594 266.707031 76.074219 267.308594 76.207031 L 267.695312 76.292969 C 268.492188 76.464844 269.054688 76.703125 269.390625 77.015625 C 269.726562 77.328125 269.898438 77.761719 269.898438 78.320312 C 269.898438 78.953125 269.644531 79.457031 269.140625 79.828125 C 268.640625 80.199219 267.949219 80.382812 267.070312 80.382812 C 266.703125 80.382812 266.324219 80.347656 265.925781 80.277344 C 265.527344 80.203125 265.109375 80.097656 264.671875 79.957031 L 264.671875 78.796875 C 265.085938 79.011719 265.496094 79.171875 265.898438 79.28125 C 266.300781 79.386719 266.699219 79.441406 267.09375 79.441406 C 267.625 79.441406 268.03125 79.351562 268.3125 79.171875 C 268.601562 78.988281 268.742188 78.734375 268.742188 78.40625 C 268.742188 78.101562 268.640625 77.867188 268.433594 77.703125 C 268.230469 77.539062 267.777344 77.382812 267.082031 77.234375 L 266.691406 77.140625 C 265.996094 76.996094 265.492188 76.769531 265.183594 76.46875 C 264.875 76.164062 264.71875 75.746094 264.71875 75.21875 C 264.71875 74.574219 264.949219 74.078125 265.40625 73.730469 C 265.859375 73.378906 266.507812 73.207031 267.34375 73.207031 C 267.757812 73.207031 268.148438 73.234375 268.515625 73.296875 C 268.882812 73.355469 269.21875 73.449219 269.53125 73.570312 Z M 269.53125 73.570312 "/>
<path style="fill:none;stroke-width:1.5;stroke-linecap:butt;stroke-linejoin:round;stroke:rgb(100%,49.803922%,5.490196%);stroke-opacity:1;stroke-dasharray:5.55,2.4;stroke-miterlimit:4;" d="M 140.8125 75.621875 L 160.8125 75.621875 " transform="matrix(1.25,0,0,1.25,0.000000000000028422,0)"/>
<path style=" stroke:none;fill-rule:nonzero;fill:rgb(0%,0%,0%);fill-opacity:1;" d="M 211.390625 92.066406 L 212.578125 92.066406 L 214.714844 97.800781 L 216.851562 92.066406 L 218.039062 92.066406 L 215.476562 98.902344 L 213.953125 98.902344 Z M 211.390625 92.066406 "/>
<path style=" stroke:none;fill-rule:nonzero;fill:rgb(0%,0%,0%);fill-opacity:1;" d="M 222.699219 95.464844 C 221.789062 95.464844 221.160156 95.570312 220.8125 95.777344 C 220.460938 95.984375 220.285156 96.335938 220.285156 96.839844 C 220.285156 97.238281 220.417969 97.554688 220.679688 97.789062 C 220.945312 98.019531 221.300781 98.136719 221.75 98.136719 C 222.375 98.136719 222.875 97.917969 223.25 97.476562 C 223.628906 97.035156 223.816406 96.445312 223.816406 95.714844 L 223.816406 95.464844 Z M 224.9375 95 L 224.9375 98.902344 L 223.816406 98.902344 L 223.816406 97.863281 C 223.558594 98.277344 223.238281 98.582031 222.855469 98.78125 C 222.472656 98.980469 222.003906 99.078125 221.453125 99.078125 C 220.753906 99.078125 220.195312 98.882812 219.78125 98.488281 C 219.371094 98.09375 219.164062 97.570312 219.164062 96.910156 C 219.164062 96.140625 219.421875 95.5625 219.933594 95.171875 C 220.449219 94.78125 221.21875 94.585938 222.238281 94.585938 L 223.816406 94.585938 L 223.816406 94.476562 C 223.816406 93.957031 223.644531 93.558594 223.304688 93.277344 C 222.964844 92.992188 222.488281 92.851562 221.875 92.851562 C 221.484375 92.851562 221.101562 92.898438 220.730469 92.992188 C 220.363281 93.085938 220.007812 93.226562 219.664062 93.414062 L 219.664062 92.375 C 220.074219 92.214844 220.472656 92.097656 220.859375 92.019531 C 221.246094 91.941406 221.625 91.902344 221.988281 91.902344 C 222.980469 91.902344 223.71875 92.15625 224.207031 92.671875 C 224.695312 93.183594 224.9375 93.957031 224.9375 95 Z M 224.9375 95 "/>
<path style=" stroke:none;fill-rule:nonzero;fill:rgb(0%,0%,0%);fill-opacity:1;" d="M 227.25 89.402344 L 228.375 89.402344 L 228.375 98.902344 L 227.25 98.902344 Z M 227.25 89.402344 "/>
<path style=" stroke:none;fill-rule:nonzero;fill:rgb(0%,0%,0%);fill-opacity:1;" d="M 235.917969 100.976562 L 235.917969 101.847656 L 229.421875 101.847656 L 229.421875 100.976562 Z M 235.917969 100.976562 "/>
<path style=" stroke:none;fill-rule:nonzero;fill:rgb(0%,0%,0%);fill-opacity:1;" d="M 236.972656 89.402344 L 238.097656 89.402344 L 238.097656 98.902344 L 236.972656 98.902344 Z M 236.972656 89.402344 "/>
<path style=" stroke:none;fill-rule:nonzero;fill:rgb(0%,0%,0%);fill-opacity:1;" d="M 243.09375 92.851562 C 242.492188 92.851562 242.015625 93.085938 241.667969 93.558594 C 241.316406 94.027344 241.140625 94.671875 241.140625 95.488281 C 241.140625 96.304688 241.316406 96.949219 241.664062 97.421875 C 242.011719 97.890625 242.488281 98.125 243.09375 98.125 C 243.695312 98.125 244.167969 97.890625 244.515625 97.417969 C 244.867188 96.945312 245.042969 96.300781 245.042969 95.488281 C 245.042969 94.679688 244.867188 94.035156 244.515625 93.5625 C 244.167969 93.089844 243.695312 92.851562 243.09375 92.851562 Z M 243.09375 91.902344 C 244.070312 91.902344 244.839844 92.21875 245.394531 92.855469 C 245.953125 93.488281 246.234375 94.367188 246.234375 95.488281 C 246.234375 96.605469 245.953125 97.484375 245.394531 98.125 C 244.839844 98.761719 244.070312 99.078125 243.09375 99.078125 C 242.113281 99.078125 241.347656 98.761719 240.789062 98.125 C 240.234375 97.484375 239.957031 96.605469 239.957031 95.488281 C 239.957031 94.367188 240.234375 93.488281 240.789062 92.855469 C 241.347656 92.21875 242.113281 91.902344 243.09375 91.902344 Z M 243.09375 91.902344 "/>
<path style=" stroke:none;fill-rule:nonzero;fill:rgb(0%,0%,0%);fill-opacity:1;" d="M 252.453125 92.265625 L 252.453125 93.328125 C 252.136719 93.164062 251.804688 93.042969 251.464844 92.964844 C 251.121094 92.882812 250.769531 92.839844 250.402344 92.839844 C 249.84375 92.839844 249.425781 92.925781 249.148438 93.097656 C 248.867188 93.265625 248.730469 93.523438 248.730469 93.867188 C 248.730469 94.125 248.828125 94.332031 249.027344 94.480469 C 249.226562 94.628906 249.628906 94.769531 250.230469 94.902344 L 250.617188 94.988281 C 251.414062 95.160156 251.980469 95.398438 252.316406 95.710938 C 252.652344 96.023438 252.820312 96.457031 252.820312 97.015625 C 252.820312 97.648438 252.566406 98.152344 252.066406 98.523438 C 251.5625 98.894531 250.871094 99.078125 249.992188 99.078125 C 249.625 99.078125 249.246094 99.042969 248.847656 98.972656 C 248.449219 98.898438 248.03125 98.792969 247.59375 98.652344 L 247.59375 97.492188 C 248.007812 97.707031 248.417969 97.867188 248.820312 97.976562 C 249.222656 98.082031 249.621094 98.136719 250.019531 98.136719 C 250.546875 98.136719 250.953125 98.046875 251.238281 97.867188 C 251.523438 97.683594 251.664062 97.429688 251.664062 97.101562 C 251.664062 96.796875 251.5625 96.5625 251.355469 96.398438 C 251.152344 96.234375 250.699219 96.078125 250.003906 95.929688 L 249.613281 95.835938 C 248.917969 95.691406 248.414062 95.464844 248.105469 95.164062 C 247.796875 94.859375 247.644531 94.441406 247.644531 93.914062 C 247.644531 93.269531 247.871094 92.773438 248.328125 92.425781 C 248.78125 92.074219 249.429688 91.902344 250.269531 91.902344 C 250.683594 91.902344 251.070312 91.929688 251.4375 91.992188 C 251.804688 92.050781 252.144531 92.144531 252.453125 92.265625 Z M 252.453125 92.265625 "/>
<path style=" stroke:none;fill-rule:nonzero;fill:rgb(0%,0%,0%);fill-opacity:1;" d="M 258.964844 92.265625 L 258.964844 93.328125 C 258.648438 93.164062 258.316406 93.042969 257.976562 92.964844 C 257.632812 92.882812 257.28125 92.839844 256.914062 92.839844 C 256.355469 92.839844 255.9375 92.925781 255.660156 93.097656 C 255.378906 93.265625 255.242188 93.523438 255.242188 93.867188 C 255.242188 94.125 255.339844 94.332031 255.539062 94.480469 C 255.738281 94.628906 256.140625 94.769531 256.742188 94.902344 L 257.128906 94.988281 C 257.925781 95.160156 258.492188 95.398438 258.828125 95.710938 C 259.164062 96.023438 259.332031 96.457031 259.332031 97.015625 C 259.332031 97.648438 259.078125 98.152344 258.578125 98.523438 C 258.074219 98.894531 257.382812 99.078125 256.503906 99.078125 C 256.140625 99.078125 255.757812 99.042969 255.359375 98.972656 C 254.964844 98.898438 254.546875 98.792969 254.105469 98.652344 L 254.105469 97.492188 C 254.523438 97.707031 254.929688 97.867188 255.332031 97.976562 C 255.734375 98.082031 256.132812 98.136719 256.53125 98.136719 C 257.058594 98.136719 257.464844 98.046875 257.75 97.867188 C 258.035156 97.683594 258.175781 97.429688 258.175781 97.101562 C 258.175781 96.796875 258.074219 96.5625 257.867188 96.398438 C 257.664062 96.234375 257.214844 96.078125 256.515625 95.929688 L 256.125 95.835938 C 255.429688 95.691406 254.929688 95.464844 254.617188 95.164062 C 254.308594 94.859375 254.15625 94.441406 254.15625 93.914062 C 254.15625 93.269531 254.382812 92.773438 254.839844 92.425781 C 255.292969 92.074219 255.941406 91.902344 256.78125 91.902344 C 257.195312 91.902344 257.585938 91.929688 257.949219 91.992188 C 258.316406 92.050781 258.65625 92.144531 258.964844 92.265625 Z M 258.964844 92.265625 "/>
<path style="fill:none;stroke-width:1.5;stroke-linecap:butt;stroke-linejoin:round;stroke:rgb(17.254902%,62.745098%,17.254902%);stroke-opacity:1;stroke-dasharray:9.6,2.4,1.5,2.4;stroke-miterlimit:4;" d="M 140.8125 90.578125 L 160.8125 90.578125 " transform="matrix(1.25,0,0,1.25,0.000000000000028422,0)"/>
<path style=" stroke:none;fill-rule:nonzero;fill:rgb(0%,0%,0%);fill-opacity:1;" d="M 211.390625 110.761719 L 212.578125 110.761719 L 214.714844 116.496094 L 216.851562 110.761719 L 218.039062 110.761719 L 215.476562 117.597656 L 213.953125 117.597656 Z M 211.390625 110.761719 "/>
<path style=" stroke:none;fill-rule:nonzero;fill:rgb(0%,0%,0%);fill-opacity:1;" d="M 222.699219 114.160156 C 221.789062 114.160156 221.160156 114.265625 220.8125 114.472656 C 220.460938 114.679688 220.285156 115.03125 220.285156 115.535156 C 220.285156 115.933594 220.417969 116.25 220.679688 116.484375 C 220.945312 116.714844 221.300781 116.832031 221.75 116.832031 C 222.375 116.832031 222.875 116.613281 223.25 116.171875 C 223.628906 115.730469 223.816406 115.140625 223.816406 114.410156 L 223.816406 114.160156 Z M 224.9375 113.695312 L 224.9375 117.597656 L 223.816406 117.597656 L 223.816406 116.558594 C 223.558594 116.972656 223.238281 117.277344 222.855469 117.476562 C 222.472656 117.675781 222.003906 117.773438 221.453125 117.773438 C 220.753906 117.773438 220.195312 117.578125 219.78125 117.183594 C 219.371094 116.789062 219.164062 116.265625 219.164062 115.605469 C 219.164062 114.835938 219.421875 114.257812 219.933594 113.867188 C 220.449219 113.476562 221.21875 113.28125 222.238281 113.28125 L 223.816406 113.28125 L 223.816406 113.171875 C 223.816406 112.652344 223.644531 112.253906 223.304688 111.972656 C 222.964844 111.6875 222.488281 111.546875 221.875 111.546875 C 221.484375 111.546875 221.101562 111.59375 220.730469 111.6875 C 220.363281 111.78125 220.007812 111.921875 219.664062 112.109375 L 219.664062 111.070312 C 220.074219 110.910156 220.472656 110.792969 220.859375 110.714844 C 221.246094 110.636719 221.625 110.597656 221.988281 110.597656 C 222.980469 110.597656 223.71875 110.851562 224.207031 111.367188 C 224.695312 111.878906 224.9375 112.652344 224.9375 113.695312 Z M 224.9375 113.695312 "/>
<path style=" stroke:none;fill-rule:nonzero;fill:rgb(0%,0%,0%);fill-opacity:1;" d="M 227.25 108.097656 L 228.375 108.097656 L 228.375 117.597656 L 227.25 117.597656 Z M 227.25 108.097656 "/>
<path style=" stroke:none;fill-rule:nonzero;fill:rgb(0%,0%,0%);fill-opacity:1;" d="M 235.917969 119.671875 L 235.917969 120.542969 L 229.421875 120.542969 L 229.421875 119.671875 Z M 235.917969 119.671875 "/>
<path style=" stroke:none;fill-rule:nonzero;fill:rgb(0%,0%,0%);fill-opacity:1;" d="M 240.082031 114.160156 C 239.171875 114.160156 238.542969 114.265625 238.195312 114.472656 C 237.84375 114.679688 237.667969 115.03125 237.667969 115.535156 C 237.667969 115.933594 237.800781 116.25 238.0625 116.484375 C 238.328125 116.714844 238.683594 116.832031 239.132812 116.832031 C 239.757812 116.832031 240.257812 116.613281 240.632812 116.171875 C 241.011719 115.730469 241.199219 115.140625 241.199219 114.410156 L 241.199219 114.160156 Z M 242.320312 113.695312 L 242.320312 117.597656 L 241.199219 117.597656 L 241.199219 116.558594 C 240.941406 116.972656 240.621094 117.277344 240.238281 117.476562 C 239.855469 117.675781 239.386719 117.773438 238.835938 117.773438 C 238.136719 117.773438 237.578125 117.578125 237.164062 117.183594 C 236.753906 116.789062 236.546875 116.265625 236.546875 115.605469 C 236.546875 114.835938 236.804688 114.257812 237.316406 113.867188 C 237.832031 113.476562 238.601562 113.28125 239.621094 113.28125 L 241.199219 113.28125 L 241.199219 113.171875 C 241.199219 112.652344 241.027344 112.253906 240.6875 111.972656 C 240.347656 111.6875 239.871094 111.546875 239.257812 111.546875 C 238.867188 111.546875 238.484375 111.59375 238.113281 111.6875 C 237.746094 111.78125 237.390625 111.921875 237.046875 112.109375 L 237.046875 111.070312 C 237.457031 110.910156 237.855469 110.792969 238.242188 110.714844 C 238.628906 110.636719 239.007812 110.597656 239.371094 110.597656 C 240.363281 110.597656 241.101562 110.851562 241.589844 111.367188 C 242.078125 111.878906 242.320312 112.652344 242.320312 113.695312 Z M 242.320312 113.695312 "/>
<path style=" stroke:none;fill-rule:nonzero;fill:rgb(0%,0%,0%);fill-opacity:1;" d="M 249.554688 111.023438 L 249.554688 112.074219 C 249.234375 111.898438 248.917969 111.765625 248.597656 111.679688 C 248.28125 111.589844 247.957031 111.546875 247.632812 111.546875 C 246.902344 111.546875 246.335938 111.777344 245.933594 112.242188 C 245.53125 112.703125 245.328125 113.347656 245.328125 114.183594 C 245.328125 115.019531 245.53125 115.667969 245.933594 116.128906 C 246.335938 116.589844 246.902344 116.820312 247.632812 116.820312 C 247.957031 116.820312 248.28125 116.777344 248.597656 116.691406 C 248.917969 116.601562 249.234375 116.472656 249.554688 116.296875 L 249.554688 117.335938 C 249.238281 117.480469 248.914062 117.589844 248.578125 117.664062 C 248.246094 117.738281 247.886719 117.773438 247.507812 117.773438 C 246.480469 117.773438 245.660156 117.449219 245.054688 116.804688 C 244.449219 116.15625 244.144531 115.28125 244.144531 114.183594 C 244.144531 113.070312 244.453125 112.191406 245.0625 111.554688 C 245.675781 110.914062 246.515625 110.597656 247.582031 110.597656 C 247.929688 110.597656 248.265625 110.632812 248.59375 110.703125 C 248.925781 110.773438 249.242188 110.878906 249.554688 111.023438 Z M 249.554688 111.023438 "/>
<path style=" stroke:none;fill-rule:nonzero;fill:rgb(0%,0%,0%);fill-opacity:1;" d="M 256.425781 111.023438 L 256.425781 112.074219 C 256.109375 111.898438 255.789062 111.765625 255.472656 111.679688 C 255.152344 111.589844 254.828125 111.546875 254.503906 111.546875 C 253.773438 111.546875 253.207031 111.777344 252.804688 112.242188 C 252.402344 112.703125 252.203125 113.347656 252.203125 114.183594 C 252.203125 115.019531 252.402344 115.667969 252.804688 116.128906 C 253.207031 116.589844 253.773438 116.820312 254.503906 116.820312 C 254.828125 116.820312 255.152344 116.777344 255.472656 116.691406 C 255.789062 116.601562 256.109375 116.472656 256.425781 116.296875 L 256.425781 117.335938 C 256.113281 117.480469 255.789062 117.589844 255.453125 117.664062 C 255.117188 117.738281 254.761719 117.773438 254.382812 117.773438 C 253.351562 117.773438 252.53125 117.449219 251.925781 116.804688 C 251.320312 116.15625 251.019531 115.28125 251.019531 114.183594 C 251.019531 113.070312 251.324219 112.191406 251.9375 111.554688 C 252.550781 110.914062 253.390625 110.597656 254.457031 110.597656 C 254.800781 110.597656 255.136719 110.632812 255.46875 110.703125 C 255.796875 110.773438 256.117188 110.878906 256.425781 111.023438 Z M 256.425781 111.023438 "/>
</g>
</svg>
