<?xml version="1.0" encoding="UTF-8"?>
<svg xmlns="http://www.w3.org/2000/svg" xmlns:xlink="http://www.w3.org/1999/xlink" width="412pt" height="229pt" viewBox="0 0 412 229" version="1.1">
<defs>
<clipPath id="clip1">
  <path d="M 69 9 L 72 9 L 72 182.25 L 69 182.25 Z M 69 9 "/>
</clipPath>
<clipPath id="clip2">
  <path d="M 109 9 L 112 9 L 112 182.25 L 109 182.25 Z M 109 9 "/>
</clipPath>
<clipPath id="clip3">
  <path d="M 149 9 L 152 9 L 152 182.25 L 149 182.25 Z M 149 9 "/>
</clipPath>
<clipPath id="clip4">
  <path d="M 189 9 L 191 9 L 191 182.25 L 189 182.25 Z M 189 9 "/>
</clipPath>
<clipPath id="clip5">
  <path d="M 229 9 L 231 9 L 231 182.25 L 229 182.25 Z M 229 9 "/>
</clipPath>
<clipPath id="clip6">
  <path d="M 269 9 L 271 9 L 271 182.25 L 269 182.25 Z M 269 9 "/>
</clipPath>
<clipPath id="clip7">
  <path d="M 309 9 L 311 9 L 311 182.25 L 309 182.25 Z M 309 9 "/>
</clipPath>
<clipPath id="clip8">
  <path d="M 349 9 L 351 9 L 351 182.25 L 349 182.25 Z M 349 9 "/>
</clipPath>
<clipPath id="clip9">
  <path d="M 388 9 L 391 9 L 391 182.25 L 388 182.25 Z M 388 9 "/>
</clipPath>
<clipPath id="clip10">
  <path d="M 54.726562 173 L 403.476562 173 L 403.476562 176 L 54.726562 176 Z M 54.726562 173 "/>
</clipPath>
<clipPath id="clip11">
  <path d="M 54.726562 142 L 403.476562 142 L 403.476562 144 L 54.726562 144 Z M 54.726562 142 "/>
</clipPath>
<clipPath id="clip12">
  <path d="M 54.726562 110 L 403.476562 110 L 403.476562 113 L 54.726562 113 Z M 54.726562 110 "/>
</clipPath>
<clipPath id="clip13">
  <path d="M 54.726562 79 L 403.476562 79 L 403.476562 81 L 54.726562 81 Z M 54.726562 79 "/>
</clipPath>
<clipPath id="clip14">
  <path d="M 54.726562 47 L 403.476562 47 L 403.476562 50 L 54.726562 50 Z M 54.726562 47 "/>
</clipPath>
<clipPath id="clip15">
  <path d="M 54.726562 16 L 403.476562 16 L 403.476562 18 L 54.726562 18 Z M 54.726562 16 "/>
</clipPath>
</defs>
<g id="surface1">
<rect x="0" y="0" width="412" height="229" style="fill:rgb(100%,100%,100%);fill-opacity:1;stroke:none;"/>
<path style=" stroke:none;fill-rule:nonzero;fill:rgb(100%,100%,100%);fill-opacity:1;" d="M 54.726562 182.25 L 403.476562 182.25 L 403.476562 9 L 54.726562 9 Z M 54.726562 182.25 "/>
<g clip-path="url(#clip1)" clip-rule="nonzero">
<path style="fill:none;stroke-width:0.8;stroke-linecap:square;stroke-linejoin:round;stroke:rgb(69.019608%,69.019608%,69.019608%);stroke-opacity:1;stroke-miterlimit:4;" d="M 56.4625 145.8 L 56.4625 7.2 " transform="matrix(1.25,0,0,1.25,0,0)"/>
</g>
<path style="fill:none;stroke-width:0.8;stroke-linecap:butt;stroke-linejoin:round;stroke:rgb(0%,0%,0%);stroke-opacity:1;stroke-miterlimit:4;" d="M -0.000568 0 L -0.000568 3.5 " transform="matrix(1.25,0,0,1.25,70.578835,182.25)"/>
<path style=" stroke:none;fill-rule:nonzero;fill:rgb(0%,0%,0%);fill-opacity:1;" d="M 62.6875 196.0625 L 70.511719 196.0625 L 70.511719 197.097656 L 62.6875 197.097656 Z M 62.6875 196.0625 "/>
<path style=" stroke:none;fill-rule:nonzero;fill:rgb(0%,0%,0%);fill-opacity:1;" d="M 75.8125 196.171875 C 75.226562 196.171875 74.765625 196.328125 74.429688 196.640625 C 74.09375 196.953125 73.925781 197.386719 73.925781 197.933594 C 73.925781 198.484375 74.09375 198.914062 74.429688 199.230469 C 74.765625 199.542969 75.226562 199.699219 75.8125 199.699219 C 76.398438 199.699219 76.859375 199.542969 77.195312 199.226562 C 77.535156 198.910156 77.703125 198.480469 77.703125 197.933594 C 77.703125 197.386719 77.535156 196.953125 77.199219 196.640625 C 76.867188 196.328125 76.402344 196.171875 75.8125 196.171875 Z M 74.578125 195.648438 C 74.050781 195.515625 73.636719 195.269531 73.34375 194.910156 C 73.046875 194.546875 72.902344 194.101562 72.902344 193.582031 C 72.902344 192.855469 73.160156 192.277344 73.679688 191.855469 C 74.199219 191.433594 74.910156 191.222656 75.8125 191.222656 C 76.71875 191.222656 77.429688 191.433594 77.949219 191.855469 C 78.464844 192.277344 78.722656 192.855469 78.722656 193.582031 C 78.722656 194.101562 78.574219 194.546875 78.28125 194.910156 C 77.984375 195.269531 77.578125 195.515625 77.050781 195.648438 C 77.644531 195.785156 78.109375 196.054688 78.4375 196.460938 C 78.769531 196.863281 78.9375 197.351562 78.9375 197.933594 C 78.9375 198.816406 78.667969 199.496094 78.128906 199.96875 C 77.589844 200.441406 76.816406 200.675781 75.8125 200.675781 C 74.808594 200.675781 74.035156 200.441406 73.496094 199.96875 C 72.957031 199.496094 72.6875 198.816406 72.6875 197.933594 C 72.6875 197.351562 72.851562 196.863281 73.1875 196.460938 C 73.519531 196.054688 73.984375 195.785156 74.578125 195.648438 Z M 74.128906 193.699219 C 74.128906 194.171875 74.273438 194.539062 74.570312 194.804688 C 74.863281 195.066406 75.277344 195.199219 75.8125 195.199219 C 76.339844 195.199219 76.753906 195.066406 77.054688 194.804688 C 77.351562 194.539062 77.503906 194.171875 77.503906 193.699219 C 77.503906 193.226562 77.351562 192.859375 77.054688 192.59375 C 76.753906 192.328125 76.339844 192.199219 75.8125 192.199219 C 75.277344 192.199219 74.863281 192.328125 74.570312 192.59375 C 74.273438 192.859375 74.128906 193.226562 74.128906 193.699219 Z M 74.128906 193.699219 "/>
<g clip-path="url(#clip2)" clip-rule="nonzero">
<path style="fill:none;stroke-width:0.8;stroke-linecap:square;stroke-linejoin:round;stroke:rgb(69.019608%,69.019608%,69.019608%);stroke-opacity:1;stroke-miterlimit:4;" d="M 88.365625 145.8 L 88.365625 7.2 " transform="matrix(1.25,0,0,1.25,0,0)"/>
</g>
<path style="fill:none;stroke-width:0.8;stroke-linecap:butt;stroke-linejoin:round;stroke:rgb(0%,0%,0%);stroke-opacity:1;stroke-miterlimit:4;" d="M -0.001389 0 L -0.001389 3.5 " transform="matrix(1.25,0,0,1.25,110.458767,182.25)"/>
<path style=" stroke:none;fill-rule:nonzero;fill:rgb(0%,0%,0%);fill-opacity:1;" d="M 102.570312 196.0625 L 110.394531 196.0625 L 110.394531 197.097656 L 102.570312 197.097656 Z M 102.570312 196.0625 "/>
<path style=" stroke:none;fill-rule:nonzero;fill:rgb(0%,0%,0%);fill-opacity:1;" d="M 115.84375 195.453125 C 115.292969 195.453125 114.851562 195.640625 114.527344 196.019531 C 114.207031 196.398438 114.042969 196.914062 114.042969 197.574219 C 114.042969 198.230469 114.207031 198.746094 114.527344 199.128906 C 114.851562 199.507812 115.292969 199.699219 115.84375 199.699219 C 116.398438 199.699219 116.835938 199.507812 117.160156 199.128906 C 117.484375 198.746094 117.644531 198.230469 117.644531 197.574219 C 117.644531 196.914062 117.484375 196.398438 117.160156 196.019531 C 116.835938 195.640625 116.398438 195.453125 115.84375 195.453125 Z M 118.292969 191.585938 L 118.292969 192.710938 C 117.984375 192.5625 117.671875 192.453125 117.355469 192.375 C 117.039062 192.296875 116.726562 192.257812 116.417969 192.257812 C 115.605469 192.257812 114.980469 192.53125 114.550781 193.082031 C 114.125 193.632812 113.878906 194.460938 113.816406 195.574219 C 114.058594 195.21875 114.359375 194.945312 114.71875 194.757812 C 115.082031 194.570312 115.484375 194.476562 115.917969 194.476562 C 116.832031 194.476562 117.554688 194.753906 118.085938 195.308594 C 118.617188 195.863281 118.882812 196.617188 118.882812 197.574219 C 118.882812 198.511719 118.609375 199.261719 118.054688 199.828125 C 117.5 200.394531 116.765625 200.675781 115.84375 200.675781 C 114.789062 200.675781 113.984375 200.273438 113.425781 199.464844 C 112.871094 198.65625 112.589844 197.484375 112.589844 195.953125 C 112.589844 194.511719 112.933594 193.363281 113.617188 192.507812 C 114.300781 191.648438 115.21875 191.222656 116.367188 191.222656 C 116.679688 191.222656 116.992188 191.25 117.304688 191.3125 C 117.621094 191.375 117.949219 191.464844 118.292969 191.585938 Z M 118.292969 191.585938 "/>
<g clip-path="url(#clip3)" clip-rule="nonzero">
<path style="fill:none;stroke-width:0.8;stroke-linecap:square;stroke-linejoin:round;stroke:rgb(69.019608%,69.019608%,69.019608%);stroke-opacity:1;stroke-miterlimit:4;" d="M 120.271875 145.8 L 120.271875 7.2 " transform="matrix(1.25,0,0,1.25,0,0)"/>
</g>
<path style="fill:none;stroke-width:0.8;stroke-linecap:butt;stroke-linejoin:round;stroke:rgb(0%,0%,0%);stroke-opacity:1;stroke-miterlimit:4;" d="M 0.000915 0 L 0.000915 3.5 " transform="matrix(1.25,0,0,1.25,150.3387,182.25)"/>
<path style=" stroke:none;fill-rule:nonzero;fill:rgb(0%,0%,0%);fill-opacity:1;" d="M 142.449219 196.0625 L 150.273438 196.0625 L 150.273438 197.097656 L 142.449219 197.097656 Z M 142.449219 196.0625 "/>
<path style=" stroke:none;fill-rule:nonzero;fill:rgb(0%,0%,0%);fill-opacity:1;" d="M 156.324219 192.460938 L 153.210938 197.324219 L 156.324219 197.324219 Z M 156 191.386719 L 157.550781 191.386719 L 157.550781 197.324219 L 158.851562 197.324219 L 158.851562 198.351562 L 157.550781 198.351562 L 157.550781 200.5 L 156.324219 200.5 L 156.324219 198.351562 L 152.210938 198.351562 L 152.210938 197.160156 Z M 156 191.386719 "/>
<g clip-path="url(#clip4)" clip-rule="nonzero">
<path style="fill:none;stroke-width:0.8;stroke-linecap:square;stroke-linejoin:round;stroke:rgb(69.019608%,69.019608%,69.019608%);stroke-opacity:1;stroke-miterlimit:4;" d="M 152.175 145.8 L 152.175 7.2 " transform="matrix(1.25,0,0,1.25,0,0)"/>
</g>
<path style="fill:none;stroke-width:0.8;stroke-linecap:butt;stroke-linejoin:round;stroke:rgb(0%,0%,0%);stroke-opacity:1;stroke-miterlimit:4;" d="M 0.000094 0 L 0.000094 3.5 " transform="matrix(1.25,0,0,1.25,190.218632,182.25)"/>
<path style=" stroke:none;fill-rule:nonzero;fill:rgb(0%,0%,0%);fill-opacity:1;" d="M 182.328125 196.0625 L 190.152344 196.0625 L 190.152344 197.097656 L 182.328125 197.097656 Z M 182.328125 196.0625 "/>
<path style=" stroke:none;fill-rule:nonzero;fill:rgb(0%,0%,0%);fill-opacity:1;" d="M 193.875 199.460938 L 198.179688 199.460938 L 198.179688 200.5 L 192.394531 200.5 L 192.394531 199.460938 C 192.863281 198.976562 193.5 198.328125 194.304688 197.511719 C 195.113281 196.695312 195.621094 196.167969 195.828125 195.933594 C 196.222656 195.488281 196.5 195.113281 196.65625 194.808594 C 196.8125 194.5 196.890625 194.199219 196.890625 193.902344 C 196.890625 193.417969 196.722656 193.023438 196.382812 192.71875 C 196.042969 192.410156 195.601562 192.257812 195.054688 192.257812 C 194.667969 192.257812 194.257812 192.324219 193.828125 192.460938 C 193.402344 192.59375 192.941406 192.796875 192.453125 193.070312 L 192.453125 191.824219 C 192.949219 191.625 193.414062 191.476562 193.84375 191.375 C 194.277344 191.273438 194.671875 191.222656 195.03125 191.222656 C 195.976562 191.222656 196.726562 191.457031 197.289062 191.929688 C 197.851562 192.402344 198.128906 193.03125 198.128906 193.820312 C 198.128906 194.195312 198.058594 194.550781 197.917969 194.886719 C 197.78125 195.222656 197.523438 195.617188 197.152344 196.074219 C 197.050781 196.191406 196.730469 196.53125 196.183594 197.097656 C 195.640625 197.660156 194.871094 198.449219 193.875 199.460938 Z M 193.875 199.460938 "/>
<g clip-path="url(#clip5)" clip-rule="nonzero">
<path style="fill:none;stroke-width:0.8;stroke-linecap:square;stroke-linejoin:round;stroke:rgb(69.019608%,69.019608%,69.019608%);stroke-opacity:1;stroke-miterlimit:4;" d="M 184.078125 145.8 L 184.078125 7.2 " transform="matrix(1.25,0,0,1.25,0,0)"/>
</g>
<path style="fill:none;stroke-width:0.8;stroke-linecap:butt;stroke-linejoin:round;stroke:rgb(0%,0%,0%);stroke-opacity:1;stroke-miterlimit:4;" d="M -0.000727 0 L -0.000727 3.5 " transform="matrix(1.25,0,0,1.25,230.098565,182.25)"/>
<path style=" stroke:none;fill-rule:nonzero;fill:rgb(0%,0%,0%);fill-opacity:1;" d="M 230.09375 192.199219 C 229.460938 192.199219 228.984375 192.511719 228.664062 193.136719 C 228.34375 193.757812 228.183594 194.699219 228.183594 195.953125 C 228.183594 197.199219 228.34375 198.136719 228.664062 198.761719 C 228.984375 199.386719 229.460938 199.699219 230.09375 199.699219 C 230.734375 199.699219 231.214844 199.386719 231.53125 198.761719 C 231.851562 198.136719 232.011719 197.199219 232.011719 195.953125 C 232.011719 194.699219 231.851562 193.757812 231.53125 193.136719 C 231.214844 192.511719 230.734375 192.199219 230.09375 192.199219 Z M 230.09375 191.222656 C 231.117188 191.222656 231.898438 191.625 232.4375 192.433594 C 232.976562 193.242188 233.246094 194.414062 233.246094 195.953125 C 233.246094 197.484375 232.976562 198.65625 232.4375 199.464844 C 231.898438 200.273438 231.117188 200.675781 230.09375 200.675781 C 229.074219 200.675781 228.292969 200.273438 227.753906 199.464844 C 227.214844 198.65625 226.945312 197.484375 226.945312 195.953125 C 226.945312 194.414062 227.214844 193.242188 227.753906 192.433594 C 228.292969 191.625 229.074219 191.222656 230.09375 191.222656 Z M 230.09375 191.222656 "/>
<g clip-path="url(#clip6)" clip-rule="nonzero">
<path style="fill:none;stroke-width:0.8;stroke-linecap:square;stroke-linejoin:round;stroke:rgb(69.019608%,69.019608%,69.019608%);stroke-opacity:1;stroke-miterlimit:4;" d="M 215.98125 145.8 L 215.98125 7.2 " transform="matrix(1.25,0,0,1.25,0,0)"/>
</g>
<path style="fill:none;stroke-width:0.8;stroke-linecap:butt;stroke-linejoin:round;stroke:rgb(0%,0%,0%);stroke-opacity:1;stroke-miterlimit:4;" d="M -0.001548 0 L -0.001548 3.5 " transform="matrix(1.25,0,0,1.25,269.978498,182.25)"/>
<path style=" stroke:none;fill-rule:nonzero;fill:rgb(0%,0%,0%);fill-opacity:1;" d="M 268.398438 199.460938 L 272.703125 199.460938 L 272.703125 200.5 L 266.917969 200.5 L 266.917969 199.460938 C 267.386719 198.976562 268.023438 198.328125 268.828125 197.511719 C 269.636719 196.695312 270.144531 196.167969 270.351562 195.933594 C 270.746094 195.488281 271.023438 195.113281 271.179688 194.808594 C 271.335938 194.5 271.414062 194.199219 271.414062 193.902344 C 271.414062 193.417969 271.246094 193.023438 270.90625 192.71875 C 270.566406 192.410156 270.125 192.257812 269.578125 192.257812 C 269.191406 192.257812 268.78125 192.324219 268.351562 192.460938 C 267.925781 192.59375 267.464844 192.796875 266.976562 193.070312 L 266.976562 191.824219 C 267.472656 191.625 267.9375 191.476562 268.367188 191.375 C 268.800781 191.273438 269.195312 191.222656 269.554688 191.222656 C 270.5 191.222656 271.25 191.457031 271.8125 191.929688 C 272.375 192.402344 272.652344 193.03125 272.652344 193.820312 C 272.652344 194.195312 272.582031 194.550781 272.441406 194.886719 C 272.304688 195.222656 272.046875 195.617188 271.675781 196.074219 C 271.574219 196.191406 271.253906 196.53125 270.707031 197.097656 C 270.164062 197.660156 269.394531 198.449219 268.398438 199.460938 Z M 268.398438 199.460938 "/>
<g clip-path="url(#clip7)" clip-rule="nonzero">
<path style="fill:none;stroke-width:0.8;stroke-linecap:square;stroke-linejoin:round;stroke:rgb(69.019608%,69.019608%,69.019608%);stroke-opacity:1;stroke-miterlimit:4;" d="M 247.8875 145.8 L 247.8875 7.2 " transform="matrix(1.25,0,0,1.25,0,0)"/>
</g>
<path style="fill:none;stroke-width:0.8;stroke-linecap:butt;stroke-linejoin:round;stroke:rgb(0%,0%,0%);stroke-opacity:1;stroke-miterlimit:4;" d="M 0.000757 0 L 0.000757 3.5 " transform="matrix(1.25,0,0,1.25,309.858429,182.25)"/>
<path style=" stroke:none;fill-rule:nonzero;fill:rgb(0%,0%,0%);fill-opacity:1;" d="M 310.605469 192.460938 L 307.492188 197.324219 L 310.605469 197.324219 Z M 310.28125 191.386719 L 311.832031 191.386719 L 311.832031 197.324219 L 313.132812 197.324219 L 313.132812 198.351562 L 311.832031 198.351562 L 311.832031 200.5 L 310.605469 200.5 L 310.605469 198.351562 L 306.492188 198.351562 L 306.492188 197.160156 Z M 310.28125 191.386719 "/>
<g clip-path="url(#clip8)" clip-rule="nonzero">
<path style="fill:none;stroke-width:0.8;stroke-linecap:square;stroke-linejoin:round;stroke:rgb(69.019608%,69.019608%,69.019608%);stroke-opacity:1;stroke-miterlimit:4;" d="M 279.790625 145.8 L 279.790625 7.2 " transform="matrix(1.25,0,0,1.25,0,0)"/>
</g>
<path style="fill:none;stroke-width:0.8;stroke-linecap:butt;stroke-linejoin:round;stroke:rgb(0%,0%,0%);stroke-opacity:1;stroke-miterlimit:4;" d="M -0.000064 0 L -0.000064 3.5 " transform="matrix(1.25,0,0,1.25,349.738361,182.25)"/>
<path style=" stroke:none;fill-rule:nonzero;fill:rgb(0%,0%,0%);fill-opacity:1;" d="M 349.890625 195.453125 C 349.335938 195.453125 348.898438 195.640625 348.574219 196.019531 C 348.25 196.398438 348.089844 196.914062 348.089844 197.574219 C 348.089844 198.230469 348.25 198.746094 348.574219 199.128906 C 348.898438 199.507812 349.335938 199.699219 349.890625 199.699219 C 350.441406 199.699219 350.878906 199.507812 351.203125 199.128906 C 351.527344 198.746094 351.6875 198.230469 351.6875 197.574219 C 351.6875 196.914062 351.527344 196.398438 351.203125 196.019531 C 350.878906 195.640625 350.441406 195.453125 349.890625 195.453125 Z M 352.335938 191.585938 L 352.335938 192.710938 C 352.027344 192.5625 351.714844 192.453125 351.398438 192.375 C 351.082031 192.296875 350.769531 192.257812 350.460938 192.257812 C 349.648438 192.257812 349.027344 192.53125 348.597656 193.082031 C 348.167969 193.632812 347.921875 194.460938 347.863281 195.574219 C 348.101562 195.21875 348.402344 194.945312 348.765625 194.757812 C 349.128906 194.570312 349.527344 194.476562 349.960938 194.476562 C 350.875 194.476562 351.601562 194.753906 352.132812 195.308594 C 352.664062 195.863281 352.929688 196.617188 352.929688 197.574219 C 352.929688 198.511719 352.652344 199.261719 352.097656 199.828125 C 351.542969 200.394531 350.808594 200.675781 349.890625 200.675781 C 348.835938 200.675781 348.027344 200.273438 347.472656 199.464844 C 346.914062 198.65625 346.636719 197.484375 346.636719 195.953125 C 346.636719 194.511719 346.976562 193.363281 347.660156 192.507812 C 348.34375 191.648438 349.261719 191.222656 350.414062 191.222656 C 350.722656 191.222656 351.035156 191.25 351.351562 191.3125 C 351.664062 191.375 351.992188 191.464844 352.335938 191.585938 Z M 352.335938 191.585938 "/>
<g clip-path="url(#clip9)" clip-rule="nonzero">
<path style="fill:none;stroke-width:0.8;stroke-linecap:square;stroke-linejoin:round;stroke:rgb(69.019608%,69.019608%,69.019608%);stroke-opacity:1;stroke-miterlimit:4;" d="M 311.69375 145.8 L 311.69375 7.2 " transform="matrix(1.25,0,0,1.25,0,0)"/>
</g>
<path style="fill:none;stroke-width:0.8;stroke-linecap:butt;stroke-linejoin:round;stroke:rgb(0%,0%,0%);stroke-opacity:1;stroke-miterlimit:4;" d="M -0.000885 0 L -0.000885 3.5 " transform="matrix(1.25,0,0,1.25,389.618294,182.25)"/>
<path style=" stroke:none;fill-rule:nonzero;fill:rgb(0%,0%,0%);fill-opacity:1;" d="M 389.613281 196.171875 C 389.027344 196.171875 388.566406 196.328125 388.230469 196.640625 C 387.898438 196.953125 387.730469 197.386719 387.730469 197.933594 C 387.730469 198.484375 387.898438 198.914062 388.230469 199.230469 C 388.566406 199.542969 389.027344 199.699219 389.613281 199.699219 C 390.199219 199.699219 390.660156 199.542969 391 199.226562 C 391.335938 198.910156 391.507812 198.480469 391.507812 197.933594 C 391.507812 197.386719 391.339844 196.953125 391.003906 196.640625 C 390.667969 196.328125 390.207031 196.171875 389.613281 196.171875 Z M 388.382812 195.648438 C 387.851562 195.515625 387.441406 195.269531 387.144531 194.910156 C 386.851562 194.546875 386.703125 194.101562 386.703125 193.582031 C 386.703125 192.855469 386.964844 192.277344 387.480469 191.855469 C 388 191.433594 388.710938 191.222656 389.613281 191.222656 C 390.523438 191.222656 391.234375 191.433594 391.75 191.855469 C 392.269531 192.277344 392.527344 192.855469 392.527344 193.582031 C 392.527344 194.101562 392.378906 194.546875 392.082031 194.910156 C 391.789062 195.269531 391.378906 195.515625 390.855469 195.648438 C 391.449219 195.785156 391.910156 196.054688 392.242188 196.460938 C 392.574219 196.863281 392.738281 197.351562 392.738281 197.933594 C 392.738281 198.816406 392.46875 199.496094 391.929688 199.96875 C 391.390625 200.441406 390.621094 200.675781 389.613281 200.675781 C 388.609375 200.675781 387.839844 200.441406 387.296875 199.96875 C 386.757812 199.496094 386.488281 198.816406 386.488281 197.933594 C 386.488281 197.351562 386.65625 196.863281 386.988281 196.460938 C 387.324219 196.054688 387.789062 195.785156 388.382812 195.648438 Z M 387.929688 193.699219 C 387.929688 194.171875 388.078125 194.539062 388.371094 194.804688 C 388.667969 195.066406 389.082031 195.199219 389.613281 195.199219 C 390.144531 195.199219 390.558594 195.066406 390.855469 194.804688 C 391.15625 194.539062 391.304688 194.171875 391.304688 193.699219 C 391.304688 193.226562 391.15625 192.859375 390.855469 192.59375 C 390.558594 192.328125 390.144531 192.199219 389.613281 192.199219 C 389.082031 192.199219 388.667969 192.328125 388.371094 192.59375 C 388.078125 192.859375 387.929688 193.226562 387.929688 193.699219 Z M 387.929688 193.699219 "/>
<path style=" stroke:none;fill-rule:nonzero;fill:rgb(0%,0%,0%);fill-opacity:1;" d="M 232.265625 210.761719 L 229.789062 214.085938 L 232.390625 217.597656 L 231.066406 217.597656 L 229.078125 214.910156 L 227.085938 217.597656 L 225.761719 217.597656 L 228.417969 214.019531 L 225.988281 210.761719 L 227.3125 210.761719 L 229.125 213.195312 L 230.9375 210.761719 Z M 232.265625 210.761719 "/>
<g clip-path="url(#clip10)" clip-rule="nonzero">
<path style="fill:none;stroke-width:0.8;stroke-linecap:square;stroke-linejoin:round;stroke:rgb(69.019608%,69.019608%,69.019608%);stroke-opacity:1;stroke-miterlimit:4;" d="M 43.78125 139.5 L 322.78125 139.5 " transform="matrix(1.25,0,0,1.25,0,0)"/>
</g>
<path style="fill:none;stroke-width:0.8;stroke-linecap:butt;stroke-linejoin:round;stroke:rgb(0%,0%,0%);stroke-opacity:1;stroke-miterlimit:4;" d="M 0 0 L -3.5 0 " transform="matrix(1.25,0,0,1.25,54.726562,174.375)"/>
<path style=" stroke:none;fill-rule:nonzero;fill:rgb(0%,0%,0%);fill-opacity:1;" d="M 30.070312 170.824219 C 29.4375 170.824219 28.960938 171.136719 28.640625 171.761719 C 28.320312 172.382812 28.160156 173.324219 28.160156 174.578125 C 28.160156 175.824219 28.320312 176.761719 28.640625 177.386719 C 28.960938 178.011719 29.4375 178.324219 30.070312 178.324219 C 30.710938 178.324219 31.1875 178.011719 31.507812 177.386719 C 31.828125 176.761719 31.988281 175.824219 31.988281 174.578125 C 31.988281 173.324219 31.828125 172.382812 31.507812 171.761719 C 31.1875 171.136719 30.710938 170.824219 30.070312 170.824219 Z M 30.070312 169.847656 C 31.09375 169.847656 31.875 170.25 32.414062 171.058594 C 32.953125 171.867188 33.21875 173.039062 33.21875 174.578125 C 33.21875 176.109375 32.953125 177.28125 32.414062 178.089844 C 31.875 178.898438 31.09375 179.300781 30.070312 179.300781 C 29.050781 179.300781 28.269531 178.898438 27.730469 178.089844 C 27.191406 177.28125 26.921875 176.109375 26.921875 174.578125 C 26.921875 173.039062 27.191406 171.867188 27.730469 171.058594 C 28.269531 170.25 29.050781 169.847656 30.070312 169.847656 Z M 30.070312 169.847656 "/>
<path style=" stroke:none;fill-rule:nonzero;fill:rgb(0%,0%,0%);fill-opacity:1;" d="M 35.386719 177.574219 L 36.675781 177.574219 L 36.675781 179.125 L 35.386719 179.125 Z M 35.386719 177.574219 "/>
<path style=" stroke:none;fill-rule:nonzero;fill:rgb(0%,0%,0%);fill-opacity:1;" d="M 41.996094 170.824219 C 41.363281 170.824219 40.886719 171.136719 40.566406 171.761719 C 40.246094 172.382812 40.085938 173.324219 40.085938 174.578125 C 40.085938 175.824219 40.246094 176.761719 40.566406 177.386719 C 40.886719 178.011719 41.363281 178.324219 41.996094 178.324219 C 42.636719 178.324219 43.113281 178.011719 43.433594 177.386719 C 43.753906 176.761719 43.914062 175.824219 43.914062 174.578125 C 43.914062 173.324219 43.753906 172.382812 43.433594 171.761719 C 43.113281 171.136719 42.636719 170.824219 41.996094 170.824219 Z M 41.996094 169.847656 C 43.019531 169.847656 43.800781 170.25 44.339844 171.058594 C 44.878906 171.867188 45.148438 173.039062 45.148438 174.578125 C 45.148438 176.109375 44.878906 177.28125 44.339844 178.089844 C 43.800781 178.898438 43.019531 179.300781 41.996094 179.300781 C 40.976562 179.300781 40.195312 178.898438 39.65625 178.089844 C 39.117188 177.28125 38.847656 176.109375 38.847656 174.578125 C 38.847656 173.039062 39.117188 171.867188 39.65625 171.058594 C 40.195312 170.25 40.976562 169.847656 41.996094 169.847656 Z M 41.996094 169.847656 "/>
<g clip-path="url(#clip11)" clip-rule="nonzero">
<path style="fill:none;stroke-width:0.8;stroke-linecap:square;stroke-linejoin:round;stroke:rgb(69.019608%,69.019608%,69.019608%);stroke-opacity:1;stroke-miterlimit:4;" d="M 43.78125 114.3 L 322.78125 114.3 " transform="matrix(1.25,0,0,1.25,0,0)"/>
</g>
<path style="fill:none;stroke-width:0.8;stroke-linecap:butt;stroke-linejoin:round;stroke:rgb(0%,0%,0%);stroke-opacity:1;stroke-miterlimit:4;" d="M 0 0 L -3.5 0 " transform="matrix(1.25,0,0,1.25,54.726562,142.875)"/>
<path style=" stroke:none;fill-rule:nonzero;fill:rgb(0%,0%,0%);fill-opacity:1;" d="M 30.070312 139.324219 C 29.4375 139.324219 28.960938 139.636719 28.640625 140.261719 C 28.320312 140.882812 28.160156 141.824219 28.160156 143.078125 C 28.160156 144.324219 28.320312 145.261719 28.640625 145.886719 C 28.960938 146.511719 29.4375 146.824219 30.070312 146.824219 C 30.710938 146.824219 31.1875 146.511719 31.507812 145.886719 C 31.828125 145.261719 31.988281 144.324219 31.988281 143.078125 C 31.988281 141.824219 31.828125 140.882812 31.507812 140.261719 C 31.1875 139.636719 30.710938 139.324219 30.070312 139.324219 Z M 30.070312 138.347656 C 31.09375 138.347656 31.875 138.75 32.414062 139.558594 C 32.953125 140.367188 33.21875 141.539062 33.21875 143.078125 C 33.21875 144.609375 32.953125 145.78125 32.414062 146.589844 C 31.875 147.398438 31.09375 147.800781 30.070312 147.800781 C 29.050781 147.800781 28.269531 147.398438 27.730469 146.589844 C 27.191406 145.78125 26.921875 144.609375 26.921875 143.078125 C 26.921875 141.539062 27.191406 140.367188 27.730469 139.558594 C 28.269531 138.75 29.050781 138.347656 30.070312 138.347656 Z M 30.070312 138.347656 "/>
<path style=" stroke:none;fill-rule:nonzero;fill:rgb(0%,0%,0%);fill-opacity:1;" d="M 35.386719 146.074219 L 36.675781 146.074219 L 36.675781 147.625 L 35.386719 147.625 Z M 35.386719 146.074219 "/>
<path style=" stroke:none;fill-rule:nonzero;fill:rgb(0%,0%,0%);fill-opacity:1;" d="M 40.421875 146.585938 L 44.726562 146.585938 L 44.726562 147.625 L 38.941406 147.625 L 38.941406 146.585938 C 39.40625 146.101562 40.042969 145.453125 40.851562 144.636719 C 41.660156 143.820312 42.167969 143.292969 42.375 143.058594 C 42.769531 142.613281 43.046875 142.238281 43.203125 141.933594 C 43.359375 141.625 43.4375 141.324219 43.4375 141.027344 C 43.4375 140.542969 43.269531 140.148438 42.929688 139.84375 C 42.589844 139.535156 42.144531 139.382812 41.601562 139.382812 C 41.214844 139.382812 40.804688 139.449219 40.375 139.585938 C 39.945312 139.71875 39.488281 139.921875 39 140.195312 L 39 138.949219 C 39.496094 138.75 39.960938 138.601562 40.390625 138.5 C 40.824219 138.398438 41.21875 138.347656 41.578125 138.347656 C 42.519531 138.347656 43.273438 138.582031 43.835938 139.054688 C 44.394531 139.527344 44.675781 140.15625 44.675781 140.945312 C 44.675781 141.320312 44.605469 141.675781 44.464844 142.011719 C 44.324219 142.347656 44.070312 142.742188 43.699219 143.199219 C 43.597656 143.316406 43.273438 143.65625 42.730469 144.222656 C 42.183594 144.785156 41.414062 145.574219 40.421875 146.585938 Z M 40.421875 146.585938 "/>
<g clip-path="url(#clip12)" clip-rule="nonzero">
<path style="fill:none;stroke-width:0.8;stroke-linecap:square;stroke-linejoin:round;stroke:rgb(69.019608%,69.019608%,69.019608%);stroke-opacity:1;stroke-miterlimit:4;" d="M 43.78125 89.1 L 322.78125 89.1 " transform="matrix(1.25,0,0,1.25,0,0)"/>
</g>
<path style="fill:none;stroke-width:0.8;stroke-linecap:butt;stroke-linejoin:round;stroke:rgb(0%,0%,0%);stroke-opacity:1;stroke-miterlimit:4;" d="M 0 0 L -3.5 0 " transform="matrix(1.25,0,0,1.25,54.726562,111.375)"/>
<path style=" stroke:none;fill-rule:nonzero;fill:rgb(0%,0%,0%);fill-opacity:1;" d="M 30.070312 107.824219 C 29.4375 107.824219 28.960938 108.136719 28.640625 108.761719 C 28.320312 109.382812 28.160156 110.324219 28.160156 111.578125 C 28.160156 112.824219 28.320312 113.761719 28.640625 114.386719 C 28.960938 115.011719 29.4375 115.324219 30.070312 115.324219 C 30.710938 115.324219 31.1875 115.011719 31.507812 114.386719 C 31.828125 113.761719 31.988281 112.824219 31.988281 111.578125 C 31.988281 110.324219 31.828125 109.382812 31.507812 108.761719 C 31.1875 108.136719 30.710938 107.824219 30.070312 107.824219 Z M 30.070312 106.847656 C 31.09375 106.847656 31.875 107.25 32.414062 108.058594 C 32.953125 108.867188 33.21875 110.039062 33.21875 111.578125 C 33.21875 113.109375 32.953125 114.28125 32.414062 115.089844 C 31.875 115.898438 31.09375 116.300781 30.070312 116.300781 C 29.050781 116.300781 28.269531 115.898438 27.730469 115.089844 C 27.191406 114.28125 26.921875 113.109375 26.921875 111.578125 C 26.921875 110.039062 27.191406 108.867188 27.730469 108.058594 C 28.269531 107.25 29.050781 106.847656 30.070312 106.847656 Z M 30.070312 106.847656 "/>
<path style=" stroke:none;fill-rule:nonzero;fill:rgb(0%,0%,0%);fill-opacity:1;" d="M 35.386719 114.574219 L 36.675781 114.574219 L 36.675781 116.125 L 35.386719 116.125 Z M 35.386719 114.574219 "/>
<path style=" stroke:none;fill-rule:nonzero;fill:rgb(0%,0%,0%);fill-opacity:1;" d="M 42.75 108.085938 L 39.636719 112.949219 L 42.75 112.949219 Z M 42.425781 107.011719 L 43.976562 107.011719 L 43.976562 112.949219 L 45.277344 112.949219 L 45.277344 113.976562 L 43.976562 113.976562 L 43.976562 116.125 L 42.75 116.125 L 42.75 113.976562 L 38.636719 113.976562 L 38.636719 112.785156 Z M 42.425781 107.011719 "/>
<g clip-path="url(#clip13)" clip-rule="nonzero">
<path style="fill:none;stroke-width:0.8;stroke-linecap:square;stroke-linejoin:round;stroke:rgb(69.019608%,69.019608%,69.019608%);stroke-opacity:1;stroke-miterlimit:4;" d="M 43.78125 63.9 L 322.78125 63.9 " transform="matrix(1.25,0,0,1.25,0,0)"/>
</g>
<path style="fill:none;stroke-width:0.8;stroke-linecap:butt;stroke-linejoin:round;stroke:rgb(0%,0%,0%);stroke-opacity:1;stroke-miterlimit:4;" d="M 0 0 L -3.5 0 " transform="matrix(1.25,0,0,1.25,54.726562,79.875)"/>
<path style=" stroke:none;fill-rule:nonzero;fill:rgb(0%,0%,0%);fill-opacity:1;" d="M 30.070312 76.324219 C 29.4375 76.324219 28.960938 76.636719 28.640625 77.261719 C 28.320312 77.882812 28.160156 78.824219 28.160156 80.078125 C 28.160156 81.324219 28.320312 82.261719 28.640625 82.886719 C 28.960938 83.511719 29.4375 83.824219 30.070312 83.824219 C 30.710938 83.824219 31.1875 83.511719 31.507812 82.886719 C 31.828125 82.261719 31.988281 81.324219 31.988281 80.078125 C 31.988281 78.824219 31.828125 77.882812 31.507812 77.261719 C 31.1875 76.636719 30.710938 76.324219 30.070312 76.324219 Z M 30.070312 75.347656 C 31.09375 75.347656 31.875 75.75 32.414062 76.558594 C 32.953125 77.367188 33.21875 78.539062 33.21875 80.078125 C 33.21875 81.609375 32.953125 82.78125 32.414062 83.589844 C 31.875 84.398438 31.09375 84.800781 30.070312 84.800781 C 29.050781 84.800781 28.269531 84.398438 27.730469 83.589844 C 27.191406 82.78125 26.921875 81.609375 26.921875 80.078125 C 26.921875 78.539062 27.191406 77.367188 27.730469 76.558594 C 28.269531 75.75 29.050781 75.347656 30.070312 75.347656 Z M 30.070312 75.347656 "/>
<path style=" stroke:none;fill-rule:nonzero;fill:rgb(0%,0%,0%);fill-opacity:1;" d="M 35.386719 83.074219 L 36.675781 83.074219 L 36.675781 84.625 L 35.386719 84.625 Z M 35.386719 83.074219 "/>
<path style=" stroke:none;fill-rule:nonzero;fill:rgb(0%,0%,0%);fill-opacity:1;" d="M 42.152344 79.578125 C 41.597656 79.578125 41.160156 79.765625 40.835938 80.144531 C 40.511719 80.523438 40.351562 81.042969 40.351562 81.699219 C 40.351562 82.355469 40.511719 82.875 40.835938 83.253906 C 41.160156 83.636719 41.597656 83.824219 42.152344 83.824219 C 42.703125 83.824219 43.140625 83.636719 43.464844 83.253906 C 43.789062 82.875 43.949219 82.355469 43.949219 81.699219 C 43.949219 81.042969 43.789062 80.523438 43.464844 80.144531 C 43.140625 79.765625 42.703125 79.578125 42.152344 79.578125 Z M 44.597656 75.710938 L 44.597656 76.835938 C 44.289062 76.6875 43.976562 76.578125 43.660156 76.5 C 43.34375 76.421875 43.03125 76.382812 42.722656 76.382812 C 41.910156 76.382812 41.289062 76.660156 40.859375 77.207031 C 40.429688 77.757812 40.183594 78.585938 40.125 79.699219 C 40.363281 79.34375 40.664062 79.074219 41.027344 78.882812 C 41.390625 78.695312 41.789062 78.601562 42.222656 78.601562 C 43.136719 78.601562 43.863281 78.878906 44.394531 79.433594 C 44.925781 79.988281 45.191406 80.746094 45.191406 81.699219 C 45.191406 82.636719 44.914062 83.386719 44.359375 83.953125 C 43.804688 84.519531 43.070312 84.800781 42.152344 84.800781 C 41.097656 84.800781 40.289062 84.398438 39.734375 83.589844 C 39.175781 82.78125 38.898438 81.609375 38.898438 80.078125 C 38.898438 78.636719 39.238281 77.488281 39.921875 76.632812 C 40.605469 75.773438 41.523438 75.347656 42.675781 75.347656 C 42.984375 75.347656 43.296875 75.378906 43.613281 75.4375 C 43.925781 75.5 44.253906 75.589844 44.597656 75.710938 Z M 44.597656 75.710938 "/>
<g clip-path="url(#clip14)" clip-rule="nonzero">
<path style="fill:none;stroke-width:0.8;stroke-linecap:square;stroke-linejoin:round;stroke:rgb(69.019608%,69.019608%,69.019608%);stroke-opacity:1;stroke-miterlimit:4;" d="M 43.78125 38.7 L 322.78125 38.7 " transform="matrix(1.25,0,0,1.25,0,0)"/>
</g>
<path style="fill:none;stroke-width:0.8;stroke-linecap:butt;stroke-linejoin:round;stroke:rgb(0%,0%,0%);stroke-opacity:1;stroke-miterlimit:4;" d="M 0 0 L -3.5 0 " transform="matrix(1.25,0,0,1.25,54.726562,48.375)"/>
<path style=" stroke:none;fill-rule:nonzero;fill:rgb(0%,0%,0%);fill-opacity:1;" d="M 30.070312 44.824219 C 29.4375 44.824219 28.960938 45.136719 28.640625 45.761719 C 28.320312 46.382812 28.160156 47.324219 28.160156 48.578125 C 28.160156 49.824219 28.320312 50.761719 28.640625 51.386719 C 28.960938 52.011719 29.4375 52.324219 30.070312 52.324219 C 30.710938 52.324219 31.1875 52.011719 31.507812 51.386719 C 31.828125 50.761719 31.988281 49.824219 31.988281 48.578125 C 31.988281 47.324219 31.828125 46.382812 31.507812 45.761719 C 31.1875 45.136719 30.710938 44.824219 30.070312 44.824219 Z M 30.070312 43.847656 C 31.09375 43.847656 31.875 44.25 32.414062 45.058594 C 32.953125 45.867188 33.21875 47.039062 33.21875 48.578125 C 33.21875 50.109375 32.953125 51.28125 32.414062 52.089844 C 31.875 52.898438 31.09375 53.300781 30.070312 53.300781 C 29.050781 53.300781 28.269531 52.898438 27.730469 52.089844 C 27.191406 51.28125 26.921875 50.109375 26.921875 48.578125 C 26.921875 47.039062 27.191406 45.867188 27.730469 45.058594 C 28.269531 44.25 29.050781 43.847656 30.070312 43.847656 Z M 30.070312 43.847656 "/>
<path style=" stroke:none;fill-rule:nonzero;fill:rgb(0%,0%,0%);fill-opacity:1;" d="M 35.386719 51.574219 L 36.675781 51.574219 L 36.675781 53.125 L 35.386719 53.125 Z M 35.386719 51.574219 "/>
<path style=" stroke:none;fill-rule:nonzero;fill:rgb(0%,0%,0%);fill-opacity:1;" d="M 41.996094 48.796875 C 41.410156 48.796875 40.949219 48.953125 40.613281 49.265625 C 40.277344 49.582031 40.113281 50.011719 40.113281 50.558594 C 40.113281 51.109375 40.277344 51.539062 40.613281 51.855469 C 40.949219 52.167969 41.410156 52.324219 41.996094 52.324219 C 42.582031 52.324219 43.042969 52.167969 43.382812 51.851562 C 43.71875 51.535156 43.890625 51.105469 43.890625 50.558594 C 43.890625 50.011719 43.722656 49.582031 43.386719 49.265625 C 43.050781 48.953125 42.585938 48.796875 41.996094 48.796875 Z M 40.765625 48.273438 C 40.234375 48.140625 39.824219 47.894531 39.527344 47.535156 C 39.234375 47.171875 39.085938 46.730469 39.085938 46.207031 C 39.085938 45.480469 39.34375 44.90625 39.863281 44.480469 C 40.382812 44.058594 41.09375 43.847656 41.996094 43.847656 C 42.902344 43.847656 43.617188 44.058594 44.132812 44.480469 C 44.648438 44.90625 44.910156 45.480469 44.910156 46.207031 C 44.910156 46.730469 44.761719 47.171875 44.464844 47.535156 C 44.171875 47.894531 43.761719 48.140625 43.238281 48.273438 C 43.832031 48.410156 44.292969 48.679688 44.625 49.085938 C 44.957031 49.488281 45.121094 49.980469 45.121094 50.558594 C 45.121094 51.445312 44.851562 52.121094 44.3125 52.59375 C 43.773438 53.066406 43 53.300781 41.996094 53.300781 C 40.992188 53.300781 40.21875 53.066406 39.679688 52.59375 C 39.140625 52.121094 38.871094 51.445312 38.871094 50.558594 C 38.871094 49.980469 39.039062 49.488281 39.371094 49.085938 C 39.707031 48.679688 40.171875 48.410156 40.765625 48.273438 Z M 40.3125 46.324219 C 40.3125 46.796875 40.460938 47.164062 40.753906 47.429688 C 41.050781 47.691406 41.464844 47.824219 41.996094 47.824219 C 42.527344 47.824219 42.941406 47.691406 43.238281 47.429688 C 43.539062 47.164062 43.6875 46.796875 43.6875 46.324219 C 43.6875 45.851562 43.539062 45.484375 43.238281 45.21875 C 42.941406 44.957031 42.527344 44.824219 41.996094 44.824219 C 41.464844 44.824219 41.050781 44.957031 40.753906 45.21875 C 40.460938 45.484375 40.3125 45.851562 40.3125 46.324219 Z M 40.3125 46.324219 "/>
<g clip-path="url(#clip15)" clip-rule="nonzero">
<path style="fill:none;stroke-width:0.8;stroke-linecap:square;stroke-linejoin:round;stroke:rgb(69.019608%,69.019608%,69.019608%);stroke-opacity:1;stroke-miterlimit:4;" d="M 43.78125 13.5 L 322.78125 13.5 " transform="matrix(1.25,0,0,1.25,0,0)"/>
</g>
<path style="fill:none;stroke-width:0.8;stroke-linecap:butt;stroke-linejoin:round;stroke:rgb(0%,0%,0%);stroke-opacity:1;stroke-miterlimit:4;" d="M 0 0 L -3.5 0 " transform="matrix(1.25,0,0,1.25,54.726562,16.875)"/>
<path style=" stroke:none;fill-rule:nonzero;fill:rgb(0%,0%,0%);fill-opacity:1;" d="M 27.648438 20.585938 L 29.664062 20.585938 L 29.664062 13.632812 L 27.46875 14.074219 L 27.46875 12.949219 L 29.648438 12.511719 L 30.882812 12.511719 L 30.882812 20.585938 L 32.898438 20.585938 L 32.898438 21.625 L 27.648438 21.625 Z M 27.648438 20.585938 "/>
<path style=" stroke:none;fill-rule:nonzero;fill:rgb(0%,0%,0%);fill-opacity:1;" d="M 35.386719 20.074219 L 36.675781 20.074219 L 36.675781 21.625 L 35.386719 21.625 Z M 35.386719 20.074219 "/>
<path style=" stroke:none;fill-rule:nonzero;fill:rgb(0%,0%,0%);fill-opacity:1;" d="M 41.996094 13.324219 C 41.363281 13.324219 40.886719 13.636719 40.566406 14.261719 C 40.246094 14.882812 40.085938 15.824219 40.085938 17.078125 C 40.085938 18.324219 40.246094 19.261719 40.566406 19.886719 C 40.886719 20.511719 41.363281 20.824219 41.996094 20.824219 C 42.636719 20.824219 43.113281 20.511719 43.433594 19.886719 C 43.753906 19.261719 43.914062 18.324219 43.914062 17.078125 C 43.914062 15.824219 43.753906 14.882812 43.433594 14.261719 C 43.113281 13.636719 42.636719 13.324219 41.996094 13.324219 Z M 41.996094 12.347656 C 43.019531 12.347656 43.800781 12.75 44.339844 13.558594 C 44.878906 14.367188 45.148438 15.539062 45.148438 17.078125 C 45.148438 18.609375 44.878906 19.78125 44.339844 20.589844 C 43.800781 21.398438 43.019531 21.800781 41.996094 21.800781 C 40.976562 21.800781 40.195312 21.398438 39.65625 20.589844 C 39.117188 19.78125 38.847656 18.609375 38.847656 17.078125 C 38.847656 15.539062 39.117188 14.367188 39.65625 13.558594 C 40.195312 12.75 40.976562 12.347656 41.996094 12.347656 Z M 41.996094 12.347656 "/>
<path style=" stroke:none;fill-rule:nonzero;fill:rgb(0%,0%,0%);fill-opacity:1;" d="M 15 126.253906 C 14.1875 126.253906 13.554688 126.421875 13.109375 126.757812 C 12.660156 127.089844 12.4375 127.5625 12.4375 128.167969 C 12.4375 128.769531 12.660156 129.238281 13.109375 129.574219 C 13.554688 129.910156 14.1875 130.078125 15 130.078125 C 15.808594 130.078125 16.4375 129.910156 16.886719 129.574219 C 17.335938 129.238281 17.558594 128.769531 17.558594 128.167969 C 17.558594 127.5625 17.335938 127.089844 16.886719 126.757812 C 16.4375 126.421875 15.808594 126.253906 15 126.253906 Z M 17.652344 125.128906 C 18.8125 125.128906 19.679688 125.386719 20.246094 125.90625 C 20.8125 126.421875 21.097656 127.210938 21.097656 128.277344 C 21.097656 128.671875 21.070312 129.046875 21.011719 129.394531 C 20.953125 129.746094 20.859375 130.085938 20.738281 130.414062 L 19.648438 130.414062 C 19.824219 130.085938 19.957031 129.761719 20.042969 129.4375 C 20.128906 129.117188 20.171875 128.789062 20.171875 128.457031 C 20.171875 127.71875 19.976562 127.167969 19.59375 126.800781 C 19.210938 126.4375 18.628906 126.253906 17.851562 126.253906 L 17.296875 126.253906 C 17.699219 126.484375 18 126.78125 18.199219 127.144531 C 18.398438 127.503906 18.5 127.9375 18.5 128.445312 C 18.5 129.28125 18.179688 129.957031 17.542969 130.46875 C 16.902344 130.984375 16.054688 131.238281 15 131.238281 C 13.941406 131.238281 13.09375 130.984375 12.457031 130.46875 C 11.816406 129.957031 11.5 129.28125 11.5 128.445312 C 11.5 127.9375 11.597656 127.503906 11.796875 127.144531 C 11.996094 126.78125 12.296875 126.484375 12.699219 126.253906 L 11.664062 126.253906 L 11.664062 125.128906 Z M 17.652344 125.128906 "/>
<path style=" stroke:none;fill-rule:nonzero;fill:rgb(0%,0%,0%);fill-opacity:1;" d="M 12.710938 118.855469 C 12.636719 118.980469 12.585938 119.121094 12.550781 119.269531 C 12.515625 119.417969 12.5 119.578125 12.5 119.757812 C 12.5 120.394531 12.703125 120.882812 13.117188 121.222656 C 13.53125 121.5625 14.125 121.730469 14.898438 121.730469 L 18.5 121.730469 L 18.5 122.859375 L 11.664062 122.859375 L 11.664062 121.730469 L 12.726562 121.730469 C 12.308594 121.492188 12 121.1875 11.800781 120.808594 C 11.597656 120.429688 11.5 119.96875 11.5 119.429688 C 11.5 119.351562 11.503906 119.265625 11.515625 119.171875 C 11.523438 119.078125 11.539062 118.976562 11.558594 118.863281 Z M 12.710938 118.855469 "/>
<path style=" stroke:none;fill-rule:nonzero;fill:rgb(0%,0%,0%);fill-opacity:1;" d="M 15.0625 114.570312 C 15.0625 115.476562 15.167969 116.105469 15.375 116.457031 C 15.582031 116.808594 15.933594 116.980469 16.4375 116.980469 C 16.835938 116.980469 17.152344 116.851562 17.386719 116.585938 C 17.617188 116.324219 17.734375 115.96875 17.734375 115.515625 C 17.734375 114.894531 17.515625 114.394531 17.074219 114.015625 C 16.632812 113.640625 16.042969 113.453125 15.3125 113.453125 L 15.0625 113.453125 Z M 14.597656 112.328125 L 18.5 112.328125 L 18.5 113.453125 L 17.460938 113.453125 C 17.875 113.710938 18.179688 114.027344 18.378906 114.410156 C 18.578125 114.792969 18.675781 115.261719 18.675781 115.816406 C 18.675781 116.515625 18.480469 117.070312 18.085938 117.484375 C 17.691406 117.898438 17.167969 118.105469 16.507812 118.105469 C 15.738281 118.105469 15.160156 117.847656 14.769531 117.332031 C 14.378906 116.816406 14.183594 116.050781 14.183594 115.027344 L 14.183594 113.453125 L 14.074219 113.453125 C 13.554688 113.453125 13.15625 113.621094 12.875 113.960938 C 12.589844 114.300781 12.449219 114.78125 12.449219 115.394531 C 12.449219 115.785156 12.496094 116.164062 12.589844 116.535156 C 12.683594 116.90625 12.824219 117.261719 13.011719 117.601562 L 11.972656 117.601562 C 11.8125 117.191406 11.695312 116.792969 11.617188 116.40625 C 11.539062 116.019531 11.5 115.644531 11.5 115.277344 C 11.5 114.289062 11.753906 113.550781 12.269531 113.0625 C 12.78125 112.574219 13.554688 112.328125 14.597656 112.328125 Z M 14.597656 112.328125 "/>
<path style=" stroke:none;fill-rule:nonzero;fill:rgb(0%,0%,0%);fill-opacity:1;" d="M 12.699219 105.519531 L 9 105.519531 L 9 104.394531 L 18.5 104.394531 L 18.5 105.519531 L 17.472656 105.519531 C 17.878906 105.753906 18.179688 106.054688 18.378906 106.414062 C 18.578125 106.773438 18.675781 107.207031 18.675781 107.710938 C 18.675781 108.535156 18.347656 109.207031 17.6875 109.726562 C 17.027344 110.246094 16.160156 110.503906 15.085938 110.503906 C 14.011719 110.503906 13.144531 110.246094 12.488281 109.726562 C 11.828125 109.207031 11.5 108.535156 11.5 107.710938 C 11.5 107.207031 11.597656 106.773438 11.796875 106.414062 C 11.992188 106.054688 12.292969 105.753906 12.699219 105.519531 Z M 15.085938 109.34375 C 15.910156 109.34375 16.558594 109.175781 17.03125 108.835938 C 17.5 108.496094 17.734375 108.027344 17.734375 107.433594 C 17.734375 106.839844 17.5 106.375 17.03125 106.03125 C 16.558594 105.691406 15.910156 105.519531 15.085938 105.519531 C 14.261719 105.519531 13.613281 105.691406 13.144531 106.03125 C 12.671875 106.375 12.4375 106.839844 12.4375 107.433594 C 12.4375 108.027344 12.671875 108.496094 13.144531 108.835938 C 13.613281 109.175781 14.261719 109.34375 15.085938 109.34375 Z M 15.085938 109.34375 "/>
<path style=" stroke:none;fill-rule:nonzero;fill:rgb(0%,0%,0%);fill-opacity:1;" d="M 12.449219 95.460938 C 12.449219 96.0625 12.683594 96.539062 13.15625 96.890625 C 13.625 97.238281 14.269531 97.414062 15.085938 97.414062 C 15.902344 97.414062 16.546875 97.242188 17.019531 96.894531 C 17.488281 96.542969 17.722656 96.066406 17.722656 95.460938 C 17.722656 94.863281 17.488281 94.386719 17.015625 94.039062 C 16.542969 93.6875 15.898438 93.515625 15.085938 93.515625 C 14.277344 93.515625 13.632812 93.6875 13.160156 94.039062 C 12.6875 94.386719 12.449219 94.863281 12.449219 95.460938 Z M 11.5 95.460938 C 11.5 94.484375 11.816406 93.71875 12.453125 93.160156 C 13.085938 92.601562 13.964844 92.324219 15.085938 92.324219 C 16.203125 92.324219 17.082031 92.601562 17.722656 93.160156 C 18.359375 93.71875 18.675781 94.484375 18.675781 95.460938 C 18.675781 96.441406 18.359375 97.210938 17.722656 97.765625 C 17.082031 98.320312 16.203125 98.597656 15.085938 98.597656 C 13.964844 98.597656 13.085938 98.320312 12.453125 97.765625 C 11.816406 97.210938 11.5 96.441406 11.5 95.460938 Z M 11.5 95.460938 "/>
<path style=" stroke:none;fill-rule:nonzero;fill:rgb(0%,0%,0%);fill-opacity:1;" d="M 9 87 L 9.9375 87 L 9.9375 88.074219 C 9.9375 88.476562 10.015625 88.757812 10.179688 88.914062 C 10.34375 89.070312 10.636719 89.148438 11.058594 89.148438 L 11.664062 89.148438 L 11.664062 87.300781 L 12.535156 87.300781 L 12.535156 89.148438 L 18.5 89.148438 L 18.5 90.277344 L 12.535156 90.277344 L 12.535156 91.351562 L 11.664062 91.351562 L 11.664062 90.277344 L 11.1875 90.277344 C 10.425781 90.277344 9.871094 90.101562 9.523438 89.746094 C 9.175781 89.394531 9 88.832031 9 88.0625 Z M 9 87 "/>
<path style=" stroke:none;fill-rule:nonzero;fill:rgb(0%,0%,0%);fill-opacity:1;" d="M 12.710938 78.125 C 12.636719 78.253906 12.585938 78.390625 12.550781 78.539062 C 12.515625 78.6875 12.5 78.851562 12.5 79.027344 C 12.5 79.664062 12.703125 80.152344 13.117188 80.492188 C 13.53125 80.832031 14.125 81 14.898438 81 L 18.5 81 L 18.5 82.128906 L 11.664062 82.128906 L 11.664062 81 L 12.726562 81 C 12.308594 80.765625 12 80.457031 11.800781 80.078125 C 11.597656 79.699219 11.5 79.242188 11.5 78.699219 C 11.5 78.621094 11.503906 78.535156 11.515625 78.441406 C 11.523438 78.347656 11.539062 78.246094 11.558594 78.132812 Z M 12.710938 78.125 "/>
<path style=" stroke:none;fill-rule:nonzero;fill:rgb(0%,0%,0%);fill-opacity:1;" d="M 14.800781 71.382812 L 15.347656 71.382812 L 15.347656 76.546875 C 16.121094 76.496094 16.710938 76.261719 17.117188 75.847656 C 17.519531 75.429688 17.722656 74.847656 17.722656 74.105469 C 17.722656 73.671875 17.671875 73.253906 17.566406 72.851562 C 17.460938 72.445312 17.300781 72.042969 17.089844 71.644531 L 18.152344 71.644531 C 18.320312 72.046875 18.453125 72.460938 18.542969 72.882812 C 18.632812 73.308594 18.675781 73.734375 18.675781 74.171875 C 18.675781 75.261719 18.359375 76.125 17.726562 76.761719 C 17.089844 77.398438 16.230469 77.71875 15.148438 77.71875 C 14.027344 77.71875 13.140625 77.414062 12.484375 76.8125 C 11.828125 76.207031 11.5 75.390625 11.5 74.367188 C 11.5 73.445312 11.792969 72.71875 12.386719 72.183594 C 12.976562 71.648438 13.78125 71.382812 14.800781 71.382812 Z M 14.46875 72.503906 C 13.855469 72.511719 13.367188 72.683594 13 73.019531 C 12.632812 73.355469 12.449219 73.800781 12.449219 74.355469 C 12.449219 74.980469 12.625 75.480469 12.980469 75.859375 C 13.335938 76.234375 13.832031 76.453125 14.476562 76.507812 Z M 14.46875 72.503906 "/>
<path style=" stroke:none;fill-rule:nonzero;fill:rgb(0%,0%,0%);fill-opacity:1;" d="M 9 69.539062 L 9 68.417969 L 18.5 68.417969 L 18.5 69.539062 Z M 9 69.539062 "/>
<path style=" stroke:none;fill-rule:nonzero;fill:rgb(0%,0%,0%);fill-opacity:1;" d="M 15.800781 66.183594 L 11.664062 66.183594 L 11.664062 65.058594 L 15.757812 65.058594 C 16.40625 65.058594 16.890625 64.933594 17.214844 64.683594 C 17.539062 64.429688 17.699219 64.050781 17.699219 63.546875 C 17.699219 62.941406 17.507812 62.460938 17.121094 62.109375 C 16.734375 61.757812 16.207031 61.582031 15.539062 61.582031 L 11.664062 61.582031 L 11.664062 60.457031 L 18.5 60.457031 L 18.5 61.582031 L 17.449219 61.582031 C 17.863281 61.851562 18.171875 62.167969 18.375 62.53125 C 18.574219 62.890625 18.675781 63.308594 18.675781 63.785156 C 18.675781 64.570312 18.433594 65.164062 17.945312 65.574219 C 17.457031 65.980469 16.742188 66.183594 15.800781 66.183594 Z M 11.5 63.355469 Z M 11.5 63.355469 "/>
<path style="fill:none;stroke-width:1.5;stroke-linecap:square;stroke-linejoin:round;stroke:rgb(12.156863%,46.666667%,70.588235%);stroke-opacity:1;stroke-miterlimit:4;" d="M 56.4625 139.5 L 182.484375 139.5 L 184.078125 13.5 L 310.1 13.5 " transform="matrix(1.25,0,0,1.25,0,0)"/>
<path style="fill:none;stroke-width:0.8;stroke-linecap:square;stroke-linejoin:miter;stroke:rgb(0%,0%,0%);stroke-opacity:1;stroke-miterlimit:4;" d="M 43.78125 145.8 L 43.78125 7.2 " transform="matrix(1.25,0,0,1.25,0,0)"/>
<path style="fill:none;stroke-width:0.8;stroke-linecap:square;stroke-linejoin:miter;stroke:rgb(0%,0%,0%);stroke-opacity:1;stroke-miterlimit:4;" d="M 322.78125 145.8 L 322.78125 7.2 " transform="matrix(1.25,0,0,1.25,0,0)"/>
<path style="fill:none;stroke-width:0.8;stroke-linecap:square;stroke-linejoin:miter;stroke:rgb(0%,0%,0%);stroke-opacity:1;stroke-miterlimit:4;" d="M 43.78125 145.8 L 322.78125 145.8 " transform="matrix(1.25,0,0,1.25,0,0)"/>
<path style="fill:none;stroke-width:0.8;stroke-linecap:square;stroke-linejoin:miter;stroke:rgb(0%,0%,0%);stroke-opacity:1;stroke-miterlimit:4;" d="M 43.78125 7.2 L 322.78125 7.2 " transform="matrix(1.25,0,0,1.25,0,0)"/>
</g>
</svg>
