<?xml version="1.0" encoding="UTF-8"?>
<svg xmlns="http://www.w3.org/2000/svg" xmlns:xlink="http://www.w3.org/1999/xlink" width="274.666667" height="86.666667" viewBox="0 0 274.666667 86.666667" version="1.1">
<g id="surface1">
<path style="fill-rule:nonzero;fill:rgb(69.803923%,85.09804%,100%);fill-opacity:1;stroke-width:1;stroke-linecap:round;stroke-linejoin:round;stroke:rgb(0%,0%,0%);stroke-opacity:1;stroke-miterlimit:10;" d="M 155.636719 702.500977 L 179.636719 702.500977 L 179.636719 726.500977 L 155.636719 726.500977 Z M 155.636719 702.500977 " transform="matrix(1.333333,0,0,1.333333,-136,-936)"/>
<path style=" stroke:none;fill-rule:nonzero;fill:rgb(0%,0%,0%);fill-opacity:1;" d="M 85.765625 13.75 C 85.601562 12.917969 85.453125 12.707031 85.164062 12.707031 C 84.871094 12.707031 84.476562 12.792969 83.746094 13.0625 L 83.621094 13.105469 L 83.664062 13.292969 L 83.871094 13.230469 C 84.101562 13.167969 84.246094 13.144531 84.328125 13.144531 C 84.640625 13.144531 84.726562 13.25 84.890625 13.957031 L 85.226562 15.457031 L 84.246094 16.855469 C 83.996094 17.207031 83.765625 17.4375 83.621094 17.4375 C 83.558594 17.4375 83.433594 17.394531 83.308594 17.332031 C 83.164062 17.25 83.039062 17.1875 82.933594 17.1875 C 82.703125 17.1875 82.515625 17.394531 82.515625 17.625 C 82.515625 17.9375 82.746094 18.125 83.121094 18.125 C 83.496094 18.125 83.746094 18.019531 84.265625 17.3125 L 85.328125 15.894531 L 85.664062 17.3125 C 85.808594 17.917969 85.996094 18.125 86.371094 18.125 C 86.828125 18.125 87.140625 17.855469 87.851562 16.769531 L 87.664062 16.644531 C 87.558594 16.769531 87.515625 16.855469 87.414062 17 C 87.140625 17.355469 86.996094 17.480469 86.851562 17.480469 C 86.683594 17.480469 86.578125 17.3125 86.496094 16.980469 L 86.101562 15.375 C 86.039062 15.082031 85.996094 14.917969 85.996094 14.832031 C 86.539062 13.917969 86.976562 13.375 87.183594 13.375 C 87.476562 13.375 87.578125 13.582031 87.808594 13.582031 C 88.039062 13.582031 88.203125 13.394531 88.203125 13.144531 C 88.203125 12.894531 88.015625 12.707031 87.726562 12.707031 C 87.203125 12.707031 86.746094 13.144531 85.914062 14.417969 Z M 85.765625 13.75 "/>
<path style=" stroke:none;fill-rule:nonzero;fill:rgb(0%,0%,0%);fill-opacity:1;" d="M 91.96875 22.230469 L 91.867188 22.1875 C 91.59375 22.644531 91.429688 22.730469 91.09375 22.730469 L 89.21875 22.730469 L 90.53125 21.3125 C 91.242188 20.5625 91.554688 19.957031 91.554688 19.332031 C 91.554688 18.542969 90.992188 17.917969 90.074219 17.917969 C 89.09375 17.917969 88.59375 18.582031 88.429688 19.519531 L 88.59375 19.5625 C 88.90625 18.769531 89.179688 18.519531 89.761719 18.519531 C 90.449219 18.519531 90.867188 18.917969 90.867188 19.644531 C 90.867188 20.332031 90.59375 20.9375 89.824219 21.730469 L 88.40625 23.230469 L 88.40625 23.332031 L 91.53125 23.332031 Z M 91.96875 22.230469 "/>
<path style="fill:none;stroke-width:1;stroke-linecap:round;stroke-linejoin:round;stroke:rgb(0%,0%,0%);stroke-opacity:1;stroke-miterlimit:10;" d="M 155.636719 742.5 L 179.636719 742.5 L 179.636719 766.5 L 155.636719 766.5 Z M 155.636719 742.5 " transform="matrix(1.333333,0,0,1.333333,-136,-936)"/>
<path style=" stroke:none;fill-rule:nonzero;fill:rgb(0%,0%,0%);fill-opacity:1;" d="M 88.097656 72.582031 C 87.453125 73.394531 87.304688 73.542969 87.117188 73.542969 C 86.992188 73.542969 86.910156 73.457031 86.910156 73.332031 C 86.910156 73.1875 87.117188 72.457031 87.304688 71.832031 C 87.679688 70.707031 87.890625 69.8125 87.890625 69.519531 C 87.890625 69.0625 87.660156 68.707031 87.117188 68.707031 C 86.367188 68.707031 85.429688 69.480469 84.347656 71.25 L 85.804688 65.875 L 85.722656 65.8125 C 85.015625 65.957031 84.554688 66.042969 83.828125 66.125 L 83.828125 66.3125 L 84.160156 66.3125 C 84.367188 66.3125 84.660156 66.394531 84.660156 66.605469 C 84.660156 66.769531 84.597656 66.980469 84.492188 67.355469 L 82.742188 74 L 83.640625 74 C 84.117188 72.144531 84.304688 71.730469 84.785156 71 C 85.410156 70.042969 86.179688 69.3125 86.617188 69.3125 C 86.890625 69.3125 86.953125 69.4375 86.953125 69.625 C 86.953125 69.667969 86.910156 69.832031 86.867188 70.019531 L 86.203125 72.5 C 86.054688 73.082031 85.972656 73.457031 85.972656 73.605469 C 85.972656 73.917969 86.179688 74.105469 86.492188 74.105469 C 87.117188 74.105469 87.515625 73.792969 88.242188 72.75 Z M 88.097656 72.582031 "/>
<path style=" stroke:none;fill-rule:nonzero;fill:rgb(0%,0%,0%);fill-opacity:1;" d="M 92.304688 76.894531 L 92.203125 76.855469 C 91.929688 77.3125 91.765625 77.394531 91.429688 77.394531 L 89.554688 77.394531 L 90.867188 75.980469 C 91.578125 75.230469 91.890625 74.625 91.890625 74 C 91.890625 73.207031 91.328125 72.582031 90.410156 72.582031 C 89.429688 72.582031 88.929688 73.25 88.765625 74.1875 L 88.929688 74.230469 C 89.242188 73.4375 89.515625 73.1875 90.097656 73.1875 C 90.785156 73.1875 91.203125 73.582031 91.203125 74.3125 C 91.203125 75 90.929688 75.605469 90.160156 76.394531 L 88.742188 77.894531 L 88.742188 78 L 91.867188 78 Z M 92.304688 76.894531 "/>
<path style="fill:none;stroke-width:1;stroke-linecap:round;stroke-linejoin:round;stroke:rgb(0%,0%,0%);stroke-opacity:1;stroke-miterlimit:10;" d="M 167.636719 732.398438 L 167.636719 742.5 " transform="matrix(1.333333,0,0,1.333333,-136,-936)"/>
<path style="fill:none;stroke-width:1;stroke-linecap:butt;stroke-linejoin:miter;stroke:rgb(0%,0%,0%);stroke-opacity:1;stroke-miterlimit:10;" d="M 167.636719 728.399414 L 167.636719 732.398438 M 166.136719 732.398438 L 167.636719 728.399414 L 169.136719 732.398438 " transform="matrix(1.333333,0,0,1.333333,-136,-936)"/>
<path style="fill-rule:nonzero;fill:rgb(69.803923%,85.09804%,100%);fill-opacity:1;stroke-width:1;stroke-linecap:round;stroke-linejoin:round;stroke:rgb(0%,0%,0%);stroke-opacity:1;stroke-miterlimit:10;" d="M 208.772461 702.500977 L 232.772461 702.500977 L 232.772461 726.500977 L 208.772461 726.500977 Z M 208.772461 702.500977 " transform="matrix(1.333333,0,0,1.333333,-136,-936)"/>
<path style=" stroke:none;fill-rule:nonzero;fill:rgb(0%,0%,0%);fill-opacity:1;" d="M 156.617188 13.75 C 156.449219 12.917969 156.304688 12.707031 156.011719 12.707031 C 155.71875 12.707031 155.324219 12.792969 154.59375 13.0625 L 154.46875 13.105469 L 154.511719 13.292969 L 154.71875 13.230469 C 154.949219 13.167969 155.09375 13.144531 155.179688 13.144531 C 155.492188 13.144531 155.574219 13.25 155.742188 13.957031 L 156.074219 15.457031 L 155.09375 16.855469 C 154.84375 17.207031 154.617188 17.4375 154.46875 17.4375 C 154.40625 17.4375 154.28125 17.394531 154.15625 17.332031 C 154.011719 17.25 153.886719 17.1875 153.78125 17.1875 C 153.554688 17.1875 153.367188 17.394531 153.367188 17.625 C 153.367188 17.9375 153.59375 18.125 153.96875 18.125 C 154.34375 18.125 154.59375 18.019531 155.117188 17.3125 L 156.179688 15.894531 L 156.511719 17.3125 C 156.65625 17.917969 156.84375 18.125 157.21875 18.125 C 157.679688 18.125 157.992188 17.855469 158.699219 16.769531 L 158.511719 16.644531 C 158.40625 16.769531 158.367188 16.855469 158.261719 17 C 157.992188 17.355469 157.84375 17.480469 157.699219 17.480469 C 157.53125 17.480469 157.429688 17.3125 157.34375 16.980469 L 156.949219 15.375 C 156.886719 15.082031 156.84375 14.917969 156.84375 14.832031 C 157.386719 13.917969 157.824219 13.375 158.03125 13.375 C 158.324219 13.375 158.429688 13.582031 158.65625 13.582031 C 158.886719 13.582031 159.054688 13.394531 159.054688 13.144531 C 159.054688 12.894531 158.867188 12.707031 158.574219 12.707031 C 158.054688 12.707031 157.59375 13.144531 156.761719 14.417969 Z M 156.617188 13.75 "/>
<path style=" stroke:none;fill-rule:nonzero;fill:rgb(0%,0%,0%);fill-opacity:1;" d="M 159.507812 19.25 C 159.839844 18.667969 160.214844 18.394531 160.714844 18.394531 C 161.234375 18.394531 161.570312 18.6875 161.570312 19.230469 C 161.570312 19.707031 161.320312 20.0625 160.921875 20.292969 C 160.757812 20.394531 160.546875 20.480469 160.257812 20.582031 L 160.257812 20.6875 C 160.714844 20.6875 160.882812 20.707031 161.070312 20.769531 C 161.609375 20.9375 161.902344 21.332031 161.902344 21.9375 C 161.902344 22.605469 161.445312 23.167969 160.859375 23.167969 C 160.632812 23.167969 160.464844 23.125 160.171875 22.917969 C 159.945312 22.75 159.820312 22.707031 159.671875 22.707031 C 159.507812 22.707031 159.359375 22.8125 159.359375 22.980469 C 159.359375 23.269531 159.671875 23.4375 160.257812 23.4375 C 160.964844 23.4375 161.714844 23.207031 162.109375 22.707031 C 162.339844 22.394531 162.484375 22 162.484375 21.582031 C 162.484375 21.167969 162.339844 20.792969 162.132812 20.542969 C 161.964844 20.375 161.820312 20.269531 161.464844 20.125 C 161.984375 19.8125 162.195312 19.394531 162.195312 19.019531 C 162.195312 18.375 161.695312 17.917969 160.964844 17.917969 C 160.132812 17.917969 159.609375 18.457031 159.382812 19.230469 Z M 159.507812 19.25 "/>
<path style="fill:none;stroke-width:1;stroke-linecap:round;stroke-linejoin:round;stroke:rgb(0%,0%,0%);stroke-opacity:1;stroke-miterlimit:10;" d="M 208.772461 742.5 L 232.772461 742.5 L 232.772461 766.5 L 208.772461 766.5 Z M 208.772461 742.5 " transform="matrix(1.333333,0,0,1.333333,-136,-936)"/>
<path style=" stroke:none;fill-rule:nonzero;fill:rgb(0%,0%,0%);fill-opacity:1;" d="M 158.945312 72.582031 C 158.300781 73.394531 158.15625 73.542969 157.96875 73.542969 C 157.84375 73.542969 157.757812 73.457031 157.757812 73.332031 C 157.757812 73.1875 157.96875 72.457031 158.15625 71.832031 C 158.53125 70.707031 158.738281 69.8125 158.738281 69.519531 C 158.738281 69.0625 158.507812 68.707031 157.96875 68.707031 C 157.21875 68.707031 156.28125 69.480469 155.195312 71.25 L 156.65625 65.875 L 156.570312 65.8125 C 155.863281 65.957031 155.40625 66.042969 154.675781 66.125 L 154.675781 66.3125 L 155.007812 66.3125 C 155.21875 66.3125 155.507812 66.394531 155.507812 66.605469 C 155.507812 66.769531 155.445312 66.980469 155.34375 67.355469 L 153.59375 74 L 154.488281 74 C 154.96875 72.144531 155.15625 71.730469 155.632812 71 C 156.257812 70.042969 157.03125 69.3125 157.46875 69.3125 C 157.738281 69.3125 157.800781 69.4375 157.800781 69.625 C 157.800781 69.667969 157.757812 69.832031 157.71875 70.019531 L 157.050781 72.5 C 156.90625 73.082031 156.820312 73.457031 156.820312 73.605469 C 156.820312 73.917969 157.03125 74.105469 157.34375 74.105469 C 157.96875 74.105469 158.363281 73.792969 159.09375 72.75 Z M 158.945312 72.582031 "/>
<path style=" stroke:none;fill-rule:nonzero;fill:rgb(0%,0%,0%);fill-opacity:1;" d="M 159.84375 73.917969 C 160.175781 73.332031 160.550781 73.0625 161.050781 73.0625 C 161.570312 73.0625 161.90625 73.355469 161.90625 73.894531 C 161.90625 74.375 161.65625 74.730469 161.257812 74.957031 C 161.09375 75.0625 160.882812 75.144531 160.59375 75.25 L 160.59375 75.355469 C 161.050781 75.355469 161.21875 75.375 161.40625 75.4375 C 161.945312 75.605469 162.238281 76 162.238281 76.605469 C 162.238281 77.269531 161.78125 77.832031 161.195312 77.832031 C 160.96875 77.832031 160.800781 77.792969 160.507812 77.582031 C 160.28125 77.417969 160.15625 77.375 160.007812 77.375 C 159.84375 77.375 159.695312 77.480469 159.695312 77.644531 C 159.695312 77.9375 160.007812 78.105469 160.59375 78.105469 C 161.300781 78.105469 162.050781 77.875 162.445312 77.375 C 162.675781 77.0625 162.820312 76.667969 162.820312 76.25 C 162.820312 75.832031 162.675781 75.457031 162.46875 75.207031 C 162.300781 75.042969 162.15625 74.9375 161.800781 74.792969 C 162.320312 74.480469 162.53125 74.0625 162.53125 73.6875 C 162.53125 73.042969 162.03125 72.582031 161.300781 72.582031 C 160.46875 72.582031 159.945312 73.125 159.71875 73.894531 Z M 159.84375 73.917969 "/>
<path style="fill:none;stroke-width:1;stroke-linecap:round;stroke-linejoin:round;stroke:rgb(0%,0%,0%);stroke-opacity:1;stroke-miterlimit:10;" d="M 220.772461 732.398438 L 220.772461 742.5 " transform="matrix(1.333333,0,0,1.333333,-136,-936)"/>
<path style="fill:none;stroke-width:1;stroke-linecap:butt;stroke-linejoin:miter;stroke:rgb(0%,0%,0%);stroke-opacity:1;stroke-miterlimit:10;" d="M 220.772461 728.399414 L 220.772461 732.398438 M 219.272461 732.398438 L 220.772461 728.399414 L 222.272461 732.398438 " transform="matrix(1.333333,0,0,1.333333,-136,-936)"/>
<path style="fill-rule:nonzero;fill:rgb(69.803923%,85.09804%,100%);fill-opacity:1;stroke-width:1;stroke-linecap:round;stroke-linejoin:round;stroke:rgb(0%,0%,0%);stroke-opacity:1;stroke-miterlimit:10;" d="M 282.773438 702.500977 L 306.773438 702.500977 L 306.773438 726.500977 L 282.773438 726.500977 Z M 282.773438 702.500977 " transform="matrix(1.333333,0,0,1.333333,-136,-936)"/>
<path style=" stroke:none;fill-rule:nonzero;fill:rgb(0%,0%,0%);fill-opacity:1;" d="M 255.058594 13.75 C 254.890625 12.917969 254.746094 12.707031 254.453125 12.707031 C 254.164062 12.707031 253.765625 12.792969 253.039062 13.0625 L 252.914062 13.105469 L 252.953125 13.292969 L 253.164062 13.230469 C 253.390625 13.167969 253.539062 13.144531 253.621094 13.144531 C 253.933594 13.144531 254.015625 13.25 254.183594 13.957031 L 254.515625 15.457031 L 253.539062 16.855469 C 253.289062 17.207031 253.058594 17.4375 252.914062 17.4375 C 252.851562 17.4375 252.726562 17.394531 252.601562 17.332031 C 252.453125 17.25 252.328125 17.1875 252.226562 17.1875 C 251.996094 17.1875 251.808594 17.394531 251.808594 17.625 C 251.808594 17.9375 252.039062 18.125 252.414062 18.125 C 252.789062 18.125 253.039062 18.019531 253.558594 17.3125 L 254.621094 15.894531 L 254.953125 17.3125 C 255.101562 17.917969 255.289062 18.125 255.664062 18.125 C 256.121094 18.125 256.433594 17.855469 257.140625 16.769531 L 256.953125 16.644531 C 256.851562 16.769531 256.808594 16.855469 256.703125 17 C 256.433594 17.355469 256.289062 17.480469 256.140625 17.480469 C 255.976562 17.480469 255.871094 17.3125 255.789062 16.980469 L 255.390625 15.375 C 255.328125 15.082031 255.289062 14.917969 255.289062 14.832031 C 255.828125 13.917969 256.265625 13.375 256.476562 13.375 C 256.765625 13.375 256.871094 13.582031 257.101562 13.582031 C 257.328125 13.582031 257.496094 13.394531 257.496094 13.144531 C 257.496094 12.894531 257.308594 12.707031 257.015625 12.707031 C 256.496094 12.707031 256.039062 13.144531 255.203125 14.417969 Z M 255.058594 13.75 "/>
<path style=" stroke:none;fill-rule:nonzero;fill:rgb(0%,0%,0%);fill-opacity:1;" d="M 262.53125 18.105469 L 258.28125 18.105469 L 257.949219 19.355469 L 258.09375 19.375 C 258.46875 18.519531 258.71875 18.394531 259.992188 18.394531 L 258.84375 22.605469 C 258.71875 23.042969 258.53125 23.167969 257.992188 23.207031 L 257.992188 23.332031 L 260.304688 23.332031 L 260.304688 23.207031 L 260.011719 23.1875 C 259.679688 23.144531 259.59375 23.082031 259.59375 22.832031 C 259.59375 22.667969 259.65625 22.480469 259.699219 22.3125 L 260.804688 18.394531 L 261.261719 18.394531 C 261.78125 18.394531 262.074219 18.605469 262.074219 19.042969 C 262.074219 19.144531 262.054688 19.269531 262.054688 19.394531 L 262.179688 19.417969 Z M 262.53125 18.105469 "/>
<path style="fill:none;stroke-width:1;stroke-linecap:round;stroke-linejoin:round;stroke:rgb(0%,0%,0%);stroke-opacity:1;stroke-miterlimit:10;" d="M 282.773438 742.5 L 306.773438 742.5 L 306.773438 766.5 L 282.773438 766.5 Z M 282.773438 742.5 " transform="matrix(1.333333,0,0,1.333333,-136,-936)"/>
<path style=" stroke:none;fill-rule:nonzero;fill:rgb(0%,0%,0%);fill-opacity:1;" d="M 257.390625 72.582031 C 256.742188 73.394531 256.597656 73.542969 256.410156 73.542969 C 256.285156 73.542969 256.203125 73.457031 256.203125 73.332031 C 256.203125 73.1875 256.410156 72.457031 256.597656 71.832031 C 256.972656 70.707031 257.179688 69.8125 257.179688 69.519531 C 257.179688 69.0625 256.953125 68.707031 256.410156 68.707031 C 255.660156 68.707031 254.722656 69.480469 253.640625 71.25 L 255.097656 65.875 L 255.015625 65.8125 C 254.304688 65.957031 253.847656 66.042969 253.117188 66.125 L 253.117188 66.3125 L 253.453125 66.3125 C 253.660156 66.3125 253.953125 66.394531 253.953125 66.605469 C 253.953125 66.769531 253.890625 66.980469 253.785156 67.355469 L 252.035156 74 L 252.929688 74 C 253.410156 72.144531 253.597656 71.730469 254.078125 71 C 254.703125 70.042969 255.472656 69.3125 255.910156 69.3125 C 256.179688 69.3125 256.242188 69.4375 256.242188 69.625 C 256.242188 69.667969 256.203125 69.832031 256.160156 70.019531 L 255.492188 72.5 C 255.347656 73.082031 255.265625 73.457031 255.265625 73.605469 C 255.265625 73.917969 255.472656 74.105469 255.785156 74.105469 C 256.410156 74.105469 256.804688 73.792969 257.535156 72.75 Z M 257.390625 72.582031 "/>
<path style=" stroke:none;fill-rule:nonzero;fill:rgb(0%,0%,0%);fill-opacity:1;" d="M 262.867188 72.769531 L 258.617188 72.769531 L 258.285156 74.019531 L 258.429688 74.042969 C 258.804688 73.1875 259.054688 73.0625 260.328125 73.0625 L 259.179688 77.269531 C 259.054688 77.707031 258.867188 77.832031 258.328125 77.875 L 258.328125 78 L 260.640625 78 L 260.640625 77.875 L 260.347656 77.855469 C 260.015625 77.8125 259.929688 77.75 259.929688 77.5 C 259.929688 77.332031 259.992188 77.144531 260.035156 76.980469 L 261.140625 73.0625 L 261.597656 73.0625 C 262.117188 73.0625 262.410156 73.269531 262.410156 73.707031 C 262.410156 73.8125 262.390625 73.9375 262.390625 74.0625 L 262.515625 74.082031 Z M 262.867188 72.769531 "/>
<path style="fill:none;stroke-width:1;stroke-linecap:round;stroke-linejoin:round;stroke:rgb(0%,0%,0%);stroke-opacity:1;stroke-miterlimit:10;" d="M 294.773438 732.398438 L 294.773438 742.5 " transform="matrix(1.333333,0,0,1.333333,-136,-936)"/>
<path style="fill:none;stroke-width:1;stroke-linecap:butt;stroke-linejoin:miter;stroke:rgb(0%,0%,0%);stroke-opacity:1;stroke-miterlimit:10;" d="M 294.773438 728.399414 L 294.773438 732.398438 M 293.273438 732.398438 L 294.773438 728.399414 L 296.273438 732.398438 " transform="matrix(1.333333,0,0,1.333333,-136,-936)"/>
<path style=" stroke:none;fill-rule:nonzero;fill:rgb(0%,0%,0%);fill-opacity:1;" d="M 212.34375 72.8125 C 212.34375 72.457031 212.050781 72.125 211.695312 72.125 C 211.320312 72.125 211.03125 72.4375 211.03125 72.8125 C 211.03125 73.1875 211.300781 73.457031 211.675781 73.457031 C 212.050781 73.457031 212.34375 73.167969 212.34375 72.8125 Z M 208.363281 72.8125 C 208.363281 72.457031 208.050781 72.125 207.695312 72.125 C 207.320312 72.125 207.03125 72.4375 207.03125 72.8125 C 207.03125 73.1875 207.320312 73.457031 207.675781 73.457031 C 208.050781 73.457031 208.363281 73.167969 208.363281 72.8125 Z M 204.363281 72.8125 C 204.363281 72.457031 204.050781 72.125 203.695312 72.125 C 203.320312 72.125 203.03125 72.4375 203.03125 72.8125 C 203.03125 73.1875 203.320312 73.457031 203.695312 73.457031 C 204.050781 73.457031 204.363281 73.167969 204.363281 72.8125 Z M 204.363281 72.8125 "/>
<path style="fill:none;stroke-width:1;stroke-linecap:round;stroke-linejoin:round;stroke:rgb(0%,0%,0%);stroke-opacity:1;stroke-miterlimit:10;" d="M 179.636719 754.5 L 202.87207 754.5 " transform="matrix(1.333333,0,0,1.333333,-136,-936)"/>
<path style="fill:none;stroke-width:1;stroke-linecap:butt;stroke-linejoin:miter;stroke:rgb(0%,0%,0%);stroke-opacity:1;stroke-miterlimit:10;" d="M 206.871094 754.5 L 202.87207 754.5 M 202.87207 753 L 206.871094 754.5 L 202.87207 756 " transform="matrix(1.333333,0,0,1.333333,-136,-936)"/>
<path style="fill:none;stroke-width:1;stroke-linecap:round;stroke-linejoin:round;stroke:rgb(0%,0%,0%);stroke-opacity:1;stroke-miterlimit:10;" d="M 232.772461 754.5 L 242.370117 754.5 " transform="matrix(1.333333,0,0,1.333333,-136,-936)"/>
<path style="fill:none;stroke-width:1;stroke-linecap:butt;stroke-linejoin:miter;stroke:rgb(0%,0%,0%);stroke-opacity:1;stroke-miterlimit:10;" d="M 246.37207 754.5 L 242.370117 754.5 M 242.370117 753 L 246.37207 754.5 L 242.370117 756 " transform="matrix(1.333333,0,0,1.333333,-136,-936)"/>
<path style="fill:none;stroke-width:1;stroke-linecap:round;stroke-linejoin:round;stroke:rgb(0%,0%,0%);stroke-opacity:1;stroke-miterlimit:10;" d="M 267.272461 754.5 L 276.870117 754.5 " transform="matrix(1.333333,0,0,1.333333,-136,-936)"/>
<path style="fill:none;stroke-width:1;stroke-linecap:butt;stroke-linejoin:miter;stroke:rgb(0%,0%,0%);stroke-opacity:1;stroke-miterlimit:10;" d="M 280.87207 754.5 L 276.870117 754.5 M 276.870117 753 L 280.87207 754.5 L 276.870117 756 " transform="matrix(1.333333,0,0,1.333333,-136,-936)"/>
<path style="fill-rule:nonzero;fill:rgb(69.803923%,85.09804%,100%);fill-opacity:1;stroke-width:1;stroke-linecap:round;stroke-linejoin:round;stroke:rgb(0%,0%,0%);stroke-opacity:1;stroke-miterlimit:10;" d="M 102.500977 702.500977 L 126.500977 702.500977 L 126.500977 726.500977 L 102.500977 726.500977 Z M 102.500977 702.500977 " transform="matrix(1.333333,0,0,1.333333,-136,-936)"/>
<path style=" stroke:none;fill-rule:nonzero;fill:rgb(0%,0%,0%);fill-opacity:1;" d="M 14.917969 13.75 C 14.753906 12.917969 14.605469 12.707031 14.316406 12.707031 C 14.023438 12.707031 13.628906 12.792969 12.898438 13.0625 L 12.773438 13.105469 L 12.816406 13.292969 L 13.023438 13.230469 C 13.253906 13.167969 13.398438 13.144531 13.480469 13.144531 C 13.792969 13.144531 13.878906 13.25 14.042969 13.957031 L 14.378906 15.457031 L 13.398438 16.855469 C 13.148438 17.207031 12.917969 17.4375 12.773438 17.4375 C 12.710938 17.4375 12.585938 17.394531 12.460938 17.332031 C 12.316406 17.25 12.191406 17.1875 12.085938 17.1875 C 11.855469 17.1875 11.667969 17.394531 11.667969 17.625 C 11.667969 17.9375 11.898438 18.125 12.273438 18.125 C 12.648438 18.125 12.898438 18.019531 13.417969 17.3125 L 14.480469 15.894531 L 14.816406 17.3125 C 14.960938 17.917969 15.148438 18.125 15.523438 18.125 C 15.980469 18.125 16.292969 17.855469 17.003906 16.769531 L 16.816406 16.644531 C 16.710938 16.769531 16.667969 16.855469 16.566406 17 C 16.292969 17.355469 16.148438 17.480469 16.003906 17.480469 C 15.835938 17.480469 15.730469 17.3125 15.648438 16.980469 L 15.253906 15.375 C 15.191406 15.082031 15.148438 14.917969 15.148438 14.832031 C 15.691406 13.917969 16.128906 13.375 16.335938 13.375 C 16.628906 13.375 16.730469 13.582031 16.960938 13.582031 C 17.191406 13.582031 17.355469 13.394531 17.355469 13.144531 C 17.355469 12.894531 17.167969 12.707031 16.878906 12.707031 C 16.355469 12.707031 15.898438 13.144531 15.066406 14.417969 Z M 14.917969 13.75 "/>
<path style=" stroke:none;fill-rule:nonzero;fill:rgb(0%,0%,0%);fill-opacity:1;" d="M 20.476562 23.332031 L 20.476562 23.207031 C 19.871094 23.207031 19.726562 23.0625 19.726562 22.730469 L 19.726562 17.957031 L 19.644531 17.917969 L 18.226562 18.644531 L 18.226562 18.769531 L 18.433594 18.6875 C 18.582031 18.625 18.707031 18.582031 18.789062 18.582031 C 18.957031 18.582031 19.039062 18.707031 19.039062 18.980469 L 19.039062 22.582031 C 19.039062 23.019531 18.871094 23.1875 18.269531 23.207031 L 18.269531 23.332031 Z M 20.476562 23.332031 "/>
<path style="fill:none;stroke-width:1;stroke-linecap:round;stroke-linejoin:round;stroke:rgb(0%,0%,0%);stroke-opacity:1;stroke-miterlimit:10;" d="M 102.500977 742.5 L 126.500977 742.5 L 126.500977 766.5 L 102.500977 766.5 Z M 102.500977 742.5 " transform="matrix(1.333333,0,0,1.333333,-136,-936)"/>
<path style=" stroke:none;fill-rule:nonzero;fill:rgb(0%,0%,0%);fill-opacity:1;" d="M 17.25 72.582031 C 16.605469 73.394531 16.457031 73.542969 16.269531 73.542969 C 16.144531 73.542969 16.0625 73.457031 16.0625 73.332031 C 16.0625 73.1875 16.269531 72.457031 16.457031 71.832031 C 16.832031 70.707031 17.042969 69.8125 17.042969 69.519531 C 17.042969 69.0625 16.8125 68.707031 16.269531 68.707031 C 15.519531 68.707031 14.582031 69.480469 13.5 71.25 L 14.957031 65.875 L 14.875 65.8125 C 14.167969 65.957031 13.707031 66.042969 12.980469 66.125 L 12.980469 66.3125 L 13.3125 66.3125 C 13.519531 66.3125 13.8125 66.394531 13.8125 66.605469 C 13.8125 66.769531 13.75 66.980469 13.644531 67.355469 L 11.894531 74 L 12.792969 74 C 13.269531 72.144531 13.457031 71.730469 13.9375 71 C 14.5625 70.042969 15.332031 69.3125 15.769531 69.3125 C 16.042969 69.3125 16.105469 69.4375 16.105469 69.625 C 16.105469 69.667969 16.0625 69.832031 16.019531 70.019531 L 15.355469 72.5 C 15.207031 73.082031 15.125 73.457031 15.125 73.605469 C 15.125 73.917969 15.332031 74.105469 15.644531 74.105469 C 16.269531 74.105469 16.667969 73.792969 17.394531 72.75 Z M 17.25 72.582031 "/>
<path style=" stroke:none;fill-rule:nonzero;fill:rgb(0%,0%,0%);fill-opacity:1;" d="M 20.8125 78 L 20.8125 77.875 C 20.207031 77.875 20.0625 77.730469 20.0625 77.394531 L 20.0625 72.625 L 19.980469 72.582031 L 18.5625 73.3125 L 18.5625 73.4375 L 18.769531 73.355469 C 18.917969 73.292969 19.042969 73.25 19.125 73.25 C 19.292969 73.25 19.375 73.375 19.375 73.644531 L 19.375 77.25 C 19.375 77.6875 19.207031 77.855469 18.605469 77.875 L 18.605469 78 Z M 20.8125 78 "/>
<path style="fill:none;stroke-width:1;stroke-linecap:round;stroke-linejoin:round;stroke:rgb(0%,0%,0%);stroke-opacity:1;stroke-miterlimit:10;" d="M 114.500977 732.398438 L 114.500977 742.5 " transform="matrix(1.333333,0,0,1.333333,-136,-936)"/>
<path style="fill:none;stroke-width:1;stroke-linecap:butt;stroke-linejoin:miter;stroke:rgb(0%,0%,0%);stroke-opacity:1;stroke-miterlimit:10;" d="M 114.500977 728.399414 L 114.500977 732.398438 M 113.000977 732.398438 L 114.500977 728.399414 L 116.000977 732.398438 " transform="matrix(1.333333,0,0,1.333333,-136,-936)"/>
<path style="fill:none;stroke-width:1;stroke-linecap:round;stroke-linejoin:round;stroke:rgb(0%,0%,0%);stroke-opacity:1;stroke-miterlimit:10;" d="M 126.500977 754.5 L 149.733398 754.5 " transform="matrix(1.333333,0,0,1.333333,-136,-936)"/>
<path style="fill:none;stroke-width:1;stroke-linecap:butt;stroke-linejoin:miter;stroke:rgb(0%,0%,0%);stroke-opacity:1;stroke-miterlimit:10;" d="M 153.735352 754.5 L 149.733398 754.5 M 149.733398 753 L 153.735352 754.5 L 149.733398 756 " transform="matrix(1.333333,0,0,1.333333,-136,-936)"/>
</g>
</svg>
