<?xml version="1.0" encoding="UTF-8"?>
<svg xmlns="http://www.w3.org/2000/svg" xmlns:xlink="http://www.w3.org/1999/xlink" width="481.333333" height="270.666667" viewBox="0 0 481.333333 270.666667" version="1.1">
<g id="surface1">
<path style="fill:none;stroke-width:1;stroke-linecap:round;stroke-linejoin:round;stroke:rgb(0%,0%,0%);stroke-opacity:1;stroke-miterlimit:10;" d="M 174.389648 93.454102 L 174.389648 36.550781 " transform="matrix(1.333333,0,0,1.333333,-144,68)"/>
<path style="fill:none;stroke-width:1;stroke-linecap:butt;stroke-linejoin:miter;stroke:rgb(0%,0%,0%);stroke-opacity:1;stroke-miterlimit:10;" d="M 174.389648 32.551758 L 174.389648 36.550781 M 172.889648 36.550781 L 174.389648 32.551758 L 175.889648 36.550781 " transform="matrix(1.333333,0,0,1.333333,-144,68)"/>
<path style=" stroke:none;fill-rule:nonzero;fill:rgb(0%,0%,0%);fill-opacity:1;" d="M 197.519531 94.65625 L 197.519531 95.445312 L 201.832031 95.445312 L 201.832031 96.570312 L 198.207031 96.570312 L 198.207031 97.363281 L 201.832031 97.363281 L 201.832031 98.507812 L 197.105469 98.507812 L 197.105469 99.28125 L 200.957031 99.28125 C 200.0625 100.34375 198.667969 101.175781 196.75 101.863281 L 197.207031 102.59375 C 198.019531 102.28125 198.75 101.925781 199.394531 101.53125 L 199.394531 103.40625 C 199.394531 103.59375 199.25 103.738281 199 103.84375 L 199.292969 104.570312 C 200.582031 104.257812 201.832031 103.863281 203.082031 103.363281 L 202.917969 102.550781 C 202.019531 102.90625 201.144531 103.238281 200.25 103.507812 L 200.25 100.945312 C 200.894531 100.445312 201.4375 99.882812 201.855469 99.28125 L 202.292969 99.28125 C 203.292969 101.882812 204.917969 103.65625 207.144531 104.550781 L 207.605469 103.78125 C 206.5 103.363281 205.542969 102.738281 204.75 101.882812 C 205.519531 101.550781 206.1875 101.070312 206.8125 100.46875 L 206.207031 99.882812 C 205.582031 100.550781 204.9375 101.03125 204.269531 101.34375 C 203.792969 100.738281 203.394531 100.050781 203.082031 99.28125 L 207.4375 99.28125 L 207.4375 98.507812 L 202.707031 98.507812 L 202.707031 97.363281 L 206.332031 97.363281 L 206.332031 96.570312 L 202.707031 96.570312 L 202.707031 95.445312 L 207.019531 95.445312 L 207.019531 94.65625 L 202.707031 94.65625 L 202.707031 93.632812 L 201.832031 93.632812 L 201.832031 94.65625 Z M 197.519531 94.65625 "/>
<path style=" stroke:none;fill-rule:nonzero;fill:rgb(0%,0%,0%);fill-opacity:1;" d="M 213.625 104.46875 C 214.375 104.46875 214.75 104.09375 214.75 103.363281 L 214.75 98.15625 L 219.375 98.15625 L 219.375 97.300781 L 209.167969 97.300781 L 209.167969 98.15625 L 213.875 98.15625 L 213.875 103.15625 C 213.875 103.488281 213.6875 103.675781 213.332031 103.675781 C 212.875 103.675781 212.417969 103.65625 211.917969 103.613281 L 212.082031 104.46875 Z M 211 99.488281 C 210.582031 100.945312 209.917969 102.28125 209 103.46875 L 209.75 103.945312 C 210.667969 102.738281 211.355469 101.320312 211.855469 99.65625 Z M 217.332031 99.363281 L 216.5625 99.632812 C 217.332031 100.84375 218.042969 102.257812 218.6875 103.84375 L 219.480469 103.488281 C 218.875 102.03125 218.167969 100.65625 217.332031 99.363281 Z M 210.269531 94.257812 L 210.269531 95.09375 L 218.3125 95.09375 L 218.3125 94.257812 Z M 210.269531 94.257812 "/>
<path style=" stroke:none;fill-rule:nonzero;fill:rgb(0%,0%,0%);fill-opacity:1;" d="M 220.605469 104.550781 L 221.3125 104.46875 C 221.394531 104.875 221.53125 105.164062 221.730469 105.34375 C 221.921875 105.507812 222.15625 105.59375 222.4375 105.59375 C 222.769531 105.59375 223.046875 105.484375 223.269531 105.257812 C 223.488281 105.023438 223.605469 104.738281 223.605469 104.40625 C 223.605469 104.070312 223.5 103.800781 223.292969 103.59375 C 223.082031 103.382812 222.816406 103.28125 222.5 103.28125 C 222.359375 103.28125 222.191406 103.3125 222 103.363281 L 222.0625 102.738281 C 222.113281 102.753906 222.15625 102.757812 222.1875 102.757812 C 222.480469 102.757812 222.738281 102.6875 222.980469 102.53125 C 223.230469 102.363281 223.355469 102.125 223.355469 101.800781 C 223.355469 101.539062 223.261719 101.320312 223.082031 101.15625 C 222.917969 100.988281 222.691406 100.90625 222.417969 100.90625 C 222.136719 100.90625 221.90625 100.988281 221.730469 101.15625 C 221.546875 101.320312 221.425781 101.582031 221.375 101.925781 L 220.6875 101.800781 C 220.769531 101.332031 220.964844 100.96875 221.269531 100.71875 C 221.574219 100.457031 221.949219 100.320312 222.394531 100.320312 C 222.714844 100.320312 223.003906 100.394531 223.269531 100.53125 C 223.53125 100.65625 223.734375 100.835938 223.875 101.070312 C 224.011719 101.3125 224.082031 101.550781 224.082031 101.800781 C 224.082031 102.050781 224.011719 102.28125 223.875 102.488281 C 223.75 102.6875 223.550781 102.84375 223.292969 102.96875 C 223.625 103.050781 223.878906 103.21875 224.0625 103.46875 C 224.253906 103.707031 224.355469 104.007812 224.355469 104.382812 C 224.355469 104.882812 224.171875 105.3125 223.8125 105.65625 C 223.449219 106.003906 222.988281 106.175781 222.4375 106.175781 C 221.921875 106.175781 221.5 106.03125 221.167969 105.738281 C 220.84375 105.4375 220.65625 105.039062 220.605469 104.550781 Z M 220.605469 104.550781 "/>
<path style=" stroke:none;fill-rule:nonzero;fill:rgb(0%,0%,0%);fill-opacity:1;" d="M 7.226562 94.65625 L 7.226562 95.445312 L 11.539062 95.445312 L 11.539062 96.570312 L 7.914062 96.570312 L 7.914062 97.363281 L 11.539062 97.363281 L 11.539062 98.507812 L 6.808594 98.507812 L 6.808594 99.28125 L 10.664062 99.28125 C 9.769531 100.34375 8.371094 101.175781 6.457031 101.863281 L 6.914062 102.59375 C 7.726562 102.28125 8.457031 101.925781 9.101562 101.53125 L 9.101562 103.40625 C 9.101562 103.59375 8.957031 103.738281 8.707031 103.84375 L 8.996094 104.570312 C 10.289062 104.257812 11.539062 103.863281 12.789062 103.363281 L 12.621094 102.550781 C 11.726562 102.90625 10.851562 103.238281 9.957031 103.507812 L 9.957031 100.945312 C 10.601562 100.445312 11.144531 99.882812 11.558594 99.28125 L 11.996094 99.28125 C 12.996094 101.882812 14.621094 103.65625 16.851562 104.550781 L 17.308594 103.78125 C 16.207031 103.363281 15.246094 102.738281 14.457031 101.882812 C 15.226562 101.550781 15.894531 101.070312 16.519531 100.46875 L 15.914062 99.882812 C 15.289062 100.550781 14.644531 101.03125 13.976562 101.34375 C 13.496094 100.738281 13.101562 100.050781 12.789062 99.28125 L 17.144531 99.28125 L 17.144531 98.507812 L 12.414062 98.507812 L 12.414062 97.363281 L 16.039062 97.363281 L 16.039062 96.570312 L 12.414062 96.570312 L 12.414062 95.445312 L 16.726562 95.445312 L 16.726562 94.65625 L 12.414062 94.65625 L 12.414062 93.632812 L 11.539062 93.632812 L 11.539062 94.65625 Z M 7.226562 94.65625 "/>
<path style=" stroke:none;fill-rule:nonzero;fill:rgb(0%,0%,0%);fill-opacity:1;" d="M 23.332031 104.46875 C 24.082031 104.46875 24.457031 104.09375 24.457031 103.363281 L 24.457031 98.15625 L 29.082031 98.15625 L 29.082031 97.300781 L 18.871094 97.300781 L 18.871094 98.15625 L 23.582031 98.15625 L 23.582031 103.15625 C 23.582031 103.488281 23.394531 103.675781 23.039062 103.675781 C 22.582031 103.675781 22.121094 103.65625 21.621094 103.613281 L 21.789062 104.46875 Z M 20.707031 99.488281 C 20.289062 100.945312 19.621094 102.28125 18.707031 103.46875 L 19.457031 103.945312 C 20.371094 102.738281 21.058594 101.320312 21.558594 99.65625 Z M 27.039062 99.363281 L 26.269531 99.632812 C 27.039062 100.84375 27.746094 102.257812 28.394531 103.84375 L 29.183594 103.488281 C 28.582031 102.03125 27.871094 100.65625 27.039062 99.363281 Z M 19.976562 94.257812 L 19.976562 95.09375 L 28.019531 95.09375 L 28.019531 94.257812 Z M 19.976562 94.257812 "/>
<path style=" stroke:none;fill-rule:nonzero;fill:rgb(0%,0%,0%);fill-opacity:1;" d="M 30.414062 103.570312 L 30.414062 102.90625 L 34.207031 101.300781 L 34.207031 102.007812 L 31.207031 103.238281 L 34.207031 104.488281 L 34.207031 105.195312 Z M 30.414062 103.570312 "/>
<path style=" stroke:none;fill-rule:nonzero;fill:rgb(0%,0%,0%);fill-opacity:1;" d="M 37.878906 104.550781 L 38.566406 104.632812 C 38.492188 105.125 38.300781 105.503906 37.980469 105.78125 C 37.675781 106.046875 37.300781 106.175781 36.855469 106.175781 C 36.285156 106.175781 35.824219 105.988281 35.480469 105.613281 C 35.132812 105.238281 34.960938 104.707031 34.960938 104.007812 C 34.960938 103.566406 35.027344 103.175781 35.167969 102.84375 C 35.320312 102.507812 35.550781 102.257812 35.855469 102.09375 C 36.160156 101.914062 36.492188 101.820312 36.855469 101.820312 C 37.300781 101.820312 37.660156 101.941406 37.941406 102.175781 C 38.230469 102.398438 38.417969 102.71875 38.503906 103.132812 L 37.816406 103.238281 C 37.757812 102.960938 37.648438 102.753906 37.480469 102.613281 C 37.316406 102.476562 37.113281 102.40625 36.878906 102.40625 C 36.527344 102.40625 36.242188 102.539062 36.023438 102.800781 C 35.800781 103.050781 35.691406 103.445312 35.691406 103.988281 C 35.691406 104.546875 35.792969 104.957031 36.003906 105.21875 C 36.210938 105.46875 36.488281 105.59375 36.835938 105.59375 C 37.113281 105.59375 37.339844 105.507812 37.523438 105.34375 C 37.714844 105.164062 37.835938 104.898438 37.878906 104.550781 Z M 37.878906 104.550781 "/>
<path style=" stroke:none;fill-rule:nonzero;fill:rgb(0%,0%,0%);fill-opacity:1;" d="M 39.167969 106.070312 L 39.167969 100.34375 L 39.855469 100.34375 L 39.855469 106.070312 Z M 39.167969 106.070312 "/>
<path style=" stroke:none;fill-rule:nonzero;fill:rgb(0%,0%,0%);fill-opacity:1;" d="M 40.675781 104.84375 L 41.363281 104.71875 C 41.40625 105 41.515625 105.210938 41.695312 105.363281 C 41.875 105.519531 42.125 105.59375 42.445312 105.59375 C 42.765625 105.59375 43 105.53125 43.15625 105.40625 C 43.320312 105.269531 43.40625 105.109375 43.40625 104.925781 C 43.40625 104.773438 43.332031 104.648438 43.195312 104.550781 C 43.097656 104.5 42.851562 104.421875 42.46875 104.320312 C 41.953125 104.1875 41.59375 104.070312 41.382812 103.988281 C 41.1875 103.894531 41.035156 103.757812 40.925781 103.59375 C 40.828125 103.414062 40.78125 103.226562 40.78125 103.03125 C 40.78125 102.835938 40.820312 102.664062 40.90625 102.507812 C 41 102.359375 41.117188 102.226562 41.257812 102.113281 C 41.367188 102.03125 41.515625 101.960938 41.695312 101.90625 C 41.890625 101.851562 42.097656 101.820312 42.320312 101.820312 C 42.640625 101.820312 42.925781 101.875 43.175781 101.96875 C 43.425781 102.066406 43.601562 102.195312 43.71875 102.363281 C 43.84375 102.519531 43.925781 102.726562 43.96875 102.988281 L 43.28125 103.09375 C 43.238281 102.875 43.140625 102.707031 42.988281 102.59375 C 42.847656 102.46875 42.640625 102.40625 42.363281 102.40625 C 42.039062 102.40625 41.8125 102.460938 41.675781 102.570312 C 41.535156 102.671875 41.46875 102.796875 41.46875 102.945312 C 41.46875 103.03125 41.492188 103.113281 41.550781 103.195312 C 41.601562 103.269531 41.695312 103.332031 41.820312 103.382812 C 41.890625 103.398438 42.097656 103.457031 42.445312 103.550781 C 42.945312 103.691406 43.289062 103.800781 43.488281 103.882812 C 43.679688 103.96875 43.832031 104.09375 43.945312 104.257812 C 44.054688 104.414062 44.113281 104.609375 44.113281 104.84375 C 44.113281 105.082031 44.039062 105.300781 43.90625 105.507812 C 43.78125 105.71875 43.582031 105.882812 43.320312 106.007812 C 43.054688 106.117188 42.765625 106.175781 42.445312 106.175781 C 41.90625 106.175781 41.488281 106.066406 41.195312 105.84375 C 40.914062 105.609375 40.742188 105.273438 40.675781 104.84375 Z M 40.675781 104.84375 "/>
<path style=" stroke:none;fill-rule:nonzero;fill:rgb(0%,0%,0%);fill-opacity:1;" d="M 48.65625 103.570312 L 44.863281 105.195312 L 44.863281 104.488281 L 47.863281 103.238281 L 44.863281 102.007812 L 44.863281 101.300781 L 48.65625 102.90625 Z M 48.65625 103.570312 "/>
<path style=" stroke:none;fill-rule:nonzero;fill:rgb(0%,0%,0%);fill-opacity:1;" d="M 75.546875 94.65625 L 75.546875 95.445312 L 79.859375 95.445312 L 79.859375 96.570312 L 76.234375 96.570312 L 76.234375 97.363281 L 79.859375 97.363281 L 79.859375 98.507812 L 75.132812 98.507812 L 75.132812 99.28125 L 78.984375 99.28125 C 78.089844 100.34375 76.695312 101.175781 74.777344 101.863281 L 75.234375 102.59375 C 76.046875 102.28125 76.777344 101.925781 77.421875 101.53125 L 77.421875 103.40625 C 77.421875 103.59375 77.277344 103.738281 77.027344 103.84375 L 77.320312 104.570312 C 78.609375 104.257812 79.859375 103.863281 81.109375 103.363281 L 80.945312 102.550781 C 80.046875 102.90625 79.171875 103.238281 78.277344 103.507812 L 78.277344 100.945312 C 78.921875 100.445312 79.464844 99.882812 79.882812 99.28125 L 80.320312 99.28125 C 81.320312 101.882812 82.945312 103.65625 85.171875 104.550781 L 85.632812 103.78125 C 84.527344 103.363281 83.570312 102.738281 82.777344 101.882812 C 83.546875 101.550781 84.214844 101.070312 84.839844 100.46875 L 84.234375 99.882812 C 83.609375 100.550781 82.964844 101.03125 82.296875 101.34375 C 81.820312 100.738281 81.421875 100.050781 81.109375 99.28125 L 85.464844 99.28125 L 85.464844 98.507812 L 80.734375 98.507812 L 80.734375 97.363281 L 84.359375 97.363281 L 84.359375 96.570312 L 80.734375 96.570312 L 80.734375 95.445312 L 85.046875 95.445312 L 85.046875 94.65625 L 80.734375 94.65625 L 80.734375 93.632812 L 79.859375 93.632812 L 79.859375 94.65625 Z M 75.546875 94.65625 "/>
<path style=" stroke:none;fill-rule:nonzero;fill:rgb(0%,0%,0%);fill-opacity:1;" d="M 91.652344 104.46875 C 92.402344 104.46875 92.777344 104.09375 92.777344 103.363281 L 92.777344 98.15625 L 97.402344 98.15625 L 97.402344 97.300781 L 87.195312 97.300781 L 87.195312 98.15625 L 91.902344 98.15625 L 91.902344 103.15625 C 91.902344 103.488281 91.714844 103.675781 91.359375 103.675781 C 90.902344 103.675781 90.445312 103.65625 89.945312 103.613281 L 90.109375 104.46875 Z M 89.027344 99.488281 C 88.609375 100.945312 87.945312 102.28125 87.027344 103.46875 L 87.777344 103.945312 C 88.695312 102.738281 89.382812 101.320312 89.882812 99.65625 Z M 95.359375 99.363281 L 94.589844 99.632812 C 95.359375 100.84375 96.070312 102.257812 96.714844 103.84375 L 97.507812 103.488281 C 96.902344 102.03125 96.195312 100.65625 95.359375 99.363281 Z M 88.296875 94.257812 L 88.296875 95.09375 L 96.339844 95.09375 L 96.339844 94.257812 Z M 88.296875 94.257812 "/>
<path style=" stroke:none;fill-rule:nonzero;fill:rgb(0%,0%,0%);fill-opacity:1;" d="M 101.277344 106.070312 L 100.570312 106.070312 L 100.570312 101.59375 C 100.402344 101.757812 100.179688 101.925781 99.902344 102.09375 C 99.636719 102.25 99.390625 102.363281 99.171875 102.445312 L 99.171875 101.757812 C 99.558594 101.582031 99.902344 101.359375 100.195312 101.09375 C 100.496094 100.832031 100.703125 100.570312 100.820312 100.320312 L 101.277344 100.320312 Z M 101.277344 106.070312 "/>
<path style=" stroke:none;fill-rule:nonzero;fill:rgb(0%,0%,0%);fill-opacity:1;" d="M 136.535156 94.65625 L 136.535156 95.445312 L 140.847656 95.445312 L 140.847656 96.570312 L 137.222656 96.570312 L 137.222656 97.363281 L 140.847656 97.363281 L 140.847656 98.507812 L 136.117188 98.507812 L 136.117188 99.28125 L 139.972656 99.28125 C 139.078125 100.34375 137.679688 101.175781 135.765625 101.863281 L 136.222656 102.59375 C 137.035156 102.28125 137.765625 101.925781 138.410156 101.53125 L 138.410156 103.40625 C 138.410156 103.59375 138.265625 103.738281 138.015625 103.84375 L 138.304688 104.570312 C 139.597656 104.257812 140.847656 103.863281 142.097656 103.363281 L 141.929688 102.550781 C 141.035156 102.90625 140.160156 103.238281 139.265625 103.507812 L 139.265625 100.945312 C 139.910156 100.445312 140.453125 99.882812 140.867188 99.28125 L 141.304688 99.28125 C 142.304688 101.882812 143.929688 103.65625 146.160156 104.550781 L 146.617188 103.78125 C 145.515625 103.363281 144.554688 102.738281 143.765625 101.882812 C 144.535156 101.550781 145.203125 101.070312 145.828125 100.46875 L 145.222656 99.882812 C 144.597656 100.550781 143.953125 101.03125 143.285156 101.34375 C 142.804688 100.738281 142.410156 100.050781 142.097656 99.28125 L 146.453125 99.28125 L 146.453125 98.507812 L 141.722656 98.507812 L 141.722656 97.363281 L 145.347656 97.363281 L 145.347656 96.570312 L 141.722656 96.570312 L 141.722656 95.445312 L 146.035156 95.445312 L 146.035156 94.65625 L 141.722656 94.65625 L 141.722656 93.632812 L 140.847656 93.632812 L 140.847656 94.65625 Z M 136.535156 94.65625 "/>
<path style=" stroke:none;fill-rule:nonzero;fill:rgb(0%,0%,0%);fill-opacity:1;" d="M 152.640625 104.46875 C 153.390625 104.46875 153.765625 104.09375 153.765625 103.363281 L 153.765625 98.15625 L 158.390625 98.15625 L 158.390625 97.300781 L 148.179688 97.300781 L 148.179688 98.15625 L 152.890625 98.15625 L 152.890625 103.15625 C 152.890625 103.488281 152.703125 103.675781 152.347656 103.675781 C 151.890625 103.675781 151.429688 103.65625 150.929688 103.613281 L 151.097656 104.46875 Z M 150.015625 99.488281 C 149.597656 100.945312 148.929688 102.28125 148.015625 103.46875 L 148.765625 103.945312 C 149.679688 102.738281 150.367188 101.320312 150.867188 99.65625 Z M 156.347656 99.363281 L 155.578125 99.632812 C 156.347656 100.84375 157.054688 102.257812 157.703125 103.84375 L 158.492188 103.488281 C 157.890625 102.03125 157.179688 100.65625 156.347656 99.363281 Z M 149.285156 94.257812 L 149.285156 95.09375 L 157.328125 95.09375 L 157.328125 94.257812 Z M 149.285156 94.257812 "/>
<path style=" stroke:none;fill-rule:nonzero;fill:rgb(0%,0%,0%);fill-opacity:1;" d="M 163.304688 105.40625 L 163.304688 106.070312 L 159.535156 106.070312 C 159.519531 105.90625 159.546875 105.75 159.617188 105.59375 C 159.710938 105.332031 159.867188 105.070312 160.078125 104.820312 C 160.285156 104.570312 160.585938 104.28125 160.992188 103.945312 C 161.617188 103.445312 162.035156 103.050781 162.242188 102.757812 C 162.460938 102.457031 162.578125 102.171875 162.578125 101.90625 C 162.578125 101.613281 162.476562 101.378906 162.285156 101.195312 C 162.085938 101.003906 161.832031 100.90625 161.515625 100.90625 C 161.164062 100.90625 160.890625 101.007812 160.679688 101.21875 C 160.484375 101.414062 160.390625 101.691406 160.390625 102.050781 L 159.660156 101.96875 C 159.710938 101.441406 159.898438 101.039062 160.222656 100.757812 C 160.539062 100.46875 160.972656 100.320312 161.515625 100.320312 C 162.066406 100.320312 162.503906 100.476562 162.828125 100.78125 C 163.144531 101.085938 163.304688 101.460938 163.304688 101.90625 C 163.304688 102.144531 163.253906 102.375 163.160156 102.59375 C 163.0625 102.816406 162.898438 103.050781 162.679688 103.300781 C 162.472656 103.539062 162.117188 103.875 161.617188 104.300781 C 161.1875 104.648438 160.910156 104.882812 160.785156 105.007812 C 160.671875 105.132812 160.582031 105.269531 160.515625 105.40625 Z M 163.304688 105.40625 "/>
<path style=" stroke:none;fill-rule:nonzero;fill:rgb(0%,0%,0%);fill-opacity:1;" d="M 258.507812 94.65625 L 258.507812 95.445312 L 262.820312 95.445312 L 262.820312 96.570312 L 259.195312 96.570312 L 259.195312 97.363281 L 262.820312 97.363281 L 262.820312 98.507812 L 258.089844 98.507812 L 258.089844 99.28125 L 261.945312 99.28125 C 261.046875 100.34375 259.652344 101.175781 257.734375 101.863281 L 258.195312 102.59375 C 259.007812 102.28125 259.734375 101.925781 260.382812 101.53125 L 260.382812 103.40625 C 260.382812 103.59375 260.234375 103.738281 259.984375 103.84375 L 260.277344 104.570312 C 261.570312 104.257812 262.820312 103.863281 264.070312 103.363281 L 263.902344 102.550781 C 263.007812 102.90625 262.132812 103.238281 261.234375 103.507812 L 261.234375 100.945312 C 261.882812 100.445312 262.421875 99.882812 262.839844 99.28125 L 263.277344 99.28125 C 264.277344 101.882812 265.902344 103.65625 268.132812 104.550781 L 268.589844 103.78125 C 267.484375 103.363281 266.527344 102.738281 265.734375 101.882812 C 266.507812 101.550781 267.171875 101.070312 267.796875 100.46875 L 267.195312 99.882812 C 266.570312 100.550781 265.921875 101.03125 265.257812 101.34375 C 264.777344 100.738281 264.382812 100.050781 264.070312 99.28125 L 268.421875 99.28125 L 268.421875 98.507812 L 263.695312 98.507812 L 263.695312 97.363281 L 267.320312 97.363281 L 267.320312 96.570312 L 263.695312 96.570312 L 263.695312 95.445312 L 268.007812 95.445312 L 268.007812 94.65625 L 263.695312 94.65625 L 263.695312 93.632812 L 262.820312 93.632812 L 262.820312 94.65625 Z M 258.507812 94.65625 "/>
<path style=" stroke:none;fill-rule:nonzero;fill:rgb(0%,0%,0%);fill-opacity:1;" d="M 274.609375 104.46875 C 275.359375 104.46875 275.734375 104.09375 275.734375 103.363281 L 275.734375 98.15625 L 280.359375 98.15625 L 280.359375 97.300781 L 270.152344 97.300781 L 270.152344 98.15625 L 274.859375 98.15625 L 274.859375 103.15625 C 274.859375 103.488281 274.671875 103.675781 274.320312 103.675781 C 273.859375 103.675781 273.402344 103.65625 272.902344 103.613281 L 273.070312 104.46875 Z M 271.984375 99.488281 C 271.570312 100.945312 270.902344 102.28125 269.984375 103.46875 L 270.734375 103.945312 C 271.652344 102.738281 272.339844 101.320312 272.839844 99.65625 Z M 278.320312 99.363281 L 277.546875 99.632812 C 278.320312 100.84375 279.027344 102.257812 279.671875 103.84375 L 280.464844 103.488281 C 279.859375 102.03125 279.152344 100.65625 278.320312 99.363281 Z M 271.257812 94.257812 L 271.257812 95.09375 L 279.296875 95.09375 L 279.296875 94.257812 Z M 271.257812 94.257812 "/>
<path style=" stroke:none;fill-rule:nonzero;fill:rgb(0%,0%,0%);fill-opacity:1;" d="M 283.839844 106.070312 L 283.839844 104.695312 L 281.359375 104.695312 L 281.359375 104.050781 L 283.964844 100.34375 L 284.546875 100.34375 L 284.546875 104.050781 L 285.320312 104.050781 L 285.320312 104.695312 L 284.546875 104.695312 L 284.546875 106.070312 Z M 283.839844 104.050781 L 283.839844 101.46875 L 282.046875 104.050781 Z M 283.839844 104.050781 "/>
<path style=" stroke:none;fill-rule:nonzero;fill:rgb(0%,0%,0%);fill-opacity:1;" d="M 319.492188 94.65625 L 319.492188 95.445312 L 323.804688 95.445312 L 323.804688 96.570312 L 320.179688 96.570312 L 320.179688 97.363281 L 323.804688 97.363281 L 323.804688 98.507812 L 319.074219 98.507812 L 319.074219 99.28125 L 322.929688 99.28125 C 322.035156 100.34375 320.636719 101.175781 318.722656 101.863281 L 319.179688 102.59375 C 319.992188 102.28125 320.722656 101.925781 321.367188 101.53125 L 321.367188 103.40625 C 321.367188 103.59375 321.222656 103.738281 320.972656 103.84375 L 321.261719 104.570312 C 322.554688 104.257812 323.804688 103.863281 325.054688 103.363281 L 324.886719 102.550781 C 323.992188 102.90625 323.117188 103.238281 322.222656 103.507812 L 322.222656 100.945312 C 322.867188 100.445312 323.410156 99.882812 323.824219 99.28125 L 324.261719 99.28125 C 325.261719 101.882812 326.886719 103.65625 329.117188 104.550781 L 329.574219 103.78125 C 328.472656 103.363281 327.511719 102.738281 326.722656 101.882812 C 327.492188 101.550781 328.160156 101.070312 328.785156 100.46875 L 328.179688 99.882812 C 327.554688 100.550781 326.910156 101.03125 326.242188 101.34375 C 325.761719 100.738281 325.367188 100.050781 325.054688 99.28125 L 329.410156 99.28125 L 329.410156 98.507812 L 324.679688 98.507812 L 324.679688 97.363281 L 328.304688 97.363281 L 328.304688 96.570312 L 324.679688 96.570312 L 324.679688 95.445312 L 328.992188 95.445312 L 328.992188 94.65625 L 324.679688 94.65625 L 324.679688 93.632812 L 323.804688 93.632812 L 323.804688 94.65625 Z M 319.492188 94.65625 "/>
<path style=" stroke:none;fill-rule:nonzero;fill:rgb(0%,0%,0%);fill-opacity:1;" d="M 335.597656 104.46875 C 336.347656 104.46875 336.722656 104.09375 336.722656 103.363281 L 336.722656 98.15625 L 341.347656 98.15625 L 341.347656 97.300781 L 331.136719 97.300781 L 331.136719 98.15625 L 335.847656 98.15625 L 335.847656 103.15625 C 335.847656 103.488281 335.660156 103.675781 335.304688 103.675781 C 334.847656 103.675781 334.386719 103.65625 333.886719 103.613281 L 334.054688 104.46875 Z M 332.972656 99.488281 C 332.554688 100.945312 331.886719 102.28125 330.972656 103.46875 L 331.722656 103.945312 C 332.636719 102.738281 333.324219 101.320312 333.824219 99.65625 Z M 339.304688 99.363281 L 338.535156 99.632812 C 339.304688 100.84375 340.011719 102.257812 340.660156 103.84375 L 341.449219 103.488281 C 340.847656 102.03125 340.136719 100.65625 339.304688 99.363281 Z M 332.242188 94.257812 L 332.242188 95.09375 L 340.285156 95.09375 L 340.285156 94.257812 Z M 332.242188 94.257812 "/>
<path style=" stroke:none;fill-rule:nonzero;fill:rgb(0%,0%,0%);fill-opacity:1;" d="M 342.574219 104.570312 L 343.304688 104.507812 C 343.355469 104.875 343.480469 105.144531 343.679688 105.320312 C 343.886719 105.503906 344.128906 105.59375 344.410156 105.59375 C 344.753906 105.59375 345.039062 105.46875 345.261719 105.21875 C 345.496094 104.957031 345.617188 104.613281 345.617188 104.195312 C 345.617188 103.796875 345.503906 103.484375 345.285156 103.257812 C 345.058594 103.023438 344.769531 102.90625 344.410156 102.90625 C 344.167969 102.90625 343.960938 102.957031 343.785156 103.050781 C 343.601562 103.148438 343.460938 103.28125 343.367188 103.445312 L 342.699219 103.363281 L 343.261719 100.425781 L 346.097656 100.425781 L 346.097656 101.09375 L 343.824219 101.09375 L 343.511719 102.632812 C 343.855469 102.398438 344.222656 102.28125 344.597656 102.28125 C 345.097656 102.28125 345.511719 102.457031 345.847656 102.800781 C 346.191406 103.148438 346.367188 103.59375 346.367188 104.132812 C 346.367188 104.648438 346.210938 105.09375 345.910156 105.46875 C 345.542969 105.941406 345.042969 106.175781 344.410156 106.175781 C 343.894531 106.175781 343.472656 106.03125 343.136719 105.738281 C 342.804688 105.445312 342.617188 105.0625 342.574219 104.570312 Z M 342.574219 104.570312 "/>
<path style=" stroke:none;fill-rule:nonzero;fill:rgb(0%,0%,0%);fill-opacity:1;" d="M 380.480469 94.65625 L 380.480469 95.445312 L 384.792969 95.445312 L 384.792969 96.570312 L 381.167969 96.570312 L 381.167969 97.363281 L 384.792969 97.363281 L 384.792969 98.507812 L 380.0625 98.507812 L 380.0625 99.28125 L 383.917969 99.28125 C 383.019531 100.34375 381.625 101.175781 379.707031 101.863281 L 380.167969 102.59375 C 380.980469 102.28125 381.707031 101.925781 382.355469 101.53125 L 382.355469 103.40625 C 382.355469 103.59375 382.207031 103.738281 381.957031 103.84375 L 382.25 104.570312 C 383.542969 104.257812 384.792969 103.863281 386.042969 103.363281 L 385.875 102.550781 C 384.980469 102.90625 384.105469 103.238281 383.207031 103.507812 L 383.207031 100.945312 C 383.855469 100.445312 384.394531 99.882812 384.8125 99.28125 L 385.25 99.28125 C 386.25 101.882812 387.875 103.65625 390.105469 104.550781 L 390.5625 103.78125 C 389.457031 103.363281 388.5 102.738281 387.707031 101.882812 C 388.480469 101.550781 389.144531 101.070312 389.769531 100.46875 L 389.167969 99.882812 C 388.542969 100.550781 387.894531 101.03125 387.230469 101.34375 C 386.75 100.738281 386.355469 100.050781 386.042969 99.28125 L 390.394531 99.28125 L 390.394531 98.507812 L 385.667969 98.507812 L 385.667969 97.363281 L 389.292969 97.363281 L 389.292969 96.570312 L 385.667969 96.570312 L 385.667969 95.445312 L 389.980469 95.445312 L 389.980469 94.65625 L 385.667969 94.65625 L 385.667969 93.632812 L 384.792969 93.632812 L 384.792969 94.65625 Z M 380.480469 94.65625 "/>
<path style=" stroke:none;fill-rule:nonzero;fill:rgb(0%,0%,0%);fill-opacity:1;" d="M 396.582031 104.46875 C 397.332031 104.46875 397.707031 104.09375 397.707031 103.363281 L 397.707031 98.15625 L 402.332031 98.15625 L 402.332031 97.300781 L 392.125 97.300781 L 392.125 98.15625 L 396.832031 98.15625 L 396.832031 103.15625 C 396.832031 103.488281 396.644531 103.675781 396.292969 103.675781 C 395.832031 103.675781 395.375 103.65625 394.875 103.613281 L 395.042969 104.46875 Z M 393.957031 99.488281 C 393.542969 100.945312 392.875 102.28125 391.957031 103.46875 L 392.707031 103.945312 C 393.625 102.738281 394.3125 101.320312 394.8125 99.65625 Z M 400.292969 99.363281 L 399.519531 99.632812 C 400.292969 100.84375 401 102.257812 401.644531 103.84375 L 402.4375 103.488281 C 401.832031 102.03125 401.125 100.65625 400.292969 99.363281 Z M 393.230469 94.257812 L 393.230469 95.09375 L 401.269531 95.09375 L 401.269531 94.257812 Z M 393.230469 94.257812 "/>
<path style=" stroke:none;fill-rule:nonzero;fill:rgb(0%,0%,0%);fill-opacity:1;" d="M 407.207031 101.738281 L 406.519531 101.800781 C 406.449219 101.523438 406.359375 101.320312 406.25 101.195312 C 406.050781 101.003906 405.816406 100.90625 405.542969 100.90625 C 405.316406 100.90625 405.125 100.96875 404.957031 101.09375 C 404.734375 101.25 404.550781 101.484375 404.417969 101.800781 C 404.292969 102.109375 404.230469 102.546875 404.230469 103.113281 C 404.394531 102.863281 404.59375 102.675781 404.832031 102.550781 C 405.082031 102.425781 405.34375 102.363281 405.625 102.363281 C 406.09375 102.363281 406.488281 102.539062 406.8125 102.882812 C 407.144531 103.21875 407.3125 103.664062 407.3125 104.21875 C 407.3125 104.582031 407.234375 104.914062 407.082031 105.21875 C 406.925781 105.523438 406.714844 105.757812 406.4375 105.925781 C 406.171875 106.09375 405.863281 106.175781 405.519531 106.175781 C 404.9375 106.175781 404.457031 105.960938 404.082031 105.53125 C 403.707031 105.101562 403.519531 104.382812 403.519531 103.382812 C 403.519531 102.289062 403.730469 101.484375 404.144531 100.96875 C 404.503906 100.539062 404.984375 100.320312 405.582031 100.320312 C 406.042969 100.320312 406.40625 100.445312 406.6875 100.695312 C 406.980469 100.945312 407.152344 101.296875 407.207031 101.738281 Z M 404.332031 104.21875 C 404.332031 104.457031 404.378906 104.6875 404.480469 104.90625 C 404.589844 105.128906 404.734375 105.300781 404.917969 105.425781 C 405.109375 105.539062 405.300781 105.59375 405.5 105.59375 C 405.800781 105.59375 406.0625 105.476562 406.269531 105.238281 C 406.480469 104.988281 406.582031 104.664062 406.582031 104.257812 C 406.582031 103.859375 406.480469 103.546875 406.269531 103.320312 C 406.0625 103.085938 405.796875 102.96875 405.480469 102.96875 C 405.15625 102.96875 404.886719 103.085938 404.667969 103.320312 C 404.441406 103.546875 404.332031 103.84375 404.332031 104.21875 Z M 404.332031 104.21875 "/>
<path style=" stroke:none;fill-rule:nonzero;fill:rgb(0%,0%,0%);fill-opacity:1;" d="M 432.566406 94.65625 L 432.566406 95.445312 L 436.878906 95.445312 L 436.878906 96.570312 L 433.253906 96.570312 L 433.253906 97.363281 L 436.878906 97.363281 L 436.878906 98.507812 L 432.152344 98.507812 L 432.152344 99.28125 L 436.003906 99.28125 C 435.109375 100.34375 433.714844 101.175781 431.796875 101.863281 L 432.253906 102.59375 C 433.066406 102.28125 433.796875 101.925781 434.441406 101.53125 L 434.441406 103.40625 C 434.441406 103.59375 434.296875 103.738281 434.046875 103.84375 L 434.339844 104.570312 C 435.628906 104.257812 436.878906 103.863281 438.128906 103.363281 L 437.964844 102.550781 C 437.066406 102.90625 436.191406 103.238281 435.296875 103.507812 L 435.296875 100.945312 C 435.941406 100.445312 436.484375 99.882812 436.902344 99.28125 L 437.339844 99.28125 C 438.339844 101.882812 439.964844 103.65625 442.191406 104.550781 L 442.652344 103.78125 C 441.546875 103.363281 440.589844 102.738281 439.796875 101.882812 C 440.566406 101.550781 441.234375 101.070312 441.859375 100.46875 L 441.253906 99.882812 C 440.628906 100.550781 439.984375 101.03125 439.316406 101.34375 C 438.839844 100.738281 438.441406 100.050781 438.128906 99.28125 L 442.484375 99.28125 L 442.484375 98.507812 L 437.753906 98.507812 L 437.753906 97.363281 L 441.378906 97.363281 L 441.378906 96.570312 L 437.753906 96.570312 L 437.753906 95.445312 L 442.066406 95.445312 L 442.066406 94.65625 L 437.753906 94.65625 L 437.753906 93.632812 L 436.878906 93.632812 L 436.878906 94.65625 Z M 432.566406 94.65625 "/>
<path style=" stroke:none;fill-rule:nonzero;fill:rgb(0%,0%,0%);fill-opacity:1;" d="M 448.671875 104.46875 C 449.421875 104.46875 449.796875 104.09375 449.796875 103.363281 L 449.796875 98.15625 L 454.421875 98.15625 L 454.421875 97.300781 L 444.214844 97.300781 L 444.214844 98.15625 L 448.921875 98.15625 L 448.921875 103.15625 C 448.921875 103.488281 448.734375 103.675781 448.378906 103.675781 C 447.921875 103.675781 447.464844 103.65625 446.964844 103.613281 L 447.128906 104.46875 Z M 446.046875 99.488281 C 445.628906 100.945312 444.964844 102.28125 444.046875 103.46875 L 444.796875 103.945312 C 445.714844 102.738281 446.402344 101.320312 446.902344 99.65625 Z M 452.378906 99.363281 L 451.609375 99.632812 C 452.378906 100.84375 453.089844 102.257812 453.734375 103.84375 L 454.527344 103.488281 C 453.921875 102.03125 453.214844 100.65625 452.378906 99.363281 Z M 445.316406 94.257812 L 445.316406 95.09375 L 453.359375 95.09375 L 453.359375 94.257812 Z M 445.316406 94.257812 "/>
<path style=" stroke:none;fill-rule:nonzero;fill:rgb(0%,0%,0%);fill-opacity:1;" d="M 455.753906 103.570312 L 455.753906 102.90625 L 459.546875 101.300781 L 459.546875 102.007812 L 456.546875 103.238281 L 459.546875 104.488281 L 459.546875 105.195312 Z M 455.753906 103.570312 "/>
<path style=" stroke:none;fill-rule:nonzero;fill:rgb(0%,0%,0%);fill-opacity:1;" d="M 460.242188 104.84375 L 460.929688 104.71875 C 460.96875 105 461.078125 105.210938 461.261719 105.363281 C 461.4375 105.519531 461.6875 105.59375 462.011719 105.59375 C 462.328125 105.59375 462.5625 105.53125 462.71875 105.40625 C 462.886719 105.269531 462.96875 105.109375 462.96875 104.925781 C 462.96875 104.773438 462.898438 104.648438 462.761719 104.550781 C 462.664062 104.5 462.417969 104.421875 462.03125 104.320312 C 461.515625 104.1875 461.15625 104.070312 460.949219 103.988281 C 460.75 103.894531 460.601562 103.757812 460.492188 103.59375 C 460.390625 103.414062 460.34375 103.226562 460.34375 103.03125 C 460.34375 102.835938 460.386719 102.664062 460.46875 102.507812 C 460.5625 102.359375 460.683594 102.226562 460.824219 102.113281 C 460.933594 102.03125 461.078125 101.960938 461.261719 101.90625 C 461.453125 101.851562 461.664062 101.820312 461.886719 101.820312 C 462.203125 101.820312 462.492188 101.875 462.742188 101.96875 C 462.992188 102.066406 463.167969 102.195312 463.28125 102.363281 C 463.40625 102.519531 463.492188 102.726562 463.53125 102.988281 L 462.84375 103.09375 C 462.804688 102.875 462.703125 102.707031 462.554688 102.59375 C 462.414062 102.46875 462.203125 102.40625 461.929688 102.40625 C 461.605469 102.40625 461.375 102.460938 461.242188 102.570312 C 461.101562 102.671875 461.03125 102.796875 461.03125 102.945312 C 461.03125 103.03125 461.058594 103.113281 461.117188 103.195312 C 461.167969 103.269531 461.261719 103.332031 461.386719 103.382812 C 461.453125 103.398438 461.664062 103.457031 462.011719 103.550781 C 462.511719 103.691406 462.855469 103.800781 463.054688 103.882812 C 463.246094 103.96875 463.398438 104.09375 463.511719 104.257812 C 463.621094 104.414062 463.679688 104.609375 463.679688 104.84375 C 463.679688 105.082031 463.605469 105.300781 463.46875 105.507812 C 463.34375 105.71875 463.148438 105.882812 462.886719 106.007812 C 462.621094 106.117188 462.328125 106.175781 462.011719 106.175781 C 461.46875 106.175781 461.054688 106.066406 460.761719 105.84375 C 460.480469 105.609375 460.308594 105.273438 460.242188 104.84375 Z M 460.242188 104.84375 "/>
<path style=" stroke:none;fill-rule:nonzero;fill:rgb(0%,0%,0%);fill-opacity:1;" d="M 467.367188 104.738281 L 468.09375 104.820312 C 467.96875 105.253906 467.75 105.585938 467.449219 105.820312 C 467.140625 106.0625 466.746094 106.175781 466.261719 106.175781 C 465.648438 106.175781 465.164062 105.988281 464.804688 105.613281 C 464.453125 105.238281 464.28125 104.710938 464.28125 104.03125 C 464.28125 103.335938 464.460938 102.796875 464.824219 102.40625 C 465.183594 102.019531 465.648438 101.820312 466.21875 101.820312 C 466.773438 101.820312 467.226562 102.019531 467.574219 102.40625 C 467.933594 102.78125 468.117188 103.3125 468.117188 103.988281 C 468.117188 104.03125 468.105469 104.09375 468.09375 104.175781 L 465.011719 104.175781 C 465.039062 104.632812 465.164062 104.988281 465.386719 105.238281 C 465.621094 105.476562 465.914062 105.59375 466.261719 105.59375 C 466.523438 105.59375 466.746094 105.523438 466.929688 105.382812 C 467.105469 105.25 467.25 105.03125 467.367188 104.738281 Z M 465.054688 103.59375 L 467.367188 103.59375 C 467.335938 103.25 467.246094 102.988281 467.09375 102.820312 C 466.871094 102.546875 466.578125 102.40625 466.21875 102.40625 C 465.898438 102.40625 465.625 102.519531 465.40625 102.738281 C 465.199219 102.945312 465.078125 103.234375 465.054688 103.59375 Z M 465.054688 103.59375 "/>
<path style=" stroke:none;fill-rule:nonzero;fill:rgb(0%,0%,0%);fill-opacity:1;" d="M 468.960938 107.65625 L 468.960938 101.925781 L 469.605469 101.925781 L 469.605469 102.46875 C 469.757812 102.257812 469.925781 102.101562 470.105469 101.988281 C 470.300781 101.878906 470.535156 101.820312 470.816406 101.820312 C 471.160156 101.820312 471.464844 101.921875 471.730469 102.113281 C 472.007812 102.296875 472.214844 102.550781 472.355469 102.882812 C 472.492188 103.207031 472.566406 103.566406 472.566406 103.96875 C 472.566406 104.382812 472.488281 104.769531 472.335938 105.113281 C 472.179688 105.445312 471.960938 105.710938 471.667969 105.90625 C 471.378906 106.082031 471.070312 106.175781 470.753906 106.175781 C 470.527344 106.175781 470.320312 106.125 470.128906 106.03125 C 469.945312 105.921875 469.792969 105.789062 469.667969 105.632812 L 469.667969 107.65625 Z M 469.605469 104.03125 C 469.605469 104.5625 469.710938 104.957031 469.917969 105.21875 C 470.136719 105.46875 470.402344 105.59375 470.710938 105.59375 C 471.027344 105.59375 471.300781 105.460938 471.523438 105.195312 C 471.742188 104.9375 471.855469 104.523438 471.855469 103.96875 C 471.855469 103.441406 471.742188 103.046875 471.523438 102.78125 C 471.300781 102.519531 471.042969 102.382812 470.753906 102.382812 C 470.445312 102.382812 470.175781 102.523438 469.941406 102.800781 C 469.714844 103.082031 469.605469 103.488281 469.605469 104.03125 Z M 469.605469 104.03125 "/>
<path style=" stroke:none;fill-rule:nonzero;fill:rgb(0%,0%,0%);fill-opacity:1;" d="M 477.117188 103.570312 L 473.328125 105.195312 L 473.328125 104.488281 L 476.328125 103.238281 L 473.328125 102.007812 L 473.328125 101.300781 L 477.117188 102.90625 Z M 477.117188 103.570312 "/>
<path style=" stroke:none;fill-rule:nonzero;fill:rgb(0%,0%,0%);fill-opacity:1;" d="M 206.019531 208.285156 C 206.855469 208.285156 207.292969 207.890625 207.292969 207.097656 L 207.292969 197.847656 L 200.707031 197.847656 L 200.707031 198.660156 L 206.4375 198.660156 L 206.4375 206.847656 C 206.4375 207.265625 206.230469 207.492188 205.832031 207.492188 L 204.417969 207.472656 L 204.625 208.285156 Z M 200.980469 200.078125 L 200.980469 200.890625 L 205.605469 200.890625 L 205.605469 200.078125 Z M 201.417969 202.203125 L 201.417969 205.929688 L 205.125 205.929688 L 205.125 202.203125 Z M 204.3125 205.179688 L 202.25 205.179688 L 202.25 202.972656 L 204.3125 202.972656 Z M 198.207031 197.453125 L 197.625 198.035156 C 198.480469 198.679688 199.167969 199.304688 199.6875 199.910156 L 200.269531 199.304688 C 199.707031 198.679688 199.019531 198.078125 198.207031 197.453125 Z M 196.792969 201.015625 L 196.792969 201.828125 L 198.542969 201.828125 L 198.542969 206.617188 C 198.542969 206.804688 198.4375 206.972656 198.269531 207.117188 L 198.605469 207.890625 C 199.355469 207.367188 200.0625 206.765625 200.730469 206.078125 L 200.5 205.140625 C 200.082031 205.578125 199.707031 205.929688 199.375 206.265625 L 199.375 201.015625 Z M 196.792969 201.015625 "/>
<path style=" stroke:none;fill-rule:nonzero;fill:rgb(0%,0%,0%);fill-opacity:1;" d="M 210.0625 198.015625 L 210.0625 198.847656 L 218.355469 198.847656 L 218.355469 198.015625 Z M 209.144531 201.535156 L 209.144531 202.367188 L 212.25 202.367188 L 212.25 202.554688 C 212.230469 203.867188 211.957031 204.929688 211.480469 205.742188 C 210.980469 206.535156 210.0625 207.160156 208.769531 207.640625 L 209.25 208.367188 C 210.582031 207.890625 211.542969 207.203125 212.125 206.328125 C 212.730469 205.367188 213.0625 204.117188 213.105469 202.554688 L 213.105469 202.367188 L 215.25 202.367188 L 215.25 207.035156 C 215.25 207.785156 215.625 208.140625 216.375 208.140625 L 218.125 208.140625 C 218.5625 208.140625 218.875 208.015625 219.082031 207.785156 C 219.3125 207.492188 219.480469 206.703125 219.5625 205.390625 L 218.769531 205.140625 C 218.730469 206.222656 218.644531 206.867188 218.5 207.097656 C 218.394531 207.265625 218.230469 207.367188 217.957031 207.367188 L 216.625 207.367188 C 216.269531 207.367188 216.105469 207.179688 216.105469 206.847656 L 216.105469 202.367188 L 219.417969 202.367188 L 219.417969 201.535156 Z M 209.144531 201.535156 "/>
<path style=" stroke:none;fill-rule:nonzero;fill:rgb(0%,0%,0%);fill-opacity:1;" d="M 220.605469 208.285156 L 221.3125 208.203125 C 221.394531 208.609375 221.53125 208.898438 221.730469 209.078125 C 221.921875 209.242188 222.15625 209.328125 222.4375 209.328125 C 222.769531 209.328125 223.046875 209.21875 223.269531 208.992188 C 223.488281 208.757812 223.605469 208.472656 223.605469 208.140625 C 223.605469 207.804688 223.5 207.535156 223.292969 207.328125 C 223.082031 207.117188 222.816406 207.015625 222.5 207.015625 C 222.359375 207.015625 222.191406 207.046875 222 207.097656 L 222.0625 206.472656 C 222.113281 206.488281 222.15625 206.492188 222.1875 206.492188 C 222.480469 206.492188 222.738281 206.421875 222.980469 206.265625 C 223.230469 206.097656 223.355469 205.859375 223.355469 205.535156 C 223.355469 205.273438 223.261719 205.054688 223.082031 204.890625 C 222.917969 204.722656 222.691406 204.640625 222.417969 204.640625 C 222.136719 204.640625 221.90625 204.722656 221.730469 204.890625 C 221.546875 205.054688 221.425781 205.316406 221.375 205.660156 L 220.6875 205.535156 C 220.769531 205.066406 220.964844 204.703125 221.269531 204.453125 C 221.574219 204.191406 221.949219 204.054688 222.394531 204.054688 C 222.714844 204.054688 223.003906 204.128906 223.269531 204.265625 C 223.53125 204.390625 223.734375 204.570312 223.875 204.804688 C 224.011719 205.046875 224.082031 205.285156 224.082031 205.535156 C 224.082031 205.785156 224.011719 206.015625 223.875 206.222656 C 223.75 206.421875 223.550781 206.578125 223.292969 206.703125 C 223.625 206.785156 223.878906 206.953125 224.0625 207.203125 C 224.253906 207.441406 224.355469 207.742188 224.355469 208.117188 C 224.355469 208.617188 224.171875 209.046875 223.8125 209.390625 C 223.449219 209.738281 222.988281 209.910156 222.4375 209.910156 C 221.921875 209.910156 221.5 209.765625 221.167969 209.472656 C 220.84375 209.171875 220.65625 208.773438 220.605469 208.285156 Z M 220.605469 208.285156 "/>
<path style=" stroke:none;fill-rule:nonzero;fill:rgb(0%,0%,0%);fill-opacity:1;" d="M 13.863281 202.65625 L 13.863281 201.65625 L 19.550781 199.261719 L 19.550781 200.300781 L 15.03125 202.15625 L 19.550781 204.03125 L 19.550781 205.074219 Z M 13.863281 202.65625 "/>
<path style=" stroke:none;fill-rule:nonzero;fill:rgb(0%,0%,0%);fill-opacity:1;" d="M 25.058594 204.136719 L 26.101562 204.261719 C 25.984375 204.984375 25.695312 205.546875 25.226562 205.949219 C 24.75 206.355469 24.171875 206.550781 23.496094 206.550781 C 22.648438 206.550781 21.964844 206.277344 21.453125 205.71875 C 20.9375 205.167969 20.683594 204.363281 20.683594 203.324219 C 20.683594 202.644531 20.792969 202.050781 21.015625 201.550781 C 21.234375 201.050781 21.570312 200.675781 22.015625 200.425781 C 22.476562 200.175781 22.976562 200.050781 23.515625 200.050781 C 24.183594 200.050781 24.730469 200.230469 25.164062 200.574219 C 25.589844 200.90625 25.871094 201.386719 25.996094 202.011719 L 24.976562 202.175781 C 24.875 201.761719 24.703125 201.449219 24.453125 201.238281 C 24.203125 201.019531 23.902344 200.90625 23.558594 200.90625 C 23.015625 200.90625 22.578125 201.105469 22.246094 201.488281 C 21.921875 201.863281 21.765625 202.464844 21.765625 203.28125 C 21.765625 204.128906 21.921875 204.738281 22.246094 205.113281 C 22.5625 205.488281 22.980469 205.675781 23.496094 205.675781 C 23.914062 205.675781 24.257812 205.550781 24.539062 205.300781 C 24.8125 205.050781 24.984375 204.667969 25.058594 204.136719 Z M 25.058594 204.136719 "/>
<path style=" stroke:none;fill-rule:nonzero;fill:rgb(0%,0%,0%);fill-opacity:1;" d="M 26.976562 206.40625 L 26.976562 197.824219 L 28.015625 197.824219 L 28.015625 206.40625 Z M 26.976562 206.40625 "/>
<path style=" stroke:none;fill-rule:nonzero;fill:rgb(0%,0%,0%);fill-opacity:1;" d="M 29.246094 204.550781 L 30.289062 204.386719 C 30.339844 204.800781 30.5 205.125 30.765625 205.34375 C 31.042969 205.566406 31.417969 205.675781 31.890625 205.675781 C 32.375 205.675781 32.734375 205.582031 32.976562 205.386719 C 33.210938 205.191406 33.328125 204.964844 33.328125 204.699219 C 33.328125 204.449219 33.226562 204.261719 33.015625 204.136719 C 32.859375 204.042969 32.5 203.917969 31.933594 203.761719 C 31.152344 203.566406 30.609375 203.402344 30.308594 203.261719 C 30.015625 203.125 29.792969 202.925781 29.640625 202.675781 C 29.484375 202.425781 29.414062 202.152344 29.414062 201.84375 C 29.414062 201.566406 29.476562 201.3125 29.601562 201.074219 C 29.726562 200.839844 29.898438 200.636719 30.121094 200.46875 C 30.289062 200.359375 30.507812 200.261719 30.789062 200.175781 C 31.078125 200.09375 31.382812 200.050781 31.703125 200.050781 C 32.1875 200.050781 32.609375 200.125 32.976562 200.261719 C 33.351562 200.402344 33.625 200.589844 33.808594 200.824219 C 33.984375 201.0625 34.109375 201.378906 34.183594 201.78125 L 33.140625 201.925781 C 33.101562 201.609375 32.960938 201.359375 32.726562 201.175781 C 32.5 201 32.1875 200.90625 31.789062 200.90625 C 31.296875 200.90625 30.953125 200.988281 30.746094 201.15625 C 30.539062 201.3125 30.433594 201.5 30.433594 201.71875 C 30.433594 201.859375 30.476562 201.980469 30.558594 202.074219 C 30.640625 202.199219 30.777344 202.296875 30.976562 202.363281 C 31.070312 202.40625 31.375 202.5 31.890625 202.636719 C 32.640625 202.832031 33.164062 202.988281 33.453125 203.113281 C 33.757812 203.238281 33.996094 203.425781 34.164062 203.675781 C 34.328125 203.917969 34.414062 204.214844 34.414062 204.574219 C 34.414062 204.9375 34.308594 205.269531 34.101562 205.574219 C 33.890625 205.878906 33.589844 206.125 33.203125 206.300781 C 32.828125 206.46875 32.390625 206.550781 31.890625 206.550781 C 31.085938 206.550781 30.464844 206.386719 30.039062 206.050781 C 29.621094 205.707031 29.355469 205.207031 29.246094 204.550781 Z M 29.246094 204.550781 "/>
<path style=" stroke:none;fill-rule:nonzero;fill:rgb(0%,0%,0%);fill-opacity:1;" d="M 41.226562 202.65625 L 35.539062 205.074219 L 35.539062 204.03125 L 40.039062 202.15625 L 35.539062 200.300781 L 35.539062 199.261719 L 41.226562 201.65625 Z M 41.226562 202.65625 "/>
<path style=" stroke:none;fill-rule:nonzero;fill:rgb(0%,0%,0%);fill-opacity:1;" d="M 84.046875 208.285156 C 84.882812 208.285156 85.320312 207.890625 85.320312 207.097656 L 85.320312 197.847656 L 78.734375 197.847656 L 78.734375 198.660156 L 84.464844 198.660156 L 84.464844 206.847656 C 84.464844 207.265625 84.257812 207.492188 83.859375 207.492188 L 82.445312 207.472656 L 82.652344 208.285156 Z M 79.007812 200.078125 L 79.007812 200.890625 L 83.632812 200.890625 L 83.632812 200.078125 Z M 79.445312 202.203125 L 79.445312 205.929688 L 83.152344 205.929688 L 83.152344 202.203125 Z M 82.339844 205.179688 L 80.277344 205.179688 L 80.277344 202.972656 L 82.339844 202.972656 Z M 76.234375 197.453125 L 75.652344 198.035156 C 76.507812 198.679688 77.195312 199.304688 77.714844 199.910156 L 78.296875 199.304688 C 77.734375 198.679688 77.046875 198.078125 76.234375 197.453125 Z M 74.820312 201.015625 L 74.820312 201.828125 L 76.570312 201.828125 L 76.570312 206.617188 C 76.570312 206.804688 76.464844 206.972656 76.296875 207.117188 L 76.632812 207.890625 C 77.382812 207.367188 78.089844 206.765625 78.757812 206.078125 L 78.527344 205.140625 C 78.109375 205.578125 77.734375 205.929688 77.402344 206.265625 L 77.402344 201.015625 Z M 74.820312 201.015625 "/>
<path style=" stroke:none;fill-rule:nonzero;fill:rgb(0%,0%,0%);fill-opacity:1;" d="M 88.089844 198.015625 L 88.089844 198.847656 L 96.382812 198.847656 L 96.382812 198.015625 Z M 87.171875 201.535156 L 87.171875 202.367188 L 90.277344 202.367188 L 90.277344 202.554688 C 90.257812 203.867188 89.984375 204.929688 89.507812 205.742188 C 89.007812 206.535156 88.089844 207.160156 86.796875 207.640625 L 87.277344 208.367188 C 88.609375 207.890625 89.570312 207.203125 90.152344 206.328125 C 90.757812 205.367188 91.089844 204.117188 91.132812 202.554688 L 91.132812 202.367188 L 93.277344 202.367188 L 93.277344 207.035156 C 93.277344 207.785156 93.652344 208.140625 94.402344 208.140625 L 96.152344 208.140625 C 96.589844 208.140625 96.902344 208.015625 97.109375 207.785156 C 97.339844 207.492188 97.507812 206.703125 97.589844 205.390625 L 96.796875 205.140625 C 96.757812 206.222656 96.671875 206.867188 96.527344 207.097656 C 96.421875 207.265625 96.257812 207.367188 95.984375 207.367188 L 94.652344 207.367188 C 94.296875 207.367188 94.132812 207.179688 94.132812 206.847656 L 94.132812 202.367188 L 97.445312 202.367188 L 97.445312 201.535156 Z M 87.171875 201.535156 "/>
<path style=" stroke:none;fill-rule:nonzero;fill:rgb(0%,0%,0%);fill-opacity:1;" d="M 101.277344 209.804688 L 100.570312 209.804688 L 100.570312 205.328125 C 100.402344 205.492188 100.179688 205.660156 99.902344 205.828125 C 99.636719 205.984375 99.390625 206.097656 99.171875 206.179688 L 99.171875 205.492188 C 99.558594 205.316406 99.902344 205.09375 100.195312 204.828125 C 100.496094 204.566406 100.703125 204.304688 100.820312 204.054688 L 101.277344 204.054688 Z M 101.277344 209.804688 "/>
<path style=" stroke:none;fill-rule:nonzero;fill:rgb(0%,0%,0%);fill-opacity:1;" d="M 145.035156 208.285156 C 145.867188 208.285156 146.304688 207.890625 146.304688 207.097656 L 146.304688 197.847656 L 139.722656 197.847656 L 139.722656 198.660156 L 145.453125 198.660156 L 145.453125 206.847656 C 145.453125 207.265625 145.242188 207.492188 144.847656 207.492188 L 143.429688 207.472656 L 143.640625 208.285156 Z M 139.992188 200.078125 L 139.992188 200.890625 L 144.617188 200.890625 L 144.617188 200.078125 Z M 140.429688 202.203125 L 140.429688 205.929688 L 144.140625 205.929688 L 144.140625 202.203125 Z M 143.328125 205.179688 L 141.265625 205.179688 L 141.265625 202.972656 L 143.328125 202.972656 Z M 137.222656 197.453125 L 136.640625 198.035156 C 137.492188 198.679688 138.179688 199.304688 138.703125 199.910156 L 139.285156 199.304688 C 138.722656 198.679688 138.035156 198.078125 137.222656 197.453125 Z M 135.804688 201.015625 L 135.804688 201.828125 L 137.554688 201.828125 L 137.554688 206.617188 C 137.554688 206.804688 137.453125 206.972656 137.285156 207.117188 L 137.617188 207.890625 C 138.367188 207.367188 139.078125 206.765625 139.742188 206.078125 L 139.515625 205.140625 C 139.097656 205.578125 138.722656 205.929688 138.390625 206.265625 L 138.390625 201.015625 Z M 135.804688 201.015625 "/>
<path style=" stroke:none;fill-rule:nonzero;fill:rgb(0%,0%,0%);fill-opacity:1;" d="M 149.078125 198.015625 L 149.078125 198.847656 L 157.367188 198.847656 L 157.367188 198.015625 Z M 148.160156 201.535156 L 148.160156 202.367188 L 151.265625 202.367188 L 151.265625 202.554688 C 151.242188 203.867188 150.972656 204.929688 150.492188 205.742188 C 149.992188 206.535156 149.078125 207.160156 147.785156 207.640625 L 148.265625 208.367188 C 149.597656 207.890625 150.554688 207.203125 151.140625 206.328125 C 151.742188 205.367188 152.078125 204.117188 152.117188 202.554688 L 152.117188 202.367188 L 154.265625 202.367188 L 154.265625 207.035156 C 154.265625 207.785156 154.640625 208.140625 155.390625 208.140625 L 157.140625 208.140625 C 157.578125 208.140625 157.890625 208.015625 158.097656 207.785156 C 158.328125 207.492188 158.492188 206.703125 158.578125 205.390625 L 157.785156 205.140625 C 157.742188 206.222656 157.660156 206.867188 157.515625 207.097656 C 157.410156 207.265625 157.242188 207.367188 156.972656 207.367188 L 155.640625 207.367188 C 155.285156 207.367188 155.117188 207.179688 155.117188 206.847656 L 155.117188 202.367188 L 158.429688 202.367188 L 158.429688 201.535156 Z M 148.160156 201.535156 "/>
<path style=" stroke:none;fill-rule:nonzero;fill:rgb(0%,0%,0%);fill-opacity:1;" d="M 163.304688 209.140625 L 163.304688 209.804688 L 159.535156 209.804688 C 159.519531 209.640625 159.546875 209.484375 159.617188 209.328125 C 159.710938 209.066406 159.867188 208.804688 160.078125 208.554688 C 160.285156 208.304688 160.585938 208.015625 160.992188 207.679688 C 161.617188 207.179688 162.035156 206.785156 162.242188 206.492188 C 162.460938 206.191406 162.578125 205.90625 162.578125 205.640625 C 162.578125 205.347656 162.476562 205.113281 162.285156 204.929688 C 162.085938 204.738281 161.832031 204.640625 161.515625 204.640625 C 161.164062 204.640625 160.890625 204.742188 160.679688 204.953125 C 160.484375 205.148438 160.390625 205.425781 160.390625 205.785156 L 159.660156 205.703125 C 159.710938 205.175781 159.898438 204.773438 160.222656 204.492188 C 160.539062 204.203125 160.972656 204.054688 161.515625 204.054688 C 162.066406 204.054688 162.503906 204.210938 162.828125 204.515625 C 163.144531 204.820312 163.304688 205.195312 163.304688 205.640625 C 163.304688 205.878906 163.253906 206.109375 163.160156 206.328125 C 163.0625 206.550781 162.898438 206.785156 162.679688 207.035156 C 162.472656 207.273438 162.117188 207.609375 161.617188 208.035156 C 161.1875 208.382812 160.910156 208.617188 160.785156 208.742188 C 160.671875 208.867188 160.582031 209.003906 160.515625 209.140625 Z M 163.304688 209.140625 "/>
<path style=" stroke:none;fill-rule:nonzero;fill:rgb(0%,0%,0%);fill-opacity:1;" d="M 267.007812 208.285156 C 267.839844 208.285156 268.277344 207.890625 268.277344 207.097656 L 268.277344 197.847656 L 261.695312 197.847656 L 261.695312 198.660156 L 267.421875 198.660156 L 267.421875 206.847656 C 267.421875 207.265625 267.214844 207.492188 266.820312 207.492188 L 265.402344 207.472656 L 265.609375 208.285156 Z M 261.964844 200.078125 L 261.964844 200.890625 L 266.589844 200.890625 L 266.589844 200.078125 Z M 262.402344 202.203125 L 262.402344 205.929688 L 266.109375 205.929688 L 266.109375 202.203125 Z M 265.296875 205.179688 L 263.234375 205.179688 L 263.234375 202.972656 L 265.296875 202.972656 Z M 259.195312 197.453125 L 258.609375 198.035156 C 259.464844 198.679688 260.152344 199.304688 260.671875 199.910156 L 261.257812 199.304688 C 260.695312 198.679688 260.007812 198.078125 259.195312 197.453125 Z M 257.777344 201.015625 L 257.777344 201.828125 L 259.527344 201.828125 L 259.527344 206.617188 C 259.527344 206.804688 259.421875 206.972656 259.257812 207.117188 L 259.589844 207.890625 C 260.339844 207.367188 261.046875 206.765625 261.714844 206.078125 L 261.484375 205.140625 C 261.070312 205.578125 260.695312 205.929688 260.359375 206.265625 L 260.359375 201.015625 Z M 257.777344 201.015625 "/>
<path style=" stroke:none;fill-rule:nonzero;fill:rgb(0%,0%,0%);fill-opacity:1;" d="M 271.046875 198.015625 L 271.046875 198.847656 L 279.339844 198.847656 L 279.339844 198.015625 Z M 270.132812 201.535156 L 270.132812 202.367188 L 273.234375 202.367188 L 273.234375 202.554688 C 273.214844 203.867188 272.945312 204.929688 272.464844 205.742188 C 271.964844 206.535156 271.046875 207.160156 269.757812 207.640625 L 270.234375 208.367188 C 271.570312 207.890625 272.527344 207.203125 273.109375 206.328125 C 273.714844 205.367188 274.046875 204.117188 274.089844 202.554688 L 274.089844 202.367188 L 276.234375 202.367188 L 276.234375 207.035156 C 276.234375 207.785156 276.609375 208.140625 277.359375 208.140625 L 279.109375 208.140625 C 279.546875 208.140625 279.859375 208.015625 280.070312 207.785156 C 280.296875 207.492188 280.464844 206.703125 280.546875 205.390625 L 279.757812 205.140625 C 279.714844 206.222656 279.632812 206.867188 279.484375 207.097656 C 279.382812 207.265625 279.214844 207.367188 278.945312 207.367188 L 277.609375 207.367188 C 277.257812 207.367188 277.089844 207.179688 277.089844 206.847656 L 277.089844 202.367188 L 280.402344 202.367188 L 280.402344 201.535156 Z M 270.132812 201.535156 "/>
<path style=" stroke:none;fill-rule:nonzero;fill:rgb(0%,0%,0%);fill-opacity:1;" d="M 283.839844 209.804688 L 283.839844 208.429688 L 281.359375 208.429688 L 281.359375 207.785156 L 283.964844 204.078125 L 284.546875 204.078125 L 284.546875 207.785156 L 285.320312 207.785156 L 285.320312 208.429688 L 284.546875 208.429688 L 284.546875 209.804688 Z M 283.839844 207.785156 L 283.839844 205.203125 L 282.046875 207.785156 Z M 283.839844 207.785156 "/>
<path style=" stroke:none;fill-rule:nonzero;fill:rgb(0%,0%,0%);fill-opacity:1;" d="M 327.992188 208.285156 C 328.824219 208.285156 329.261719 207.890625 329.261719 207.097656 L 329.261719 197.847656 L 322.679688 197.847656 L 322.679688 198.660156 L 328.410156 198.660156 L 328.410156 206.847656 C 328.410156 207.265625 328.199219 207.492188 327.804688 207.492188 L 326.386719 207.472656 L 326.597656 208.285156 Z M 322.949219 200.078125 L 322.949219 200.890625 L 327.574219 200.890625 L 327.574219 200.078125 Z M 323.386719 202.203125 L 323.386719 205.929688 L 327.097656 205.929688 L 327.097656 202.203125 Z M 326.285156 205.179688 L 324.222656 205.179688 L 324.222656 202.972656 L 326.285156 202.972656 Z M 320.179688 197.453125 L 319.597656 198.035156 C 320.449219 198.679688 321.136719 199.304688 321.660156 199.910156 L 322.242188 199.304688 C 321.679688 198.679688 320.992188 198.078125 320.179688 197.453125 Z M 318.761719 201.015625 L 318.761719 201.828125 L 320.511719 201.828125 L 320.511719 206.617188 C 320.511719 206.804688 320.410156 206.972656 320.242188 207.117188 L 320.574219 207.890625 C 321.324219 207.367188 322.035156 206.765625 322.699219 206.078125 L 322.472656 205.140625 C 322.054688 205.578125 321.679688 205.929688 321.347656 206.265625 L 321.347656 201.015625 Z M 318.761719 201.015625 "/>
<path style=" stroke:none;fill-rule:nonzero;fill:rgb(0%,0%,0%);fill-opacity:1;" d="M 332.035156 198.015625 L 332.035156 198.847656 L 340.324219 198.847656 L 340.324219 198.015625 Z M 331.117188 201.535156 L 331.117188 202.367188 L 334.222656 202.367188 L 334.222656 202.554688 C 334.199219 203.867188 333.929688 204.929688 333.449219 205.742188 C 332.949219 206.535156 332.035156 207.160156 330.742188 207.640625 L 331.222656 208.367188 C 332.554688 207.890625 333.511719 207.203125 334.097656 206.328125 C 334.699219 205.367188 335.035156 204.117188 335.074219 202.554688 L 335.074219 202.367188 L 337.222656 202.367188 L 337.222656 207.035156 C 337.222656 207.785156 337.597656 208.140625 338.347656 208.140625 L 340.097656 208.140625 C 340.535156 208.140625 340.847656 208.015625 341.054688 207.785156 C 341.285156 207.492188 341.449219 206.703125 341.535156 205.390625 L 340.742188 205.140625 C 340.699219 206.222656 340.617188 206.867188 340.472656 207.097656 C 340.367188 207.265625 340.199219 207.367188 339.929688 207.367188 L 338.597656 207.367188 C 338.242188 207.367188 338.074219 207.179688 338.074219 206.847656 L 338.074219 202.367188 L 341.386719 202.367188 L 341.386719 201.535156 Z M 331.117188 201.535156 "/>
<path style=" stroke:none;fill-rule:nonzero;fill:rgb(0%,0%,0%);fill-opacity:1;" d="M 342.574219 208.304688 L 343.304688 208.242188 C 343.355469 208.609375 343.480469 208.878906 343.679688 209.054688 C 343.886719 209.238281 344.128906 209.328125 344.410156 209.328125 C 344.753906 209.328125 345.039062 209.203125 345.261719 208.953125 C 345.496094 208.691406 345.617188 208.347656 345.617188 207.929688 C 345.617188 207.53125 345.503906 207.21875 345.285156 206.992188 C 345.058594 206.757812 344.769531 206.640625 344.410156 206.640625 C 344.167969 206.640625 343.960938 206.691406 343.785156 206.785156 C 343.601562 206.882812 343.460938 207.015625 343.367188 207.179688 L 342.699219 207.097656 L 343.261719 204.160156 L 346.097656 204.160156 L 346.097656 204.828125 L 343.824219 204.828125 L 343.511719 206.367188 C 343.855469 206.132812 344.222656 206.015625 344.597656 206.015625 C 345.097656 206.015625 345.511719 206.191406 345.847656 206.535156 C 346.191406 206.882812 346.367188 207.328125 346.367188 207.867188 C 346.367188 208.382812 346.210938 208.828125 345.910156 209.203125 C 345.542969 209.675781 345.042969 209.910156 344.410156 209.910156 C 343.894531 209.910156 343.472656 209.765625 343.136719 209.472656 C 342.804688 209.179688 342.617188 208.796875 342.574219 208.304688 Z M 342.574219 208.304688 "/>
<path style=" stroke:none;fill-rule:nonzero;fill:rgb(0%,0%,0%);fill-opacity:1;" d="M 388.980469 208.285156 C 389.8125 208.285156 390.25 207.890625 390.25 207.097656 L 390.25 197.847656 L 383.667969 197.847656 L 383.667969 198.660156 L 389.394531 198.660156 L 389.394531 206.847656 C 389.394531 207.265625 389.1875 207.492188 388.792969 207.492188 L 387.375 207.472656 L 387.582031 208.285156 Z M 383.9375 200.078125 L 383.9375 200.890625 L 388.5625 200.890625 L 388.5625 200.078125 Z M 384.375 202.203125 L 384.375 205.929688 L 388.082031 205.929688 L 388.082031 202.203125 Z M 387.269531 205.179688 L 385.207031 205.179688 L 385.207031 202.972656 L 387.269531 202.972656 Z M 381.167969 197.453125 L 380.582031 198.035156 C 381.4375 198.679688 382.125 199.304688 382.644531 199.910156 L 383.230469 199.304688 C 382.667969 198.679688 381.980469 198.078125 381.167969 197.453125 Z M 379.75 201.015625 L 379.75 201.828125 L 381.5 201.828125 L 381.5 206.617188 C 381.5 206.804688 381.394531 206.972656 381.230469 207.117188 L 381.5625 207.890625 C 382.3125 207.367188 383.019531 206.765625 383.6875 206.078125 L 383.457031 205.140625 C 383.042969 205.578125 382.667969 205.929688 382.332031 206.265625 L 382.332031 201.015625 Z M 379.75 201.015625 "/>
<path style=" stroke:none;fill-rule:nonzero;fill:rgb(0%,0%,0%);fill-opacity:1;" d="M 393.019531 198.015625 L 393.019531 198.847656 L 401.3125 198.847656 L 401.3125 198.015625 Z M 392.105469 201.535156 L 392.105469 202.367188 L 395.207031 202.367188 L 395.207031 202.554688 C 395.1875 203.867188 394.917969 204.929688 394.4375 205.742188 C 393.9375 206.535156 393.019531 207.160156 391.730469 207.640625 L 392.207031 208.367188 C 393.542969 207.890625 394.5 207.203125 395.082031 206.328125 C 395.6875 205.367188 396.019531 204.117188 396.0625 202.554688 L 396.0625 202.367188 L 398.207031 202.367188 L 398.207031 207.035156 C 398.207031 207.785156 398.582031 208.140625 399.332031 208.140625 L 401.082031 208.140625 C 401.519531 208.140625 401.832031 208.015625 402.042969 207.785156 C 402.269531 207.492188 402.4375 206.703125 402.519531 205.390625 L 401.730469 205.140625 C 401.6875 206.222656 401.605469 206.867188 401.457031 207.097656 C 401.355469 207.265625 401.1875 207.367188 400.917969 207.367188 L 399.582031 207.367188 C 399.230469 207.367188 399.0625 207.179688 399.0625 206.847656 L 399.0625 202.367188 L 402.375 202.367188 L 402.375 201.535156 Z M 392.105469 201.535156 "/>
<path style=" stroke:none;fill-rule:nonzero;fill:rgb(0%,0%,0%);fill-opacity:1;" d="M 407.207031 205.472656 L 406.519531 205.535156 C 406.449219 205.257812 406.359375 205.054688 406.25 204.929688 C 406.050781 204.738281 405.816406 204.640625 405.542969 204.640625 C 405.316406 204.640625 405.125 204.703125 404.957031 204.828125 C 404.734375 204.984375 404.550781 205.21875 404.417969 205.535156 C 404.292969 205.84375 404.230469 206.28125 404.230469 206.847656 C 404.394531 206.597656 404.59375 206.410156 404.832031 206.285156 C 405.082031 206.160156 405.34375 206.097656 405.625 206.097656 C 406.09375 206.097656 406.488281 206.273438 406.8125 206.617188 C 407.144531 206.953125 407.3125 207.398438 407.3125 207.953125 C 407.3125 208.316406 407.234375 208.648438 407.082031 208.953125 C 406.925781 209.257812 406.714844 209.492188 406.4375 209.660156 C 406.171875 209.828125 405.863281 209.910156 405.519531 209.910156 C 404.9375 209.910156 404.457031 209.695312 404.082031 209.265625 C 403.707031 208.835938 403.519531 208.117188 403.519531 207.117188 C 403.519531 206.023438 403.730469 205.21875 404.144531 204.703125 C 404.503906 204.273438 404.984375 204.054688 405.582031 204.054688 C 406.042969 204.054688 406.40625 204.179688 406.6875 204.429688 C 406.980469 204.679688 407.152344 205.03125 407.207031 205.472656 Z M 404.332031 207.953125 C 404.332031 208.191406 404.378906 208.421875 404.480469 208.640625 C 404.589844 208.863281 404.734375 209.035156 404.917969 209.160156 C 405.109375 209.273438 405.300781 209.328125 405.5 209.328125 C 405.800781 209.328125 406.0625 209.210938 406.269531 208.972656 C 406.480469 208.722656 406.582031 208.398438 406.582031 207.992188 C 406.582031 207.59375 406.480469 207.28125 406.269531 207.054688 C 406.0625 206.820312 405.796875 206.703125 405.480469 206.703125 C 405.15625 206.703125 404.886719 206.820312 404.667969 207.054688 C 404.441406 207.28125 404.332031 207.578125 404.332031 207.953125 Z M 404.332031 207.953125 "/>
<path style=" stroke:none;fill-rule:nonzero;fill:rgb(0%,0%,0%);fill-opacity:1;" d="M 438.425781 202.65625 L 438.425781 201.65625 L 444.113281 199.261719 L 444.113281 200.300781 L 439.589844 202.15625 L 444.113281 204.03125 L 444.113281 205.074219 Z M 438.425781 202.65625 "/>
<path style=" stroke:none;fill-rule:nonzero;fill:rgb(0%,0%,0%);fill-opacity:1;" d="M 445.140625 204.550781 L 446.183594 204.386719 C 446.234375 204.800781 446.394531 205.125 446.660156 205.34375 C 446.9375 205.566406 447.3125 205.675781 447.785156 205.675781 C 448.269531 205.675781 448.628906 205.582031 448.871094 205.386719 C 449.105469 205.191406 449.222656 204.964844 449.222656 204.699219 C 449.222656 204.449219 449.121094 204.261719 448.910156 204.136719 C 448.753906 204.042969 448.394531 203.917969 447.828125 203.761719 C 447.046875 203.566406 446.503906 203.402344 446.203125 203.261719 C 445.910156 203.125 445.6875 202.925781 445.535156 202.675781 C 445.378906 202.425781 445.308594 202.152344 445.308594 201.84375 C 445.308594 201.566406 445.371094 201.3125 445.496094 201.074219 C 445.621094 200.839844 445.792969 200.636719 446.015625 200.46875 C 446.183594 200.359375 446.402344 200.261719 446.683594 200.175781 C 446.972656 200.09375 447.277344 200.050781 447.597656 200.050781 C 448.082031 200.050781 448.503906 200.125 448.871094 200.261719 C 449.246094 200.402344 449.519531 200.589844 449.703125 200.824219 C 449.878906 201.0625 450.003906 201.378906 450.078125 201.78125 L 449.035156 201.925781 C 448.996094 201.609375 448.855469 201.359375 448.621094 201.175781 C 448.394531 201 448.082031 200.90625 447.683594 200.90625 C 447.191406 200.90625 446.847656 200.988281 446.640625 201.15625 C 446.433594 201.3125 446.328125 201.5 446.328125 201.71875 C 446.328125 201.859375 446.371094 201.980469 446.453125 202.074219 C 446.535156 202.199219 446.671875 202.296875 446.871094 202.363281 C 446.964844 202.40625 447.269531 202.5 447.785156 202.636719 C 448.535156 202.832031 449.058594 202.988281 449.347656 203.113281 C 449.652344 203.238281 449.890625 203.425781 450.058594 203.675781 C 450.222656 203.917969 450.308594 204.214844 450.308594 204.574219 C 450.308594 204.9375 450.203125 205.269531 449.996094 205.574219 C 449.785156 205.878906 449.484375 206.125 449.097656 206.300781 C 448.722656 206.46875 448.285156 206.550781 447.785156 206.550781 C 446.980469 206.550781 446.359375 206.386719 445.933594 206.050781 C 445.515625 205.707031 445.25 205.207031 445.140625 204.550781 Z M 445.140625 204.550781 "/>
<path style=" stroke:none;fill-rule:nonzero;fill:rgb(0%,0%,0%);fill-opacity:1;" d="M 455.808594 204.40625 L 456.910156 204.53125 C 456.730469 205.171875 456.402344 205.671875 455.933594 206.03125 C 455.472656 206.378906 454.878906 206.550781 454.160156 206.550781 C 453.253906 206.550781 452.535156 206.277344 451.996094 205.71875 C 451.464844 205.152344 451.203125 204.359375 451.203125 203.34375 C 451.203125 202.300781 451.472656 201.5 452.015625 200.925781 C 452.558594 200.34375 453.253906 200.050781 454.121094 200.050781 C 454.953125 200.050781 455.625 200.339844 456.140625 200.90625 C 456.667969 201.464844 456.933594 202.253906 456.933594 203.28125 C 456.933594 203.355469 456.933594 203.449219 456.933594 203.574219 L 452.285156 203.574219 C 452.328125 204.253906 452.519531 204.777344 452.871094 205.136719 C 453.214844 205.5 453.652344 205.675781 454.183594 205.675781 C 454.566406 205.675781 454.894531 205.582031 455.160156 205.386719 C 455.4375 205.175781 455.652344 204.855469 455.808594 204.40625 Z M 452.347656 202.699219 L 455.828125 202.699219 C 455.785156 202.171875 455.652344 201.777344 455.433594 201.511719 C 455.097656 201.109375 454.660156 200.90625 454.121094 200.90625 C 453.628906 200.90625 453.222656 201.074219 452.890625 201.40625 C 452.566406 201.730469 452.390625 202.15625 452.347656 202.699219 Z M 452.347656 202.699219 "/>
<path style=" stroke:none;fill-rule:nonzero;fill:rgb(0%,0%,0%);fill-opacity:1;" d="M 458.230469 208.78125 L 458.230469 200.175781 L 459.191406 200.175781 L 459.191406 200.988281 C 459.410156 200.671875 459.660156 200.4375 459.941406 200.28125 C 460.230469 200.128906 460.585938 200.050781 461.003906 200.050781 C 461.527344 200.050781 461.992188 200.191406 462.398438 200.46875 C 462.800781 200.734375 463.105469 201.113281 463.316406 201.613281 C 463.523438 202.113281 463.628906 202.65625 463.628906 203.238281 C 463.628906 203.878906 463.507812 204.457031 463.273438 204.96875 C 463.050781 205.484375 462.722656 205.878906 462.292969 206.15625 C 461.863281 206.417969 461.402344 206.550781 460.917969 206.550781 C 460.570312 206.550781 460.257812 206.472656 459.980469 206.324219 C 459.699219 206.171875 459.472656 205.984375 459.292969 205.761719 L 459.292969 208.78125 Z M 459.191406 203.324219 C 459.191406 204.128906 459.347656 204.730469 459.667969 205.113281 C 460.003906 205.488281 460.398438 205.675781 460.855469 205.675781 C 461.316406 205.675781 461.710938 205.484375 462.042969 205.09375 C 462.386719 204.691406 462.566406 204.074219 462.566406 203.238281 C 462.566406 202.449219 462.398438 201.859375 462.066406 201.46875 C 461.742188 201.066406 461.355469 200.863281 460.898438 200.863281 C 460.449219 200.863281 460.054688 201.082031 459.710938 201.511719 C 459.363281 201.925781 459.191406 202.53125 459.191406 203.324219 Z M 459.191406 203.324219 "/>
<path style=" stroke:none;fill-rule:nonzero;fill:rgb(0%,0%,0%);fill-opacity:1;" d="M 470.46875 202.65625 L 464.78125 205.074219 L 464.78125 204.03125 L 469.28125 202.15625 L 464.78125 200.300781 L 464.78125 199.261719 L 470.46875 201.65625 Z M 470.46875 202.65625 "/>
<path style="fill:none;stroke-width:1;stroke-linecap:round;stroke-linejoin:round;stroke:rgb(0%,0%,0%);stroke-opacity:1;stroke-miterlimit:10;" d="M 128.651367 93.454102 L 128.651367 36.550781 " transform="matrix(1.333333,0,0,1.333333,-144,68)"/>
<path style="fill:none;stroke-width:1;stroke-linecap:butt;stroke-linejoin:miter;stroke:rgb(0%,0%,0%);stroke-opacity:1;stroke-miterlimit:10;" d="M 128.651367 32.551758 L 128.651367 36.550781 M 127.151367 36.550781 L 128.651367 32.551758 L 130.151367 36.550781 " transform="matrix(1.333333,0,0,1.333333,-144,68)"/>
<path style="fill:none;stroke-width:1;stroke-linecap:round;stroke-linejoin:round;stroke:rgb(0%,0%,0%);stroke-opacity:1;stroke-miterlimit:10;" d="M 220.133789 93.454102 L 220.133789 36.550781 " transform="matrix(1.333333,0,0,1.333333,-144,68)"/>
<path style="fill:none;stroke-width:1;stroke-linecap:butt;stroke-linejoin:miter;stroke:rgb(0%,0%,0%);stroke-opacity:1;stroke-miterlimit:10;" d="M 220.133789 32.551758 L 220.133789 36.550781 M 218.633789 36.550781 L 220.133789 32.551758 L 221.633789 36.550781 " transform="matrix(1.333333,0,0,1.333333,-144,68)"/>
<path style="fill:none;stroke-width:1;stroke-linecap:round;stroke-linejoin:round;stroke:rgb(0%,0%,0%);stroke-opacity:1;stroke-miterlimit:10;" d="M 265.87207 93.454102 L 265.87207 36.550781 " transform="matrix(1.333333,0,0,1.333333,-144,68)"/>
<path style="fill:none;stroke-width:1;stroke-linecap:butt;stroke-linejoin:miter;stroke:rgb(0%,0%,0%);stroke-opacity:1;stroke-miterlimit:10;" d="M 265.87207 32.551758 L 265.87207 36.550781 M 264.37207 36.550781 L 265.87207 32.551758 L 267.37207 36.550781 " transform="matrix(1.333333,0,0,1.333333,-144,68)"/>
<path style="fill:none;stroke-width:1;stroke-linecap:round;stroke-linejoin:round;stroke:rgb(0%,0%,0%);stroke-opacity:1;stroke-miterlimit:10;" d="M 311.610352 93.454102 L 311.610352 36.550781 " transform="matrix(1.333333,0,0,1.333333,-144,68)"/>
<path style="fill:none;stroke-width:1;stroke-linecap:butt;stroke-linejoin:miter;stroke:rgb(0%,0%,0%);stroke-opacity:1;stroke-miterlimit:10;" d="M 311.610352 32.551758 L 311.610352 36.550781 M 310.110352 36.550781 L 311.610352 32.551758 L 313.110352 36.550781 " transform="matrix(1.333333,0,0,1.333333,-144,68)"/>
<path style="fill:none;stroke-width:1;stroke-linecap:round;stroke-linejoin:round;stroke:rgb(0%,0%,0%);stroke-opacity:1;stroke-miterlimit:10;" d="M 357.351562 93.454102 L 357.351562 36.550781 " transform="matrix(1.333333,0,0,1.333333,-144,68)"/>
<path style="fill:none;stroke-width:1;stroke-linecap:butt;stroke-linejoin:miter;stroke:rgb(0%,0%,0%);stroke-opacity:1;stroke-miterlimit:10;" d="M 357.351562 32.551758 L 357.351562 36.550781 M 355.851562 36.550781 L 357.351562 32.551758 L 358.851562 36.550781 " transform="matrix(1.333333,0,0,1.333333,-144,68)"/>
<path style="fill:none;stroke-width:1;stroke-linecap:round;stroke-linejoin:round;stroke:rgb(0%,0%,0%);stroke-opacity:1;stroke-miterlimit:10;" d="M 403.089844 93.454102 L 403.089844 36.550781 " transform="matrix(1.333333,0,0,1.333333,-144,68)"/>
<path style="fill:none;stroke-width:1;stroke-linecap:butt;stroke-linejoin:miter;stroke:rgb(0%,0%,0%);stroke-opacity:1;stroke-miterlimit:10;" d="M 403.089844 32.551758 L 403.089844 36.550781 M 401.589844 36.550781 L 403.089844 32.551758 L 404.589844 36.550781 " transform="matrix(1.333333,0,0,1.333333,-144,68)"/>
<path style="fill:none;stroke-width:1;stroke-linecap:round;stroke-linejoin:round;stroke:rgb(0%,0%,0%);stroke-opacity:1;stroke-miterlimit:10;" d="M 448.828125 93.454102 L 448.828125 36.550781 " transform="matrix(1.333333,0,0,1.333333,-144,68)"/>
<path style="fill:none;stroke-width:1;stroke-linecap:butt;stroke-linejoin:miter;stroke:rgb(0%,0%,0%);stroke-opacity:1;stroke-miterlimit:10;" d="M 448.828125 32.551758 L 448.828125 36.550781 M 447.328125 36.550781 L 448.828125 32.551758 L 450.328125 36.550781 " transform="matrix(1.333333,0,0,1.333333,-144,68)"/>
<path style=" stroke:none;fill-rule:nonzero;fill:rgb(69.803923%,85.09804%,100%);fill-opacity:1;" d="M 1.597656 172.734375 L 480.375 172.734375 L 480.375 128.734375 L 1.597656 128.734375 Z M 1.597656 172.734375 "/>
<path style="fill:none;stroke-width:1;stroke-linecap:round;stroke-linejoin:round;stroke:rgb(0%,0%,0%);stroke-opacity:1;stroke-miterlimit:10;" d="M 109.198242 45.550781 L 468.28125 45.550781 L 468.28125 78.550781 L 109.198242 78.550781 Z M 109.198242 45.550781 " transform="matrix(1.333333,0,0,1.333333,-144,68)"/>
<path style=" stroke:none;fill-rule:nonzero;fill:rgb(0%,0%,0%);fill-opacity:1;" d="M 225.96875 154.539062 L 225.96875 145.957031 L 229.199219 145.957031 C 229.851562 145.957031 230.371094 146.050781 230.761719 146.226562 C 231.164062 146.394531 231.476562 146.660156 231.699219 147.019531 C 231.933594 147.382812 232.054688 147.757812 232.054688 148.144531 C 232.054688 148.519531 231.949219 148.867188 231.742188 149.1875 C 231.542969 149.507812 231.246094 149.769531 230.84375 149.976562 C 231.355469 150.132812 231.75 150.390625 232.03125 150.75 C 232.324219 151.113281 232.46875 151.539062 232.46875 152.039062 C 232.46875 152.445312 232.375 152.820312 232.199219 153.164062 C 232.03125 153.515625 231.824219 153.785156 231.574219 153.976562 C 231.324219 154.160156 231.011719 154.300781 230.636719 154.394531 C 230.261719 154.492188 229.792969 154.539062 229.242188 154.539062 Z M 227.117188 149.5625 L 228.96875 149.5625 C 229.46875 149.5625 229.828125 149.53125 230.054688 149.457031 C 230.34375 149.375 230.558594 149.238281 230.699219 149.039062 C 230.851562 148.832031 230.929688 148.582031 230.929688 148.289062 C 230.929688 148 230.855469 147.75 230.71875 147.539062 C 230.578125 147.320312 230.386719 147.164062 230.136719 147.082031 C 229.886719 147 229.449219 146.957031 228.824219 146.957031 L 227.117188 146.957031 Z M 227.117188 153.519531 L 229.242188 153.519531 C 229.617188 153.519531 229.875 153.507812 230.03125 153.476562 C 230.28125 153.4375 230.496094 153.363281 230.679688 153.25 C 230.855469 153.140625 231 152.976562 231.117188 152.769531 C 231.226562 152.5625 231.28125 152.320312 231.28125 152.039062 C 231.28125 151.722656 231.199219 151.445312 231.03125 151.207031 C 230.867188 150.972656 230.636719 150.8125 230.34375 150.726562 C 230.054688 150.632812 229.636719 150.582031 229.09375 150.582031 L 227.117188 150.582031 Z M 227.117188 153.519531 "/>
<path style=" stroke:none;fill-rule:nonzero;fill:rgb(0%,0%,0%);fill-opacity:1;" d="M 234.058594 154.539062 L 234.058594 145.957031 L 240.265625 145.957031 L 240.265625 146.957031 L 235.183594 146.957031 L 235.183594 149.601562 L 239.933594 149.601562 L 239.933594 150.601562 L 235.183594 150.601562 L 235.183594 153.519531 L 240.453125 153.519531 L 240.453125 154.539062 Z M 234.058594 154.539062 "/>
<path style=" stroke:none;fill-rule:nonzero;fill:rgb(0%,0%,0%);fill-opacity:1;" d="M 242.039062 154.539062 L 242.039062 145.957031 L 245.851562 145.957031 C 246.613281 145.957031 247.195312 146.035156 247.601562 146.1875 C 248.003906 146.34375 248.320312 146.613281 248.5625 147 C 248.796875 147.390625 248.914062 147.820312 248.914062 148.289062 C 248.914062 148.90625 248.710938 149.414062 248.3125 149.832031 C 247.921875 150.25 247.316406 150.515625 246.5 150.625 C 246.789062 150.78125 247.019531 150.925781 247.1875 151.0625 C 247.519531 151.367188 247.832031 151.75 248.125 152.207031 L 249.625 154.539062 L 248.1875 154.539062 L 247.039062 152.75 C 246.71875 152.238281 246.445312 151.847656 246.226562 151.582031 C 246.019531 151.304688 245.820312 151.113281 245.644531 151 C 245.476562 150.890625 245.3125 150.8125 245.144531 150.769531 C 245.003906 150.742188 244.789062 150.726562 244.5 150.726562 L 243.1875 150.726562 L 243.1875 154.539062 Z M 243.1875 149.75 L 245.625 149.75 C 246.148438 149.75 246.5625 149.695312 246.851562 149.582031 C 247.144531 149.472656 247.363281 149.300781 247.519531 149.0625 C 247.671875 148.828125 247.75 148.570312 247.75 148.289062 C 247.75 147.890625 247.59375 147.554688 247.289062 147.289062 C 247 147.03125 246.53125 146.894531 245.894531 146.894531 L 243.1875 146.894531 Z M 243.1875 149.75 "/>
<path style=" stroke:none;fill-rule:nonzero;fill:rgb(0%,0%,0%);fill-opacity:1;" d="M 252.65625 154.539062 L 252.65625 146.957031 L 249.84375 146.957031 L 249.84375 145.957031 L 256.636719 145.957031 L 256.636719 146.957031 L 253.800781 146.957031 L 253.800781 154.539062 Z M 252.65625 154.539062 "/>
<path style=" stroke:none;fill-rule:nonzero;fill:rgb(40.000001%,74.901962%,100%);fill-opacity:1;" d="M 1.597656 69.003906 L 53.472656 69.003906 L 53.472656 40.667969 L 1.597656 40.667969 Z M 1.597656 69.003906 "/>
<path style="fill:none;stroke-width:1;stroke-linecap:round;stroke-linejoin:round;stroke:rgb(0%,0%,0%);stroke-opacity:1;stroke-miterlimit:10;" d="M 109.198242 -20.499023 L 148.104492 -20.499023 L 148.104492 0.75293 L 109.198242 0.75293 Z M 109.198242 -20.499023 " transform="matrix(1.333333,0,0,1.333333,-144,68)"/>
<path style=" stroke:none;fill-rule:nonzero;fill:rgb(0%,0%,0%);fill-opacity:1;" d="M 15.996094 52.355469 L 15.996094 53.085938 L 17.164062 53.085938 L 17.164062 54.230469 L 15.871094 54.230469 L 15.871094 54.960938 L 19.265625 54.960938 L 19.265625 54.230469 L 17.976562 54.230469 L 17.976562 53.085938 L 19.078125 53.085938 L 19.078125 52.355469 L 17.976562 52.355469 L 17.976562 51.417969 L 17.164062 51.417969 L 17.164062 52.355469 Z M 16.140625 55.773438 L 16.140625 58.875 L 18.976562 58.875 L 18.976562 55.773438 Z M 18.265625 58.167969 L 16.851562 58.167969 L 16.851562 56.460938 L 18.265625 56.460938 Z M 10.371094 51.375 C 10.890625 51.3125 11.390625 51.25 11.871094 51.167969 L 11.871094 52.980469 L 10.226562 52.980469 L 10.226562 53.8125 L 11.808594 53.8125 C 11.414062 55.125 10.808594 56.3125 9.953125 57.355469 L 10.328125 58.335938 C 10.976562 57.398438 11.476562 56.375 11.871094 55.25 L 11.871094 60.648438 L 12.683594 60.648438 L 12.683594 55.125 C 12.996094 55.605469 13.390625 56.210938 13.828125 56.960938 L 14.308594 56.230469 C 13.765625 55.542969 13.226562 54.9375 12.683594 54.375 L 12.683594 53.8125 L 14.058594 53.8125 L 14.058594 52.980469 L 12.683594 52.980469 L 12.683594 50.980469 C 13.183594 50.855469 13.640625 50.75 14.078125 50.605469 L 13.765625 49.773438 C 12.746094 50.167969 11.539062 50.4375 10.203125 50.5625 Z M 20.601562 50.167969 L 14.539062 50.167969 L 14.539062 56.75 C 14.539062 58.125 14.265625 59.25 13.746094 60.148438 L 14.433594 60.75 C 15.039062 59.710938 15.328125 58.355469 15.351562 56.710938 L 15.351562 50.960938 L 19.789062 50.960938 L 19.789062 59.355469 C 19.789062 59.710938 19.621094 59.875 19.308594 59.875 C 18.996094 59.875 18.664062 59.875 18.308594 59.855469 L 18.515625 60.648438 L 19.578125 60.648438 C 20.246094 60.648438 20.601562 60.3125 20.601562 59.648438 Z M 20.601562 50.167969 "/>
<path style=" stroke:none;fill-rule:nonzero;fill:rgb(0%,0%,0%);fill-opacity:1;" d="M 32.558594 50.6875 L 28.015625 50.6875 C 27.890625 50.292969 27.765625 49.960938 27.640625 49.648438 L 26.726562 49.792969 C 26.871094 50.0625 27.015625 50.355469 27.140625 50.6875 L 22.515625 50.6875 L 22.515625 53.125 L 23.371094 53.125 L 23.371094 51.460938 L 31.703125 51.460938 L 31.703125 53.125 L 32.558594 53.125 Z M 27.140625 57.042969 L 27.140625 59.398438 L 24.246094 59.398438 L 24.246094 57.4375 L 23.390625 57.4375 L 23.390625 60.710938 L 24.246094 60.710938 L 24.246094 60.1875 L 30.996094 60.1875 L 30.996094 60.710938 L 31.851562 60.710938 L 31.851562 57.335938 L 30.996094 57.335938 L 30.996094 59.398438 L 27.996094 59.398438 L 27.996094 57.042969 Z M 26.976562 51.710938 L 26.328125 52.105469 C 26.871094 52.648438 27.289062 53.125 27.601562 53.5625 L 28.226562 53.125 C 27.953125 52.730469 27.515625 52.25 26.976562 51.710938 Z M 30.039062 51.980469 C 29.015625 53.1875 27.746094 54.210938 26.164062 55.042969 L 26.164062 53 L 25.351562 53 L 25.351562 55.4375 C 24.351562 55.898438 23.289062 56.273438 22.078125 56.605469 L 22.414062 57.335938 C 23.515625 57.023438 24.558594 56.667969 25.515625 56.25 C 25.683594 56.542969 25.996094 56.6875 26.453125 56.6875 L 29.183594 56.6875 C 29.683594 56.6875 30.015625 56.585938 30.246094 56.398438 C 30.496094 56.210938 30.664062 55.648438 30.765625 54.710938 L 29.953125 54.4375 C 29.890625 55.148438 29.789062 55.585938 29.640625 55.730469 C 29.515625 55.835938 29.308594 55.898438 29.039062 55.898438 L 26.703125 55.898438 C 26.578125 55.898438 26.476562 55.875 26.390625 55.835938 C 28.121094 54.9375 29.558594 53.8125 30.664062 52.460938 Z M 31.078125 53.1875 L 30.476562 53.625 C 31.203125 54.5 31.808594 55.335938 32.289062 56.125 L 32.976562 55.648438 C 32.539062 54.9375 31.914062 54.125 31.078125 53.1875 Z M 24.164062 52.5625 C 23.851562 53.5 23.371094 54.355469 22.683594 55.125 L 23.390625 55.5625 C 24.039062 54.773438 24.558594 53.835938 24.914062 52.730469 Z M 24.164062 52.5625 "/>
<path style=" stroke:none;fill-rule:nonzero;fill:rgb(0%,0%,0%);fill-opacity:1;" d="M 37.433594 54.292969 L 37.433594 55.0625 L 43.933594 55.0625 L 43.933594 54.292969 Z M 36.578125 56.25 L 36.578125 57.042969 L 39.203125 57.042969 C 38.371094 58.398438 37.664062 59.230469 37.140625 59.542969 C 37.078125 59.5625 37.039062 59.605469 36.953125 59.625 L 37.140625 60.355469 C 39.414062 60.210938 41.496094 60 43.390625 59.75 C 43.640625 60.042969 43.851562 60.355469 44.058594 60.667969 L 44.746094 60.1875 C 44.226562 59.417969 43.453125 58.5 42.476562 57.460938 L 41.828125 57.855469 C 42.183594 58.273438 42.539062 58.667969 42.871094 59.0625 C 41.328125 59.292969 39.765625 59.460938 38.183594 59.5625 C 38.746094 59.0625 39.390625 58.210938 40.121094 57.042969 L 44.726562 57.042969 L 44.726562 56.25 Z M 43.265625 50.980469 L 43.265625 52.375 L 36.203125 52.375 L 36.203125 50.980469 Z M 36.203125 53.148438 L 44.101562 53.148438 L 44.101562 50.167969 L 35.371094 50.167969 L 35.371094 54.148438 C 35.351562 56.5625 34.933594 58.523438 34.101562 60.042969 L 34.726562 60.625 C 35.703125 58.8125 36.203125 56.648438 36.203125 54.148438 Z M 36.203125 53.148438 "/>
<path style="fill:none;stroke-width:1;stroke-linecap:round;stroke-linejoin:round;stroke:rgb(0%,0%,0%);stroke-opacity:1;stroke-miterlimit:10;" d="M 128.651367 15.65332 L 128.651367 6.65332 " transform="matrix(1.333333,0,0,1.333333,-144,68)"/>
<path style="fill:none;stroke-width:1;stroke-linecap:butt;stroke-linejoin:miter;stroke:rgb(0%,0%,0%);stroke-opacity:1;stroke-miterlimit:10;" d="M 128.651367 2.651367 L 128.651367 6.65332 M 127.151367 6.65332 L 128.651367 2.651367 L 130.151367 6.65332 " transform="matrix(1.333333,0,0,1.333333,-144,68)"/>
<path style="fill:none;stroke-width:1;stroke-linecap:round;stroke-linejoin:round;stroke:rgb(0%,0%,0%);stroke-opacity:1;stroke-miterlimit:10;" d="M 128.791992 -20.499023 L 128.920898 -30.351563 " transform="matrix(1.333333,0,0,1.333333,-144,68)"/>
<path style="fill:none;stroke-width:1;stroke-linecap:butt;stroke-linejoin:miter;stroke:rgb(0%,0%,0%);stroke-opacity:1;stroke-miterlimit:10;" d="M 128.976562 -34.350586 L 128.920898 -30.351563 M 127.420898 -30.37207 L 128.976562 -34.350586 L 130.420898 -30.331055 " transform="matrix(1.333333,0,0,1.333333,-144,68)"/>
<path style=" stroke:none;fill-rule:nonzero;fill:rgb(0%,0%,0%);fill-opacity:1;" d="M 17.828125 5.695312 L 17.828125 7.96875 L 16.371094 7.96875 L 16.371094 8.800781 L 17.828125 8.800781 C 17.453125 10.300781 16.851562 11.65625 15.976562 12.84375 L 16.351562 13.78125 C 16.953125 12.84375 17.453125 11.800781 17.828125 10.675781 L 17.828125 16.65625 L 18.683594 16.65625 L 18.683594 10.632812 C 19.039062 11.09375 19.453125 11.695312 19.953125 12.445312 L 20.453125 11.71875 C 19.851562 10.988281 19.265625 10.320312 18.683594 9.71875 L 18.683594 8.800781 L 20.078125 8.800781 L 20.078125 7.96875 L 18.683594 7.96875 L 18.683594 5.695312 Z M 21.371094 11.113281 C 21.039062 12.613281 20.496094 13.945312 19.746094 15.175781 L 20.496094 15.65625 C 21.203125 14.425781 21.789062 12.988281 22.164062 11.300781 Z M 25.703125 11.070312 L 24.933594 11.320312 C 25.390625 12.613281 25.828125 14.09375 26.226562 15.757812 L 27.015625 15.40625 C 26.640625 13.863281 26.226562 12.425781 25.703125 11.070312 Z M 23.015625 16.53125 C 23.726562 16.53125 24.078125 16.175781 24.078125 15.46875 L 24.078125 10.132812 L 27.015625 10.132812 L 27.015625 9.300781 L 20.289062 9.300781 L 20.289062 10.132812 L 23.226562 10.132812 L 23.226562 15.257812 C 23.226562 15.59375 23.058594 15.78125 22.726562 15.78125 C 22.371094 15.78125 22.015625 15.757812 21.640625 15.738281 L 21.808594 16.53125 Z M 20.933594 6.382812 L 20.933594 7.195312 L 26.390625 7.195312 L 26.390625 6.382812 Z M 20.933594 6.382812 "/>
<path style=" stroke:none;fill-rule:nonzero;fill:rgb(0%,0%,0%);fill-opacity:1;" d="M 36.351562 12.53125 C 35.996094 13.675781 35.578125 14.632812 35.101562 15.445312 L 28.496094 15.445312 L 28.496094 16.257812 L 38.621094 16.257812 L 38.621094 15.445312 L 36.039062 15.445312 C 36.496094 14.65625 36.871094 13.757812 37.183594 12.757812 Z M 30.601562 12.675781 L 29.828125 12.925781 C 30.203125 13.632812 30.515625 14.363281 30.765625 15.132812 L 31.539062 14.925781 C 31.265625 14.09375 30.953125 13.320312 30.601562 12.675781 Z M 33.390625 12.445312 L 32.578125 12.695312 C 32.890625 13.445312 33.164062 14.21875 33.351562 15.03125 L 34.121094 14.820312 C 33.914062 13.925781 33.664062 13.132812 33.390625 12.445312 Z M 30.433594 11.300781 L 30.433594 12.050781 L 36.664062 12.050781 L 36.664062 11.300781 Z M 29.953125 7.46875 L 30.871094 7.46875 C 31.078125 7.925781 31.265625 8.425781 31.414062 8.925781 L 32.203125 8.632812 C 32.078125 8.28125 31.914062 7.882812 31.726562 7.46875 L 33.453125 7.46875 L 33.453125 6.695312 L 30.289062 6.695312 C 30.414062 6.40625 30.515625 6.113281 30.601562 5.800781 L 29.765625 5.632812 C 29.433594 6.738281 28.890625 7.738281 28.140625 8.65625 L 28.890625 9.113281 C 29.289062 8.613281 29.640625 8.070312 29.953125 7.46875 Z M 34.996094 7.46875 L 36.039062 7.46875 C 36.308594 7.96875 36.558594 8.488281 36.765625 9.03125 L 37.558594 8.738281 C 37.390625 8.34375 37.203125 7.925781 36.933594 7.46875 L 38.851562 7.46875 L 38.851562 6.695312 L 35.328125 6.695312 C 35.433594 6.40625 35.539062 6.113281 35.621094 5.800781 L 34.789062 5.632812 C 34.539062 6.570312 34.140625 7.40625 33.578125 8.175781 L 34.308594 8.632812 C 34.558594 8.28125 34.789062 7.882812 34.996094 7.46875 Z M 33.265625 8.65625 C 31.890625 9.675781 30.164062 10.53125 28.078125 11.21875 L 28.496094 11.96875 C 30.578125 11.238281 32.265625 10.363281 33.539062 9.363281 C 34.933594 10.445312 36.601562 11.300781 38.558594 11.96875 L 38.996094 11.238281 C 37.039062 10.613281 35.308594 9.738281 33.808594 8.65625 Z M 33.265625 8.65625 "/>
<path style=" stroke:none;fill-rule:nonzero;fill:rgb(0%,0%,0%);fill-opacity:1;" d="M 218.742188 251.527344 L 218.742188 256.464844 L 222.492188 256.464844 L 222.492188 257.613281 L 217.597656 257.613281 L 217.597656 258.425781 L 222.492188 258.425781 L 222.492188 260.695312 L 223.367188 260.695312 L 223.367188 258.425781 L 228.261719 258.425781 L 228.261719 257.613281 L 223.367188 257.613281 L 223.367188 256.464844 L 227.117188 256.464844 L 227.117188 251.527344 L 224.804688 251.527344 C 225.179688 251.050781 225.492188 250.488281 225.785156 249.882812 L 224.949219 249.570312 C 224.636719 250.277344 224.304688 250.925781 223.910156 251.527344 Z M 226.285156 255.695312 L 223.367188 255.695312 L 223.367188 254.363281 L 226.285156 254.363281 Z M 222.492188 255.695312 L 219.574219 255.695312 L 219.574219 254.363281 L 222.492188 254.363281 Z M 219.574219 253.613281 L 219.574219 252.300781 L 222.492188 252.300781 L 222.492188 253.613281 Z M 223.367188 252.300781 L 226.285156 252.300781 L 226.285156 253.613281 L 223.367188 253.613281 Z M 220.867188 249.632812 L 220.136719 249.988281 C 220.535156 250.445312 220.910156 250.945312 221.285156 251.527344 L 221.992188 251.152344 C 221.636719 250.613281 221.261719 250.089844 220.867188 249.632812 Z M 220.867188 249.632812 "/>
<path style=" stroke:none;fill-rule:nonzero;fill:rgb(0%,0%,0%);fill-opacity:1;" d="M 229.699219 251.695312 L 229.699219 252.550781 L 231.554688 252.550781 C 232.074219 254.402344 233.054688 256.007812 234.429688 257.382812 C 233.136719 258.550781 231.492188 259.402344 229.472656 259.945312 L 229.929688 260.695312 C 231.972656 260.113281 233.679688 259.195312 235.035156 257.925781 C 236.324219 259.050781 237.972656 259.964844 239.949219 260.714844 L 240.429688 259.988281 C 238.511719 259.277344 236.910156 258.402344 235.636719 257.320312 C 236.804688 256.050781 237.699219 254.445312 238.285156 252.550781 L 240.160156 252.550781 L 240.160156 251.695312 L 235.574219 251.695312 C 235.199219 250.863281 234.785156 250.152344 234.324219 249.570312 L 233.472656 249.882812 C 233.949219 250.445312 234.347656 251.050781 234.660156 251.695312 Z M 232.386719 252.550781 L 237.386719 252.550781 C 236.886719 254.214844 236.097656 255.613281 235.035156 256.777344 C 233.785156 255.570312 232.910156 254.175781 232.386719 252.550781 Z M 232.386719 252.550781 "/>
<path style=" stroke:none;fill-rule:nonzero;fill:rgb(0%,0%,0%);fill-opacity:1;" d="M 241.785156 251.863281 L 241.785156 252.695312 L 245.722656 252.695312 C 244.824219 254.820312 243.386719 256.570312 241.367188 257.902344 L 241.867188 258.714844 C 243.992188 257.132812 245.511719 255.132812 246.410156 252.695312 L 246.492188 252.695312 L 246.492188 257.382812 L 244.011719 257.382812 L 244.011719 258.214844 L 246.492188 258.214844 L 246.492188 260.675781 L 247.367188 260.675781 L 247.367188 258.214844 L 249.949219 258.214844 L 249.949219 257.382812 L 247.367188 257.382812 L 247.367188 252.695312 L 247.472656 252.695312 C 248.285156 254.863281 249.742188 256.820312 251.867188 258.550781 L 252.449219 257.820312 C 250.386719 256.320312 248.949219 254.613281 248.136719 252.695312 L 252.054688 252.695312 L 252.054688 251.863281 L 247.367188 251.863281 L 247.367188 249.695312 L 246.492188 249.695312 L 246.492188 251.863281 Z M 241.785156 251.863281 "/>
<path style=" stroke:none;fill-rule:nonzero;fill:rgb(0%,0%,0%);fill-opacity:1;" d="M 259.386719 249.613281 L 258.511719 249.757812 C 258.679688 250.027344 258.867188 250.339844 259.011719 250.652344 L 254.492188 250.652344 L 254.492188 254.527344 C 254.472656 256.882812 254.117188 258.738281 253.429688 260.070312 L 254.074219 260.632812 C 254.886719 259.113281 255.324219 257.070312 255.367188 254.527344 L 255.367188 251.445312 L 264.222656 251.445312 L 264.222656 250.652344 L 259.886719 250.652344 C 259.722656 250.277344 259.554688 249.925781 259.386719 249.613281 Z M 258.347656 253.738281 L 257.824219 254.238281 C 258.785156 254.714844 259.574219 255.175781 260.179688 255.613281 L 255.910156 255.613281 L 255.910156 256.425781 L 259.449219 256.425781 L 259.449219 259.425781 C 259.449219 259.757812 259.285156 259.925781 258.949219 259.925781 C 258.429688 259.925781 257.867188 259.902344 257.304688 259.882812 L 257.472656 260.695312 L 259.242188 260.695312 C 259.949219 260.695312 260.304688 260.320312 260.304688 259.613281 L 260.304688 256.425781 L 263.074219 256.425781 C 262.660156 257.089844 262.199219 257.675781 261.679688 258.152344 L 262.347656 258.652344 C 262.949219 258.007812 263.492188 257.214844 263.992188 256.277344 L 263.992188 255.613281 L 260.949219 255.613281 L 261.117188 255.425781 C 260.949219 255.300781 260.785156 255.175781 260.574219 255.050781 C 261.449219 254.488281 262.261719 253.820312 262.992188 253.027344 L 262.992188 252.402344 L 256.617188 252.402344 L 256.617188 253.152344 L 261.910156 253.152344 C 261.304688 253.714844 260.636719 254.195312 259.929688 254.613281 C 259.449219 254.320312 258.910156 254.007812 258.347656 253.738281 Z M 258.347656 253.738281 "/>
<path style=" stroke:none;fill-rule:nonzero;fill:rgb(0%,0%,0%);fill-opacity:1;" d="M 274.699219 260.550781 C 275.511719 260.550781 275.929688 260.132812 275.929688 259.277344 L 275.929688 249.738281 L 275.054688 249.738281 L 275.054688 259.089844 C 275.054688 259.550781 274.824219 259.800781 274.386719 259.800781 C 273.910156 259.800781 273.410156 259.757812 272.867188 259.738281 L 273.074219 260.550781 Z M 272.492188 250.652344 L 272.492188 258.238281 L 273.347656 258.238281 L 273.347656 250.652344 Z M 265.785156 250.175781 L 265.785156 251.007812 L 267.660156 251.007812 C 267.410156 252.988281 266.679688 254.527344 265.511719 255.652344 L 265.910156 256.445312 C 266.242188 256.152344 266.535156 255.820312 266.804688 255.464844 C 267.597656 255.882812 268.304688 256.363281 268.910156 256.863281 C 268.136719 258.113281 267.074219 259.089844 265.722656 259.777344 L 266.136719 260.550781 C 268.804688 259.195312 270.429688 256.820312 271.035156 253.425781 L 271.035156 252.652344 L 268.179688 252.652344 C 268.304688 252.152344 268.429688 251.589844 268.511719 251.007812 L 271.617188 251.007812 L 271.617188 250.175781 Z M 267.242188 254.800781 C 267.492188 254.382812 267.699219 253.964844 267.886719 253.488281 L 270.199219 253.488281 C 270.011719 254.445312 269.699219 255.339844 269.304688 256.132812 C 268.699219 255.675781 268.035156 255.238281 267.242188 254.800781 Z M 267.242188 254.800781 "/>
<path style="fill:none;stroke-width:1;stroke-linecap:round;stroke-linejoin:round;stroke:rgb(0%,0%,0%);stroke-opacity:1;stroke-dasharray:4,4;stroke-miterlimit:10;" d="M 265.699219 131.039063 L 193.842773 107.364258 " transform="matrix(1.333333,0,0,1.333333,-144,68)"/>
<path style="fill:none;stroke-width:1;stroke-linecap:round;stroke-linejoin:round;stroke:rgb(0%,0%,0%);stroke-opacity:1;stroke-dasharray:4,4;stroke-miterlimit:10;" d="M 271.734375 128.601563 L 234.128906 108.454102 " transform="matrix(1.333333,0,0,1.333333,-144,68)"/>
<path style="fill:none;stroke-width:1;stroke-linecap:round;stroke-linejoin:round;stroke:rgb(0%,0%,0%);stroke-opacity:1;stroke-dasharray:4,4;stroke-miterlimit:10;" d="M 298.605469 128.601563 L 308.083008 108.454102 " transform="matrix(1.333333,0,0,1.333333,-144,68)"/>
<path style="fill:none;stroke-width:1;stroke-linecap:round;stroke-linejoin:round;stroke:rgb(0%,0%,0%);stroke-opacity:1;stroke-dasharray:4,4;stroke-miterlimit:10;" d="M 312.043945 128.601563 L 345.058594 108.454102 " transform="matrix(1.333333,0,0,1.333333,-144,68)"/>
<path style="fill:none;stroke-width:1;stroke-linecap:round;stroke-linejoin:round;stroke:rgb(0%,0%,0%);stroke-opacity:1;stroke-dasharray:4,4;stroke-miterlimit:10;" d="M 320.698242 130.303711 L 383.636719 107.882813 " transform="matrix(1.333333,0,0,1.333333,-144,68)"/>
<path style="fill:none;stroke-width:1;stroke-linecap:round;stroke-linejoin:round;stroke:rgb(0%,0%,0%);stroke-opacity:1;stroke-dasharray:4,4;stroke-miterlimit:10;" d="M 285.172852 128.601563 L 271.104492 108.454102 " transform="matrix(1.333333,0,0,1.333333,-144,68)"/>
</g>
</svg>
