<?xml version="1.0" encoding="UTF-8"?>
<svg xmlns="http://www.w3.org/2000/svg" xmlns:xlink="http://www.w3.org/1999/xlink" width="473.333333" height="149.333333" viewBox="0 0 473.333333 149.333333" version="1.1">
<g id="surface1">
<path style="fill:none;stroke-width:1;stroke-linecap:round;stroke-linejoin:round;stroke:rgb(0%,0%,0%);stroke-opacity:1;stroke-miterlimit:10;" d="M 762.058594 188.829102 L 762.032227 185.84082 M 761.941406 174.836914 L 761.920898 172.507812 " transform="matrix(1.333333,0,0,1.333333,-744,-122.666667)"/>
<path style="fill:none;stroke-width:1;stroke-linecap:butt;stroke-linejoin:miter;stroke:rgb(0%,0%,0%);stroke-opacity:1;stroke-miterlimit:10;" d="M 761.891602 168.508789 L 761.920898 172.507812 M 760.420898 172.519531 L 761.891602 168.508789 L 763.420898 172.496094 " transform="matrix(1.333333,0,0,1.333333,-744,-122.666667)"/>
<path style="fill:none;stroke-width:1;stroke-linecap:round;stroke-linejoin:round;stroke:rgb(0%,0%,0%);stroke-opacity:1;stroke-miterlimit:10;" d="M 732.577148 157.074219 L 739.910156 157.118164 C 743.211914 157.135742 745.875 159.816406 745.875 163.118164 L 745.875 174.321289 C 745.875 177.628906 748.555664 180.3125 751.863281 180.321289 L 767.862305 180.356445 C 771.175781 180.362305 773.868164 177.68457 773.874023 174.368164 C 773.874023 174.362305 773.874023 174.359375 773.874023 174.356445 L 773.874023 172.270508 " transform="matrix(1.333333,0,0,1.333333,-744,-122.666667)"/>
<path style="fill:none;stroke-width:1;stroke-linecap:butt;stroke-linejoin:miter;stroke:rgb(0%,0%,0%);stroke-opacity:1;stroke-miterlimit:10;" d="M 773.874023 168.268555 L 773.874023 172.270508 M 772.374023 172.270508 L 773.874023 168.268555 L 775.374023 172.270508 " transform="matrix(1.333333,0,0,1.333333,-744,-122.666667)"/>
<path style="fill:none;stroke-width:1;stroke-linecap:round;stroke-linejoin:round;stroke:rgb(0%,0%,0%);stroke-opacity:1;stroke-miterlimit:10;" d="M 852.225586 147.362305 C 852.213867 144.558594 854.475586 142.276367 857.276367 142.264648 C 857.288086 142.264648 857.305664 142.264648 857.317383 142.264648 L 866.317383 142.296875 C 869.62793 142.308594 872.305664 145.006836 872.293945 148.320312 C 872.293945 148.323242 872.293945 148.329102 872.293945 148.332031 L 872.276367 151.499023 M 872.211914 162.5 L 872.167969 169.964844 C 872.147461 173.27832 874.819336 175.979492 878.132812 176 C 878.144531 176 878.15625 176 878.167969 176 L 884.8125 176 C 887.329102 176 889.479492 174.450195 890.370117 172.25293 " transform="matrix(1.333333,0,0,1.333333,-744,-122.666667)"/>
<path style="fill:none;stroke-width:1;stroke-linecap:butt;stroke-linejoin:miter;stroke:rgb(0%,0%,0%);stroke-opacity:1;stroke-miterlimit:10;" d="M 890.671875 168.262695 L 890.375977 172.25293 M 888.878906 172.141602 L 890.671875 168.262695 L 891.867188 172.364258 " transform="matrix(1.333333,0,0,1.333333,-744,-122.666667)"/>
<path style="fill:none;stroke-width:1;stroke-linecap:round;stroke-linejoin:round;stroke:rgb(0%,0%,0%);stroke-opacity:1;stroke-miterlimit:10;" d="M 809.0625 147.362305 C 809.050781 144.558594 811.3125 142.276367 814.113281 142.264648 C 814.125 142.264648 814.139648 142.264648 814.151367 142.264648 L 823.151367 142.296875 C 826.464844 142.308594 829.139648 145.006836 829.12793 148.320312 C 829.12793 148.323242 829.12793 148.329102 829.12793 148.332031 L 829.110352 151.499023 M 829.045898 162.5 L 829.004883 169.964844 C 828.984375 173.27832 831.65625 175.979492 834.969727 176 C 834.981445 176 834.993164 176 835.004883 176 L 841.649414 176 C 844.163086 176 846.316406 174.450195 847.207031 172.25293 " transform="matrix(1.333333,0,0,1.333333,-744,-122.666667)"/>
<path style="fill:none;stroke-width:1;stroke-linecap:butt;stroke-linejoin:miter;stroke:rgb(0%,0%,0%);stroke-opacity:1;stroke-miterlimit:10;" d="M 847.50293 168.262695 L 847.207031 172.25293 M 845.71582 172.141602 L 847.50293 168.262695 L 848.704102 172.364258 " transform="matrix(1.333333,0,0,1.333333,-744,-122.666667)"/>
<path style=" stroke:none;fill-rule:nonzero;fill:rgb(69.803923%,85.09804%,100%);fill-opacity:1;" d="M 4.5 98.667969 L 36.5 98.667969 L 36.5 74.667969 L 4.5 74.667969 Z M 4.5 98.667969 "/>
<path style="fill:none;stroke-width:1;stroke-linecap:round;stroke-linejoin:round;stroke:rgb(0%,0%,0%);stroke-opacity:1;stroke-miterlimit:10;" d="M 561.375 148.000977 L 585.375 148.000977 L 585.375 166.000977 L 561.375 166.000977 Z M 561.375 148.000977 " transform="matrix(1.333333,0,0,1.333333,-744,-122.666667)"/>
<path style=" stroke:none;fill-rule:nonzero;fill:rgb(0%,0%,0%);fill-opacity:1;" d="M 10.433594 125.539062 L 10.433594 117.957031 L 7.621094 117.957031 L 7.621094 116.957031 L 14.410156 116.957031 L 14.410156 117.957031 L 11.578125 117.957031 L 11.578125 125.539062 Z M 10.433594 125.539062 "/>
<path style=" stroke:none;fill-rule:nonzero;fill:rgb(0%,0%,0%);fill-opacity:1;" d="M 15.449219 125.539062 L 15.449219 116.957031 L 16.511719 116.957031 L 16.511719 120.039062 C 16.996094 119.472656 17.617188 119.1875 18.367188 119.1875 C 18.824219 119.1875 19.21875 119.28125 19.554688 119.457031 C 19.898438 119.640625 20.140625 119.890625 20.28125 120.207031 C 20.433594 120.53125 20.511719 120.992188 20.511719 121.601562 L 20.511719 125.539062 L 19.46875 125.539062 L 19.46875 121.601562 C 19.46875 121.078125 19.351562 120.695312 19.117188 120.457031 C 18.890625 120.207031 18.574219 120.082031 18.15625 120.082031 C 17.835938 120.082031 17.539062 120.164062 17.261719 120.332031 C 16.980469 120.488281 16.789062 120.703125 16.679688 120.976562 C 16.5625 121.257812 16.511719 121.644531 16.511719 122.144531 L 16.511719 125.539062 Z M 15.449219 125.539062 "/>
<path style=" stroke:none;fill-rule:nonzero;fill:rgb(0%,0%,0%);fill-opacity:1;" d="M 26.367188 123.539062 L 27.472656 123.664062 C 27.289062 124.304688 26.960938 124.804688 26.492188 125.164062 C 26.035156 125.515625 25.441406 125.6875 24.722656 125.6875 C 23.816406 125.6875 23.097656 125.410156 22.554688 124.851562 C 22.023438 124.285156 21.765625 123.492188 21.765625 122.476562 C 21.765625 121.4375 22.035156 120.632812 22.578125 120.0625 C 23.117188 119.476562 23.816406 119.1875 24.679688 119.1875 C 25.515625 119.1875 26.1875 119.472656 26.703125 120.039062 C 27.226562 120.597656 27.492188 121.390625 27.492188 122.414062 C 27.492188 122.488281 27.492188 122.582031 27.492188 122.707031 L 22.847656 122.707031 C 22.890625 123.390625 23.082031 123.910156 23.429688 124.269531 C 23.773438 124.632812 24.210938 124.8125 24.742188 124.8125 C 25.128906 124.8125 25.457031 124.71875 25.722656 124.519531 C 26 124.3125 26.210938 123.988281 26.367188 123.539062 Z M 22.910156 121.832031 L 26.390625 121.832031 C 26.347656 121.304688 26.210938 120.910156 25.992188 120.644531 C 25.660156 120.242188 25.222656 120.039062 24.679688 120.039062 C 24.191406 120.039062 23.785156 120.207031 23.453125 120.539062 C 23.128906 120.863281 22.953125 121.289062 22.910156 121.832031 Z M 22.910156 121.832031 "/>
<path style=" stroke:none;fill-rule:nonzero;fill:rgb(0%,0%,0%);fill-opacity:1;" d="M 28.746094 127.9375 L 28.621094 126.957031 C 28.855469 127.007812 29.058594 127.039062 29.226562 127.039062 C 29.460938 127.039062 29.648438 127 29.789062 126.914062 C 29.921875 126.84375 30.042969 126.738281 30.140625 126.601562 C 30.195312 126.488281 30.296875 126.226562 30.453125 125.8125 C 30.480469 125.753906 30.515625 125.671875 30.558594 125.5625 L 28.183594 119.3125 L 29.328125 119.3125 L 30.621094 122.914062 C 30.789062 123.375 30.9375 123.851562 31.078125 124.351562 C 31.1875 123.882812 31.328125 123.410156 31.496094 122.9375 L 32.828125 119.3125 L 33.890625 119.3125 L 31.515625 125.644531 C 31.265625 126.320312 31.070312 126.796875 30.933594 127.0625 C 30.734375 127.40625 30.523438 127.65625 30.289062 127.8125 C 30.046875 127.976562 29.757812 128.0625 29.414062 128.0625 C 29.214844 128.0625 28.996094 128.019531 28.746094 127.9375 Z M 28.746094 127.9375 "/>
<path style=" stroke:none;fill-rule:nonzero;fill:rgb(69.803923%,85.09804%,100%);fill-opacity:1;" d="M 53.644531 98.667969 L 85.644531 98.667969 L 85.644531 74.667969 L 53.644531 74.667969 Z M 53.644531 98.667969 "/>
<path style="fill:none;stroke-width:1;stroke-linecap:round;stroke-linejoin:round;stroke:rgb(0%,0%,0%);stroke-opacity:1;stroke-miterlimit:10;" d="M 598.233398 148.000977 L 622.233398 148.000977 L 622.233398 166.000977 L 598.233398 166.000977 Z M 598.233398 148.000977 " transform="matrix(1.333333,0,0,1.333333,-744,-122.666667)"/>
<path style="fill:none;stroke-width:1;stroke-linecap:round;stroke-linejoin:round;stroke:rgb(0%,0%,0%);stroke-opacity:1;stroke-miterlimit:10;" d="M 585.375 157.000977 L 592.333008 157.000977 " transform="matrix(1.333333,0,0,1.333333,-744,-122.666667)"/>
<path style="fill:none;stroke-width:1;stroke-linecap:butt;stroke-linejoin:miter;stroke:rgb(0%,0%,0%);stroke-opacity:1;stroke-miterlimit:10;" d="M 596.332031 157.000977 L 592.333008 157.000977 M 592.333008 155.500977 L 596.332031 157.000977 L 592.333008 158.500977 " transform="matrix(1.333333,0,0,1.333333,-744,-122.666667)"/>
<path style="fill:none;stroke-width:1;stroke-linecap:round;stroke-linejoin:round;stroke:rgb(0%,0%,0%);stroke-opacity:1;stroke-miterlimit:10;" d="M 573.46582 176.155273 L 573.445312 171.898438 " transform="matrix(1.333333,0,0,1.333333,-744,-122.666667)"/>
<path style="fill:none;stroke-width:1;stroke-linecap:butt;stroke-linejoin:miter;stroke:rgb(0%,0%,0%);stroke-opacity:1;stroke-miterlimit:10;" d="M 573.424805 167.899414 L 573.445312 171.898438 M 571.945312 171.907227 L 573.424805 167.899414 L 574.945312 171.895508 " transform="matrix(1.333333,0,0,1.333333,-744,-122.666667)"/>
<path style=" stroke:none;fill-rule:nonzero;fill:rgb(69.803923%,85.09804%,100%);fill-opacity:1;" d="M 102.167969 98.667969 L 134.167969 98.667969 L 134.167969 74.667969 L 102.167969 74.667969 Z M 102.167969 98.667969 "/>
<path style="fill:none;stroke-width:1;stroke-linecap:round;stroke-linejoin:round;stroke:rgb(0%,0%,0%);stroke-opacity:1;stroke-miterlimit:10;" d="M 634.625977 148.000977 L 658.625977 148.000977 L 658.625977 166.000977 L 634.625977 166.000977 Z M 634.625977 148.000977 " transform="matrix(1.333333,0,0,1.333333,-744,-122.666667)"/>
<path style=" stroke:none;fill-rule:nonzero;fill:rgb(69.803923%,85.09804%,100%);fill-opacity:1;" d="M 150.363281 98.667969 L 182.363281 98.667969 L 182.363281 74.667969 L 150.363281 74.667969 Z M 150.363281 98.667969 "/>
<path style="fill:none;stroke-width:1;stroke-linecap:round;stroke-linejoin:round;stroke:rgb(0%,0%,0%);stroke-opacity:1;stroke-miterlimit:10;" d="M 670.772461 148.000977 L 694.772461 148.000977 L 694.772461 166.000977 L 670.772461 166.000977 Z M 670.772461 148.000977 " transform="matrix(1.333333,0,0,1.333333,-744,-122.666667)"/>
<path style=" stroke:none;fill-rule:nonzero;fill:rgb(69.803923%,85.09804%,100%);fill-opacity:1;" d="M 200.769531 98.667969 L 232.769531 98.667969 L 232.769531 74.667969 L 200.769531 74.667969 Z M 200.769531 98.667969 "/>
<path style="fill:none;stroke-width:1;stroke-linecap:round;stroke-linejoin:round;stroke:rgb(0%,0%,0%);stroke-opacity:1;stroke-miterlimit:10;" d="M 708.577148 148.000977 L 732.577148 148.000977 L 732.577148 166.000977 L 708.577148 166.000977 Z M 708.577148 148.000977 " transform="matrix(1.333333,0,0,1.333333,-744,-122.666667)"/>
<path style=" stroke:none;fill-rule:nonzero;fill:rgb(0%,0%,0%);fill-opacity:1;" d="M 65.992188 124.769531 C 65.601562 125.101562 65.226562 125.34375 64.867188 125.476562 C 64.503906 125.613281 64.117188 125.6875 63.703125 125.6875 C 63.019531 125.6875 62.492188 125.519531 62.117188 125.1875 C 61.753906 124.851562 61.578125 124.425781 61.578125 123.894531 C 61.578125 123.59375 61.644531 123.3125 61.785156 123.0625 C 61.921875 122.8125 62.101562 122.613281 62.328125 122.457031 C 62.546875 122.304688 62.796875 122.1875 63.078125 122.101562 C 63.285156 122.0625 63.597656 122.015625 64.015625 121.957031 C 64.875 121.863281 65.503906 121.738281 65.910156 121.582031 C 65.910156 121.445312 65.910156 121.351562 65.910156 121.3125 C 65.910156 120.882812 65.8125 120.582031 65.617188 120.414062 C 65.335938 120.164062 64.9375 120.039062 64.410156 120.039062 C 63.910156 120.039062 63.539062 120.132812 63.304688 120.3125 C 63.066406 120.476562 62.894531 120.785156 62.785156 121.226562 L 61.765625 121.101562 C 61.847656 120.660156 61.992188 120.304688 62.203125 120.039062 C 62.421875 119.765625 62.734375 119.554688 63.140625 119.414062 C 63.554688 119.265625 64.023438 119.1875 64.554688 119.1875 C 65.097656 119.1875 65.523438 119.25 65.847656 119.375 C 66.179688 119.5 66.421875 119.660156 66.578125 119.851562 C 66.742188 120.035156 66.851562 120.269531 66.910156 120.5625 C 66.953125 120.742188 66.972656 121.0625 66.972656 121.519531 L 66.972656 122.9375 C 66.972656 123.910156 66.992188 124.53125 67.035156 124.789062 C 67.078125 125.054688 67.164062 125.304688 67.304688 125.539062 L 66.203125 125.539062 C 66.085938 125.320312 66.019531 125.0625 65.992188 124.769531 Z M 65.910156 122.414062 C 65.519531 122.570312 64.941406 122.703125 64.179688 122.8125 C 63.75 122.882812 63.441406 122.957031 63.265625 123.039062 C 63.082031 123.113281 62.941406 123.222656 62.847656 123.375 C 62.75 123.53125 62.703125 123.695312 62.703125 123.875 C 62.703125 124.15625 62.804688 124.390625 63.015625 124.582031 C 63.222656 124.765625 63.535156 124.851562 63.953125 124.851562 C 64.351562 124.851562 64.710938 124.765625 65.035156 124.582031 C 65.351562 124.40625 65.585938 124.160156 65.742188 123.851562 C 65.851562 123.617188 65.910156 123.269531 65.910156 122.8125 Z M 65.910156 122.414062 "/>
<path style=" stroke:none;fill-rule:nonzero;fill:rgb(0%,0%,0%);fill-opacity:1;" d="M 68.585938 125.539062 L 68.585938 119.3125 L 69.542969 119.3125 L 69.542969 120.269531 C 69.777344 119.828125 70 119.535156 70.210938 119.394531 C 70.417969 119.257812 70.648438 119.1875 70.898438 119.1875 C 71.242188 119.1875 71.605469 119.300781 71.980469 119.519531 L 71.605469 120.5 C 71.355469 120.347656 71.09375 120.269531 70.835938 120.269531 C 70.609375 120.269531 70.402344 120.34375 70.210938 120.476562 C 70.027344 120.617188 69.898438 120.8125 69.8125 121.0625 C 69.699219 121.4375 69.648438 121.847656 69.648438 122.289062 L 69.648438 125.539062 Z M 68.585938 125.539062 "/>
<path style=" stroke:none;fill-rule:nonzero;fill:rgb(0%,0%,0%);fill-opacity:1;" d="M 76.851562 123.539062 L 77.953125 123.664062 C 77.773438 124.304688 77.445312 124.804688 76.976562 125.164062 C 76.515625 125.515625 75.921875 125.6875 75.203125 125.6875 C 74.296875 125.6875 73.578125 125.410156 73.039062 124.851562 C 72.507812 124.285156 72.246094 123.492188 72.246094 122.476562 C 72.246094 121.4375 72.515625 120.632812 73.058594 120.0625 C 73.601562 119.476562 74.296875 119.1875 75.164062 119.1875 C 75.996094 119.1875 76.667969 119.472656 77.183594 120.039062 C 77.710938 120.597656 77.976562 121.390625 77.976562 122.414062 C 77.976562 122.488281 77.976562 122.582031 77.976562 122.707031 L 73.328125 122.707031 C 73.371094 123.390625 73.5625 123.910156 73.914062 124.269531 C 74.257812 124.632812 74.695312 124.8125 75.226562 124.8125 C 75.609375 124.8125 75.9375 124.71875 76.203125 124.519531 C 76.480469 124.3125 76.695312 123.988281 76.851562 123.539062 Z M 73.390625 121.832031 L 76.871094 121.832031 C 76.828125 121.304688 76.695312 120.910156 76.476562 120.644531 C 76.140625 120.242188 75.703125 120.039062 75.164062 120.039062 C 74.671875 120.039062 74.265625 120.207031 73.933594 120.539062 C 73.609375 120.863281 73.433594 121.289062 73.390625 121.832031 Z M 73.390625 121.832031 "/>
<path style=" stroke:none;fill-rule:nonzero;fill:rgb(0%,0%,0%);fill-opacity:1;" d="M 96.59375 125.539062 L 94.695312 119.3125 L 95.78125 119.3125 L 96.78125 122.914062 L 97.132812 124.25 C 97.144531 124.179688 97.257812 123.75 97.46875 122.957031 L 98.445312 119.3125 L 99.53125 119.3125 L 100.46875 122.9375 L 100.78125 124.125 L 101.132812 122.914062 L 102.195312 119.3125 L 103.21875 119.3125 L 101.28125 125.539062 L 100.195312 125.539062 L 99.195312 121.8125 L 98.945312 120.75 L 97.695312 125.539062 Z M 96.59375 125.539062 "/>
<path style=" stroke:none;fill-rule:nonzero;fill:rgb(0%,0%,0%);fill-opacity:1;" d="M 108.175781 124.769531 C 107.785156 125.101562 107.410156 125.34375 107.050781 125.476562 C 106.6875 125.613281 106.300781 125.6875 105.882812 125.6875 C 105.203125 125.6875 104.675781 125.519531 104.300781 125.1875 C 103.9375 124.851562 103.757812 124.425781 103.757812 123.894531 C 103.757812 123.59375 103.828125 123.3125 103.96875 123.0625 C 104.101562 122.8125 104.285156 122.613281 104.507812 122.457031 C 104.726562 122.304688 104.976562 122.1875 105.257812 122.101562 C 105.46875 122.0625 105.78125 122.015625 106.195312 121.957031 C 107.054688 121.863281 107.6875 121.738281 108.09375 121.582031 C 108.09375 121.445312 108.09375 121.351562 108.09375 121.3125 C 108.09375 120.882812 107.992188 120.582031 107.800781 120.414062 C 107.519531 120.164062 107.117188 120.039062 106.59375 120.039062 C 106.09375 120.039062 105.722656 120.132812 105.488281 120.3125 C 105.25 120.476562 105.078125 120.785156 104.96875 121.226562 L 103.945312 121.101562 C 104.03125 120.660156 104.175781 120.304688 104.382812 120.039062 C 104.601562 119.765625 104.914062 119.554688 105.320312 119.414062 C 105.738281 119.265625 106.207031 119.1875 106.738281 119.1875 C 107.28125 119.1875 107.707031 119.25 108.03125 119.375 C 108.363281 119.5 108.601562 119.660156 108.757812 119.851562 C 108.925781 120.035156 109.035156 120.269531 109.09375 120.5625 C 109.132812 120.742188 109.15625 121.0625 109.15625 121.519531 L 109.15625 122.9375 C 109.15625 123.910156 109.175781 124.53125 109.21875 124.789062 C 109.257812 125.054688 109.347656 125.304688 109.488281 125.539062 L 108.382812 125.539062 C 108.269531 125.320312 108.203125 125.0625 108.175781 124.769531 Z M 108.09375 122.414062 C 107.703125 122.570312 107.125 122.703125 106.363281 122.8125 C 105.929688 122.882812 105.625 122.957031 105.445312 123.039062 C 105.265625 123.113281 105.125 123.222656 105.03125 123.375 C 104.929688 123.53125 104.882812 123.695312 104.882812 123.875 C 104.882812 124.15625 104.988281 124.390625 105.195312 124.582031 C 105.40625 124.765625 105.71875 124.851562 106.132812 124.851562 C 106.535156 124.851562 106.894531 124.765625 107.21875 124.582031 C 107.535156 124.40625 107.769531 124.160156 107.925781 123.851562 C 108.035156 123.617188 108.09375 123.269531 108.09375 122.8125 Z M 108.09375 122.414062 "/>
<path style=" stroke:none;fill-rule:nonzero;fill:rgb(0%,0%,0%);fill-opacity:1;" d="M 113.101562 124.601562 L 113.246094 125.519531 C 112.9375 125.585938 112.671875 125.625 112.453125 125.625 C 112.0625 125.625 111.765625 125.5625 111.558594 125.4375 C 111.351562 125.3125 111.195312 125.15625 111.101562 124.957031 C 111.015625 124.765625 110.976562 124.351562 110.976562 123.726562 L 110.976562 120.144531 L 110.203125 120.144531 L 110.203125 119.3125 L 110.976562 119.3125 L 110.976562 117.769531 L 112.039062 117.144531 L 112.039062 119.3125 L 113.101562 119.3125 L 113.101562 120.144531 L 112.039062 120.144531 L 112.039062 123.769531 C 112.039062 124.078125 112.046875 124.269531 112.078125 124.351562 C 112.121094 124.4375 112.183594 124.507812 112.265625 124.5625 C 112.351562 124.617188 112.464844 124.644531 112.621094 124.644531 C 112.746094 124.644531 112.902344 124.632812 113.101562 124.601562 Z M 113.101562 124.601562 "/>
<path style=" stroke:none;fill-rule:nonzero;fill:rgb(0%,0%,0%);fill-opacity:1;" d="M 118.183594 123.269531 L 119.226562 123.394531 C 119.109375 124.117188 118.820312 124.679688 118.351562 125.082031 C 117.875 125.488281 117.296875 125.6875 116.621094 125.6875 C 115.773438 125.6875 115.089844 125.410156 114.578125 124.851562 C 114.0625 124.300781 113.808594 123.5 113.808594 122.457031 C 113.808594 121.78125 113.917969 121.1875 114.140625 120.6875 C 114.359375 120.1875 114.695312 119.8125 115.140625 119.5625 C 115.601562 119.3125 116.101562 119.1875 116.640625 119.1875 C 117.308594 119.1875 117.855469 119.363281 118.289062 119.707031 C 118.714844 120.039062 118.996094 120.519531 119.121094 121.144531 L 118.101562 121.3125 C 118 120.894531 117.828125 120.582031 117.578125 120.375 C 117.328125 120.15625 117.027344 120.039062 116.683594 120.039062 C 116.140625 120.039062 115.703125 120.238281 115.371094 120.625 C 115.046875 121 114.890625 121.597656 114.890625 122.414062 C 114.890625 123.265625 115.046875 123.875 115.371094 124.25 C 115.6875 124.625 116.105469 124.8125 116.621094 124.8125 C 117.039062 124.8125 117.382812 124.6875 117.664062 124.4375 C 117.9375 124.1875 118.109375 123.800781 118.183594 123.269531 Z M 118.183594 123.269531 "/>
<path style=" stroke:none;fill-rule:nonzero;fill:rgb(0%,0%,0%);fill-opacity:1;" d="M 120.121094 125.539062 L 120.121094 116.957031 L 121.183594 116.957031 L 121.183594 120.039062 C 121.667969 119.472656 122.289062 119.1875 123.039062 119.1875 C 123.496094 119.1875 123.890625 119.28125 124.226562 119.457031 C 124.570312 119.640625 124.8125 119.890625 124.953125 120.207031 C 125.105469 120.53125 125.183594 120.992188 125.183594 121.601562 L 125.183594 125.539062 L 124.140625 125.539062 L 124.140625 121.601562 C 124.140625 121.078125 124.023438 120.695312 123.789062 120.457031 C 123.5625 120.207031 123.246094 120.082031 122.828125 120.082031 C 122.507812 120.082031 122.210938 120.164062 121.933594 120.332031 C 121.652344 120.488281 121.460938 120.703125 121.351562 120.976562 C 121.234375 121.257812 121.183594 121.644531 121.183594 122.144531 L 121.183594 125.539062 Z M 120.121094 125.539062 "/>
<path style=" stroke:none;fill-rule:nonzero;fill:rgb(0%,0%,0%);fill-opacity:1;" d="M 126.796875 118.164062 L 126.796875 116.957031 L 127.859375 116.957031 L 127.859375 118.164062 Z M 126.796875 125.539062 L 126.796875 119.3125 L 127.859375 119.3125 L 127.859375 125.539062 Z M 126.796875 125.539062 "/>
<path style=" stroke:none;fill-rule:nonzero;fill:rgb(0%,0%,0%);fill-opacity:1;" d="M 129.460938 125.539062 L 129.460938 119.3125 L 130.421875 119.3125 L 130.421875 120.207031 C 130.863281 119.53125 131.523438 119.1875 132.398438 119.1875 C 132.773438 119.1875 133.113281 119.257812 133.421875 119.394531 C 133.738281 119.519531 133.972656 119.695312 134.128906 119.914062 C 134.28125 120.125 134.390625 120.382812 134.460938 120.6875 C 134.503906 120.882812 134.523438 121.222656 134.523438 121.707031 L 134.523438 125.539062 L 133.460938 125.539062 L 133.460938 121.75 C 133.460938 121.320312 133.421875 121 133.335938 120.789062 C 133.253906 120.582031 133.109375 120.414062 132.898438 120.289062 C 132.691406 120.15625 132.445312 120.082031 132.171875 120.082031 C 131.722656 120.082031 131.335938 120.226562 131.003906 120.519531 C 130.679688 120.800781 130.523438 121.34375 130.523438 122.144531 L 130.523438 125.539062 Z M 129.460938 125.539062 "/>
<path style=" stroke:none;fill-rule:nonzero;fill:rgb(0%,0%,0%);fill-opacity:1;" d="M 135.949219 126.0625 L 136.96875 126.207031 C 137.011719 126.523438 137.125 126.753906 137.324219 126.894531 C 137.585938 127.085938 137.949219 127.1875 138.40625 127.1875 C 138.890625 127.1875 139.265625 127.085938 139.53125 126.894531 C 139.792969 126.695312 139.976562 126.425781 140.074219 126.082031 C 140.125 125.859375 140.148438 125.410156 140.136719 124.726562 C 139.679688 125.269531 139.105469 125.539062 138.429688 125.539062 C 137.5625 125.539062 136.898438 125.238281 136.429688 124.625 C 135.96875 124 135.742188 123.257812 135.742188 122.394531 C 135.742188 121.800781 135.84375 121.25 136.054688 120.75 C 136.273438 120.25 136.585938 119.867188 136.992188 119.601562 C 137.390625 119.328125 137.871094 119.1875 138.429688 119.1875 C 139.164062 119.1875 139.765625 119.476562 140.242188 120.0625 L 140.242188 119.3125 L 141.21875 119.3125 L 141.21875 124.6875 C 141.21875 125.65625 141.117188 126.34375 140.90625 126.75 C 140.710938 127.148438 140.398438 127.46875 139.96875 127.707031 C 139.554688 127.941406 139.03125 128.0625 138.40625 128.0625 C 137.65625 128.0625 137.054688 127.894531 136.59375 127.5625 C 136.148438 127.226562 135.933594 126.726562 135.949219 126.0625 Z M 136.824219 122.3125 C 136.824219 123.132812 136.980469 123.726562 137.304688 124.101562 C 137.621094 124.476562 138.023438 124.664062 138.511719 124.664062 C 138.996094 124.664062 139.40625 124.476562 139.742188 124.101562 C 140.074219 123.726562 140.242188 123.144531 140.242188 122.351562 C 140.242188 121.59375 140.0625 121.015625 139.71875 120.625 C 139.386719 120.238281 138.980469 120.039062 138.511719 120.039062 C 138.039062 120.039062 137.636719 120.238281 137.304688 120.625 C 136.980469 121 136.824219 121.5625 136.824219 122.3125 Z M 136.824219 122.3125 "/>
<path style=" stroke:none;fill-rule:nonzero;fill:rgb(0%,0%,0%);fill-opacity:1;" d="M 165.949219 125.539062 L 165.949219 124.332031 L 167.15625 124.332031 L 167.15625 125.539062 Z M 165.949219 125.539062 "/>
<path style=" stroke:none;fill-rule:nonzero;fill:rgb(0%,0%,0%);fill-opacity:1;" d="M 200.921875 121.789062 L 200.921875 120.789062 L 206.609375 118.394531 L 206.609375 119.4375 L 202.089844 121.289062 L 206.609375 123.164062 L 206.609375 124.207031 Z M 200.921875 121.789062 "/>
<path style=" stroke:none;fill-rule:nonzero;fill:rgb(0%,0%,0%);fill-opacity:1;" d="M 212.304688 123.539062 L 213.410156 123.664062 C 213.226562 124.304688 212.898438 124.804688 212.429688 125.164062 C 211.972656 125.515625 211.378906 125.6875 210.660156 125.6875 C 209.753906 125.6875 209.035156 125.410156 208.492188 124.851562 C 207.960938 124.285156 207.703125 123.492188 207.703125 122.476562 C 207.703125 121.4375 207.972656 120.632812 208.515625 120.0625 C 209.054688 119.476562 209.753906 119.1875 210.617188 119.1875 C 211.453125 119.1875 212.125 119.472656 212.640625 120.039062 C 213.164062 120.597656 213.429688 121.390625 213.429688 122.414062 C 213.429688 122.488281 213.429688 122.582031 213.429688 122.707031 L 208.785156 122.707031 C 208.828125 123.390625 209.019531 123.910156 209.367188 124.269531 C 209.710938 124.632812 210.148438 124.8125 210.679688 124.8125 C 211.066406 124.8125 211.394531 124.71875 211.660156 124.519531 C 211.9375 124.3125 212.148438 123.988281 212.304688 123.539062 Z M 208.847656 121.832031 L 212.328125 121.832031 C 212.285156 121.304688 212.148438 120.910156 211.929688 120.644531 C 211.597656 120.242188 211.160156 120.039062 210.617188 120.039062 C 210.128906 120.039062 209.722656 120.207031 209.390625 120.539062 C 209.066406 120.863281 208.890625 121.289062 208.847656 121.832031 Z M 208.847656 121.832031 "/>
<path style=" stroke:none;fill-rule:nonzero;fill:rgb(0%,0%,0%);fill-opacity:1;" d="M 214.335938 122.4375 C 214.335938 121.285156 214.652344 120.429688 215.292969 119.875 C 215.835938 119.414062 216.484375 119.1875 217.25 119.1875 C 218.109375 119.1875 218.8125 119.46875 219.355469 120.019531 C 219.898438 120.578125 220.167969 121.347656 220.167969 122.332031 C 220.167969 123.140625 220.042969 123.769531 219.792969 124.226562 C 219.554688 124.6875 219.210938 125.050781 218.75 125.3125 C 218.292969 125.5625 217.792969 125.6875 217.25 125.6875 C 216.375 125.6875 215.667969 125.410156 215.125 124.851562 C 214.59375 124.285156 214.335938 123.476562 214.335938 122.4375 Z M 215.417969 122.4375 C 215.417969 123.226562 215.589844 123.828125 215.9375 124.226562 C 216.28125 124.617188 216.71875 124.8125 217.25 124.8125 C 217.777344 124.8125 218.214844 124.617188 218.5625 124.226562 C 218.90625 123.828125 219.085938 123.21875 219.085938 122.394531 C 219.085938 121.632812 218.90625 121.050781 218.5625 120.644531 C 218.214844 120.242188 217.777344 120.039062 217.25 120.039062 C 216.71875 120.039062 216.28125 120.242188 215.9375 120.644531 C 215.589844 121.035156 215.417969 121.632812 215.417969 122.4375 Z M 215.417969 122.4375 "/>
<path style=" stroke:none;fill-rule:nonzero;fill:rgb(0%,0%,0%);fill-opacity:1;" d="M 220.988281 123.6875 L 222.03125 123.519531 C 222.082031 123.9375 222.242188 124.257812 222.507812 124.476562 C 222.785156 124.703125 223.160156 124.8125 223.632812 124.8125 C 224.117188 124.8125 224.476562 124.71875 224.71875 124.519531 C 224.953125 124.328125 225.070312 124.097656 225.070312 123.832031 C 225.070312 123.582031 224.96875 123.394531 224.757812 123.269531 C 224.601562 123.175781 224.242188 123.050781 223.675781 122.894531 C 222.894531 122.703125 222.351562 122.535156 222.050781 122.394531 C 221.757812 122.257812 221.535156 122.0625 221.382812 121.8125 C 221.226562 121.5625 221.15625 121.285156 221.15625 120.976562 C 221.15625 120.703125 221.21875 120.445312 221.34375 120.207031 C 221.46875 119.972656 221.640625 119.769531 221.863281 119.601562 C 222.03125 119.492188 222.25 119.394531 222.53125 119.3125 C 222.820312 119.226562 223.125 119.1875 223.445312 119.1875 C 223.929688 119.1875 224.351562 119.257812 224.71875 119.394531 C 225.09375 119.535156 225.367188 119.722656 225.550781 119.957031 C 225.726562 120.195312 225.851562 120.515625 225.925781 120.914062 L 224.882812 121.0625 C 224.84375 120.742188 224.703125 120.492188 224.46875 120.3125 C 224.242188 120.132812 223.929688 120.039062 223.53125 120.039062 C 223.039062 120.039062 222.695312 120.125 222.488281 120.289062 C 222.28125 120.445312 222.175781 120.632812 222.175781 120.851562 C 222.175781 120.992188 222.21875 121.113281 222.300781 121.207031 C 222.382812 121.332031 222.519531 121.429688 222.71875 121.5 C 222.8125 121.539062 223.117188 121.632812 223.632812 121.769531 C 224.382812 121.96875 224.90625 122.125 225.195312 122.25 C 225.5 122.375 225.738281 122.5625 225.90625 122.8125 C 226.070312 123.050781 226.15625 123.347656 226.15625 123.707031 C 226.15625 124.070312 226.050781 124.40625 225.84375 124.707031 C 225.632812 125.015625 225.332031 125.257812 224.945312 125.4375 C 224.570312 125.601562 224.132812 125.6875 223.632812 125.6875 C 222.828125 125.6875 222.207031 125.519531 221.78125 125.1875 C 221.363281 124.84375 221.097656 124.34375 220.988281 123.6875 Z M 220.988281 123.6875 "/>
<path style=" stroke:none;fill-rule:nonzero;fill:rgb(0%,0%,0%);fill-opacity:1;" d="M 232.96875 121.789062 L 227.28125 124.207031 L 227.28125 123.164062 L 231.78125 121.289062 L 227.28125 119.4375 L 227.28125 118.394531 L 232.96875 120.789062 Z M 232.96875 121.789062 "/>
<path style="fill:none;stroke-width:1;stroke-linecap:round;stroke-linejoin:round;stroke:rgb(0%,0%,0%);stroke-opacity:1;stroke-miterlimit:10;" d="M 753.875977 148.000977 L 777.875977 148.000977 L 777.875977 166.000977 L 753.875977 166.000977 Z M 753.875977 148.000977 " transform="matrix(1.333333,0,0,1.333333,-744,-122.666667)"/>
<path style="fill:none;stroke-width:1;stroke-linecap:round;stroke-linejoin:round;stroke:rgb(0%,0%,0%);stroke-opacity:1;stroke-miterlimit:10;" d="M 796.875 148.000977 L 820.875 148.000977 L 820.875 166.000977 L 796.875 166.000977 Z M 796.875 148.000977 " transform="matrix(1.333333,0,0,1.333333,-744,-122.666667)"/>
<path style="fill:none;stroke-width:1;stroke-linecap:round;stroke-linejoin:round;stroke:rgb(0%,0%,0%);stroke-opacity:1;stroke-miterlimit:10;" d="M 840.301758 148.000977 L 864.301758 148.000977 L 864.301758 166.000977 L 840.301758 166.000977 Z M 840.301758 148.000977 " transform="matrix(1.333333,0,0,1.333333,-744,-122.666667)"/>
<path style="fill:none;stroke-width:1;stroke-linecap:round;stroke-linejoin:round;stroke:rgb(0%,0%,0%);stroke-opacity:1;stroke-miterlimit:10;" d="M 883.148438 148.000977 L 907.148438 148.000977 L 907.148438 166.000977 L 883.148438 166.000977 Z M 883.148438 148.000977 " transform="matrix(1.333333,0,0,1.333333,-744,-122.666667)"/>
<path style="fill:none;stroke-width:1;stroke-linecap:round;stroke-linejoin:round;stroke:rgb(0%,0%,0%);stroke-opacity:1;stroke-miterlimit:10;" d="M 610.324219 176.155273 L 610.303711 171.898438 " transform="matrix(1.333333,0,0,1.333333,-744,-122.666667)"/>
<path style="fill:none;stroke-width:1;stroke-linecap:butt;stroke-linejoin:miter;stroke:rgb(0%,0%,0%);stroke-opacity:1;stroke-miterlimit:10;" d="M 610.286133 167.899414 L 610.303711 171.898438 M 608.803711 171.907227 L 610.286133 167.899414 L 611.803711 171.895508 " transform="matrix(1.333333,0,0,1.333333,-744,-122.666667)"/>
<path style="fill:none;stroke-width:1;stroke-linecap:round;stroke-linejoin:round;stroke:rgb(0%,0%,0%);stroke-opacity:1;stroke-miterlimit:10;" d="M 622.233398 157.000977 L 628.725586 157.000977 " transform="matrix(1.333333,0,0,1.333333,-744,-122.666667)"/>
<path style="fill:none;stroke-width:1;stroke-linecap:butt;stroke-linejoin:miter;stroke:rgb(0%,0%,0%);stroke-opacity:1;stroke-miterlimit:10;" d="M 632.727539 157.000977 L 628.725586 157.000977 M 628.725586 155.500977 L 632.727539 157.000977 L 628.725586 158.500977 " transform="matrix(1.333333,0,0,1.333333,-744,-122.666667)"/>
<path style="fill:none;stroke-width:1;stroke-linecap:round;stroke-linejoin:round;stroke:rgb(0%,0%,0%);stroke-opacity:1;stroke-miterlimit:10;" d="M 658.625977 157.000977 L 664.875 157.000977 " transform="matrix(1.333333,0,0,1.333333,-744,-122.666667)"/>
<path style="fill:none;stroke-width:1;stroke-linecap:butt;stroke-linejoin:miter;stroke:rgb(0%,0%,0%);stroke-opacity:1;stroke-miterlimit:10;" d="M 668.874023 157.000977 L 664.875 157.000977 M 664.875 155.500977 L 668.874023 157.000977 L 664.875 158.500977 " transform="matrix(1.333333,0,0,1.333333,-744,-122.666667)"/>
<path style="fill:none;stroke-width:1;stroke-linecap:round;stroke-linejoin:round;stroke:rgb(0%,0%,0%);stroke-opacity:1;stroke-miterlimit:10;" d="M 694.772461 157.000977 L 702.679688 157.000977 " transform="matrix(1.333333,0,0,1.333333,-744,-122.666667)"/>
<path style="fill:none;stroke-width:1;stroke-linecap:butt;stroke-linejoin:miter;stroke:rgb(0%,0%,0%);stroke-opacity:1;stroke-miterlimit:10;" d="M 706.678711 157.000977 L 702.679688 157.000977 M 702.679688 155.500977 L 706.678711 157.000977 L 702.679688 158.500977 " transform="matrix(1.333333,0,0,1.333333,-744,-122.666667)"/>
<path style="fill:none;stroke-width:1;stroke-linecap:round;stroke-linejoin:round;stroke:rgb(0%,0%,0%);stroke-opacity:1;stroke-miterlimit:10;" d="M 646.719727 176.155273 L 646.699219 171.898438 " transform="matrix(1.333333,0,0,1.333333,-744,-122.666667)"/>
<path style="fill:none;stroke-width:1;stroke-linecap:butt;stroke-linejoin:miter;stroke:rgb(0%,0%,0%);stroke-opacity:1;stroke-miterlimit:10;" d="M 646.678711 167.899414 L 646.699219 171.898438 M 645.199219 171.907227 L 646.678711 167.899414 L 648.199219 171.895508 " transform="matrix(1.333333,0,0,1.333333,-744,-122.666667)"/>
<path style="fill:none;stroke-width:1;stroke-linecap:round;stroke-linejoin:round;stroke:rgb(0%,0%,0%);stroke-opacity:1;stroke-miterlimit:10;" d="M 682.863281 176.155273 L 682.842773 171.898438 " transform="matrix(1.333333,0,0,1.333333,-744,-122.666667)"/>
<path style="fill:none;stroke-width:1;stroke-linecap:butt;stroke-linejoin:miter;stroke:rgb(0%,0%,0%);stroke-opacity:1;stroke-miterlimit:10;" d="M 682.825195 167.899414 L 682.842773 171.898438 M 681.342773 171.907227 L 682.825195 167.899414 L 684.342773 171.895508 " transform="matrix(1.333333,0,0,1.333333,-744,-122.666667)"/>
<path style="fill:none;stroke-width:1;stroke-linecap:round;stroke-linejoin:round;stroke:rgb(0%,0%,0%);stroke-opacity:1;stroke-miterlimit:10;" d="M 720.667969 176.155273 L 720.647461 171.898438 " transform="matrix(1.333333,0,0,1.333333,-744,-122.666667)"/>
<path style="fill:none;stroke-width:1;stroke-linecap:butt;stroke-linejoin:miter;stroke:rgb(0%,0%,0%);stroke-opacity:1;stroke-miterlimit:10;" d="M 720.629883 167.899414 L 720.647461 171.898438 M 719.147461 171.907227 L 720.629883 167.899414 L 722.147461 171.895508 " transform="matrix(1.333333,0,0,1.333333,-744,-122.666667)"/>
<path style="fill:none;stroke-width:1;stroke-linecap:round;stroke-linejoin:round;stroke:rgb(0%,0%,0%);stroke-opacity:1;stroke-miterlimit:10;" d="M 820.875 157.000977 L 834.401367 157.000977 " transform="matrix(1.333333,0,0,1.333333,-744,-122.666667)"/>
<path style="fill:none;stroke-width:1;stroke-linecap:butt;stroke-linejoin:miter;stroke:rgb(0%,0%,0%);stroke-opacity:1;stroke-miterlimit:10;" d="M 838.40332 157.000977 L 834.401367 157.000977 M 834.401367 155.500977 L 838.40332 157.000977 L 834.401367 158.500977 " transform="matrix(1.333333,0,0,1.333333,-744,-122.666667)"/>
<path style=" stroke:none;fill-rule:nonzero;fill:rgb(0%,0%,0%);fill-opacity:1;" d="M 272.398438 45.332031 L 272.398438 36.75 L 273.523438 36.75 L 273.523438 45.332031 Z M 272.398438 45.332031 "/>
<path style=" stroke:none;fill-rule:nonzero;fill:rgb(0%,0%,0%);fill-opacity:1;" d="M 275.375 45.332031 L 275.375 36.75 L 276.417969 36.75 L 276.417969 45.332031 Z M 275.375 45.332031 "/>
<path style=" stroke:none;fill-rule:nonzero;fill:rgb(0%,0%,0%);fill-opacity:1;" d="M 277.640625 43.480469 L 278.683594 43.3125 C 278.734375 43.730469 278.898438 44.050781 279.164062 44.269531 C 279.4375 44.496094 279.8125 44.605469 280.289062 44.605469 C 280.773438 44.605469 281.132812 44.511719 281.371094 44.3125 C 281.605469 44.121094 281.726562 43.890625 281.726562 43.625 C 281.726562 43.375 281.621094 43.1875 281.414062 43.0625 C 281.257812 42.96875 280.898438 42.84375 280.328125 42.6875 C 279.546875 42.496094 279.007812 42.328125 278.703125 42.1875 C 278.414062 42.050781 278.1875 41.855469 278.039062 41.605469 C 277.882812 41.355469 277.808594 41.078125 277.808594 40.769531 C 277.808594 40.496094 277.871094 40.238281 277.996094 40 C 278.121094 39.765625 278.292969 39.5625 278.515625 39.394531 C 278.683594 39.285156 278.902344 39.1875 279.183594 39.105469 C 279.476562 39.019531 279.777344 38.980469 280.101562 38.980469 C 280.585938 38.980469 281.007812 39.050781 281.371094 39.1875 C 281.746094 39.328125 282.023438 39.515625 282.203125 39.75 C 282.382812 39.988281 282.507812 40.308594 282.578125 40.707031 L 281.539062 40.855469 C 281.496094 40.535156 281.355469 40.285156 281.121094 40.105469 C 280.898438 39.925781 280.585938 39.832031 280.183594 39.832031 C 279.695312 39.832031 279.351562 39.917969 279.140625 40.082031 C 278.933594 40.238281 278.828125 40.425781 278.828125 40.644531 C 278.828125 40.785156 278.871094 40.90625 278.953125 41 C 279.039062 41.125 279.171875 41.222656 279.371094 41.292969 C 279.464844 41.332031 279.773438 41.425781 280.289062 41.5625 C 281.039062 41.761719 281.558594 41.917969 281.851562 42.042969 C 282.152344 42.167969 282.390625 42.355469 282.558594 42.605469 C 282.726562 42.84375 282.808594 43.140625 282.808594 43.5 C 282.808594 43.863281 282.703125 44.199219 282.496094 44.5 C 282.289062 44.808594 281.984375 45.050781 281.601562 45.230469 C 281.226562 45.394531 280.789062 45.480469 280.289062 45.480469 C 279.480469 45.480469 278.859375 45.3125 278.433594 44.980469 C 278.015625 44.636719 277.75 44.136719 277.640625 43.480469 Z M 277.640625 43.480469 "/>
<path style=" stroke:none;fill-rule:nonzero;fill:rgb(0%,0%,0%);fill-opacity:1;" d="M 309.480469 45.332031 L 309.480469 39.105469 L 310.4375 39.105469 L 310.4375 40.0625 C 310.671875 39.621094 310.898438 39.328125 311.105469 39.1875 C 311.3125 39.050781 311.542969 38.980469 311.792969 38.980469 C 312.136719 38.980469 312.5 39.09375 312.875 39.3125 L 312.5 40.292969 C 312.25 40.140625 311.992188 40.0625 311.730469 40.0625 C 311.507812 40.0625 311.296875 40.136719 311.105469 40.269531 C 310.921875 40.410156 310.792969 40.605469 310.710938 40.855469 C 310.59375 41.230469 310.542969 41.640625 310.542969 42.082031 L 310.542969 45.332031 Z M 309.480469 45.332031 "/>
<path style=" stroke:none;fill-rule:nonzero;fill:rgb(0%,0%,0%);fill-opacity:1;" d="M 317.746094 43.332031 L 318.851562 43.457031 C 318.667969 44.097656 318.339844 44.597656 317.871094 44.957031 C 317.414062 45.308594 316.820312 45.480469 316.101562 45.480469 C 315.195312 45.480469 314.476562 45.203125 313.933594 44.644531 C 313.402344 44.078125 313.144531 43.285156 313.144531 42.269531 C 313.144531 41.230469 313.414062 40.425781 313.957031 39.855469 C 314.496094 39.269531 315.195312 38.980469 316.058594 38.980469 C 316.894531 38.980469 317.566406 39.265625 318.082031 39.832031 C 318.605469 40.390625 318.871094 41.183594 318.871094 42.207031 C 318.871094 42.28125 318.871094 42.375 318.871094 42.5 L 314.226562 42.5 C 314.269531 43.183594 314.460938 43.703125 314.808594 44.0625 C 315.152344 44.425781 315.589844 44.605469 316.121094 44.605469 C 316.507812 44.605469 316.835938 44.511719 317.101562 44.3125 C 317.378906 44.105469 317.589844 43.78125 317.746094 43.332031 Z M 314.289062 41.625 L 317.769531 41.625 C 317.726562 41.097656 317.589844 40.703125 317.371094 40.4375 C 317.039062 40.035156 316.601562 39.832031 316.058594 39.832031 C 315.570312 39.832031 315.164062 40 314.832031 40.332031 C 314.507812 40.65625 314.332031 41.082031 314.289062 41.625 Z M 314.289062 41.625 "/>
<path style=" stroke:none;fill-rule:nonzero;fill:rgb(0%,0%,0%);fill-opacity:1;" d="M 319.984375 45.855469 L 321.003906 46 C 321.046875 46.316406 321.160156 46.546875 321.359375 46.6875 C 321.621094 46.878906 321.984375 46.980469 322.441406 46.980469 C 322.925781 46.980469 323.300781 46.878906 323.566406 46.6875 C 323.828125 46.488281 324.011719 46.21875 324.109375 45.875 C 324.160156 45.652344 324.183594 45.203125 324.171875 44.519531 C 323.714844 45.0625 323.140625 45.332031 322.464844 45.332031 C 321.597656 45.332031 320.933594 45.03125 320.464844 44.417969 C 320.003906 43.792969 319.777344 43.050781 319.777344 42.1875 C 319.777344 41.59375 319.878906 41.042969 320.089844 40.542969 C 320.308594 40.042969 320.621094 39.660156 321.027344 39.394531 C 321.425781 39.121094 321.90625 38.980469 322.464844 38.980469 C 323.199219 38.980469 323.800781 39.269531 324.277344 39.855469 L 324.277344 39.105469 L 325.253906 39.105469 L 325.253906 44.480469 C 325.253906 45.449219 325.152344 46.136719 324.941406 46.542969 C 324.746094 46.941406 324.433594 47.261719 324.003906 47.5 C 323.589844 47.734375 323.066406 47.855469 322.441406 47.855469 C 321.691406 47.855469 321.089844 47.6875 320.628906 47.355469 C 320.183594 47.019531 319.96875 46.519531 319.984375 45.855469 Z M 320.859375 42.105469 C 320.859375 42.925781 321.015625 43.519531 321.339844 43.894531 C 321.65625 44.269531 322.058594 44.457031 322.546875 44.457031 C 323.03125 44.457031 323.441406 44.269531 323.777344 43.894531 C 324.109375 43.519531 324.277344 42.9375 324.277344 42.144531 C 324.277344 41.386719 324.097656 40.808594 323.753906 40.417969 C 323.421875 40.03125 323.015625 39.832031 322.546875 39.832031 C 322.074219 39.832031 321.671875 40.03125 321.339844 40.417969 C 321.015625 40.792969 320.859375 41.355469 320.859375 42.105469 Z M 320.859375 42.105469 "/>
<path style=" stroke:none;fill-rule:nonzero;fill:rgb(0%,0%,0%);fill-opacity:1;" d="M 330.910156 44.5625 C 330.519531 44.894531 330.144531 45.136719 329.785156 45.269531 C 329.417969 45.40625 329.035156 45.480469 328.617188 45.480469 C 327.933594 45.480469 327.410156 45.3125 327.035156 44.980469 C 326.667969 44.644531 326.492188 44.21875 326.492188 43.6875 C 326.492188 43.386719 326.558594 43.105469 326.699219 42.855469 C 326.835938 42.605469 327.019531 42.40625 327.242188 42.25 C 327.460938 42.097656 327.710938 41.980469 327.992188 41.894531 C 328.199219 41.855469 328.511719 41.808594 328.929688 41.75 C 329.789062 41.65625 330.417969 41.53125 330.824219 41.375 C 330.824219 41.238281 330.824219 41.144531 330.824219 41.105469 C 330.824219 40.675781 330.726562 40.375 330.535156 40.207031 C 330.253906 39.957031 329.851562 39.832031 329.324219 39.832031 C 328.824219 39.832031 328.457031 39.925781 328.222656 40.105469 C 327.980469 40.269531 327.808594 40.578125 327.699219 41.019531 L 326.679688 40.894531 C 326.761719 40.453125 326.910156 40.097656 327.117188 39.832031 C 327.335938 39.558594 327.648438 39.347656 328.054688 39.207031 C 328.472656 39.058594 328.941406 38.980469 329.472656 38.980469 C 330.011719 38.980469 330.441406 39.042969 330.761719 39.167969 C 331.097656 39.292969 331.335938 39.453125 331.492188 39.644531 C 331.660156 39.828125 331.769531 40.0625 331.824219 40.355469 C 331.867188 40.535156 331.886719 40.855469 331.886719 41.3125 L 331.886719 42.730469 C 331.886719 43.703125 331.910156 44.324219 331.949219 44.582031 C 331.992188 44.847656 332.082031 45.097656 332.222656 45.332031 L 331.117188 45.332031 C 331.003906 45.113281 330.933594 44.855469 330.910156 44.5625 Z M 330.824219 42.207031 C 330.433594 42.363281 329.855469 42.496094 329.097656 42.605469 C 328.664062 42.675781 328.355469 42.75 328.179688 42.832031 C 327.996094 42.90625 327.855469 43.015625 327.761719 43.167969 C 327.664062 43.324219 327.617188 43.488281 327.617188 43.667969 C 327.617188 43.949219 327.722656 44.183594 327.929688 44.375 C 328.136719 44.558594 328.449219 44.644531 328.867188 44.644531 C 329.269531 44.644531 329.628906 44.558594 329.949219 44.375 C 330.269531 44.199219 330.503906 43.953125 330.660156 43.644531 C 330.769531 43.410156 330.824219 43.0625 330.824219 42.605469 Z M 330.824219 42.207031 "/>
<path style=" stroke:none;fill-rule:nonzero;fill:rgb(0%,0%,0%);fill-opacity:1;" d="M 333.5 45.332031 L 333.5 39.105469 L 334.457031 39.105469 L 334.457031 40.0625 C 334.691406 39.621094 334.917969 39.328125 335.125 39.1875 C 335.332031 39.050781 335.5625 38.980469 335.8125 38.980469 C 336.15625 38.980469 336.519531 39.09375 336.894531 39.3125 L 336.519531 40.292969 C 336.269531 40.140625 336.011719 40.0625 335.75 40.0625 C 335.527344 40.0625 335.316406 40.136719 335.125 40.269531 C 334.941406 40.410156 334.8125 40.605469 334.730469 40.855469 C 334.613281 41.230469 334.5625 41.640625 334.5625 42.082031 L 334.5625 45.332031 Z M 333.5 45.332031 "/>
<path style=" stroke:none;fill-rule:nonzero;fill:rgb(0%,0%,0%);fill-opacity:1;" d="M 341.558594 45.332031 L 341.558594 44.542969 C 341.152344 45.167969 340.570312 45.480469 339.808594 45.480469 C 339.320312 45.480469 338.871094 45.339844 338.453125 45.0625 C 338.039062 44.785156 337.710938 44.40625 337.476562 43.917969 C 337.25 43.433594 337.140625 42.871094 337.140625 42.230469 C 337.140625 41.605469 337.246094 41.042969 337.453125 40.542969 C 337.664062 40.03125 337.964844 39.640625 338.371094 39.375 C 338.789062 39.113281 339.25 38.980469 339.765625 38.980469 C 340.140625 38.980469 340.476562 39.058594 340.765625 39.207031 C 341.058594 39.363281 341.292969 39.574219 341.476562 39.832031 L 341.476562 36.75 L 342.539062 36.75 L 342.539062 45.332031 Z M 338.226562 42.230469 C 338.226562 43.019531 338.390625 43.621094 338.726562 44.019531 C 339.058594 44.410156 339.453125 44.605469 339.914062 44.605469 C 340.371094 44.605469 340.757812 44.417969 341.078125 44.042969 C 341.414062 43.667969 341.578125 43.09375 341.578125 42.3125 C 341.578125 41.46875 341.414062 40.84375 341.078125 40.4375 C 340.746094 40.035156 340.339844 39.832031 339.871094 39.832031 C 339.398438 39.832031 339 40.03125 338.683594 40.417969 C 338.375 40.808594 338.226562 41.410156 338.226562 42.230469 Z M 338.226562 42.230469 "/>
<path style=" stroke:none;fill-rule:nonzero;fill:rgb(0%,0%,0%);fill-opacity:1;" d="M 348.441406 43.332031 L 349.546875 43.457031 C 349.363281 44.097656 349.035156 44.597656 348.566406 44.957031 C 348.109375 45.308594 347.515625 45.480469 346.796875 45.480469 C 345.890625 45.480469 345.171875 45.203125 344.628906 44.644531 C 344.097656 44.078125 343.835938 43.285156 343.835938 42.269531 C 343.835938 41.230469 344.109375 40.425781 344.648438 39.855469 C 345.191406 39.269531 345.890625 38.980469 346.753906 38.980469 C 347.585938 38.980469 348.257812 39.265625 348.773438 39.832031 C 349.300781 40.390625 349.566406 41.183594 349.566406 42.207031 C 349.566406 42.28125 349.566406 42.375 349.566406 42.5 L 344.921875 42.5 C 344.960938 43.183594 345.15625 43.703125 345.503906 44.0625 C 345.847656 44.425781 346.285156 44.605469 346.816406 44.605469 C 347.203125 44.605469 347.53125 44.511719 347.796875 44.3125 C 348.070312 44.105469 348.285156 43.78125 348.441406 43.332031 Z M 344.984375 41.625 L 348.460938 41.625 C 348.421875 41.097656 348.285156 40.703125 348.066406 40.4375 C 347.734375 40.035156 347.296875 39.832031 346.753906 39.832031 C 346.265625 39.832031 345.859375 40 345.523438 40.332031 C 345.203125 40.65625 345.023438 41.082031 344.984375 41.625 Z M 344.984375 41.625 "/>
<path style=" stroke:none;fill-rule:nonzero;fill:rgb(0%,0%,0%);fill-opacity:1;" d="M 350.867188 45.332031 L 350.867188 39.105469 L 351.824219 39.105469 L 351.824219 40 C 352.265625 39.324219 352.929688 38.980469 353.804688 38.980469 C 354.179688 38.980469 354.515625 39.050781 354.824219 39.1875 C 355.140625 39.3125 355.375 39.488281 355.53125 39.707031 C 355.683594 39.917969 355.792969 40.175781 355.867188 40.480469 C 355.90625 40.675781 355.929688 41.015625 355.929688 41.5 L 355.929688 45.332031 L 354.867188 45.332031 L 354.867188 41.542969 C 354.867188 41.113281 354.824219 40.792969 354.742188 40.582031 C 354.65625 40.375 354.511719 40.207031 354.304688 40.082031 C 354.09375 39.949219 353.851562 39.875 353.574219 39.875 C 353.125 39.875 352.742188 40.019531 352.40625 40.3125 C 352.085938 40.59375 351.929688 41.136719 351.929688 41.9375 L 351.929688 45.332031 Z M 350.867188 45.332031 "/>
<path style=" stroke:none;fill-rule:nonzero;fill:rgb(0%,0%,0%);fill-opacity:1;" d="M 359.851562 44.394531 L 360 45.3125 C 359.691406 45.378906 359.425781 45.417969 359.207031 45.417969 C 358.816406 45.417969 358.519531 45.355469 358.3125 45.230469 C 358.101562 45.105469 357.945312 44.949219 357.851562 44.75 C 357.769531 44.558594 357.726562 44.144531 357.726562 43.519531 L 357.726562 39.9375 L 356.957031 39.9375 L 356.957031 39.105469 L 357.726562 39.105469 L 357.726562 37.5625 L 358.789062 36.9375 L 358.789062 39.105469 L 359.851562 39.105469 L 359.851562 39.9375 L 358.789062 39.9375 L 358.789062 43.5625 C 358.789062 43.871094 358.800781 44.0625 358.832031 44.144531 C 358.875 44.230469 358.9375 44.300781 359.019531 44.355469 C 359.101562 44.410156 359.21875 44.4375 359.375 44.4375 C 359.5 44.4375 359.65625 44.425781 359.851562 44.394531 Z M 359.851562 44.394531 "/>
<path style=" stroke:none;fill-rule:nonzero;fill:rgb(0%,0%,0%);fill-opacity:1;" d="M 391.699219 45.332031 L 391.699219 44.125 L 392.90625 44.125 L 392.90625 45.332031 Z M 391.699219 45.332031 "/>
<path style=" stroke:none;fill-rule:nonzero;fill:rgb(0%,0%,0%);fill-opacity:1;" d="M 433.726562 41.582031 L 433.726562 40.582031 L 439.414062 38.1875 L 439.414062 39.230469 L 434.894531 41.082031 L 439.414062 42.957031 L 439.414062 44 Z M 433.726562 41.582031 "/>
<path style=" stroke:none;fill-rule:nonzero;fill:rgb(0%,0%,0%);fill-opacity:1;" d="M 445.109375 43.332031 L 446.214844 43.457031 C 446.03125 44.097656 445.703125 44.597656 445.234375 44.957031 C 444.777344 45.308594 444.183594 45.480469 443.464844 45.480469 C 442.558594 45.480469 441.839844 45.203125 441.296875 44.644531 C 440.765625 44.078125 440.507812 43.285156 440.507812 42.269531 C 440.507812 41.230469 440.777344 40.425781 441.320312 39.855469 C 441.859375 39.269531 442.558594 38.980469 443.421875 38.980469 C 444.257812 38.980469 444.929688 39.265625 445.445312 39.832031 C 445.96875 40.390625 446.234375 41.183594 446.234375 42.207031 C 446.234375 42.28125 446.234375 42.375 446.234375 42.5 L 441.589844 42.5 C 441.632812 43.183594 441.824219 43.703125 442.171875 44.0625 C 442.515625 44.425781 442.953125 44.605469 443.484375 44.605469 C 443.871094 44.605469 444.199219 44.511719 444.464844 44.3125 C 444.742188 44.105469 444.953125 43.78125 445.109375 43.332031 Z M 441.652344 41.625 L 445.132812 41.625 C 445.089844 41.097656 444.953125 40.703125 444.734375 40.4375 C 444.402344 40.035156 443.964844 39.832031 443.421875 39.832031 C 442.933594 39.832031 442.527344 40 442.195312 40.332031 C 441.871094 40.65625 441.695312 41.082031 441.652344 41.625 Z M 441.652344 41.625 "/>
<path style=" stroke:none;fill-rule:nonzero;fill:rgb(0%,0%,0%);fill-opacity:1;" d="M 447.140625 42.230469 C 447.140625 41.078125 447.457031 40.222656 448.097656 39.667969 C 448.640625 39.207031 449.289062 38.980469 450.054688 38.980469 C 450.914062 38.980469 451.617188 39.261719 452.160156 39.8125 C 452.703125 40.371094 452.972656 41.140625 452.972656 42.125 C 452.972656 42.933594 452.847656 43.5625 452.597656 44.019531 C 452.359375 44.480469 452.015625 44.84375 451.554688 45.105469 C 451.097656 45.355469 450.597656 45.480469 450.054688 45.480469 C 449.179688 45.480469 448.472656 45.203125 447.929688 44.644531 C 447.398438 44.078125 447.140625 43.269531 447.140625 42.230469 Z M 448.222656 42.230469 C 448.222656 43.019531 448.394531 43.621094 448.742188 44.019531 C 449.085938 44.410156 449.523438 44.605469 450.054688 44.605469 C 450.582031 44.605469 451.019531 44.410156 451.367188 44.019531 C 451.710938 43.621094 451.890625 43.011719 451.890625 42.1875 C 451.890625 41.425781 451.710938 40.84375 451.367188 40.4375 C 451.019531 40.035156 450.582031 39.832031 450.054688 39.832031 C 449.523438 39.832031 449.085938 40.035156 448.742188 40.4375 C 448.394531 40.828125 448.222656 41.425781 448.222656 42.230469 Z M 448.222656 42.230469 "/>
<path style=" stroke:none;fill-rule:nonzero;fill:rgb(0%,0%,0%);fill-opacity:1;" d="M 453.792969 43.480469 L 454.835938 43.3125 C 454.886719 43.730469 455.046875 44.050781 455.3125 44.269531 C 455.589844 44.496094 455.964844 44.605469 456.4375 44.605469 C 456.921875 44.605469 457.28125 44.511719 457.523438 44.3125 C 457.757812 44.121094 457.875 43.890625 457.875 43.625 C 457.875 43.375 457.773438 43.1875 457.5625 43.0625 C 457.40625 42.96875 457.046875 42.84375 456.480469 42.6875 C 455.699219 42.496094 455.15625 42.328125 454.855469 42.1875 C 454.5625 42.050781 454.339844 41.855469 454.1875 41.605469 C 454.03125 41.355469 453.960938 41.078125 453.960938 40.769531 C 453.960938 40.496094 454.023438 40.238281 454.148438 40 C 454.273438 39.765625 454.445312 39.5625 454.667969 39.394531 C 454.835938 39.285156 455.054688 39.1875 455.335938 39.105469 C 455.625 39.019531 455.929688 38.980469 456.25 38.980469 C 456.734375 38.980469 457.15625 39.050781 457.523438 39.1875 C 457.898438 39.328125 458.171875 39.515625 458.355469 39.75 C 458.53125 39.988281 458.65625 40.308594 458.730469 40.707031 L 457.6875 40.855469 C 457.648438 40.535156 457.507812 40.285156 457.273438 40.105469 C 457.046875 39.925781 456.734375 39.832031 456.335938 39.832031 C 455.84375 39.832031 455.5 39.917969 455.292969 40.082031 C 455.085938 40.238281 454.980469 40.425781 454.980469 40.644531 C 454.980469 40.785156 455.023438 40.90625 455.105469 41 C 455.1875 41.125 455.324219 41.222656 455.523438 41.292969 C 455.617188 41.332031 455.921875 41.425781 456.4375 41.5625 C 457.1875 41.761719 457.710938 41.917969 458 42.042969 C 458.304688 42.167969 458.542969 42.355469 458.710938 42.605469 C 458.875 42.84375 458.960938 43.140625 458.960938 43.5 C 458.960938 43.863281 458.855469 44.199219 458.648438 44.5 C 458.4375 44.808594 458.136719 45.050781 457.75 45.230469 C 457.375 45.394531 456.9375 45.480469 456.4375 45.480469 C 455.632812 45.480469 455.011719 45.3125 454.585938 44.980469 C 454.167969 44.636719 453.902344 44.136719 453.792969 43.480469 Z M 453.792969 43.480469 "/>
<path style=" stroke:none;fill-rule:nonzero;fill:rgb(0%,0%,0%);fill-opacity:1;" d="M 465.773438 41.582031 L 460.085938 44 L 460.085938 42.957031 L 464.585938 41.082031 L 460.085938 39.230469 L 460.085938 38.1875 L 465.773438 40.582031 Z M 465.773438 41.582031 "/>
<path style="fill:none;stroke-width:1;stroke-linecap:round;stroke-linejoin:round;stroke:rgb(0%,0%,0%);stroke-opacity:1;stroke-miterlimit:10;" d="M 765.893555 148.000977 L 765.922852 136.194336 " transform="matrix(1.333333,0,0,1.333333,-744,-122.666667)"/>
<path style="fill:none;stroke-width:1;stroke-linecap:butt;stroke-linejoin:miter;stroke:rgb(0%,0%,0%);stroke-opacity:1;stroke-miterlimit:10;" d="M 765.93457 132.195312 L 765.922852 136.194336 M 764.422852 136.191406 L 765.93457 132.195312 L 767.422852 136.200195 " transform="matrix(1.333333,0,0,1.333333,-744,-122.666667)"/>
<path style="fill:none;stroke-width:1;stroke-linecap:round;stroke-linejoin:round;stroke:rgb(0%,0%,0%);stroke-opacity:1;stroke-miterlimit:10;" d="M 808.854492 148.000977 L 808.828125 136.194336 " transform="matrix(1.333333,0,0,1.333333,-744,-122.666667)"/>
<path style="fill:none;stroke-width:1;stroke-linecap:butt;stroke-linejoin:miter;stroke:rgb(0%,0%,0%);stroke-opacity:1;stroke-miterlimit:10;" d="M 808.816406 132.195312 L 808.828125 136.194336 M 807.328125 136.200195 L 808.816406 132.195312 L 810.328125 136.191406 " transform="matrix(1.333333,0,0,1.333333,-744,-122.666667)"/>
<path style="fill:none;stroke-width:1;stroke-linecap:round;stroke-linejoin:round;stroke:rgb(0%,0%,0%);stroke-opacity:1;stroke-miterlimit:10;" d="M 852.27832 148.000977 L 852.246094 136.194336 " transform="matrix(1.333333,0,0,1.333333,-744,-122.666667)"/>
<path style="fill:none;stroke-width:1;stroke-linecap:butt;stroke-linejoin:miter;stroke:rgb(0%,0%,0%);stroke-opacity:1;stroke-miterlimit:10;" d="M 852.234375 132.195312 L 852.246094 136.194336 M 850.746094 136.200195 L 852.234375 132.195312 L 853.746094 136.191406 " transform="matrix(1.333333,0,0,1.333333,-744,-122.666667)"/>
<path style="fill:none;stroke-width:1;stroke-linecap:round;stroke-linejoin:round;stroke:rgb(0%,0%,0%);stroke-opacity:1;stroke-miterlimit:10;" d="M 895.192383 148.000977 L 895.245117 136.194336 " transform="matrix(1.333333,0,0,1.333333,-744,-122.666667)"/>
<path style="fill:none;stroke-width:1;stroke-linecap:butt;stroke-linejoin:miter;stroke:rgb(0%,0%,0%);stroke-opacity:1;stroke-miterlimit:10;" d="M 895.265625 132.195312 L 895.245117 136.194336 M 893.745117 136.188477 L 895.265625 132.195312 L 896.745117 136.203125 " transform="matrix(1.333333,0,0,1.333333,-744,-122.666667)"/>
<path style="fill:none;stroke-width:1;stroke-linecap:round;stroke-linejoin:round;stroke:rgb(0%,0%,0%);stroke-opacity:1;stroke-miterlimit:10;" d="M 765.899414 147.245117 C 765.887695 144.508789 768.09375 142.276367 770.833008 142.264648 C 770.847656 142.264648 770.859375 142.264648 770.874023 142.264648 L 779.988281 142.296875 C 783.301758 142.308594 785.976562 145.006836 785.964844 148.320312 C 785.964844 148.323242 785.964844 148.329102 785.964844 148.332031 L 785.944336 151.499023 M 785.882812 162.5 L 785.838867 169.964844 C 785.821289 173.27832 788.487305 175.979492 791.803711 176 C 791.81543 176 791.827148 176 791.838867 176 L 798.480469 176 C 801 176 803.15332 174.450195 804.043945 172.25293 " transform="matrix(1.333333,0,0,1.333333,-744,-122.666667)"/>
<path style="fill:none;stroke-width:1;stroke-linecap:butt;stroke-linejoin:miter;stroke:rgb(0%,0%,0%);stroke-opacity:1;stroke-miterlimit:10;" d="M 804.339844 168.262695 L 804.043945 172.25293 M 802.546875 172.141602 L 804.339844 168.262695 L 805.538086 172.364258 " transform="matrix(1.333333,0,0,1.333333,-744,-122.666667)"/>
<path style="fill:none;stroke-width:1;stroke-linecap:round;stroke-linejoin:round;stroke:rgb(0%,0%,0%);stroke-opacity:1;stroke-miterlimit:10;" d="M 777.875977 157.000977 L 790.977539 157.000977 " transform="matrix(1.333333,0,0,1.333333,-744,-122.666667)"/>
<path style="fill:none;stroke-width:1;stroke-linecap:butt;stroke-linejoin:miter;stroke:rgb(0%,0%,0%);stroke-opacity:1;stroke-miterlimit:10;" d="M 794.976562 157.000977 L 790.977539 157.000977 M 790.977539 155.500977 L 794.976562 157.000977 L 790.977539 158.500977 " transform="matrix(1.333333,0,0,1.333333,-744,-122.666667)"/>
<path style="fill:none;stroke-width:1;stroke-linecap:round;stroke-linejoin:round;stroke:rgb(0%,0%,0%);stroke-opacity:1;stroke-miterlimit:10;" d="M 820.875 157.000977 L 834.401367 157.000977 " transform="matrix(1.333333,0,0,1.333333,-744,-122.666667)"/>
<path style="fill:none;stroke-width:1;stroke-linecap:butt;stroke-linejoin:miter;stroke:rgb(0%,0%,0%);stroke-opacity:1;stroke-miterlimit:10;" d="M 838.40332 157.000977 L 834.401367 157.000977 M 834.401367 155.500977 L 838.40332 157.000977 L 834.401367 158.500977 " transform="matrix(1.333333,0,0,1.333333,-744,-122.666667)"/>
<path style="fill:none;stroke-width:1;stroke-linecap:round;stroke-linejoin:round;stroke:rgb(0%,0%,0%);stroke-opacity:1;stroke-miterlimit:10;" d="M 864.301758 157.000977 L 877.245117 157.000977 " transform="matrix(1.333333,0,0,1.333333,-744,-122.666667)"/>
<path style="fill:none;stroke-width:1;stroke-linecap:butt;stroke-linejoin:miter;stroke:rgb(0%,0%,0%);stroke-opacity:1;stroke-miterlimit:10;" d="M 881.24707 157.000977 L 877.245117 157.000977 M 877.245117 155.500977 L 881.24707 157.000977 L 877.245117 158.500977 " transform="matrix(1.333333,0,0,1.333333,-744,-122.666667)"/>
<path style=" stroke:none;fill-rule:nonzero;fill:rgb(0%,0%,0%);fill-opacity:1;" d="M 106.125 18.644531 C 105.269531 19.082031 104.269531 19.417969 103.144531 19.667969 L 103.25 20.519531 C 104.332031 20.25 105.292969 19.894531 106.125 19.457031 Z M 104.894531 10.167969 C 104.457031 11.5625 103.9375 12.792969 103.332031 13.875 C 103.25 14.019531 103.125 14.125 103 14.1875 L 103.207031 14.957031 C 103.855469 14.855469 104.480469 14.75 105.125 14.625 C 104.5 15.730469 103.980469 16.5 103.5625 16.957031 C 103.457031 17.0625 103.3125 17.144531 103.167969 17.207031 L 103.394531 17.980469 C 104.375 17.832031 105.394531 17.582031 106.480469 17.230469 L 106.480469 16.457031 C 105.792969 16.707031 105.105469 16.894531 104.417969 17.042969 C 105.0625 16.230469 105.894531 14.855469 106.894531 12.917969 L 106.144531 12.625 C 105.9375 13.0625 105.707031 13.480469 105.519531 13.855469 C 105.019531 13.957031 104.5 14.042969 103.980469 14.125 C 104.5625 13.230469 105.144531 12 105.707031 10.480469 Z M 112.75 21.167969 C 113.292969 21.167969 113.5625 20.875 113.5625 20.332031 L 113.5625 15.5 L 108.082031 15.5 L 108.082031 21.207031 L 108.792969 21.207031 L 108.792969 18.542969 L 109.730469 18.542969 L 109.730469 21 L 110.375 21 L 110.375 18.542969 L 111.25 18.542969 L 111.25 21 L 111.875 21 L 111.875 18.542969 L 112.855469 18.542969 L 112.855469 20.144531 C 112.855469 20.394531 112.730469 20.519531 112.519531 20.519531 L 112.042969 20.5 L 112.230469 21.167969 Z M 108.792969 17.8125 L 108.792969 16.25 L 109.730469 16.25 L 109.730469 17.8125 Z M 110.375 16.25 L 111.25 16.25 L 111.25 17.8125 L 110.375 17.8125 Z M 111.875 16.25 L 112.855469 16.25 L 112.855469 17.8125 L 111.875 17.8125 Z M 112.730469 12.167969 L 112.730469 13.707031 L 108.042969 13.707031 L 108.042969 12.167969 Z M 108.042969 14.457031 L 113.519531 14.457031 L 113.519531 11.417969 L 110.8125 11.417969 C 110.667969 10.9375 110.519531 10.5 110.355469 10.144531 L 109.457031 10.269531 C 109.644531 10.625 109.8125 11 109.980469 11.417969 L 107.25 11.417969 L 107.25 14.332031 C 107.230469 16.894531 106.75 19 105.792969 20.644531 L 106.417969 21.1875 C 107.457031 19.3125 108 17.0625 108.042969 14.457031 Z M 108.042969 14.457031 "/>
<path style=" stroke:none;fill-rule:nonzero;fill:rgb(0%,0%,0%);fill-opacity:1;" d="M 119.042969 14.417969 L 116.832031 14.417969 C 117.144531 13.5625 117.375 12.667969 117.542969 11.707031 L 119.355469 11.707031 L 119.355469 10.875 L 115.25 10.875 L 115.25 11.707031 L 116.730469 11.707031 C 116.4375 13.5 115.832031 15.082031 114.917969 16.480469 L 115.355469 17.1875 C 115.644531 16.769531 115.894531 16.355469 116.144531 15.917969 L 116.144531 20.8125 L 116.957031 20.8125 L 116.957031 19.894531 L 118.25 19.894531 L 118.25 20.582031 L 119.042969 20.582031 Z M 116.957031 19.105469 L 116.957031 15.207031 L 118.25 15.207031 L 118.25 19.105469 Z M 120.644531 12.355469 L 120 16.25 L 124.855469 16.25 C 124.855469 18.167969 124.75 19.332031 124.5625 19.730469 C 124.394531 20.125 123.832031 20.332031 122.917969 20.332031 C 122.6875 20.332031 122.332031 20.292969 121.792969 20.25 L 122.042969 21.082031 C 122.417969 21.125 122.769531 21.125 123.125 21.125 C 124.167969 21.125 124.855469 20.894531 125.1875 20.457031 C 125.5 20.019531 125.667969 18.355469 125.667969 15.4375 L 124.394531 15.4375 L 125.0625 10.707031 L 119.894531 10.707031 L 119.894531 11.519531 L 124.125 11.519531 L 123.519531 15.4375 L 120.980469 15.4375 L 121.5 12.417969 Z M 119.644531 17.769531 L 119.644531 18.582031 L 124.019531 18.582031 L 124.019531 17.769531 Z M 119.644531 17.769531 "/>
<path style=" stroke:none;fill-rule:nonzero;fill:rgb(0%,0%,0%);fill-opacity:1;" d="M 128.1875 10.644531 L 128.1875 13.5625 L 131.832031 13.5625 L 131.832031 10.644531 Z M 131.042969 12.832031 L 128.957031 12.832031 L 128.957031 11.394531 L 131.042969 11.394531 Z M 133.167969 10.644531 L 133.167969 13.5625 L 136.894531 13.5625 L 136.894531 10.644531 Z M 136.125 12.832031 L 133.957031 12.832031 L 133.957031 11.394531 L 136.125 11.394531 Z M 127.207031 14.769531 L 127.207031 15.542969 L 130.519531 15.542969 C 129.6875 16.25 128.5 16.855469 126.957031 17.292969 L 127.355469 18 C 127.707031 17.894531 128.019531 17.792969 128.355469 17.667969 L 128.355469 21.207031 L 129.105469 21.207031 L 129.105469 20.6875 L 131.144531 20.6875 L 131.144531 21.207031 L 131.917969 21.207031 L 131.917969 17.4375 L 128.917969 17.4375 C 130.042969 16.9375 130.9375 16.3125 131.605469 15.542969 L 133.644531 15.542969 C 134.25 16.269531 135.125 16.894531 136.269531 17.4375 L 133.082031 17.4375 L 133.082031 21.207031 L 133.855469 21.207031 L 133.855469 20.6875 L 136.082031 20.6875 L 136.082031 21.207031 L 136.855469 21.207031 L 136.855469 17.6875 C 137.125 17.769531 137.394531 17.894531 137.6875 17.980469 L 138.042969 17.25 C 136.5 16.832031 135.332031 16.25 134.542969 15.542969 L 137.792969 15.542969 L 137.792969 14.769531 L 136.144531 14.769531 C 135.9375 14.394531 135.730469 14.042969 135.480469 13.707031 L 134.75 13.957031 C 134.9375 14.1875 135.125 14.457031 135.292969 14.769531 L 132.1875 14.769531 C 132.355469 14.480469 132.519531 14.1875 132.625 13.875 L 131.8125 13.792969 C 131.667969 14.125 131.480469 14.457031 131.25 14.769531 Z M 129.105469 19.957031 L 129.105469 18.144531 L 131.144531 18.144531 L 131.144531 19.957031 Z M 133.855469 19.957031 L 133.855469 18.144531 L 136.082031 18.144531 L 136.082031 19.957031 Z M 133.855469 19.957031 "/>
<path style=" stroke:none;fill-rule:nonzero;fill:rgb(0%,0%,0%);fill-opacity:1;" d="M 349.625 16.644531 L 351.042969 16.644531 L 351.042969 18.105469 L 348.4375 18.105469 L 348.4375 18.875 L 351.042969 18.875 L 351.042969 21.230469 L 351.875 21.230469 L 351.875 18.875 L 353.917969 18.875 L 353.917969 18.105469 L 351.875 18.105469 L 351.875 16.644531 L 353.667969 16.644531 L 353.667969 15.855469 L 351.875 15.855469 L 351.875 14.75 L 351.042969 14.75 L 351.042969 15.855469 L 349.9375 15.855469 C 350.019531 15.582031 350.082031 15.292969 350.144531 14.957031 L 349.4375 14.832031 C 349.25 15.792969 348.917969 16.542969 348.375 17.125 L 348.875 17.730469 C 349.167969 17.417969 349.417969 17.0625 349.625 16.644531 Z M 350.125 11.6875 C 350.042969 12.082031 349.894531 12.4375 349.730469 12.75 C 349.457031 13.167969 349.042969 13.5625 348.519531 13.875 L 349.019531 14.519531 C 349.625 14.125 350.105469 13.644531 350.417969 13.144531 C 350.644531 12.730469 350.8125 12.230469 350.9375 11.6875 L 352.707031 11.6875 C 352.667969 12.542969 352.625 13.082031 352.5625 13.292969 C 352.480469 13.5 352.269531 13.605469 351.9375 13.625 C 351.644531 13.605469 351.3125 13.582031 350.894531 13.5625 L 351.105469 14.269531 C 351.480469 14.292969 351.832031 14.332031 352.105469 14.332031 C 352.625 14.332031 352.980469 14.144531 353.207031 13.855469 C 353.417969 13.519531 353.519531 12.542969 353.519531 10.917969 L 348.519531 10.917969 L 348.519531 11.6875 Z M 344.457031 16.019531 L 345.542969 16.019531 L 345.542969 17.582031 L 344.4375 17.582031 C 344.4375 17.5 344.457031 17.417969 344.457031 17.3125 Z M 344.417969 18.3125 L 345.542969 18.3125 L 345.542969 21.042969 L 346.25 21.042969 L 346.25 18.3125 L 347.355469 18.3125 L 347.355469 19.980469 C 347.355469 20.269531 347.230469 20.4375 346.957031 20.4375 C 346.769531 20.4375 346.5625 20.417969 346.332031 20.375 L 346.542969 21.105469 L 347.207031 21.105469 C 347.792969 21.105469 348.082031 20.8125 348.082031 20.25 L 348.082031 13.042969 L 346.644531 13.042969 C 346.917969 12.6875 347.1875 12.230469 347.457031 11.6875 L 347.457031 11.105469 L 345.3125 11.105469 C 345.417969 10.855469 345.519531 10.582031 345.625 10.332031 L 344.832031 10.144531 C 344.375 11.394531 343.792969 12.394531 343.0625 13.167969 L 343.582031 13.8125 C 343.625 13.75 343.667969 13.730469 343.707031 13.667969 L 343.707031 17.355469 C 343.707031 18.730469 343.457031 19.875 343 20.75 L 343.582031 21.292969 C 344.019531 20.5 344.292969 19.5 344.417969 18.3125 Z M 345.769531 13.042969 L 344.207031 13.042969 C 344.480469 12.667969 344.75 12.25 344.980469 11.8125 L 346.542969 11.8125 C 346.269531 12.269531 346.019531 12.6875 345.769531 13.042969 Z M 347.355469 17.582031 L 346.25 17.582031 L 346.25 16.019531 L 347.355469 16.019531 Z M 347.355469 15.292969 L 346.25 15.292969 L 346.25 13.792969 L 347.355469 13.792969 Z M 345.542969 13.792969 L 345.542969 15.292969 L 344.457031 15.292969 L 344.457031 13.792969 Z M 345.542969 13.792969 "/>
<path style=" stroke:none;fill-rule:nonzero;fill:rgb(0%,0%,0%);fill-opacity:1;" d="M 359.042969 14.417969 L 356.832031 14.417969 C 357.144531 13.5625 357.375 12.667969 357.542969 11.707031 L 359.355469 11.707031 L 359.355469 10.875 L 355.25 10.875 L 355.25 11.707031 L 356.730469 11.707031 C 356.4375 13.5 355.832031 15.082031 354.917969 16.480469 L 355.355469 17.1875 C 355.644531 16.769531 355.894531 16.355469 356.144531 15.917969 L 356.144531 20.8125 L 356.957031 20.8125 L 356.957031 19.894531 L 358.25 19.894531 L 358.25 20.582031 L 359.042969 20.582031 Z M 356.957031 19.105469 L 356.957031 15.207031 L 358.25 15.207031 L 358.25 19.105469 Z M 360.644531 12.355469 L 360 16.25 L 364.855469 16.25 C 364.855469 18.167969 364.75 19.332031 364.5625 19.730469 C 364.394531 20.125 363.832031 20.332031 362.917969 20.332031 C 362.6875 20.332031 362.332031 20.292969 361.792969 20.25 L 362.042969 21.082031 C 362.417969 21.125 362.769531 21.125 363.125 21.125 C 364.167969 21.125 364.855469 20.894531 365.1875 20.457031 C 365.5 20.019531 365.667969 18.355469 365.667969 15.4375 L 364.394531 15.4375 L 365.0625 10.707031 L 359.894531 10.707031 L 359.894531 11.519531 L 364.125 11.519531 L 363.519531 15.4375 L 360.980469 15.4375 L 361.5 12.417969 Z M 359.644531 17.769531 L 359.644531 18.582031 L 364.019531 18.582031 L 364.019531 17.769531 Z M 359.644531 17.769531 "/>
<path style=" stroke:none;fill-rule:nonzero;fill:rgb(0%,0%,0%);fill-opacity:1;" d="M 368.1875 10.644531 L 368.1875 13.5625 L 371.832031 13.5625 L 371.832031 10.644531 Z M 371.042969 12.832031 L 368.957031 12.832031 L 368.957031 11.394531 L 371.042969 11.394531 Z M 373.167969 10.644531 L 373.167969 13.5625 L 376.894531 13.5625 L 376.894531 10.644531 Z M 376.125 12.832031 L 373.957031 12.832031 L 373.957031 11.394531 L 376.125 11.394531 Z M 367.207031 14.769531 L 367.207031 15.542969 L 370.519531 15.542969 C 369.6875 16.25 368.5 16.855469 366.957031 17.292969 L 367.355469 18 C 367.707031 17.894531 368.019531 17.792969 368.355469 17.667969 L 368.355469 21.207031 L 369.105469 21.207031 L 369.105469 20.6875 L 371.144531 20.6875 L 371.144531 21.207031 L 371.917969 21.207031 L 371.917969 17.4375 L 368.917969 17.4375 C 370.042969 16.9375 370.9375 16.3125 371.605469 15.542969 L 373.644531 15.542969 C 374.25 16.269531 375.125 16.894531 376.269531 17.4375 L 373.082031 17.4375 L 373.082031 21.207031 L 373.855469 21.207031 L 373.855469 20.6875 L 376.082031 20.6875 L 376.082031 21.207031 L 376.855469 21.207031 L 376.855469 17.6875 C 377.125 17.769531 377.394531 17.894531 377.6875 17.980469 L 378.042969 17.25 C 376.5 16.832031 375.332031 16.25 374.542969 15.542969 L 377.792969 15.542969 L 377.792969 14.769531 L 376.144531 14.769531 C 375.9375 14.394531 375.730469 14.042969 375.480469 13.707031 L 374.75 13.957031 C 374.9375 14.1875 375.125 14.457031 375.292969 14.769531 L 372.1875 14.769531 C 372.355469 14.480469 372.519531 14.1875 372.625 13.875 L 371.8125 13.792969 C 371.667969 14.125 371.480469 14.457031 371.25 14.769531 Z M 369.105469 19.957031 L 369.105469 18.144531 L 371.144531 18.144531 L 371.144531 19.957031 Z M 373.855469 19.957031 L 373.855469 18.144531 L 376.082031 18.144531 L 376.082031 19.957031 Z M 373.855469 19.957031 "/>
<path style=" stroke:none;fill-rule:nonzero;fill:rgb(0%,0%,0%);fill-opacity:1;" d="M 256.140625 138.6875 L 256.140625 137.6875 L 261.828125 135.292969 L 261.828125 136.335938 L 257.304688 138.1875 L 261.828125 140.0625 L 261.828125 141.105469 Z M 256.140625 138.6875 "/>
<path style=" stroke:none;fill-rule:nonzero;fill:rgb(0%,0%,0%);fill-opacity:1;" d="M 264.25 142.4375 L 263.273438 142.4375 L 263.273438 133.855469 L 264.3125 133.855469 L 264.3125 136.917969 C 264.757812 136.367188 265.324219 136.085938 266.023438 136.085938 C 266.40625 136.085938 266.773438 136.164062 267.105469 136.3125 C 267.449219 136.46875 267.734375 136.683594 267.960938 136.960938 C 268.179688 137.242188 268.355469 137.578125 268.480469 137.980469 C 268.605469 138.371094 268.667969 138.789062 268.667969 139.230469 C 268.667969 140.304688 268.402344 141.125 267.875 141.710938 C 267.34375 142.292969 266.714844 142.585938 265.980469 142.585938 C 265.242188 142.585938 264.667969 142.28125 264.25 141.667969 Z M 264.230469 139.273438 C 264.230469 140.023438 264.335938 140.5625 264.542969 140.898438 C 264.875 141.4375 265.320312 141.710938 265.875 141.710938 C 266.34375 141.710938 266.75 141.511719 267.085938 141.105469 C 267.417969 140.703125 267.585938 140.105469 267.585938 139.3125 C 267.585938 138.511719 267.421875 137.914062 267.105469 137.523438 C 266.78125 137.136719 266.398438 136.9375 265.9375 136.9375 C 265.464844 136.9375 265.0625 137.140625 264.730469 137.542969 C 264.398438 137.949219 264.230469 138.523438 264.230469 139.273438 Z M 264.230469 139.273438 "/>
<path style=" stroke:none;fill-rule:nonzero;fill:rgb(0%,0%,0%);fill-opacity:1;" d="M 269.550781 139.335938 C 269.550781 138.183594 269.867188 137.328125 270.507812 136.773438 C 271.050781 136.3125 271.703125 136.085938 272.46875 136.085938 C 273.328125 136.085938 274.03125 136.367188 274.570312 136.917969 C 275.113281 137.476562 275.382812 138.246094 275.382812 139.230469 C 275.382812 140.039062 275.257812 140.667969 275.007812 141.125 C 274.769531 141.585938 274.425781 141.949219 273.96875 142.210938 C 273.507812 142.460938 273.007812 142.585938 272.46875 142.585938 C 271.59375 142.585938 270.882812 142.308594 270.34375 141.75 C 269.8125 141.183594 269.550781 140.375 269.550781 139.335938 Z M 270.632812 139.335938 C 270.632812 140.125 270.804688 140.726562 271.15625 141.125 C 271.5 141.515625 271.9375 141.710938 272.46875 141.710938 C 272.992188 141.710938 273.429688 141.515625 273.78125 141.125 C 274.125 140.726562 274.300781 140.117188 274.300781 139.292969 C 274.300781 138.53125 274.125 137.949219 273.78125 137.542969 C 273.429688 137.140625 272.992188 136.9375 272.46875 136.9375 C 271.9375 136.9375 271.5 137.140625 271.15625 137.542969 C 270.804688 137.933594 270.632812 138.53125 270.632812 139.335938 Z M 270.632812 139.335938 "/>
<path style=" stroke:none;fill-rule:nonzero;fill:rgb(0%,0%,0%);fill-opacity:1;" d="M 276.203125 140.585938 L 277.246094 140.417969 C 277.296875 140.835938 277.460938 141.15625 277.726562 141.375 C 278 141.601562 278.375 141.710938 278.851562 141.710938 C 279.335938 141.710938 279.695312 141.617188 279.933594 141.417969 C 280.167969 141.226562 280.289062 140.996094 280.289062 140.730469 C 280.289062 140.480469 280.183594 140.292969 279.976562 140.167969 C 279.820312 140.074219 279.460938 139.949219 278.890625 139.792969 C 278.109375 139.601562 277.570312 139.433594 277.265625 139.292969 C 276.976562 139.15625 276.75 138.960938 276.601562 138.710938 C 276.445312 138.460938 276.371094 138.183594 276.371094 137.875 C 276.371094 137.601562 276.433594 137.34375 276.558594 137.105469 C 276.683594 136.871094 276.855469 136.667969 277.078125 136.5 C 277.246094 136.390625 277.464844 136.292969 277.746094 136.210938 C 278.039062 136.125 278.339844 136.085938 278.664062 136.085938 C 279.148438 136.085938 279.570312 136.15625 279.933594 136.292969 C 280.308594 136.433594 280.585938 136.621094 280.765625 136.855469 C 280.945312 137.09375 281.070312 137.414062 281.140625 137.8125 L 280.101562 137.960938 C 280.058594 137.640625 279.917969 137.390625 279.683594 137.210938 C 279.460938 137.03125 279.148438 136.9375 278.746094 136.9375 C 278.257812 136.9375 277.914062 137.023438 277.703125 137.1875 C 277.496094 137.34375 277.390625 137.53125 277.390625 137.75 C 277.390625 137.890625 277.433594 138.011719 277.515625 138.105469 C 277.601562 138.230469 277.734375 138.328125 277.933594 138.398438 C 278.027344 138.4375 278.335938 138.53125 278.851562 138.667969 C 279.601562 138.867188 280.121094 139.023438 280.414062 139.148438 C 280.714844 139.273438 280.953125 139.460938 281.121094 139.710938 C 281.289062 139.949219 281.371094 140.246094 281.371094 140.605469 C 281.371094 140.96875 281.265625 141.304688 281.058594 141.605469 C 280.851562 141.914062 280.546875 142.15625 280.164062 142.335938 C 279.789062 142.5 279.351562 142.585938 278.851562 142.585938 C 278.042969 142.585938 277.421875 142.417969 276.996094 142.085938 C 276.578125 141.742188 276.3125 141.242188 276.203125 140.585938 Z M 276.203125 140.585938 "/>
<path style=" stroke:none;fill-rule:nonzero;fill:rgb(0%,0%,0%);fill-opacity:1;" d="M 288.183594 138.6875 L 282.496094 141.105469 L 282.496094 140.0625 L 286.996094 138.1875 L 282.496094 136.335938 L 282.496094 135.292969 L 288.183594 137.6875 Z M 288.183594 138.6875 "/>
<path style="fill:none;stroke-width:1;stroke-linecap:round;stroke-linejoin:round;stroke:rgb(0%,0%,0%);stroke-opacity:1;stroke-miterlimit:10;" d="M 761.422852 180.338867 L 807.867188 180.081055 C 811.168945 180.066406 813.834961 177.382812 813.834961 174.081055 L 813.834961 171.948242 " transform="matrix(1.333333,0,0,1.333333,-744,-122.666667)"/>
<path style="fill:none;stroke-width:1;stroke-linecap:butt;stroke-linejoin:miter;stroke:rgb(0%,0%,0%);stroke-opacity:1;stroke-miterlimit:10;" d="M 813.834961 167.949219 L 813.834961 171.948242 M 812.334961 171.948242 L 813.834961 167.949219 L 815.334961 171.948242 " transform="matrix(1.333333,0,0,1.333333,-744,-122.666667)"/>
<path style="fill:none;stroke-width:1;stroke-linecap:round;stroke-linejoin:round;stroke:rgb(0%,0%,0%);stroke-opacity:1;stroke-miterlimit:10;" d="M 795.1875 180.139648 L 851.203125 179.911133 C 854.507812 179.899414 857.179688 177.21582 857.179688 173.911133 L 857.179688 171.78418 " transform="matrix(1.333333,0,0,1.333333,-744,-122.666667)"/>
<path style="fill:none;stroke-width:1;stroke-linecap:butt;stroke-linejoin:miter;stroke:rgb(0%,0%,0%);stroke-opacity:1;stroke-miterlimit:10;" d="M 857.179688 167.785156 L 857.179688 171.78418 M 855.679688 171.78418 L 857.179688 167.785156 L 858.679688 171.78418 " transform="matrix(1.333333,0,0,1.333333,-744,-122.666667)"/>
<path style="fill:none;stroke-width:1;stroke-linecap:round;stroke-linejoin:round;stroke:rgb(0%,0%,0%);stroke-opacity:1;stroke-miterlimit:10;" d="M 837.667969 179.928711 L 893.683594 179.700195 C 896.988281 179.688477 899.660156 177.004883 899.660156 173.700195 L 899.660156 171.573242 " transform="matrix(1.333333,0,0,1.333333,-744,-122.666667)"/>
<path style="fill:none;stroke-width:1;stroke-linecap:butt;stroke-linejoin:miter;stroke:rgb(0%,0%,0%);stroke-opacity:1;stroke-miterlimit:10;" d="M 899.660156 167.574219 L 899.660156 171.573242 M 898.160156 171.573242 L 899.660156 167.574219 L 901.160156 171.573242 " transform="matrix(1.333333,0,0,1.333333,-744,-122.666667)"/>
</g>
</svg>
