<?xml version="1.0" encoding="UTF-8"?>
<svg xmlns="http://www.w3.org/2000/svg" xmlns:xlink="http://www.w3.org/1999/xlink" width="329pt" height="229pt" viewBox="0 0 329 229" version="1.1">
<defs>
<clipPath id="clip1">
  <path d="M 102 9 L 104 9 L 104 182.25 L 102 182.25 Z M 102 9 "/>
</clipPath>
<clipPath id="clip2">
  <path d="M 153 9 L 155 9 L 155 182.25 L 153 182.25 Z M 153 9 "/>
</clipPath>
<clipPath id="clip3">
  <path d="M 204 9 L 207 9 L 207 182.25 L 204 182.25 Z M 204 9 "/>
</clipPath>
<clipPath id="clip4">
  <path d="M 256 9 L 258 9 L 258 182.25 L 256 182.25 Z M 256 9 "/>
</clipPath>
<clipPath id="clip5">
  <path d="M 307 9 L 308.347656 9 L 308.347656 182.25 L 307 182.25 Z M 307 9 "/>
</clipPath>
<clipPath id="clip6">
  <path d="M 64.222656 144 L 308.347656 144 L 308.347656 146 L 64.222656 146 Z M 64.222656 144 "/>
</clipPath>
<clipPath id="clip7">
  <path d="M 64.222656 79 L 308.347656 79 L 308.347656 81 L 64.222656 81 Z M 64.222656 79 "/>
</clipPath>
<clipPath id="clip8">
  <path d="M 64.222656 14 L 308.347656 14 L 308.347656 16 L 64.222656 16 Z M 64.222656 14 "/>
</clipPath>
<clipPath id="clip9">
  <path d="M 64.222656 56 L 308.347656 56 L 308.347656 176 L 64.222656 176 Z M 64.222656 56 "/>
</clipPath>
<clipPath id="clip10">
  <path d="M 64.222656 15 L 308.347656 15 L 308.347656 107 L 64.222656 107 Z M 64.222656 15 "/>
</clipPath>
<filter id="alpha" filterUnits="objectBoundingBox" x="0%" y="0%" width="100%" height="100%">
  <feColorMatrix type="matrix" in="SourceGraphic" values="0 0 0 0 1 0 0 0 0 1 0 0 0 0 1 0 0 0 1 0"/>
</filter>
<mask id="mask0">
  <g filter="url(#alpha)">
<rect x="0" y="0" width="329" height="229" style="fill:rgb(0%,0%,0%);fill-opacity:0.8;stroke:none;"/>
  </g>
</mask>
<clipPath id="clip11">
  <rect x="0" y="0" width="329" height="229"/>
</clipPath>
<g id="surface5" clip-path="url(#clip11)">
<path style="fill-rule:nonzero;fill:rgb(100%,100%,100%);fill-opacity:1;stroke-width:1;stroke-linecap:butt;stroke-linejoin:miter;stroke:rgb(80%,80%,80%);stroke-opacity:1;stroke-miterlimit:4;" d="M 184.403125 44.55625 L 239.678125 44.55625 C 241.0125 44.55625 241.678125 43.890625 241.678125 42.55625 L 241.678125 14.2 C 241.678125 12.865625 241.0125 12.2 239.678125 12.2 L 184.403125 12.2 C 183.06875 12.2 182.403125 12.865625 182.403125 14.2 L 182.403125 42.55625 C 182.403125 43.890625 183.06875 44.55625 184.403125 44.55625 Z M 184.403125 44.55625 " transform="matrix(1.25,0,0,1.25,0,0)"/>
</g>
</defs>
<g id="surface1">
<rect x="0" y="0" width="329" height="229" style="fill:rgb(100%,100%,100%);fill-opacity:1;stroke:none;"/>
<path style=" stroke:none;fill-rule:nonzero;fill:rgb(100%,100%,100%);fill-opacity:1;" d="M 64.222656 182.25 L 308.347656 182.25 L 308.347656 9 L 64.222656 9 Z M 64.222656 182.25 "/>
<g clip-path="url(#clip1)" clip-rule="nonzero">
<path style="fill:none;stroke-width:0.8;stroke-linecap:square;stroke-linejoin:round;stroke:rgb(69.019608%,69.019608%,69.019608%);stroke-opacity:1;stroke-miterlimit:4;" d="M 82.215625 145.8 L 82.215625 7.2 " transform="matrix(1.25,0,0,1.25,0,0)"/>
</g>
<path style="fill:none;stroke-width:0.8;stroke-linecap:butt;stroke-linejoin:round;stroke:rgb(0%,0%,0%);stroke-opacity:1;stroke-miterlimit:4;" d="M 0.000658 0 L 0.000658 3.5 " transform="matrix(1.25,0,0,1.25,102.768709,182.25)"/>
<path style=" stroke:none;fill-rule:nonzero;fill:rgb(0%,0%,0%);fill-opacity:1;" d="M 97.214844 199.460938 L 101.515625 199.460938 L 101.515625 200.5 L 95.730469 200.5 L 95.730469 199.460938 C 96.199219 198.976562 96.835938 198.328125 97.644531 197.511719 C 98.453125 196.695312 98.960938 196.167969 99.167969 195.933594 C 99.5625 195.488281 99.835938 195.113281 99.992188 194.808594 C 100.152344 194.5 100.230469 194.199219 100.230469 193.902344 C 100.230469 193.417969 100.058594 193.023438 99.71875 192.71875 C 99.378906 192.410156 98.9375 192.257812 98.390625 192.257812 C 98.003906 192.257812 97.597656 192.324219 97.167969 192.460938 C 96.738281 192.59375 96.28125 192.796875 95.792969 193.070312 L 95.792969 191.824219 C 96.289062 191.625 96.75 191.476562 97.183594 191.375 C 97.613281 191.273438 98.011719 191.222656 98.367188 191.222656 C 99.3125 191.222656 100.066406 191.457031 100.625 191.929688 C 101.1875 192.402344 101.46875 193.03125 101.46875 193.820312 C 101.46875 194.195312 101.398438 194.550781 101.257812 194.886719 C 101.117188 195.222656 100.863281 195.617188 100.492188 196.074219 C 100.390625 196.191406 100.066406 196.53125 99.519531 197.097656 C 98.976562 197.660156 98.207031 198.449219 97.214844 199.460938 Z M 97.214844 199.460938 "/>
<path style=" stroke:none;fill-rule:nonzero;fill:rgb(0%,0%,0%);fill-opacity:1;" d="M 106.742188 192.199219 C 106.105469 192.199219 105.628906 192.511719 105.308594 193.136719 C 104.992188 193.757812 104.832031 194.699219 104.832031 195.953125 C 104.832031 197.199219 104.992188 198.136719 105.308594 198.761719 C 105.628906 199.386719 106.105469 199.699219 106.742188 199.699219 C 107.378906 199.699219 107.859375 199.386719 108.179688 198.761719 C 108.5 198.136719 108.660156 197.199219 108.660156 195.953125 C 108.660156 194.699219 108.5 193.757812 108.179688 193.136719 C 107.859375 192.511719 107.378906 192.199219 106.742188 192.199219 Z M 106.742188 191.222656 C 107.761719 191.222656 108.542969 191.625 109.082031 192.433594 C 109.621094 193.242188 109.890625 194.414062 109.890625 195.953125 C 109.890625 197.484375 109.621094 198.65625 109.082031 199.464844 C 108.542969 200.273438 107.761719 200.675781 106.742188 200.675781 C 105.71875 200.675781 104.941406 200.273438 104.402344 199.464844 C 103.863281 198.65625 103.59375 197.484375 103.59375 195.953125 C 103.59375 194.414062 103.863281 193.242188 104.402344 192.433594 C 104.941406 191.625 105.71875 191.222656 106.742188 191.222656 Z M 106.742188 191.222656 "/>
<g clip-path="url(#clip2)" clip-rule="nonzero">
<path style="fill:none;stroke-width:0.8;stroke-linecap:square;stroke-linejoin:round;stroke:rgb(69.019608%,69.019608%,69.019608%);stroke-opacity:1;stroke-miterlimit:4;" d="M 123.33125 145.8 L 123.33125 7.2 " transform="matrix(1.25,0,0,1.25,0,0)"/>
</g>
<path style="fill:none;stroke-width:0.8;stroke-linecap:butt;stroke-linejoin:round;stroke:rgb(0%,0%,0%);stroke-opacity:1;stroke-miterlimit:4;" d="M 0.000493 0 L 0.000493 3.5 " transform="matrix(1.25,0,0,1.25,154.163446,182.25)"/>
<path style=" stroke:none;fill-rule:nonzero;fill:rgb(0%,0%,0%);fill-opacity:1;" d="M 150.933594 192.460938 L 147.820312 197.324219 L 150.933594 197.324219 Z M 150.609375 191.386719 L 152.160156 191.386719 L 152.160156 197.324219 L 153.460938 197.324219 L 153.460938 198.351562 L 152.160156 198.351562 L 152.160156 200.5 L 150.933594 200.5 L 150.933594 198.351562 L 146.820312 198.351562 L 146.820312 197.160156 Z M 150.609375 191.386719 "/>
<path style=" stroke:none;fill-rule:nonzero;fill:rgb(0%,0%,0%);fill-opacity:1;" d="M 158.136719 192.199219 C 157.5 192.199219 157.023438 192.511719 156.703125 193.136719 C 156.386719 193.757812 156.226562 194.699219 156.226562 195.953125 C 156.226562 197.199219 156.386719 198.136719 156.703125 198.761719 C 157.023438 199.386719 157.5 199.699219 158.136719 199.699219 C 158.773438 199.699219 159.253906 199.386719 159.574219 198.761719 C 159.894531 198.136719 160.054688 197.199219 160.054688 195.953125 C 160.054688 194.699219 159.894531 193.757812 159.574219 193.136719 C 159.253906 192.511719 158.773438 192.199219 158.136719 192.199219 Z M 158.136719 191.222656 C 159.15625 191.222656 159.9375 191.625 160.476562 192.433594 C 161.015625 193.242188 161.285156 194.414062 161.285156 195.953125 C 161.285156 197.484375 161.015625 198.65625 160.476562 199.464844 C 159.9375 200.273438 159.15625 200.675781 158.136719 200.675781 C 157.113281 200.675781 156.335938 200.273438 155.796875 199.464844 C 155.257812 198.65625 154.988281 197.484375 154.988281 195.953125 C 154.988281 194.414062 155.257812 193.242188 155.796875 192.433594 C 156.335938 191.625 157.113281 191.222656 158.136719 191.222656 Z M 158.136719 191.222656 "/>
<g clip-path="url(#clip3)" clip-rule="nonzero">
<path style="fill:none;stroke-width:0.8;stroke-linecap:square;stroke-linejoin:round;stroke:rgb(69.019608%,69.019608%,69.019608%);stroke-opacity:1;stroke-miterlimit:4;" d="M 164.446875 145.8 L 164.446875 7.2 " transform="matrix(1.25,0,0,1.25,0,0)"/>
</g>
<path style="fill:none;stroke-width:0.8;stroke-linecap:butt;stroke-linejoin:round;stroke:rgb(0%,0%,0%);stroke-opacity:1;stroke-miterlimit:4;" d="M 0.000329 0 L 0.000329 3.5 " transform="matrix(1.25,0,0,1.25,205.558183,182.25)"/>
<path style=" stroke:none;fill-rule:nonzero;fill:rgb(0%,0%,0%);fill-opacity:1;" d="M 201.730469 195.453125 C 201.179688 195.453125 200.738281 195.640625 200.414062 196.019531 C 200.09375 196.398438 199.929688 196.914062 199.929688 197.574219 C 199.929688 198.230469 200.09375 198.746094 200.414062 199.128906 C 200.738281 199.507812 201.179688 199.699219 201.730469 199.699219 C 202.285156 199.699219 202.722656 199.507812 203.046875 199.128906 C 203.371094 198.746094 203.53125 198.230469 203.53125 197.574219 C 203.53125 196.914062 203.371094 196.398438 203.046875 196.019531 C 202.722656 195.640625 202.285156 195.453125 201.730469 195.453125 Z M 204.179688 191.585938 L 204.179688 192.710938 C 203.871094 192.5625 203.558594 192.453125 203.242188 192.375 C 202.925781 192.296875 202.613281 192.257812 202.304688 192.257812 C 201.492188 192.257812 200.867188 192.53125 200.4375 193.082031 C 200.011719 193.632812 199.765625 194.460938 199.703125 195.574219 C 199.945312 195.21875 200.246094 194.945312 200.605469 194.757812 C 200.96875 194.570312 201.371094 194.476562 201.804688 194.476562 C 202.71875 194.476562 203.441406 194.753906 203.972656 195.308594 C 204.503906 195.863281 204.769531 196.617188 204.769531 197.574219 C 204.769531 198.511719 204.496094 199.261719 203.941406 199.828125 C 203.386719 200.394531 202.652344 200.675781 201.730469 200.675781 C 200.675781 200.675781 199.871094 200.273438 199.3125 199.464844 C 198.757812 198.65625 198.476562 197.484375 198.476562 195.953125 C 198.476562 194.511719 198.820312 193.363281 199.503906 192.507812 C 200.1875 191.648438 201.105469 191.222656 202.253906 191.222656 C 202.566406 191.222656 202.878906 191.25 203.191406 191.3125 C 203.507812 191.375 203.835938 191.464844 204.179688 191.585938 Z M 204.179688 191.585938 "/>
<path style=" stroke:none;fill-rule:nonzero;fill:rgb(0%,0%,0%);fill-opacity:1;" d="M 209.53125 192.199219 C 208.894531 192.199219 208.417969 192.511719 208.097656 193.136719 C 207.78125 193.757812 207.621094 194.699219 207.621094 195.953125 C 207.621094 197.199219 207.78125 198.136719 208.097656 198.761719 C 208.417969 199.386719 208.894531 199.699219 209.53125 199.699219 C 210.167969 199.699219 210.648438 199.386719 210.96875 198.761719 C 211.289062 198.136719 211.449219 197.199219 211.449219 195.953125 C 211.449219 194.699219 211.289062 193.757812 210.96875 193.136719 C 210.648438 192.511719 210.167969 192.199219 209.53125 192.199219 Z M 209.53125 191.222656 C 210.550781 191.222656 211.332031 191.625 211.871094 192.433594 C 212.410156 193.242188 212.679688 194.414062 212.679688 195.953125 C 212.679688 197.484375 212.410156 198.65625 211.871094 199.464844 C 211.332031 200.273438 210.550781 200.675781 209.53125 200.675781 C 208.507812 200.675781 207.730469 200.273438 207.191406 199.464844 C 206.652344 198.65625 206.382812 197.484375 206.382812 195.953125 C 206.382812 194.414062 206.652344 193.242188 207.191406 192.433594 C 207.730469 191.625 208.507812 191.222656 209.53125 191.222656 Z M 209.53125 191.222656 "/>
<g clip-path="url(#clip4)" clip-rule="nonzero">
<path style="fill:none;stroke-width:0.8;stroke-linecap:square;stroke-linejoin:round;stroke:rgb(69.019608%,69.019608%,69.019608%);stroke-opacity:1;stroke-miterlimit:4;" d="M 205.5625 145.8 L 205.5625 7.2 " transform="matrix(1.25,0,0,1.25,0,0)"/>
</g>
<path style="fill:none;stroke-width:0.8;stroke-linecap:butt;stroke-linejoin:round;stroke:rgb(0%,0%,0%);stroke-opacity:1;stroke-miterlimit:4;" d="M 0.000164 0 L 0.000164 3.5 " transform="matrix(1.25,0,0,1.25,256.95292,182.25)"/>
<path style=" stroke:none;fill-rule:nonzero;fill:rgb(0%,0%,0%);fill-opacity:1;" d="M 252.972656 196.171875 C 252.386719 196.171875 251.925781 196.328125 251.589844 196.640625 C 251.253906 196.953125 251.085938 197.386719 251.085938 197.933594 C 251.085938 198.484375 251.253906 198.914062 251.589844 199.230469 C 251.925781 199.542969 252.386719 199.699219 252.972656 199.699219 C 253.558594 199.699219 254.019531 199.542969 254.355469 199.226562 C 254.695312 198.910156 254.863281 198.480469 254.863281 197.933594 C 254.863281 197.386719 254.695312 196.953125 254.359375 196.640625 C 254.027344 196.328125 253.5625 196.171875 252.972656 196.171875 Z M 251.738281 195.648438 C 251.210938 195.515625 250.800781 195.269531 250.503906 194.910156 C 250.210938 194.546875 250.0625 194.101562 250.0625 193.582031 C 250.0625 192.855469 250.320312 192.277344 250.839844 191.855469 C 251.359375 191.433594 252.070312 191.222656 252.972656 191.222656 C 253.878906 191.222656 254.59375 191.433594 255.109375 191.855469 C 255.625 192.277344 255.882812 192.855469 255.882812 193.582031 C 255.882812 194.101562 255.738281 194.546875 255.441406 194.910156 C 255.148438 195.269531 254.738281 195.515625 254.210938 195.648438 C 254.804688 195.785156 255.269531 196.054688 255.597656 196.460938 C 255.929688 196.863281 256.097656 197.351562 256.097656 197.933594 C 256.097656 198.816406 255.828125 199.496094 255.289062 199.96875 C 254.75 200.441406 253.976562 200.675781 252.972656 200.675781 C 251.96875 200.675781 251.195312 200.441406 250.65625 199.96875 C 250.117188 199.496094 249.847656 198.816406 249.847656 197.933594 C 249.847656 197.351562 250.015625 196.863281 250.347656 196.460938 C 250.683594 196.054688 251.144531 195.785156 251.738281 195.648438 Z M 251.289062 193.699219 C 251.289062 194.171875 251.4375 194.539062 251.730469 194.804688 C 252.027344 195.066406 252.441406 195.199219 252.972656 195.199219 C 253.503906 195.199219 253.917969 195.066406 254.214844 194.804688 C 254.515625 194.539062 254.664062 194.171875 254.664062 193.699219 C 254.664062 193.226562 254.515625 192.859375 254.214844 192.59375 C 253.917969 192.328125 253.503906 192.199219 252.972656 192.199219 C 252.441406 192.199219 252.027344 192.328125 251.730469 192.59375 C 251.4375 192.859375 251.289062 193.226562 251.289062 193.699219 Z M 251.289062 193.699219 "/>
<path style=" stroke:none;fill-rule:nonzero;fill:rgb(0%,0%,0%);fill-opacity:1;" d="M 260.925781 192.199219 C 260.292969 192.199219 259.8125 192.511719 259.492188 193.136719 C 259.175781 193.757812 259.015625 194.699219 259.015625 195.953125 C 259.015625 197.199219 259.175781 198.136719 259.492188 198.761719 C 259.8125 199.386719 260.292969 199.699219 260.925781 199.699219 C 261.566406 199.699219 262.042969 199.386719 262.363281 198.761719 C 262.683594 198.136719 262.84375 197.199219 262.84375 195.953125 C 262.84375 194.699219 262.683594 193.757812 262.363281 193.136719 C 262.042969 192.511719 261.566406 192.199219 260.925781 192.199219 Z M 260.925781 191.222656 C 261.949219 191.222656 262.726562 191.625 263.265625 192.433594 C 263.804688 193.242188 264.074219 194.414062 264.074219 195.953125 C 264.074219 197.484375 263.804688 198.65625 263.265625 199.464844 C 262.726562 200.273438 261.949219 200.675781 260.925781 200.675781 C 259.90625 200.675781 259.125 200.273438 258.585938 199.464844 C 258.046875 198.65625 257.777344 197.484375 257.777344 195.953125 C 257.777344 194.414062 258.046875 193.242188 258.585938 192.433594 C 259.125 191.625 259.90625 191.222656 260.925781 191.222656 Z M 260.925781 191.222656 "/>
<g clip-path="url(#clip5)" clip-rule="nonzero">
<path style="fill:none;stroke-width:0.8;stroke-linecap:square;stroke-linejoin:round;stroke:rgb(69.019608%,69.019608%,69.019608%);stroke-opacity:1;stroke-miterlimit:4;" d="M 246.678125 145.8 L 246.678125 7.2 " transform="matrix(1.25,0,0,1.25,0,0)"/>
</g>
<path style="fill:none;stroke-width:0.8;stroke-linecap:butt;stroke-linejoin:round;stroke:rgb(0%,0%,0%);stroke-opacity:1;stroke-miterlimit:4;" d="M 0 0 L 0 3.5 " transform="matrix(1.25,0,0,1.25,308.347656,182.25)"/>
<path style=" stroke:none;fill-rule:nonzero;fill:rgb(0%,0%,0%);fill-opacity:1;" d="M 297.96875 199.460938 L 299.984375 199.460938 L 299.984375 192.507812 L 297.789062 192.949219 L 297.789062 191.824219 L 299.96875 191.386719 L 301.203125 191.386719 L 301.203125 199.460938 L 303.21875 199.460938 L 303.21875 200.5 L 297.96875 200.5 Z M 297.96875 199.460938 "/>
<path style=" stroke:none;fill-rule:nonzero;fill:rgb(0%,0%,0%);fill-opacity:1;" d="M 308.34375 192.199219 C 307.710938 192.199219 307.230469 192.511719 306.910156 193.136719 C 306.59375 193.757812 306.433594 194.699219 306.433594 195.953125 C 306.433594 197.199219 306.59375 198.136719 306.910156 198.761719 C 307.230469 199.386719 307.710938 199.699219 308.34375 199.699219 C 308.984375 199.699219 309.460938 199.386719 309.78125 198.761719 C 310.101562 198.136719 310.261719 197.199219 310.261719 195.953125 C 310.261719 194.699219 310.101562 193.757812 309.78125 193.136719 C 309.460938 192.511719 308.984375 192.199219 308.34375 192.199219 Z M 308.34375 191.222656 C 309.367188 191.222656 310.144531 191.625 310.683594 192.433594 C 311.222656 193.242188 311.492188 194.414062 311.492188 195.953125 C 311.492188 197.484375 311.222656 198.65625 310.683594 199.464844 C 310.144531 200.273438 309.367188 200.675781 308.34375 200.675781 C 307.324219 200.675781 306.542969 200.273438 306.003906 199.464844 C 305.464844 198.65625 305.195312 197.484375 305.195312 195.953125 C 305.195312 194.414062 305.464844 193.242188 306.003906 192.433594 C 306.542969 191.625 307.324219 191.222656 308.34375 191.222656 Z M 308.34375 191.222656 "/>
<path style=" stroke:none;fill-rule:nonzero;fill:rgb(0%,0%,0%);fill-opacity:1;" d="M 316.296875 192.199219 C 315.664062 192.199219 315.183594 192.511719 314.863281 193.136719 C 314.546875 193.757812 314.386719 194.699219 314.386719 195.953125 C 314.386719 197.199219 314.546875 198.136719 314.863281 198.761719 C 315.183594 199.386719 315.664062 199.699219 316.296875 199.699219 C 316.9375 199.699219 317.414062 199.386719 317.734375 198.761719 C 318.054688 198.136719 318.214844 197.199219 318.214844 195.953125 C 318.214844 194.699219 318.054688 193.757812 317.734375 193.136719 C 317.414062 192.511719 316.9375 192.199219 316.296875 192.199219 Z M 316.296875 191.222656 C 317.320312 191.222656 318.097656 191.625 318.636719 192.433594 C 319.175781 193.242188 319.445312 194.414062 319.445312 195.953125 C 319.445312 197.484375 319.175781 198.65625 318.636719 199.464844 C 318.097656 200.273438 317.320312 200.675781 316.296875 200.675781 C 315.277344 200.675781 314.496094 200.273438 313.957031 199.464844 C 313.417969 198.65625 313.148438 197.484375 313.148438 195.953125 C 313.148438 194.414062 313.417969 193.242188 313.957031 192.433594 C 314.496094 191.625 315.277344 191.222656 316.296875 191.222656 Z M 316.296875 191.222656 "/>
<path style=" stroke:none;fill-rule:nonzero;fill:rgb(0%,0%,0%);fill-opacity:1;" d="M 171.019531 213.898438 L 171.019531 214.445312 L 165.855469 214.445312 C 165.90625 215.21875 166.136719 215.808594 166.554688 216.214844 C 166.972656 216.617188 167.550781 216.820312 168.296875 216.820312 C 168.726562 216.820312 169.144531 216.769531 169.550781 216.664062 C 169.957031 216.558594 170.359375 216.398438 170.757812 216.1875 L 170.757812 217.25 C 170.355469 217.417969 169.941406 217.550781 169.515625 217.640625 C 169.09375 217.730469 168.664062 217.773438 168.230469 217.773438 C 167.140625 217.773438 166.273438 217.457031 165.636719 216.824219 C 165 216.1875 164.683594 215.328125 164.683594 214.246094 C 164.683594 213.125 164.984375 212.238281 165.589844 211.582031 C 166.195312 210.925781 167.007812 210.597656 168.035156 210.597656 C 168.953125 210.597656 169.679688 210.890625 170.214844 211.484375 C 170.75 212.074219 171.019531 212.878906 171.019531 213.898438 Z M 169.894531 213.566406 C 169.886719 212.953125 169.714844 212.464844 169.378906 212.097656 C 169.042969 211.730469 168.601562 211.546875 168.046875 211.546875 C 167.421875 211.546875 166.917969 211.722656 166.542969 212.078125 C 166.167969 212.433594 165.949219 212.929688 165.890625 213.574219 Z M 169.894531 213.566406 "/>
<path style=" stroke:none;fill-rule:nonzero;fill:rgb(0%,0%,0%);fill-opacity:1;" d="M 173.949219 216.570312 L 173.949219 220.195312 L 172.820312 220.195312 L 172.820312 210.761719 L 173.949219 210.761719 L 173.949219 211.796875 C 174.183594 211.390625 174.484375 211.089844 174.84375 210.894531 C 175.203125 210.695312 175.632812 210.597656 176.132812 210.597656 C 176.964844 210.597656 177.640625 210.925781 178.15625 211.585938 C 178.675781 212.242188 178.9375 213.109375 178.9375 214.183594 C 178.9375 215.257812 178.675781 216.125 178.15625 216.785156 C 177.640625 217.445312 176.964844 217.773438 176.132812 217.773438 C 175.632812 217.773438 175.203125 217.675781 174.84375 217.476562 C 174.484375 217.277344 174.183594 216.976562 173.949219 216.570312 Z M 177.769531 214.183594 C 177.769531 213.359375 177.601562 212.710938 177.261719 212.242188 C 176.921875 211.769531 176.453125 211.535156 175.859375 211.535156 C 175.265625 211.535156 174.796875 211.769531 174.457031 212.242188 C 174.117188 212.710938 173.949219 213.359375 173.949219 214.183594 C 173.949219 215.007812 174.117188 215.65625 174.457031 216.128906 C 174.796875 216.597656 175.265625 216.832031 175.859375 216.832031 C 176.453125 216.832031 176.921875 216.597656 177.261719 216.128906 C 177.601562 215.65625 177.769531 215.007812 177.769531 214.183594 Z M 177.769531 214.183594 "/>
<path style=" stroke:none;fill-rule:nonzero;fill:rgb(0%,0%,0%);fill-opacity:1;" d="M 183.445312 211.546875 C 182.84375 211.546875 182.367188 211.78125 182.015625 212.253906 C 181.667969 212.722656 181.492188 213.367188 181.492188 214.183594 C 181.492188 215 181.664062 215.644531 182.011719 216.117188 C 182.363281 216.585938 182.839844 216.820312 183.445312 216.820312 C 184.042969 216.820312 184.519531 216.585938 184.867188 216.113281 C 185.21875 215.640625 185.390625 214.996094 185.390625 214.183594 C 185.390625 213.375 185.21875 212.730469 184.867188 212.257812 C 184.519531 211.785156 184.042969 211.546875 183.445312 211.546875 Z M 183.445312 210.597656 C 184.421875 210.597656 185.1875 210.914062 185.746094 211.550781 C 186.304688 212.183594 186.582031 213.0625 186.582031 214.183594 C 186.582031 215.300781 186.304688 216.179688 185.746094 216.820312 C 185.1875 217.457031 184.421875 217.773438 183.445312 217.773438 C 182.464844 217.773438 181.695312 217.457031 181.140625 216.820312 C 180.585938 216.179688 180.308594 215.300781 180.308594 214.183594 C 180.308594 213.0625 180.585938 212.183594 181.140625 211.550781 C 181.695312 210.914062 182.464844 210.597656 183.445312 210.597656 Z M 183.445312 210.597656 "/>
<path style=" stroke:none;fill-rule:nonzero;fill:rgb(0%,0%,0%);fill-opacity:1;" d="M 193.363281 211.023438 L 193.363281 212.074219 C 193.046875 211.898438 192.726562 211.765625 192.410156 211.679688 C 192.089844 211.589844 191.769531 211.546875 191.441406 211.546875 C 190.714844 211.546875 190.148438 211.777344 189.742188 212.242188 C 189.339844 212.703125 189.140625 213.347656 189.140625 214.183594 C 189.140625 215.019531 189.339844 215.667969 189.742188 216.128906 C 190.148438 216.589844 190.714844 216.820312 191.441406 216.820312 C 191.769531 216.820312 192.089844 216.777344 192.410156 216.691406 C 192.726562 216.601562 193.046875 216.472656 193.363281 216.296875 L 193.363281 217.335938 C 193.050781 217.480469 192.726562 217.589844 192.390625 217.664062 C 192.054688 217.738281 191.699219 217.773438 191.320312 217.773438 C 190.289062 217.773438 189.472656 217.449219 188.863281 216.804688 C 188.257812 216.15625 187.957031 215.28125 187.957031 214.183594 C 187.957031 213.070312 188.261719 212.191406 188.875 211.554688 C 189.488281 210.914062 190.328125 210.597656 191.394531 210.597656 C 191.738281 210.597656 192.074219 210.632812 192.40625 210.703125 C 192.734375 210.773438 193.054688 210.878906 193.363281 211.023438 Z M 193.363281 211.023438 "/>
<path style=" stroke:none;fill-rule:nonzero;fill:rgb(0%,0%,0%);fill-opacity:1;" d="M 201 213.46875 L 201 217.597656 L 199.878906 217.597656 L 199.878906 213.507812 C 199.878906 212.859375 199.75 212.375 199.5 212.054688 C 199.246094 211.734375 198.867188 211.574219 198.363281 211.574219 C 197.757812 211.574219 197.277344 211.765625 196.929688 212.152344 C 196.578125 212.539062 196.402344 213.066406 196.402344 213.734375 L 196.402344 217.597656 L 195.273438 217.597656 L 195.273438 208.097656 L 196.402344 208.097656 L 196.402344 211.824219 C 196.671875 211.410156 196.988281 211.105469 197.351562 210.902344 C 197.71875 210.699219 198.136719 210.597656 198.613281 210.597656 C 199.398438 210.597656 199.992188 210.839844 200.394531 211.324219 C 200.800781 211.808594 201 212.523438 201 213.46875 Z M 201 213.46875 "/>
<path style=" stroke:none;fill-rule:nonzero;fill:rgb(0%,0%,0%);fill-opacity:1;" d="M 207.597656 210.960938 L 207.597656 212.023438 C 207.28125 211.859375 206.949219 211.738281 206.609375 211.660156 C 206.265625 211.578125 205.914062 211.535156 205.546875 211.535156 C 204.988281 211.535156 204.570312 211.621094 204.292969 211.792969 C 204.011719 211.960938 203.875 212.21875 203.875 212.5625 C 203.875 212.820312 203.972656 213.027344 204.171875 213.175781 C 204.371094 213.324219 204.773438 213.464844 205.375 213.597656 L 205.761719 213.683594 C 206.558594 213.855469 207.125 214.09375 207.460938 214.40625 C 207.796875 214.71875 207.964844 215.152344 207.964844 215.710938 C 207.964844 216.34375 207.710938 216.847656 207.210938 217.21875 C 206.707031 217.589844 206.015625 217.773438 205.136719 217.773438 C 204.773438 217.773438 204.390625 217.738281 203.992188 217.667969 C 203.597656 217.59375 203.179688 217.488281 202.738281 217.347656 L 202.738281 216.1875 C 203.15625 216.402344 203.5625 216.5625 203.964844 216.671875 C 204.367188 216.777344 204.765625 216.832031 205.164062 216.832031 C 205.691406 216.832031 206.097656 216.742188 206.382812 216.5625 C 206.667969 216.378906 206.808594 216.125 206.808594 215.796875 C 206.808594 215.492188 206.707031 215.257812 206.5 215.09375 C 206.296875 214.929688 205.847656 214.773438 205.148438 214.625 L 204.757812 214.53125 C 204.0625 214.386719 203.5625 214.160156 203.25 213.859375 C 202.941406 213.554688 202.789062 213.136719 202.789062 212.609375 C 202.789062 211.964844 203.015625 211.46875 203.472656 211.121094 C 203.925781 210.769531 204.574219 210.597656 205.414062 210.597656 C 205.828125 210.597656 206.21875 210.625 206.582031 210.6875 C 206.949219 210.746094 207.289062 210.839844 207.597656 210.960938 Z M 207.597656 210.960938 "/>
<g clip-path="url(#clip6)" clip-rule="nonzero">
<path style="fill:none;stroke-width:0.8;stroke-linecap:square;stroke-linejoin:round;stroke:rgb(69.019608%,69.019608%,69.019608%);stroke-opacity:1;stroke-miterlimit:4;" d="M 51.378125 115.934375 L 246.678125 115.934375 " transform="matrix(1.25,0,0,1.25,0,0)"/>
</g>
<path style="fill:none;stroke-width:0.8;stroke-linecap:butt;stroke-linejoin:round;stroke:rgb(0%,0%,0%);stroke-opacity:1;stroke-miterlimit:4;" d="M 0 -0.001305 L -3.5 -0.001305 " transform="matrix(1.25,0,0,1.25,64.222656,144.9196)"/>
<path style=" stroke:none;fill-rule:nonzero;fill:rgb(0%,0%,0%);fill-opacity:1;" d="M 27.648438 148.535156 L 29.664062 148.535156 L 29.664062 141.582031 L 27.46875 142.023438 L 27.46875 140.898438 L 29.648438 140.460938 L 30.882812 140.460938 L 30.882812 148.535156 L 32.898438 148.535156 L 32.898438 149.574219 L 27.648438 149.574219 Z M 27.648438 148.535156 "/>
<path style=" stroke:none;fill-rule:nonzero;fill:rgb(0%,0%,0%);fill-opacity:1;" d="M 38.023438 141.273438 C 37.390625 141.273438 36.910156 141.585938 36.589844 142.210938 C 36.273438 142.832031 36.113281 143.773438 36.113281 145.027344 C 36.113281 146.273438 36.273438 147.210938 36.589844 147.835938 C 36.910156 148.460938 37.390625 148.773438 38.023438 148.773438 C 38.664062 148.773438 39.140625 148.460938 39.460938 147.835938 C 39.78125 147.210938 39.941406 146.273438 39.941406 145.027344 C 39.941406 143.773438 39.78125 142.832031 39.460938 142.210938 C 39.140625 141.585938 38.664062 141.273438 38.023438 141.273438 Z M 38.023438 140.296875 C 39.046875 140.296875 39.824219 140.699219 40.363281 141.507812 C 40.902344 142.316406 41.171875 143.488281 41.171875 145.027344 C 41.171875 146.558594 40.902344 147.730469 40.363281 148.539062 C 39.824219 149.347656 39.046875 149.75 38.023438 149.75 C 37.003906 149.75 36.222656 149.347656 35.683594 148.539062 C 35.144531 147.730469 34.875 146.558594 34.875 145.027344 C 34.875 143.488281 35.144531 142.316406 35.683594 141.507812 C 36.222656 140.699219 37.003906 140.296875 38.023438 140.296875 Z M 38.023438 140.296875 "/>
<path style=" stroke:none;fill-rule:nonzero;fill:rgb(0%,0%,0%);fill-opacity:1;" d="M 43.050781 141.679688 L 48.527344 141.679688 L 48.527344 142.40625 L 43.050781 142.40625 Z M 43.050781 141.679688 "/>
<path style=" stroke:none;fill-rule:nonzero;fill:rgb(0%,0%,0%);fill-opacity:1;" d="M 51.132812 144.0625 L 54.144531 144.0625 L 54.144531 144.789062 L 50.097656 144.789062 L 50.097656 144.0625 C 50.421875 143.722656 50.871094 143.269531 51.433594 142.699219 C 52 142.125 52.355469 141.757812 52.5 141.589844 C 52.777344 141.28125 52.96875 141.019531 53.078125 140.804688 C 53.1875 140.589844 53.246094 140.378906 53.246094 140.167969 C 53.246094 139.832031 53.125 139.554688 52.886719 139.339844 C 52.648438 139.125 52.339844 139.019531 51.957031 139.019531 C 51.6875 139.019531 51.402344 139.066406 51.101562 139.160156 C 50.800781 139.253906 50.480469 139.398438 50.136719 139.589844 L 50.136719 138.714844 C 50.484375 138.578125 50.808594 138.472656 51.113281 138.398438 C 51.414062 138.328125 51.691406 138.292969 51.941406 138.292969 C 52.601562 138.292969 53.128906 138.460938 53.523438 138.789062 C 53.914062 139.121094 54.109375 139.5625 54.109375 140.113281 C 54.109375 140.375 54.0625 140.625 53.964844 140.859375 C 53.867188 141.09375 53.6875 141.371094 53.425781 141.691406 C 53.355469 141.773438 53.128906 142.011719 52.75 142.40625 C 52.367188 142.800781 51.828125 143.351562 51.132812 144.0625 Z M 51.132812 144.0625 "/>
<g clip-path="url(#clip7)" clip-rule="nonzero">
<path style="fill:none;stroke-width:0.8;stroke-linecap:square;stroke-linejoin:round;stroke:rgb(69.019608%,69.019608%,69.019608%);stroke-opacity:1;stroke-miterlimit:4;" d="M 51.378125 63.934375 L 246.678125 63.934375 " transform="matrix(1.25,0,0,1.25,0,0)"/>
</g>
<path style="fill:none;stroke-width:0.8;stroke-linecap:butt;stroke-linejoin:round;stroke:rgb(0%,0%,0%);stroke-opacity:1;stroke-miterlimit:4;" d="M 0 0.000475 L -3.5 0.000475 " transform="matrix(1.25,0,0,1.25,64.222656,79.917375)"/>
<path style=" stroke:none;fill-rule:nonzero;fill:rgb(0%,0%,0%);fill-opacity:1;" d="M 35.023438 83.535156 L 37.039062 83.535156 L 37.039062 76.582031 L 34.84375 77.019531 L 34.84375 75.898438 L 37.023438 75.457031 L 38.257812 75.457031 L 38.257812 83.535156 L 40.273438 83.535156 L 40.273438 84.570312 L 35.023438 84.570312 Z M 35.023438 83.535156 "/>
<path style=" stroke:none;fill-rule:nonzero;fill:rgb(0%,0%,0%);fill-opacity:1;" d="M 45.398438 76.269531 C 44.765625 76.269531 44.285156 76.582031 43.964844 77.207031 C 43.648438 77.832031 43.488281 78.769531 43.488281 80.023438 C 43.488281 81.273438 43.648438 82.210938 43.964844 82.835938 C 44.285156 83.460938 44.765625 83.773438 45.398438 83.773438 C 46.039062 83.773438 46.515625 83.460938 46.835938 82.835938 C 47.15625 82.210938 47.316406 81.273438 47.316406 80.023438 C 47.316406 78.769531 47.15625 77.832031 46.835938 77.207031 C 46.515625 76.582031 46.039062 76.269531 45.398438 76.269531 Z M 45.398438 75.292969 C 46.421875 75.292969 47.199219 75.699219 47.738281 76.507812 C 48.277344 77.3125 48.546875 78.484375 48.546875 80.023438 C 48.546875 81.558594 48.277344 82.730469 47.738281 83.539062 C 47.199219 84.34375 46.421875 84.75 45.398438 84.75 C 44.378906 84.75 43.597656 84.34375 43.058594 83.539062 C 42.519531 82.730469 42.25 81.558594 42.25 80.023438 C 42.25 78.484375 42.519531 77.3125 43.058594 76.507812 C 43.597656 75.699219 44.378906 75.292969 45.398438 75.292969 Z M 45.398438 75.292969 "/>
<path style=" stroke:none;fill-rule:nonzero;fill:rgb(0%,0%,0%);fill-opacity:1;" d="M 52.277344 73.976562 C 51.835938 73.976562 51.5 74.195312 51.277344 74.632812 C 51.054688 75.066406 50.941406 75.726562 50.941406 76.601562 C 50.941406 77.476562 51.054688 78.132812 51.277344 78.570312 C 51.5 79.007812 51.835938 79.226562 52.277344 79.226562 C 52.726562 79.226562 53.0625 79.007812 53.285156 78.570312 C 53.507812 78.132812 53.621094 77.476562 53.621094 76.601562 C 53.621094 75.726562 53.507812 75.066406 53.285156 74.632812 C 53.0625 74.195312 52.726562 73.976562 52.277344 73.976562 Z M 52.277344 73.292969 C 52.996094 73.292969 53.539062 73.574219 53.917969 74.140625 C 54.296875 74.707031 54.484375 75.527344 54.484375 76.601562 C 54.484375 77.675781 54.296875 78.496094 53.917969 79.0625 C 53.539062 79.628906 52.996094 79.910156 52.277344 79.910156 C 51.5625 79.910156 51.019531 79.628906 50.640625 79.0625 C 50.265625 78.496094 50.074219 77.675781 50.074219 76.601562 C 50.074219 75.527344 50.265625 74.707031 50.640625 74.140625 C 51.019531 73.574219 51.5625 73.292969 52.277344 73.292969 Z M 52.277344 73.292969 "/>
<g clip-path="url(#clip8)" clip-rule="nonzero">
<path style="fill:none;stroke-width:0.8;stroke-linecap:square;stroke-linejoin:round;stroke:rgb(69.019608%,69.019608%,69.019608%);stroke-opacity:1;stroke-miterlimit:4;" d="M 51.378125 11.93125 L 246.678125 11.93125 " transform="matrix(1.25,0,0,1.25,0,0)"/>
</g>
<path style="fill:none;stroke-width:0.8;stroke-linecap:butt;stroke-linejoin:round;stroke:rgb(0%,0%,0%);stroke-opacity:1;stroke-miterlimit:4;" d="M 0 -0.000869 L -3.5 -0.000869 " transform="matrix(1.25,0,0,1.25,64.222656,14.915149)"/>
<path style=" stroke:none;fill-rule:nonzero;fill:rgb(0%,0%,0%);fill-opacity:1;" d="M 35.023438 18.53125 L 37.039062 18.53125 L 37.039062 11.578125 L 34.84375 12.019531 L 34.84375 10.894531 L 37.023438 10.457031 L 38.257812 10.457031 L 38.257812 18.53125 L 40.273438 18.53125 L 40.273438 19.570312 L 35.023438 19.570312 Z M 35.023438 18.53125 "/>
<path style=" stroke:none;fill-rule:nonzero;fill:rgb(0%,0%,0%);fill-opacity:1;" d="M 45.398438 11.269531 C 44.765625 11.269531 44.285156 11.582031 43.964844 12.207031 C 43.648438 12.828125 43.488281 13.769531 43.488281 15.023438 C 43.488281 16.269531 43.648438 17.207031 43.964844 17.832031 C 44.285156 18.457031 44.765625 18.769531 45.398438 18.769531 C 46.039062 18.769531 46.515625 18.457031 46.835938 17.832031 C 47.15625 17.207031 47.316406 16.269531 47.316406 15.023438 C 47.316406 13.769531 47.15625 12.828125 46.835938 12.207031 C 46.515625 11.582031 46.039062 11.269531 45.398438 11.269531 Z M 45.398438 10.292969 C 46.421875 10.292969 47.199219 10.695312 47.738281 11.503906 C 48.277344 12.3125 48.546875 13.484375 48.546875 15.023438 C 48.546875 16.554688 48.277344 17.726562 47.738281 18.535156 C 47.199219 19.34375 46.421875 19.746094 45.398438 19.746094 C 44.378906 19.746094 43.597656 19.34375 43.058594 18.535156 C 42.519531 17.726562 42.25 16.554688 42.25 15.023438 C 42.25 13.484375 42.519531 12.3125 43.058594 11.503906 C 43.597656 10.695312 44.378906 10.292969 45.398438 10.292969 Z M 45.398438 10.292969 "/>
<path style=" stroke:none;fill-rule:nonzero;fill:rgb(0%,0%,0%);fill-opacity:1;" d="M 51.175781 14.058594 L 54.1875 14.058594 L 54.1875 14.785156 L 50.140625 14.785156 L 50.140625 14.058594 C 50.464844 13.71875 50.914062 13.261719 51.476562 12.691406 C 52.042969 12.121094 52.398438 11.753906 52.542969 11.585938 C 52.820312 11.277344 53.011719 11.015625 53.121094 10.800781 C 53.234375 10.585938 53.289062 10.371094 53.289062 10.164062 C 53.289062 9.824219 53.167969 9.550781 52.929688 9.335938 C 52.691406 9.121094 52.382812 9.015625 52 9.015625 C 51.730469 9.015625 51.445312 9.0625 51.144531 9.15625 C 50.84375 9.25 50.523438 9.390625 50.179688 9.582031 L 50.179688 8.710938 C 50.527344 8.570312 50.851562 8.46875 51.15625 8.394531 C 51.457031 8.324219 51.734375 8.289062 51.984375 8.289062 C 52.644531 8.289062 53.171875 8.453125 53.566406 8.785156 C 53.957031 9.117188 54.15625 9.554688 54.15625 10.109375 C 54.15625 10.371094 54.105469 10.621094 54.007812 10.855469 C 53.910156 11.089844 53.730469 11.367188 53.472656 11.683594 C 53.398438 11.769531 53.171875 12.007812 52.792969 12.402344 C 52.410156 12.796875 51.871094 13.347656 51.175781 14.058594 Z M 51.175781 14.058594 "/>
<path style=" stroke:none;fill-rule:nonzero;fill:rgb(0%,0%,0%);fill-opacity:1;" d="M 9 106.519531 L 9 105.398438 L 18.496094 105.398438 L 18.496094 106.519531 Z M 9 106.519531 "/>
<path style=" stroke:none;fill-rule:nonzero;fill:rgb(0%,0%,0%);fill-opacity:1;" d="M 12.449219 100.398438 C 12.449219 101 12.683594 101.476562 13.152344 101.824219 C 13.625 102.175781 14.269531 102.351562 15.085938 102.351562 C 15.902344 102.351562 16.546875 102.175781 17.015625 101.828125 C 17.488281 101.480469 17.722656 101.003906 17.722656 100.398438 C 17.722656 99.800781 17.488281 99.324219 17.015625 98.976562 C 16.542969 98.625 15.898438 98.449219 15.085938 98.449219 C 14.277344 98.449219 13.632812 98.625 13.160156 98.976562 C 12.6875 99.324219 12.449219 99.800781 12.449219 100.398438 Z M 11.496094 100.398438 C 11.496094 99.421875 11.816406 98.65625 12.449219 98.097656 C 13.085938 97.539062 13.964844 97.257812 15.085938 97.257812 C 16.203125 97.257812 17.082031 97.539062 17.71875 98.097656 C 18.355469 98.65625 18.675781 99.421875 18.675781 100.398438 C 18.675781 101.378906 18.355469 102.148438 17.71875 102.703125 C 17.082031 103.257812 16.203125 103.535156 15.085938 103.535156 C 13.964844 103.535156 13.085938 103.257812 12.449219 102.703125 C 11.816406 102.148438 11.496094 101.378906 11.496094 100.398438 Z M 11.496094 100.398438 "/>
<path style=" stroke:none;fill-rule:nonzero;fill:rgb(0%,0%,0%);fill-opacity:1;" d="M 11.863281 91.042969 L 12.925781 91.042969 C 12.761719 91.359375 12.640625 91.6875 12.558594 92.03125 C 12.476562 92.371094 12.4375 92.726562 12.4375 93.09375 C 12.4375 93.648438 12.523438 94.066406 12.691406 94.347656 C 12.863281 94.625 13.121094 94.765625 13.460938 94.765625 C 13.722656 94.765625 13.925781 94.664062 14.074219 94.464844 C 14.222656 94.265625 14.367188 93.863281 14.5 93.261719 L 14.585938 92.878906 C 14.757812 92.082031 14.996094 91.515625 15.308594 91.179688 C 15.621094 90.84375 16.054688 90.675781 16.609375 90.675781 C 17.246094 90.675781 17.75 90.925781 18.121094 91.429688 C 18.492188 91.929688 18.675781 92.621094 18.675781 93.5 C 18.675781 93.867188 18.640625 94.246094 18.566406 94.644531 C 18.496094 95.042969 18.390625 95.460938 18.246094 95.898438 L 17.085938 95.898438 C 17.304688 95.484375 17.464844 95.074219 17.574219 94.671875 C 17.679688 94.269531 17.734375 93.871094 17.734375 93.476562 C 17.734375 92.945312 17.644531 92.539062 17.460938 92.257812 C 17.28125 91.972656 17.027344 91.828125 16.695312 91.828125 C 16.390625 91.828125 16.160156 91.929688 15.996094 92.136719 C 15.832031 92.339844 15.675781 92.792969 15.523438 93.488281 L 15.433594 93.878906 C 15.289062 94.574219 15.0625 95.078125 14.757812 95.386719 C 14.457031 95.695312 14.039062 95.851562 13.511719 95.851562 C 12.867188 95.851562 12.371094 95.621094 12.023438 95.167969 C 11.671875 94.710938 11.496094 94.0625 11.496094 93.226562 C 11.496094 92.8125 11.527344 92.421875 11.589844 92.054688 C 11.648438 91.6875 11.742188 91.351562 11.863281 91.042969 Z M 11.863281 91.042969 "/>
<path style=" stroke:none;fill-rule:nonzero;fill:rgb(0%,0%,0%);fill-opacity:1;" d="M 11.863281 84.527344 L 12.925781 84.527344 C 12.761719 84.84375 12.640625 85.175781 12.558594 85.515625 C 12.476562 85.859375 12.4375 86.210938 12.4375 86.578125 C 12.4375 87.136719 12.523438 87.554688 12.691406 87.832031 C 12.863281 88.113281 13.121094 88.25 13.460938 88.25 C 13.722656 88.25 13.925781 88.152344 14.074219 87.953125 C 14.222656 87.753906 14.367188 87.351562 14.5 86.75 L 14.585938 86.363281 C 14.757812 85.566406 14.996094 85 15.308594 84.664062 C 15.621094 84.328125 16.054688 84.160156 16.609375 84.160156 C 17.246094 84.160156 17.75 84.414062 18.121094 84.914062 C 18.492188 85.417969 18.675781 86.109375 18.675781 86.988281 C 18.675781 87.355469 18.640625 87.734375 18.566406 88.132812 C 18.496094 88.53125 18.390625 88.949219 18.246094 89.386719 L 17.085938 89.386719 C 17.304688 88.972656 17.464844 88.5625 17.574219 88.160156 C 17.679688 87.757812 17.734375 87.359375 17.734375 86.960938 C 17.734375 86.433594 17.644531 86.027344 17.460938 85.742188 C 17.28125 85.457031 17.027344 85.316406 16.695312 85.316406 C 16.390625 85.316406 16.160156 85.417969 15.996094 85.625 C 15.832031 85.828125 15.675781 86.28125 15.523438 86.976562 L 15.433594 87.367188 C 15.289062 88.0625 15.0625 88.566406 14.757812 88.875 C 14.457031 89.183594 14.039062 89.335938 13.511719 89.335938 C 12.867188 89.335938 12.371094 89.109375 12.023438 88.652344 C 11.671875 88.199219 11.496094 87.550781 11.496094 86.710938 C 11.496094 86.296875 11.527344 85.910156 11.589844 85.542969 C 11.648438 85.175781 11.742188 84.835938 11.863281 84.527344 Z M 11.863281 84.527344 "/>
<g clip-path="url(#clip9)" clip-rule="nonzero">
<path style="fill:none;stroke-width:1.5;stroke-linecap:square;stroke-linejoin:round;stroke:rgb(12.156863%,46.666667%,70.588235%);stroke-opacity:1;stroke-miterlimit:4;" d="M 51.378125 46.275 L 61.65625 77.021875 L 71.9375 105.253125 L 82.215625 127.996875 L 92.49375 136.059375 L 102.771875 136.153125 L 113.053125 136.278125 L 123.33125 136.08125 L 133.609375 136.81875 L 143.8875 136.828125 L 154.16875 136.928125 L 164.446875 137.253125 L 174.725 137.73125 L 185.003125 138.1125 L 195.284375 138.009375 L 205.5625 138.35 L 215.840625 138.771875 L 226.11875 139.015625 L 236.4 139.0875 L 246.678125 139.5 " transform="matrix(1.25,0,0,1.25,0,0)"/>
</g>
<g clip-path="url(#clip10)" clip-rule="nonzero">
<path style="fill:none;stroke-width:1.5;stroke-linecap:butt;stroke-linejoin:round;stroke:rgb(74.901961%,0%,74.901961%);stroke-opacity:1;stroke-dasharray:5.55,2.4;stroke-miterlimit:4;" d="M 51.378125 13.5 L 61.65625 17.575 L 71.9375 21.625 L 82.215625 25.675 L 92.49375 29.721875 L 102.771875 33.7625 L 113.053125 37.79375 L 123.33125 41.809375 L 133.609375 45.803125 L 143.8875 49.771875 L 154.16875 53.709375 L 164.446875 57.596875 L 174.725 61.428125 L 185.003125 65.175 L 195.284375 68.825 L 205.5625 72.3375 L 215.840625 75.69375 L 226.11875 78.8375 L 236.4 81.75625 L 246.678125 84.4 " transform="matrix(1.25,0,0,1.25,0,0)"/>
</g>
<path style="fill:none;stroke-width:0.8;stroke-linecap:square;stroke-linejoin:miter;stroke:rgb(0%,0%,0%);stroke-opacity:1;stroke-miterlimit:4;" d="M 51.378125 145.8 L 51.378125 7.2 " transform="matrix(1.25,0,0,1.25,0,0)"/>
<path style="fill:none;stroke-width:0.8;stroke-linecap:square;stroke-linejoin:miter;stroke:rgb(0%,0%,0%);stroke-opacity:1;stroke-miterlimit:4;" d="M 246.678125 145.8 L 246.678125 7.2 " transform="matrix(1.25,0,0,1.25,0,0)"/>
<path style="fill:none;stroke-width:0.8;stroke-linecap:square;stroke-linejoin:miter;stroke:rgb(0%,0%,0%);stroke-opacity:1;stroke-miterlimit:4;" d="M 51.378125 145.8 L 246.678125 145.8 " transform="matrix(1.25,0,0,1.25,0,0)"/>
<path style="fill:none;stroke-width:0.8;stroke-linecap:square;stroke-linejoin:miter;stroke:rgb(0%,0%,0%);stroke-opacity:1;stroke-miterlimit:4;" d="M 51.378125 7.2 L 246.678125 7.2 " transform="matrix(1.25,0,0,1.25,0,0)"/>
<use xlink:href="#surface5" mask="url(#mask0)"/>
<path style="fill:none;stroke-width:1.5;stroke-linecap:square;stroke-linejoin:round;stroke:rgb(12.156863%,46.666667%,70.588235%);stroke-opacity:1;stroke-miterlimit:4;" d="M 186.403125 20.3 L 206.403125 20.3 " transform="matrix(1.25,0,0,1.25,0,0)"/>
<path style=" stroke:none;fill-rule:nonzero;fill:rgb(0%,0%,0%);fill-opacity:1;" d="M 270.292969 20.972656 L 270.292969 22.914062 L 272.605469 22.914062 L 272.605469 23.785156 L 270.292969 23.785156 L 270.292969 27.496094 C 270.292969 28.054688 270.367188 28.410156 270.523438 28.570312 C 270.671875 28.730469 270.984375 28.808594 271.453125 28.808594 L 272.605469 28.808594 L 272.605469 29.75 L 271.453125 29.75 C 270.585938 29.75 269.988281 29.585938 269.65625 29.265625 C 269.328125 28.941406 269.164062 28.351562 269.164062 27.496094 L 269.164062 23.785156 L 268.339844 23.785156 L 268.339844 22.914062 L 269.164062 22.914062 L 269.164062 20.972656 Z M 270.292969 20.972656 "/>
<path style=" stroke:none;fill-rule:nonzero;fill:rgb(0%,0%,0%);fill-opacity:1;" d="M 278.042969 23.960938 C 277.917969 23.886719 277.78125 23.835938 277.632812 23.800781 C 277.484375 23.765625 277.320312 23.75 277.140625 23.75 C 276.507812 23.75 276.019531 23.953125 275.679688 24.367188 C 275.339844 24.78125 275.167969 25.375 275.167969 26.148438 L 275.167969 29.75 L 274.039062 29.75 L 274.039062 22.914062 L 275.167969 22.914062 L 275.167969 23.976562 C 275.40625 23.558594 275.714844 23.25 276.089844 23.050781 C 276.46875 22.847656 276.929688 22.75 277.472656 22.75 C 277.546875 22.75 277.632812 22.753906 277.726562 22.765625 C 277.820312 22.773438 277.925781 22.789062 278.039062 22.808594 Z M 278.042969 23.960938 "/>
<path style=" stroke:none;fill-rule:nonzero;fill:rgb(0%,0%,0%);fill-opacity:1;" d="M 282.328125 26.3125 C 281.421875 26.3125 280.792969 26.417969 280.441406 26.625 C 280.09375 26.832031 279.917969 27.183594 279.917969 27.6875 C 279.917969 28.085938 280.046875 28.402344 280.3125 28.636719 C 280.574219 28.867188 280.929688 28.984375 281.382812 28.984375 C 282.003906 28.984375 282.503906 28.765625 282.882812 28.324219 C 283.257812 27.882812 283.445312 27.292969 283.445312 26.5625 L 283.445312 26.3125 Z M 284.570312 25.847656 L 284.570312 29.75 L 283.445312 29.75 L 283.445312 28.710938 C 283.191406 29.125 282.871094 29.429688 282.488281 29.628906 C 282.105469 29.828125 281.636719 29.925781 281.082031 29.925781 C 280.382812 29.925781 279.828125 29.730469 279.414062 29.335938 C 279 28.941406 278.792969 28.417969 278.792969 27.757812 C 278.792969 26.988281 279.050781 26.410156 279.566406 26.019531 C 280.082031 25.628906 280.847656 25.433594 281.871094 25.433594 L 283.445312 25.433594 L 283.445312 25.324219 C 283.445312 24.804688 283.277344 24.40625 282.9375 24.125 C 282.597656 23.839844 282.121094 23.699219 281.503906 23.699219 C 281.113281 23.699219 280.734375 23.746094 280.363281 23.839844 C 279.992188 23.933594 279.636719 24.074219 279.296875 24.261719 L 279.296875 23.222656 C 279.707031 23.0625 280.105469 22.945312 280.492188 22.867188 C 280.878906 22.789062 281.253906 22.75 281.621094 22.75 C 282.609375 22.75 283.347656 23.003906 283.835938 23.519531 C 284.324219 24.03125 284.570312 24.804688 284.570312 25.847656 Z M 284.570312 25.847656 "/>
<path style=" stroke:none;fill-rule:nonzero;fill:rgb(0%,0%,0%);fill-opacity:1;" d="M 286.882812 22.914062 L 288.003906 22.914062 L 288.003906 29.75 L 286.882812 29.75 Z M 286.882812 20.25 L 288.003906 20.25 L 288.003906 21.675781 L 286.882812 21.675781 Z M 286.882812 20.25 "/>
<path style=" stroke:none;fill-rule:nonzero;fill:rgb(0%,0%,0%);fill-opacity:1;" d="M 296.039062 25.621094 L 296.039062 29.75 L 294.914062 29.75 L 294.914062 25.660156 C 294.914062 25.011719 294.789062 24.527344 294.535156 24.207031 C 294.285156 23.886719 293.90625 23.726562 293.402344 23.726562 C 292.792969 23.726562 292.316406 23.917969 291.964844 24.304688 C 291.617188 24.691406 291.441406 25.21875 291.441406 25.886719 L 291.441406 29.75 L 290.3125 29.75 L 290.3125 22.914062 L 291.441406 22.914062 L 291.441406 23.976562 C 291.710938 23.5625 292.027344 23.257812 292.390625 23.054688 C 292.753906 22.851562 293.175781 22.75 293.652344 22.75 C 294.4375 22.75 295.03125 22.992188 295.433594 23.476562 C 295.835938 23.960938 296.039062 24.675781 296.039062 25.621094 Z M 296.039062 25.621094 "/>
<path style="fill:none;stroke-width:1.5;stroke-linecap:butt;stroke-linejoin:round;stroke:rgb(74.901961%,0%,74.901961%);stroke-opacity:1;stroke-dasharray:5.55,2.4;stroke-miterlimit:4;" d="M 186.403125 34.975 L 206.403125 34.975 " transform="matrix(1.25,0,0,1.25,0,0)"/>
<path style=" stroke:none;fill-rule:nonzero;fill:rgb(0%,0%,0%);fill-opacity:1;" d="M 270.292969 39.316406 L 270.292969 41.257812 L 272.605469 41.257812 L 272.605469 42.132812 L 270.292969 42.132812 L 270.292969 45.84375 C 270.292969 46.402344 270.367188 46.757812 270.523438 46.917969 C 270.671875 47.078125 270.984375 47.15625 271.453125 47.15625 L 272.605469 47.15625 L 272.605469 48.09375 L 271.453125 48.09375 C 270.585938 48.09375 269.988281 47.933594 269.65625 47.609375 C 269.328125 47.285156 269.164062 46.699219 269.164062 45.84375 L 269.164062 42.132812 L 268.339844 42.132812 L 268.339844 41.257812 L 269.164062 41.257812 L 269.164062 39.316406 Z M 270.292969 39.316406 "/>
<path style=" stroke:none;fill-rule:nonzero;fill:rgb(0%,0%,0%);fill-opacity:1;" d="M 279.929688 44.394531 L 279.929688 44.945312 L 274.765625 44.945312 C 274.816406 45.71875 275.050781 46.308594 275.464844 46.710938 C 275.882812 47.117188 276.464844 47.320312 277.207031 47.320312 C 277.640625 47.320312 278.058594 47.265625 278.460938 47.160156 C 278.867188 47.054688 279.269531 46.898438 279.667969 46.683594 L 279.667969 47.746094 C 279.265625 47.917969 278.851562 48.046875 278.429688 48.136719 C 278.003906 48.226562 277.578125 48.273438 277.140625 48.273438 C 276.050781 48.273438 275.1875 47.957031 274.550781 47.320312 C 273.914062 46.6875 273.59375 45.828125 273.59375 44.742188 C 273.59375 43.625 273.898438 42.738281 274.5 42.082031 C 275.105469 41.425781 275.921875 41.09375 276.945312 41.09375 C 277.867188 41.09375 278.59375 41.390625 279.128906 41.984375 C 279.664062 42.574219 279.929688 43.378906 279.929688 44.394531 Z M 278.808594 44.066406 C 278.800781 43.453125 278.628906 42.964844 278.292969 42.597656 C 277.957031 42.230469 277.511719 42.046875 276.957031 42.046875 C 276.332031 42.046875 275.832031 42.222656 275.453125 42.578125 C 275.078125 42.933594 274.859375 43.429688 274.804688 44.074219 Z M 278.808594 44.066406 "/>
<path style=" stroke:none;fill-rule:nonzero;fill:rgb(0%,0%,0%);fill-opacity:1;" d="M 286.128906 41.460938 L 286.128906 42.523438 C 285.8125 42.359375 285.484375 42.238281 285.140625 42.15625 C 284.800781 42.074219 284.445312 42.035156 284.078125 42.035156 C 283.523438 42.035156 283.105469 42.121094 282.824219 42.289062 C 282.546875 42.460938 282.40625 42.71875 282.40625 43.058594 C 282.40625 43.320312 282.507812 43.523438 282.707031 43.671875 C 282.90625 43.820312 283.308594 43.964844 283.910156 44.097656 L 284.292969 44.183594 C 285.089844 44.355469 285.65625 44.59375 285.992188 44.90625 C 286.328125 45.21875 286.496094 45.652344 286.496094 46.207031 C 286.496094 46.84375 286.246094 47.347656 285.742188 47.71875 C 285.242188 48.089844 284.550781 48.273438 283.671875 48.273438 C 283.304688 48.273438 282.925781 48.238281 282.527344 48.164062 C 282.128906 48.09375 281.710938 47.988281 281.273438 47.84375 L 281.273438 46.683594 C 281.6875 46.902344 282.097656 47.0625 282.5 47.171875 C 282.902344 47.277344 283.300781 47.332031 283.695312 47.332031 C 284.226562 47.332031 284.632812 47.242188 284.914062 47.058594 C 285.199219 46.878906 285.34375 46.625 285.34375 46.292969 C 285.34375 45.988281 285.242188 45.757812 285.035156 45.59375 C 284.832031 45.429688 284.378906 45.273438 283.683594 45.121094 L 283.292969 45.03125 C 282.597656 44.886719 282.09375 44.660156 281.785156 44.355469 C 281.476562 44.054688 281.320312 43.636719 281.320312 43.109375 C 281.320312 42.464844 281.550781 41.96875 282.003906 41.621094 C 282.460938 41.269531 283.109375 41.09375 283.945312 41.09375 C 284.359375 41.09375 284.75 41.125 285.117188 41.1875 C 285.484375 41.246094 285.820312 41.339844 286.128906 41.460938 Z M 286.128906 41.460938 "/>
<path style=" stroke:none;fill-rule:nonzero;fill:rgb(0%,0%,0%);fill-opacity:1;" d="M 289.398438 39.316406 L 289.398438 41.257812 L 291.710938 41.257812 L 291.710938 42.132812 L 289.398438 42.132812 L 289.398438 45.84375 C 289.398438 46.402344 289.472656 46.757812 289.625 46.917969 C 289.777344 47.078125 290.089844 47.15625 290.558594 47.15625 L 291.710938 47.15625 L 291.710938 48.09375 L 290.558594 48.09375 C 289.691406 48.09375 289.089844 47.933594 288.761719 47.609375 C 288.433594 47.285156 288.269531 46.699219 288.269531 45.84375 L 288.269531 42.132812 L 287.445312 42.132812 L 287.445312 41.257812 L 288.269531 41.257812 L 288.269531 39.316406 Z M 289.398438 39.316406 "/>
</g>
</svg>
