<?xml version="1.0" encoding="UTF-8"?>
<svg xmlns="http://www.w3.org/2000/svg" xmlns:xlink="http://www.w3.org/1999/xlink" width="401pt" height="229pt" viewBox="0 0 401 229" version="1.1">
<defs>
<clipPath id="clip1">
  <path d="M 57 9 L 60 9 L 60 182.25 L 57 182.25 Z M 57 9 "/>
</clipPath>
<clipPath id="clip2">
  <path d="M 97 9 L 100 9 L 100 182.25 L 97 182.25 Z M 97 9 "/>
</clipPath>
<clipPath id="clip3">
  <path d="M 137 9 L 140 9 L 140 182.25 L 137 182.25 Z M 137 9 "/>
</clipPath>
<clipPath id="clip4">
  <path d="M 177 9 L 179 9 L 179 182.25 L 177 182.25 Z M 177 9 "/>
</clipPath>
<clipPath id="clip5">
  <path d="M 217 9 L 219 9 L 219 182.25 L 217 182.25 Z M 217 9 "/>
</clipPath>
<clipPath id="clip6">
  <path d="M 257 9 L 259 9 L 259 182.25 L 257 182.25 Z M 257 9 "/>
</clipPath>
<clipPath id="clip7">
  <path d="M 297 9 L 299 9 L 299 182.25 L 297 182.25 Z M 297 9 "/>
</clipPath>
<clipPath id="clip8">
  <path d="M 337 9 L 339 9 L 339 182.25 L 337 182.25 Z M 337 9 "/>
</clipPath>
<clipPath id="clip9">
  <path d="M 376 9 L 379 9 L 379 182.25 L 376 182.25 Z M 376 9 "/>
</clipPath>
<clipPath id="clip10">
  <path d="M 42.800781 173 L 391.550781 173 L 391.550781 176 L 42.800781 176 Z M 42.800781 173 "/>
</clipPath>
<clipPath id="clip11">
  <path d="M 42.800781 133 L 391.550781 133 L 391.550781 136 L 42.800781 136 Z M 42.800781 133 "/>
</clipPath>
<clipPath id="clip12">
  <path d="M 42.800781 93 L 391.550781 93 L 391.550781 96 L 42.800781 96 Z M 42.800781 93 "/>
</clipPath>
<clipPath id="clip13">
  <path d="M 42.800781 54 L 391.550781 54 L 391.550781 56 L 42.800781 56 Z M 42.800781 54 "/>
</clipPath>
<clipPath id="clip14">
  <path d="M 42.800781 14 L 391.550781 14 L 391.550781 16 L 42.800781 16 Z M 42.800781 14 "/>
</clipPath>
</defs>
<g id="surface1">
<path style=" stroke:none;fill-rule:nonzero;fill:rgb(100%,100%,100%);fill-opacity:1;" d="M 0 229.195312 L 400.550781 229.195312 L 400.550781 0 L 0 0 Z M 0 229.195312 "/>
<path style=" stroke:none;fill-rule:nonzero;fill:rgb(100%,100%,100%);fill-opacity:1;" d="M 42.800781 182.25 L 391.550781 182.25 L 391.550781 9 L 42.800781 9 Z M 42.800781 182.25 "/>
<g clip-path="url(#clip1)" clip-rule="nonzero">
<path style="fill:none;stroke-width:0.8;stroke-linecap:square;stroke-linejoin:round;stroke:rgb(69.019608%,69.019608%,69.019608%);stroke-opacity:1;stroke-miterlimit:4;" d="M 46.921875 145.8 L 46.921875 7.2 " transform="matrix(1.25,0,0,1.25,0,0)"/>
</g>
<path style="fill:none;stroke-width:0.8;stroke-linecap:butt;stroke-linejoin:round;stroke:rgb(0%,0%,0%);stroke-opacity:1;stroke-miterlimit:4;" d="M -0.000568 0 L -0.000568 3.5 " transform="matrix(1.25,0,0,1.25,58.653054,182.25)"/>
<path style=" stroke:none;fill-rule:nonzero;fill:rgb(0%,0%,0%);fill-opacity:1;" d="M 50.761719 196.0625 L 58.585938 196.0625 L 58.585938 197.097656 L 50.761719 197.097656 Z M 50.761719 196.0625 "/>
<path style=" stroke:none;fill-rule:nonzero;fill:rgb(0%,0%,0%);fill-opacity:1;" d="M 63.886719 196.171875 C 63.300781 196.171875 62.839844 196.328125 62.503906 196.640625 C 62.167969 196.953125 62 197.386719 62 197.933594 C 62 198.484375 62.167969 198.914062 62.503906 199.230469 C 62.839844 199.542969 63.300781 199.699219 63.886719 199.699219 C 64.472656 199.699219 64.933594 199.542969 65.269531 199.226562 C 65.609375 198.910156 65.777344 198.480469 65.777344 197.933594 C 65.777344 197.386719 65.609375 196.953125 65.273438 196.640625 C 64.941406 196.328125 64.476562 196.171875 63.886719 196.171875 Z M 62.652344 195.648438 C 62.125 195.515625 61.710938 195.269531 61.417969 194.910156 C 61.121094 194.546875 60.976562 194.101562 60.976562 193.582031 C 60.976562 192.855469 61.234375 192.277344 61.753906 191.855469 C 62.273438 191.433594 62.984375 191.222656 63.886719 191.222656 C 64.792969 191.222656 65.503906 191.433594 66.023438 191.855469 C 66.539062 192.277344 66.796875 192.855469 66.796875 193.582031 C 66.796875 194.101562 66.648438 194.546875 66.355469 194.910156 C 66.058594 195.269531 65.652344 195.515625 65.125 195.648438 C 65.71875 195.785156 66.183594 196.054688 66.511719 196.460938 C 66.84375 196.863281 67.011719 197.351562 67.011719 197.933594 C 67.011719 198.816406 66.742188 199.496094 66.203125 199.96875 C 65.664062 200.441406 64.890625 200.675781 63.886719 200.675781 C 62.882812 200.675781 62.109375 200.441406 61.570312 199.96875 C 61.03125 199.496094 60.761719 198.816406 60.761719 197.933594 C 60.761719 197.351562 60.925781 196.863281 61.261719 196.460938 C 61.59375 196.054688 62.058594 195.785156 62.652344 195.648438 Z M 62.203125 193.699219 C 62.203125 194.171875 62.347656 194.539062 62.644531 194.804688 C 62.9375 195.066406 63.351562 195.199219 63.886719 195.199219 C 64.414062 195.199219 64.828125 195.066406 65.128906 194.804688 C 65.425781 194.539062 65.578125 194.171875 65.578125 193.699219 C 65.578125 193.226562 65.425781 192.859375 65.128906 192.59375 C 64.828125 192.328125 64.414062 192.199219 63.886719 192.199219 C 63.351562 192.199219 62.9375 192.328125 62.644531 192.59375 C 62.347656 192.859375 62.203125 193.226562 62.203125 193.699219 Z M 62.203125 193.699219 "/>
<g clip-path="url(#clip2)" clip-rule="nonzero">
<path style="fill:none;stroke-width:0.8;stroke-linecap:square;stroke-linejoin:round;stroke:rgb(69.019608%,69.019608%,69.019608%);stroke-opacity:1;stroke-miterlimit:4;" d="M 78.825 145.8 L 78.825 7.2 " transform="matrix(1.25,0,0,1.25,0,0)"/>
</g>
<path style="fill:none;stroke-width:0.8;stroke-linecap:butt;stroke-linejoin:round;stroke:rgb(0%,0%,0%);stroke-opacity:1;stroke-miterlimit:4;" d="M -0.001389 0 L -0.001389 3.5 " transform="matrix(1.25,0,0,1.25,98.532986,182.25)"/>
<path style=" stroke:none;fill-rule:nonzero;fill:rgb(0%,0%,0%);fill-opacity:1;" d="M 90.644531 196.0625 L 98.46875 196.0625 L 98.46875 197.097656 L 90.644531 197.097656 Z M 90.644531 196.0625 "/>
<path style=" stroke:none;fill-rule:nonzero;fill:rgb(0%,0%,0%);fill-opacity:1;" d="M 103.917969 195.453125 C 103.367188 195.453125 102.925781 195.640625 102.601562 196.019531 C 102.28125 196.398438 102.117188 196.914062 102.117188 197.574219 C 102.117188 198.230469 102.28125 198.746094 102.601562 199.128906 C 102.925781 199.507812 103.367188 199.699219 103.917969 199.699219 C 104.472656 199.699219 104.910156 199.507812 105.234375 199.128906 C 105.558594 198.746094 105.71875 198.230469 105.71875 197.574219 C 105.71875 196.914062 105.558594 196.398438 105.234375 196.019531 C 104.910156 195.640625 104.472656 195.453125 103.917969 195.453125 Z M 106.367188 191.585938 L 106.367188 192.710938 C 106.058594 192.5625 105.746094 192.453125 105.429688 192.375 C 105.113281 192.296875 104.800781 192.257812 104.492188 192.257812 C 103.679688 192.257812 103.054688 192.53125 102.625 193.082031 C 102.199219 193.632812 101.953125 194.460938 101.890625 195.574219 C 102.132812 195.21875 102.433594 194.945312 102.792969 194.757812 C 103.15625 194.570312 103.558594 194.476562 103.992188 194.476562 C 104.90625 194.476562 105.628906 194.753906 106.160156 195.308594 C 106.691406 195.863281 106.957031 196.617188 106.957031 197.574219 C 106.957031 198.511719 106.683594 199.261719 106.128906 199.828125 C 105.574219 200.394531 104.839844 200.675781 103.917969 200.675781 C 102.863281 200.675781 102.058594 200.273438 101.5 199.464844 C 100.945312 198.65625 100.664062 197.484375 100.664062 195.953125 C 100.664062 194.511719 101.007812 193.363281 101.691406 192.507812 C 102.375 191.648438 103.292969 191.222656 104.441406 191.222656 C 104.753906 191.222656 105.066406 191.25 105.378906 191.3125 C 105.695312 191.375 106.023438 191.464844 106.367188 191.585938 Z M 106.367188 191.585938 "/>
<g clip-path="url(#clip3)" clip-rule="nonzero">
<path style="fill:none;stroke-width:0.8;stroke-linecap:square;stroke-linejoin:round;stroke:rgb(69.019608%,69.019608%,69.019608%);stroke-opacity:1;stroke-miterlimit:4;" d="M 110.73125 145.8 L 110.73125 7.2 " transform="matrix(1.25,0,0,1.25,0,0)"/>
</g>
<path style="fill:none;stroke-width:0.8;stroke-linecap:butt;stroke-linejoin:round;stroke:rgb(0%,0%,0%);stroke-opacity:1;stroke-miterlimit:4;" d="M 0.000915 0 L 0.000915 3.5 " transform="matrix(1.25,0,0,1.25,138.412919,182.25)"/>
<path style=" stroke:none;fill-rule:nonzero;fill:rgb(0%,0%,0%);fill-opacity:1;" d="M 130.523438 196.0625 L 138.347656 196.0625 L 138.347656 197.097656 L 130.523438 197.097656 Z M 130.523438 196.0625 "/>
<path style=" stroke:none;fill-rule:nonzero;fill:rgb(0%,0%,0%);fill-opacity:1;" d="M 144.398438 192.460938 L 141.285156 197.324219 L 144.398438 197.324219 Z M 144.074219 191.386719 L 145.625 191.386719 L 145.625 197.324219 L 146.925781 197.324219 L 146.925781 198.351562 L 145.625 198.351562 L 145.625 200.5 L 144.398438 200.5 L 144.398438 198.351562 L 140.285156 198.351562 L 140.285156 197.160156 Z M 144.074219 191.386719 "/>
<g clip-path="url(#clip4)" clip-rule="nonzero">
<path style="fill:none;stroke-width:0.8;stroke-linecap:square;stroke-linejoin:round;stroke:rgb(69.019608%,69.019608%,69.019608%);stroke-opacity:1;stroke-miterlimit:4;" d="M 142.634375 145.8 L 142.634375 7.2 " transform="matrix(1.25,0,0,1.25,0,0)"/>
</g>
<path style="fill:none;stroke-width:0.8;stroke-linecap:butt;stroke-linejoin:round;stroke:rgb(0%,0%,0%);stroke-opacity:1;stroke-miterlimit:4;" d="M 0.000094 0 L 0.000094 3.5 " transform="matrix(1.25,0,0,1.25,178.292851,182.25)"/>
<path style=" stroke:none;fill-rule:nonzero;fill:rgb(0%,0%,0%);fill-opacity:1;" d="M 170.402344 196.0625 L 178.226562 196.0625 L 178.226562 197.097656 L 170.402344 197.097656 Z M 170.402344 196.0625 "/>
<path style=" stroke:none;fill-rule:nonzero;fill:rgb(0%,0%,0%);fill-opacity:1;" d="M 181.949219 199.460938 L 186.253906 199.460938 L 186.253906 200.5 L 180.46875 200.5 L 180.46875 199.460938 C 180.9375 198.976562 181.574219 198.328125 182.378906 197.511719 C 183.1875 196.695312 183.695312 196.167969 183.902344 195.933594 C 184.296875 195.488281 184.574219 195.113281 184.730469 194.808594 C 184.886719 194.5 184.964844 194.199219 184.964844 193.902344 C 184.964844 193.417969 184.796875 193.023438 184.457031 192.71875 C 184.117188 192.410156 183.675781 192.257812 183.128906 192.257812 C 182.742188 192.257812 182.332031 192.324219 181.902344 192.460938 C 181.476562 192.59375 181.015625 192.796875 180.527344 193.070312 L 180.527344 191.824219 C 181.023438 191.625 181.488281 191.476562 181.917969 191.375 C 182.351562 191.273438 182.746094 191.222656 183.105469 191.222656 C 184.050781 191.222656 184.800781 191.457031 185.363281 191.929688 C 185.925781 192.402344 186.203125 193.03125 186.203125 193.820312 C 186.203125 194.195312 186.132812 194.550781 185.992188 194.886719 C 185.855469 195.222656 185.597656 195.617188 185.226562 196.074219 C 185.125 196.191406 184.804688 196.53125 184.257812 197.097656 C 183.714844 197.660156 182.945312 198.449219 181.949219 199.460938 Z M 181.949219 199.460938 "/>
<g clip-path="url(#clip5)" clip-rule="nonzero">
<path style="fill:none;stroke-width:0.8;stroke-linecap:square;stroke-linejoin:round;stroke:rgb(69.019608%,69.019608%,69.019608%);stroke-opacity:1;stroke-miterlimit:4;" d="M 174.5375 145.8 L 174.5375 7.2 " transform="matrix(1.25,0,0,1.25,0,0)"/>
</g>
<path style="fill:none;stroke-width:0.8;stroke-linecap:butt;stroke-linejoin:round;stroke:rgb(0%,0%,0%);stroke-opacity:1;stroke-miterlimit:4;" d="M -0.000727 0 L -0.000727 3.5 " transform="matrix(1.25,0,0,1.25,218.172784,182.25)"/>
<path style=" stroke:none;fill-rule:nonzero;fill:rgb(0%,0%,0%);fill-opacity:1;" d="M 218.167969 192.199219 C 217.535156 192.199219 217.058594 192.511719 216.738281 193.136719 C 216.417969 193.757812 216.257812 194.699219 216.257812 195.953125 C 216.257812 197.199219 216.417969 198.136719 216.738281 198.761719 C 217.058594 199.386719 217.535156 199.699219 218.167969 199.699219 C 218.808594 199.699219 219.289062 199.386719 219.605469 198.761719 C 219.925781 198.136719 220.085938 197.199219 220.085938 195.953125 C 220.085938 194.699219 219.925781 193.757812 219.605469 193.136719 C 219.289062 192.511719 218.808594 192.199219 218.167969 192.199219 Z M 218.167969 191.222656 C 219.191406 191.222656 219.972656 191.625 220.511719 192.433594 C 221.050781 193.242188 221.320312 194.414062 221.320312 195.953125 C 221.320312 197.484375 221.050781 198.65625 220.511719 199.464844 C 219.972656 200.273438 219.191406 200.675781 218.167969 200.675781 C 217.148438 200.675781 216.367188 200.273438 215.828125 199.464844 C 215.289062 198.65625 215.019531 197.484375 215.019531 195.953125 C 215.019531 194.414062 215.289062 193.242188 215.828125 192.433594 C 216.367188 191.625 217.148438 191.222656 218.167969 191.222656 Z M 218.167969 191.222656 "/>
<g clip-path="url(#clip6)" clip-rule="nonzero">
<path style="fill:none;stroke-width:0.8;stroke-linecap:square;stroke-linejoin:round;stroke:rgb(69.019608%,69.019608%,69.019608%);stroke-opacity:1;stroke-miterlimit:4;" d="M 206.440625 145.8 L 206.440625 7.2 " transform="matrix(1.25,0,0,1.25,0,0)"/>
</g>
<path style="fill:none;stroke-width:0.8;stroke-linecap:butt;stroke-linejoin:round;stroke:rgb(0%,0%,0%);stroke-opacity:1;stroke-miterlimit:4;" d="M -0.001548 0 L -0.001548 3.5 " transform="matrix(1.25,0,0,1.25,258.052716,182.25)"/>
<path style=" stroke:none;fill-rule:nonzero;fill:rgb(0%,0%,0%);fill-opacity:1;" d="M 256.472656 199.460938 L 260.777344 199.460938 L 260.777344 200.5 L 254.992188 200.5 L 254.992188 199.460938 C 255.460938 198.976562 256.097656 198.328125 256.902344 197.511719 C 257.710938 196.695312 258.21875 196.167969 258.425781 195.933594 C 258.820312 195.488281 259.097656 195.113281 259.253906 194.808594 C 259.410156 194.5 259.488281 194.199219 259.488281 193.902344 C 259.488281 193.417969 259.320312 193.023438 258.980469 192.71875 C 258.640625 192.410156 258.199219 192.257812 257.652344 192.257812 C 257.265625 192.257812 256.855469 192.324219 256.425781 192.460938 C 256 192.59375 255.539062 192.796875 255.050781 193.070312 L 255.050781 191.824219 C 255.546875 191.625 256.011719 191.476562 256.441406 191.375 C 256.875 191.273438 257.269531 191.222656 257.628906 191.222656 C 258.574219 191.222656 259.324219 191.457031 259.886719 191.929688 C 260.449219 192.402344 260.726562 193.03125 260.726562 193.820312 C 260.726562 194.195312 260.65625 194.550781 260.515625 194.886719 C 260.378906 195.222656 260.121094 195.617188 259.75 196.074219 C 259.648438 196.191406 259.328125 196.53125 258.78125 197.097656 C 258.238281 197.660156 257.46875 198.449219 256.472656 199.460938 Z M 256.472656 199.460938 "/>
<g clip-path="url(#clip7)" clip-rule="nonzero">
<path style="fill:none;stroke-width:0.8;stroke-linecap:square;stroke-linejoin:round;stroke:rgb(69.019608%,69.019608%,69.019608%);stroke-opacity:1;stroke-miterlimit:4;" d="M 238.346875 145.8 L 238.346875 7.2 " transform="matrix(1.25,0,0,1.25,0,0)"/>
</g>
<path style="fill:none;stroke-width:0.8;stroke-linecap:butt;stroke-linejoin:round;stroke:rgb(0%,0%,0%);stroke-opacity:1;stroke-miterlimit:4;" d="M 0.000757 0 L 0.000757 3.5 " transform="matrix(1.25,0,0,1.25,297.932647,182.25)"/>
<path style=" stroke:none;fill-rule:nonzero;fill:rgb(0%,0%,0%);fill-opacity:1;" d="M 298.679688 192.460938 L 295.566406 197.324219 L 298.679688 197.324219 Z M 298.355469 191.386719 L 299.90625 191.386719 L 299.90625 197.324219 L 301.207031 197.324219 L 301.207031 198.351562 L 299.90625 198.351562 L 299.90625 200.5 L 298.679688 200.5 L 298.679688 198.351562 L 294.566406 198.351562 L 294.566406 197.160156 Z M 298.355469 191.386719 "/>
<g clip-path="url(#clip8)" clip-rule="nonzero">
<path style="fill:none;stroke-width:0.8;stroke-linecap:square;stroke-linejoin:round;stroke:rgb(69.019608%,69.019608%,69.019608%);stroke-opacity:1;stroke-miterlimit:4;" d="M 270.25 145.8 L 270.25 7.2 " transform="matrix(1.25,0,0,1.25,0,0)"/>
</g>
<path style="fill:none;stroke-width:0.8;stroke-linecap:butt;stroke-linejoin:round;stroke:rgb(0%,0%,0%);stroke-opacity:1;stroke-miterlimit:4;" d="M -0.000064 0 L -0.000064 3.5 " transform="matrix(1.25,0,0,1.25,337.81258,182.25)"/>
<path style=" stroke:none;fill-rule:nonzero;fill:rgb(0%,0%,0%);fill-opacity:1;" d="M 337.964844 195.453125 C 337.410156 195.453125 336.972656 195.640625 336.648438 196.019531 C 336.324219 196.398438 336.164062 196.914062 336.164062 197.574219 C 336.164062 198.230469 336.324219 198.746094 336.648438 199.128906 C 336.972656 199.507812 337.410156 199.699219 337.964844 199.699219 C 338.515625 199.699219 338.953125 199.507812 339.277344 199.128906 C 339.601562 198.746094 339.761719 198.230469 339.761719 197.574219 C 339.761719 196.914062 339.601562 196.398438 339.277344 196.019531 C 338.953125 195.640625 338.515625 195.453125 337.964844 195.453125 Z M 340.410156 191.585938 L 340.410156 192.710938 C 340.101562 192.5625 339.789062 192.453125 339.472656 192.375 C 339.15625 192.296875 338.84375 192.257812 338.535156 192.257812 C 337.722656 192.257812 337.101562 192.53125 336.671875 193.082031 C 336.242188 193.632812 335.996094 194.460938 335.9375 195.574219 C 336.175781 195.21875 336.476562 194.945312 336.839844 194.757812 C 337.203125 194.570312 337.601562 194.476562 338.035156 194.476562 C 338.949219 194.476562 339.675781 194.753906 340.207031 195.308594 C 340.738281 195.863281 341.003906 196.617188 341.003906 197.574219 C 341.003906 198.511719 340.726562 199.261719 340.171875 199.828125 C 339.617188 200.394531 338.882812 200.675781 337.964844 200.675781 C 336.910156 200.675781 336.101562 200.273438 335.546875 199.464844 C 334.988281 198.65625 334.710938 197.484375 334.710938 195.953125 C 334.710938 194.511719 335.050781 193.363281 335.734375 192.507812 C 336.417969 191.648438 337.335938 191.222656 338.488281 191.222656 C 338.796875 191.222656 339.109375 191.25 339.425781 191.3125 C 339.738281 191.375 340.066406 191.464844 340.410156 191.585938 Z M 340.410156 191.585938 "/>
<g clip-path="url(#clip9)" clip-rule="nonzero">
<path style="fill:none;stroke-width:0.8;stroke-linecap:square;stroke-linejoin:round;stroke:rgb(69.019608%,69.019608%,69.019608%);stroke-opacity:1;stroke-miterlimit:4;" d="M 302.153125 145.8 L 302.153125 7.2 " transform="matrix(1.25,0,0,1.25,0,0)"/>
</g>
<path style="fill:none;stroke-width:0.8;stroke-linecap:butt;stroke-linejoin:round;stroke:rgb(0%,0%,0%);stroke-opacity:1;stroke-miterlimit:4;" d="M -0.000885 0 L -0.000885 3.5 " transform="matrix(1.25,0,0,1.25,377.692513,182.25)"/>
<path style=" stroke:none;fill-rule:nonzero;fill:rgb(0%,0%,0%);fill-opacity:1;" d="M 377.6875 196.171875 C 377.101562 196.171875 376.640625 196.328125 376.304688 196.640625 C 375.972656 196.953125 375.804688 197.386719 375.804688 197.933594 C 375.804688 198.484375 375.972656 198.914062 376.304688 199.230469 C 376.640625 199.542969 377.101562 199.699219 377.6875 199.699219 C 378.273438 199.699219 378.734375 199.542969 379.074219 199.226562 C 379.410156 198.910156 379.582031 198.480469 379.582031 197.933594 C 379.582031 197.386719 379.414062 196.953125 379.078125 196.640625 C 378.742188 196.328125 378.28125 196.171875 377.6875 196.171875 Z M 376.457031 195.648438 C 375.925781 195.515625 375.515625 195.269531 375.21875 194.910156 C 374.925781 194.546875 374.777344 194.101562 374.777344 193.582031 C 374.777344 192.855469 375.039062 192.277344 375.554688 191.855469 C 376.074219 191.433594 376.785156 191.222656 377.6875 191.222656 C 378.597656 191.222656 379.308594 191.433594 379.824219 191.855469 C 380.34375 192.277344 380.601562 192.855469 380.601562 193.582031 C 380.601562 194.101562 380.453125 194.546875 380.15625 194.910156 C 379.863281 195.269531 379.453125 195.515625 378.929688 195.648438 C 379.523438 195.785156 379.984375 196.054688 380.316406 196.460938 C 380.648438 196.863281 380.8125 197.351562 380.8125 197.933594 C 380.8125 198.816406 380.542969 199.496094 380.003906 199.96875 C 379.464844 200.441406 378.695312 200.675781 377.6875 200.675781 C 376.683594 200.675781 375.914062 200.441406 375.371094 199.96875 C 374.832031 199.496094 374.5625 198.816406 374.5625 197.933594 C 374.5625 197.351562 374.730469 196.863281 375.0625 196.460938 C 375.398438 196.054688 375.863281 195.785156 376.457031 195.648438 Z M 376.003906 193.699219 C 376.003906 194.171875 376.152344 194.539062 376.445312 194.804688 C 376.742188 195.066406 377.15625 195.199219 377.6875 195.199219 C 378.21875 195.199219 378.632812 195.066406 378.929688 194.804688 C 379.230469 194.539062 379.378906 194.171875 379.378906 193.699219 C 379.378906 193.226562 379.230469 192.859375 378.929688 192.59375 C 378.632812 192.328125 378.21875 192.199219 377.6875 192.199219 C 377.15625 192.199219 376.742188 192.328125 376.445312 192.59375 C 376.152344 192.859375 376.003906 193.226562 376.003906 193.699219 Z M 376.003906 193.699219 "/>
<path style=" stroke:none;fill-rule:nonzero;fill:rgb(0%,0%,0%);fill-opacity:1;" d="M 220.335938 210.761719 L 217.867188 214.085938 L 220.464844 217.597656 L 219.140625 217.597656 L 217.148438 214.910156 L 215.164062 217.597656 L 213.835938 217.597656 L 216.492188 214.019531 L 214.0625 210.761719 L 215.386719 210.761719 L 217.199219 213.195312 L 219.011719 210.761719 Z M 220.335938 210.761719 "/>
<g clip-path="url(#clip10)" clip-rule="nonzero">
<path style="fill:none;stroke-width:0.8;stroke-linecap:square;stroke-linejoin:round;stroke:rgb(69.019608%,69.019608%,69.019608%);stroke-opacity:1;stroke-miterlimit:4;" d="M 34.240625 139.5 L 313.240625 139.5 " transform="matrix(1.25,0,0,1.25,0,0)"/>
</g>
<path style="fill:none;stroke-width:0.8;stroke-linecap:butt;stroke-linejoin:round;stroke:rgb(0%,0%,0%);stroke-opacity:1;stroke-miterlimit:4;" d="M 0 0 L -3.5 0 " transform="matrix(1.25,0,0,1.25,42.800781,174.375)"/>
<path style=" stroke:none;fill-rule:nonzero;fill:rgb(0%,0%,0%);fill-opacity:1;" d="M 30.070312 170.824219 C 29.4375 170.824219 28.960938 171.136719 28.640625 171.761719 C 28.320312 172.382812 28.160156 173.324219 28.160156 174.578125 C 28.160156 175.824219 28.320312 176.761719 28.640625 177.386719 C 28.960938 178.011719 29.4375 178.324219 30.070312 178.324219 C 30.710938 178.324219 31.1875 178.011719 31.507812 177.386719 C 31.828125 176.761719 31.988281 175.824219 31.988281 174.578125 C 31.988281 173.324219 31.828125 172.382812 31.507812 171.761719 C 31.1875 171.136719 30.710938 170.824219 30.070312 170.824219 Z M 30.070312 169.847656 C 31.09375 169.847656 31.875 170.25 32.414062 171.058594 C 32.953125 171.867188 33.21875 173.039062 33.21875 174.578125 C 33.21875 176.109375 32.953125 177.28125 32.414062 178.089844 C 31.875 178.898438 31.09375 179.300781 30.070312 179.300781 C 29.050781 179.300781 28.269531 178.898438 27.730469 178.089844 C 27.191406 177.28125 26.921875 176.109375 26.921875 174.578125 C 26.921875 173.039062 27.191406 171.867188 27.730469 171.058594 C 28.269531 170.25 29.050781 169.847656 30.070312 169.847656 Z M 30.070312 169.847656 "/>
<g clip-path="url(#clip11)" clip-rule="nonzero">
<path style="fill:none;stroke-width:0.8;stroke-linecap:square;stroke-linejoin:round;stroke:rgb(69.019608%,69.019608%,69.019608%);stroke-opacity:1;stroke-miterlimit:4;" d="M 34.240625 107.6 L 313.240625 107.6 " transform="matrix(1.25,0,0,1.25,0,0)"/>
</g>
<path style="fill:none;stroke-width:0.8;stroke-linecap:butt;stroke-linejoin:round;stroke:rgb(0%,0%,0%);stroke-opacity:1;stroke-miterlimit:4;" d="M 0 -0.001264 L -3.5 -0.001264 " transform="matrix(1.25,0,0,1.25,42.800781,134.50158)"/>
<path style=" stroke:none;fill-rule:nonzero;fill:rgb(0%,0%,0%);fill-opacity:1;" d="M 28.496094 138.214844 L 32.796875 138.214844 L 32.796875 139.25 L 27.015625 139.25 L 27.015625 138.214844 C 27.480469 137.730469 28.117188 137.078125 28.925781 136.265625 C 29.734375 135.449219 30.242188 134.921875 30.449219 134.683594 C 30.84375 134.242188 31.117188 133.867188 31.273438 133.558594 C 31.433594 133.25 31.511719 132.949219 31.511719 132.652344 C 31.511719 132.167969 31.34375 131.773438 31 131.46875 C 30.664062 131.164062 30.21875 131.011719 29.671875 131.011719 C 29.289062 131.011719 28.878906 131.078125 28.449219 131.210938 C 28.019531 131.34375 27.5625 131.550781 27.074219 131.824219 L 27.074219 130.578125 C 27.570312 130.378906 28.035156 130.226562 28.464844 130.125 C 28.898438 130.023438 29.292969 129.972656 29.648438 129.972656 C 30.59375 129.972656 31.347656 130.210938 31.90625 130.683594 C 32.46875 131.152344 32.75 131.785156 32.75 132.574219 C 32.75 132.949219 32.679688 133.304688 32.539062 133.640625 C 32.398438 133.972656 32.144531 134.367188 31.773438 134.824219 C 31.671875 134.941406 31.347656 135.285156 30.804688 135.847656 C 30.257812 136.410156 29.488281 137.199219 28.496094 138.214844 Z M 28.496094 138.214844 "/>
<g clip-path="url(#clip12)" clip-rule="nonzero">
<path style="fill:none;stroke-width:0.8;stroke-linecap:square;stroke-linejoin:round;stroke:rgb(69.019608%,69.019608%,69.019608%);stroke-opacity:1;stroke-miterlimit:4;" d="M 34.240625 75.703125 L 313.240625 75.703125 " transform="matrix(1.25,0,0,1.25,0,0)"/>
</g>
<path style="fill:none;stroke-width:0.8;stroke-linecap:butt;stroke-linejoin:round;stroke:rgb(0%,0%,0%);stroke-opacity:1;stroke-miterlimit:4;" d="M 0 0.000596 L -3.5 0.000596 " transform="matrix(1.25,0,0,1.25,42.800781,94.628161)"/>
<path style=" stroke:none;fill-rule:nonzero;fill:rgb(0%,0%,0%);fill-opacity:1;" d="M 30.820312 91.339844 L 27.710938 96.203125 L 30.820312 96.203125 Z M 30.5 90.265625 L 32.046875 90.265625 L 32.046875 96.203125 L 33.351562 96.203125 L 33.351562 97.230469 L 32.046875 97.230469 L 32.046875 99.378906 L 30.820312 99.378906 L 30.820312 97.230469 L 26.710938 97.230469 L 26.710938 96.039062 Z M 30.5 90.265625 "/>
<g clip-path="url(#clip13)" clip-rule="nonzero">
<path style="fill:none;stroke-width:0.8;stroke-linecap:square;stroke-linejoin:round;stroke:rgb(69.019608%,69.019608%,69.019608%);stroke-opacity:1;stroke-miterlimit:4;" d="M 34.240625 43.803125 L 313.240625 43.803125 " transform="matrix(1.25,0,0,1.25,0,0)"/>
</g>
<path style="fill:none;stroke-width:0.8;stroke-linecap:butt;stroke-linejoin:round;stroke:rgb(0%,0%,0%);stroke-opacity:1;stroke-miterlimit:4;" d="M 0 -0.000668 L -3.5 -0.000668 " transform="matrix(1.25,0,0,1.25,42.800781,54.754741)"/>
<path style=" stroke:none;fill-rule:nonzero;fill:rgb(0%,0%,0%);fill-opacity:1;" d="M 30.226562 54.457031 C 29.671875 54.457031 29.234375 54.644531 28.90625 55.023438 C 28.585938 55.402344 28.421875 55.921875 28.421875 56.578125 C 28.421875 57.234375 28.585938 57.753906 28.90625 58.132812 C 29.234375 58.515625 29.671875 58.703125 30.226562 58.703125 C 30.777344 58.703125 31.214844 58.515625 31.539062 58.132812 C 31.863281 57.753906 32.023438 57.234375 32.023438 56.578125 C 32.023438 55.921875 31.863281 55.402344 31.539062 55.023438 C 31.214844 54.644531 30.777344 54.457031 30.226562 54.457031 Z M 32.671875 50.589844 L 32.671875 51.714844 C 32.363281 51.570312 32.050781 51.457031 31.734375 51.378906 C 31.417969 51.300781 31.105469 51.261719 30.796875 51.261719 C 29.984375 51.261719 29.359375 51.539062 28.929688 52.085938 C 28.503906 52.636719 28.257812 53.46875 28.195312 54.578125 C 28.4375 54.222656 28.738281 53.953125 29.101562 53.761719 C 29.460938 53.574219 29.863281 53.480469 30.296875 53.480469 C 31.210938 53.480469 31.9375 53.757812 32.46875 54.3125 C 33 54.867188 33.265625 55.625 33.265625 56.578125 C 33.265625 57.515625 32.988281 58.265625 32.433594 58.832031 C 31.878906 59.398438 31.144531 59.679688 30.226562 59.679688 C 29.171875 59.679688 28.363281 59.277344 27.804688 58.46875 C 27.25 57.660156 26.96875 56.492188 26.96875 54.957031 C 26.96875 53.515625 27.3125 52.367188 27.996094 51.511719 C 28.679688 50.65625 29.597656 50.226562 30.75 50.226562 C 31.058594 50.226562 31.371094 50.257812 31.6875 50.316406 C 32 50.378906 32.328125 50.46875 32.671875 50.589844 Z M 32.671875 50.589844 "/>
<g clip-path="url(#clip14)" clip-rule="nonzero">
<path style="fill:none;stroke-width:0.8;stroke-linecap:square;stroke-linejoin:round;stroke:rgb(69.019608%,69.019608%,69.019608%);stroke-opacity:1;stroke-miterlimit:4;" d="M 34.240625 11.90625 L 313.240625 11.90625 " transform="matrix(1.25,0,0,1.25,0,0)"/>
</g>
<path style="fill:none;stroke-width:0.8;stroke-linecap:butt;stroke-linejoin:round;stroke:rgb(0%,0%,0%);stroke-opacity:1;stroke-miterlimit:4;" d="M 0 0.001193 L -3.5 0.001193 " transform="matrix(1.25,0,0,1.25,42.800781,14.881321)"/>
<path style=" stroke:none;fill-rule:nonzero;fill:rgb(0%,0%,0%);fill-opacity:1;" d="M 30.070312 15.300781 C 29.484375 15.300781 29.023438 15.460938 28.6875 15.773438 C 28.351562 16.085938 28.1875 16.519531 28.1875 17.066406 C 28.1875 17.617188 28.351562 18.046875 28.6875 18.359375 C 29.023438 18.675781 29.484375 18.832031 30.070312 18.832031 C 30.65625 18.832031 31.117188 18.675781 31.453125 18.359375 C 31.792969 18.042969 31.960938 17.613281 31.960938 17.066406 C 31.960938 16.519531 31.796875 16.085938 31.460938 15.773438 C 31.125 15.460938 30.660156 15.300781 30.070312 15.300781 Z M 28.835938 14.777344 C 28.308594 14.648438 27.898438 14.402344 27.601562 14.039062 C 27.308594 13.675781 27.160156 13.234375 27.160156 12.714844 C 27.160156 11.988281 27.417969 11.410156 27.9375 10.988281 C 28.457031 10.566406 29.167969 10.351562 30.070312 10.351562 C 30.976562 10.351562 31.691406 10.566406 32.207031 10.988281 C 32.722656 11.410156 32.984375 11.988281 32.984375 12.714844 C 32.984375 13.234375 32.835938 13.675781 32.539062 14.039062 C 32.246094 14.402344 31.835938 14.648438 31.3125 14.777344 C 31.90625 14.917969 32.367188 15.1875 32.695312 15.589844 C 33.03125 15.992188 33.195312 16.484375 33.195312 17.066406 C 33.195312 17.949219 32.925781 18.628906 32.386719 19.101562 C 31.847656 19.574219 31.074219 19.808594 30.070312 19.808594 C 29.066406 19.808594 28.292969 19.574219 27.753906 19.101562 C 27.214844 18.628906 26.945312 17.949219 26.945312 17.066406 C 26.945312 16.484375 27.113281 15.992188 27.445312 15.589844 C 27.78125 15.1875 28.242188 14.917969 28.835938 14.777344 Z M 28.386719 12.832031 C 28.386719 13.304688 28.535156 13.671875 28.828125 13.933594 C 29.125 14.199219 29.539062 14.332031 30.070312 14.332031 C 30.601562 14.332031 31.015625 14.199219 31.3125 13.933594 C 31.613281 13.671875 31.761719 13.304688 31.761719 12.832031 C 31.761719 12.359375 31.613281 11.992188 31.3125 11.726562 C 31.015625 11.460938 30.601562 11.328125 30.070312 11.328125 C 29.539062 11.328125 29.125 11.460938 28.828125 11.726562 C 28.535156 11.992188 28.386719 12.359375 28.386719 12.832031 Z M 28.386719 12.832031 "/>
<path style=" stroke:none;fill-rule:nonzero;fill:rgb(0%,0%,0%);fill-opacity:1;" d="M 12.710938 111.035156 C 12.636719 111.160156 12.585938 111.296875 12.550781 111.445312 C 12.515625 111.59375 12.5 111.757812 12.5 111.9375 C 12.5 112.570312 12.703125 113.058594 13.117188 113.398438 C 13.53125 113.738281 14.125 113.910156 14.898438 113.910156 L 18.5 113.910156 L 18.5 115.039062 L 11.664062 115.039062 L 11.664062 113.910156 L 12.726562 113.910156 C 12.308594 113.671875 12 113.363281 11.800781 112.988281 C 11.597656 112.609375 11.5 112.148438 11.5 111.605469 C 11.5 111.53125 11.503906 111.445312 11.515625 111.351562 C 11.523438 111.257812 11.539062 111.152344 11.558594 111.039062 Z M 12.710938 111.035156 "/>
<path style=" stroke:none;fill-rule:nonzero;fill:rgb(0%,0%,0%);fill-opacity:1;" d="M 14.800781 104.289062 L 15.347656 104.289062 L 15.347656 109.453125 C 16.121094 109.402344 16.710938 109.171875 17.117188 108.753906 C 17.519531 108.335938 17.722656 107.757812 17.722656 107.011719 C 17.722656 106.582031 17.671875 106.164062 17.566406 105.757812 C 17.460938 105.351562 17.300781 104.949219 17.089844 104.550781 L 18.152344 104.550781 C 18.320312 104.953125 18.453125 105.367188 18.542969 105.792969 C 18.632812 106.214844 18.675781 106.644531 18.675781 107.078125 C 18.675781 108.167969 18.359375 109.035156 17.726562 109.671875 C 17.089844 110.308594 16.230469 110.625 15.148438 110.625 C 14.027344 110.625 13.140625 110.324219 12.484375 109.71875 C 11.828125 109.113281 11.5 108.300781 11.5 107.273438 C 11.5 106.355469 11.792969 105.628906 12.386719 105.09375 C 12.976562 104.558594 13.78125 104.289062 14.800781 104.289062 Z M 14.46875 105.414062 C 13.855469 105.421875 13.367188 105.59375 13 105.929688 C 12.632812 106.265625 12.449219 106.707031 12.449219 107.261719 C 12.449219 107.886719 12.625 108.390625 12.980469 108.765625 C 13.335938 109.140625 13.832031 109.359375 14.476562 109.417969 Z M 14.46875 105.414062 "/>
<path style=" stroke:none;fill-rule:nonzero;fill:rgb(0%,0%,0%);fill-opacity:1;" d="M 9 102.445312 L 9 101.324219 L 18.5 101.324219 L 18.5 102.445312 Z M 9 102.445312 "/>
<path style=" stroke:none;fill-rule:nonzero;fill:rgb(0%,0%,0%);fill-opacity:1;" d="M 15.800781 99.089844 L 11.664062 99.089844 L 11.664062 97.964844 L 15.757812 97.964844 C 16.40625 97.964844 16.890625 97.839844 17.214844 97.589844 C 17.539062 97.335938 17.699219 96.957031 17.699219 96.453125 C 17.699219 95.847656 17.507812 95.367188 17.121094 95.015625 C 16.734375 94.664062 16.207031 94.488281 15.539062 94.488281 L 11.664062 94.488281 L 11.664062 93.363281 L 18.5 93.363281 L 18.5 94.488281 L 17.449219 94.488281 C 17.863281 94.757812 18.171875 95.074219 18.375 95.4375 C 18.574219 95.796875 18.675781 96.214844 18.675781 96.691406 C 18.675781 97.476562 18.433594 98.070312 17.945312 98.480469 C 17.457031 98.886719 16.742188 99.089844 15.800781 99.089844 Z M 11.5 96.261719 Z M 11.5 96.261719 "/>
<path style=" stroke:none;fill-rule:nonzero;fill:rgb(0%,0%,0%);fill-opacity:1;" d="M 9.015625 88.355469 C 9.949219 88.898438 10.875 89.304688 11.792969 89.570312 C 12.707031 89.832031 13.632812 89.964844 14.574219 89.964844 C 15.511719 89.964844 16.445312 89.832031 17.367188 89.566406 C 18.289062 89.296875 19.214844 88.894531 20.148438 88.355469 L 20.148438 89.332031 C 19.191406 89.941406 18.25 90.398438 17.328125 90.699219 C 16.402344 91.003906 15.484375 91.15625 14.574219 91.15625 C 13.667969 91.15625 12.753906 91.003906 11.835938 90.703125 C 10.914062 90.402344 9.972656 89.945312 9.015625 89.332031 Z M 9.015625 88.355469 "/>
<path style=" stroke:none;fill-rule:nonzero;fill:rgb(0%,0%,0%);fill-opacity:1;" d="M 11.664062 80.492188 L 14.988281 82.964844 L 18.5 80.363281 L 18.5 81.6875 L 15.8125 83.679688 L 18.5 85.667969 L 18.5 86.992188 L 14.921875 84.335938 L 11.664062 86.765625 L 11.664062 85.441406 L 14.097656 83.628906 L 11.664062 81.816406 Z M 11.664062 80.492188 "/>
<path style=" stroke:none;fill-rule:nonzero;fill:rgb(0%,0%,0%);fill-opacity:1;" d="M 9.015625 78.953125 L 9.015625 77.976562 C 9.972656 77.367188 10.914062 76.910156 11.835938 76.605469 C 12.753906 76.304688 13.667969 76.152344 14.574219 76.152344 C 15.484375 76.152344 16.402344 76.304688 17.328125 76.605469 C 18.25 76.910156 19.191406 77.367188 20.148438 77.976562 L 20.148438 78.953125 C 19.214844 78.414062 18.289062 78.007812 17.367188 77.742188 C 16.445312 77.476562 15.511719 77.339844 14.574219 77.339844 C 13.632812 77.339844 12.707031 77.476562 11.792969 77.742188 C 10.875 78.007812 9.949219 78.414062 9.015625 78.953125 Z M 9.015625 78.953125 "/>
<path style="fill:none;stroke-width:1.5;stroke-linecap:square;stroke-linejoin:round;stroke:rgb(12.156863%,46.666667%,70.588235%);stroke-opacity:1;stroke-miterlimit:4;" d="M 46.921875 139.5 L 174.5375 139.5 L 300.559375 13.5 " transform="matrix(1.25,0,0,1.25,0,0)"/>
<path style="fill:none;stroke-width:0.8;stroke-linecap:square;stroke-linejoin:miter;stroke:rgb(0%,0%,0%);stroke-opacity:1;stroke-miterlimit:4;" d="M 34.240625 145.8 L 34.240625 7.2 " transform="matrix(1.25,0,0,1.25,0,0)"/>
<path style="fill:none;stroke-width:0.8;stroke-linecap:square;stroke-linejoin:miter;stroke:rgb(0%,0%,0%);stroke-opacity:1;stroke-miterlimit:4;" d="M 313.240625 145.8 L 313.240625 7.2 " transform="matrix(1.25,0,0,1.25,0,0)"/>
<path style="fill:none;stroke-width:0.8;stroke-linecap:square;stroke-linejoin:miter;stroke:rgb(0%,0%,0%);stroke-opacity:1;stroke-miterlimit:4;" d="M 34.240625 145.8 L 313.240625 145.8 " transform="matrix(1.25,0,0,1.25,0,0)"/>
<path style="fill:none;stroke-width:0.8;stroke-linecap:square;stroke-linejoin:miter;stroke:rgb(0%,0%,0%);stroke-opacity:1;stroke-miterlimit:4;" d="M 34.240625 7.2 L 313.240625 7.2 " transform="matrix(1.25,0,0,1.25,0,0)"/>
</g>
</svg>
