<?xml version="1.0" encoding="UTF-8"?>
<svg xmlns="http://www.w3.org/2000/svg" xmlns:xlink="http://www.w3.org/1999/xlink" width="299pt" height="229pt" viewBox="0 0 299 229" version="1.1">
<defs>
<clipPath id="clip1">
  <path d="M 64 9 L 66 9 L 66 182.25 L 64 182.25 Z M 64 9 "/>
</clipPath>
<clipPath id="clip2">
  <path d="M 118 9 L 120 9 L 120 182.25 L 118 182.25 Z M 118 9 "/>
</clipPath>
<clipPath id="clip3">
  <path d="M 172 9 L 174 9 L 174 182.25 L 172 182.25 Z M 172 9 "/>
</clipPath>
<clipPath id="clip4">
  <path d="M 226 9 L 229 9 L 229 182.25 L 226 182.25 Z M 226 9 "/>
</clipPath>
<clipPath id="clip5">
  <path d="M 281 9 L 281.753906 9 L 281.753906 182.25 L 281 182.25 Z M 281 9 "/>
</clipPath>
<clipPath id="clip6">
  <path d="M 37.628906 180 L 281.753906 180 L 281.753906 182 L 37.628906 182 Z M 37.628906 180 "/>
</clipPath>
<clipPath id="clip7">
  <path d="M 37.628906 145 L 281.753906 145 L 281.753906 148 L 37.628906 148 Z M 37.628906 145 "/>
</clipPath>
<clipPath id="clip8">
  <path d="M 37.628906 111 L 281.753906 111 L 281.753906 113 L 37.628906 113 Z M 37.628906 111 "/>
</clipPath>
<clipPath id="clip9">
  <path d="M 37.628906 76 L 281.753906 76 L 281.753906 78 L 37.628906 78 Z M 37.628906 76 "/>
</clipPath>
<clipPath id="clip10">
  <path d="M 37.628906 41 L 281.753906 41 L 281.753906 44 L 37.628906 44 Z M 37.628906 41 "/>
</clipPath>
<clipPath id="clip11">
  <path d="M 37.628906 15 L 281.753906 15 L 281.753906 151 L 37.628906 151 Z M 37.628906 15 "/>
</clipPath>
<clipPath id="clip12">
  <path d="M 37.628906 123 L 281.753906 123 L 281.753906 176 L 37.628906 176 Z M 37.628906 123 "/>
</clipPath>
<filter id="alpha" filterUnits="objectBoundingBox" x="0%" y="0%" width="100%" height="100%">
  <feColorMatrix type="matrix" in="SourceGraphic" values="0 0 0 0 1 0 0 0 0 1 0 0 0 0 1 0 0 0 1 0"/>
</filter>
<mask id="mask0">
  <g filter="url(#alpha)">
<rect x="0" y="0" width="299" height="229" style="fill:rgb(0%,0%,0%);fill-opacity:0.8;stroke:none;"/>
  </g>
</mask>
<clipPath id="clip13">
  <rect x="0" y="0" width="299" height="229"/>
</clipPath>
<g id="surface5" clip-path="url(#clip13)">
<path style="fill-rule:nonzero;fill:rgb(100%,100%,100%);fill-opacity:1;stroke-width:1;stroke-linecap:butt;stroke-linejoin:miter;stroke:rgb(80%,80%,80%);stroke-opacity:1;stroke-miterlimit:4;" d="M 140.634375 59.234375 L 218.403125 59.234375 C 219.7375 59.234375 220.403125 58.56875 220.403125 57.234375 L 220.403125 14.2 C 220.403125 12.865625 219.7375 12.2 218.403125 12.2 L 140.634375 12.2 C 139.3 12.2 138.634375 12.865625 138.634375 14.2 L 138.634375 57.234375 C 138.634375 58.56875 139.3 59.234375 140.634375 59.234375 Z M 140.634375 59.234375 " transform="matrix(1.25,0,0,1.25,0.000000000000028422,0)"/>
</g>
</defs>
<g id="surface1">
<path style=" stroke:none;fill-rule:nonzero;fill:rgb(100%,100%,100%);fill-opacity:1;" d="M 0 229.195312 L 298.707031 229.195312 L 298.707031 0 L 0 0 Z M 0 229.195312 "/>
<path style=" stroke:none;fill-rule:nonzero;fill:rgb(100%,100%,100%);fill-opacity:1;" d="M 37.628906 182.25 L 281.753906 182.25 L 281.753906 9 L 37.628906 9 Z M 37.628906 182.25 "/>
<g clip-path="url(#clip1)" clip-rule="nonzero">
<path style="fill:none;stroke-width:0.8;stroke-linecap:square;stroke-linejoin:round;stroke:rgb(69.019608%,69.019608%,69.019608%);stroke-opacity:1;stroke-miterlimit:4;" d="M 51.803125 145.8 L 51.803125 7.2 " transform="matrix(1.25,0,0,1.25,0.000000000000028422,0)"/>
</g>
<path style="fill:none;stroke-width:0.8;stroke-linecap:butt;stroke-linejoin:round;stroke:rgb(0%,0%,0%);stroke-opacity:1;stroke-miterlimit:4;" d="M -0.000000000000014211 0 L -0.000000000000014211 3.5 " transform="matrix(1.25,0,0,1.25,64.753906,182.25)"/>
<path style=" stroke:none;fill-rule:nonzero;fill:rgb(0%,0%,0%);fill-opacity:1;" d="M 63.175781 199.460938 L 67.480469 199.460938 L 67.480469 200.5 L 61.695312 200.5 L 61.695312 199.460938 C 62.160156 198.976562 62.796875 198.328125 63.605469 197.511719 C 64.414062 196.695312 64.921875 196.167969 65.128906 195.933594 C 65.523438 195.488281 65.800781 195.113281 65.957031 194.808594 C 66.113281 194.5 66.191406 194.199219 66.191406 193.902344 C 66.191406 193.417969 66.023438 193.023438 65.683594 192.71875 C 65.34375 192.410156 64.898438 192.257812 64.355469 192.257812 C 63.96875 192.257812 63.558594 192.324219 63.128906 192.460938 C 62.699219 192.59375 62.242188 192.796875 61.753906 193.070312 L 61.753906 191.824219 C 62.25 191.625 62.714844 191.476562 63.144531 191.375 C 63.578125 191.273438 63.972656 191.222656 64.332031 191.222656 C 65.273438 191.222656 66.027344 191.457031 66.589844 191.929688 C 67.148438 192.402344 67.429688 193.03125 67.429688 193.820312 C 67.429688 194.195312 67.359375 194.550781 67.21875 194.886719 C 67.078125 195.222656 66.824219 195.617188 66.453125 196.074219 C 66.351562 196.191406 66.027344 196.53125 65.484375 197.097656 C 64.9375 197.660156 64.167969 198.449219 63.175781 199.460938 Z M 63.175781 199.460938 "/>
<g clip-path="url(#clip2)" clip-rule="nonzero">
<path style="fill:none;stroke-width:0.8;stroke-linecap:square;stroke-linejoin:round;stroke:rgb(69.019608%,69.019608%,69.019608%);stroke-opacity:1;stroke-miterlimit:4;" d="M 95.203125 145.8 L 95.203125 7.2 " transform="matrix(1.25,0,0,1.25,0.000000000000028422,0)"/>
</g>
<path style="fill:none;stroke-width:0.8;stroke-linecap:butt;stroke-linejoin:round;stroke:rgb(0%,0%,0%);stroke-opacity:1;stroke-miterlimit:4;" d="M -0.000000000000014211 0 L -0.000000000000014211 3.5 " transform="matrix(1.25,0,0,1.25,119.003906,182.25)"/>
<path style=" stroke:none;fill-rule:nonzero;fill:rgb(0%,0%,0%);fill-opacity:1;" d="M 119.75 192.460938 L 116.640625 197.324219 L 119.75 197.324219 Z M 119.429688 191.386719 L 120.976562 191.386719 L 120.976562 197.324219 L 122.28125 197.324219 L 122.28125 198.351562 L 120.976562 198.351562 L 120.976562 200.5 L 119.75 200.5 L 119.75 198.351562 L 115.640625 198.351562 L 115.640625 197.160156 Z M 119.429688 191.386719 "/>
<g clip-path="url(#clip3)" clip-rule="nonzero">
<path style="fill:none;stroke-width:0.8;stroke-linecap:square;stroke-linejoin:round;stroke:rgb(69.019608%,69.019608%,69.019608%);stroke-opacity:1;stroke-miterlimit:4;" d="M 138.603125 145.8 L 138.603125 7.2 " transform="matrix(1.25,0,0,1.25,0.000000000000028422,0)"/>
</g>
<path style="fill:none;stroke-width:0.8;stroke-linecap:butt;stroke-linejoin:round;stroke:rgb(0%,0%,0%);stroke-opacity:1;stroke-miterlimit:4;" d="M 0 0 L 0 3.5 " transform="matrix(1.25,0,0,1.25,173.253906,182.25)"/>
<path style=" stroke:none;fill-rule:nonzero;fill:rgb(0%,0%,0%);fill-opacity:1;" d="M 173.40625 195.453125 C 172.851562 195.453125 172.414062 195.640625 172.085938 196.019531 C 171.765625 196.398438 171.601562 196.914062 171.601562 197.574219 C 171.601562 198.230469 171.765625 198.746094 172.085938 199.128906 C 172.414062 199.507812 172.851562 199.699219 173.40625 199.699219 C 173.957031 199.699219 174.394531 199.507812 174.71875 199.128906 C 175.042969 198.746094 175.203125 198.230469 175.203125 197.574219 C 175.203125 196.914062 175.042969 196.398438 174.71875 196.019531 C 174.394531 195.640625 173.957031 195.453125 173.40625 195.453125 Z M 175.851562 191.585938 L 175.851562 192.710938 C 175.542969 192.5625 175.230469 192.453125 174.914062 192.375 C 174.597656 192.296875 174.285156 192.257812 173.976562 192.257812 C 173.164062 192.257812 172.539062 192.53125 172.109375 193.082031 C 171.683594 193.632812 171.4375 194.460938 171.375 195.574219 C 171.617188 195.21875 171.917969 194.945312 172.28125 194.757812 C 172.640625 194.570312 173.042969 194.476562 173.476562 194.476562 C 174.390625 194.476562 175.117188 194.753906 175.648438 195.308594 C 176.179688 195.863281 176.445312 196.617188 176.445312 197.574219 C 176.445312 198.511719 176.167969 199.261719 175.613281 199.828125 C 175.058594 200.394531 174.324219 200.675781 173.40625 200.675781 C 172.351562 200.675781 171.542969 200.273438 170.984375 199.464844 C 170.429688 198.65625 170.148438 197.484375 170.148438 195.953125 C 170.148438 194.511719 170.492188 193.363281 171.175781 192.507812 C 171.859375 191.648438 172.777344 191.222656 173.929688 191.222656 C 174.238281 191.222656 174.550781 191.25 174.867188 191.3125 C 175.179688 191.375 175.507812 191.464844 175.851562 191.585938 Z M 175.851562 191.585938 "/>
<g clip-path="url(#clip4)" clip-rule="nonzero">
<path style="fill:none;stroke-width:0.8;stroke-linecap:square;stroke-linejoin:round;stroke:rgb(69.019608%,69.019608%,69.019608%);stroke-opacity:1;stroke-miterlimit:4;" d="M 182.003125 145.8 L 182.003125 7.2 " transform="matrix(1.25,0,0,1.25,0.000000000000028422,0)"/>
</g>
<path style="fill:none;stroke-width:0.8;stroke-linecap:butt;stroke-linejoin:round;stroke:rgb(0%,0%,0%);stroke-opacity:1;stroke-miterlimit:4;" d="M 0 0 L 0 3.5 " transform="matrix(1.25,0,0,1.25,227.503906,182.25)"/>
<path style=" stroke:none;fill-rule:nonzero;fill:rgb(0%,0%,0%);fill-opacity:1;" d="M 227.5 196.171875 C 226.914062 196.171875 226.453125 196.328125 226.117188 196.640625 C 225.78125 196.953125 225.617188 197.386719 225.617188 197.933594 C 225.617188 198.484375 225.78125 198.914062 226.117188 199.230469 C 226.453125 199.542969 226.914062 199.699219 227.5 199.699219 C 228.085938 199.699219 228.546875 199.542969 228.882812 199.226562 C 229.222656 198.910156 229.390625 198.480469 229.390625 197.933594 C 229.390625 197.386719 229.226562 196.953125 228.890625 196.640625 C 228.554688 196.328125 228.089844 196.171875 227.5 196.171875 Z M 226.265625 195.648438 C 225.738281 195.515625 225.328125 195.269531 225.03125 194.910156 C 224.738281 194.546875 224.589844 194.101562 224.589844 193.582031 C 224.589844 192.855469 224.847656 192.277344 225.367188 191.855469 C 225.886719 191.433594 226.597656 191.222656 227.5 191.222656 C 228.40625 191.222656 229.121094 191.433594 229.636719 191.855469 C 230.152344 192.277344 230.414062 192.855469 230.414062 193.582031 C 230.414062 194.101562 230.265625 194.546875 229.96875 194.910156 C 229.675781 195.269531 229.265625 195.515625 228.742188 195.648438 C 229.335938 195.785156 229.796875 196.054688 230.125 196.460938 C 230.460938 196.863281 230.625 197.351562 230.625 197.933594 C 230.625 198.816406 230.355469 199.496094 229.816406 199.96875 C 229.277344 200.441406 228.503906 200.675781 227.5 200.675781 C 226.496094 200.675781 225.722656 200.441406 225.183594 199.96875 C 224.644531 199.496094 224.375 198.816406 224.375 197.933594 C 224.375 197.351562 224.542969 196.863281 224.875 196.460938 C 225.210938 196.054688 225.671875 195.785156 226.265625 195.648438 Z M 225.816406 193.699219 C 225.816406 194.171875 225.964844 194.539062 226.257812 194.804688 C 226.554688 195.066406 226.96875 195.199219 227.5 195.199219 C 228.03125 195.199219 228.445312 195.066406 228.742188 194.804688 C 229.042969 194.539062 229.191406 194.171875 229.191406 193.699219 C 229.191406 193.226562 229.042969 192.859375 228.742188 192.59375 C 228.445312 192.328125 228.03125 192.199219 227.5 192.199219 C 226.96875 192.199219 226.554688 192.328125 226.257812 192.59375 C 225.964844 192.859375 225.816406 193.226562 225.816406 193.699219 Z M 225.816406 193.699219 "/>
<g clip-path="url(#clip5)" clip-rule="nonzero">
<path style="fill:none;stroke-width:0.8;stroke-linecap:square;stroke-linejoin:round;stroke:rgb(69.019608%,69.019608%,69.019608%);stroke-opacity:1;stroke-miterlimit:4;" d="M 225.403125 145.8 L 225.403125 7.2 " transform="matrix(1.25,0,0,1.25,0.000000000000028422,0)"/>
</g>
<path style="fill:none;stroke-width:0.8;stroke-linecap:butt;stroke-linejoin:round;stroke:rgb(0%,0%,0%);stroke-opacity:1;stroke-miterlimit:4;" d="M 0 0 L 0 3.5 " transform="matrix(1.25,0,0,1.25,281.753906,182.25)"/>
<path style=" stroke:none;fill-rule:nonzero;fill:rgb(0%,0%,0%);fill-opacity:1;" d="M 275.351562 199.460938 L 277.367188 199.460938 L 277.367188 192.507812 L 275.171875 192.949219 L 275.171875 191.824219 L 277.351562 191.386719 L 278.585938 191.386719 L 278.585938 199.460938 L 280.601562 199.460938 L 280.601562 200.5 L 275.351562 200.5 Z M 275.351562 199.460938 "/>
<path style=" stroke:none;fill-rule:nonzero;fill:rgb(0%,0%,0%);fill-opacity:1;" d="M 285.726562 192.199219 C 285.09375 192.199219 284.613281 192.511719 284.292969 193.136719 C 283.976562 193.757812 283.816406 194.699219 283.816406 195.953125 C 283.816406 197.199219 283.976562 198.136719 284.292969 198.761719 C 284.613281 199.386719 285.09375 199.699219 285.726562 199.699219 C 286.367188 199.699219 286.84375 199.386719 287.164062 198.761719 C 287.484375 198.136719 287.644531 197.199219 287.644531 195.953125 C 287.644531 194.699219 287.484375 193.757812 287.164062 193.136719 C 286.84375 192.511719 286.367188 192.199219 285.726562 192.199219 Z M 285.726562 191.222656 C 286.75 191.222656 287.527344 191.625 288.066406 192.433594 C 288.605469 193.242188 288.875 194.414062 288.875 195.953125 C 288.875 197.484375 288.605469 198.65625 288.066406 199.464844 C 287.527344 200.273438 286.75 200.675781 285.726562 200.675781 C 284.707031 200.675781 283.925781 200.273438 283.386719 199.464844 C 282.847656 198.65625 282.578125 197.484375 282.578125 195.953125 C 282.578125 194.414062 282.847656 193.242188 283.386719 192.433594 C 283.925781 191.625 284.707031 191.222656 285.726562 191.222656 Z M 285.726562 191.222656 "/>
<path style=" stroke:none;fill-rule:nonzero;fill:rgb(0%,0%,0%);fill-opacity:1;" d="M 147.679688 213.898438 L 147.679688 214.445312 L 142.515625 214.445312 C 142.566406 215.21875 142.800781 215.808594 143.21875 216.214844 C 143.632812 216.617188 144.214844 216.820312 144.960938 216.820312 C 145.390625 216.820312 145.808594 216.769531 146.210938 216.664062 C 146.617188 216.558594 147.019531 216.398438 147.421875 216.1875 L 147.421875 217.25 C 147.015625 217.417969 146.601562 217.550781 146.179688 217.640625 C 145.757812 217.730469 145.328125 217.773438 144.890625 217.773438 C 143.800781 217.773438 142.9375 217.457031 142.300781 216.824219 C 141.664062 216.1875 141.34375 215.328125 141.34375 214.246094 C 141.34375 213.125 141.648438 212.238281 142.25 211.582031 C 142.855469 210.925781 143.671875 210.597656 144.695312 210.597656 C 145.617188 210.597656 146.34375 210.890625 146.878906 211.484375 C 147.414062 212.074219 147.679688 212.878906 147.679688 213.898438 Z M 146.558594 213.566406 C 146.550781 212.953125 146.378906 212.464844 146.042969 212.097656 C 145.707031 211.730469 145.261719 211.546875 144.710938 211.546875 C 144.082031 211.546875 143.582031 211.722656 143.203125 212.078125 C 142.828125 212.433594 142.613281 212.929688 142.554688 213.574219 Z M 146.558594 213.566406 "/>
<path style=" stroke:none;fill-rule:nonzero;fill:rgb(0%,0%,0%);fill-opacity:1;" d="M 150.609375 216.570312 L 150.609375 220.195312 L 149.480469 220.195312 L 149.480469 210.761719 L 150.609375 210.761719 L 150.609375 211.796875 C 150.847656 211.390625 151.144531 211.089844 151.503906 210.894531 C 151.867188 210.695312 152.296875 210.597656 152.796875 210.597656 C 153.625 210.597656 154.300781 210.925781 154.820312 211.585938 C 155.339844 212.242188 155.597656 213.109375 155.597656 214.183594 C 155.597656 215.257812 155.339844 216.125 154.820312 216.785156 C 154.300781 217.445312 153.625 217.773438 152.796875 217.773438 C 152.296875 217.773438 151.867188 217.675781 151.503906 217.476562 C 151.144531 217.277344 150.847656 216.976562 150.609375 216.570312 Z M 154.433594 214.183594 C 154.433594 213.359375 154.261719 212.710938 153.921875 212.242188 C 153.582031 211.769531 153.117188 211.535156 152.523438 211.535156 C 151.925781 211.535156 151.460938 211.769531 151.121094 212.242188 C 150.78125 212.710938 150.609375 213.359375 150.609375 214.183594 C 150.609375 215.007812 150.78125 215.65625 151.121094 216.128906 C 151.460938 216.597656 151.925781 216.832031 152.523438 216.832031 C 153.117188 216.832031 153.582031 216.597656 153.921875 216.128906 C 154.261719 215.65625 154.433594 215.007812 154.433594 214.183594 Z M 154.433594 214.183594 "/>
<path style=" stroke:none;fill-rule:nonzero;fill:rgb(0%,0%,0%);fill-opacity:1;" d="M 160.109375 211.546875 C 159.507812 211.546875 159.03125 211.78125 158.679688 212.253906 C 158.328125 212.722656 158.15625 213.367188 158.15625 214.183594 C 158.15625 215 158.328125 215.644531 158.675781 216.117188 C 159.023438 216.585938 159.5 216.820312 160.109375 216.820312 C 160.707031 216.820312 161.179688 216.585938 161.53125 216.113281 C 161.878906 215.640625 162.054688 214.996094 162.054688 214.183594 C 162.054688 213.375 161.878906 212.730469 161.53125 212.257812 C 161.179688 211.785156 160.707031 211.546875 160.109375 211.546875 Z M 160.109375 210.597656 C 161.085938 210.597656 161.851562 210.914062 162.40625 211.550781 C 162.96875 212.183594 163.246094 213.0625 163.246094 214.183594 C 163.246094 215.300781 162.96875 216.179688 162.40625 216.820312 C 161.851562 217.457031 161.085938 217.773438 160.109375 217.773438 C 159.125 217.773438 158.359375 217.457031 157.804688 216.820312 C 157.25 216.179688 156.96875 215.300781 156.96875 214.183594 C 156.96875 213.0625 157.25 212.183594 157.804688 211.550781 C 158.359375 210.914062 159.125 210.597656 160.109375 210.597656 Z M 160.109375 210.597656 "/>
<path style=" stroke:none;fill-rule:nonzero;fill:rgb(0%,0%,0%);fill-opacity:1;" d="M 170.027344 211.023438 L 170.027344 212.074219 C 169.707031 211.898438 169.390625 211.765625 169.070312 211.679688 C 168.753906 211.589844 168.429688 211.546875 168.105469 211.546875 C 167.375 211.546875 166.808594 211.777344 166.40625 212.242188 C 166.003906 212.703125 165.800781 213.347656 165.800781 214.183594 C 165.800781 215.019531 166.003906 215.667969 166.40625 216.128906 C 166.808594 216.589844 167.375 216.820312 168.105469 216.820312 C 168.429688 216.820312 168.753906 216.777344 169.070312 216.691406 C 169.390625 216.601562 169.707031 216.472656 170.027344 216.296875 L 170.027344 217.335938 C 169.710938 217.480469 169.386719 217.589844 169.050781 217.664062 C 168.71875 217.738281 168.359375 217.773438 167.980469 217.773438 C 166.953125 217.773438 166.132812 217.449219 165.527344 216.804688 C 164.921875 216.15625 164.617188 215.28125 164.617188 214.183594 C 164.617188 213.070312 164.925781 212.191406 165.535156 211.554688 C 166.148438 210.914062 166.988281 210.597656 168.054688 210.597656 C 168.402344 210.597656 168.738281 210.632812 169.066406 210.703125 C 169.398438 210.773438 169.714844 210.878906 170.027344 211.023438 Z M 170.027344 211.023438 "/>
<path style=" stroke:none;fill-rule:nonzero;fill:rgb(0%,0%,0%);fill-opacity:1;" d="M 177.664062 213.46875 L 177.664062 217.597656 L 176.539062 217.597656 L 176.539062 213.507812 C 176.539062 212.859375 176.414062 212.375 176.160156 212.054688 C 175.910156 211.734375 175.53125 211.574219 175.027344 211.574219 C 174.417969 211.574219 173.941406 211.765625 173.589844 212.152344 C 173.242188 212.539062 173.066406 213.066406 173.066406 213.734375 L 173.066406 217.597656 L 171.9375 217.597656 L 171.9375 208.097656 L 173.066406 208.097656 L 173.066406 211.824219 C 173.335938 211.410156 173.652344 211.105469 174.015625 210.902344 C 174.378906 210.699219 174.800781 210.597656 175.277344 210.597656 C 176.0625 210.597656 176.65625 210.839844 177.058594 211.324219 C 177.460938 211.808594 177.664062 212.523438 177.664062 213.46875 Z M 177.664062 213.46875 "/>
<g clip-path="url(#clip6)" clip-rule="nonzero">
<path style="fill:none;stroke-width:0.8;stroke-linecap:square;stroke-linejoin:round;stroke:rgb(69.019608%,69.019608%,69.019608%);stroke-opacity:1;stroke-miterlimit:4;" d="M 30.103125 144.921875 L 225.403125 144.921875 " transform="matrix(1.25,0,0,1.25,0.000000000000028422,0)"/>
</g>
<path style="fill:none;stroke-width:0.8;stroke-linecap:butt;stroke-linejoin:round;stroke:rgb(0%,0%,0%);stroke-opacity:1;stroke-miterlimit:4;" d="M -0.000000000000017764 0.001369 L -3.5 0.001369 " transform="matrix(1.25,0,0,1.25,37.628906,181.150632)"/>
<path style=" stroke:none;fill-rule:nonzero;fill:rgb(0%,0%,0%);fill-opacity:1;" d="M 12.972656 177.597656 C 12.339844 177.597656 11.863281 177.910156 11.542969 178.535156 C 11.222656 179.160156 11.0625 180.097656 11.0625 181.351562 C 11.0625 182.601562 11.222656 183.539062 11.542969 184.164062 C 11.863281 184.789062 12.339844 185.101562 12.972656 185.101562 C 13.613281 185.101562 14.089844 184.789062 14.410156 184.164062 C 14.730469 183.539062 14.890625 182.601562 14.890625 181.351562 C 14.890625 180.097656 14.730469 179.160156 14.410156 178.535156 C 14.089844 177.910156 13.613281 177.597656 12.972656 177.597656 Z M 12.972656 176.621094 C 13.996094 176.621094 14.777344 177.027344 15.316406 177.835938 C 15.855469 178.640625 16.125 179.816406 16.125 181.351562 C 16.125 182.886719 15.855469 184.058594 15.316406 184.867188 C 14.777344 185.671875 13.996094 186.078125 12.972656 186.078125 C 11.953125 186.078125 11.171875 185.671875 10.632812 184.867188 C 10.09375 184.058594 9.824219 182.886719 9.824219 181.351562 C 9.824219 179.816406 10.09375 178.640625 10.632812 177.835938 C 11.171875 177.027344 11.953125 176.621094 12.972656 176.621094 Z M 12.972656 176.621094 "/>
<path style=" stroke:none;fill-rule:nonzero;fill:rgb(0%,0%,0%);fill-opacity:1;" d="M 18.289062 184.347656 L 19.578125 184.347656 L 19.578125 185.898438 L 18.289062 185.898438 Z M 18.289062 184.347656 "/>
<path style=" stroke:none;fill-rule:nonzero;fill:rgb(0%,0%,0%);fill-opacity:1;" d="M 24.898438 177.597656 C 24.265625 177.597656 23.789062 177.910156 23.46875 178.535156 C 23.148438 179.160156 22.988281 180.097656 22.988281 181.351562 C 22.988281 182.601562 23.148438 183.539062 23.46875 184.164062 C 23.789062 184.789062 24.265625 185.101562 24.898438 185.101562 C 25.539062 185.101562 26.015625 184.789062 26.335938 184.164062 C 26.65625 183.539062 26.816406 182.601562 26.816406 181.351562 C 26.816406 180.097656 26.65625 179.160156 26.335938 178.535156 C 26.015625 177.910156 25.539062 177.597656 24.898438 177.597656 Z M 24.898438 176.621094 C 25.921875 176.621094 26.703125 177.027344 27.242188 177.835938 C 27.78125 178.640625 28.050781 179.816406 28.050781 181.351562 C 28.050781 182.886719 27.78125 184.058594 27.242188 184.867188 C 26.703125 185.671875 25.921875 186.078125 24.898438 186.078125 C 23.878906 186.078125 23.097656 185.671875 22.558594 184.867188 C 22.019531 184.058594 21.75 182.886719 21.75 181.351562 C 21.75 179.816406 22.019531 178.640625 22.558594 177.835938 C 23.097656 177.027344 23.878906 176.621094 24.898438 176.621094 Z M 24.898438 176.621094 "/>
<g clip-path="url(#clip7)" clip-rule="nonzero">
<path style="fill:none;stroke-width:0.8;stroke-linecap:square;stroke-linejoin:round;stroke:rgb(69.019608%,69.019608%,69.019608%);stroke-opacity:1;stroke-miterlimit:4;" d="M 30.103125 117.215625 L 225.403125 117.215625 " transform="matrix(1.25,0,0,1.25,0.000000000000028422,0)"/>
</g>
<path style="fill:none;stroke-width:0.8;stroke-linecap:butt;stroke-linejoin:round;stroke:rgb(0%,0%,0%);stroke-opacity:1;stroke-miterlimit:4;" d="M -0.000000000000017764 0.000952 L -3.5 0.000952 " transform="matrix(1.25,0,0,1.25,37.628906,146.518341)"/>
<path style=" stroke:none;fill-rule:nonzero;fill:rgb(0%,0%,0%);fill-opacity:1;" d="M 12.972656 142.964844 C 12.339844 142.964844 11.863281 143.277344 11.542969 143.902344 C 11.222656 144.527344 11.0625 145.464844 11.0625 146.71875 C 11.0625 147.96875 11.222656 148.90625 11.542969 149.53125 C 11.863281 150.15625 12.339844 150.46875 12.972656 150.46875 C 13.613281 150.46875 14.089844 150.15625 14.410156 149.53125 C 14.730469 148.90625 14.890625 147.96875 14.890625 146.71875 C 14.890625 145.464844 14.730469 144.527344 14.410156 143.902344 C 14.089844 143.277344 13.613281 142.964844 12.972656 142.964844 Z M 12.972656 141.988281 C 13.996094 141.988281 14.777344 142.394531 15.316406 143.203125 C 15.855469 144.011719 16.125 145.183594 16.125 146.71875 C 16.125 148.253906 15.855469 149.425781 15.316406 150.234375 C 14.777344 151.042969 13.996094 151.445312 12.972656 151.445312 C 11.953125 151.445312 11.171875 151.042969 10.632812 150.234375 C 10.09375 149.425781 9.824219 148.253906 9.824219 146.71875 C 9.824219 145.183594 10.09375 144.011719 10.632812 143.203125 C 11.171875 142.394531 11.953125 141.988281 12.972656 141.988281 Z M 12.972656 141.988281 "/>
<path style=" stroke:none;fill-rule:nonzero;fill:rgb(0%,0%,0%);fill-opacity:1;" d="M 18.289062 149.714844 L 19.578125 149.714844 L 19.578125 151.265625 L 18.289062 151.265625 Z M 18.289062 149.714844 "/>
<path style=" stroke:none;fill-rule:nonzero;fill:rgb(0%,0%,0%);fill-opacity:1;" d="M 22.277344 142.152344 L 27.117188 142.152344 L 27.117188 143.191406 L 23.40625 143.191406 L 23.40625 145.425781 C 23.582031 145.363281 23.761719 145.320312 23.941406 145.289062 C 24.121094 145.257812 24.300781 145.242188 24.480469 145.242188 C 25.496094 145.242188 26.300781 145.523438 26.894531 146.078125 C 27.488281 146.636719 27.789062 147.390625 27.789062 148.34375 C 27.789062 149.324219 27.480469 150.085938 26.871094 150.628906 C 26.261719 151.171875 25.398438 151.445312 24.289062 151.445312 C 23.90625 151.445312 23.515625 151.414062 23.121094 151.347656 C 22.722656 151.28125 22.3125 151.183594 21.890625 151.054688 L 21.890625 149.8125 C 22.257812 150.011719 22.636719 150.160156 23.027344 150.257812 C 23.417969 150.355469 23.828125 150.40625 24.265625 150.40625 C 24.96875 150.40625 25.527344 150.222656 25.9375 149.851562 C 26.347656 149.480469 26.554688 148.980469 26.554688 148.34375 C 26.554688 147.710938 26.347656 147.207031 25.9375 146.835938 C 25.527344 146.464844 24.96875 146.28125 24.265625 146.28125 C 23.933594 146.28125 23.605469 146.316406 23.277344 146.390625 C 22.949219 146.464844 22.617188 146.578125 22.277344 146.730469 Z M 22.277344 142.152344 "/>
<g clip-path="url(#clip8)" clip-rule="nonzero">
<path style="fill:none;stroke-width:0.8;stroke-linecap:square;stroke-linejoin:round;stroke:rgb(69.019608%,69.019608%,69.019608%);stroke-opacity:1;stroke-miterlimit:4;" d="M 30.103125 89.509375 L 225.403125 89.509375 " transform="matrix(1.25,0,0,1.25,0.000000000000028422,0)"/>
</g>
<path style="fill:none;stroke-width:0.8;stroke-linecap:butt;stroke-linejoin:round;stroke:rgb(0%,0%,0%);stroke-opacity:1;stroke-miterlimit:4;" d="M -0.000000000000017764 0.000536 L -3.5 0.000536 " transform="matrix(1.25,0,0,1.25,37.628906,111.886049)"/>
<path style=" stroke:none;fill-rule:nonzero;fill:rgb(0%,0%,0%);fill-opacity:1;" d="M 10.550781 115.597656 L 12.566406 115.597656 L 12.566406 108.644531 L 10.375 109.085938 L 10.375 107.960938 L 12.554688 107.523438 L 13.785156 107.523438 L 13.785156 115.597656 L 15.800781 115.597656 L 15.800781 116.636719 L 10.550781 116.636719 Z M 10.550781 115.597656 "/>
<path style=" stroke:none;fill-rule:nonzero;fill:rgb(0%,0%,0%);fill-opacity:1;" d="M 18.289062 115.085938 L 19.578125 115.085938 L 19.578125 116.636719 L 18.289062 116.636719 Z M 18.289062 115.085938 "/>
<path style=" stroke:none;fill-rule:nonzero;fill:rgb(0%,0%,0%);fill-opacity:1;" d="M 24.898438 108.335938 C 24.265625 108.335938 23.789062 108.648438 23.46875 109.273438 C 23.148438 109.894531 22.988281 110.835938 22.988281 112.089844 C 22.988281 113.335938 23.148438 114.273438 23.46875 114.898438 C 23.789062 115.523438 24.265625 115.835938 24.898438 115.835938 C 25.539062 115.835938 26.015625 115.523438 26.335938 114.898438 C 26.65625 114.273438 26.816406 113.335938 26.816406 112.089844 C 26.816406 110.835938 26.65625 109.894531 26.335938 109.273438 C 26.015625 108.648438 25.539062 108.335938 24.898438 108.335938 Z M 24.898438 107.359375 C 25.921875 107.359375 26.703125 107.761719 27.242188 108.570312 C 27.78125 109.378906 28.050781 110.550781 28.050781 112.089844 C 28.050781 113.621094 27.78125 114.792969 27.242188 115.601562 C 26.703125 116.410156 25.921875 116.8125 24.898438 116.8125 C 23.878906 116.8125 23.097656 116.410156 22.558594 115.601562 C 22.019531 114.792969 21.75 113.621094 21.75 112.089844 C 21.75 110.550781 22.019531 109.378906 22.558594 108.570312 C 23.097656 107.761719 23.878906 107.359375 24.898438 107.359375 Z M 24.898438 107.359375 "/>
<g clip-path="url(#clip9)" clip-rule="nonzero">
<path style="fill:none;stroke-width:0.8;stroke-linecap:square;stroke-linejoin:round;stroke:rgb(69.019608%,69.019608%,69.019608%);stroke-opacity:1;stroke-miterlimit:4;" d="M 30.103125 61.803125 L 225.403125 61.803125 " transform="matrix(1.25,0,0,1.25,0.000000000000028422,0)"/>
</g>
<path style="fill:none;stroke-width:0.8;stroke-linecap:butt;stroke-linejoin:round;stroke:rgb(0%,0%,0%);stroke-opacity:1;stroke-miterlimit:4;" d="M -0.000000000000017764 0.000119 L -3.5 0.000119 " transform="matrix(1.25,0,0,1.25,37.628906,77.253758)"/>
<path style=" stroke:none;fill-rule:nonzero;fill:rgb(0%,0%,0%);fill-opacity:1;" d="M 10.550781 80.964844 L 12.566406 80.964844 L 12.566406 74.011719 L 10.375 74.453125 L 10.375 73.328125 L 12.554688 72.890625 L 13.785156 72.890625 L 13.785156 80.964844 L 15.800781 80.964844 L 15.800781 82.003906 L 10.550781 82.003906 Z M 10.550781 80.964844 "/>
<path style=" stroke:none;fill-rule:nonzero;fill:rgb(0%,0%,0%);fill-opacity:1;" d="M 18.289062 80.453125 L 19.578125 80.453125 L 19.578125 82.003906 L 18.289062 82.003906 Z M 18.289062 80.453125 "/>
<path style=" stroke:none;fill-rule:nonzero;fill:rgb(0%,0%,0%);fill-opacity:1;" d="M 22.277344 72.890625 L 27.117188 72.890625 L 27.117188 73.929688 L 23.40625 73.929688 L 23.40625 76.160156 C 23.582031 76.101562 23.761719 76.054688 23.941406 76.023438 C 24.121094 75.996094 24.300781 75.980469 24.480469 75.980469 C 25.496094 75.980469 26.300781 76.257812 26.894531 76.816406 C 27.488281 77.371094 27.789062 78.128906 27.789062 79.078125 C 27.789062 80.058594 27.480469 80.820312 26.871094 81.367188 C 26.261719 81.910156 25.398438 82.179688 24.289062 82.179688 C 23.90625 82.179688 23.515625 82.148438 23.121094 82.082031 C 22.722656 82.019531 22.3125 81.921875 21.890625 81.789062 L 21.890625 80.550781 C 22.257812 80.75 22.636719 80.898438 23.027344 80.996094 C 23.417969 81.09375 23.828125 81.140625 24.265625 81.140625 C 24.96875 81.140625 25.527344 80.957031 25.9375 80.585938 C 26.347656 80.21875 26.554688 79.714844 26.554688 79.078125 C 26.554688 78.445312 26.347656 77.941406 25.9375 77.574219 C 25.527344 77.203125 24.96875 77.015625 24.265625 77.015625 C 23.933594 77.015625 23.605469 77.054688 23.277344 77.125 C 22.949219 77.199219 22.617188 77.3125 22.277344 77.46875 Z M 22.277344 72.890625 "/>
<g clip-path="url(#clip10)" clip-rule="nonzero">
<path style="fill:none;stroke-width:0.8;stroke-linecap:square;stroke-linejoin:round;stroke:rgb(69.019608%,69.019608%,69.019608%);stroke-opacity:1;stroke-miterlimit:4;" d="M 30.103125 34.096875 L 225.403125 34.096875 " transform="matrix(1.25,0,0,1.25,0.000000000000028422,0)"/>
</g>
<path style="fill:none;stroke-width:0.8;stroke-linecap:butt;stroke-linejoin:round;stroke:rgb(0%,0%,0%);stroke-opacity:1;stroke-miterlimit:4;" d="M -0.000000000000017764 -0.000297 L -3.5 -0.000297 " transform="matrix(1.25,0,0,1.25,37.628906,42.621465)"/>
<path style=" stroke:none;fill-rule:nonzero;fill:rgb(0%,0%,0%);fill-opacity:1;" d="M 11.398438 46.332031 L 15.703125 46.332031 L 15.703125 47.371094 L 9.917969 47.371094 L 9.917969 46.332031 C 10.382812 45.847656 11.019531 45.199219 11.828125 44.382812 C 12.636719 43.566406 13.144531 43.042969 13.351562 42.804688 C 13.746094 42.363281 14.023438 41.988281 14.179688 41.679688 C 14.335938 41.371094 14.414062 41.070312 14.414062 40.773438 C 14.414062 40.289062 14.246094 39.894531 13.90625 39.589844 C 13.566406 39.285156 13.121094 39.128906 12.578125 39.128906 C 12.191406 39.128906 11.78125 39.199219 11.351562 39.332031 C 10.921875 39.464844 10.464844 39.667969 9.976562 39.941406 L 9.976562 38.695312 C 10.472656 38.496094 10.9375 38.347656 11.367188 38.246094 C 11.800781 38.144531 12.195312 38.09375 12.554688 38.09375 C 13.496094 38.09375 14.25 38.328125 14.8125 38.800781 C 15.371094 39.273438 15.652344 39.902344 15.652344 40.691406 C 15.652344 41.066406 15.582031 41.421875 15.441406 41.757812 C 15.300781 42.09375 15.046875 42.488281 14.675781 42.945312 C 14.574219 43.0625 14.25 43.40625 13.707031 43.96875 C 13.160156 44.53125 12.390625 45.320312 11.398438 46.332031 Z M 11.398438 46.332031 "/>
<path style=" stroke:none;fill-rule:nonzero;fill:rgb(0%,0%,0%);fill-opacity:1;" d="M 18.289062 45.820312 L 19.578125 45.820312 L 19.578125 47.371094 L 18.289062 47.371094 Z M 18.289062 45.820312 "/>
<path style=" stroke:none;fill-rule:nonzero;fill:rgb(0%,0%,0%);fill-opacity:1;" d="M 24.898438 39.070312 C 24.265625 39.070312 23.789062 39.382812 23.46875 40.007812 C 23.148438 40.632812 22.988281 41.570312 22.988281 42.824219 C 22.988281 44.074219 23.148438 45.007812 23.46875 45.632812 C 23.789062 46.257812 24.265625 46.570312 24.898438 46.570312 C 25.539062 46.570312 26.015625 46.257812 26.335938 45.632812 C 26.65625 45.007812 26.816406 44.074219 26.816406 42.824219 C 26.816406 41.570312 26.65625 40.632812 26.335938 40.007812 C 26.015625 39.382812 25.539062 39.070312 24.898438 39.070312 Z M 24.898438 38.09375 C 25.921875 38.09375 26.703125 38.496094 27.242188 39.304688 C 27.78125 40.113281 28.050781 41.285156 28.050781 42.824219 C 28.050781 44.359375 27.78125 45.527344 27.242188 46.335938 C 26.703125 47.144531 25.921875 47.546875 24.898438 47.546875 C 23.878906 47.546875 23.097656 47.144531 22.558594 46.335938 C 22.019531 45.527344 21.75 44.359375 21.75 42.824219 C 21.75 41.285156 22.019531 40.113281 22.558594 39.304688 C 23.097656 38.496094 23.878906 38.09375 24.898438 38.09375 Z M 24.898438 38.09375 "/>
<g clip-path="url(#clip11)" clip-rule="nonzero">
<path style="fill:none;stroke-width:1.5;stroke-linecap:square;stroke-linejoin:round;stroke:rgb(12.156863%,46.666667%,70.588235%);stroke-opacity:1;stroke-miterlimit:4;" d="M 12.74375 13.5 L 17.084375 15.10625 L 21.421875 15.728125 L 25.7625 16.090625 L 30.103125 16.39375 L 34.44375 22.675 L 38.784375 40.9375 L 43.121875 52.971875 L 47.4625 61.115625 L 51.803125 67.121875 L 56.14375 91.225 L 60.484375 92.753125 L 64.821875 93.921875 L 69.1625 95.178125 L 73.503125 96.05 L 77.84375 101.5 L 82.184375 102.53125 L 86.521875 103.246875 L 90.8625 103.6625 L 95.203125 104.296875 L 99.54375 107.596875 L 103.884375 108.16875 L 108.221875 108.334375 L 112.5625 108.665625 L 116.903125 109 L 121.24375 110.978125 L 125.584375 111.421875 L 129.921875 111.559375 L 134.2625 111.9 L 138.603125 112.134375 L 142.94375 113.11875 L 147.284375 113.7375 L 151.621875 113.809375 L 155.9625 114.146875 L 160.303125 114.559375 L 164.64375 115.9625 L 168.984375 115.84375 L 173.321875 116.184375 L 177.6625 116.309375 L 182.003125 116.4 L 186.34375 116.859375 L 190.684375 117.29375 L 195.021875 117.51875 L 199.3625 117.59375 L 203.703125 117.90625 L 208.04375 118.2375 L 212.384375 118.840625 L 216.721875 118.746875 L 221.0625 118.821875 L 225.403125 119.034375 " transform="matrix(1.25,0,0,1.25,0.000000000000028422,0)"/>
</g>
<g clip-path="url(#clip12)" clip-rule="nonzero">
<path style="fill:none;stroke-width:1.5;stroke-linecap:butt;stroke-linejoin:round;stroke:rgb(74.901961%,0%,74.901961%);stroke-opacity:1;stroke-dasharray:5.55,2.4;stroke-miterlimit:4;" d="M 12.74375 139.425 L 17.084375 139.5 L 21.421875 139.43125 L 25.7625 139.309375 L 30.103125 139.215625 L 34.44375 135.2875 L 38.784375 129.64375 L 43.121875 125.41875 L 47.4625 122.509375 L 51.803125 120.275 L 56.14375 111.13125 L 60.484375 110.196875 L 64.821875 109.703125 L 69.1625 109.203125 L 73.503125 108.825 L 77.84375 106.6625 L 82.184375 106.175 L 86.521875 105.815625 L 90.8625 105.665625 L 95.203125 105.45625 L 99.54375 104.1125 L 103.884375 103.853125 L 108.221875 103.75625 L 112.5625 103.575 L 116.903125 103.46875 L 121.24375 102.715625 L 125.584375 102.4 L 129.921875 102.39375 L 134.2625 102.24375 L 138.603125 102.153125 L 142.94375 101.69375 L 147.284375 101.48125 L 151.621875 101.515625 L 155.9625 101.3625 L 160.303125 101.18125 L 164.64375 100.5625 L 168.984375 100.725 L 173.321875 100.546875 L 177.6625 100.453125 L 182.003125 100.4125 L 186.34375 100.24375 L 190.684375 100.0625 L 195.021875 99.921875 L 199.3625 99.878125 L 203.703125 99.759375 L 208.04375 99.5625 L 212.384375 99.375 L 216.721875 99.35625 L 221.0625 99.275 L 225.403125 99.2 " transform="matrix(1.25,0,0,1.25,0.000000000000028422,0)"/>
<path style="fill:none;stroke-width:1.5;stroke-linecap:butt;stroke-linejoin:round;stroke:rgb(0%,50.196078%,0%);stroke-opacity:1;stroke-dasharray:9.6,2.4,1.5,2.4;stroke-miterlimit:4;" d="M 30.103125 139.378125 L 51.803125 112.221875 L 73.503125 112.128125 L 95.203125 106.4375 L 116.903125 104.7375 L 138.603125 102.83125 L 160.303125 101.9875 L 182.003125 100.6125 L 203.703125 101.178125 L 225.403125 99.434375 " transform="matrix(1.25,0,0,1.25,0.000000000000028422,0)"/>
</g>
<path style="fill:none;stroke-width:0.8;stroke-linecap:square;stroke-linejoin:miter;stroke:rgb(0%,0%,0%);stroke-opacity:1;stroke-miterlimit:4;" d="M 30.103125 145.8 L 30.103125 7.2 " transform="matrix(1.25,0,0,1.25,0.000000000000028422,0)"/>
<path style="fill:none;stroke-width:0.8;stroke-linecap:square;stroke-linejoin:miter;stroke:rgb(0%,0%,0%);stroke-opacity:1;stroke-miterlimit:4;" d="M 225.403125 145.8 L 225.403125 7.2 " transform="matrix(1.25,0,0,1.25,0.000000000000028422,0)"/>
<path style="fill:none;stroke-width:0.8;stroke-linecap:square;stroke-linejoin:miter;stroke:rgb(0%,0%,0%);stroke-opacity:1;stroke-miterlimit:4;" d="M 30.103125 145.8 L 225.403125 145.8 " transform="matrix(1.25,0,0,1.25,0.000000000000028422,0)"/>
<path style="fill:none;stroke-width:0.8;stroke-linecap:square;stroke-linejoin:miter;stroke:rgb(0%,0%,0%);stroke-opacity:1;stroke-miterlimit:4;" d="M 30.103125 7.2 L 225.403125 7.2 " transform="matrix(1.25,0,0,1.25,0.000000000000028422,0)"/>
<use xlink:href="#surface5" mask="url(#mask0)"/>
<path style="fill:none;stroke-width:1.5;stroke-linecap:square;stroke-linejoin:round;stroke:rgb(12.156863%,46.666667%,70.588235%);stroke-opacity:1;stroke-miterlimit:4;" d="M 142.634375 20.3 L 162.634375 20.3 " transform="matrix(1.25,0,0,1.25,0.000000000000028422,0)"/>
<path style=" stroke:none;fill-rule:nonzero;fill:rgb(0%,0%,0%);fill-opacity:1;" d="M 215.582031 20.972656 L 215.582031 22.914062 L 217.894531 22.914062 L 217.894531 23.785156 L 215.582031 23.785156 L 215.582031 27.496094 C 215.582031 28.054688 215.65625 28.410156 215.8125 28.570312 C 215.960938 28.730469 216.273438 28.808594 216.742188 28.808594 L 217.894531 28.808594 L 217.894531 29.75 L 216.742188 29.75 C 215.875 29.75 215.277344 29.585938 214.945312 29.265625 C 214.617188 28.941406 214.453125 28.351562 214.453125 27.496094 L 214.453125 23.785156 L 213.628906 23.785156 L 213.628906 22.914062 L 214.453125 22.914062 L 214.453125 20.972656 Z M 215.582031 20.972656 "/>
<path style=" stroke:none;fill-rule:nonzero;fill:rgb(0%,0%,0%);fill-opacity:1;" d="M 223.332031 23.960938 C 223.207031 23.886719 223.070312 23.835938 222.921875 23.800781 C 222.773438 23.765625 222.609375 23.75 222.429688 23.75 C 221.796875 23.75 221.308594 23.953125 220.96875 24.367188 C 220.628906 24.78125 220.457031 25.375 220.457031 26.148438 L 220.457031 29.75 L 219.328125 29.75 L 219.328125 22.914062 L 220.457031 22.914062 L 220.457031 23.976562 C 220.695312 23.558594 221.003906 23.25 221.378906 23.050781 C 221.757812 22.847656 222.21875 22.75 222.761719 22.75 C 222.835938 22.75 222.921875 22.753906 223.015625 22.765625 C 223.109375 22.773438 223.214844 22.789062 223.328125 22.808594 Z M 223.332031 23.960938 "/>
<path style=" stroke:none;fill-rule:nonzero;fill:rgb(0%,0%,0%);fill-opacity:1;" d="M 227.617188 26.3125 C 226.710938 26.3125 226.082031 26.417969 225.730469 26.625 C 225.382812 26.832031 225.207031 27.183594 225.207031 27.6875 C 225.207031 28.085938 225.335938 28.402344 225.601562 28.636719 C 225.863281 28.867188 226.21875 28.984375 226.671875 28.984375 C 227.292969 28.984375 227.792969 28.765625 228.171875 28.324219 C 228.546875 27.882812 228.734375 27.292969 228.734375 26.5625 L 228.734375 26.3125 Z M 229.859375 25.847656 L 229.859375 29.75 L 228.734375 29.75 L 228.734375 28.710938 C 228.480469 29.125 228.160156 29.429688 227.777344 29.628906 C 227.394531 29.828125 226.925781 29.925781 226.371094 29.925781 C 225.671875 29.925781 225.117188 29.730469 224.703125 29.335938 C 224.289062 28.941406 224.082031 28.417969 224.082031 27.757812 C 224.082031 26.988281 224.339844 26.410156 224.855469 26.019531 C 225.371094 25.628906 226.136719 25.433594 227.160156 25.433594 L 228.734375 25.433594 L 228.734375 25.324219 C 228.734375 24.804688 228.566406 24.40625 228.226562 24.125 C 227.886719 23.839844 227.410156 23.699219 226.792969 23.699219 C 226.402344 23.699219 226.023438 23.746094 225.652344 23.839844 C 225.28125 23.933594 224.925781 24.074219 224.585938 24.261719 L 224.585938 23.222656 C 224.996094 23.0625 225.394531 22.945312 225.78125 22.867188 C 226.167969 22.789062 226.542969 22.75 226.910156 22.75 C 227.898438 22.75 228.636719 23.003906 229.125 23.519531 C 229.613281 24.03125 229.859375 24.804688 229.859375 25.847656 Z M 229.859375 25.847656 "/>
<path style=" stroke:none;fill-rule:nonzero;fill:rgb(0%,0%,0%);fill-opacity:1;" d="M 232.171875 22.914062 L 233.292969 22.914062 L 233.292969 29.75 L 232.171875 29.75 Z M 232.171875 20.25 L 233.292969 20.25 L 233.292969 21.675781 L 232.171875 21.675781 Z M 232.171875 20.25 "/>
<path style=" stroke:none;fill-rule:nonzero;fill:rgb(0%,0%,0%);fill-opacity:1;" d="M 241.328125 25.621094 L 241.328125 29.75 L 240.203125 29.75 L 240.203125 25.660156 C 240.203125 25.011719 240.078125 24.527344 239.824219 24.207031 C 239.574219 23.886719 239.195312 23.726562 238.691406 23.726562 C 238.082031 23.726562 237.605469 23.917969 237.253906 24.304688 C 236.90625 24.691406 236.730469 25.21875 236.730469 25.886719 L 236.730469 29.75 L 235.601562 29.75 L 235.601562 22.914062 L 236.730469 22.914062 L 236.730469 23.976562 C 237 23.5625 237.316406 23.257812 237.679688 23.054688 C 238.042969 22.851562 238.464844 22.75 238.941406 22.75 C 239.726562 22.75 240.320312 22.992188 240.722656 23.476562 C 241.125 23.960938 241.328125 24.675781 241.328125 25.621094 Z M 241.328125 25.621094 "/>
<path style=" stroke:none;fill-rule:nonzero;fill:rgb(0%,0%,0%);fill-opacity:1;" d="M 247.539062 20.25 L 248.664062 20.25 L 248.664062 29.75 L 247.539062 29.75 Z M 247.539062 20.25 "/>
<path style=" stroke:none;fill-rule:nonzero;fill:rgb(0%,0%,0%);fill-opacity:1;" d="M 253.660156 23.699219 C 253.058594 23.699219 252.582031 23.933594 252.234375 24.40625 C 251.882812 24.875 251.707031 25.519531 251.707031 26.335938 C 251.707031 27.152344 251.882812 27.796875 252.230469 28.269531 C 252.578125 28.738281 253.054688 28.972656 253.660156 28.972656 C 254.261719 28.972656 254.734375 28.738281 255.082031 28.265625 C 255.433594 27.792969 255.609375 27.148438 255.609375 26.335938 C 255.609375 25.527344 255.433594 24.882812 255.082031 24.410156 C 254.734375 23.9375 254.261719 23.699219 253.660156 23.699219 Z M 253.660156 22.75 C 254.636719 22.75 255.40625 23.066406 255.960938 23.703125 C 256.519531 24.335938 256.800781 25.214844 256.800781 26.335938 C 256.800781 27.453125 256.519531 28.332031 255.960938 28.972656 C 255.40625 29.609375 254.636719 29.925781 253.660156 29.925781 C 252.679688 29.925781 251.914062 29.609375 251.355469 28.972656 C 250.800781 28.332031 250.523438 27.453125 250.523438 26.335938 C 250.523438 25.214844 250.800781 24.335938 251.355469 23.703125 C 251.914062 23.066406 252.679688 22.75 253.660156 22.75 Z M 253.660156 22.75 "/>
<path style=" stroke:none;fill-rule:nonzero;fill:rgb(0%,0%,0%);fill-opacity:1;" d="M 263.015625 23.113281 L 263.015625 24.175781 C 262.703125 24.011719 262.371094 23.890625 262.03125 23.8125 C 261.6875 23.730469 261.335938 23.6875 260.96875 23.6875 C 260.410156 23.6875 259.992188 23.773438 259.710938 23.945312 C 259.433594 24.113281 259.296875 24.371094 259.296875 24.714844 C 259.296875 24.972656 259.394531 25.179688 259.59375 25.328125 C 259.792969 25.476562 260.195312 25.617188 260.796875 25.75 L 261.179688 25.835938 C 261.976562 26.007812 262.546875 26.246094 262.882812 26.558594 C 263.21875 26.871094 263.382812 27.304688 263.382812 27.863281 C 263.382812 28.496094 263.132812 29 262.632812 29.371094 C 262.128906 29.742188 261.4375 29.925781 260.558594 29.925781 C 260.191406 29.925781 259.8125 29.890625 259.414062 29.820312 C 259.015625 29.746094 258.597656 29.640625 258.160156 29.5 L 258.160156 28.339844 C 258.574219 28.554688 258.984375 28.714844 259.386719 28.824219 C 259.789062 28.929688 260.1875 28.984375 260.585938 28.984375 C 261.113281 28.984375 261.519531 28.894531 261.804688 28.714844 C 262.085938 28.53125 262.230469 28.277344 262.230469 27.949219 C 262.230469 27.644531 262.128906 27.410156 261.921875 27.246094 C 261.71875 27.082031 261.265625 26.925781 260.570312 26.777344 L 260.179688 26.683594 C 259.484375 26.539062 258.980469 26.3125 258.671875 26.011719 C 258.363281 25.707031 258.210938 25.289062 258.210938 24.761719 C 258.210938 24.117188 258.4375 23.621094 258.890625 23.273438 C 259.347656 22.921875 259.996094 22.75 260.835938 22.75 C 261.25 22.75 261.636719 22.777344 262.003906 22.839844 C 262.371094 22.898438 262.710938 22.992188 263.015625 23.113281 Z M 263.015625 23.113281 "/>
<path style=" stroke:none;fill-rule:nonzero;fill:rgb(0%,0%,0%);fill-opacity:1;" d="M 269.53125 23.113281 L 269.53125 24.175781 C 269.214844 24.011719 268.882812 23.890625 268.542969 23.8125 C 268.199219 23.730469 267.847656 23.6875 267.480469 23.6875 C 266.921875 23.6875 266.503906 23.773438 266.226562 23.945312 C 265.945312 24.113281 265.808594 24.371094 265.808594 24.714844 C 265.808594 24.972656 265.90625 25.179688 266.105469 25.328125 C 266.304688 25.476562 266.707031 25.617188 267.308594 25.75 L 267.695312 25.835938 C 268.492188 26.007812 269.058594 26.246094 269.394531 26.558594 C 269.730469 26.871094 269.898438 27.304688 269.898438 27.863281 C 269.898438 28.496094 269.644531 29 269.144531 29.371094 C 268.640625 29.742188 267.949219 29.925781 267.070312 29.925781 C 266.707031 29.925781 266.324219 29.890625 265.925781 29.820312 C 265.53125 29.746094 265.113281 29.640625 264.671875 29.5 L 264.671875 28.339844 C 265.089844 28.554688 265.496094 28.714844 265.898438 28.824219 C 266.300781 28.929688 266.699219 28.984375 267.097656 28.984375 C 267.625 28.984375 268.03125 28.894531 268.316406 28.714844 C 268.601562 28.53125 268.742188 28.277344 268.742188 27.949219 C 268.742188 27.644531 268.640625 27.410156 268.433594 27.246094 C 268.230469 27.082031 267.78125 26.925781 267.082031 26.777344 L 266.691406 26.683594 C 265.996094 26.539062 265.496094 26.3125 265.183594 26.011719 C 264.875 25.707031 264.722656 25.289062 264.722656 24.761719 C 264.722656 24.117188 264.949219 23.621094 265.40625 23.273438 C 265.859375 22.921875 266.507812 22.75 267.347656 22.75 C 267.761719 22.75 268.152344 22.777344 268.515625 22.839844 C 268.882812 22.898438 269.222656 22.992188 269.53125 23.113281 Z M 269.53125 23.113281 "/>
<path style="fill:none;stroke-width:1.5;stroke-linecap:butt;stroke-linejoin:round;stroke:rgb(74.901961%,0%,74.901961%);stroke-opacity:1;stroke-dasharray:5.55,2.4;stroke-miterlimit:4;" d="M 142.634375 34.978125 L 162.634375 34.978125 " transform="matrix(1.25,0,0,1.25,0.000000000000028422,0)"/>
<path style=" stroke:none;fill-rule:nonzero;fill:rgb(0%,0%,0%);fill-opacity:1;" d="M 215.582031 39.320312 L 215.582031 41.261719 L 217.894531 41.261719 L 217.894531 42.132812 L 215.582031 42.132812 L 215.582031 45.84375 C 215.582031 46.402344 215.65625 46.757812 215.8125 46.917969 C 215.960938 47.078125 216.273438 47.15625 216.742188 47.15625 L 217.894531 47.15625 L 217.894531 48.097656 L 216.742188 48.097656 C 215.875 48.097656 215.277344 47.933594 214.945312 47.613281 C 214.617188 47.289062 214.453125 46.699219 214.453125 45.84375 L 214.453125 42.132812 L 213.628906 42.132812 L 213.628906 41.261719 L 214.453125 41.261719 L 214.453125 39.320312 Z M 215.582031 39.320312 "/>
<path style=" stroke:none;fill-rule:nonzero;fill:rgb(0%,0%,0%);fill-opacity:1;" d="M 223.332031 42.308594 C 223.207031 42.234375 223.070312 42.183594 222.921875 42.148438 C 222.773438 42.113281 222.609375 42.097656 222.429688 42.097656 C 221.796875 42.097656 221.308594 42.300781 220.96875 42.714844 C 220.628906 43.128906 220.457031 43.722656 220.457031 44.496094 L 220.457031 48.097656 L 219.328125 48.097656 L 219.328125 41.261719 L 220.457031 41.261719 L 220.457031 42.324219 C 220.695312 41.90625 221.003906 41.597656 221.378906 41.398438 C 221.757812 41.195312 222.21875 41.097656 222.761719 41.097656 C 222.835938 41.097656 222.921875 41.101562 223.015625 41.113281 C 223.109375 41.121094 223.214844 41.136719 223.328125 41.15625 Z M 223.332031 42.308594 "/>
<path style=" stroke:none;fill-rule:nonzero;fill:rgb(0%,0%,0%);fill-opacity:1;" d="M 227.617188 44.660156 C 226.710938 44.660156 226.082031 44.765625 225.730469 44.972656 C 225.382812 45.179688 225.207031 45.53125 225.207031 46.035156 C 225.207031 46.433594 225.335938 46.75 225.601562 46.984375 C 225.863281 47.214844 226.21875 47.332031 226.671875 47.332031 C 227.292969 47.332031 227.792969 47.113281 228.171875 46.671875 C 228.546875 46.230469 228.734375 45.640625 228.734375 44.910156 L 228.734375 44.660156 Z M 229.859375 44.195312 L 229.859375 48.097656 L 228.734375 48.097656 L 228.734375 47.058594 C 228.480469 47.472656 228.160156 47.777344 227.777344 47.976562 C 227.394531 48.175781 226.925781 48.273438 226.371094 48.273438 C 225.671875 48.273438 225.117188 48.078125 224.703125 47.683594 C 224.289062 47.289062 224.082031 46.765625 224.082031 46.105469 C 224.082031 45.335938 224.339844 44.757812 224.855469 44.367188 C 225.371094 43.976562 226.136719 43.78125 227.160156 43.78125 L 228.734375 43.78125 L 228.734375 43.671875 C 228.734375 43.152344 228.566406 42.753906 228.226562 42.472656 C 227.886719 42.1875 227.410156 42.046875 226.792969 42.046875 C 226.402344 42.046875 226.023438 42.09375 225.652344 42.1875 C 225.28125 42.28125 224.925781 42.421875 224.585938 42.609375 L 224.585938 41.570312 C 224.996094 41.410156 225.394531 41.292969 225.78125 41.214844 C 226.167969 41.136719 226.542969 41.097656 226.910156 41.097656 C 227.898438 41.097656 228.636719 41.351562 229.125 41.867188 C 229.613281 42.378906 229.859375 43.152344 229.859375 44.195312 Z M 229.859375 44.195312 "/>
<path style=" stroke:none;fill-rule:nonzero;fill:rgb(0%,0%,0%);fill-opacity:1;" d="M 232.171875 41.261719 L 233.292969 41.261719 L 233.292969 48.097656 L 232.171875 48.097656 Z M 232.171875 38.597656 L 233.292969 38.597656 L 233.292969 40.023438 L 232.171875 40.023438 Z M 232.171875 38.597656 "/>
<path style=" stroke:none;fill-rule:nonzero;fill:rgb(0%,0%,0%);fill-opacity:1;" d="M 241.328125 43.96875 L 241.328125 48.097656 L 240.203125 48.097656 L 240.203125 44.007812 C 240.203125 43.359375 240.078125 42.875 239.824219 42.554688 C 239.574219 42.234375 239.195312 42.074219 238.691406 42.074219 C 238.082031 42.074219 237.605469 42.265625 237.253906 42.652344 C 236.90625 43.039062 236.730469 43.566406 236.730469 44.234375 L 236.730469 48.097656 L 235.601562 48.097656 L 235.601562 41.261719 L 236.730469 41.261719 L 236.730469 42.324219 C 237 41.910156 237.316406 41.605469 237.679688 41.402344 C 238.042969 41.199219 238.464844 41.097656 238.941406 41.097656 C 239.726562 41.097656 240.320312 41.339844 240.722656 41.824219 C 241.125 42.308594 241.328125 43.023438 241.328125 43.96875 Z M 241.328125 43.96875 "/>
<path style=" stroke:none;fill-rule:nonzero;fill:rgb(0%,0%,0%);fill-opacity:1;" d="M 250.648438 44.660156 C 249.738281 44.660156 249.109375 44.765625 248.761719 44.972656 C 248.410156 45.179688 248.234375 45.53125 248.234375 46.035156 C 248.234375 46.433594 248.367188 46.75 248.628906 46.984375 C 248.890625 47.214844 249.25 47.332031 249.699219 47.332031 C 250.324219 47.332031 250.824219 47.113281 251.199219 46.671875 C 251.574219 46.230469 251.765625 45.640625 251.765625 44.910156 L 251.765625 44.660156 Z M 252.886719 44.195312 L 252.886719 48.097656 L 251.765625 48.097656 L 251.765625 47.058594 C 251.507812 47.472656 251.1875 47.777344 250.804688 47.976562 C 250.421875 48.175781 249.953125 48.273438 249.402344 48.273438 C 248.703125 48.273438 248.144531 48.078125 247.730469 47.683594 C 247.316406 47.289062 247.113281 46.765625 247.113281 46.105469 C 247.113281 45.335938 247.367188 44.757812 247.882812 44.367188 C 248.398438 43.976562 249.167969 43.78125 250.1875 43.78125 L 251.765625 43.78125 L 251.765625 43.671875 C 251.765625 43.152344 251.59375 42.753906 251.253906 42.472656 C 250.914062 42.1875 250.4375 42.046875 249.824219 42.046875 C 249.433594 42.046875 249.050781 42.09375 248.679688 42.1875 C 248.308594 42.28125 247.953125 42.421875 247.613281 42.609375 L 247.613281 41.570312 C 248.023438 41.410156 248.421875 41.292969 248.808594 41.214844 C 249.195312 41.136719 249.570312 41.097656 249.9375 41.097656 C 250.925781 41.097656 251.667969 41.351562 252.15625 41.867188 C 252.644531 42.378906 252.886719 43.152344 252.886719 44.195312 Z M 252.886719 44.195312 "/>
<path style=" stroke:none;fill-rule:nonzero;fill:rgb(0%,0%,0%);fill-opacity:1;" d="M 260.121094 41.523438 L 260.121094 42.574219 C 259.800781 42.398438 259.484375 42.265625 259.164062 42.179688 C 258.84375 42.089844 258.523438 42.046875 258.199219 42.046875 C 257.46875 42.046875 256.902344 42.277344 256.5 42.742188 C 256.097656 43.203125 255.894531 43.847656 255.894531 44.683594 C 255.894531 45.519531 256.097656 46.167969 256.5 46.628906 C 256.902344 47.089844 257.46875 47.320312 258.199219 47.320312 C 258.523438 47.320312 258.84375 47.277344 259.164062 47.191406 C 259.484375 47.101562 259.800781 46.972656 260.121094 46.796875 L 260.121094 47.835938 C 259.804688 47.980469 259.480469 48.089844 259.144531 48.164062 C 258.808594 48.238281 258.453125 48.273438 258.074219 48.273438 C 257.042969 48.273438 256.226562 47.949219 255.621094 47.304688 C 255.015625 46.65625 254.710938 45.78125 254.710938 44.683594 C 254.710938 43.570312 255.015625 42.691406 255.628906 42.054688 C 256.242188 41.414062 257.082031 41.097656 258.148438 41.097656 C 258.492188 41.097656 258.832031 41.132812 259.160156 41.203125 C 259.488281 41.273438 259.808594 41.378906 260.121094 41.523438 Z M 260.121094 41.523438 "/>
<path style=" stroke:none;fill-rule:nonzero;fill:rgb(0%,0%,0%);fill-opacity:1;" d="M 266.992188 41.523438 L 266.992188 42.574219 C 266.675781 42.398438 266.355469 42.265625 266.035156 42.179688 C 265.71875 42.089844 265.394531 42.046875 265.070312 42.046875 C 264.339844 42.046875 263.773438 42.277344 263.371094 42.742188 C 262.96875 43.203125 262.765625 43.847656 262.765625 44.683594 C 262.765625 45.519531 262.96875 46.167969 263.371094 46.628906 C 263.773438 47.089844 264.339844 47.320312 265.070312 47.320312 C 265.394531 47.320312 265.71875 47.277344 266.035156 47.191406 C 266.355469 47.101562 266.675781 46.972656 266.992188 46.796875 L 266.992188 47.835938 C 266.679688 47.980469 266.351562 48.089844 266.015625 48.164062 C 265.683594 48.238281 265.324219 48.273438 264.945312 48.273438 C 263.917969 48.273438 263.097656 47.949219 262.492188 47.304688 C 261.886719 46.65625 261.582031 45.78125 261.582031 44.683594 C 261.582031 43.570312 261.890625 42.691406 262.5 42.054688 C 263.113281 41.414062 263.953125 41.097656 265.019531 41.097656 C 265.367188 41.097656 265.703125 41.132812 266.03125 41.203125 C 266.363281 41.273438 266.683594 41.378906 266.992188 41.523438 Z M 266.992188 41.523438 "/>
<path style="fill:none;stroke-width:1.5;stroke-linecap:butt;stroke-linejoin:round;stroke:rgb(0%,50.196078%,0%);stroke-opacity:1;stroke-dasharray:9.6,2.4,1.5,2.4;stroke-miterlimit:4;" d="M 142.634375 49.65625 L 162.634375 49.65625 " transform="matrix(1.25,0,0,1.25,0.000000000000028422,0)"/>
<path style=" stroke:none;fill-rule:nonzero;fill:rgb(0%,0%,0%);fill-opacity:1;" d="M 215.582031 57.667969 L 215.582031 59.609375 L 217.894531 59.609375 L 217.894531 60.480469 L 215.582031 60.480469 L 215.582031 64.191406 C 215.582031 64.75 215.65625 65.105469 215.8125 65.265625 C 215.960938 65.425781 216.273438 65.503906 216.742188 65.503906 L 217.894531 65.503906 L 217.894531 66.445312 L 216.742188 66.445312 C 215.875 66.445312 215.277344 66.28125 214.945312 65.960938 C 214.617188 65.636719 214.453125 65.046875 214.453125 64.191406 L 214.453125 60.480469 L 213.628906 60.480469 L 213.628906 59.609375 L 214.453125 59.609375 L 214.453125 57.667969 Z M 215.582031 57.667969 "/>
<path style=" stroke:none;fill-rule:nonzero;fill:rgb(0%,0%,0%);fill-opacity:1;" d="M 225.21875 62.746094 L 225.21875 63.292969 L 220.054688 63.292969 C 220.105469 64.066406 220.339844 64.65625 220.753906 65.0625 C 221.171875 65.464844 221.753906 65.667969 222.496094 65.667969 C 222.929688 65.667969 223.347656 65.617188 223.75 65.511719 C 224.15625 65.40625 224.558594 65.246094 224.957031 65.035156 L 224.957031 66.097656 C 224.554688 66.265625 224.140625 66.398438 223.71875 66.488281 C 223.292969 66.578125 222.867188 66.621094 222.429688 66.621094 C 221.339844 66.621094 220.476562 66.304688 219.839844 65.671875 C 219.203125 65.035156 218.882812 64.175781 218.882812 63.09375 C 218.882812 61.972656 219.1875 61.085938 219.789062 60.429688 C 220.394531 59.773438 221.210938 59.445312 222.234375 59.445312 C 223.15625 59.445312 223.882812 59.738281 224.417969 60.332031 C 224.953125 60.921875 225.21875 61.726562 225.21875 62.746094 Z M 224.097656 62.414062 C 224.089844 61.800781 223.917969 61.3125 223.582031 60.945312 C 223.246094 60.578125 222.800781 60.394531 222.246094 60.394531 C 221.621094 60.394531 221.121094 60.570312 220.742188 60.925781 C 220.367188 61.28125 220.148438 61.777344 220.09375 62.421875 Z M 224.097656 62.414062 "/>
<path style=" stroke:none;fill-rule:nonzero;fill:rgb(0%,0%,0%);fill-opacity:1;" d="M 231.417969 59.808594 L 231.417969 60.871094 C 231.101562 60.707031 230.773438 60.585938 230.429688 60.507812 C 230.089844 60.425781 229.734375 60.382812 229.367188 60.382812 C 228.8125 60.382812 228.394531 60.46875 228.113281 60.640625 C 227.835938 60.808594 227.695312 61.066406 227.695312 61.410156 C 227.695312 61.667969 227.796875 61.875 227.996094 62.023438 C 228.195312 62.171875 228.597656 62.3125 229.199219 62.445312 L 229.582031 62.53125 C 230.378906 62.703125 230.945312 62.941406 231.28125 63.253906 C 231.617188 63.566406 231.785156 64 231.785156 64.558594 C 231.785156 65.191406 231.535156 65.695312 231.03125 66.066406 C 230.53125 66.4375 229.839844 66.621094 228.960938 66.621094 C 228.59375 66.621094 228.214844 66.585938 227.816406 66.515625 C 227.417969 66.441406 227 66.335938 226.5625 66.195312 L 226.5625 65.035156 C 226.976562 65.25 227.386719 65.410156 227.789062 65.519531 C 228.191406 65.625 228.589844 65.679688 228.984375 65.679688 C 229.515625 65.679688 229.921875 65.589844 230.203125 65.410156 C 230.488281 65.226562 230.632812 64.972656 230.632812 64.644531 C 230.632812 64.339844 230.53125 64.105469 230.324219 63.941406 C 230.121094 63.777344 229.667969 63.621094 228.972656 63.472656 L 228.582031 63.378906 C 227.886719 63.234375 227.382812 63.007812 227.074219 62.707031 C 226.765625 62.402344 226.609375 61.984375 226.609375 61.457031 C 226.609375 60.8125 226.839844 60.316406 227.292969 59.96875 C 227.75 59.617188 228.398438 59.445312 229.234375 59.445312 C 229.648438 59.445312 230.039062 59.472656 230.40625 59.535156 C 230.773438 59.59375 231.109375 59.6875 231.417969 59.808594 Z M 231.417969 59.808594 "/>
<path style=" stroke:none;fill-rule:nonzero;fill:rgb(0%,0%,0%);fill-opacity:1;" d="M 234.6875 57.667969 L 234.6875 59.609375 L 237 59.609375 L 237 60.480469 L 234.6875 60.480469 L 234.6875 64.191406 C 234.6875 64.75 234.761719 65.105469 234.914062 65.265625 C 235.066406 65.425781 235.378906 65.503906 235.847656 65.503906 L 237 65.503906 L 237 66.445312 L 235.847656 66.445312 C 234.980469 66.445312 234.378906 66.28125 234.050781 65.960938 C 233.722656 65.636719 233.558594 65.046875 233.558594 64.191406 L 233.558594 60.480469 L 232.734375 60.480469 L 232.734375 59.609375 L 233.558594 59.609375 L 233.558594 57.667969 Z M 234.6875 57.667969 "/>
<path style=" stroke:none;fill-rule:nonzero;fill:rgb(0%,0%,0%);fill-opacity:1;" d="M 245.554688 63.007812 C 244.648438 63.007812 244.019531 63.113281 243.671875 63.320312 C 243.320312 63.527344 243.144531 63.878906 243.144531 64.382812 C 243.144531 64.78125 243.277344 65.097656 243.539062 65.332031 C 243.800781 65.5625 244.160156 65.679688 244.609375 65.679688 C 245.234375 65.679688 245.734375 65.460938 246.109375 65.019531 C 246.484375 64.578125 246.671875 63.988281 246.671875 63.257812 L 246.671875 63.007812 Z M 247.796875 62.542969 L 247.796875 66.445312 L 246.671875 66.445312 L 246.671875 65.40625 C 246.417969 65.820312 246.097656 66.125 245.714844 66.324219 C 245.332031 66.523438 244.863281 66.621094 244.3125 66.621094 C 243.609375 66.621094 243.054688 66.425781 242.640625 66.03125 C 242.226562 65.636719 242.023438 65.113281 242.023438 64.453125 C 242.023438 63.683594 242.277344 63.105469 242.792969 62.714844 C 243.308594 62.324219 244.078125 62.128906 245.097656 62.128906 L 246.671875 62.128906 L 246.671875 62.019531 C 246.671875 61.5 246.503906 61.101562 246.164062 60.820312 C 245.824219 60.535156 245.347656 60.394531 244.734375 60.394531 C 244.34375 60.394531 243.960938 60.441406 243.589844 60.535156 C 243.21875 60.628906 242.863281 60.769531 242.523438 60.957031 L 242.523438 59.917969 C 242.933594 59.757812 243.332031 59.640625 243.71875 59.5625 C 244.105469 59.484375 244.480469 59.445312 244.847656 59.445312 C 245.835938 59.445312 246.578125 59.699219 247.0625 60.214844 C 247.554688 60.726562 247.796875 61.5 247.796875 62.542969 Z M 247.796875 62.542969 "/>
<path style=" stroke:none;fill-rule:nonzero;fill:rgb(0%,0%,0%);fill-opacity:1;" d="M 255.027344 59.871094 L 255.027344 60.921875 C 254.710938 60.746094 254.394531 60.613281 254.074219 60.527344 C 253.753906 60.4375 253.433594 60.394531 253.105469 60.394531 C 252.378906 60.394531 251.8125 60.625 251.40625 61.089844 C 251.003906 61.550781 250.804688 62.195312 250.804688 63.03125 C 250.804688 63.867188 251.003906 64.515625 251.40625 64.976562 C 251.8125 65.4375 252.378906 65.667969 253.105469 65.667969 C 253.433594 65.667969 253.753906 65.625 254.074219 65.539062 C 254.394531 65.449219 254.710938 65.320312 255.027344 65.144531 L 255.027344 66.183594 C 254.714844 66.328125 254.390625 66.4375 254.054688 66.511719 C 253.71875 66.585938 253.363281 66.621094 252.984375 66.621094 C 251.953125 66.621094 251.136719 66.296875 250.527344 65.652344 C 249.921875 65.003906 249.621094 64.128906 249.621094 63.03125 C 249.621094 61.917969 249.925781 61.039062 250.539062 60.402344 C 251.152344 59.761719 251.992188 59.445312 253.058594 59.445312 C 253.402344 59.445312 253.742188 59.480469 254.070312 59.550781 C 254.398438 59.621094 254.71875 59.726562 255.027344 59.871094 Z M 255.027344 59.871094 "/>
<path style=" stroke:none;fill-rule:nonzero;fill:rgb(0%,0%,0%);fill-opacity:1;" d="M 261.902344 59.871094 L 261.902344 60.921875 C 261.582031 60.746094 261.265625 60.613281 260.945312 60.527344 C 260.628906 60.4375 260.304688 60.394531 259.980469 60.394531 C 259.25 60.394531 258.683594 60.625 258.28125 61.089844 C 257.878906 61.550781 257.675781 62.195312 257.675781 63.03125 C 257.675781 63.867188 257.878906 64.515625 258.28125 64.976562 C 258.683594 65.4375 259.25 65.667969 259.980469 65.667969 C 260.304688 65.667969 260.628906 65.625 260.945312 65.539062 C 261.265625 65.449219 261.582031 65.320312 261.902344 65.144531 L 261.902344 66.183594 C 261.585938 66.328125 261.261719 66.4375 260.925781 66.511719 C 260.59375 66.585938 260.234375 66.621094 259.855469 66.621094 C 258.828125 66.621094 258.007812 66.296875 257.402344 65.652344 C 256.796875 65.003906 256.492188 64.128906 256.492188 63.03125 C 256.492188 61.917969 256.800781 61.039062 257.410156 60.402344 C 258.023438 59.761719 258.863281 59.445312 259.929688 59.445312 C 260.277344 59.445312 260.613281 59.480469 260.941406 59.550781 C 261.273438 59.621094 261.589844 59.726562 261.902344 59.871094 Z M 261.902344 59.871094 "/>
</g>
</svg>
