<?xml version="1.0" encoding="UTF-8"?>
<svg xmlns="http://www.w3.org/2000/svg" xmlns:xlink="http://www.w3.org/1999/xlink" width="423pt" height="229pt" viewBox="0 0 423 229" version="1.1">
<defs>
<clipPath id="clip1">
  <path d="M 80 9 L 82 9 L 82 182.25 L 80 182.25 Z M 80 9 "/>
</clipPath>
<clipPath id="clip2">
  <path d="M 120 9 L 122 9 L 122 182.25 L 120 182.25 Z M 120 9 "/>
</clipPath>
<clipPath id="clip3">
  <path d="M 160 9 L 162 9 L 162 182.25 L 160 182.25 Z M 160 9 "/>
</clipPath>
<clipPath id="clip4">
  <path d="M 199 9 L 202 9 L 202 182.25 L 199 182.25 Z M 199 9 "/>
</clipPath>
<clipPath id="clip5">
  <path d="M 239 9 L 242 9 L 242 182.25 L 239 182.25 Z M 239 9 "/>
</clipPath>
<clipPath id="clip6">
  <path d="M 279 9 L 282 9 L 282 182.25 L 279 182.25 Z M 279 9 "/>
</clipPath>
<clipPath id="clip7">
  <path d="M 319 9 L 322 9 L 322 182.25 L 319 182.25 Z M 319 9 "/>
</clipPath>
<clipPath id="clip8">
  <path d="M 359 9 L 361 9 L 361 182.25 L 359 182.25 Z M 359 9 "/>
</clipPath>
<clipPath id="clip9">
  <path d="M 399 9 L 401 9 L 401 182.25 L 399 182.25 Z M 399 9 "/>
</clipPath>
<clipPath id="clip10">
  <path d="M 65.203125 173 L 413.953125 173 L 413.953125 176 L 65.203125 176 Z M 65.203125 173 "/>
</clipPath>
<clipPath id="clip11">
  <path d="M 65.203125 134 L 413.953125 134 L 413.953125 136 L 65.203125 136 Z M 65.203125 134 "/>
</clipPath>
<clipPath id="clip12">
  <path d="M 65.203125 94 L 413.953125 94 L 413.953125 97 L 65.203125 97 Z M 65.203125 94 "/>
</clipPath>
<clipPath id="clip13">
  <path d="M 65.203125 55 L 413.953125 55 L 413.953125 57 L 65.203125 57 Z M 65.203125 55 "/>
</clipPath>
<clipPath id="clip14">
  <path d="M 65.203125 16 L 413.953125 16 L 413.953125 18 L 65.203125 18 Z M 65.203125 16 "/>
</clipPath>
</defs>
<g id="surface1">
<path style=" stroke:none;fill-rule:nonzero;fill:rgb(100%,100%,100%);fill-opacity:1;" d="M 0 229.195312 L 422.949219 229.195312 L 422.949219 0 L 0 0 Z M 0 229.195312 "/>
<path style=" stroke:none;fill-rule:nonzero;fill:rgb(100%,100%,100%);fill-opacity:1;" d="M 65.203125 182.25 L 413.949219 182.25 L 413.949219 9 L 65.203125 9 Z M 65.203125 182.25 "/>
<g clip-path="url(#clip1)" clip-rule="nonzero">
<path style="fill:none;stroke-width:0.8;stroke-linecap:square;stroke-linejoin:round;stroke:rgb(69.019608%,69.019608%,69.019608%);stroke-opacity:1;stroke-miterlimit:4;" d="M 64.84375 145.8 L 64.84375 7.2 " transform="matrix(1.25,0,0,1.25,0,-0.000000000000014211)"/>
</g>
<path style="fill:none;stroke-width:0.8;stroke-linecap:butt;stroke-linejoin:round;stroke:rgb(0%,0%,0%);stroke-opacity:1;stroke-miterlimit:4;" d="M 0.000994 0 L 0.000994 3.5 " transform="matrix(1.25,0,0,1.25,81.053445,182.25)"/>
<path style=" stroke:none;fill-rule:nonzero;fill:rgb(0%,0%,0%);fill-opacity:1;" d="M 73.164062 196.0625 L 80.988281 196.0625 L 80.988281 197.097656 L 73.164062 197.097656 Z M 73.164062 196.0625 "/>
<path style=" stroke:none;fill-rule:nonzero;fill:rgb(0%,0%,0%);fill-opacity:1;" d="M 86.285156 196.171875 C 85.699219 196.171875 85.238281 196.328125 84.902344 196.640625 C 84.570312 196.953125 84.402344 197.386719 84.402344 197.933594 C 84.402344 198.484375 84.570312 198.914062 84.902344 199.230469 C 85.238281 199.542969 85.699219 199.699219 86.285156 199.699219 C 86.871094 199.699219 87.332031 199.542969 87.671875 199.226562 C 88.007812 198.910156 88.179688 198.480469 88.179688 197.933594 C 88.179688 197.386719 88.011719 196.953125 87.675781 196.640625 C 87.339844 196.328125 86.878906 196.171875 86.285156 196.171875 Z M 85.054688 195.648438 C 84.523438 195.515625 84.113281 195.269531 83.816406 194.910156 C 83.523438 194.546875 83.375 194.101562 83.375 193.582031 C 83.375 192.855469 83.636719 192.277344 84.152344 191.855469 C 84.671875 191.433594 85.382812 191.222656 86.285156 191.222656 C 87.195312 191.222656 87.90625 191.433594 88.421875 191.855469 C 88.941406 192.277344 89.199219 192.855469 89.199219 193.582031 C 89.199219 194.101562 89.050781 194.546875 88.753906 194.910156 C 88.460938 195.269531 88.050781 195.515625 87.527344 195.648438 C 88.121094 195.785156 88.582031 196.054688 88.914062 196.460938 C 89.246094 196.863281 89.410156 197.351562 89.410156 197.933594 C 89.410156 198.816406 89.140625 199.496094 88.601562 199.96875 C 88.0625 200.441406 87.292969 200.675781 86.285156 200.675781 C 85.28125 200.675781 84.511719 200.441406 83.96875 199.96875 C 83.429688 199.496094 83.160156 198.816406 83.160156 197.933594 C 83.160156 197.351562 83.328125 196.863281 83.660156 196.460938 C 83.996094 196.054688 84.460938 195.785156 85.054688 195.648438 Z M 84.601562 193.699219 C 84.601562 194.171875 84.75 194.539062 85.042969 194.804688 C 85.339844 195.066406 85.753906 195.199219 86.285156 195.199219 C 86.816406 195.199219 87.230469 195.066406 87.527344 194.804688 C 87.828125 194.539062 87.976562 194.171875 87.976562 193.699219 C 87.976562 193.226562 87.828125 192.859375 87.527344 192.59375 C 87.230469 192.328125 86.816406 192.199219 86.285156 192.199219 C 85.753906 192.199219 85.339844 192.328125 85.042969 192.59375 C 84.75 192.859375 84.601562 193.226562 84.601562 193.699219 Z M 84.601562 193.699219 "/>
<g clip-path="url(#clip2)" clip-rule="nonzero">
<path style="fill:none;stroke-width:0.8;stroke-linecap:square;stroke-linejoin:round;stroke:rgb(69.019608%,69.019608%,69.019608%);stroke-opacity:1;stroke-miterlimit:4;" d="M 96.746875 145.8 L 96.746875 7.2 " transform="matrix(1.25,0,0,1.25,0,-0.000000000000014211)"/>
</g>
<path style="fill:none;stroke-width:0.8;stroke-linecap:butt;stroke-linejoin:round;stroke:rgb(0%,0%,0%);stroke-opacity:1;stroke-miterlimit:4;" d="M 0.000173 0 L 0.000173 3.5 " transform="matrix(1.25,0,0,1.25,120.933378,182.25)"/>
<path style=" stroke:none;fill-rule:nonzero;fill:rgb(0%,0%,0%);fill-opacity:1;" d="M 113.042969 196.0625 L 120.867188 196.0625 L 120.867188 197.097656 L 113.042969 197.097656 Z M 113.042969 196.0625 "/>
<path style=" stroke:none;fill-rule:nonzero;fill:rgb(0%,0%,0%);fill-opacity:1;" d="M 126.320312 195.453125 C 125.765625 195.453125 125.328125 195.640625 125.003906 196.019531 C 124.679688 196.398438 124.519531 196.914062 124.519531 197.574219 C 124.519531 198.230469 124.679688 198.746094 125.003906 199.128906 C 125.328125 199.507812 125.765625 199.699219 126.320312 199.699219 C 126.875 199.699219 127.3125 199.507812 127.632812 199.128906 C 127.957031 198.746094 128.117188 198.230469 128.117188 197.574219 C 128.117188 196.914062 127.957031 196.398438 127.632812 196.019531 C 127.3125 195.640625 126.875 195.453125 126.320312 195.453125 Z M 128.765625 191.585938 L 128.765625 192.710938 C 128.457031 192.5625 128.144531 192.453125 127.828125 192.375 C 127.515625 192.296875 127.203125 192.257812 126.890625 192.257812 C 126.078125 192.257812 125.457031 192.53125 125.027344 193.082031 C 124.597656 193.632812 124.355469 194.460938 124.292969 195.574219 C 124.53125 195.21875 124.832031 194.945312 125.195312 194.757812 C 125.558594 194.570312 125.957031 194.476562 126.390625 194.476562 C 127.308594 194.476562 128.03125 194.753906 128.5625 195.308594 C 129.09375 195.863281 129.359375 196.617188 129.359375 197.574219 C 129.359375 198.511719 129.082031 199.261719 128.527344 199.828125 C 127.976562 200.394531 127.238281 200.675781 126.320312 200.675781 C 125.265625 200.675781 124.460938 200.273438 123.902344 199.464844 C 123.34375 198.65625 123.066406 197.484375 123.066406 195.953125 C 123.066406 194.511719 123.40625 193.363281 124.089844 192.507812 C 124.773438 191.648438 125.691406 191.222656 126.84375 191.222656 C 127.152344 191.222656 127.464844 191.25 127.78125 191.3125 C 128.097656 191.375 128.425781 191.464844 128.765625 191.585938 Z M 128.765625 191.585938 "/>
<g clip-path="url(#clip3)" clip-rule="nonzero">
<path style="fill:none;stroke-width:0.8;stroke-linecap:square;stroke-linejoin:round;stroke:rgb(69.019608%,69.019608%,69.019608%);stroke-opacity:1;stroke-miterlimit:4;" d="M 128.65 145.8 L 128.65 7.2 " transform="matrix(1.25,0,0,1.25,0,-0.000000000000014211)"/>
</g>
<path style="fill:none;stroke-width:0.8;stroke-linecap:butt;stroke-linejoin:round;stroke:rgb(0%,0%,0%);stroke-opacity:1;stroke-miterlimit:4;" d="M -0.000647 0 L -0.000647 3.5 " transform="matrix(1.25,0,0,1.25,160.813309,182.25)"/>
<path style=" stroke:none;fill-rule:nonzero;fill:rgb(0%,0%,0%);fill-opacity:1;" d="M 152.921875 196.0625 L 160.746094 196.0625 L 160.746094 197.097656 L 152.921875 197.097656 Z M 152.921875 196.0625 "/>
<path style=" stroke:none;fill-rule:nonzero;fill:rgb(0%,0%,0%);fill-opacity:1;" d="M 166.796875 192.460938 L 163.683594 197.324219 L 166.796875 197.324219 Z M 166.472656 191.386719 L 168.023438 191.386719 L 168.023438 197.324219 L 169.324219 197.324219 L 169.324219 198.351562 L 168.023438 198.351562 L 168.023438 200.5 L 166.796875 200.5 L 166.796875 198.351562 L 162.683594 198.351562 L 162.683594 197.160156 Z M 166.472656 191.386719 "/>
<g clip-path="url(#clip4)" clip-rule="nonzero">
<path style="fill:none;stroke-width:0.8;stroke-linecap:square;stroke-linejoin:round;stroke:rgb(69.019608%,69.019608%,69.019608%);stroke-opacity:1;stroke-miterlimit:4;" d="M 160.553125 145.8 L 160.553125 7.2 " transform="matrix(1.25,0,0,1.25,0,-0.000000000000014211)"/>
</g>
<path style="fill:none;stroke-width:0.8;stroke-linecap:butt;stroke-linejoin:round;stroke:rgb(0%,0%,0%);stroke-opacity:1;stroke-miterlimit:4;" d="M -0.001468 0 L -0.001468 3.5 " transform="matrix(1.25,0,0,1.25,200.693241,182.25)"/>
<path style=" stroke:none;fill-rule:nonzero;fill:rgb(0%,0%,0%);fill-opacity:1;" d="M 192.804688 196.0625 L 200.628906 196.0625 L 200.628906 197.097656 L 192.804688 197.097656 Z M 192.804688 196.0625 "/>
<path style=" stroke:none;fill-rule:nonzero;fill:rgb(0%,0%,0%);fill-opacity:1;" d="M 204.351562 199.460938 L 208.652344 199.460938 L 208.652344 200.5 L 202.867188 200.5 L 202.867188 199.460938 C 203.335938 198.976562 203.972656 198.328125 204.78125 197.511719 C 205.589844 196.695312 206.097656 196.167969 206.304688 195.933594 C 206.699219 195.488281 206.972656 195.113281 207.128906 194.808594 C 207.289062 194.5 207.367188 194.199219 207.367188 193.902344 C 207.367188 193.417969 207.195312 193.023438 206.855469 192.71875 C 206.515625 192.410156 206.074219 192.257812 205.527344 192.257812 C 205.140625 192.257812 204.734375 192.324219 204.304688 192.460938 C 203.875 192.59375 203.417969 192.796875 202.929688 193.070312 L 202.929688 191.824219 C 203.425781 191.625 203.890625 191.476562 204.320312 191.375 C 204.753906 191.273438 205.148438 191.222656 205.503906 191.222656 C 206.449219 191.222656 207.203125 191.457031 207.761719 191.929688 C 208.324219 192.402344 208.605469 193.03125 208.605469 193.820312 C 208.605469 194.195312 208.535156 194.550781 208.394531 194.886719 C 208.253906 195.222656 208 195.617188 207.628906 196.074219 C 207.527344 196.191406 207.203125 196.53125 206.65625 197.097656 C 206.113281 197.660156 205.34375 198.449219 204.351562 199.460938 Z M 204.351562 199.460938 "/>
<g clip-path="url(#clip5)" clip-rule="nonzero">
<path style="fill:none;stroke-width:0.8;stroke-linecap:square;stroke-linejoin:round;stroke:rgb(69.019608%,69.019608%,69.019608%);stroke-opacity:1;stroke-miterlimit:4;" d="M 192.459375 145.8 L 192.459375 7.2 " transform="matrix(1.25,0,0,1.25,0,-0.000000000000014211)"/>
</g>
<path style="fill:none;stroke-width:0.8;stroke-linecap:butt;stroke-linejoin:round;stroke:rgb(0%,0%,0%);stroke-opacity:1;stroke-miterlimit:4;" d="M 0.000836 0 L 0.000836 3.5 " transform="matrix(1.25,0,0,1.25,240.573174,182.25)"/>
<path style=" stroke:none;fill-rule:nonzero;fill:rgb(0%,0%,0%);fill-opacity:1;" d="M 240.570312 192.199219 C 239.933594 192.199219 239.457031 192.511719 239.136719 193.136719 C 238.820312 193.757812 238.660156 194.699219 238.660156 195.953125 C 238.660156 197.199219 238.820312 198.136719 239.136719 198.761719 C 239.457031 199.386719 239.933594 199.699219 240.570312 199.699219 C 241.207031 199.699219 241.6875 199.386719 242.007812 198.761719 C 242.328125 198.136719 242.488281 197.199219 242.488281 195.953125 C 242.488281 194.699219 242.328125 193.757812 242.007812 193.136719 C 241.6875 192.511719 241.207031 192.199219 240.570312 192.199219 Z M 240.570312 191.222656 C 241.589844 191.222656 242.371094 191.625 242.910156 192.433594 C 243.449219 193.242188 243.71875 194.414062 243.71875 195.953125 C 243.71875 197.484375 243.449219 198.65625 242.910156 199.464844 C 242.371094 200.273438 241.589844 200.675781 240.570312 200.675781 C 239.546875 200.675781 238.769531 200.273438 238.230469 199.464844 C 237.691406 198.65625 237.421875 197.484375 237.421875 195.953125 C 237.421875 194.414062 237.691406 193.242188 238.230469 192.433594 C 238.769531 191.625 239.546875 191.222656 240.570312 191.222656 Z M 240.570312 191.222656 "/>
<g clip-path="url(#clip6)" clip-rule="nonzero">
<path style="fill:none;stroke-width:0.8;stroke-linecap:square;stroke-linejoin:round;stroke:rgb(69.019608%,69.019608%,69.019608%);stroke-opacity:1;stroke-miterlimit:4;" d="M 224.3625 145.8 L 224.3625 7.2 " transform="matrix(1.25,0,0,1.25,0,-0.000000000000014211)"/>
</g>
<path style="fill:none;stroke-width:0.8;stroke-linecap:butt;stroke-linejoin:round;stroke:rgb(0%,0%,0%);stroke-opacity:1;stroke-miterlimit:4;" d="M 0.000015 0 L 0.000015 3.5 " transform="matrix(1.25,0,0,1.25,280.453106,182.25)"/>
<path style=" stroke:none;fill-rule:nonzero;fill:rgb(0%,0%,0%);fill-opacity:1;" d="M 278.875 199.460938 L 283.175781 199.460938 L 283.175781 200.5 L 277.390625 200.5 L 277.390625 199.460938 C 277.859375 198.976562 278.496094 198.328125 279.304688 197.511719 C 280.113281 196.695312 280.621094 196.167969 280.828125 195.933594 C 281.222656 195.488281 281.496094 195.113281 281.652344 194.808594 C 281.8125 194.5 281.890625 194.199219 281.890625 193.902344 C 281.890625 193.417969 281.71875 193.023438 281.378906 192.71875 C 281.039062 192.410156 280.597656 192.257812 280.050781 192.257812 C 279.664062 192.257812 279.257812 192.324219 278.828125 192.460938 C 278.398438 192.59375 277.941406 192.796875 277.453125 193.070312 L 277.453125 191.824219 C 277.949219 191.625 278.414062 191.476562 278.84375 191.375 C 279.277344 191.273438 279.671875 191.222656 280.027344 191.222656 C 280.972656 191.222656 281.726562 191.457031 282.285156 191.929688 C 282.847656 192.402344 283.128906 193.03125 283.128906 193.820312 C 283.128906 194.195312 283.058594 194.550781 282.917969 194.886719 C 282.777344 195.222656 282.523438 195.617188 282.152344 196.074219 C 282.050781 196.191406 281.726562 196.53125 281.179688 197.097656 C 280.636719 197.660156 279.867188 198.449219 278.875 199.460938 Z M 278.875 199.460938 "/>
<g clip-path="url(#clip7)" clip-rule="nonzero">
<path style="fill:none;stroke-width:0.8;stroke-linecap:square;stroke-linejoin:round;stroke:rgb(69.019608%,69.019608%,69.019608%);stroke-opacity:1;stroke-miterlimit:4;" d="M 256.265625 145.8 L 256.265625 7.2 " transform="matrix(1.25,0,0,1.25,0,-0.000000000000014211)"/>
</g>
<path style="fill:none;stroke-width:0.8;stroke-linecap:butt;stroke-linejoin:round;stroke:rgb(0%,0%,0%);stroke-opacity:1;stroke-miterlimit:4;" d="M -0.000806 0 L -0.000806 3.5 " transform="matrix(1.25,0,0,1.25,320.333039,182.25)"/>
<path style=" stroke:none;fill-rule:nonzero;fill:rgb(0%,0%,0%);fill-opacity:1;" d="M 321.082031 192.460938 L 317.96875 197.324219 L 321.082031 197.324219 Z M 320.757812 191.386719 L 322.308594 191.386719 L 322.308594 197.324219 L 323.609375 197.324219 L 323.609375 198.351562 L 322.308594 198.351562 L 322.308594 200.5 L 321.082031 200.5 L 321.082031 198.351562 L 316.96875 198.351562 L 316.96875 197.160156 Z M 320.757812 191.386719 "/>
<g clip-path="url(#clip8)" clip-rule="nonzero">
<path style="fill:none;stroke-width:0.8;stroke-linecap:square;stroke-linejoin:round;stroke:rgb(69.019608%,69.019608%,69.019608%);stroke-opacity:1;stroke-miterlimit:4;" d="M 288.171875 145.8 L 288.171875 7.2 " transform="matrix(1.25,0,0,1.25,0,-0.000000000000014211)"/>
</g>
<path style="fill:none;stroke-width:0.8;stroke-linecap:butt;stroke-linejoin:round;stroke:rgb(0%,0%,0%);stroke-opacity:1;stroke-miterlimit:4;" d="M 0.001498 0 L 0.001498 3.5 " transform="matrix(1.25,0,0,1.25,360.212971,182.25)"/>
<path style=" stroke:none;fill-rule:nonzero;fill:rgb(0%,0%,0%);fill-opacity:1;" d="M 360.363281 195.453125 C 359.808594 195.453125 359.371094 195.640625 359.046875 196.019531 C 358.722656 196.398438 358.5625 196.914062 358.5625 197.574219 C 358.5625 198.230469 358.722656 198.746094 359.046875 199.128906 C 359.371094 199.507812 359.808594 199.699219 360.363281 199.699219 C 360.917969 199.699219 361.355469 199.507812 361.679688 199.128906 C 362 198.746094 362.164062 198.230469 362.164062 197.574219 C 362.164062 196.914062 362 196.398438 361.679688 196.019531 C 361.355469 195.640625 360.917969 195.453125 360.363281 195.453125 Z M 362.8125 191.585938 L 362.8125 192.710938 C 362.5 192.5625 362.1875 192.453125 361.875 192.375 C 361.558594 192.296875 361.246094 192.257812 360.9375 192.257812 C 360.121094 192.257812 359.5 192.53125 359.070312 193.082031 C 358.640625 193.632812 358.398438 194.460938 358.335938 195.574219 C 358.574219 195.21875 358.875 194.945312 359.238281 194.757812 C 359.601562 194.570312 360 194.476562 360.4375 194.476562 C 361.351562 194.476562 362.074219 194.753906 362.605469 195.308594 C 363.136719 195.863281 363.402344 196.617188 363.402344 197.574219 C 363.402344 198.511719 363.125 199.261719 362.574219 199.828125 C 362.019531 200.394531 361.28125 200.675781 360.363281 200.675781 C 359.308594 200.675781 358.503906 200.273438 357.945312 199.464844 C 357.386719 198.65625 357.109375 197.484375 357.109375 195.953125 C 357.109375 194.511719 357.453125 193.363281 358.136719 192.507812 C 358.820312 191.648438 359.734375 191.222656 360.886719 191.222656 C 361.195312 191.222656 361.507812 191.25 361.824219 191.3125 C 362.140625 191.375 362.46875 191.464844 362.8125 191.585938 Z M 362.8125 191.585938 "/>
<g clip-path="url(#clip9)" clip-rule="nonzero">
<path style="fill:none;stroke-width:0.8;stroke-linecap:square;stroke-linejoin:round;stroke:rgb(69.019608%,69.019608%,69.019608%);stroke-opacity:1;stroke-miterlimit:4;" d="M 320.075 145.8 L 320.075 7.2 " transform="matrix(1.25,0,0,1.25,0,-0.000000000000014211)"/>
</g>
<path style="fill:none;stroke-width:0.8;stroke-linecap:butt;stroke-linejoin:round;stroke:rgb(0%,0%,0%);stroke-opacity:1;stroke-miterlimit:4;" d="M 0.000677 0 L 0.000677 3.5 " transform="matrix(1.25,0,0,1.25,400.092904,182.25)"/>
<path style=" stroke:none;fill-rule:nonzero;fill:rgb(0%,0%,0%);fill-opacity:1;" d="M 400.089844 196.171875 C 399.503906 196.171875 399.042969 196.328125 398.707031 196.640625 C 398.371094 196.953125 398.203125 197.386719 398.203125 197.933594 C 398.203125 198.484375 398.371094 198.914062 398.707031 199.230469 C 399.042969 199.542969 399.503906 199.699219 400.089844 199.699219 C 400.675781 199.699219 401.136719 199.542969 401.472656 199.226562 C 401.8125 198.910156 401.980469 198.480469 401.980469 197.933594 C 401.980469 197.386719 401.8125 196.953125 401.476562 196.640625 C 401.144531 196.328125 400.679688 196.171875 400.089844 196.171875 Z M 398.855469 195.648438 C 398.328125 195.515625 397.914062 195.269531 397.621094 194.910156 C 397.324219 194.546875 397.179688 194.101562 397.179688 193.582031 C 397.179688 192.855469 397.4375 192.277344 397.957031 191.855469 C 398.476562 191.433594 399.1875 191.222656 400.089844 191.222656 C 400.996094 191.222656 401.707031 191.433594 402.226562 191.855469 C 402.742188 192.277344 403 192.855469 403 193.582031 C 403 194.101562 402.851562 194.546875 402.558594 194.910156 C 402.261719 195.269531 401.855469 195.515625 401.328125 195.648438 C 401.921875 195.785156 402.386719 196.054688 402.714844 196.460938 C 403.046875 196.863281 403.214844 197.351562 403.214844 197.933594 C 403.214844 198.816406 402.945312 199.496094 402.40625 199.96875 C 401.867188 200.441406 401.09375 200.675781 400.089844 200.675781 C 399.085938 200.675781 398.3125 200.441406 397.773438 199.96875 C 397.234375 199.496094 396.964844 198.816406 396.964844 197.933594 C 396.964844 197.351562 397.128906 196.863281 397.464844 196.460938 C 397.796875 196.054688 398.261719 195.785156 398.855469 195.648438 Z M 398.40625 193.699219 C 398.40625 194.171875 398.550781 194.539062 398.847656 194.804688 C 399.140625 195.066406 399.554688 195.199219 400.089844 195.199219 C 400.617188 195.199219 401.03125 195.066406 401.332031 194.804688 C 401.628906 194.539062 401.78125 194.171875 401.78125 193.699219 C 401.78125 193.226562 401.628906 192.859375 401.332031 192.59375 C 401.03125 192.328125 400.617188 192.199219 400.089844 192.199219 C 399.554688 192.199219 399.140625 192.328125 398.847656 192.59375 C 398.550781 192.859375 398.40625 193.226562 398.40625 193.699219 Z M 398.40625 193.699219 "/>
<path style=" stroke:none;fill-rule:nonzero;fill:rgb(0%,0%,0%);fill-opacity:1;" d="M 242.738281 210.761719 L 240.265625 214.085938 L 242.863281 217.597656 L 241.539062 217.597656 L 239.550781 214.910156 L 237.5625 217.597656 L 236.234375 217.597656 L 238.890625 214.019531 L 236.460938 210.761719 L 237.785156 210.761719 L 239.597656 213.195312 L 241.410156 210.761719 Z M 242.738281 210.761719 "/>
<g clip-path="url(#clip10)" clip-rule="nonzero">
<path style="fill:none;stroke-width:0.8;stroke-linecap:square;stroke-linejoin:round;stroke:rgb(69.019608%,69.019608%,69.019608%);stroke-opacity:1;stroke-miterlimit:4;" d="M 52.1625 139.5 L 331.159375 139.5 " transform="matrix(1.25,0,0,1.25,0,-0.000000000000014211)"/>
</g>
<path style="fill:none;stroke-width:0.8;stroke-linecap:butt;stroke-linejoin:round;stroke:rgb(0%,0%,0%);stroke-opacity:1;stroke-miterlimit:4;" d="M 0.001562 -0.000015 L -3.498438 -0.000015 " transform="matrix(1.25,0,0,1.25,65.201172,174.375019)"/>
<path style=" stroke:none;fill-rule:nonzero;fill:rgb(0%,0%,0%);fill-opacity:1;" d="M 27.421875 174.6875 L 35.246094 174.6875 L 35.246094 175.722656 L 27.421875 175.722656 Z M 27.421875 174.6875 "/>
<path style=" stroke:none;fill-rule:nonzero;fill:rgb(0%,0%,0%);fill-opacity:1;" d="M 38.121094 178.085938 L 40.136719 178.085938 L 40.136719 171.132812 L 37.945312 171.574219 L 37.945312 170.449219 L 40.125 170.011719 L 41.355469 170.011719 L 41.355469 178.085938 L 43.371094 178.085938 L 43.371094 179.125 L 38.121094 179.125 Z M 38.121094 178.085938 "/>
<path style=" stroke:none;fill-rule:nonzero;fill:rgb(0%,0%,0%);fill-opacity:1;" d="M 45.859375 177.574219 L 47.148438 177.574219 L 47.148438 179.125 L 45.859375 179.125 Z M 45.859375 177.574219 "/>
<path style=" stroke:none;fill-rule:nonzero;fill:rgb(0%,0%,0%);fill-opacity:1;" d="M 52.46875 170.824219 C 51.835938 170.824219 51.359375 171.136719 51.039062 171.761719 C 50.71875 172.382812 50.558594 173.324219 50.558594 174.578125 C 50.558594 175.824219 50.71875 176.761719 51.039062 177.386719 C 51.359375 178.011719 51.835938 178.324219 52.46875 178.324219 C 53.109375 178.324219 53.589844 178.011719 53.90625 177.386719 C 54.226562 176.761719 54.386719 175.824219 54.386719 174.578125 C 54.386719 173.324219 54.226562 172.382812 53.90625 171.761719 C 53.589844 171.136719 53.109375 170.824219 52.46875 170.824219 Z M 52.46875 169.847656 C 53.492188 169.847656 54.273438 170.25 54.8125 171.058594 C 55.351562 171.867188 55.621094 173.039062 55.621094 174.578125 C 55.621094 176.109375 55.351562 177.28125 54.8125 178.089844 C 54.273438 178.898438 53.492188 179.300781 52.46875 179.300781 C 51.449219 179.300781 50.667969 178.898438 50.128906 178.089844 C 49.589844 177.28125 49.320312 176.109375 49.320312 174.578125 C 49.320312 173.039062 49.589844 171.867188 50.128906 171.058594 C 50.667969 170.25 51.449219 169.847656 52.46875 169.847656 Z M 52.46875 169.847656 "/>
<g clip-path="url(#clip11)" clip-rule="nonzero">
<path style="fill:none;stroke-width:0.8;stroke-linecap:square;stroke-linejoin:round;stroke:rgb(69.019608%,69.019608%,69.019608%);stroke-opacity:1;stroke-miterlimit:4;" d="M 52.1625 108 L 331.159375 108 " transform="matrix(1.25,0,0,1.25,0,-0.000000000000014211)"/>
</g>
<path style="fill:none;stroke-width:0.8;stroke-linecap:butt;stroke-linejoin:round;stroke:rgb(0%,0%,0%);stroke-opacity:1;stroke-miterlimit:4;" d="M 0.001562 -0.000007 L -3.498438 -0.000007 " transform="matrix(1.25,0,0,1.25,65.201172,135.000009)"/>
<path style=" stroke:none;fill-rule:nonzero;fill:rgb(0%,0%,0%);fill-opacity:1;" d="M 27.421875 135.3125 L 35.246094 135.3125 L 35.246094 136.347656 L 27.421875 136.347656 Z M 27.421875 135.3125 "/>
<path style=" stroke:none;fill-rule:nonzero;fill:rgb(0%,0%,0%);fill-opacity:1;" d="M 40.542969 131.449219 C 39.910156 131.449219 39.433594 131.761719 39.113281 132.386719 C 38.792969 133.007812 38.632812 133.949219 38.632812 135.203125 C 38.632812 136.449219 38.792969 137.386719 39.113281 138.011719 C 39.433594 138.636719 39.910156 138.949219 40.542969 138.949219 C 41.183594 138.949219 41.664062 138.636719 41.980469 138.011719 C 42.300781 137.386719 42.460938 136.449219 42.460938 135.203125 C 42.460938 133.949219 42.300781 133.007812 41.980469 132.386719 C 41.664062 131.761719 41.183594 131.449219 40.542969 131.449219 Z M 40.542969 130.472656 C 41.566406 130.472656 42.347656 130.875 42.886719 131.683594 C 43.425781 132.492188 43.695312 133.664062 43.695312 135.203125 C 43.695312 136.734375 43.425781 137.90625 42.886719 138.714844 C 42.347656 139.523438 41.566406 139.925781 40.542969 139.925781 C 39.523438 139.925781 38.742188 139.523438 38.203125 138.714844 C 37.664062 137.90625 37.394531 136.734375 37.394531 135.203125 C 37.394531 133.664062 37.664062 132.492188 38.203125 131.683594 C 38.742188 130.875 39.523438 130.472656 40.542969 130.472656 Z M 40.542969 130.472656 "/>
<path style=" stroke:none;fill-rule:nonzero;fill:rgb(0%,0%,0%);fill-opacity:1;" d="M 45.859375 138.199219 L 47.148438 138.199219 L 47.148438 139.75 L 45.859375 139.75 Z M 45.859375 138.199219 "/>
<path style=" stroke:none;fill-rule:nonzero;fill:rgb(0%,0%,0%);fill-opacity:1;" d="M 49.847656 130.636719 L 54.6875 130.636719 L 54.6875 131.675781 L 50.976562 131.675781 L 50.976562 133.90625 C 51.15625 133.847656 51.332031 133.800781 51.511719 133.769531 C 51.691406 133.742188 51.871094 133.726562 52.050781 133.726562 C 53.066406 133.726562 53.871094 134.003906 54.464844 134.5625 C 55.0625 135.117188 55.359375 135.875 55.359375 136.824219 C 55.359375 137.804688 55.054688 138.566406 54.441406 139.113281 C 53.832031 139.65625 52.972656 139.925781 51.859375 139.925781 C 51.476562 139.925781 51.089844 139.894531 50.691406 139.828125 C 50.296875 139.765625 49.886719 139.667969 49.460938 139.535156 L 49.460938 138.296875 C 49.828125 138.496094 50.207031 138.644531 50.597656 138.742188 C 50.988281 138.839844 51.402344 138.886719 51.835938 138.886719 C 52.539062 138.886719 53.097656 138.703125 53.507812 138.332031 C 53.917969 137.964844 54.125 137.460938 54.125 136.824219 C 54.125 136.191406 53.917969 135.6875 53.507812 135.320312 C 53.097656 134.949219 52.539062 134.761719 51.835938 134.761719 C 51.507812 134.761719 51.175781 134.800781 50.847656 134.871094 C 50.523438 134.945312 50.1875 135.058594 49.847656 135.214844 Z M 49.847656 130.636719 "/>
<g clip-path="url(#clip12)" clip-rule="nonzero">
<path style="fill:none;stroke-width:0.8;stroke-linecap:square;stroke-linejoin:round;stroke:rgb(69.019608%,69.019608%,69.019608%);stroke-opacity:1;stroke-miterlimit:4;" d="M 52.1625 76.5 L 331.159375 76.5 " transform="matrix(1.25,0,0,1.25,0,-0.000000000000014211)"/>
</g>
<path style="fill:none;stroke-width:0.8;stroke-linecap:butt;stroke-linejoin:round;stroke:rgb(0%,0%,0%);stroke-opacity:1;stroke-miterlimit:4;" d="M 0.001562 0.000002 L -3.498438 0.000002 " transform="matrix(1.25,0,0,1.25,65.201172,95.624997)"/>
<path style=" stroke:none;fill-rule:nonzero;fill:rgb(0%,0%,0%);fill-opacity:1;" d="M 40.542969 92.074219 C 39.910156 92.074219 39.433594 92.386719 39.113281 93.011719 C 38.792969 93.632812 38.632812 94.574219 38.632812 95.828125 C 38.632812 97.074219 38.792969 98.011719 39.113281 98.636719 C 39.433594 99.261719 39.910156 99.574219 40.542969 99.574219 C 41.183594 99.574219 41.664062 99.261719 41.980469 98.636719 C 42.300781 98.011719 42.460938 97.074219 42.460938 95.828125 C 42.460938 94.574219 42.300781 93.632812 41.980469 93.011719 C 41.664062 92.386719 41.183594 92.074219 40.542969 92.074219 Z M 40.542969 91.097656 C 41.566406 91.097656 42.347656 91.5 42.886719 92.308594 C 43.425781 93.117188 43.695312 94.289062 43.695312 95.828125 C 43.695312 97.359375 43.425781 98.53125 42.886719 99.339844 C 42.347656 100.148438 41.566406 100.550781 40.542969 100.550781 C 39.523438 100.550781 38.742188 100.148438 38.203125 99.339844 C 37.664062 98.53125 37.394531 97.359375 37.394531 95.828125 C 37.394531 94.289062 37.664062 93.117188 38.203125 92.308594 C 38.742188 91.5 39.523438 91.097656 40.542969 91.097656 Z M 40.542969 91.097656 "/>
<path style=" stroke:none;fill-rule:nonzero;fill:rgb(0%,0%,0%);fill-opacity:1;" d="M 45.859375 98.824219 L 47.148438 98.824219 L 47.148438 100.375 L 45.859375 100.375 Z M 45.859375 98.824219 "/>
<path style=" stroke:none;fill-rule:nonzero;fill:rgb(0%,0%,0%);fill-opacity:1;" d="M 52.472656 92.074219 C 51.835938 92.074219 51.359375 92.386719 51.039062 93.011719 C 50.71875 93.632812 50.5625 94.574219 50.5625 95.828125 C 50.5625 97.074219 50.71875 98.011719 51.039062 98.636719 C 51.359375 99.261719 51.835938 99.574219 52.472656 99.574219 C 53.109375 99.574219 53.589844 99.261719 53.910156 98.636719 C 54.230469 98.011719 54.390625 97.074219 54.390625 95.828125 C 54.390625 94.574219 54.230469 93.632812 53.910156 93.011719 C 53.589844 92.386719 53.109375 92.074219 52.472656 92.074219 Z M 52.472656 91.097656 C 53.492188 91.097656 54.273438 91.5 54.8125 92.308594 C 55.351562 93.117188 55.621094 94.289062 55.621094 95.828125 C 55.621094 97.359375 55.351562 98.53125 54.8125 99.339844 C 54.273438 100.148438 53.492188 100.550781 52.472656 100.550781 C 51.449219 100.550781 50.671875 100.148438 50.132812 99.339844 C 49.59375 98.53125 49.324219 97.359375 49.324219 95.828125 C 49.324219 94.289062 49.59375 93.117188 50.132812 92.308594 C 50.671875 91.5 51.449219 91.097656 52.472656 91.097656 Z M 52.472656 91.097656 "/>
<g clip-path="url(#clip13)" clip-rule="nonzero">
<path style="fill:none;stroke-width:0.8;stroke-linecap:square;stroke-linejoin:round;stroke:rgb(69.019608%,69.019608%,69.019608%);stroke-opacity:1;stroke-miterlimit:4;" d="M 52.1625 45 L 331.159375 45 " transform="matrix(1.25,0,0,1.25,0,-0.000000000000014211)"/>
</g>
<path style="fill:none;stroke-width:0.8;stroke-linecap:butt;stroke-linejoin:round;stroke:rgb(0%,0%,0%);stroke-opacity:1;stroke-miterlimit:4;" d="M 0.001562 0.00001 L -3.498438 0.00001 " transform="matrix(1.25,0,0,1.25,65.201172,56.249987)"/>
<path style=" stroke:none;fill-rule:nonzero;fill:rgb(0%,0%,0%);fill-opacity:1;" d="M 40.542969 52.699219 C 39.910156 52.699219 39.433594 53.011719 39.113281 53.636719 C 38.792969 54.257812 38.632812 55.199219 38.632812 56.453125 C 38.632812 57.699219 38.792969 58.636719 39.113281 59.261719 C 39.433594 59.886719 39.910156 60.199219 40.542969 60.199219 C 41.183594 60.199219 41.664062 59.886719 41.980469 59.261719 C 42.300781 58.636719 42.460938 57.699219 42.460938 56.453125 C 42.460938 55.199219 42.300781 54.257812 41.980469 53.636719 C 41.664062 53.011719 41.183594 52.699219 40.542969 52.699219 Z M 40.542969 51.722656 C 41.566406 51.722656 42.347656 52.125 42.886719 52.933594 C 43.425781 53.742188 43.695312 54.914062 43.695312 56.453125 C 43.695312 57.984375 43.425781 59.15625 42.886719 59.964844 C 42.347656 60.773438 41.566406 61.175781 40.542969 61.175781 C 39.523438 61.175781 38.742188 60.773438 38.203125 59.964844 C 37.664062 59.15625 37.394531 57.984375 37.394531 56.453125 C 37.394531 54.914062 37.664062 53.742188 38.203125 52.933594 C 38.742188 52.125 39.523438 51.722656 40.542969 51.722656 Z M 40.542969 51.722656 "/>
<path style=" stroke:none;fill-rule:nonzero;fill:rgb(0%,0%,0%);fill-opacity:1;" d="M 45.859375 59.449219 L 47.148438 59.449219 L 47.148438 61 L 45.859375 61 Z M 45.859375 59.449219 "/>
<path style=" stroke:none;fill-rule:nonzero;fill:rgb(0%,0%,0%);fill-opacity:1;" d="M 49.847656 51.886719 L 54.6875 51.886719 L 54.6875 52.925781 L 50.976562 52.925781 L 50.976562 55.15625 C 51.15625 55.097656 51.332031 55.050781 51.511719 55.019531 C 51.691406 54.992188 51.871094 54.976562 52.050781 54.976562 C 53.066406 54.976562 53.875 55.253906 54.46875 55.8125 C 55.0625 56.367188 55.359375 57.125 55.359375 58.074219 C 55.359375 59.054688 55.054688 59.816406 54.445312 60.363281 C 53.832031 60.90625 52.972656 61.175781 51.863281 61.175781 C 51.480469 61.175781 51.089844 61.144531 50.691406 61.078125 C 50.296875 61.015625 49.886719 60.917969 49.464844 60.785156 L 49.464844 59.546875 C 49.828125 59.746094 50.207031 59.894531 50.597656 59.992188 C 50.988281 60.089844 51.402344 60.136719 51.835938 60.136719 C 52.539062 60.136719 53.097656 59.953125 53.507812 59.582031 C 53.917969 59.214844 54.125 58.710938 54.125 58.074219 C 54.125 57.441406 53.917969 56.9375 53.507812 56.570312 C 53.097656 56.199219 52.539062 56.011719 51.835938 56.011719 C 51.507812 56.011719 51.179688 56.050781 50.851562 56.121094 C 50.523438 56.195312 50.1875 56.308594 49.847656 56.464844 Z M 49.847656 51.886719 "/>
<g clip-path="url(#clip14)" clip-rule="nonzero">
<path style="fill:none;stroke-width:0.8;stroke-linecap:square;stroke-linejoin:round;stroke:rgb(69.019608%,69.019608%,69.019608%);stroke-opacity:1;stroke-miterlimit:4;" d="M 52.1625 13.5 L 331.159375 13.5 " transform="matrix(1.25,0,0,1.25,0,-0.000000000000014211)"/>
</g>
<path style="fill:none;stroke-width:0.8;stroke-linecap:butt;stroke-linejoin:round;stroke:rgb(0%,0%,0%);stroke-opacity:1;stroke-miterlimit:4;" d="M 0.001562 0.000019 L -3.498438 0.000019 " transform="matrix(1.25,0,0,1.25,65.201172,16.874976)"/>
<path style=" stroke:none;fill-rule:nonzero;fill:rgb(0%,0%,0%);fill-opacity:1;" d="M 38.121094 20.585938 L 40.136719 20.585938 L 40.136719 13.632812 L 37.945312 14.074219 L 37.945312 12.949219 L 40.125 12.511719 L 41.355469 12.511719 L 41.355469 20.585938 L 43.371094 20.585938 L 43.371094 21.625 L 38.121094 21.625 Z M 38.121094 20.585938 "/>
<path style=" stroke:none;fill-rule:nonzero;fill:rgb(0%,0%,0%);fill-opacity:1;" d="M 45.859375 20.074219 L 47.148438 20.074219 L 47.148438 21.625 L 45.859375 21.625 Z M 45.859375 20.074219 "/>
<path style=" stroke:none;fill-rule:nonzero;fill:rgb(0%,0%,0%);fill-opacity:1;" d="M 52.472656 13.324219 C 51.835938 13.324219 51.359375 13.636719 51.039062 14.261719 C 50.71875 14.882812 50.5625 15.824219 50.5625 17.078125 C 50.5625 18.324219 50.71875 19.261719 51.039062 19.886719 C 51.359375 20.511719 51.835938 20.824219 52.472656 20.824219 C 53.109375 20.824219 53.589844 20.511719 53.910156 19.886719 C 54.230469 19.261719 54.390625 18.324219 54.390625 17.078125 C 54.390625 15.824219 54.230469 14.882812 53.910156 14.261719 C 53.589844 13.636719 53.109375 13.324219 52.472656 13.324219 Z M 52.472656 12.347656 C 53.492188 12.347656 54.273438 12.75 54.8125 13.558594 C 55.351562 14.367188 55.621094 15.539062 55.621094 17.078125 C 55.621094 18.609375 55.351562 19.78125 54.8125 20.589844 C 54.273438 21.398438 53.492188 21.800781 52.472656 21.800781 C 51.449219 21.800781 50.671875 21.398438 50.132812 20.589844 C 49.59375 19.78125 49.324219 18.609375 49.324219 17.078125 C 49.324219 15.539062 49.59375 14.367188 50.132812 13.558594 C 50.671875 12.75 51.449219 12.347656 52.472656 12.347656 Z M 52.472656 12.347656 "/>
<path style=" stroke:none;fill-rule:nonzero;fill:rgb(0%,0%,0%);fill-opacity:1;" d="M 9.71875 116.113281 L 11.660156 116.113281 L 11.660156 113.800781 L 12.535156 113.800781 L 12.535156 116.113281 L 16.246094 116.113281 C 16.804688 116.113281 17.160156 116.039062 17.320312 115.886719 C 17.480469 115.734375 17.558594 115.421875 17.558594 114.953125 L 17.558594 113.800781 L 18.496094 113.800781 L 18.496094 114.953125 C 18.496094 115.820312 18.335938 116.417969 18.011719 116.75 C 17.6875 117.078125 17.101562 117.242188 16.246094 117.242188 L 12.535156 117.242188 L 12.535156 118.066406 L 11.660156 118.066406 L 11.660156 117.242188 L 9.71875 117.242188 Z M 9.71875 116.113281 "/>
<path style=" stroke:none;fill-rule:nonzero;fill:rgb(0%,0%,0%);fill-opacity:1;" d="M 15.0625 109.21875 C 15.0625 110.125 15.164062 110.753906 15.371094 111.105469 C 15.578125 111.453125 15.933594 111.628906 16.433594 111.628906 C 16.832031 111.628906 17.148438 111.496094 17.382812 111.234375 C 17.617188 110.972656 17.734375 110.613281 17.734375 110.164062 C 17.734375 109.539062 17.511719 109.039062 17.070312 108.664062 C 16.628906 108.289062 16.042969 108.101562 15.3125 108.101562 L 15.0625 108.101562 Z M 14.597656 106.976562 L 18.496094 106.976562 L 18.496094 108.101562 L 17.460938 108.101562 C 17.875 108.355469 18.179688 108.675781 18.378906 109.058594 C 18.578125 109.441406 18.675781 109.910156 18.675781 110.464844 C 18.675781 111.164062 18.480469 111.71875 18.085938 112.132812 C 17.691406 112.546875 17.167969 112.753906 16.507812 112.753906 C 15.738281 112.753906 15.160156 112.496094 14.769531 111.980469 C 14.378906 111.464844 14.183594 110.695312 14.183594 109.675781 L 14.183594 108.101562 L 14.070312 108.101562 C 13.554688 108.101562 13.15625 108.269531 12.871094 108.609375 C 12.589844 108.949219 12.449219 109.425781 12.449219 110.042969 C 12.449219 110.433594 12.496094 110.8125 12.589844 111.183594 C 12.683594 111.554688 12.824219 111.910156 13.011719 112.25 L 11.972656 112.25 C 11.8125 111.839844 11.695312 111.441406 11.617188 111.054688 C 11.539062 110.667969 11.496094 110.292969 11.496094 109.925781 C 11.496094 108.9375 11.753906 108.199219 12.265625 107.710938 C 12.777344 107.222656 13.554688 106.976562 14.597656 106.976562 Z M 14.597656 106.976562 "/>
<path style=" stroke:none;fill-rule:nonzero;fill:rgb(0%,0%,0%);fill-opacity:1;" d="M 14.371094 98.980469 L 18.496094 98.980469 L 18.496094 100.105469 L 14.40625 100.105469 C 13.761719 100.105469 13.277344 100.230469 12.957031 100.484375 C 12.636719 100.734375 12.472656 101.113281 12.472656 101.617188 C 12.472656 102.222656 12.667969 102.703125 13.054688 103.054688 C 13.441406 103.402344 13.964844 103.578125 14.632812 103.578125 L 18.496094 103.578125 L 18.496094 104.707031 L 11.660156 104.707031 L 11.660156 103.578125 L 12.722656 103.578125 C 12.3125 103.308594 12.003906 102.992188 11.800781 102.628906 C 11.597656 102.265625 11.496094 101.84375 11.496094 101.367188 C 11.496094 100.582031 11.742188 99.988281 12.226562 99.585938 C 12.710938 99.183594 13.425781 98.980469 14.371094 98.980469 Z M 14.371094 98.980469 "/>
<path style=" stroke:none;fill-rule:nonzero;fill:rgb(0%,0%,0%);fill-opacity:1;" d="M 14.371094 91.058594 L 18.496094 91.058594 L 18.496094 92.179688 L 14.40625 92.179688 C 13.761719 92.179688 13.277344 92.308594 12.957031 92.558594 C 12.636719 92.8125 12.472656 93.191406 12.472656 93.695312 C 12.472656 94.300781 12.667969 94.78125 13.054688 95.128906 C 13.441406 95.480469 13.964844 95.65625 14.632812 95.65625 L 18.496094 95.65625 L 18.496094 96.785156 L 9 96.785156 L 9 95.65625 L 12.722656 95.65625 C 12.3125 95.386719 12.003906 95.070312 11.800781 94.707031 C 11.597656 94.34375 11.496094 93.921875 11.496094 93.445312 C 11.496094 92.660156 11.742188 92.066406 12.226562 91.664062 C 12.710938 91.261719 13.425781 91.058594 14.371094 91.058594 Z M 14.371094 91.058594 "/>
<path style=" stroke:none;fill-rule:nonzero;fill:rgb(0%,0%,0%);fill-opacity:1;" d="M 9.011719 86.121094 C 9.949219 86.667969 10.875 87.070312 11.789062 87.335938 C 12.707031 87.601562 13.632812 87.734375 14.574219 87.734375 C 15.511719 87.734375 16.441406 87.601562 17.363281 87.332031 C 18.285156 87.066406 19.214844 86.664062 20.144531 86.121094 L 20.144531 87.097656 C 19.1875 87.707031 18.25 88.164062 17.324219 88.46875 C 16.402344 88.773438 15.484375 88.921875 14.574219 88.921875 C 13.667969 88.921875 12.753906 88.773438 11.832031 88.472656 C 10.914062 88.171875 9.972656 87.710938 9.011719 87.097656 Z M 9.011719 86.121094 "/>
<path style=" stroke:none;fill-rule:nonzero;fill:rgb(0%,0%,0%);fill-opacity:1;" d="M 11.660156 78.257812 L 14.988281 80.730469 L 18.496094 78.132812 L 18.496094 79.457031 L 15.8125 81.445312 L 18.496094 83.433594 L 18.496094 84.761719 L 14.921875 82.105469 L 11.660156 84.535156 L 11.660156 83.210938 L 14.097656 81.398438 L 11.660156 79.585938 Z M 11.660156 78.257812 "/>
<path style=" stroke:none;fill-rule:nonzero;fill:rgb(0%,0%,0%);fill-opacity:1;" d="M 9.011719 76.722656 L 9.011719 75.746094 C 9.972656 75.136719 10.914062 74.679688 11.832031 74.375 C 12.753906 74.074219 13.667969 73.921875 14.574219 73.921875 C 15.484375 73.921875 16.402344 74.074219 17.324219 74.375 C 18.25 74.679688 19.1875 75.136719 20.144531 75.746094 L 20.144531 76.722656 C 19.214844 76.179688 18.285156 75.777344 17.363281 75.511719 C 16.441406 75.242188 15.511719 75.109375 14.574219 75.109375 C 13.632812 75.109375 12.707031 75.242188 11.789062 75.511719 C 10.875 75.777344 9.949219 76.179688 9.011719 76.722656 Z M 9.011719 76.722656 "/>
<path style="fill:none;stroke-width:1.5;stroke-linecap:square;stroke-linejoin:round;stroke:rgb(12.156863%,46.666667%,70.588235%);stroke-opacity:1;stroke-miterlimit:4;" d="M 64.84375 139.5 L 135.03125 139.40625 L 144.603125 139.1875 L 150.984375 138.809375 L 155.76875 138.246875 L 158.959375 137.6375 L 162.15 136.74375 L 163.74375 136.15 L 165.340625 135.43125 L 166.934375 134.565625 L 168.53125 133.525 L 170.125 132.278125 L 171.721875 130.7875 L 173.315625 129.01875 L 174.9125 126.93125 L 176.50625 124.48125 L 178.103125 121.628125 L 179.696875 118.334375 L 181.290625 114.575 L 182.8875 110.334375 L 184.48125 105.6125 L 186.078125 100.4375 L 189.26875 88.934375 L 197.24375 58.146875 L 198.840625 52.5625 L 200.434375 47.3875 L 202.03125 42.665625 L 203.625 38.425 L 205.21875 34.665625 L 206.815625 31.371875 L 208.409375 28.51875 L 210.00625 26.06875 L 211.6 23.98125 L 213.196875 22.2125 L 214.790625 20.721875 L 216.3875 19.475 L 217.98125 18.434375 L 219.578125 17.56875 L 221.171875 16.85 L 224.3625 15.765625 L 227.553125 15.028125 L 230.74375 14.528125 L 235.528125 14.065625 L 241.909375 13.75625 L 251.48125 13.578125 L 272.21875 13.50625 L 318.478125 13.5 " transform="matrix(1.25,0,0,1.25,0,-0.000000000000014211)"/>
<path style="fill:none;stroke-width:0.8;stroke-linecap:square;stroke-linejoin:miter;stroke:rgb(0%,0%,0%);stroke-opacity:1;stroke-miterlimit:4;" d="M 52.1625 145.8 L 52.1625 7.2 " transform="matrix(1.25,0,0,1.25,0,-0.000000000000014211)"/>
<path style="fill:none;stroke-width:0.8;stroke-linecap:square;stroke-linejoin:miter;stroke:rgb(0%,0%,0%);stroke-opacity:1;stroke-miterlimit:4;" d="M 331.159375 145.8 L 331.159375 7.2 " transform="matrix(1.25,0,0,1.25,0,-0.000000000000014211)"/>
<path style="fill:none;stroke-width:0.8;stroke-linecap:square;stroke-linejoin:miter;stroke:rgb(0%,0%,0%);stroke-opacity:1;stroke-miterlimit:4;" d="M 52.1625 145.8 L 331.1625 145.8 " transform="matrix(1.25,0,0,1.25,0,-0.000000000000014211)"/>
<path style="fill:none;stroke-width:0.8;stroke-linecap:square;stroke-linejoin:miter;stroke:rgb(0%,0%,0%);stroke-opacity:1;stroke-miterlimit:4;" d="M 52.1625 7.2 L 331.1625 7.2 " transform="matrix(1.25,0,0,1.25,0,-0.000000000000014211)"/>
</g>
</svg>
