<?xml version="1.0" encoding="UTF-8"?>
<svg xmlns="http://www.w3.org/2000/svg" xmlns:xlink="http://www.w3.org/1999/xlink" width="329pt" height="229pt" viewBox="0 0 329 229" version="1.1">
<defs>
<clipPath id="clip1">
  <path d="M 102 9 L 104 9 L 104 182.25 L 102 182.25 Z M 102 9 "/>
</clipPath>
<clipPath id="clip2">
  <path d="M 153 9 L 155 9 L 155 182.25 L 153 182.25 Z M 153 9 "/>
</clipPath>
<clipPath id="clip3">
  <path d="M 204 9 L 207 9 L 207 182.25 L 204 182.25 Z M 204 9 "/>
</clipPath>
<clipPath id="clip4">
  <path d="M 256 9 L 258 9 L 258 182.25 L 256 182.25 Z M 256 9 "/>
</clipPath>
<clipPath id="clip5">
  <path d="M 307 9 L 308.347656 9 L 308.347656 182.25 L 307 182.25 Z M 307 9 "/>
</clipPath>
<clipPath id="clip6">
  <path d="M 64.222656 136 L 308.347656 136 L 308.347656 138 L 64.222656 138 Z M 64.222656 136 "/>
</clipPath>
<clipPath id="clip7">
  <path d="M 64.222656 87 L 308.347656 87 L 308.347656 89 L 64.222656 89 Z M 64.222656 87 "/>
</clipPath>
<clipPath id="clip8">
  <path d="M 64.222656 38 L 308.347656 38 L 308.347656 40 L 64.222656 40 Z M 64.222656 38 "/>
</clipPath>
<clipPath id="clip9">
  <path d="M 64.222656 27 L 308.347656 27 L 308.347656 176 L 64.222656 176 Z M 64.222656 27 "/>
</clipPath>
<clipPath id="clip10">
  <path d="M 64.222656 15 L 308.347656 15 L 308.347656 19 L 64.222656 19 Z M 64.222656 15 "/>
</clipPath>
<filter id="alpha" filterUnits="objectBoundingBox" x="0%" y="0%" width="100%" height="100%">
  <feColorMatrix type="matrix" in="SourceGraphic" values="0 0 0 0 1 0 0 0 0 1 0 0 0 0 1 0 0 0 1 0"/>
</filter>
<mask id="mask0">
  <g filter="url(#alpha)">
<rect x="0" y="0" width="329" height="229" style="fill:rgb(0%,0%,0%);fill-opacity:0.8;stroke:none;"/>
  </g>
</mask>
<clipPath id="clip11">
  <rect x="0" y="0" width="329" height="229"/>
</clipPath>
<g id="surface5" clip-path="url(#clip11)">
<path style="fill-rule:nonzero;fill:rgb(100%,100%,100%);fill-opacity:1;stroke-width:1;stroke-linecap:butt;stroke-linejoin:miter;stroke:rgb(80%,80%,80%);stroke-opacity:1;stroke-miterlimit:4;" d="M 58.378125 140.8 L 113.653125 140.8 C 114.9875 140.8 115.653125 140.134375 115.653125 138.8 L 115.653125 110.44375 C 115.653125 109.109375 114.9875 108.44375 113.653125 108.44375 L 58.378125 108.44375 C 57.04375 108.44375 56.378125 109.109375 56.378125 110.44375 L 56.378125 138.8 C 56.378125 140.134375 57.04375 140.8 58.378125 140.8 Z M 58.378125 140.8 " transform="matrix(1.25,0,0,1.25,0,0)"/>
</g>
</defs>
<g id="surface1">
<rect x="0" y="0" width="329" height="229" style="fill:rgb(100%,100%,100%);fill-opacity:1;stroke:none;"/>
<path style=" stroke:none;fill-rule:nonzero;fill:rgb(100%,100%,100%);fill-opacity:1;" d="M 64.222656 182.25 L 308.347656 182.25 L 308.347656 9 L 64.222656 9 Z M 64.222656 182.25 "/>
<g clip-path="url(#clip1)" clip-rule="nonzero">
<path style="fill:none;stroke-width:0.8;stroke-linecap:square;stroke-linejoin:round;stroke:rgb(69.019608%,69.019608%,69.019608%);stroke-opacity:1;stroke-miterlimit:4;" d="M 82.215625 145.8 L 82.215625 7.2 " transform="matrix(1.25,0,0,1.25,0,0)"/>
</g>
<path style="fill:none;stroke-width:0.8;stroke-linecap:butt;stroke-linejoin:round;stroke:rgb(0%,0%,0%);stroke-opacity:1;stroke-miterlimit:4;" d="M 0.000658 0 L 0.000658 3.5 " transform="matrix(1.25,0,0,1.25,102.768709,182.25)"/>
<path style=" stroke:none;fill-rule:nonzero;fill:rgb(0%,0%,0%);fill-opacity:1;" d="M 97.214844 199.460938 L 101.515625 199.460938 L 101.515625 200.5 L 95.730469 200.5 L 95.730469 199.460938 C 96.199219 198.976562 96.835938 198.328125 97.644531 197.511719 C 98.453125 196.695312 98.960938 196.167969 99.167969 195.933594 C 99.5625 195.488281 99.835938 195.113281 99.992188 194.808594 C 100.152344 194.5 100.230469 194.199219 100.230469 193.902344 C 100.230469 193.417969 100.058594 193.023438 99.71875 192.71875 C 99.378906 192.410156 98.9375 192.257812 98.390625 192.257812 C 98.003906 192.257812 97.597656 192.324219 97.167969 192.460938 C 96.738281 192.59375 96.28125 192.796875 95.792969 193.070312 L 95.792969 191.824219 C 96.289062 191.625 96.75 191.476562 97.183594 191.375 C 97.613281 191.273438 98.011719 191.222656 98.367188 191.222656 C 99.3125 191.222656 100.066406 191.457031 100.625 191.929688 C 101.1875 192.402344 101.46875 193.03125 101.46875 193.820312 C 101.46875 194.195312 101.398438 194.550781 101.257812 194.886719 C 101.117188 195.222656 100.863281 195.617188 100.492188 196.074219 C 100.390625 196.191406 100.066406 196.53125 99.519531 197.097656 C 98.976562 197.660156 98.207031 198.449219 97.214844 199.460938 Z M 97.214844 199.460938 "/>
<path style=" stroke:none;fill-rule:nonzero;fill:rgb(0%,0%,0%);fill-opacity:1;" d="M 106.742188 192.199219 C 106.105469 192.199219 105.628906 192.511719 105.308594 193.136719 C 104.992188 193.757812 104.832031 194.699219 104.832031 195.953125 C 104.832031 197.199219 104.992188 198.136719 105.308594 198.761719 C 105.628906 199.386719 106.105469 199.699219 106.742188 199.699219 C 107.378906 199.699219 107.859375 199.386719 108.179688 198.761719 C 108.5 198.136719 108.660156 197.199219 108.660156 195.953125 C 108.660156 194.699219 108.5 193.757812 108.179688 193.136719 C 107.859375 192.511719 107.378906 192.199219 106.742188 192.199219 Z M 106.742188 191.222656 C 107.761719 191.222656 108.542969 191.625 109.082031 192.433594 C 109.621094 193.242188 109.890625 194.414062 109.890625 195.953125 C 109.890625 197.484375 109.621094 198.65625 109.082031 199.464844 C 108.542969 200.273438 107.761719 200.675781 106.742188 200.675781 C 105.71875 200.675781 104.941406 200.273438 104.402344 199.464844 C 103.863281 198.65625 103.59375 197.484375 103.59375 195.953125 C 103.59375 194.414062 103.863281 193.242188 104.402344 192.433594 C 104.941406 191.625 105.71875 191.222656 106.742188 191.222656 Z M 106.742188 191.222656 "/>
<g clip-path="url(#clip2)" clip-rule="nonzero">
<path style="fill:none;stroke-width:0.8;stroke-linecap:square;stroke-linejoin:round;stroke:rgb(69.019608%,69.019608%,69.019608%);stroke-opacity:1;stroke-miterlimit:4;" d="M 123.33125 145.8 L 123.33125 7.2 " transform="matrix(1.25,0,0,1.25,0,0)"/>
</g>
<path style="fill:none;stroke-width:0.8;stroke-linecap:butt;stroke-linejoin:round;stroke:rgb(0%,0%,0%);stroke-opacity:1;stroke-miterlimit:4;" d="M 0.000493 0 L 0.000493 3.5 " transform="matrix(1.25,0,0,1.25,154.163446,182.25)"/>
<path style=" stroke:none;fill-rule:nonzero;fill:rgb(0%,0%,0%);fill-opacity:1;" d="M 150.933594 192.460938 L 147.820312 197.324219 L 150.933594 197.324219 Z M 150.609375 191.386719 L 152.160156 191.386719 L 152.160156 197.324219 L 153.460938 197.324219 L 153.460938 198.351562 L 152.160156 198.351562 L 152.160156 200.5 L 150.933594 200.5 L 150.933594 198.351562 L 146.820312 198.351562 L 146.820312 197.160156 Z M 150.609375 191.386719 "/>
<path style=" stroke:none;fill-rule:nonzero;fill:rgb(0%,0%,0%);fill-opacity:1;" d="M 158.136719 192.199219 C 157.5 192.199219 157.023438 192.511719 156.703125 193.136719 C 156.386719 193.757812 156.226562 194.699219 156.226562 195.953125 C 156.226562 197.199219 156.386719 198.136719 156.703125 198.761719 C 157.023438 199.386719 157.5 199.699219 158.136719 199.699219 C 158.773438 199.699219 159.253906 199.386719 159.574219 198.761719 C 159.894531 198.136719 160.054688 197.199219 160.054688 195.953125 C 160.054688 194.699219 159.894531 193.757812 159.574219 193.136719 C 159.253906 192.511719 158.773438 192.199219 158.136719 192.199219 Z M 158.136719 191.222656 C 159.15625 191.222656 159.9375 191.625 160.476562 192.433594 C 161.015625 193.242188 161.285156 194.414062 161.285156 195.953125 C 161.285156 197.484375 161.015625 198.65625 160.476562 199.464844 C 159.9375 200.273438 159.15625 200.675781 158.136719 200.675781 C 157.113281 200.675781 156.335938 200.273438 155.796875 199.464844 C 155.257812 198.65625 154.988281 197.484375 154.988281 195.953125 C 154.988281 194.414062 155.257812 193.242188 155.796875 192.433594 C 156.335938 191.625 157.113281 191.222656 158.136719 191.222656 Z M 158.136719 191.222656 "/>
<g clip-path="url(#clip3)" clip-rule="nonzero">
<path style="fill:none;stroke-width:0.8;stroke-linecap:square;stroke-linejoin:round;stroke:rgb(69.019608%,69.019608%,69.019608%);stroke-opacity:1;stroke-miterlimit:4;" d="M 164.446875 145.8 L 164.446875 7.2 " transform="matrix(1.25,0,0,1.25,0,0)"/>
</g>
<path style="fill:none;stroke-width:0.8;stroke-linecap:butt;stroke-linejoin:round;stroke:rgb(0%,0%,0%);stroke-opacity:1;stroke-miterlimit:4;" d="M 0.000329 0 L 0.000329 3.5 " transform="matrix(1.25,0,0,1.25,205.558183,182.25)"/>
<path style=" stroke:none;fill-rule:nonzero;fill:rgb(0%,0%,0%);fill-opacity:1;" d="M 201.730469 195.453125 C 201.179688 195.453125 200.738281 195.640625 200.414062 196.019531 C 200.09375 196.398438 199.929688 196.914062 199.929688 197.574219 C 199.929688 198.230469 200.09375 198.746094 200.414062 199.128906 C 200.738281 199.507812 201.179688 199.699219 201.730469 199.699219 C 202.285156 199.699219 202.722656 199.507812 203.046875 199.128906 C 203.371094 198.746094 203.53125 198.230469 203.53125 197.574219 C 203.53125 196.914062 203.371094 196.398438 203.046875 196.019531 C 202.722656 195.640625 202.285156 195.453125 201.730469 195.453125 Z M 204.179688 191.585938 L 204.179688 192.710938 C 203.871094 192.5625 203.558594 192.453125 203.242188 192.375 C 202.925781 192.296875 202.613281 192.257812 202.304688 192.257812 C 201.492188 192.257812 200.867188 192.53125 200.4375 193.082031 C 200.011719 193.632812 199.765625 194.460938 199.703125 195.574219 C 199.945312 195.21875 200.246094 194.945312 200.605469 194.757812 C 200.96875 194.570312 201.371094 194.476562 201.804688 194.476562 C 202.71875 194.476562 203.441406 194.753906 203.972656 195.308594 C 204.503906 195.863281 204.769531 196.617188 204.769531 197.574219 C 204.769531 198.511719 204.496094 199.261719 203.941406 199.828125 C 203.386719 200.394531 202.652344 200.675781 201.730469 200.675781 C 200.675781 200.675781 199.871094 200.273438 199.3125 199.464844 C 198.757812 198.65625 198.476562 197.484375 198.476562 195.953125 C 198.476562 194.511719 198.820312 193.363281 199.503906 192.507812 C 200.1875 191.648438 201.105469 191.222656 202.253906 191.222656 C 202.566406 191.222656 202.878906 191.25 203.191406 191.3125 C 203.507812 191.375 203.835938 191.464844 204.179688 191.585938 Z M 204.179688 191.585938 "/>
<path style=" stroke:none;fill-rule:nonzero;fill:rgb(0%,0%,0%);fill-opacity:1;" d="M 209.53125 192.199219 C 208.894531 192.199219 208.417969 192.511719 208.097656 193.136719 C 207.78125 193.757812 207.621094 194.699219 207.621094 195.953125 C 207.621094 197.199219 207.78125 198.136719 208.097656 198.761719 C 208.417969 199.386719 208.894531 199.699219 209.53125 199.699219 C 210.167969 199.699219 210.648438 199.386719 210.96875 198.761719 C 211.289062 198.136719 211.449219 197.199219 211.449219 195.953125 C 211.449219 194.699219 211.289062 193.757812 210.96875 193.136719 C 210.648438 192.511719 210.167969 192.199219 209.53125 192.199219 Z M 209.53125 191.222656 C 210.550781 191.222656 211.332031 191.625 211.871094 192.433594 C 212.410156 193.242188 212.679688 194.414062 212.679688 195.953125 C 212.679688 197.484375 212.410156 198.65625 211.871094 199.464844 C 211.332031 200.273438 210.550781 200.675781 209.53125 200.675781 C 208.507812 200.675781 207.730469 200.273438 207.191406 199.464844 C 206.652344 198.65625 206.382812 197.484375 206.382812 195.953125 C 206.382812 194.414062 206.652344 193.242188 207.191406 192.433594 C 207.730469 191.625 208.507812 191.222656 209.53125 191.222656 Z M 209.53125 191.222656 "/>
<g clip-path="url(#clip4)" clip-rule="nonzero">
<path style="fill:none;stroke-width:0.8;stroke-linecap:square;stroke-linejoin:round;stroke:rgb(69.019608%,69.019608%,69.019608%);stroke-opacity:1;stroke-miterlimit:4;" d="M 205.5625 145.8 L 205.5625 7.2 " transform="matrix(1.25,0,0,1.25,0,0)"/>
</g>
<path style="fill:none;stroke-width:0.8;stroke-linecap:butt;stroke-linejoin:round;stroke:rgb(0%,0%,0%);stroke-opacity:1;stroke-miterlimit:4;" d="M 0.000164 0 L 0.000164 3.5 " transform="matrix(1.25,0,0,1.25,256.95292,182.25)"/>
<path style=" stroke:none;fill-rule:nonzero;fill:rgb(0%,0%,0%);fill-opacity:1;" d="M 252.972656 196.171875 C 252.386719 196.171875 251.925781 196.328125 251.589844 196.640625 C 251.253906 196.953125 251.085938 197.386719 251.085938 197.933594 C 251.085938 198.484375 251.253906 198.914062 251.589844 199.230469 C 251.925781 199.542969 252.386719 199.699219 252.972656 199.699219 C 253.558594 199.699219 254.019531 199.542969 254.355469 199.226562 C 254.695312 198.910156 254.863281 198.480469 254.863281 197.933594 C 254.863281 197.386719 254.695312 196.953125 254.359375 196.640625 C 254.027344 196.328125 253.5625 196.171875 252.972656 196.171875 Z M 251.738281 195.648438 C 251.210938 195.515625 250.800781 195.269531 250.503906 194.910156 C 250.210938 194.546875 250.0625 194.101562 250.0625 193.582031 C 250.0625 192.855469 250.320312 192.277344 250.839844 191.855469 C 251.359375 191.433594 252.070312 191.222656 252.972656 191.222656 C 253.878906 191.222656 254.59375 191.433594 255.109375 191.855469 C 255.625 192.277344 255.882812 192.855469 255.882812 193.582031 C 255.882812 194.101562 255.738281 194.546875 255.441406 194.910156 C 255.148438 195.269531 254.738281 195.515625 254.210938 195.648438 C 254.804688 195.785156 255.269531 196.054688 255.597656 196.460938 C 255.929688 196.863281 256.097656 197.351562 256.097656 197.933594 C 256.097656 198.816406 255.828125 199.496094 255.289062 199.96875 C 254.75 200.441406 253.976562 200.675781 252.972656 200.675781 C 251.96875 200.675781 251.195312 200.441406 250.65625 199.96875 C 250.117188 199.496094 249.847656 198.816406 249.847656 197.933594 C 249.847656 197.351562 250.015625 196.863281 250.347656 196.460938 C 250.683594 196.054688 251.144531 195.785156 251.738281 195.648438 Z M 251.289062 193.699219 C 251.289062 194.171875 251.4375 194.539062 251.730469 194.804688 C 252.027344 195.066406 252.441406 195.199219 252.972656 195.199219 C 253.503906 195.199219 253.917969 195.066406 254.214844 194.804688 C 254.515625 194.539062 254.664062 194.171875 254.664062 193.699219 C 254.664062 193.226562 254.515625 192.859375 254.214844 192.59375 C 253.917969 192.328125 253.503906 192.199219 252.972656 192.199219 C 252.441406 192.199219 252.027344 192.328125 251.730469 192.59375 C 251.4375 192.859375 251.289062 193.226562 251.289062 193.699219 Z M 251.289062 193.699219 "/>
<path style=" stroke:none;fill-rule:nonzero;fill:rgb(0%,0%,0%);fill-opacity:1;" d="M 260.925781 192.199219 C 260.292969 192.199219 259.8125 192.511719 259.492188 193.136719 C 259.175781 193.757812 259.015625 194.699219 259.015625 195.953125 C 259.015625 197.199219 259.175781 198.136719 259.492188 198.761719 C 259.8125 199.386719 260.292969 199.699219 260.925781 199.699219 C 261.566406 199.699219 262.042969 199.386719 262.363281 198.761719 C 262.683594 198.136719 262.84375 197.199219 262.84375 195.953125 C 262.84375 194.699219 262.683594 193.757812 262.363281 193.136719 C 262.042969 192.511719 261.566406 192.199219 260.925781 192.199219 Z M 260.925781 191.222656 C 261.949219 191.222656 262.726562 191.625 263.265625 192.433594 C 263.804688 193.242188 264.074219 194.414062 264.074219 195.953125 C 264.074219 197.484375 263.804688 198.65625 263.265625 199.464844 C 262.726562 200.273438 261.949219 200.675781 260.925781 200.675781 C 259.90625 200.675781 259.125 200.273438 258.585938 199.464844 C 258.046875 198.65625 257.777344 197.484375 257.777344 195.953125 C 257.777344 194.414062 258.046875 193.242188 258.585938 192.433594 C 259.125 191.625 259.90625 191.222656 260.925781 191.222656 Z M 260.925781 191.222656 "/>
<g clip-path="url(#clip5)" clip-rule="nonzero">
<path style="fill:none;stroke-width:0.8;stroke-linecap:square;stroke-linejoin:round;stroke:rgb(69.019608%,69.019608%,69.019608%);stroke-opacity:1;stroke-miterlimit:4;" d="M 246.678125 145.8 L 246.678125 7.2 " transform="matrix(1.25,0,0,1.25,0,0)"/>
</g>
<path style="fill:none;stroke-width:0.8;stroke-linecap:butt;stroke-linejoin:round;stroke:rgb(0%,0%,0%);stroke-opacity:1;stroke-miterlimit:4;" d="M 0 0 L 0 3.5 " transform="matrix(1.25,0,0,1.25,308.347656,182.25)"/>
<path style=" stroke:none;fill-rule:nonzero;fill:rgb(0%,0%,0%);fill-opacity:1;" d="M 297.96875 199.460938 L 299.984375 199.460938 L 299.984375 192.507812 L 297.789062 192.949219 L 297.789062 191.824219 L 299.96875 191.386719 L 301.203125 191.386719 L 301.203125 199.460938 L 303.21875 199.460938 L 303.21875 200.5 L 297.96875 200.5 Z M 297.96875 199.460938 "/>
<path style=" stroke:none;fill-rule:nonzero;fill:rgb(0%,0%,0%);fill-opacity:1;" d="M 308.34375 192.199219 C 307.710938 192.199219 307.230469 192.511719 306.910156 193.136719 C 306.59375 193.757812 306.433594 194.699219 306.433594 195.953125 C 306.433594 197.199219 306.59375 198.136719 306.910156 198.761719 C 307.230469 199.386719 307.710938 199.699219 308.34375 199.699219 C 308.984375 199.699219 309.460938 199.386719 309.78125 198.761719 C 310.101562 198.136719 310.261719 197.199219 310.261719 195.953125 C 310.261719 194.699219 310.101562 193.757812 309.78125 193.136719 C 309.460938 192.511719 308.984375 192.199219 308.34375 192.199219 Z M 308.34375 191.222656 C 309.367188 191.222656 310.144531 191.625 310.683594 192.433594 C 311.222656 193.242188 311.492188 194.414062 311.492188 195.953125 C 311.492188 197.484375 311.222656 198.65625 310.683594 199.464844 C 310.144531 200.273438 309.367188 200.675781 308.34375 200.675781 C 307.324219 200.675781 306.542969 200.273438 306.003906 199.464844 C 305.464844 198.65625 305.195312 197.484375 305.195312 195.953125 C 305.195312 194.414062 305.464844 193.242188 306.003906 192.433594 C 306.542969 191.625 307.324219 191.222656 308.34375 191.222656 Z M 308.34375 191.222656 "/>
<path style=" stroke:none;fill-rule:nonzero;fill:rgb(0%,0%,0%);fill-opacity:1;" d="M 316.296875 192.199219 C 315.664062 192.199219 315.183594 192.511719 314.863281 193.136719 C 314.546875 193.757812 314.386719 194.699219 314.386719 195.953125 C 314.386719 197.199219 314.546875 198.136719 314.863281 198.761719 C 315.183594 199.386719 315.664062 199.699219 316.296875 199.699219 C 316.9375 199.699219 317.414062 199.386719 317.734375 198.761719 C 318.054688 198.136719 318.214844 197.199219 318.214844 195.953125 C 318.214844 194.699219 318.054688 193.757812 317.734375 193.136719 C 317.414062 192.511719 316.9375 192.199219 316.296875 192.199219 Z M 316.296875 191.222656 C 317.320312 191.222656 318.097656 191.625 318.636719 192.433594 C 319.175781 193.242188 319.445312 194.414062 319.445312 195.953125 C 319.445312 197.484375 319.175781 198.65625 318.636719 199.464844 C 318.097656 200.273438 317.320312 200.675781 316.296875 200.675781 C 315.277344 200.675781 314.496094 200.273438 313.957031 199.464844 C 313.417969 198.65625 313.148438 197.484375 313.148438 195.953125 C 313.148438 194.414062 313.417969 193.242188 313.957031 192.433594 C 314.496094 191.625 315.277344 191.222656 316.296875 191.222656 Z M 316.296875 191.222656 "/>
<path style=" stroke:none;fill-rule:nonzero;fill:rgb(0%,0%,0%);fill-opacity:1;" d="M 171.019531 213.898438 L 171.019531 214.445312 L 165.855469 214.445312 C 165.90625 215.21875 166.136719 215.808594 166.554688 216.214844 C 166.972656 216.617188 167.550781 216.820312 168.296875 216.820312 C 168.726562 216.820312 169.144531 216.769531 169.550781 216.664062 C 169.957031 216.558594 170.359375 216.398438 170.757812 216.1875 L 170.757812 217.25 C 170.355469 217.417969 169.941406 217.550781 169.515625 217.640625 C 169.09375 217.730469 168.664062 217.773438 168.230469 217.773438 C 167.140625 217.773438 166.273438 217.457031 165.636719 216.824219 C 165 216.1875 164.683594 215.328125 164.683594 214.246094 C 164.683594 213.125 164.984375 212.238281 165.589844 211.582031 C 166.195312 210.925781 167.007812 210.597656 168.035156 210.597656 C 168.953125 210.597656 169.679688 210.890625 170.214844 211.484375 C 170.75 212.074219 171.019531 212.878906 171.019531 213.898438 Z M 169.894531 213.566406 C 169.886719 212.953125 169.714844 212.464844 169.378906 212.097656 C 169.042969 211.730469 168.601562 211.546875 168.046875 211.546875 C 167.421875 211.546875 166.917969 211.722656 166.542969 212.078125 C 166.167969 212.433594 165.949219 212.929688 165.890625 213.574219 Z M 169.894531 213.566406 "/>
<path style=" stroke:none;fill-rule:nonzero;fill:rgb(0%,0%,0%);fill-opacity:1;" d="M 173.949219 216.570312 L 173.949219 220.195312 L 172.820312 220.195312 L 172.820312 210.761719 L 173.949219 210.761719 L 173.949219 211.796875 C 174.183594 211.390625 174.484375 211.089844 174.84375 210.894531 C 175.203125 210.695312 175.632812 210.597656 176.132812 210.597656 C 176.964844 210.597656 177.640625 210.925781 178.15625 211.585938 C 178.675781 212.242188 178.9375 213.109375 178.9375 214.183594 C 178.9375 215.257812 178.675781 216.125 178.15625 216.785156 C 177.640625 217.445312 176.964844 217.773438 176.132812 217.773438 C 175.632812 217.773438 175.203125 217.675781 174.84375 217.476562 C 174.484375 217.277344 174.183594 216.976562 173.949219 216.570312 Z M 177.769531 214.183594 C 177.769531 213.359375 177.601562 212.710938 177.261719 212.242188 C 176.921875 211.769531 176.453125 211.535156 175.859375 211.535156 C 175.265625 211.535156 174.796875 211.769531 174.457031 212.242188 C 174.117188 212.710938 173.949219 213.359375 173.949219 214.183594 C 173.949219 215.007812 174.117188 215.65625 174.457031 216.128906 C 174.796875 216.597656 175.265625 216.832031 175.859375 216.832031 C 176.453125 216.832031 176.921875 216.597656 177.261719 216.128906 C 177.601562 215.65625 177.769531 215.007812 177.769531 214.183594 Z M 177.769531 214.183594 "/>
<path style=" stroke:none;fill-rule:nonzero;fill:rgb(0%,0%,0%);fill-opacity:1;" d="M 183.445312 211.546875 C 182.84375 211.546875 182.367188 211.78125 182.015625 212.253906 C 181.667969 212.722656 181.492188 213.367188 181.492188 214.183594 C 181.492188 215 181.664062 215.644531 182.011719 216.117188 C 182.363281 216.585938 182.839844 216.820312 183.445312 216.820312 C 184.042969 216.820312 184.519531 216.585938 184.867188 216.113281 C 185.21875 215.640625 185.390625 214.996094 185.390625 214.183594 C 185.390625 213.375 185.21875 212.730469 184.867188 212.257812 C 184.519531 211.785156 184.042969 211.546875 183.445312 211.546875 Z M 183.445312 210.597656 C 184.421875 210.597656 185.1875 210.914062 185.746094 211.550781 C 186.304688 212.183594 186.582031 213.0625 186.582031 214.183594 C 186.582031 215.300781 186.304688 216.179688 185.746094 216.820312 C 185.1875 217.457031 184.421875 217.773438 183.445312 217.773438 C 182.464844 217.773438 181.695312 217.457031 181.140625 216.820312 C 180.585938 216.179688 180.308594 215.300781 180.308594 214.183594 C 180.308594 213.0625 180.585938 212.183594 181.140625 211.550781 C 181.695312 210.914062 182.464844 210.597656 183.445312 210.597656 Z M 183.445312 210.597656 "/>
<path style=" stroke:none;fill-rule:nonzero;fill:rgb(0%,0%,0%);fill-opacity:1;" d="M 193.363281 211.023438 L 193.363281 212.074219 C 193.046875 211.898438 192.726562 211.765625 192.410156 211.679688 C 192.089844 211.589844 191.769531 211.546875 191.441406 211.546875 C 190.714844 211.546875 190.148438 211.777344 189.742188 212.242188 C 189.339844 212.703125 189.140625 213.347656 189.140625 214.183594 C 189.140625 215.019531 189.339844 215.667969 189.742188 216.128906 C 190.148438 216.589844 190.714844 216.820312 191.441406 216.820312 C 191.769531 216.820312 192.089844 216.777344 192.410156 216.691406 C 192.726562 216.601562 193.046875 216.472656 193.363281 216.296875 L 193.363281 217.335938 C 193.050781 217.480469 192.726562 217.589844 192.390625 217.664062 C 192.054688 217.738281 191.699219 217.773438 191.320312 217.773438 C 190.289062 217.773438 189.472656 217.449219 188.863281 216.804688 C 188.257812 216.15625 187.957031 215.28125 187.957031 214.183594 C 187.957031 213.070312 188.261719 212.191406 188.875 211.554688 C 189.488281 210.914062 190.328125 210.597656 191.394531 210.597656 C 191.738281 210.597656 192.074219 210.632812 192.40625 210.703125 C 192.734375 210.773438 193.054688 210.878906 193.363281 211.023438 Z M 193.363281 211.023438 "/>
<path style=" stroke:none;fill-rule:nonzero;fill:rgb(0%,0%,0%);fill-opacity:1;" d="M 201 213.46875 L 201 217.597656 L 199.878906 217.597656 L 199.878906 213.507812 C 199.878906 212.859375 199.75 212.375 199.5 212.054688 C 199.246094 211.734375 198.867188 211.574219 198.363281 211.574219 C 197.757812 211.574219 197.277344 211.765625 196.929688 212.152344 C 196.578125 212.539062 196.402344 213.066406 196.402344 213.734375 L 196.402344 217.597656 L 195.273438 217.597656 L 195.273438 208.097656 L 196.402344 208.097656 L 196.402344 211.824219 C 196.671875 211.410156 196.988281 211.105469 197.351562 210.902344 C 197.71875 210.699219 198.136719 210.597656 198.613281 210.597656 C 199.398438 210.597656 199.992188 210.839844 200.394531 211.324219 C 200.800781 211.808594 201 212.523438 201 213.46875 Z M 201 213.46875 "/>
<path style=" stroke:none;fill-rule:nonzero;fill:rgb(0%,0%,0%);fill-opacity:1;" d="M 207.597656 210.960938 L 207.597656 212.023438 C 207.28125 211.859375 206.949219 211.738281 206.609375 211.660156 C 206.265625 211.578125 205.914062 211.535156 205.546875 211.535156 C 204.988281 211.535156 204.570312 211.621094 204.292969 211.792969 C 204.011719 211.960938 203.875 212.21875 203.875 212.5625 C 203.875 212.820312 203.972656 213.027344 204.171875 213.175781 C 204.371094 213.324219 204.773438 213.464844 205.375 213.597656 L 205.761719 213.683594 C 206.558594 213.855469 207.125 214.09375 207.460938 214.40625 C 207.796875 214.71875 207.964844 215.152344 207.964844 215.710938 C 207.964844 216.34375 207.710938 216.847656 207.210938 217.21875 C 206.707031 217.589844 206.015625 217.773438 205.136719 217.773438 C 204.773438 217.773438 204.390625 217.738281 203.992188 217.667969 C 203.597656 217.59375 203.179688 217.488281 202.738281 217.347656 L 202.738281 216.1875 C 203.15625 216.402344 203.5625 216.5625 203.964844 216.671875 C 204.367188 216.777344 204.765625 216.832031 205.164062 216.832031 C 205.691406 216.832031 206.097656 216.742188 206.382812 216.5625 C 206.667969 216.378906 206.808594 216.125 206.808594 215.796875 C 206.808594 215.492188 206.707031 215.257812 206.5 215.09375 C 206.296875 214.929688 205.847656 214.773438 205.148438 214.625 L 204.757812 214.53125 C 204.0625 214.386719 203.5625 214.160156 203.25 213.859375 C 202.941406 213.554688 202.789062 213.136719 202.789062 212.609375 C 202.789062 211.964844 203.015625 211.46875 203.472656 211.121094 C 203.925781 210.769531 204.574219 210.597656 205.414062 210.597656 C 205.828125 210.597656 206.21875 210.625 206.582031 210.6875 C 206.949219 210.746094 207.289062 210.839844 207.597656 210.960938 Z M 207.597656 210.960938 "/>
<g clip-path="url(#clip6)" clip-rule="nonzero">
<path style="fill:none;stroke-width:0.8;stroke-linecap:square;stroke-linejoin:round;stroke:rgb(69.019608%,69.019608%,69.019608%);stroke-opacity:1;stroke-miterlimit:4;" d="M 51.378125 109.46875 L 246.678125 109.46875 " transform="matrix(1.25,0,0,1.25,0,0)"/>
</g>
<path style="fill:none;stroke-width:0.8;stroke-linecap:butt;stroke-linejoin:round;stroke:rgb(0%,0%,0%);stroke-opacity:1;stroke-miterlimit:4;" d="M 0 -0.000001 L -3.5 -0.000001 " transform="matrix(1.25,0,0,1.25,64.222656,136.835939)"/>
<path style=" stroke:none;fill-rule:nonzero;fill:rgb(0%,0%,0%);fill-opacity:1;" d="M 27.648438 140.453125 L 29.664062 140.453125 L 29.664062 133.5 L 27.46875 133.9375 L 27.46875 132.816406 L 29.648438 132.375 L 30.882812 132.375 L 30.882812 140.453125 L 32.898438 140.453125 L 32.898438 141.488281 L 27.648438 141.488281 Z M 27.648438 140.453125 "/>
<path style=" stroke:none;fill-rule:nonzero;fill:rgb(0%,0%,0%);fill-opacity:1;" d="M 38.023438 133.1875 C 37.390625 133.1875 36.910156 133.5 36.589844 134.125 C 36.273438 134.75 36.113281 135.6875 36.113281 136.941406 C 36.113281 138.191406 36.273438 139.128906 36.589844 139.753906 C 36.910156 140.378906 37.390625 140.691406 38.023438 140.691406 C 38.664062 140.691406 39.140625 140.378906 39.460938 139.753906 C 39.78125 139.128906 39.941406 138.191406 39.941406 136.941406 C 39.941406 135.6875 39.78125 134.75 39.460938 134.125 C 39.140625 133.5 38.664062 133.1875 38.023438 133.1875 Z M 38.023438 132.210938 C 39.046875 132.210938 39.824219 132.617188 40.363281 133.425781 C 40.902344 134.230469 41.171875 135.40625 41.171875 136.941406 C 41.171875 138.476562 40.902344 139.648438 40.363281 140.457031 C 39.824219 141.261719 39.046875 141.667969 38.023438 141.667969 C 37.003906 141.667969 36.222656 141.261719 35.683594 140.457031 C 35.144531 139.648438 34.875 138.476562 34.875 136.941406 C 34.875 135.40625 35.144531 134.230469 35.683594 133.425781 C 36.222656 132.617188 37.003906 132.210938 38.023438 132.210938 Z M 38.023438 132.210938 "/>
<path style=" stroke:none;fill-rule:nonzero;fill:rgb(0%,0%,0%);fill-opacity:1;" d="M 43.050781 133.597656 L 48.527344 133.597656 L 48.527344 134.324219 L 43.050781 134.324219 Z M 43.050781 133.597656 "/>
<path style=" stroke:none;fill-rule:nonzero;fill:rgb(0%,0%,0%);fill-opacity:1;" d="M 53.003906 133.265625 C 53.417969 133.351562 53.742188 133.535156 53.972656 133.816406 C 54.203125 134.09375 54.320312 134.441406 54.320312 134.851562 C 54.320312 135.480469 54.105469 135.964844 53.671875 136.3125 C 53.238281 136.65625 52.621094 136.828125 51.824219 136.828125 C 51.558594 136.828125 51.28125 136.800781 51 136.75 C 50.714844 136.695312 50.421875 136.617188 50.121094 136.511719 L 50.121094 135.679688 C 50.359375 135.816406 50.621094 135.921875 50.90625 135.996094 C 51.191406 136.066406 51.488281 136.101562 51.800781 136.101562 C 52.339844 136.101562 52.753906 135.996094 53.035156 135.78125 C 53.320312 135.566406 53.460938 135.257812 53.460938 134.851562 C 53.460938 134.472656 53.332031 134.179688 53.066406 133.96875 C 52.804688 133.757812 52.4375 133.648438 51.96875 133.648438 L 51.222656 133.648438 L 51.222656 132.941406 L 52 132.941406 C 52.425781 132.941406 52.75 132.855469 52.976562 132.6875 C 53.199219 132.515625 53.3125 132.273438 53.3125 131.953125 C 53.3125 131.625 53.195312 131.375 52.964844 131.199219 C 52.734375 131.023438 52.402344 130.9375 51.96875 130.9375 C 51.730469 130.9375 51.476562 130.960938 51.207031 131.015625 C 50.933594 131.066406 50.636719 131.144531 50.3125 131.25 L 50.3125 130.484375 C 50.640625 130.390625 50.949219 130.324219 51.234375 130.277344 C 51.519531 130.234375 51.789062 130.210938 52.042969 130.210938 C 52.699219 130.210938 53.21875 130.359375 53.597656 130.65625 C 53.980469 130.953125 54.171875 131.355469 54.171875 131.863281 C 54.171875 132.214844 54.070312 132.515625 53.867188 132.757812 C 53.664062 133 53.378906 133.171875 53.003906 133.265625 Z M 53.003906 133.265625 "/>
<g clip-path="url(#clip7)" clip-rule="nonzero">
<path style="fill:none;stroke-width:0.8;stroke-linecap:square;stroke-linejoin:round;stroke:rgb(69.019608%,69.019608%,69.019608%);stroke-opacity:1;stroke-miterlimit:4;" d="M 51.378125 70.24375 L 246.678125 70.24375 " transform="matrix(1.25,0,0,1.25,0,0)"/>
</g>
<path style="fill:none;stroke-width:0.8;stroke-linecap:butt;stroke-linejoin:round;stroke:rgb(0%,0%,0%);stroke-opacity:1;stroke-miterlimit:4;" d="M 0 -0.000528 L -3.5 -0.000528 " transform="matrix(1.25,0,0,1.25,64.222656,87.805347)"/>
<path style=" stroke:none;fill-rule:nonzero;fill:rgb(0%,0%,0%);fill-opacity:1;" d="M 27.648438 91.433594 L 29.664062 91.433594 L 29.664062 84.480469 L 27.46875 84.917969 L 27.46875 83.796875 L 29.648438 83.355469 L 30.882812 83.355469 L 30.882812 91.433594 L 32.898438 91.433594 L 32.898438 92.46875 L 27.648438 92.46875 Z M 27.648438 91.433594 "/>
<path style=" stroke:none;fill-rule:nonzero;fill:rgb(0%,0%,0%);fill-opacity:1;" d="M 38.023438 84.167969 C 37.390625 84.167969 36.910156 84.480469 36.589844 85.105469 C 36.273438 85.730469 36.113281 86.667969 36.113281 87.921875 C 36.113281 89.171875 36.273438 90.109375 36.589844 90.734375 C 36.910156 91.359375 37.390625 91.671875 38.023438 91.671875 C 38.664062 91.671875 39.140625 91.359375 39.460938 90.734375 C 39.78125 90.109375 39.941406 89.171875 39.941406 87.921875 C 39.941406 86.667969 39.78125 85.730469 39.460938 85.105469 C 39.140625 84.480469 38.664062 84.167969 38.023438 84.167969 Z M 38.023438 83.191406 C 39.046875 83.191406 39.824219 83.597656 40.363281 84.40625 C 40.902344 85.210938 41.171875 86.382812 41.171875 87.921875 C 41.171875 89.457031 40.902344 90.628906 40.363281 91.4375 C 39.824219 92.242188 39.046875 92.648438 38.023438 92.648438 C 37.003906 92.648438 36.222656 92.242188 35.683594 91.4375 C 35.144531 90.628906 34.875 89.457031 34.875 87.921875 C 34.875 86.382812 35.144531 85.210938 35.683594 84.40625 C 36.222656 83.597656 37.003906 83.191406 38.023438 83.191406 Z M 38.023438 83.191406 "/>
<path style=" stroke:none;fill-rule:nonzero;fill:rgb(0%,0%,0%);fill-opacity:1;" d="M 43.050781 84.578125 L 48.527344 84.578125 L 48.527344 85.304688 L 43.050781 85.304688 Z M 43.050781 84.578125 "/>
<path style=" stroke:none;fill-rule:nonzero;fill:rgb(0%,0%,0%);fill-opacity:1;" d="M 50.539062 86.957031 L 51.949219 86.957031 L 51.949219 82.089844 L 50.414062 82.398438 L 50.414062 81.613281 L 51.941406 81.304688 L 52.804688 81.304688 L 52.804688 86.957031 L 54.214844 86.957031 L 54.214844 87.683594 L 50.539062 87.683594 Z M 50.539062 86.957031 "/>
<g clip-path="url(#clip8)" clip-rule="nonzero">
<path style="fill:none;stroke-width:0.8;stroke-linecap:square;stroke-linejoin:round;stroke:rgb(69.019608%,69.019608%,69.019608%);stroke-opacity:1;stroke-miterlimit:4;" d="M 51.378125 31.01875 L 246.678125 31.01875 " transform="matrix(1.25,0,0,1.25,0,0)"/>
</g>
<path style="fill:none;stroke-width:0.8;stroke-linecap:butt;stroke-linejoin:round;stroke:rgb(0%,0%,0%);stroke-opacity:1;stroke-miterlimit:4;" d="M 0 -0.001056 L -3.5 -0.001056 " transform="matrix(1.25,0,0,1.25,64.222656,38.774757)"/>
<path style=" stroke:none;fill-rule:nonzero;fill:rgb(0%,0%,0%);fill-opacity:1;" d="M 35.023438 42.402344 L 37.039062 42.402344 L 37.039062 35.449219 L 34.84375 35.886719 L 34.84375 34.765625 L 37.023438 34.324219 L 38.257812 34.324219 L 38.257812 42.402344 L 40.273438 42.402344 L 40.273438 43.4375 L 35.023438 43.4375 Z M 35.023438 42.402344 "/>
<path style=" stroke:none;fill-rule:nonzero;fill:rgb(0%,0%,0%);fill-opacity:1;" d="M 45.398438 35.136719 C 44.765625 35.136719 44.285156 35.449219 43.964844 36.074219 C 43.648438 36.699219 43.488281 37.636719 43.488281 38.890625 C 43.488281 40.140625 43.648438 41.078125 43.964844 41.703125 C 44.285156 42.328125 44.765625 42.640625 45.398438 42.640625 C 46.039062 42.640625 46.515625 42.328125 46.835938 41.703125 C 47.15625 41.078125 47.316406 40.140625 47.316406 38.890625 C 47.316406 37.636719 47.15625 36.699219 46.835938 36.074219 C 46.515625 35.449219 46.039062 35.136719 45.398438 35.136719 Z M 45.398438 34.160156 C 46.421875 34.160156 47.199219 34.566406 47.738281 35.375 C 48.277344 36.179688 48.546875 37.355469 48.546875 38.890625 C 48.546875 40.425781 48.277344 41.597656 47.738281 42.40625 C 47.199219 43.210938 46.421875 43.617188 45.398438 43.617188 C 44.378906 43.617188 43.597656 43.210938 43.058594 42.40625 C 42.519531 41.597656 42.25 40.425781 42.25 38.890625 C 42.25 37.355469 42.519531 36.179688 43.058594 35.375 C 43.597656 34.566406 44.378906 34.160156 45.398438 34.160156 Z M 45.398438 34.160156 "/>
<path style=" stroke:none;fill-rule:nonzero;fill:rgb(0%,0%,0%);fill-opacity:1;" d="M 50.582031 37.925781 L 51.992188 37.925781 L 51.992188 33.058594 L 50.460938 33.367188 L 50.460938 32.582031 L 51.984375 32.273438 L 52.847656 32.273438 L 52.847656 37.925781 L 54.257812 37.925781 L 54.257812 38.652344 L 50.582031 38.652344 Z M 50.582031 37.925781 "/>
<path style=" stroke:none;fill-rule:nonzero;fill:rgb(0%,0%,0%);fill-opacity:1;" d="M 9 106.519531 L 9 105.398438 L 18.496094 105.398438 L 18.496094 106.519531 Z M 9 106.519531 "/>
<path style=" stroke:none;fill-rule:nonzero;fill:rgb(0%,0%,0%);fill-opacity:1;" d="M 12.449219 100.398438 C 12.449219 101 12.683594 101.476562 13.152344 101.824219 C 13.625 102.175781 14.269531 102.351562 15.085938 102.351562 C 15.902344 102.351562 16.546875 102.175781 17.015625 101.828125 C 17.488281 101.480469 17.722656 101.003906 17.722656 100.398438 C 17.722656 99.800781 17.488281 99.324219 17.015625 98.976562 C 16.542969 98.625 15.898438 98.449219 15.085938 98.449219 C 14.277344 98.449219 13.632812 98.625 13.160156 98.976562 C 12.6875 99.324219 12.449219 99.800781 12.449219 100.398438 Z M 11.496094 100.398438 C 11.496094 99.421875 11.816406 98.65625 12.449219 98.097656 C 13.085938 97.539062 13.964844 97.257812 15.085938 97.257812 C 16.203125 97.257812 17.082031 97.539062 17.71875 98.097656 C 18.355469 98.65625 18.675781 99.421875 18.675781 100.398438 C 18.675781 101.378906 18.355469 102.148438 17.71875 102.703125 C 17.082031 103.257812 16.203125 103.535156 15.085938 103.535156 C 13.964844 103.535156 13.085938 103.257812 12.449219 102.703125 C 11.816406 102.148438 11.496094 101.378906 11.496094 100.398438 Z M 11.496094 100.398438 "/>
<path style=" stroke:none;fill-rule:nonzero;fill:rgb(0%,0%,0%);fill-opacity:1;" d="M 11.863281 91.042969 L 12.925781 91.042969 C 12.761719 91.359375 12.640625 91.6875 12.558594 92.03125 C 12.476562 92.371094 12.4375 92.726562 12.4375 93.09375 C 12.4375 93.648438 12.523438 94.066406 12.691406 94.347656 C 12.863281 94.625 13.121094 94.765625 13.460938 94.765625 C 13.722656 94.765625 13.925781 94.664062 14.074219 94.464844 C 14.222656 94.265625 14.367188 93.863281 14.5 93.261719 L 14.585938 92.878906 C 14.757812 92.082031 14.996094 91.515625 15.308594 91.179688 C 15.621094 90.84375 16.054688 90.675781 16.609375 90.675781 C 17.246094 90.675781 17.75 90.925781 18.121094 91.429688 C 18.492188 91.929688 18.675781 92.621094 18.675781 93.5 C 18.675781 93.867188 18.640625 94.246094 18.566406 94.644531 C 18.496094 95.042969 18.390625 95.460938 18.246094 95.898438 L 17.085938 95.898438 C 17.304688 95.484375 17.464844 95.074219 17.574219 94.671875 C 17.679688 94.269531 17.734375 93.871094 17.734375 93.476562 C 17.734375 92.945312 17.644531 92.539062 17.460938 92.257812 C 17.28125 91.972656 17.027344 91.828125 16.695312 91.828125 C 16.390625 91.828125 16.160156 91.929688 15.996094 92.136719 C 15.832031 92.339844 15.675781 92.792969 15.523438 93.488281 L 15.433594 93.878906 C 15.289062 94.574219 15.0625 95.078125 14.757812 95.386719 C 14.457031 95.695312 14.039062 95.851562 13.511719 95.851562 C 12.867188 95.851562 12.371094 95.621094 12.023438 95.167969 C 11.671875 94.710938 11.496094 94.0625 11.496094 93.226562 C 11.496094 92.8125 11.527344 92.421875 11.589844 92.054688 C 11.648438 91.6875 11.742188 91.351562 11.863281 91.042969 Z M 11.863281 91.042969 "/>
<path style=" stroke:none;fill-rule:nonzero;fill:rgb(0%,0%,0%);fill-opacity:1;" d="M 11.863281 84.527344 L 12.925781 84.527344 C 12.761719 84.84375 12.640625 85.175781 12.558594 85.515625 C 12.476562 85.859375 12.4375 86.210938 12.4375 86.578125 C 12.4375 87.136719 12.523438 87.554688 12.691406 87.832031 C 12.863281 88.113281 13.121094 88.25 13.460938 88.25 C 13.722656 88.25 13.925781 88.152344 14.074219 87.953125 C 14.222656 87.753906 14.367188 87.351562 14.5 86.75 L 14.585938 86.363281 C 14.757812 85.566406 14.996094 85 15.308594 84.664062 C 15.621094 84.328125 16.054688 84.160156 16.609375 84.160156 C 17.246094 84.160156 17.75 84.414062 18.121094 84.914062 C 18.492188 85.417969 18.675781 86.109375 18.675781 86.988281 C 18.675781 87.355469 18.640625 87.734375 18.566406 88.132812 C 18.496094 88.53125 18.390625 88.949219 18.246094 89.386719 L 17.085938 89.386719 C 17.304688 88.972656 17.464844 88.5625 17.574219 88.160156 C 17.679688 87.757812 17.734375 87.359375 17.734375 86.960938 C 17.734375 86.433594 17.644531 86.027344 17.460938 85.742188 C 17.28125 85.457031 17.027344 85.316406 16.695312 85.316406 C 16.390625 85.316406 16.160156 85.417969 15.996094 85.625 C 15.832031 85.828125 15.675781 86.28125 15.523438 86.976562 L 15.433594 87.367188 C 15.289062 88.0625 15.0625 88.566406 14.757812 88.875 C 14.457031 89.183594 14.039062 89.335938 13.511719 89.335938 C 12.867188 89.335938 12.371094 89.109375 12.023438 88.652344 C 11.671875 88.199219 11.496094 87.550781 11.496094 86.710938 C 11.496094 86.296875 11.527344 85.910156 11.589844 85.542969 C 11.648438 85.175781 11.742188 84.835938 11.863281 84.527344 Z M 11.863281 84.527344 "/>
<g clip-path="url(#clip9)" clip-rule="nonzero">
<path style="fill:none;stroke-width:1.5;stroke-linecap:square;stroke-linejoin:round;stroke:rgb(12.156863%,46.666667%,70.588235%);stroke-opacity:1;stroke-miterlimit:4;" d="M 51.378125 23.084375 L 61.65625 32.828125 L 71.9375 40.8125 L 82.215625 47.696875 L 92.49375 54.040625 L 102.771875 60.115625 L 113.053125 66.028125 L 123.33125 71.865625 L 133.609375 77.653125 L 143.8875 83.39375 L 154.16875 89.096875 L 164.446875 94.76875 L 174.725 100.41875 L 185.003125 106.04375 L 195.284375 111.6625 L 205.5625 117.25 L 215.840625 122.828125 L 226.11875 128.39375 L 236.4 133.959375 L 246.678125 139.5 " transform="matrix(1.25,0,0,1.25,0,0)"/>
</g>
<g clip-path="url(#clip10)" clip-rule="nonzero">
<path style="fill:none;stroke-width:1.5;stroke-linecap:butt;stroke-linejoin:round;stroke:rgb(74.901961%,0%,74.901961%);stroke-opacity:1;stroke-dasharray:5.55,2.4;stroke-miterlimit:4;" d="M 51.378125 13.5 L 61.65625 13.875 L 71.9375 14.05 L 82.215625 14.153125 L 92.49375 14.2125 L 102.771875 14.253125 L 113.053125 14.28125 L 123.33125 14.296875 L 133.609375 14.309375 L 143.8875 14.31875 L 154.16875 14.325 L 174.725 14.33125 L 185.003125 14.33125 L 195.284375 14.334375 L 246.678125 14.334375 " transform="matrix(1.25,0,0,1.25,0,0)"/>
</g>
<path style="fill:none;stroke-width:0.8;stroke-linecap:square;stroke-linejoin:miter;stroke:rgb(0%,0%,0%);stroke-opacity:1;stroke-miterlimit:4;" d="M 51.378125 145.8 L 51.378125 7.2 " transform="matrix(1.25,0,0,1.25,0,0)"/>
<path style="fill:none;stroke-width:0.8;stroke-linecap:square;stroke-linejoin:miter;stroke:rgb(0%,0%,0%);stroke-opacity:1;stroke-miterlimit:4;" d="M 246.678125 145.8 L 246.678125 7.2 " transform="matrix(1.25,0,0,1.25,0,0)"/>
<path style="fill:none;stroke-width:0.8;stroke-linecap:square;stroke-linejoin:miter;stroke:rgb(0%,0%,0%);stroke-opacity:1;stroke-miterlimit:4;" d="M 51.378125 145.8 L 246.678125 145.8 " transform="matrix(1.25,0,0,1.25,0,0)"/>
<path style="fill:none;stroke-width:0.8;stroke-linecap:square;stroke-linejoin:miter;stroke:rgb(0%,0%,0%);stroke-opacity:1;stroke-miterlimit:4;" d="M 51.378125 7.2 L 246.678125 7.2 " transform="matrix(1.25,0,0,1.25,0,0)"/>
<use xlink:href="#surface5" mask="url(#mask0)"/>
<path style="fill:none;stroke-width:1.5;stroke-linecap:square;stroke-linejoin:round;stroke:rgb(12.156863%,46.666667%,70.588235%);stroke-opacity:1;stroke-miterlimit:4;" d="M 60.378125 116.54375 L 80.378125 116.54375 " transform="matrix(1.25,0,0,1.25,0,0)"/>
<path style=" stroke:none;fill-rule:nonzero;fill:rgb(0%,0%,0%);fill-opacity:1;" d="M 112.761719 141.277344 L 112.761719 143.21875 L 115.074219 143.21875 L 115.074219 144.089844 L 112.761719 144.089844 L 112.761719 147.800781 C 112.761719 148.359375 112.835938 148.714844 112.992188 148.875 C 113.140625 149.035156 113.453125 149.113281 113.921875 149.113281 L 115.074219 149.113281 L 115.074219 150.054688 L 113.921875 150.054688 C 113.054688 150.054688 112.457031 149.890625 112.125 149.570312 C 111.796875 149.246094 111.632812 148.65625 111.632812 147.800781 L 111.632812 144.089844 L 110.808594 144.089844 L 110.808594 143.21875 L 111.632812 143.21875 L 111.632812 141.277344 Z M 112.761719 141.277344 "/>
<path style=" stroke:none;fill-rule:nonzero;fill:rgb(0%,0%,0%);fill-opacity:1;" d="M 120.511719 144.265625 C 120.386719 144.191406 120.25 144.140625 120.101562 144.105469 C 119.953125 144.070312 119.789062 144.054688 119.609375 144.054688 C 118.976562 144.054688 118.488281 144.257812 118.148438 144.671875 C 117.808594 145.085938 117.636719 145.679688 117.636719 146.453125 L 117.636719 150.054688 L 116.507812 150.054688 L 116.507812 143.21875 L 117.636719 143.21875 L 117.636719 144.28125 C 117.875 143.863281 118.183594 143.554688 118.558594 143.355469 C 118.9375 143.152344 119.398438 143.054688 119.941406 143.054688 C 120.015625 143.054688 120.101562 143.058594 120.195312 143.070312 C 120.289062 143.078125 120.394531 143.09375 120.507812 143.113281 Z M 120.511719 144.265625 "/>
<path style=" stroke:none;fill-rule:nonzero;fill:rgb(0%,0%,0%);fill-opacity:1;" d="M 124.796875 146.617188 C 123.890625 146.617188 123.261719 146.722656 122.910156 146.929688 C 122.5625 147.136719 122.386719 147.488281 122.386719 147.992188 C 122.386719 148.390625 122.515625 148.707031 122.78125 148.941406 C 123.042969 149.171875 123.398438 149.289062 123.851562 149.289062 C 124.472656 149.289062 124.972656 149.070312 125.351562 148.628906 C 125.726562 148.1875 125.914062 147.597656 125.914062 146.867188 L 125.914062 146.617188 Z M 127.039062 146.152344 L 127.039062 150.054688 L 125.914062 150.054688 L 125.914062 149.015625 C 125.660156 149.429688 125.339844 149.734375 124.957031 149.933594 C 124.574219 150.132812 124.105469 150.230469 123.550781 150.230469 C 122.851562 150.230469 122.296875 150.035156 121.882812 149.640625 C 121.46875 149.246094 121.261719 148.722656 121.261719 148.0625 C 121.261719 147.292969 121.519531 146.714844 122.035156 146.324219 C 122.550781 145.933594 123.316406 145.738281 124.339844 145.738281 L 125.914062 145.738281 L 125.914062 145.628906 C 125.914062 145.109375 125.746094 144.710938 125.40625 144.429688 C 125.066406 144.144531 124.589844 144.003906 123.972656 144.003906 C 123.582031 144.003906 123.203125 144.050781 122.832031 144.144531 C 122.460938 144.238281 122.105469 144.378906 121.765625 144.566406 L 121.765625 143.527344 C 122.175781 143.367188 122.574219 143.25 122.960938 143.171875 C 123.347656 143.09375 123.722656 143.054688 124.089844 143.054688 C 125.078125 143.054688 125.816406 143.308594 126.304688 143.824219 C 126.792969 144.335938 127.039062 145.109375 127.039062 146.152344 Z M 127.039062 146.152344 "/>
<path style=" stroke:none;fill-rule:nonzero;fill:rgb(0%,0%,0%);fill-opacity:1;" d="M 129.351562 143.21875 L 130.472656 143.21875 L 130.472656 150.054688 L 129.351562 150.054688 Z M 129.351562 140.554688 L 130.472656 140.554688 L 130.472656 141.980469 L 129.351562 141.980469 Z M 129.351562 140.554688 "/>
<path style=" stroke:none;fill-rule:nonzero;fill:rgb(0%,0%,0%);fill-opacity:1;" d="M 138.507812 145.925781 L 138.507812 150.054688 L 137.382812 150.054688 L 137.382812 145.964844 C 137.382812 145.316406 137.257812 144.832031 137.003906 144.511719 C 136.753906 144.191406 136.375 144.03125 135.871094 144.03125 C 135.261719 144.03125 134.785156 144.222656 134.433594 144.609375 C 134.085938 144.996094 133.910156 145.523438 133.910156 146.191406 L 133.910156 150.054688 L 132.78125 150.054688 L 132.78125 143.21875 L 133.910156 143.21875 L 133.910156 144.28125 C 134.179688 143.867188 134.496094 143.5625 134.859375 143.359375 C 135.222656 143.15625 135.644531 143.054688 136.121094 143.054688 C 136.90625 143.054688 137.5 143.296875 137.902344 143.78125 C 138.304688 144.265625 138.507812 144.980469 138.507812 145.925781 Z M 138.507812 145.925781 "/>
<path style="fill:none;stroke-width:1.5;stroke-linecap:butt;stroke-linejoin:round;stroke:rgb(74.901961%,0%,74.901961%);stroke-opacity:1;stroke-dasharray:5.55,2.4;stroke-miterlimit:4;" d="M 60.378125 131.221875 L 80.378125 131.221875 " transform="matrix(1.25,0,0,1.25,0,0)"/>
<path style=" stroke:none;fill-rule:nonzero;fill:rgb(0%,0%,0%);fill-opacity:1;" d="M 112.761719 159.625 L 112.761719 161.566406 L 115.074219 161.566406 L 115.074219 162.4375 L 112.761719 162.4375 L 112.761719 166.148438 C 112.761719 166.707031 112.835938 167.0625 112.992188 167.222656 C 113.140625 167.382812 113.453125 167.460938 113.921875 167.460938 L 115.074219 167.460938 L 115.074219 168.402344 L 113.921875 168.402344 C 113.054688 168.402344 112.457031 168.238281 112.125 167.917969 C 111.796875 167.59375 111.632812 167.003906 111.632812 166.148438 L 111.632812 162.4375 L 110.808594 162.4375 L 110.808594 161.566406 L 111.632812 161.566406 L 111.632812 159.625 Z M 112.761719 159.625 "/>
<path style=" stroke:none;fill-rule:nonzero;fill:rgb(0%,0%,0%);fill-opacity:1;" d="M 122.398438 164.703125 L 122.398438 165.25 L 117.234375 165.25 C 117.285156 166.023438 117.519531 166.613281 117.933594 167.019531 C 118.351562 167.421875 118.933594 167.625 119.675781 167.625 C 120.109375 167.625 120.527344 167.574219 120.929688 167.46875 C 121.335938 167.363281 121.738281 167.203125 122.136719 166.992188 L 122.136719 168.054688 C 121.734375 168.222656 121.320312 168.355469 120.898438 168.445312 C 120.472656 168.535156 120.046875 168.578125 119.609375 168.578125 C 118.519531 168.578125 117.65625 168.261719 117.019531 167.628906 C 116.382812 166.992188 116.0625 166.132812 116.0625 165.050781 C 116.0625 163.929688 116.367188 163.042969 116.96875 162.386719 C 117.574219 161.730469 118.390625 161.402344 119.414062 161.402344 C 120.335938 161.402344 121.0625 161.695312 121.597656 162.289062 C 122.132812 162.878906 122.398438 163.683594 122.398438 164.703125 Z M 121.277344 164.371094 C 121.269531 163.757812 121.097656 163.269531 120.761719 162.902344 C 120.425781 162.535156 119.980469 162.351562 119.425781 162.351562 C 118.800781 162.351562 118.300781 162.527344 117.921875 162.882812 C 117.546875 163.238281 117.328125 163.734375 117.273438 164.378906 Z M 121.277344 164.371094 "/>
<path style=" stroke:none;fill-rule:nonzero;fill:rgb(0%,0%,0%);fill-opacity:1;" d="M 128.597656 161.765625 L 128.597656 162.828125 C 128.28125 162.664062 127.953125 162.542969 127.609375 162.464844 C 127.269531 162.382812 126.914062 162.339844 126.546875 162.339844 C 125.992188 162.339844 125.574219 162.425781 125.292969 162.597656 C 125.015625 162.765625 124.875 163.023438 124.875 163.367188 C 124.875 163.625 124.976562 163.832031 125.175781 163.980469 C 125.375 164.128906 125.777344 164.269531 126.378906 164.402344 L 126.761719 164.488281 C 127.558594 164.660156 128.125 164.898438 128.460938 165.210938 C 128.796875 165.523438 128.964844 165.957031 128.964844 166.515625 C 128.964844 167.148438 128.714844 167.652344 128.210938 168.023438 C 127.710938 168.394531 127.019531 168.578125 126.140625 168.578125 C 125.773438 168.578125 125.394531 168.542969 124.996094 168.472656 C 124.597656 168.398438 124.179688 168.292969 123.742188 168.152344 L 123.742188 166.992188 C 124.15625 167.207031 124.566406 167.367188 124.96875 167.476562 C 125.371094 167.582031 125.769531 167.636719 126.164062 167.636719 C 126.695312 167.636719 127.101562 167.546875 127.382812 167.367188 C 127.667969 167.183594 127.8125 166.929688 127.8125 166.601562 C 127.8125 166.296875 127.710938 166.0625 127.503906 165.898438 C 127.300781 165.734375 126.847656 165.578125 126.152344 165.429688 L 125.761719 165.335938 C 125.066406 165.191406 124.5625 164.964844 124.253906 164.664062 C 123.945312 164.359375 123.789062 163.941406 123.789062 163.414062 C 123.789062 162.769531 124.019531 162.273438 124.472656 161.925781 C 124.929688 161.574219 125.578125 161.402344 126.414062 161.402344 C 126.828125 161.402344 127.21875 161.429688 127.585938 161.492188 C 127.953125 161.550781 128.289062 161.644531 128.597656 161.765625 Z M 128.597656 161.765625 "/>
<path style=" stroke:none;fill-rule:nonzero;fill:rgb(0%,0%,0%);fill-opacity:1;" d="M 131.867188 159.625 L 131.867188 161.566406 L 134.179688 161.566406 L 134.179688 162.4375 L 131.867188 162.4375 L 131.867188 166.148438 C 131.867188 166.707031 131.941406 167.0625 132.09375 167.222656 C 132.246094 167.382812 132.558594 167.460938 133.027344 167.460938 L 134.179688 167.460938 L 134.179688 168.402344 L 133.027344 168.402344 C 132.160156 168.402344 131.558594 168.238281 131.230469 167.917969 C 130.902344 167.59375 130.738281 167.003906 130.738281 166.148438 L 130.738281 162.4375 L 129.914062 162.4375 L 129.914062 161.566406 L 130.738281 161.566406 L 130.738281 159.625 Z M 131.867188 159.625 "/>
</g>
</svg>
