<?xml version="1.0" encoding="UTF-8"?>
<svg xmlns="http://www.w3.org/2000/svg" xmlns:xlink="http://www.w3.org/1999/xlink" width="378pt" height="229pt" viewBox="0 0 378 229" version="1.1">
<defs>
<clipPath id="clip1">
  <path d="M 88 9 L 91 9 L 91 182.25 L 88 182.25 Z M 88 9 "/>
</clipPath>
<clipPath id="clip2">
  <path d="M 129 9 L 131 9 L 131 182.25 L 129 182.25 Z M 129 9 "/>
</clipPath>
<clipPath id="clip3">
  <path d="M 170 9 L 172 9 L 172 182.25 L 170 182.25 Z M 170 9 "/>
</clipPath>
<clipPath id="clip4">
  <path d="M 211 9 L 213 9 L 213 182.25 L 211 182.25 Z M 211 9 "/>
</clipPath>
<clipPath id="clip5">
  <path d="M 251 9 L 254 9 L 254 182.25 L 251 182.25 Z M 251 9 "/>
</clipPath>
<clipPath id="clip6">
  <path d="M 292 9 L 295 9 L 295 182.25 L 292 182.25 Z M 292 9 "/>
</clipPath>
<clipPath id="clip7">
  <path d="M 333 9 L 335 9 L 335 182.25 L 333 182.25 Z M 333 9 "/>
</clipPath>
<clipPath id="clip8">
  <path d="M 54.726562 173 L 368.601562 173 L 368.601562 176 L 54.726562 176 Z M 54.726562 173 "/>
</clipPath>
<clipPath id="clip9">
  <path d="M 54.726562 134 L 368.601562 134 L 368.601562 136 L 54.726562 136 Z M 54.726562 134 "/>
</clipPath>
<clipPath id="clip10">
  <path d="M 54.726562 94 L 368.601562 94 L 368.601562 97 L 54.726562 97 Z M 54.726562 94 "/>
</clipPath>
<clipPath id="clip11">
  <path d="M 54.726562 55 L 368.601562 55 L 368.601562 57 L 54.726562 57 Z M 54.726562 55 "/>
</clipPath>
<clipPath id="clip12">
  <path d="M 54.726562 15 L 368.601562 15 L 368.601562 18 L 54.726562 18 Z M 54.726562 15 "/>
</clipPath>
<filter id="alpha" filterUnits="objectBoundingBox" x="0%" y="0%" width="100%" height="100%">
  <feColorMatrix type="matrix" in="SourceGraphic" values="0 0 0 0 1 0 0 0 0 1 0 0 0 0 1 0 0 0 1 0"/>
</filter>
<mask id="mask0">
  <g filter="url(#alpha)">
<rect x="0" y="0" width="378" height="229" style="fill:rgb(0%,0%,0%);fill-opacity:0.8;stroke:none;"/>
  </g>
</mask>
<clipPath id="clip13">
  <rect x="0" y="0" width="378" height="229"/>
</clipPath>
<g id="surface5" clip-path="url(#clip13)">
<path style="fill-rule:nonzero;fill:rgb(100%,100%,100%);fill-opacity:1;stroke-width:1;stroke-linecap:butt;stroke-linejoin:miter;stroke:rgb(80%,80%,80%);stroke-opacity:1;stroke-miterlimit:4;" d="M 50.78125 59.234375 L 152.05625 59.234375 C 153.390625 59.234375 154.05625 58.56875 154.05625 57.234375 L 154.05625 14.2 C 154.05625 12.865625 153.390625 12.2 152.05625 12.2 L 50.78125 12.2 C 49.446875 12.2 48.78125 12.865625 48.78125 14.2 L 48.78125 57.234375 C 48.78125 58.56875 49.446875 59.234375 50.78125 59.234375 Z M 50.78125 59.234375 " transform="matrix(1.25,0,0,1.25,0,0)"/>
</g>
</defs>
<g id="surface1">
<path style=" stroke:none;fill-rule:nonzero;fill:rgb(100%,100%,100%);fill-opacity:1;" d="M 0 229.195312 L 377.601562 229.195312 L 377.601562 0 L 0 0 Z M 0 229.195312 "/>
<path style=" stroke:none;fill-rule:nonzero;fill:rgb(100%,100%,100%);fill-opacity:1;" d="M 54.726562 182.25 L 368.601562 182.25 L 368.601562 9 L 54.726562 9 Z M 54.726562 182.25 "/>
<g clip-path="url(#clip1)" clip-rule="nonzero">
<path style="fill:none;stroke-width:0.8;stroke-linecap:square;stroke-linejoin:round;stroke:rgb(69.019608%,69.019608%,69.019608%);stroke-opacity:1;stroke-miterlimit:4;" d="M 71.5125 145.8 L 71.5125 7.2 " transform="matrix(1.25,0,0,1.25,0,0)"/>
</g>
<path style="fill:none;stroke-width:0.8;stroke-linecap:butt;stroke-linejoin:round;stroke:rgb(0%,0%,0%);stroke-opacity:1;stroke-miterlimit:4;" d="M 0.000764 0 L 0.000764 3.5 " transform="matrix(1.25,0,0,1.25,89.38967,182.25)"/>
<path style=" stroke:none;fill-rule:nonzero;fill:rgb(0%,0%,0%);fill-opacity:1;" d="M 81.5 196.0625 L 89.324219 196.0625 L 89.324219 197.097656 L 81.5 197.097656 Z M 81.5 196.0625 "/>
<path style=" stroke:none;fill-rule:nonzero;fill:rgb(0%,0%,0%);fill-opacity:1;" d="M 94.777344 195.453125 C 94.222656 195.453125 93.785156 195.640625 93.460938 196.019531 C 93.136719 196.398438 92.976562 196.914062 92.976562 197.574219 C 92.976562 198.230469 93.136719 198.746094 93.460938 199.128906 C 93.785156 199.507812 94.222656 199.699219 94.777344 199.699219 C 95.328125 199.699219 95.769531 199.507812 96.089844 199.128906 C 96.414062 198.746094 96.574219 198.230469 96.574219 197.574219 C 96.574219 196.914062 96.414062 196.398438 96.089844 196.019531 C 95.769531 195.640625 95.328125 195.453125 94.777344 195.453125 Z M 97.222656 191.585938 L 97.222656 192.710938 C 96.914062 192.5625 96.601562 192.453125 96.285156 192.375 C 95.972656 192.296875 95.660156 192.257812 95.347656 192.257812 C 94.535156 192.257812 93.914062 192.53125 93.484375 193.082031 C 93.054688 193.632812 92.808594 194.460938 92.75 195.574219 C 92.988281 195.21875 93.289062 194.945312 93.652344 194.757812 C 94.015625 194.570312 94.414062 194.476562 94.847656 194.476562 C 95.765625 194.476562 96.488281 194.753906 97.019531 195.308594 C 97.550781 195.863281 97.816406 196.617188 97.816406 197.574219 C 97.816406 198.511719 97.539062 199.261719 96.984375 199.828125 C 96.433594 200.394531 95.695312 200.675781 94.777344 200.675781 C 93.722656 200.675781 92.914062 200.273438 92.359375 199.464844 C 91.800781 198.65625 91.523438 197.484375 91.523438 195.953125 C 91.523438 194.511719 91.863281 193.363281 92.546875 192.507812 C 93.230469 191.648438 94.148438 191.222656 95.300781 191.222656 C 95.609375 191.222656 95.921875 191.25 96.238281 191.3125 C 96.550781 191.375 96.882812 191.464844 97.222656 191.585938 Z M 97.222656 191.585938 "/>
<g clip-path="url(#clip2)" clip-rule="nonzero">
<path style="fill:none;stroke-width:0.8;stroke-linecap:square;stroke-linejoin:round;stroke:rgb(69.019608%,69.019608%,69.019608%);stroke-opacity:1;stroke-miterlimit:4;" d="M 104.146875 145.8 L 104.146875 7.2 " transform="matrix(1.25,0,0,1.25,0,0)"/>
</g>
<path style="fill:none;stroke-width:0.8;stroke-linecap:butt;stroke-linejoin:round;stroke:rgb(0%,0%,0%);stroke-opacity:1;stroke-miterlimit:4;" d="M 0.00144 0 L 0.00144 3.5 " transform="matrix(1.25,0,0,1.25,130.181794,182.25)"/>
<path style=" stroke:none;fill-rule:nonzero;fill:rgb(0%,0%,0%);fill-opacity:1;" d="M 122.292969 196.0625 L 130.117188 196.0625 L 130.117188 197.097656 L 122.292969 197.097656 Z M 122.292969 196.0625 "/>
<path style=" stroke:none;fill-rule:nonzero;fill:rgb(0%,0%,0%);fill-opacity:1;" d="M 136.167969 192.460938 L 133.054688 197.324219 L 136.167969 197.324219 Z M 135.84375 191.386719 L 137.394531 191.386719 L 137.394531 197.324219 L 138.695312 197.324219 L 138.695312 198.351562 L 137.394531 198.351562 L 137.394531 200.5 L 136.167969 200.5 L 136.167969 198.351562 L 132.054688 198.351562 L 132.054688 197.160156 Z M 135.84375 191.386719 "/>
<g clip-path="url(#clip3)" clip-rule="nonzero">
<path style="fill:none;stroke-width:0.8;stroke-linecap:square;stroke-linejoin:round;stroke:rgb(69.019608%,69.019608%,69.019608%);stroke-opacity:1;stroke-miterlimit:4;" d="M 136.778125 145.8 L 136.778125 7.2 " transform="matrix(1.25,0,0,1.25,0,0)"/>
</g>
<path style="fill:none;stroke-width:0.8;stroke-linecap:butt;stroke-linejoin:round;stroke:rgb(0%,0%,0%);stroke-opacity:1;stroke-miterlimit:4;" d="M -0.00101 0 L -0.00101 3.5 " transform="matrix(1.25,0,0,1.25,170.973919,182.25)"/>
<path style=" stroke:none;fill-rule:nonzero;fill:rgb(0%,0%,0%);fill-opacity:1;" d="M 163.085938 196.0625 L 170.910156 196.0625 L 170.910156 197.097656 L 163.085938 197.097656 Z M 163.085938 196.0625 "/>
<path style=" stroke:none;fill-rule:nonzero;fill:rgb(0%,0%,0%);fill-opacity:1;" d="M 174.632812 199.460938 L 178.933594 199.460938 L 178.933594 200.5 L 173.148438 200.5 L 173.148438 199.460938 C 173.617188 198.976562 174.253906 198.328125 175.0625 197.511719 C 175.871094 196.695312 176.378906 196.167969 176.585938 195.933594 C 176.980469 195.488281 177.253906 195.113281 177.410156 194.808594 C 177.570312 194.5 177.648438 194.199219 177.648438 193.902344 C 177.648438 193.417969 177.476562 193.023438 177.136719 192.71875 C 176.796875 192.410156 176.355469 192.257812 175.808594 192.257812 C 175.421875 192.257812 175.015625 192.324219 174.585938 192.460938 C 174.15625 192.59375 173.699219 192.796875 173.210938 193.070312 L 173.210938 191.824219 C 173.707031 191.625 174.167969 191.476562 174.601562 191.375 C 175.03125 191.273438 175.429688 191.222656 175.785156 191.222656 C 176.730469 191.222656 177.484375 191.457031 178.042969 191.929688 C 178.605469 192.402344 178.886719 193.03125 178.886719 193.820312 C 178.886719 194.195312 178.816406 194.550781 178.675781 194.886719 C 178.535156 195.222656 178.28125 195.617188 177.910156 196.074219 C 177.808594 196.191406 177.484375 196.53125 176.9375 197.097656 C 176.394531 197.660156 175.625 198.449219 174.632812 199.460938 Z M 174.632812 199.460938 "/>
<g clip-path="url(#clip4)" clip-rule="nonzero">
<path style="fill:none;stroke-width:0.8;stroke-linecap:square;stroke-linejoin:round;stroke:rgb(69.019608%,69.019608%,69.019608%);stroke-opacity:1;stroke-miterlimit:4;" d="M 169.4125 145.8 L 169.4125 7.2 " transform="matrix(1.25,0,0,1.25,0,0)"/>
</g>
<path style="fill:none;stroke-width:0.8;stroke-linecap:butt;stroke-linejoin:round;stroke:rgb(0%,0%,0%);stroke-opacity:1;stroke-miterlimit:4;" d="M -0.000334 0 L -0.000334 3.5 " transform="matrix(1.25,0,0,1.25,211.766042,182.25)"/>
<path style=" stroke:none;fill-rule:nonzero;fill:rgb(0%,0%,0%);fill-opacity:1;" d="M 211.761719 192.199219 C 211.128906 192.199219 210.652344 192.511719 210.332031 193.136719 C 210.011719 193.757812 209.851562 194.699219 209.851562 195.953125 C 209.851562 197.199219 210.011719 198.136719 210.332031 198.761719 C 210.652344 199.386719 211.128906 199.699219 211.761719 199.699219 C 212.402344 199.699219 212.878906 199.386719 213.199219 198.761719 C 213.519531 198.136719 213.679688 197.199219 213.679688 195.953125 C 213.679688 194.699219 213.519531 193.757812 213.199219 193.136719 C 212.878906 192.511719 212.402344 192.199219 211.761719 192.199219 Z M 211.761719 191.222656 C 212.785156 191.222656 213.566406 191.625 214.105469 192.433594 C 214.644531 193.242188 214.914062 194.414062 214.914062 195.953125 C 214.914062 197.484375 214.644531 198.65625 214.105469 199.464844 C 213.566406 200.273438 212.785156 200.675781 211.761719 200.675781 C 210.742188 200.675781 209.960938 200.273438 209.421875 199.464844 C 208.882812 198.65625 208.613281 197.484375 208.613281 195.953125 C 208.613281 194.414062 208.882812 193.242188 209.421875 192.433594 C 209.960938 191.625 210.742188 191.222656 211.761719 191.222656 Z M 211.761719 191.222656 "/>
<g clip-path="url(#clip5)" clip-rule="nonzero">
<path style="fill:none;stroke-width:0.8;stroke-linecap:square;stroke-linejoin:round;stroke:rgb(69.019608%,69.019608%,69.019608%);stroke-opacity:1;stroke-miterlimit:4;" d="M 202.046875 145.8 L 202.046875 7.2 " transform="matrix(1.25,0,0,1.25,0,0)"/>
</g>
<path style="fill:none;stroke-width:0.8;stroke-linecap:butt;stroke-linejoin:round;stroke:rgb(0%,0%,0%);stroke-opacity:1;stroke-miterlimit:4;" d="M 0.000341 0 L 0.000341 3.5 " transform="matrix(1.25,0,0,1.25,252.558168,182.25)"/>
<path style=" stroke:none;fill-rule:nonzero;fill:rgb(0%,0%,0%);fill-opacity:1;" d="M 250.980469 199.460938 L 255.28125 199.460938 L 255.28125 200.5 L 249.496094 200.5 L 249.496094 199.460938 C 249.964844 198.976562 250.601562 198.328125 251.410156 197.511719 C 252.21875 196.695312 252.726562 196.167969 252.933594 195.933594 C 253.328125 195.488281 253.601562 195.113281 253.757812 194.808594 C 253.917969 194.5 253.996094 194.199219 253.996094 193.902344 C 253.996094 193.417969 253.824219 193.023438 253.484375 192.71875 C 253.144531 192.410156 252.703125 192.257812 252.15625 192.257812 C 251.769531 192.257812 251.363281 192.324219 250.933594 192.460938 C 250.503906 192.59375 250.046875 192.796875 249.558594 193.070312 L 249.558594 191.824219 C 250.054688 191.625 250.519531 191.476562 250.949219 191.375 C 251.382812 191.273438 251.777344 191.222656 252.132812 191.222656 C 253.078125 191.222656 253.832031 191.457031 254.390625 191.929688 C 254.953125 192.402344 255.234375 193.03125 255.234375 193.820312 C 255.234375 194.195312 255.164062 194.550781 255.023438 194.886719 C 254.882812 195.222656 254.628906 195.617188 254.257812 196.074219 C 254.15625 196.191406 253.832031 196.53125 253.285156 197.097656 C 252.742188 197.660156 251.972656 198.449219 250.980469 199.460938 Z M 250.980469 199.460938 "/>
<g clip-path="url(#clip6)" clip-rule="nonzero">
<path style="fill:none;stroke-width:0.8;stroke-linecap:square;stroke-linejoin:round;stroke:rgb(69.019608%,69.019608%,69.019608%);stroke-opacity:1;stroke-miterlimit:4;" d="M 234.68125 145.8 L 234.68125 7.2 " transform="matrix(1.25,0,0,1.25,0,0)"/>
</g>
<path style="fill:none;stroke-width:0.8;stroke-linecap:butt;stroke-linejoin:round;stroke:rgb(0%,0%,0%);stroke-opacity:1;stroke-miterlimit:4;" d="M 0.001017 0 L 0.001017 3.5 " transform="matrix(1.25,0,0,1.25,293.350291,182.25)"/>
<path style=" stroke:none;fill-rule:nonzero;fill:rgb(0%,0%,0%);fill-opacity:1;" d="M 294.097656 192.460938 L 290.984375 197.324219 L 294.097656 197.324219 Z M 293.773438 191.386719 L 295.324219 191.386719 L 295.324219 197.324219 L 296.625 197.324219 L 296.625 198.351562 L 295.324219 198.351562 L 295.324219 200.5 L 294.097656 200.5 L 294.097656 198.351562 L 289.984375 198.351562 L 289.984375 197.160156 Z M 293.773438 191.386719 "/>
<g clip-path="url(#clip7)" clip-rule="nonzero">
<path style="fill:none;stroke-width:0.8;stroke-linecap:square;stroke-linejoin:round;stroke:rgb(69.019608%,69.019608%,69.019608%);stroke-opacity:1;stroke-miterlimit:4;" d="M 267.3125 145.8 L 267.3125 7.2 " transform="matrix(1.25,0,0,1.25,0,0)"/>
</g>
<path style="fill:none;stroke-width:0.8;stroke-linecap:butt;stroke-linejoin:round;stroke:rgb(0%,0%,0%);stroke-opacity:1;stroke-miterlimit:4;" d="M -0.001432 0 L -0.001432 3.5 " transform="matrix(1.25,0,0,1.25,334.142415,182.25)"/>
<path style=" stroke:none;fill-rule:nonzero;fill:rgb(0%,0%,0%);fill-opacity:1;" d="M 334.292969 195.453125 C 333.738281 195.453125 333.300781 195.640625 332.976562 196.019531 C 332.652344 196.398438 332.492188 196.914062 332.492188 197.574219 C 332.492188 198.230469 332.652344 198.746094 332.976562 199.128906 C 333.300781 199.507812 333.738281 199.699219 334.292969 199.699219 C 334.847656 199.699219 335.285156 199.507812 335.605469 199.128906 C 335.929688 198.746094 336.089844 198.230469 336.089844 197.574219 C 336.089844 196.914062 335.929688 196.398438 335.605469 196.019531 C 335.285156 195.640625 334.847656 195.453125 334.292969 195.453125 Z M 336.738281 191.585938 L 336.738281 192.710938 C 336.429688 192.5625 336.117188 192.453125 335.800781 192.375 C 335.488281 192.296875 335.175781 192.257812 334.863281 192.257812 C 334.050781 192.257812 333.429688 192.53125 333 193.082031 C 332.570312 193.632812 332.328125 194.460938 332.265625 195.574219 C 332.503906 195.21875 332.804688 194.945312 333.167969 194.757812 C 333.53125 194.570312 333.929688 194.476562 334.363281 194.476562 C 335.28125 194.476562 336.003906 194.753906 336.535156 195.308594 C 337.066406 195.863281 337.332031 196.617188 337.332031 197.574219 C 337.332031 198.511719 337.054688 199.261719 336.5 199.828125 C 335.949219 200.394531 335.210938 200.675781 334.292969 200.675781 C 333.238281 200.675781 332.433594 200.273438 331.875 199.464844 C 331.316406 198.65625 331.039062 197.484375 331.039062 195.953125 C 331.039062 194.511719 331.378906 193.363281 332.0625 192.507812 C 332.746094 191.648438 333.664062 191.222656 334.816406 191.222656 C 335.125 191.222656 335.4375 191.25 335.753906 191.3125 C 336.070312 191.375 336.398438 191.464844 336.738281 191.585938 Z M 336.738281 191.585938 "/>
<path style=" stroke:none;fill-rule:nonzero;fill:rgb(0%,0%,0%);fill-opacity:1;" d="M 214.828125 210.761719 L 212.351562 214.085938 L 214.953125 217.597656 L 213.628906 217.597656 L 211.640625 214.910156 L 209.648438 217.597656 L 208.324219 217.597656 L 210.980469 214.019531 L 208.550781 210.761719 L 209.875 210.761719 L 211.6875 213.195312 L 213.5 210.761719 Z M 214.828125 210.761719 "/>
<g clip-path="url(#clip8)" clip-rule="nonzero">
<path style="fill:none;stroke-width:0.8;stroke-linecap:square;stroke-linejoin:round;stroke:rgb(69.019608%,69.019608%,69.019608%);stroke-opacity:1;stroke-miterlimit:4;" d="M 43.78125 139.5 L 294.88125 139.5 " transform="matrix(1.25,0,0,1.25,0,0)"/>
</g>
<path style="fill:none;stroke-width:0.8;stroke-linecap:butt;stroke-linejoin:round;stroke:rgb(0%,0%,0%);stroke-opacity:1;stroke-miterlimit:4;" d="M 0 0 L -3.5 0 " transform="matrix(1.25,0,0,1.25,54.726562,174.375)"/>
<path style=" stroke:none;fill-rule:nonzero;fill:rgb(0%,0%,0%);fill-opacity:1;" d="M 30.070312 170.824219 C 29.4375 170.824219 28.960938 171.136719 28.640625 171.761719 C 28.320312 172.382812 28.160156 173.324219 28.160156 174.578125 C 28.160156 175.824219 28.320312 176.761719 28.640625 177.386719 C 28.960938 178.011719 29.4375 178.324219 30.070312 178.324219 C 30.710938 178.324219 31.1875 178.011719 31.507812 177.386719 C 31.828125 176.761719 31.988281 175.824219 31.988281 174.578125 C 31.988281 173.324219 31.828125 172.382812 31.507812 171.761719 C 31.1875 171.136719 30.710938 170.824219 30.070312 170.824219 Z M 30.070312 169.847656 C 31.09375 169.847656 31.875 170.25 32.414062 171.058594 C 32.953125 171.867188 33.21875 173.039062 33.21875 174.578125 C 33.21875 176.109375 32.953125 177.28125 32.414062 178.089844 C 31.875 178.898438 31.09375 179.300781 30.070312 179.300781 C 29.050781 179.300781 28.269531 178.898438 27.730469 178.089844 C 27.191406 177.28125 26.921875 176.109375 26.921875 174.578125 C 26.921875 173.039062 27.191406 171.867188 27.730469 171.058594 C 28.269531 170.25 29.050781 169.847656 30.070312 169.847656 Z M 30.070312 169.847656 "/>
<path style=" stroke:none;fill-rule:nonzero;fill:rgb(0%,0%,0%);fill-opacity:1;" d="M 35.386719 177.574219 L 36.675781 177.574219 L 36.675781 179.125 L 35.386719 179.125 Z M 35.386719 177.574219 "/>
<path style=" stroke:none;fill-rule:nonzero;fill:rgb(0%,0%,0%);fill-opacity:1;" d="M 41.996094 170.824219 C 41.363281 170.824219 40.886719 171.136719 40.566406 171.761719 C 40.246094 172.382812 40.085938 173.324219 40.085938 174.578125 C 40.085938 175.824219 40.246094 176.761719 40.566406 177.386719 C 40.886719 178.011719 41.363281 178.324219 41.996094 178.324219 C 42.636719 178.324219 43.113281 178.011719 43.433594 177.386719 C 43.753906 176.761719 43.914062 175.824219 43.914062 174.578125 C 43.914062 173.324219 43.753906 172.382812 43.433594 171.761719 C 43.113281 171.136719 42.636719 170.824219 41.996094 170.824219 Z M 41.996094 169.847656 C 43.019531 169.847656 43.800781 170.25 44.339844 171.058594 C 44.878906 171.867188 45.148438 173.039062 45.148438 174.578125 C 45.148438 176.109375 44.878906 177.28125 44.339844 178.089844 C 43.800781 178.898438 43.019531 179.300781 41.996094 179.300781 C 40.976562 179.300781 40.195312 178.898438 39.65625 178.089844 C 39.117188 177.28125 38.847656 176.109375 38.847656 174.578125 C 38.847656 173.039062 39.117188 171.867188 39.65625 171.058594 C 40.195312 170.25 40.976562 169.847656 41.996094 169.847656 Z M 41.996094 169.847656 "/>
<g clip-path="url(#clip9)" clip-rule="nonzero">
<path style="fill:none;stroke-width:0.8;stroke-linecap:square;stroke-linejoin:round;stroke:rgb(69.019608%,69.019608%,69.019608%);stroke-opacity:1;stroke-miterlimit:4;" d="M 43.78125 107.915625 L 294.88125 107.915625 " transform="matrix(1.25,0,0,1.25,0,0)"/>
</g>
<path style="fill:none;stroke-width:0.8;stroke-linecap:butt;stroke-linejoin:round;stroke:rgb(0%,0%,0%);stroke-opacity:1;stroke-miterlimit:4;" d="M 0 -0.000859 L -3.5 -0.000859 " transform="matrix(1.25,0,0,1.25,54.726562,134.895605)"/>
<path style=" stroke:none;fill-rule:nonzero;fill:rgb(0%,0%,0%);fill-opacity:1;" d="M 30.070312 131.34375 C 29.4375 131.34375 28.960938 131.65625 28.640625 132.28125 C 28.320312 132.90625 28.160156 133.84375 28.160156 135.097656 C 28.160156 136.347656 28.320312 137.285156 28.640625 137.910156 C 28.960938 138.535156 29.4375 138.847656 30.070312 138.847656 C 30.710938 138.847656 31.1875 138.535156 31.507812 137.910156 C 31.828125 137.285156 31.988281 136.347656 31.988281 135.097656 C 31.988281 133.84375 31.828125 132.90625 31.507812 132.28125 C 31.1875 131.65625 30.710938 131.34375 30.070312 131.34375 Z M 30.070312 130.367188 C 31.09375 130.367188 31.875 130.773438 32.414062 131.582031 C 32.953125 132.386719 33.21875 133.558594 33.21875 135.097656 C 33.21875 136.632812 32.953125 137.804688 32.414062 138.613281 C 31.875 139.417969 31.09375 139.824219 30.070312 139.824219 C 29.050781 139.824219 28.269531 139.417969 27.730469 138.613281 C 27.191406 137.804688 26.921875 136.632812 26.921875 135.097656 C 26.921875 133.558594 27.191406 132.386719 27.730469 131.582031 C 28.269531 130.773438 29.050781 130.367188 30.070312 130.367188 Z M 30.070312 130.367188 "/>
<path style=" stroke:none;fill-rule:nonzero;fill:rgb(0%,0%,0%);fill-opacity:1;" d="M 35.386719 138.09375 L 36.675781 138.09375 L 36.675781 139.644531 L 35.386719 139.644531 Z M 35.386719 138.09375 "/>
<path style=" stroke:none;fill-rule:nonzero;fill:rgb(0%,0%,0%);fill-opacity:1;" d="M 39.574219 138.609375 L 41.589844 138.609375 L 41.589844 131.65625 L 39.398438 132.09375 L 39.398438 130.972656 L 41.578125 130.53125 L 42.808594 130.53125 L 42.808594 138.609375 L 44.824219 138.609375 L 44.824219 139.644531 L 39.574219 139.644531 Z M 39.574219 138.609375 "/>
<g clip-path="url(#clip10)" clip-rule="nonzero">
<path style="fill:none;stroke-width:0.8;stroke-linecap:square;stroke-linejoin:round;stroke:rgb(69.019608%,69.019608%,69.019608%);stroke-opacity:1;stroke-miterlimit:4;" d="M 43.78125 76.334375 L 294.88125 76.334375 " transform="matrix(1.25,0,0,1.25,0,0)"/>
</g>
<path style="fill:none;stroke-width:0.8;stroke-linecap:butt;stroke-linejoin:round;stroke:rgb(0%,0%,0%);stroke-opacity:1;stroke-miterlimit:4;" d="M 0 0.001408 L -3.5 0.001408 " transform="matrix(1.25,0,0,1.25,54.726562,95.416209)"/>
<path style=" stroke:none;fill-rule:nonzero;fill:rgb(0%,0%,0%);fill-opacity:1;" d="M 30.070312 91.863281 C 29.4375 91.863281 28.960938 92.175781 28.640625 92.800781 C 28.320312 93.425781 28.160156 94.363281 28.160156 95.617188 C 28.160156 96.867188 28.320312 97.804688 28.640625 98.429688 C 28.960938 99.054688 29.4375 99.367188 30.070312 99.367188 C 30.710938 99.367188 31.1875 99.054688 31.507812 98.429688 C 31.828125 97.804688 31.988281 96.867188 31.988281 95.617188 C 31.988281 94.363281 31.828125 93.425781 31.507812 92.800781 C 31.1875 92.175781 30.710938 91.863281 30.070312 91.863281 Z M 30.070312 90.886719 C 31.09375 90.886719 31.875 91.292969 32.414062 92.101562 C 32.953125 92.90625 33.21875 94.082031 33.21875 95.617188 C 33.21875 97.152344 32.953125 98.324219 32.414062 99.132812 C 31.875 99.9375 31.09375 100.34375 30.070312 100.34375 C 29.050781 100.34375 28.269531 99.9375 27.730469 99.132812 C 27.191406 98.324219 26.921875 97.152344 26.921875 95.617188 C 26.921875 94.082031 27.191406 92.90625 27.730469 92.101562 C 28.269531 91.292969 29.050781 90.886719 30.070312 90.886719 Z M 30.070312 90.886719 "/>
<path style=" stroke:none;fill-rule:nonzero;fill:rgb(0%,0%,0%);fill-opacity:1;" d="M 35.386719 98.613281 L 36.675781 98.613281 L 36.675781 100.164062 L 35.386719 100.164062 Z M 35.386719 98.613281 "/>
<path style=" stroke:none;fill-rule:nonzero;fill:rgb(0%,0%,0%);fill-opacity:1;" d="M 40.421875 99.128906 L 44.726562 99.128906 L 44.726562 100.164062 L 38.941406 100.164062 L 38.941406 99.128906 C 39.40625 98.644531 40.042969 97.992188 40.851562 97.179688 C 41.660156 96.363281 42.167969 95.835938 42.375 95.597656 C 42.769531 95.15625 43.046875 94.78125 43.203125 94.472656 C 43.359375 94.167969 43.4375 93.863281 43.4375 93.566406 C 43.4375 93.082031 43.269531 92.6875 42.929688 92.382812 C 42.589844 92.078125 42.144531 91.925781 41.601562 91.925781 C 41.214844 91.925781 40.804688 91.992188 40.375 92.125 C 39.945312 92.261719 39.488281 92.464844 39 92.738281 L 39 91.492188 C 39.496094 91.292969 39.960938 91.140625 40.390625 91.039062 C 40.824219 90.9375 41.21875 90.886719 41.578125 90.886719 C 42.519531 90.886719 43.273438 91.125 43.835938 91.597656 C 44.394531 92.066406 44.675781 92.699219 44.675781 93.488281 C 44.675781 93.863281 44.605469 94.21875 44.464844 94.554688 C 44.324219 94.886719 44.070312 95.285156 43.699219 95.738281 C 43.597656 95.859375 43.273438 96.199219 42.730469 96.761719 C 42.183594 97.328125 41.414062 98.113281 40.421875 99.128906 Z M 40.421875 99.128906 "/>
<g clip-path="url(#clip11)" clip-rule="nonzero">
<path style="fill:none;stroke-width:0.8;stroke-linecap:square;stroke-linejoin:round;stroke:rgb(69.019608%,69.019608%,69.019608%);stroke-opacity:1;stroke-miterlimit:4;" d="M 43.78125 44.75 L 294.88125 44.75 " transform="matrix(1.25,0,0,1.25,0,0)"/>
</g>
<path style="fill:none;stroke-width:0.8;stroke-linecap:butt;stroke-linejoin:round;stroke:rgb(0%,0%,0%);stroke-opacity:1;stroke-miterlimit:4;" d="M 0 0.000549 L -3.5 0.000549 " transform="matrix(1.25,0,0,1.25,54.726562,55.936814)"/>
<path style=" stroke:none;fill-rule:nonzero;fill:rgb(0%,0%,0%);fill-opacity:1;" d="M 30.070312 52.386719 C 29.4375 52.386719 28.960938 52.699219 28.640625 53.324219 C 28.320312 53.945312 28.160156 54.886719 28.160156 56.140625 C 28.160156 57.386719 28.320312 58.324219 28.640625 58.949219 C 28.960938 59.574219 29.4375 59.886719 30.070312 59.886719 C 30.710938 59.886719 31.1875 59.574219 31.507812 58.949219 C 31.828125 58.324219 31.988281 57.386719 31.988281 56.140625 C 31.988281 54.886719 31.828125 53.945312 31.507812 53.324219 C 31.1875 52.699219 30.710938 52.386719 30.070312 52.386719 Z M 30.070312 51.410156 C 31.09375 51.410156 31.875 51.8125 32.414062 52.621094 C 32.953125 53.429688 33.21875 54.601562 33.21875 56.140625 C 33.21875 57.671875 32.953125 58.84375 32.414062 59.652344 C 31.875 60.460938 31.09375 60.863281 30.070312 60.863281 C 29.050781 60.863281 28.269531 60.460938 27.730469 59.652344 C 27.191406 58.84375 26.921875 57.671875 26.921875 56.140625 C 26.921875 54.601562 27.191406 53.429688 27.730469 52.621094 C 28.269531 51.8125 29.050781 51.410156 30.070312 51.410156 Z M 30.070312 51.410156 "/>
<path style=" stroke:none;fill-rule:nonzero;fill:rgb(0%,0%,0%);fill-opacity:1;" d="M 35.386719 59.136719 L 36.675781 59.136719 L 36.675781 60.6875 L 35.386719 60.6875 Z M 35.386719 59.136719 "/>
<path style=" stroke:none;fill-rule:nonzero;fill:rgb(0%,0%,0%);fill-opacity:1;" d="M 43.097656 55.773438 C 43.6875 55.898438 44.144531 56.160156 44.476562 56.5625 C 44.808594 56.960938 44.976562 57.453125 44.976562 58.039062 C 44.976562 58.9375 44.664062 59.632812 44.046875 60.125 C 43.429688 60.617188 42.550781 60.863281 41.410156 60.863281 C 41.027344 60.863281 40.636719 60.824219 40.230469 60.75 C 39.824219 60.675781 39.40625 60.5625 38.976562 60.410156 L 38.976562 59.222656 C 39.316406 59.421875 39.691406 59.570312 40.097656 59.671875 C 40.503906 59.773438 40.929688 59.824219 41.375 59.824219 C 42.148438 59.824219 42.734375 59.671875 43.140625 59.367188 C 43.546875 59.0625 43.75 58.621094 43.75 58.039062 C 43.75 57.5 43.558594 57.078125 43.183594 56.777344 C 42.808594 56.472656 42.285156 56.324219 41.613281 56.324219 L 40.550781 56.324219 L 40.550781 55.308594 L 41.664062 55.308594 C 42.269531 55.308594 42.730469 55.1875 43.054688 54.945312 C 43.375 54.703125 43.535156 54.355469 43.535156 53.898438 C 43.535156 53.429688 43.371094 53.074219 43.039062 52.824219 C 42.707031 52.570312 42.230469 52.445312 41.613281 52.445312 C 41.273438 52.445312 40.914062 52.484375 40.527344 52.558594 C 40.140625 52.628906 39.714844 52.742188 39.25 52.898438 L 39.25 51.800781 C 39.71875 51.667969 40.15625 51.570312 40.566406 51.507812 C 40.976562 51.441406 41.359375 51.410156 41.722656 51.410156 C 42.660156 51.410156 43.398438 51.621094 43.945312 52.046875 C 44.488281 52.472656 44.761719 53.046875 44.761719 53.769531 C 44.761719 54.273438 44.617188 54.703125 44.328125 55.050781 C 44.039062 55.398438 43.628906 55.636719 43.097656 55.773438 Z M 43.097656 55.773438 "/>
<g clip-path="url(#clip12)" clip-rule="nonzero">
<path style="fill:none;stroke-width:0.8;stroke-linecap:square;stroke-linejoin:round;stroke:rgb(69.019608%,69.019608%,69.019608%);stroke-opacity:1;stroke-miterlimit:4;" d="M 43.78125 13.165625 L 294.88125 13.165625 " transform="matrix(1.25,0,0,1.25,0,0)"/>
</g>
<path style="fill:none;stroke-width:0.8;stroke-linecap:butt;stroke-linejoin:round;stroke:rgb(0%,0%,0%);stroke-opacity:1;stroke-miterlimit:4;" d="M 0 -0.00031 L -3.5 -0.00031 " transform="matrix(1.25,0,0,1.25,54.726562,16.457419)"/>
<path style=" stroke:none;fill-rule:nonzero;fill:rgb(0%,0%,0%);fill-opacity:1;" d="M 30.070312 12.90625 C 29.4375 12.90625 28.960938 13.21875 28.640625 13.84375 C 28.320312 14.46875 28.160156 15.40625 28.160156 16.660156 C 28.160156 17.910156 28.320312 18.84375 28.640625 19.46875 C 28.960938 20.09375 29.4375 20.40625 30.070312 20.40625 C 30.710938 20.40625 31.1875 20.09375 31.507812 19.46875 C 31.828125 18.84375 31.988281 17.910156 31.988281 16.660156 C 31.988281 15.40625 31.828125 14.46875 31.507812 13.84375 C 31.1875 13.21875 30.710938 12.90625 30.070312 12.90625 Z M 30.070312 11.929688 C 31.09375 11.929688 31.875 12.332031 32.414062 13.140625 C 32.953125 13.949219 33.21875 15.121094 33.21875 16.660156 C 33.21875 18.195312 32.953125 19.363281 32.414062 20.171875 C 31.875 20.980469 31.09375 21.382812 30.070312 21.382812 C 29.050781 21.382812 28.269531 20.980469 27.730469 20.171875 C 27.191406 19.363281 26.921875 18.195312 26.921875 16.660156 C 26.921875 15.121094 27.191406 13.949219 27.730469 13.140625 C 28.269531 12.332031 29.050781 11.929688 30.070312 11.929688 Z M 30.070312 11.929688 "/>
<path style=" stroke:none;fill-rule:nonzero;fill:rgb(0%,0%,0%);fill-opacity:1;" d="M 35.386719 19.65625 L 36.675781 19.65625 L 36.675781 21.207031 L 35.386719 21.207031 Z M 35.386719 19.65625 "/>
<path style=" stroke:none;fill-rule:nonzero;fill:rgb(0%,0%,0%);fill-opacity:1;" d="M 42.75 13.167969 L 39.636719 18.03125 L 42.75 18.03125 Z M 42.425781 12.09375 L 43.976562 12.09375 L 43.976562 18.03125 L 45.277344 18.03125 L 45.277344 19.058594 L 43.976562 19.058594 L 43.976562 21.207031 L 42.75 21.207031 L 42.75 19.058594 L 38.636719 19.058594 L 38.636719 17.867188 Z M 42.425781 12.09375 "/>
<path style=" stroke:none;fill-rule:nonzero;fill:rgb(0%,0%,0%);fill-opacity:1;" d="M 17.472656 105.90625 L 21.097656 105.90625 L 21.097656 107.035156 L 11.664062 107.035156 L 11.664062 105.90625 L 12.699219 105.90625 C 12.292969 105.667969 11.992188 105.371094 11.796875 105.011719 C 11.597656 104.648438 11.5 104.21875 11.5 103.71875 C 11.5 102.890625 11.828125 102.214844 12.488281 101.695312 C 13.144531 101.175781 14.011719 100.917969 15.085938 100.917969 C 16.160156 100.917969 17.027344 101.175781 17.6875 101.695312 C 18.347656 102.214844 18.675781 102.890625 18.675781 103.71875 C 18.675781 104.21875 18.578125 104.648438 18.378906 105.011719 C 18.179688 105.371094 17.878906 105.667969 17.472656 105.90625 Z M 15.085938 102.082031 C 14.261719 102.082031 13.613281 102.253906 13.144531 102.59375 C 12.671875 102.933594 12.4375 103.398438 12.4375 103.992188 C 12.4375 104.589844 12.671875 105.054688 13.144531 105.394531 C 13.613281 105.734375 14.261719 105.90625 15.085938 105.90625 C 15.910156 105.90625 16.558594 105.734375 17.03125 105.394531 C 17.5 105.054688 17.734375 104.589844 17.734375 103.992188 C 17.734375 103.398438 17.5 102.933594 17.03125 102.59375 C 16.558594 102.253906 15.910156 102.082031 15.085938 102.082031 Z M 15.085938 102.082031 "/>
<path style=" stroke:none;fill-rule:nonzero;fill:rgb(0%,0%,0%);fill-opacity:1;" d="M 9.015625 96.359375 C 9.949219 96.902344 10.875 97.308594 11.792969 97.574219 C 12.707031 97.839844 13.632812 97.96875 14.574219 97.96875 C 15.511719 97.96875 16.445312 97.835938 17.367188 97.570312 C 18.289062 97.304688 19.214844 96.898438 20.148438 96.359375 L 20.148438 97.335938 C 19.191406 97.945312 18.25 98.402344 17.328125 98.703125 C 16.402344 99.007812 15.484375 99.160156 14.574219 99.160156 C 13.667969 99.160156 12.753906 99.007812 11.835938 98.707031 C 10.914062 98.40625 9.972656 97.949219 9.015625 97.335938 Z M 9.015625 96.359375 "/>
<path style=" stroke:none;fill-rule:nonzero;fill:rgb(0%,0%,0%);fill-opacity:1;" d="M 11.664062 88.496094 L 14.988281 90.96875 L 18.5 88.371094 L 18.5 89.695312 L 15.8125 91.683594 L 18.5 93.671875 L 18.5 95 L 14.921875 92.34375 L 11.664062 94.773438 L 11.664062 93.449219 L 14.097656 91.636719 L 11.664062 89.824219 Z M 11.664062 88.496094 "/>
<path style=" stroke:none;fill-rule:nonzero;fill:rgb(0%,0%,0%);fill-opacity:1;" d="M 9.015625 86.957031 L 9.015625 85.980469 C 9.972656 85.371094 10.914062 84.914062 11.835938 84.613281 C 12.753906 84.308594 13.667969 84.15625 14.574219 84.15625 C 15.484375 84.15625 16.402344 84.308594 17.328125 84.613281 C 18.25 84.914062 19.191406 85.371094 20.148438 85.980469 L 20.148438 86.957031 C 19.214844 86.417969 18.289062 86.015625 17.367188 85.746094 C 16.445312 85.480469 15.511719 85.347656 14.574219 85.347656 C 13.632812 85.347656 12.707031 85.480469 11.792969 85.746094 C 10.875 86.015625 9.949219 86.417969 9.015625 86.957031 Z M 9.015625 86.957031 "/>
<path style="fill:none;stroke-width:1.5;stroke-linecap:square;stroke-linejoin:round;stroke:rgb(12.156863%,46.666667%,70.588235%);stroke-opacity:1;stroke-miterlimit:4;" d="M 55.19375 139.5 L 108.0625 139.39375 L 113.446875 139.15 L 117.034375 138.771875 L 119.809375 138.259375 L 122.09375 137.61875 L 124.053125 136.85625 L 125.846875 135.93125 L 127.478125 134.865625 L 129.109375 133.534375 L 130.740625 131.903125 L 132.375 129.91875 L 133.840625 127.79375 L 135.475 125.015625 L 137.10625 121.75625 L 138.7375 117.978125 L 140.36875 113.65625 L 142.1625 108.25625 L 144.121875 101.596875 L 146.24375 93.525 L 148.690625 83.25 L 151.790625 69.178125 L 157.828125 41.571875 L 159.95 33.00625 L 161.74375 26.675 L 163.2125 22.275 L 164.51875 19.04375 L 165.659375 16.7875 L 166.6375 15.30625 L 167.45625 14.403125 L 168.271875 13.809375 L 168.921875 13.55625 L 169.575 13.50625 L 170.228125 13.65625 L 170.88125 14.009375 L 171.696875 14.728125 L 172.5125 15.753125 L 173.490625 17.378125 L 174.634375 19.7875 L 175.775 22.728125 L 177.08125 26.675 L 178.7125 32.39375 L 180.671875 40.190625 L 183.11875 50.95625 L 192.25625 92.209375 L 194.540625 101.00625 L 196.5 107.73125 L 198.45625 113.65625 L 200.253125 118.38125 L 201.884375 122.103125 L 203.515625 125.315625 L 205.146875 128.046875 L 206.778125 130.346875 L 208.409375 132.25625 L 210.040625 133.825 L 211.675 135.096875 L 213.46875 136.209375 L 215.425 137.1375 L 217.546875 137.875 L 219.83125 138.434375 L 222.60625 138.878125 L 226.03125 139.19375 L 230.928125 139.396875 L 239.4125 139.4875 L 277.103125 139.5 L 283.46875 139.5 " transform="matrix(1.25,0,0,1.25,0,0)"/>
<path style="fill:none;stroke-width:1.5;stroke-linecap:butt;stroke-linejoin:round;stroke:rgb(74.901961%,0%,74.901961%);stroke-opacity:1;stroke-dasharray:5.55,2.4;stroke-miterlimit:4;" d="M 55.19375 139.3625 L 65.6375 139.1 L 72.98125 138.7 L 78.690625 138.178125 L 83.5875 137.515625 L 87.990625 136.696875 L 91.90625 135.746875 L 95.496875 134.653125 L 98.925 133.3875 L 102.1875 131.953125 L 105.45 130.271875 L 108.715625 128.328125 L 111.978125 126.1125 L 115.240625 123.615625 L 118.503125 120.840625 L 121.93125 117.640625 L 125.684375 113.83125 L 130.090625 109.01875 L 136.125 102.053125 L 144.446875 92.48125 L 148.365625 88.33125 L 151.628125 85.19375 L 154.4 82.825 L 157.0125 80.8875 L 159.296875 79.45625 L 161.58125 78.2875 L 163.703125 77.45625 L 165.659375 76.915625 L 167.61875 76.59375 L 169.575 76.5 L 171.534375 76.634375 L 173.490625 76.990625 L 175.45 77.56875 L 177.571875 78.4375 L 179.69375 79.55 L 181.978125 81 L 184.425 82.825 L 187.034375 85.046875 L 189.971875 87.840625 L 193.4 91.4125 L 197.803125 96.35 L 212.978125 113.65625 L 216.89375 117.640625 L 220.484375 120.9875 L 223.9125 123.878125 L 227.175 126.346875 L 230.4375 128.534375 L 233.7 130.45 L 236.965625 132.10625 L 240.228125 133.51875 L 243.653125 134.7625 L 247.24375 135.834375 L 251.159375 136.765625 L 255.403125 137.54375 L 260.134375 138.178125 L 265.68125 138.6875 L 272.371875 139.065625 L 281.01875 139.31875 L 283.46875 139.359375 " transform="matrix(1.25,0,0,1.25,0,0)"/>
<path style="fill:none;stroke-width:1.5;stroke-linecap:butt;stroke-linejoin:round;stroke:rgb(0%,50.196078%,0%);stroke-opacity:1;stroke-dasharray:9.6,2.4,1.5,2.4;stroke-miterlimit:4;" d="M 55.19375 139.5 L 157.0125 139.39375 L 162.396875 139.15 L 165.9875 138.771875 L 168.759375 138.259375 L 171.04375 137.61875 L 173.003125 136.85625 L 174.796875 135.93125 L 176.428125 134.865625 L 178.059375 133.534375 L 179.69375 131.903125 L 181.325 129.91875 L 182.79375 127.79375 L 184.425 125.015625 L 186.05625 121.75625 L 187.6875 117.978125 L 189.31875 113.65625 L 191.115625 108.25625 L 193.071875 101.596875 L 195.19375 93.525 L 197.640625 83.25 L 200.740625 69.178125 L 206.778125 41.571875 L 208.9 33.00625 L 210.69375 26.675 L 212.1625 22.275 L 213.46875 19.04375 L 214.609375 16.7875 L 215.590625 15.30625 L 216.40625 14.403125 L 217.221875 13.809375 L 217.875 13.55625 L 218.525 13.50625 L 219.178125 13.65625 L 219.83125 14.009375 L 220.646875 14.728125 L 221.4625 15.753125 L 222.44375 17.378125 L 223.584375 19.7875 L 224.728125 22.728125 L 226.03125 26.675 L 227.6625 32.39375 L 229.621875 40.190625 L 232.06875 50.95625 L 241.20625 92.209375 L 243.490625 101.00625 L 245.45 107.73125 L 247.40625 113.65625 L 249.203125 118.38125 L 250.834375 122.103125 L 252.465625 125.315625 L 254.096875 128.046875 L 255.728125 130.346875 L 257.359375 132.25625 L 258.99375 133.825 L 260.625 135.096875 L 262.41875 136.209375 L 264.378125 137.1375 L 266.496875 137.875 L 268.78125 138.434375 L 271.55625 138.878125 L 274.984375 139.19375 L 279.878125 139.396875 L 283.46875 139.45625 " transform="matrix(1.25,0,0,1.25,0,0)"/>
<path style="fill:none;stroke-width:0.8;stroke-linecap:square;stroke-linejoin:miter;stroke:rgb(0%,0%,0%);stroke-opacity:1;stroke-miterlimit:4;" d="M 43.78125 145.8 L 43.78125 7.2 " transform="matrix(1.25,0,0,1.25,0,0)"/>
<path style="fill:none;stroke-width:0.8;stroke-linecap:square;stroke-linejoin:miter;stroke:rgb(0%,0%,0%);stroke-opacity:1;stroke-miterlimit:4;" d="M 294.88125 145.8 L 294.88125 7.2 " transform="matrix(1.25,0,0,1.25,0,0)"/>
<path style="fill:none;stroke-width:0.8;stroke-linecap:square;stroke-linejoin:miter;stroke:rgb(0%,0%,0%);stroke-opacity:1;stroke-miterlimit:4;" d="M 43.78125 145.8 L 294.88125 145.8 " transform="matrix(1.25,0,0,1.25,0,0)"/>
<path style="fill:none;stroke-width:0.8;stroke-linecap:square;stroke-linejoin:miter;stroke:rgb(0%,0%,0%);stroke-opacity:1;stroke-miterlimit:4;" d="M 43.78125 7.2 L 294.88125 7.2 " transform="matrix(1.25,0,0,1.25,0,0)"/>
<use xlink:href="#surface5" mask="url(#mask0)"/>
<path style="fill:none;stroke-width:1.5;stroke-linecap:square;stroke-linejoin:round;stroke:rgb(12.156863%,46.666667%,70.588235%);stroke-opacity:1;stroke-miterlimit:4;" d="M 52.78125 20.3 L 72.78125 20.3 " transform="matrix(1.25,0,0,1.25,0,0)"/>
<path style=" stroke:none;fill-rule:nonzero;fill:rgb(0%,0%,0%);fill-opacity:1;" d="M 107.476562 24.226562 C 107.757812 23.71875 108.09375 23.347656 108.484375 23.109375 C 108.875 22.867188 109.335938 22.75 109.863281 22.75 C 110.574219 22.75 111.125 22.996094 111.511719 23.496094 C 111.898438 23.992188 112.09375 24.703125 112.09375 25.621094 L 112.09375 29.75 L 110.960938 29.75 L 110.960938 25.660156 C 110.960938 25.003906 110.847656 24.519531 110.613281 24.203125 C 110.382812 23.882812 110.027344 23.726562 109.554688 23.726562 C 108.96875 23.726562 108.511719 23.917969 108.171875 24.304688 C 107.835938 24.691406 107.664062 25.21875 107.664062 25.886719 L 107.664062 29.75 L 106.539062 29.75 L 106.539062 25.660156 C 106.539062 25 106.421875 24.511719 106.1875 24.199219 C 105.957031 23.882812 105.601562 23.726562 105.117188 23.726562 C 104.539062 23.726562 104.085938 23.917969 103.746094 24.308594 C 103.410156 24.695312 103.242188 25.222656 103.242188 25.886719 L 103.242188 29.75 L 102.109375 29.75 L 102.109375 22.914062 L 103.242188 22.914062 L 103.242188 23.976562 C 103.496094 23.554688 103.804688 23.246094 104.164062 23.046875 C 104.519531 22.847656 104.945312 22.75 105.4375 22.75 C 105.933594 22.75 106.359375 22.875 106.703125 23.128906 C 107.054688 23.378906 107.308594 23.746094 107.476562 24.226562 Z M 107.476562 24.226562 "/>
<path style=" stroke:none;fill-rule:nonzero;fill:rgb(0%,0%,0%);fill-opacity:1;" d="M 120.179688 26.050781 L 120.179688 26.597656 L 115.015625 26.597656 C 115.0625 27.371094 115.296875 27.960938 115.714844 28.367188 C 116.128906 28.769531 116.710938 28.972656 117.457031 28.972656 C 117.886719 28.972656 118.304688 28.921875 118.710938 28.816406 C 119.113281 28.710938 119.515625 28.550781 119.917969 28.339844 L 119.917969 29.402344 C 119.511719 29.570312 119.101562 29.703125 118.675781 29.792969 C 118.253906 29.882812 117.824219 29.925781 117.390625 29.925781 C 116.296875 29.925781 115.433594 29.609375 114.796875 28.976562 C 114.160156 28.339844 113.84375 27.480469 113.84375 26.398438 C 113.84375 25.277344 114.144531 24.390625 114.75 23.734375 C 115.351562 23.078125 116.167969 22.75 117.195312 22.75 C 118.113281 22.75 118.839844 23.042969 119.375 23.636719 C 119.910156 24.226562 120.179688 25.03125 120.179688 26.050781 Z M 119.054688 25.71875 C 119.046875 25.105469 118.875 24.617188 118.539062 24.25 C 118.203125 23.882812 117.757812 23.699219 117.207031 23.699219 C 116.578125 23.699219 116.078125 23.875 115.703125 24.230469 C 115.324219 24.585938 115.109375 25.082031 115.050781 25.726562 Z M 119.054688 25.71875 "/>
<path style=" stroke:none;fill-rule:nonzero;fill:rgb(0%,0%,0%);fill-opacity:1;" d="M 125.128906 26.3125 C 124.222656 26.3125 123.59375 26.417969 123.242188 26.625 C 122.890625 26.832031 122.714844 27.183594 122.714844 27.6875 C 122.714844 28.085938 122.847656 28.402344 123.109375 28.636719 C 123.375 28.867188 123.730469 28.984375 124.179688 28.984375 C 124.804688 28.984375 125.304688 28.765625 125.679688 28.324219 C 126.058594 27.882812 126.246094 27.292969 126.246094 26.5625 L 126.246094 26.3125 Z M 127.367188 25.847656 L 127.367188 29.75 L 126.246094 29.75 L 126.246094 28.710938 C 125.988281 29.125 125.667969 29.429688 125.285156 29.628906 C 124.902344 29.828125 124.4375 29.925781 123.882812 29.925781 C 123.183594 29.925781 122.625 29.730469 122.210938 29.335938 C 121.800781 28.941406 121.59375 28.417969 121.59375 27.757812 C 121.59375 26.988281 121.851562 26.410156 122.363281 26.019531 C 122.878906 25.628906 123.648438 25.433594 124.667969 25.433594 L 126.246094 25.433594 L 126.246094 25.324219 C 126.246094 24.804688 126.074219 24.40625 125.734375 24.125 C 125.394531 23.839844 124.917969 23.699219 124.304688 23.699219 C 123.914062 23.699219 123.53125 23.746094 123.160156 23.839844 C 122.792969 23.933594 122.4375 24.074219 122.09375 24.261719 L 122.09375 23.222656 C 122.503906 23.0625 122.902344 22.945312 123.289062 22.867188 C 123.675781 22.789062 124.054688 22.75 124.417969 22.75 C 125.410156 22.75 126.148438 23.003906 126.636719 23.519531 C 127.125 24.03125 127.367188 24.804688 127.367188 25.847656 Z M 127.367188 25.847656 "/>
<path style=" stroke:none;fill-rule:nonzero;fill:rgb(0%,0%,0%);fill-opacity:1;" d="M 135.363281 25.621094 L 135.363281 29.75 L 134.242188 29.75 L 134.242188 25.660156 C 134.242188 25.011719 134.117188 24.527344 133.863281 24.207031 C 133.609375 23.886719 133.230469 23.726562 132.726562 23.726562 C 132.121094 23.726562 131.644531 23.917969 131.292969 24.304688 C 130.941406 24.691406 130.765625 25.21875 130.765625 25.886719 L 130.765625 29.75 L 129.636719 29.75 L 129.636719 22.914062 L 130.765625 22.914062 L 130.765625 23.976562 C 131.035156 23.5625 131.351562 23.257812 131.714844 23.054688 C 132.082031 22.851562 132.5 22.75 132.976562 22.75 C 133.761719 22.75 134.355469 22.992188 134.757812 23.476562 C 135.164062 23.960938 135.363281 24.675781 135.363281 25.621094 Z M 135.363281 25.621094 "/>
<path style=" stroke:none;fill-rule:nonzero;fill:rgb(0%,0%,0%);fill-opacity:1;" d="M 144.371094 21.449219 C 143.738281 21.449219 143.261719 21.761719 142.941406 22.386719 C 142.621094 23.007812 142.460938 23.949219 142.460938 25.203125 C 142.460938 26.449219 142.621094 27.386719 142.941406 28.011719 C 143.261719 28.636719 143.738281 28.949219 144.371094 28.949219 C 145.011719 28.949219 145.492188 28.636719 145.808594 28.011719 C 146.128906 27.386719 146.289062 26.449219 146.289062 25.203125 C 146.289062 23.949219 146.128906 23.007812 145.808594 22.386719 C 145.492188 21.761719 145.011719 21.449219 144.371094 21.449219 Z M 144.371094 20.472656 C 145.394531 20.472656 146.175781 20.875 146.714844 21.683594 C 147.253906 22.492188 147.523438 23.664062 147.523438 25.203125 C 147.523438 26.734375 147.253906 27.90625 146.714844 28.714844 C 146.175781 29.523438 145.394531 29.925781 144.371094 29.925781 C 143.351562 29.925781 142.570312 29.523438 142.03125 28.714844 C 141.492188 27.90625 141.222656 26.734375 141.222656 25.203125 C 141.222656 23.664062 141.492188 22.492188 142.03125 21.683594 C 142.570312 20.875 143.351562 20.472656 144.371094 20.472656 Z M 144.371094 20.472656 "/>
<path style=" stroke:none;fill-rule:nonzero;fill:rgb(0%,0%,0%);fill-opacity:1;" d="M 149.816406 28.199219 L 151.105469 28.199219 L 151.105469 29.25 L 150.105469 31.203125 L 149.316406 31.203125 L 149.816406 29.25 Z M 149.816406 28.199219 "/>
<path style=" stroke:none;fill-rule:nonzero;fill:rgb(0%,0%,0%);fill-opacity:1;" d="M 161.835938 23.113281 L 161.835938 24.175781 C 161.515625 24.011719 161.1875 23.890625 160.84375 23.8125 C 160.503906 23.730469 160.148438 23.6875 159.78125 23.6875 C 159.226562 23.6875 158.808594 23.773438 158.53125 23.945312 C 158.25 24.113281 158.109375 24.371094 158.109375 24.714844 C 158.109375 24.972656 158.210938 25.179688 158.410156 25.328125 C 158.609375 25.476562 159.011719 25.617188 159.613281 25.75 L 160 25.835938 C 160.796875 26.007812 161.359375 26.246094 161.695312 26.558594 C 162.03125 26.871094 162.203125 27.304688 162.203125 27.863281 C 162.203125 28.496094 161.949219 29 161.445312 29.371094 C 160.945312 29.742188 160.253906 29.925781 159.375 29.925781 C 159.007812 29.925781 158.628906 29.890625 158.230469 29.820312 C 157.832031 29.746094 157.414062 29.640625 156.976562 29.5 L 156.976562 28.339844 C 157.390625 28.554688 157.800781 28.714844 158.203125 28.824219 C 158.605469 28.929688 159.003906 28.984375 159.398438 28.984375 C 159.929688 28.984375 160.335938 28.894531 160.617188 28.714844 C 160.90625 28.53125 161.046875 28.277344 161.046875 27.949219 C 161.046875 27.644531 160.945312 27.410156 160.738281 27.246094 C 160.535156 27.082031 160.082031 26.925781 159.386719 26.777344 L 158.996094 26.683594 C 158.300781 26.539062 157.796875 26.3125 157.488281 26.011719 C 157.179688 25.707031 157.023438 25.289062 157.023438 24.761719 C 157.023438 24.117188 157.253906 23.621094 157.710938 23.273438 C 158.164062 22.921875 158.8125 22.75 159.648438 22.75 C 160.0625 22.75 160.453125 22.777344 160.820312 22.839844 C 161.1875 22.898438 161.523438 22.992188 161.835938 23.113281 Z M 161.835938 23.113281 "/>
<path style=" stroke:none;fill-rule:nonzero;fill:rgb(0%,0%,0%);fill-opacity:1;" d="M 165.101562 20.972656 L 165.101562 22.914062 L 167.414062 22.914062 L 167.414062 23.785156 L 165.101562 23.785156 L 165.101562 27.496094 C 165.101562 28.054688 165.175781 28.410156 165.328125 28.570312 C 165.480469 28.730469 165.792969 28.808594 166.261719 28.808594 L 167.414062 28.808594 L 167.414062 29.75 L 166.261719 29.75 C 165.394531 29.75 164.796875 29.585938 164.464844 29.265625 C 164.136719 28.941406 163.972656 28.351562 163.972656 27.496094 L 163.972656 23.785156 L 163.148438 23.785156 L 163.148438 22.914062 L 163.972656 22.914062 L 163.972656 20.972656 Z M 165.101562 20.972656 "/>
<path style=" stroke:none;fill-rule:nonzero;fill:rgb(0%,0%,0%);fill-opacity:1;" d="M 173.386719 23.949219 L 173.386719 20.25 L 174.511719 20.25 L 174.511719 29.75 L 173.386719 29.75 L 173.386719 28.722656 C 173.152344 29.128906 172.855469 29.429688 172.492188 29.628906 C 172.132812 29.828125 171.703125 29.925781 171.195312 29.925781 C 170.371094 29.925781 169.699219 29.597656 169.179688 28.9375 C 168.660156 28.277344 168.402344 27.410156 168.402344 26.335938 C 168.402344 25.261719 168.660156 24.394531 169.179688 23.738281 C 169.699219 23.078125 170.371094 22.75 171.195312 22.75 C 171.703125 22.75 172.132812 22.847656 172.492188 23.046875 C 172.855469 23.242188 173.152344 23.542969 173.386719 23.949219 Z M 169.5625 26.335938 C 169.5625 27.160156 169.730469 27.808594 170.070312 28.28125 C 170.410156 28.75 170.878906 28.984375 171.472656 28.984375 C 172.066406 28.984375 172.535156 28.75 172.875 28.28125 C 173.21875 27.808594 173.386719 27.160156 173.386719 26.335938 C 173.386719 25.511719 173.21875 24.863281 172.875 24.394531 C 172.535156 23.921875 172.066406 23.6875 171.472656 23.6875 C 170.878906 23.6875 170.410156 23.921875 170.070312 24.394531 C 169.730469 24.863281 169.5625 25.511719 169.5625 26.335938 Z M 169.5625 26.335938 "/>
<path style=" stroke:none;fill-rule:nonzero;fill:rgb(0%,0%,0%);fill-opacity:1;" d="M 181.171875 28.710938 L 183.183594 28.710938 L 183.183594 21.757812 L 180.992188 22.199219 L 180.992188 21.074219 L 183.171875 20.636719 L 184.40625 20.636719 L 184.40625 28.710938 L 186.417969 28.710938 L 186.417969 29.75 L 181.171875 29.75 Z M 181.171875 28.710938 "/>
<path style="fill:none;stroke-width:1.5;stroke-linecap:butt;stroke-linejoin:round;stroke:rgb(74.901961%,0%,74.901961%);stroke-opacity:1;stroke-dasharray:5.55,2.4;stroke-miterlimit:4;" d="M 52.78125 34.978125 L 72.78125 34.978125 " transform="matrix(1.25,0,0,1.25,0,0)"/>
<path style=" stroke:none;fill-rule:nonzero;fill:rgb(0%,0%,0%);fill-opacity:1;" d="M 107.476562 42.574219 C 107.757812 42.066406 108.09375 41.695312 108.484375 41.457031 C 108.875 41.214844 109.335938 41.097656 109.863281 41.097656 C 110.574219 41.097656 111.125 41.34375 111.511719 41.84375 C 111.898438 42.339844 112.09375 43.050781 112.09375 43.96875 L 112.09375 48.097656 L 110.960938 48.097656 L 110.960938 44.007812 C 110.960938 43.351562 110.847656 42.867188 110.613281 42.550781 C 110.382812 42.230469 110.027344 42.074219 109.554688 42.074219 C 108.96875 42.074219 108.511719 42.265625 108.171875 42.652344 C 107.835938 43.039062 107.664062 43.566406 107.664062 44.234375 L 107.664062 48.097656 L 106.539062 48.097656 L 106.539062 44.007812 C 106.539062 43.347656 106.421875 42.859375 106.1875 42.546875 C 105.957031 42.230469 105.601562 42.074219 105.117188 42.074219 C 104.539062 42.074219 104.085938 42.265625 103.746094 42.65625 C 103.410156 43.042969 103.242188 43.570312 103.242188 44.234375 L 103.242188 48.097656 L 102.109375 48.097656 L 102.109375 41.261719 L 103.242188 41.261719 L 103.242188 42.324219 C 103.496094 41.902344 103.804688 41.59375 104.164062 41.394531 C 104.519531 41.195312 104.945312 41.097656 105.4375 41.097656 C 105.933594 41.097656 106.359375 41.222656 106.703125 41.476562 C 107.054688 41.726562 107.308594 42.09375 107.476562 42.574219 Z M 107.476562 42.574219 "/>
<path style=" stroke:none;fill-rule:nonzero;fill:rgb(0%,0%,0%);fill-opacity:1;" d="M 120.179688 44.398438 L 120.179688 44.945312 L 115.015625 44.945312 C 115.0625 45.71875 115.296875 46.308594 115.714844 46.714844 C 116.128906 47.117188 116.710938 47.320312 117.457031 47.320312 C 117.886719 47.320312 118.304688 47.269531 118.710938 47.164062 C 119.113281 47.058594 119.515625 46.898438 119.917969 46.6875 L 119.917969 47.75 C 119.511719 47.917969 119.101562 48.050781 118.675781 48.140625 C 118.253906 48.230469 117.824219 48.273438 117.390625 48.273438 C 116.296875 48.273438 115.433594 47.957031 114.796875 47.324219 C 114.160156 46.6875 113.84375 45.828125 113.84375 44.746094 C 113.84375 43.625 114.144531 42.738281 114.75 42.082031 C 115.351562 41.425781 116.167969 41.097656 117.195312 41.097656 C 118.113281 41.097656 118.839844 41.390625 119.375 41.984375 C 119.910156 42.574219 120.179688 43.378906 120.179688 44.398438 Z M 119.054688 44.066406 C 119.046875 43.453125 118.875 42.964844 118.539062 42.597656 C 118.203125 42.230469 117.757812 42.046875 117.207031 42.046875 C 116.578125 42.046875 116.078125 42.222656 115.703125 42.578125 C 115.324219 42.933594 115.109375 43.429688 115.050781 44.074219 Z M 119.054688 44.066406 "/>
<path style=" stroke:none;fill-rule:nonzero;fill:rgb(0%,0%,0%);fill-opacity:1;" d="M 125.128906 44.660156 C 124.222656 44.660156 123.59375 44.765625 123.242188 44.972656 C 122.890625 45.179688 122.714844 45.53125 122.714844 46.035156 C 122.714844 46.433594 122.847656 46.75 123.109375 46.984375 C 123.375 47.214844 123.730469 47.332031 124.179688 47.332031 C 124.804688 47.332031 125.304688 47.113281 125.679688 46.671875 C 126.058594 46.230469 126.246094 45.640625 126.246094 44.910156 L 126.246094 44.660156 Z M 127.367188 44.195312 L 127.367188 48.097656 L 126.246094 48.097656 L 126.246094 47.058594 C 125.988281 47.472656 125.667969 47.777344 125.285156 47.976562 C 124.902344 48.175781 124.4375 48.273438 123.882812 48.273438 C 123.183594 48.273438 122.625 48.078125 122.210938 47.683594 C 121.800781 47.289062 121.59375 46.765625 121.59375 46.105469 C 121.59375 45.335938 121.851562 44.757812 122.363281 44.367188 C 122.878906 43.976562 123.648438 43.78125 124.667969 43.78125 L 126.246094 43.78125 L 126.246094 43.671875 C 126.246094 43.152344 126.074219 42.753906 125.734375 42.472656 C 125.394531 42.1875 124.917969 42.046875 124.304688 42.046875 C 123.914062 42.046875 123.53125 42.09375 123.160156 42.1875 C 122.792969 42.28125 122.4375 42.421875 122.09375 42.609375 L 122.09375 41.570312 C 122.503906 41.410156 122.902344 41.292969 123.289062 41.214844 C 123.675781 41.136719 124.054688 41.097656 124.417969 41.097656 C 125.410156 41.097656 126.148438 41.351562 126.636719 41.867188 C 127.125 42.378906 127.367188 43.152344 127.367188 44.195312 Z M 127.367188 44.195312 "/>
<path style=" stroke:none;fill-rule:nonzero;fill:rgb(0%,0%,0%);fill-opacity:1;" d="M 135.363281 43.96875 L 135.363281 48.097656 L 134.242188 48.097656 L 134.242188 44.007812 C 134.242188 43.359375 134.117188 42.875 133.863281 42.554688 C 133.609375 42.234375 133.230469 42.074219 132.726562 42.074219 C 132.121094 42.074219 131.644531 42.265625 131.292969 42.652344 C 130.941406 43.039062 130.765625 43.566406 130.765625 44.234375 L 130.765625 48.097656 L 129.636719 48.097656 L 129.636719 41.261719 L 130.765625 41.261719 L 130.765625 42.324219 C 131.035156 41.910156 131.351562 41.605469 131.714844 41.402344 C 132.082031 41.199219 132.5 41.097656 132.976562 41.097656 C 133.761719 41.097656 134.355469 41.339844 134.757812 41.824219 C 135.164062 42.308594 135.363281 43.023438 135.363281 43.96875 Z M 135.363281 43.96875 "/>
<path style=" stroke:none;fill-rule:nonzero;fill:rgb(0%,0%,0%);fill-opacity:1;" d="M 144.371094 39.796875 C 143.738281 39.796875 143.261719 40.109375 142.941406 40.734375 C 142.621094 41.355469 142.460938 42.296875 142.460938 43.550781 C 142.460938 44.796875 142.621094 45.734375 142.941406 46.359375 C 143.261719 46.984375 143.738281 47.296875 144.371094 47.296875 C 145.011719 47.296875 145.492188 46.984375 145.808594 46.359375 C 146.128906 45.734375 146.289062 44.796875 146.289062 43.550781 C 146.289062 42.296875 146.128906 41.355469 145.808594 40.734375 C 145.492188 40.109375 145.011719 39.796875 144.371094 39.796875 Z M 144.371094 38.820312 C 145.394531 38.820312 146.175781 39.222656 146.714844 40.03125 C 147.253906 40.839844 147.523438 42.011719 147.523438 43.550781 C 147.523438 45.082031 147.253906 46.253906 146.714844 47.0625 C 146.175781 47.871094 145.394531 48.273438 144.371094 48.273438 C 143.351562 48.273438 142.570312 47.871094 142.03125 47.0625 C 141.492188 46.253906 141.222656 45.082031 141.222656 43.550781 C 141.222656 42.011719 141.492188 40.839844 142.03125 40.03125 C 142.570312 39.222656 143.351562 38.820312 144.371094 38.820312 Z M 144.371094 38.820312 "/>
<path style=" stroke:none;fill-rule:nonzero;fill:rgb(0%,0%,0%);fill-opacity:1;" d="M 149.816406 46.546875 L 151.105469 46.546875 L 151.105469 47.597656 L 150.105469 49.550781 L 149.316406 49.550781 L 149.816406 47.597656 Z M 149.816406 46.546875 "/>
<path style=" stroke:none;fill-rule:nonzero;fill:rgb(0%,0%,0%);fill-opacity:1;" d="M 161.835938 41.460938 L 161.835938 42.523438 C 161.515625 42.359375 161.1875 42.238281 160.84375 42.160156 C 160.503906 42.078125 160.148438 42.035156 159.78125 42.035156 C 159.226562 42.035156 158.808594 42.121094 158.53125 42.292969 C 158.25 42.460938 158.109375 42.71875 158.109375 43.0625 C 158.109375 43.320312 158.210938 43.527344 158.410156 43.675781 C 158.609375 43.824219 159.011719 43.964844 159.613281 44.097656 L 160 44.183594 C 160.796875 44.355469 161.359375 44.59375 161.695312 44.90625 C 162.03125 45.21875 162.203125 45.652344 162.203125 46.210938 C 162.203125 46.84375 161.949219 47.347656 161.445312 47.71875 C 160.945312 48.089844 160.253906 48.273438 159.375 48.273438 C 159.007812 48.273438 158.628906 48.238281 158.230469 48.167969 C 157.832031 48.09375 157.414062 47.988281 156.976562 47.847656 L 156.976562 46.6875 C 157.390625 46.902344 157.800781 47.0625 158.203125 47.171875 C 158.605469 47.277344 159.003906 47.332031 159.398438 47.332031 C 159.929688 47.332031 160.335938 47.242188 160.617188 47.0625 C 160.90625 46.878906 161.046875 46.625 161.046875 46.296875 C 161.046875 45.992188 160.945312 45.757812 160.738281 45.59375 C 160.535156 45.429688 160.082031 45.273438 159.386719 45.125 L 158.996094 45.03125 C 158.300781 44.886719 157.796875 44.660156 157.488281 44.359375 C 157.179688 44.054688 157.023438 43.636719 157.023438 43.109375 C 157.023438 42.464844 157.253906 41.96875 157.710938 41.621094 C 158.164062 41.269531 158.8125 41.097656 159.648438 41.097656 C 160.0625 41.097656 160.453125 41.125 160.820312 41.1875 C 161.1875 41.246094 161.523438 41.339844 161.835938 41.460938 Z M 161.835938 41.460938 "/>
<path style=" stroke:none;fill-rule:nonzero;fill:rgb(0%,0%,0%);fill-opacity:1;" d="M 165.101562 39.320312 L 165.101562 41.261719 L 167.414062 41.261719 L 167.414062 42.132812 L 165.101562 42.132812 L 165.101562 45.84375 C 165.101562 46.402344 165.175781 46.757812 165.328125 46.917969 C 165.480469 47.078125 165.792969 47.15625 166.261719 47.15625 L 167.414062 47.15625 L 167.414062 48.097656 L 166.261719 48.097656 C 165.394531 48.097656 164.796875 47.933594 164.464844 47.613281 C 164.136719 47.289062 163.972656 46.699219 163.972656 45.84375 L 163.972656 42.132812 L 163.148438 42.132812 L 163.148438 41.261719 L 163.972656 41.261719 L 163.972656 39.320312 Z M 165.101562 39.320312 "/>
<path style=" stroke:none;fill-rule:nonzero;fill:rgb(0%,0%,0%);fill-opacity:1;" d="M 173.386719 42.296875 L 173.386719 38.597656 L 174.511719 38.597656 L 174.511719 48.097656 L 173.386719 48.097656 L 173.386719 47.070312 C 173.152344 47.476562 172.855469 47.777344 172.492188 47.976562 C 172.132812 48.175781 171.703125 48.273438 171.195312 48.273438 C 170.371094 48.273438 169.699219 47.945312 169.179688 47.285156 C 168.660156 46.625 168.402344 45.757812 168.402344 44.683594 C 168.402344 43.609375 168.660156 42.742188 169.179688 42.085938 C 169.699219 41.425781 170.371094 41.097656 171.195312 41.097656 C 171.703125 41.097656 172.132812 41.195312 172.492188 41.394531 C 172.855469 41.589844 173.152344 41.890625 173.386719 42.296875 Z M 169.5625 44.683594 C 169.5625 45.507812 169.730469 46.15625 170.070312 46.628906 C 170.410156 47.097656 170.878906 47.332031 171.472656 47.332031 C 172.066406 47.332031 172.535156 47.097656 172.875 46.628906 C 173.21875 46.15625 173.386719 45.507812 173.386719 44.683594 C 173.386719 43.859375 173.21875 43.210938 172.875 42.742188 C 172.535156 42.269531 172.066406 42.035156 171.472656 42.035156 C 170.878906 42.035156 170.410156 42.269531 170.070312 42.742188 C 169.730469 43.210938 169.5625 43.859375 169.5625 44.683594 Z M 169.5625 44.683594 "/>
<path style=" stroke:none;fill-rule:nonzero;fill:rgb(0%,0%,0%);fill-opacity:1;" d="M 182.019531 47.058594 L 186.320312 47.058594 L 186.320312 48.097656 L 180.535156 48.097656 L 180.535156 47.058594 C 181.003906 46.574219 181.640625 45.925781 182.449219 45.109375 C 183.257812 44.292969 183.765625 43.765625 183.972656 43.53125 C 184.367188 43.085938 184.640625 42.710938 184.796875 42.40625 C 184.957031 42.097656 185.035156 41.796875 185.035156 41.5 C 185.035156 41.015625 184.863281 40.621094 184.523438 40.316406 C 184.183594 40.007812 183.742188 39.855469 183.195312 39.855469 C 182.808594 39.855469 182.402344 39.921875 181.972656 40.058594 C 181.542969 40.191406 181.085938 40.394531 180.597656 40.667969 L 180.597656 39.421875 C 181.09375 39.222656 181.554688 39.074219 181.988281 38.972656 C 182.417969 38.871094 182.816406 38.820312 183.171875 38.820312 C 184.117188 38.820312 184.871094 39.054688 185.429688 39.527344 C 185.992188 40 186.273438 40.628906 186.273438 41.417969 C 186.273438 41.792969 186.203125 42.148438 186.0625 42.484375 C 185.921875 42.820312 185.667969 43.214844 185.296875 43.671875 C 185.195312 43.789062 184.871094 44.128906 184.324219 44.695312 C 183.78125 45.257812 183.011719 46.046875 182.019531 47.058594 Z M 182.019531 47.058594 "/>
<path style="fill:none;stroke-width:1.5;stroke-linecap:butt;stroke-linejoin:round;stroke:rgb(0%,50.196078%,0%);stroke-opacity:1;stroke-dasharray:9.6,2.4,1.5,2.4;stroke-miterlimit:4;" d="M 52.78125 49.65625 L 72.78125 49.65625 " transform="matrix(1.25,0,0,1.25,0,0)"/>
<path style=" stroke:none;fill-rule:nonzero;fill:rgb(0%,0%,0%);fill-opacity:1;" d="M 107.476562 60.921875 C 107.757812 60.414062 108.09375 60.042969 108.484375 59.804688 C 108.875 59.5625 109.335938 59.445312 109.863281 59.445312 C 110.574219 59.445312 111.125 59.691406 111.511719 60.191406 C 111.898438 60.6875 112.09375 61.398438 112.09375 62.316406 L 112.09375 66.445312 L 110.960938 66.445312 L 110.960938 62.355469 C 110.960938 61.699219 110.847656 61.214844 110.613281 60.898438 C 110.382812 60.578125 110.027344 60.421875 109.554688 60.421875 C 108.96875 60.421875 108.511719 60.613281 108.171875 61 C 107.835938 61.386719 107.664062 61.914062 107.664062 62.582031 L 107.664062 66.445312 L 106.539062 66.445312 L 106.539062 62.355469 C 106.539062 61.695312 106.421875 61.207031 106.1875 60.894531 C 105.957031 60.578125 105.601562 60.421875 105.117188 60.421875 C 104.539062 60.421875 104.085938 60.613281 103.746094 61.003906 C 103.410156 61.390625 103.242188 61.917969 103.242188 62.582031 L 103.242188 66.445312 L 102.109375 66.445312 L 102.109375 59.609375 L 103.242188 59.609375 L 103.242188 60.671875 C 103.496094 60.25 103.804688 59.941406 104.164062 59.742188 C 104.519531 59.542969 104.945312 59.445312 105.4375 59.445312 C 105.933594 59.445312 106.359375 59.570312 106.703125 59.824219 C 107.054688 60.074219 107.308594 60.441406 107.476562 60.921875 Z M 107.476562 60.921875 "/>
<path style=" stroke:none;fill-rule:nonzero;fill:rgb(0%,0%,0%);fill-opacity:1;" d="M 120.179688 62.746094 L 120.179688 63.292969 L 115.015625 63.292969 C 115.0625 64.066406 115.296875 64.65625 115.714844 65.0625 C 116.128906 65.464844 116.710938 65.667969 117.457031 65.667969 C 117.886719 65.667969 118.304688 65.617188 118.710938 65.511719 C 119.113281 65.40625 119.515625 65.246094 119.917969 65.035156 L 119.917969 66.097656 C 119.511719 66.265625 119.101562 66.398438 118.675781 66.488281 C 118.253906 66.578125 117.824219 66.621094 117.390625 66.621094 C 116.296875 66.621094 115.433594 66.304688 114.796875 65.671875 C 114.160156 65.035156 113.84375 64.175781 113.84375 63.09375 C 113.84375 61.972656 114.144531 61.085938 114.75 60.429688 C 115.351562 59.773438 116.167969 59.445312 117.195312 59.445312 C 118.113281 59.445312 118.839844 59.738281 119.375 60.332031 C 119.910156 60.921875 120.179688 61.726562 120.179688 62.746094 Z M 119.054688 62.414062 C 119.046875 61.800781 118.875 61.3125 118.539062 60.945312 C 118.203125 60.578125 117.757812 60.394531 117.207031 60.394531 C 116.578125 60.394531 116.078125 60.570312 115.703125 60.925781 C 115.324219 61.28125 115.109375 61.777344 115.050781 62.421875 Z M 119.054688 62.414062 "/>
<path style=" stroke:none;fill-rule:nonzero;fill:rgb(0%,0%,0%);fill-opacity:1;" d="M 125.128906 63.007812 C 124.222656 63.007812 123.59375 63.113281 123.242188 63.320312 C 122.890625 63.527344 122.714844 63.878906 122.714844 64.382812 C 122.714844 64.78125 122.847656 65.097656 123.109375 65.332031 C 123.375 65.5625 123.730469 65.679688 124.179688 65.679688 C 124.804688 65.679688 125.304688 65.460938 125.679688 65.019531 C 126.058594 64.578125 126.246094 63.988281 126.246094 63.257812 L 126.246094 63.007812 Z M 127.367188 62.542969 L 127.367188 66.445312 L 126.246094 66.445312 L 126.246094 65.40625 C 125.988281 65.820312 125.667969 66.125 125.285156 66.324219 C 124.902344 66.523438 124.4375 66.621094 123.882812 66.621094 C 123.183594 66.621094 122.625 66.425781 122.210938 66.03125 C 121.800781 65.636719 121.59375 65.113281 121.59375 64.453125 C 121.59375 63.683594 121.851562 63.105469 122.363281 62.714844 C 122.878906 62.324219 123.648438 62.128906 124.667969 62.128906 L 126.246094 62.128906 L 126.246094 62.019531 C 126.246094 61.5 126.074219 61.101562 125.734375 60.820312 C 125.394531 60.535156 124.917969 60.394531 124.304688 60.394531 C 123.914062 60.394531 123.53125 60.441406 123.160156 60.535156 C 122.792969 60.628906 122.4375 60.769531 122.09375 60.957031 L 122.09375 59.917969 C 122.503906 59.757812 122.902344 59.640625 123.289062 59.5625 C 123.675781 59.484375 124.054688 59.445312 124.417969 59.445312 C 125.410156 59.445312 126.148438 59.699219 126.636719 60.214844 C 127.125 60.726562 127.367188 61.5 127.367188 62.542969 Z M 127.367188 62.542969 "/>
<path style=" stroke:none;fill-rule:nonzero;fill:rgb(0%,0%,0%);fill-opacity:1;" d="M 135.363281 62.316406 L 135.363281 66.445312 L 134.242188 66.445312 L 134.242188 62.355469 C 134.242188 61.707031 134.117188 61.222656 133.863281 60.902344 C 133.609375 60.582031 133.230469 60.421875 132.726562 60.421875 C 132.121094 60.421875 131.644531 60.613281 131.292969 61 C 130.941406 61.386719 130.765625 61.914062 130.765625 62.582031 L 130.765625 66.445312 L 129.636719 66.445312 L 129.636719 59.609375 L 130.765625 59.609375 L 130.765625 60.671875 C 131.035156 60.257812 131.351562 59.953125 131.714844 59.75 C 132.082031 59.546875 132.5 59.445312 132.976562 59.445312 C 133.761719 59.445312 134.355469 59.6875 134.757812 60.171875 C 135.164062 60.65625 135.363281 61.371094 135.363281 62.316406 Z M 135.363281 62.316406 "/>
<path style=" stroke:none;fill-rule:nonzero;fill:rgb(0%,0%,0%);fill-opacity:1;" d="M 145.472656 61.53125 C 146.0625 61.65625 146.523438 61.917969 146.851562 62.320312 C 147.183594 62.71875 147.351562 63.210938 147.351562 63.796875 C 147.351562 64.695312 147.042969 65.390625 146.421875 65.882812 C 145.804688 66.375 144.925781 66.621094 143.785156 66.621094 C 143.40625 66.621094 143.011719 66.582031 142.605469 66.507812 C 142.203125 66.433594 141.785156 66.320312 141.351562 66.167969 L 141.351562 64.980469 C 141.695312 65.179688 142.066406 65.328125 142.472656 65.429688 C 142.882812 65.53125 143.308594 65.582031 143.75 65.582031 C 144.523438 65.582031 145.113281 65.429688 145.515625 65.125 C 145.921875 64.820312 146.125 64.378906 146.125 63.796875 C 146.125 63.257812 145.9375 62.835938 145.558594 62.535156 C 145.183594 62.230469 144.660156 62.082031 143.988281 62.082031 L 142.925781 62.082031 L 142.925781 61.066406 L 144.039062 61.066406 C 144.644531 61.066406 145.105469 60.945312 145.429688 60.703125 C 145.75 60.460938 145.910156 60.113281 145.910156 59.65625 C 145.910156 59.1875 145.746094 58.832031 145.414062 58.582031 C 145.082031 58.328125 144.609375 58.203125 143.988281 58.203125 C 143.652344 58.203125 143.289062 58.242188 142.902344 58.316406 C 142.515625 58.386719 142.089844 58.5 141.625 58.65625 L 141.625 57.558594 C 142.09375 57.425781 142.535156 57.328125 142.941406 57.265625 C 143.351562 57.199219 143.738281 57.167969 144.097656 57.167969 C 145.035156 57.167969 145.773438 57.378906 146.320312 57.804688 C 146.863281 58.230469 147.136719 58.804688 147.136719 59.527344 C 147.136719 60.03125 146.992188 60.460938 146.703125 60.808594 C 146.414062 61.15625 146.003906 61.394531 145.472656 61.53125 Z M 145.472656 61.53125 "/>
<path style=" stroke:none;fill-rule:nonzero;fill:rgb(0%,0%,0%);fill-opacity:1;" d="M 149.816406 64.894531 L 151.105469 64.894531 L 151.105469 65.945312 L 150.105469 67.898438 L 149.316406 67.898438 L 149.816406 65.945312 Z M 149.816406 64.894531 "/>
<path style=" stroke:none;fill-rule:nonzero;fill:rgb(0%,0%,0%);fill-opacity:1;" d="M 161.835938 59.808594 L 161.835938 60.871094 C 161.515625 60.707031 161.1875 60.585938 160.84375 60.507812 C 160.503906 60.425781 160.148438 60.382812 159.78125 60.382812 C 159.226562 60.382812 158.808594 60.46875 158.53125 60.640625 C 158.25 60.808594 158.109375 61.066406 158.109375 61.410156 C 158.109375 61.667969 158.210938 61.875 158.410156 62.023438 C 158.609375 62.171875 159.011719 62.3125 159.613281 62.445312 L 160 62.53125 C 160.796875 62.703125 161.359375 62.941406 161.695312 63.253906 C 162.03125 63.566406 162.203125 64 162.203125 64.558594 C 162.203125 65.191406 161.949219 65.695312 161.445312 66.066406 C 160.945312 66.4375 160.253906 66.621094 159.375 66.621094 C 159.007812 66.621094 158.628906 66.585938 158.230469 66.515625 C 157.832031 66.441406 157.414062 66.335938 156.976562 66.195312 L 156.976562 65.035156 C 157.390625 65.25 157.800781 65.410156 158.203125 65.519531 C 158.605469 65.625 159.003906 65.679688 159.398438 65.679688 C 159.929688 65.679688 160.335938 65.589844 160.617188 65.410156 C 160.90625 65.226562 161.046875 64.972656 161.046875 64.644531 C 161.046875 64.339844 160.945312 64.105469 160.738281 63.941406 C 160.535156 63.777344 160.082031 63.621094 159.386719 63.472656 L 158.996094 63.378906 C 158.300781 63.234375 157.796875 63.007812 157.488281 62.707031 C 157.179688 62.402344 157.023438 61.984375 157.023438 61.457031 C 157.023438 60.8125 157.253906 60.316406 157.710938 59.96875 C 158.164062 59.617188 158.8125 59.445312 159.648438 59.445312 C 160.0625 59.445312 160.453125 59.472656 160.820312 59.535156 C 161.1875 59.59375 161.523438 59.6875 161.835938 59.808594 Z M 161.835938 59.808594 "/>
<path style=" stroke:none;fill-rule:nonzero;fill:rgb(0%,0%,0%);fill-opacity:1;" d="M 165.101562 57.667969 L 165.101562 59.609375 L 167.414062 59.609375 L 167.414062 60.480469 L 165.101562 60.480469 L 165.101562 64.191406 C 165.101562 64.75 165.175781 65.105469 165.328125 65.265625 C 165.480469 65.425781 165.792969 65.503906 166.261719 65.503906 L 167.414062 65.503906 L 167.414062 66.445312 L 166.261719 66.445312 C 165.394531 66.445312 164.796875 66.28125 164.464844 65.960938 C 164.136719 65.636719 163.972656 65.046875 163.972656 64.191406 L 163.972656 60.480469 L 163.148438 60.480469 L 163.148438 59.609375 L 163.972656 59.609375 L 163.972656 57.667969 Z M 165.101562 57.667969 "/>
<path style=" stroke:none;fill-rule:nonzero;fill:rgb(0%,0%,0%);fill-opacity:1;" d="M 173.386719 60.644531 L 173.386719 56.945312 L 174.511719 56.945312 L 174.511719 66.445312 L 173.386719 66.445312 L 173.386719 65.417969 C 173.152344 65.824219 172.855469 66.125 172.492188 66.324219 C 172.132812 66.523438 171.703125 66.621094 171.195312 66.621094 C 170.371094 66.621094 169.699219 66.292969 169.179688 65.632812 C 168.660156 64.972656 168.402344 64.105469 168.402344 63.03125 C 168.402344 61.957031 168.660156 61.089844 169.179688 60.433594 C 169.699219 59.773438 170.371094 59.445312 171.195312 59.445312 C 171.703125 59.445312 172.132812 59.542969 172.492188 59.742188 C 172.855469 59.9375 173.152344 60.238281 173.386719 60.644531 Z M 169.5625 63.03125 C 169.5625 63.855469 169.730469 64.503906 170.070312 64.976562 C 170.410156 65.445312 170.878906 65.679688 171.472656 65.679688 C 172.066406 65.679688 172.535156 65.445312 172.875 64.976562 C 173.21875 64.503906 173.386719 63.855469 173.386719 63.03125 C 173.386719 62.207031 173.21875 61.558594 172.875 61.089844 C 172.535156 60.617188 172.066406 60.382812 171.472656 60.382812 C 170.878906 60.382812 170.410156 60.617188 170.070312 61.089844 C 169.730469 61.558594 169.5625 62.207031 169.5625 63.03125 Z M 169.5625 63.03125 "/>
<path style=" stroke:none;fill-rule:nonzero;fill:rgb(0%,0%,0%);fill-opacity:1;" d="M 181.171875 65.40625 L 183.183594 65.40625 L 183.183594 58.453125 L 180.992188 58.894531 L 180.992188 57.769531 L 183.171875 57.332031 L 184.40625 57.332031 L 184.40625 65.40625 L 186.417969 65.40625 L 186.417969 66.445312 L 181.171875 66.445312 Z M 181.171875 65.40625 "/>
</g>
</svg>
