<?xml version="1.0" encoding="UTF-8"?>
<svg xmlns="http://www.w3.org/2000/svg" xmlns:xlink="http://www.w3.org/1999/xlink" width="329pt" height="234pt" viewBox="0 0 329 234" version="1.1">
<defs>
<clipPath id="clip1">
  <path d="M 124 13.75 L 126 13.75 L 126 187 L 124 187 Z M 124 13.75 "/>
</clipPath>
<clipPath id="clip2">
  <path d="M 185 13.75 L 187 13.75 L 187 187 L 185 187 Z M 185 13.75 "/>
</clipPath>
<clipPath id="clip3">
  <path d="M 246 13.75 L 248 13.75 L 248 187 L 246 187 Z M 246 13.75 "/>
</clipPath>
<clipPath id="clip4">
  <path d="M 307 13.75 L 308.347656 13.75 L 308.347656 187 L 307 187 Z M 307 13.75 "/>
</clipPath>
<clipPath id="clip5">
  <path d="M 64.222656 186 L 308.347656 186 L 308.347656 187 L 64.222656 187 Z M 64.222656 186 "/>
</clipPath>
<clipPath id="clip6">
  <path d="M 64.222656 151 L 308.347656 151 L 308.347656 154 L 64.222656 154 Z M 64.222656 151 "/>
</clipPath>
<clipPath id="clip7">
  <path d="M 64.222656 116 L 308.347656 116 L 308.347656 119 L 64.222656 119 Z M 64.222656 116 "/>
</clipPath>
<clipPath id="clip8">
  <path d="M 64.222656 82 L 308.347656 82 L 308.347656 84 L 64.222656 84 Z M 64.222656 82 "/>
</clipPath>
<clipPath id="clip9">
  <path d="M 64.222656 47 L 308.347656 47 L 308.347656 50 L 64.222656 50 Z M 64.222656 47 "/>
</clipPath>
<clipPath id="clip10">
  <path d="M 64.222656 13.75 L 308.347656 13.75 L 308.347656 15 L 64.222656 15 Z M 64.222656 13.75 "/>
</clipPath>
<clipPath id="clip11">
  <path d="M 64.222656 37 L 308.347656 37 L 308.347656 56 L 64.222656 56 Z M 64.222656 37 "/>
</clipPath>
<clipPath id="clip12">
  <path d="M 64.222656 32 L 308.347656 32 L 308.347656 49 L 64.222656 49 Z M 64.222656 32 "/>
</clipPath>
<filter id="alpha" filterUnits="objectBoundingBox" x="0%" y="0%" width="100%" height="100%">
  <feColorMatrix type="matrix" in="SourceGraphic" values="0 0 0 0 1 0 0 0 0 1 0 0 0 0 1 0 0 0 1 0"/>
</filter>
<mask id="mask0">
  <g filter="url(#alpha)">
<rect x="0" y="0" width="329" height="234" style="fill:rgb(0%,0%,0%);fill-opacity:0.8;stroke:none;"/>
  </g>
</mask>
<clipPath id="clip13">
  <rect x="0" y="0" width="329" height="234"/>
</clipPath>
<g id="surface5" clip-path="url(#clip13)">
<path style="fill-rule:nonzero;fill:rgb(100%,100%,100%);fill-opacity:1;stroke-width:1;stroke-linecap:butt;stroke-linejoin:miter;stroke:rgb(80%,80%,80%);stroke-opacity:1;stroke-miterlimit:4;" d="M 58.378125 144.6 L 113.653125 144.6 C 114.9875 144.6 115.653125 143.93125 115.653125 142.6 L 115.653125 114.24375 C 115.653125 112.909375 114.9875 112.24375 113.653125 112.24375 L 58.378125 112.24375 C 57.04375 112.24375 56.378125 112.909375 56.378125 114.24375 L 56.378125 142.6 C 56.378125 143.93125 57.04375 144.6 58.378125 144.6 Z M 58.378125 144.6 " transform="matrix(1.25,0,0,1.25,0.000000000000028422,0)"/>
</g>
</defs>
<g id="surface1">
<path style=" stroke:none;fill-rule:nonzero;fill:rgb(100%,100%,100%);fill-opacity:1;" d="M 0 233.945312 L 329.277344 233.945312 L 329.277344 0 L 0 0 Z M 0 233.945312 "/>
<path style=" stroke:none;fill-rule:nonzero;fill:rgb(100%,100%,100%);fill-opacity:1;" d="M 64.222656 187 L 308.347656 187 L 308.347656 13.75 L 64.222656 13.75 Z M 64.222656 187 "/>
<g clip-path="url(#clip1)" clip-rule="nonzero">
<path style="fill:none;stroke-width:0.8;stroke-linecap:square;stroke-linejoin:round;stroke:rgb(69.019608%,69.019608%,69.019608%);stroke-opacity:1;stroke-miterlimit:4;" d="M 99.8375 149.6 L 99.8375 11 " transform="matrix(1.25,0,0,1.25,0.000000000000028422,0)"/>
</g>
<path style="fill:none;stroke-width:0.8;stroke-linecap:butt;stroke-linejoin:round;stroke:rgb(0%,0%,0%);stroke-opacity:1;stroke-miterlimit:4;" d="M 0.00148 0.000781 L 0.00148 3.500781 " transform="matrix(1.25,0,0,1.25,124.795025,186.999024)"/>
<path style=" stroke:none;fill-rule:nonzero;fill:rgb(0%,0%,0%);fill-opacity:1;" d="M 114.417969 204.210938 L 116.429688 204.210938 L 116.429688 197.257812 L 114.238281 197.695312 L 114.238281 196.574219 L 116.417969 196.132812 L 117.652344 196.132812 L 117.652344 204.210938 L 119.664062 204.210938 L 119.664062 205.246094 L 114.417969 205.246094 Z M 114.417969 204.210938 "/>
<path style=" stroke:none;fill-rule:nonzero;fill:rgb(0%,0%,0%);fill-opacity:1;" d="M 124.789062 196.945312 C 124.15625 196.945312 123.679688 197.257812 123.359375 197.882812 C 123.039062 198.507812 122.878906 199.445312 122.878906 200.699219 C 122.878906 201.949219 123.039062 202.886719 123.359375 203.511719 C 123.679688 204.136719 124.15625 204.449219 124.789062 204.449219 C 125.429688 204.449219 125.910156 204.136719 126.226562 203.511719 C 126.546875 202.886719 126.707031 201.949219 126.707031 200.699219 C 126.707031 199.445312 126.546875 198.507812 126.226562 197.882812 C 125.910156 197.257812 125.429688 196.945312 124.789062 196.945312 Z M 124.789062 195.96875 C 125.8125 195.96875 126.59375 196.375 127.132812 197.183594 C 127.671875 197.988281 127.941406 199.164062 127.941406 200.699219 C 127.941406 202.234375 127.671875 203.40625 127.132812 204.214844 C 126.59375 205.019531 125.8125 205.425781 124.789062 205.425781 C 123.769531 205.425781 122.988281 205.019531 122.449219 204.214844 C 121.910156 203.40625 121.640625 202.234375 121.640625 200.699219 C 121.640625 199.164062 121.910156 197.988281 122.449219 197.183594 C 122.988281 196.375 123.769531 195.96875 124.789062 195.96875 Z M 124.789062 195.96875 "/>
<path style=" stroke:none;fill-rule:nonzero;fill:rgb(0%,0%,0%);fill-opacity:1;" d="M 132.742188 196.945312 C 132.109375 196.945312 131.632812 197.257812 131.3125 197.882812 C 130.992188 198.507812 130.832031 199.445312 130.832031 200.699219 C 130.832031 201.949219 130.992188 202.886719 131.3125 203.511719 C 131.632812 204.136719 132.109375 204.449219 132.742188 204.449219 C 133.382812 204.449219 133.863281 204.136719 134.179688 203.511719 C 134.5 202.886719 134.660156 201.949219 134.660156 200.699219 C 134.660156 199.445312 134.5 198.507812 134.179688 197.882812 C 133.863281 197.257812 133.382812 196.945312 132.742188 196.945312 Z M 132.742188 195.96875 C 133.765625 195.96875 134.546875 196.375 135.085938 197.183594 C 135.625 197.988281 135.894531 199.164062 135.894531 200.699219 C 135.894531 202.234375 135.625 203.40625 135.085938 204.214844 C 134.546875 205.019531 133.765625 205.425781 132.742188 205.425781 C 131.722656 205.425781 130.941406 205.019531 130.402344 204.214844 C 129.863281 203.40625 129.59375 202.234375 129.59375 200.699219 C 129.59375 199.164062 129.863281 197.988281 130.402344 197.183594 C 130.941406 196.375 131.722656 195.96875 132.742188 195.96875 Z M 132.742188 195.96875 "/>
<g clip-path="url(#clip2)" clip-rule="nonzero">
<path style="fill:none;stroke-width:0.8;stroke-linecap:square;stroke-linejoin:round;stroke:rgb(69.019608%,69.019608%,69.019608%);stroke-opacity:1;stroke-miterlimit:4;" d="M 148.784375 149.6 L 148.784375 11 " transform="matrix(1.25,0,0,1.25,0.000000000000028422,0)"/>
</g>
<path style="fill:none;stroke-width:0.8;stroke-linecap:butt;stroke-linejoin:round;stroke:rgb(0%,0%,0%);stroke-opacity:1;stroke-miterlimit:4;" d="M 0.000987 0.000781 L 0.000987 3.500781 " transform="matrix(1.25,0,0,1.25,185.979235,186.999024)"/>
<path style=" stroke:none;fill-rule:nonzero;fill:rgb(0%,0%,0%);fill-opacity:1;" d="M 176.449219 204.210938 L 180.75 204.210938 L 180.75 205.246094 L 174.964844 205.246094 L 174.964844 204.210938 C 175.433594 203.726562 176.070312 203.074219 176.878906 202.261719 C 177.6875 201.445312 178.195312 200.917969 178.402344 200.679688 C 178.796875 200.238281 179.070312 199.863281 179.226562 199.554688 C 179.386719 199.25 179.464844 198.945312 179.464844 198.648438 C 179.464844 198.164062 179.292969 197.769531 178.953125 197.464844 C 178.613281 197.160156 178.171875 197.007812 177.625 197.007812 C 177.238281 197.007812 176.832031 197.074219 176.402344 197.207031 C 175.972656 197.34375 175.515625 197.546875 175.027344 197.820312 L 175.027344 196.574219 C 175.523438 196.375 175.984375 196.222656 176.417969 196.121094 C 176.847656 196.019531 177.246094 195.96875 177.601562 195.96875 C 178.546875 195.96875 179.300781 196.207031 179.859375 196.679688 C 180.421875 197.148438 180.703125 197.78125 180.703125 198.570312 C 180.703125 198.945312 180.632812 199.300781 180.492188 199.636719 C 180.351562 199.96875 180.097656 200.367188 179.726562 200.820312 C 179.625 200.941406 179.300781 201.28125 178.753906 201.84375 C 178.210938 202.410156 177.441406 203.195312 176.449219 204.210938 Z M 176.449219 204.210938 "/>
<path style=" stroke:none;fill-rule:nonzero;fill:rgb(0%,0%,0%);fill-opacity:1;" d="M 185.976562 196.945312 C 185.339844 196.945312 184.863281 197.257812 184.542969 197.882812 C 184.222656 198.507812 184.066406 199.445312 184.066406 200.699219 C 184.066406 201.949219 184.222656 202.886719 184.542969 203.511719 C 184.863281 204.136719 185.339844 204.449219 185.976562 204.449219 C 186.613281 204.449219 187.09375 204.136719 187.414062 203.511719 C 187.734375 202.886719 187.894531 201.949219 187.894531 200.699219 C 187.894531 199.445312 187.734375 198.507812 187.414062 197.882812 C 187.09375 197.257812 186.613281 196.945312 185.976562 196.945312 Z M 185.976562 195.96875 C 186.996094 195.96875 187.777344 196.375 188.316406 197.183594 C 188.855469 197.988281 189.125 199.164062 189.125 200.699219 C 189.125 202.234375 188.855469 203.40625 188.316406 204.214844 C 187.777344 205.019531 186.996094 205.425781 185.976562 205.425781 C 184.953125 205.425781 184.175781 205.019531 183.636719 204.214844 C 183.097656 203.40625 182.828125 202.234375 182.828125 200.699219 C 182.828125 199.164062 183.097656 197.988281 183.636719 197.183594 C 184.175781 196.375 184.953125 195.96875 185.976562 195.96875 Z M 185.976562 195.96875 "/>
<path style=" stroke:none;fill-rule:nonzero;fill:rgb(0%,0%,0%);fill-opacity:1;" d="M 193.929688 196.945312 C 193.292969 196.945312 192.816406 197.257812 192.496094 197.882812 C 192.175781 198.507812 192.019531 199.445312 192.019531 200.699219 C 192.019531 201.949219 192.175781 202.886719 192.496094 203.511719 C 192.816406 204.136719 193.292969 204.449219 193.929688 204.449219 C 194.566406 204.449219 195.046875 204.136719 195.367188 203.511719 C 195.6875 202.886719 195.847656 201.949219 195.847656 200.699219 C 195.847656 199.445312 195.6875 198.507812 195.367188 197.882812 C 195.046875 197.257812 194.566406 196.945312 193.929688 196.945312 Z M 193.929688 195.96875 C 194.949219 195.96875 195.730469 196.375 196.269531 197.183594 C 196.808594 197.988281 197.078125 199.164062 197.078125 200.699219 C 197.078125 202.234375 196.808594 203.40625 196.269531 204.214844 C 195.730469 205.019531 194.949219 205.425781 193.929688 205.425781 C 192.90625 205.425781 192.128906 205.019531 191.589844 204.214844 C 191.050781 203.40625 190.78125 202.234375 190.78125 200.699219 C 190.78125 199.164062 191.050781 197.988281 191.589844 197.183594 C 192.128906 196.375 192.90625 195.96875 193.929688 195.96875 Z M 193.929688 195.96875 "/>
<g clip-path="url(#clip3)" clip-rule="nonzero">
<path style="fill:none;stroke-width:0.8;stroke-linecap:square;stroke-linejoin:round;stroke:rgb(69.019608%,69.019608%,69.019608%);stroke-opacity:1;stroke-miterlimit:4;" d="M 197.73125 149.6 L 197.73125 11 " transform="matrix(1.25,0,0,1.25,0.000000000000028422,0)"/>
</g>
<path style="fill:none;stroke-width:0.8;stroke-linecap:butt;stroke-linejoin:round;stroke:rgb(0%,0%,0%);stroke-opacity:1;stroke-miterlimit:4;" d="M 0.000493 0.000781 L 0.000493 3.500781 " transform="matrix(1.25,0,0,1.25,247.163446,186.999024)"/>
<path style=" stroke:none;fill-rule:nonzero;fill:rgb(0%,0%,0%);fill-opacity:1;" d="M 240.304688 200.332031 C 240.894531 200.460938 241.355469 200.722656 241.6875 201.121094 C 242.019531 201.519531 242.183594 202.011719 242.183594 202.597656 C 242.183594 203.496094 241.875 204.191406 241.257812 204.6875 C 240.640625 205.179688 239.761719 205.425781 238.621094 205.425781 C 238.238281 205.425781 237.847656 205.386719 237.441406 205.3125 C 237.035156 205.234375 236.617188 205.121094 236.1875 204.972656 L 236.1875 203.78125 C 236.527344 203.980469 236.902344 204.132812 237.308594 204.234375 C 237.714844 204.335938 238.140625 204.386719 238.585938 204.386719 C 239.359375 204.386719 239.945312 204.234375 240.351562 203.929688 C 240.757812 203.625 240.957031 203.179688 240.957031 202.597656 C 240.957031 202.0625 240.769531 201.640625 240.394531 201.339844 C 240.019531 201.035156 239.496094 200.882812 238.824219 200.882812 L 237.761719 200.882812 L 237.761719 199.871094 L 238.871094 199.871094 C 239.476562 199.871094 239.941406 199.75 240.261719 199.507812 C 240.585938 199.265625 240.746094 198.914062 240.746094 198.460938 C 240.746094 197.992188 240.578125 197.632812 240.246094 197.382812 C 239.917969 197.132812 239.441406 197.007812 238.824219 197.007812 C 238.484375 197.007812 238.121094 197.042969 237.734375 197.117188 C 237.347656 197.191406 236.925781 197.304688 236.460938 197.457031 L 236.460938 196.359375 C 236.929688 196.230469 237.367188 196.132812 237.777344 196.066406 C 238.1875 196.003906 238.570312 195.96875 238.933594 195.96875 C 239.871094 195.96875 240.609375 196.183594 241.152344 196.609375 C 241.699219 197.03125 241.972656 197.605469 241.972656 198.332031 C 241.972656 198.835938 241.828125 199.261719 241.539062 199.609375 C 241.25 199.957031 240.839844 200.199219 240.304688 200.332031 Z M 240.304688 200.332031 "/>
<path style=" stroke:none;fill-rule:nonzero;fill:rgb(0%,0%,0%);fill-opacity:1;" d="M 247.160156 196.945312 C 246.523438 196.945312 246.046875 197.257812 245.726562 197.882812 C 245.410156 198.507812 245.25 199.445312 245.25 200.699219 C 245.25 201.949219 245.410156 202.886719 245.726562 203.511719 C 246.046875 204.136719 246.523438 204.449219 247.160156 204.449219 C 247.796875 204.449219 248.277344 204.136719 248.597656 203.511719 C 248.917969 202.886719 249.078125 201.949219 249.078125 200.699219 C 249.078125 199.445312 248.917969 198.507812 248.597656 197.882812 C 248.277344 197.257812 247.796875 196.945312 247.160156 196.945312 Z M 247.160156 195.96875 C 248.179688 195.96875 248.960938 196.375 249.5 197.183594 C 250.039062 197.988281 250.308594 199.164062 250.308594 200.699219 C 250.308594 202.234375 250.039062 203.40625 249.5 204.214844 C 248.960938 205.019531 248.179688 205.425781 247.160156 205.425781 C 246.136719 205.425781 245.359375 205.019531 244.820312 204.214844 C 244.28125 203.40625 244.011719 202.234375 244.011719 200.699219 C 244.011719 199.164062 244.28125 197.988281 244.820312 197.183594 C 245.359375 196.375 246.136719 195.96875 247.160156 195.96875 Z M 247.160156 195.96875 "/>
<path style=" stroke:none;fill-rule:nonzero;fill:rgb(0%,0%,0%);fill-opacity:1;" d="M 255.113281 196.945312 C 254.476562 196.945312 254 197.257812 253.679688 197.882812 C 253.363281 198.507812 253.203125 199.445312 253.203125 200.699219 C 253.203125 201.949219 253.363281 202.886719 253.679688 203.511719 C 254 204.136719 254.476562 204.449219 255.113281 204.449219 C 255.75 204.449219 256.230469 204.136719 256.550781 203.511719 C 256.871094 202.886719 257.03125 201.949219 257.03125 200.699219 C 257.03125 199.445312 256.871094 198.507812 256.550781 197.882812 C 256.230469 197.257812 255.75 196.945312 255.113281 196.945312 Z M 255.113281 195.96875 C 256.132812 195.96875 256.914062 196.375 257.453125 197.183594 C 257.992188 197.988281 258.261719 199.164062 258.261719 200.699219 C 258.261719 202.234375 257.992188 203.40625 257.453125 204.214844 C 256.914062 205.019531 256.132812 205.425781 255.113281 205.425781 C 254.089844 205.425781 253.3125 205.019531 252.773438 204.214844 C 252.234375 203.40625 251.964844 202.234375 251.964844 200.699219 C 251.964844 199.164062 252.234375 197.988281 252.773438 197.183594 C 253.3125 196.375 254.089844 195.96875 255.113281 195.96875 Z M 255.113281 195.96875 "/>
<g clip-path="url(#clip4)" clip-rule="nonzero">
<path style="fill:none;stroke-width:0.8;stroke-linecap:square;stroke-linejoin:round;stroke:rgb(69.019608%,69.019608%,69.019608%);stroke-opacity:1;stroke-miterlimit:4;" d="M 246.678125 149.6 L 246.678125 11 " transform="matrix(1.25,0,0,1.25,0.000000000000028422,0)"/>
</g>
<path style="fill:none;stroke-width:0.8;stroke-linecap:butt;stroke-linejoin:round;stroke:rgb(0%,0%,0%);stroke-opacity:1;stroke-miterlimit:4;" d="M 0 0.000781 L 0 3.500781 " transform="matrix(1.25,0,0,1.25,308.347656,186.999024)"/>
<path style=" stroke:none;fill-rule:nonzero;fill:rgb(0%,0%,0%);fill-opacity:1;" d="M 301.140625 197.207031 L 298.03125 202.074219 L 301.140625 202.074219 Z M 300.820312 196.132812 L 302.367188 196.132812 L 302.367188 202.074219 L 303.671875 202.074219 L 303.671875 203.097656 L 302.367188 203.097656 L 302.367188 205.246094 L 301.140625 205.246094 L 301.140625 203.097656 L 297.03125 203.097656 L 297.03125 201.910156 Z M 300.820312 196.132812 "/>
<path style=" stroke:none;fill-rule:nonzero;fill:rgb(0%,0%,0%);fill-opacity:1;" d="M 308.34375 196.945312 C 307.710938 196.945312 307.230469 197.257812 306.910156 197.882812 C 306.59375 198.507812 306.433594 199.445312 306.433594 200.699219 C 306.433594 201.949219 306.59375 202.886719 306.910156 203.511719 C 307.230469 204.136719 307.710938 204.449219 308.34375 204.449219 C 308.984375 204.449219 309.460938 204.136719 309.78125 203.511719 C 310.101562 202.886719 310.261719 201.949219 310.261719 200.699219 C 310.261719 199.445312 310.101562 198.507812 309.78125 197.882812 C 309.460938 197.257812 308.984375 196.945312 308.34375 196.945312 Z M 308.34375 195.96875 C 309.367188 195.96875 310.144531 196.375 310.683594 197.183594 C 311.222656 197.988281 311.492188 199.164062 311.492188 200.699219 C 311.492188 202.234375 311.222656 203.40625 310.683594 204.214844 C 310.144531 205.019531 309.367188 205.425781 308.34375 205.425781 C 307.324219 205.425781 306.542969 205.019531 306.003906 204.214844 C 305.464844 203.40625 305.195312 202.234375 305.195312 200.699219 C 305.195312 199.164062 305.464844 197.988281 306.003906 197.183594 C 306.542969 196.375 307.324219 195.96875 308.34375 195.96875 Z M 308.34375 195.96875 "/>
<path style=" stroke:none;fill-rule:nonzero;fill:rgb(0%,0%,0%);fill-opacity:1;" d="M 316.296875 196.945312 C 315.664062 196.945312 315.183594 197.257812 314.863281 197.882812 C 314.546875 198.507812 314.386719 199.445312 314.386719 200.699219 C 314.386719 201.949219 314.546875 202.886719 314.863281 203.511719 C 315.183594 204.136719 315.664062 204.449219 316.296875 204.449219 C 316.9375 204.449219 317.414062 204.136719 317.734375 203.511719 C 318.054688 202.886719 318.214844 201.949219 318.214844 200.699219 C 318.214844 199.445312 318.054688 198.507812 317.734375 197.882812 C 317.414062 197.257812 316.9375 196.945312 316.296875 196.945312 Z M 316.296875 195.96875 C 317.320312 195.96875 318.097656 196.375 318.636719 197.183594 C 319.175781 197.988281 319.445312 199.164062 319.445312 200.699219 C 319.445312 202.234375 319.175781 203.40625 318.636719 204.214844 C 318.097656 205.019531 317.320312 205.425781 316.296875 205.425781 C 315.277344 205.425781 314.496094 205.019531 313.957031 204.214844 C 313.417969 203.40625 313.148438 202.234375 313.148438 200.699219 C 313.148438 199.164062 313.417969 197.988281 313.957031 197.183594 C 314.496094 196.375 315.277344 195.96875 316.296875 195.96875 Z M 316.296875 195.96875 "/>
<path style=" stroke:none;fill-rule:nonzero;fill:rgb(0%,0%,0%);fill-opacity:1;" d="M 174.273438 218.644531 L 174.273438 219.195312 L 169.109375 219.195312 C 169.160156 219.96875 169.394531 220.558594 169.8125 220.960938 C 170.226562 221.367188 170.808594 221.570312 171.554688 221.570312 C 171.984375 221.570312 172.402344 221.515625 172.804688 221.410156 C 173.210938 221.304688 173.613281 221.148438 174.015625 220.933594 L 174.015625 221.996094 C 173.609375 222.167969 173.195312 222.296875 172.773438 222.386719 C 172.351562 222.476562 171.921875 222.523438 171.484375 222.523438 C 170.394531 222.523438 169.53125 222.207031 168.894531 221.570312 C 168.257812 220.9375 167.9375 220.078125 167.9375 218.992188 C 167.9375 217.875 168.242188 216.988281 168.84375 216.332031 C 169.449219 215.671875 170.265625 215.34375 171.289062 215.34375 C 172.210938 215.34375 172.9375 215.640625 173.472656 216.234375 C 174.007812 216.824219 174.273438 217.628906 174.273438 218.644531 Z M 173.152344 218.316406 C 173.144531 217.703125 172.972656 217.210938 172.636719 216.847656 C 172.300781 216.480469 171.855469 216.296875 171.304688 216.296875 C 170.675781 216.296875 170.175781 216.472656 169.796875 216.828125 C 169.421875 217.179688 169.207031 217.679688 169.148438 218.324219 Z M 173.152344 218.316406 "/>
<path style=" stroke:none;fill-rule:nonzero;fill:rgb(0%,0%,0%);fill-opacity:1;" d="M 177.203125 221.320312 L 177.203125 224.945312 L 176.074219 224.945312 L 176.074219 215.507812 L 177.203125 215.507812 L 177.203125 216.546875 C 177.441406 216.140625 177.738281 215.839844 178.097656 215.640625 C 178.460938 215.445312 178.890625 215.34375 179.390625 215.34375 C 180.21875 215.34375 180.894531 215.675781 181.414062 216.332031 C 181.933594 216.992188 182.191406 217.859375 182.191406 218.933594 C 182.191406 220.007812 181.933594 220.875 181.414062 221.535156 C 180.894531 222.191406 180.21875 222.523438 179.390625 222.523438 C 178.890625 222.523438 178.460938 222.421875 178.097656 222.226562 C 177.738281 222.027344 177.441406 221.726562 177.203125 221.320312 Z M 181.027344 218.933594 C 181.027344 218.105469 180.855469 217.460938 180.515625 216.988281 C 180.175781 216.519531 179.710938 216.285156 179.117188 216.285156 C 178.519531 216.285156 178.054688 216.519531 177.714844 216.988281 C 177.375 217.460938 177.203125 218.105469 177.203125 218.933594 C 177.203125 219.757812 177.375 220.40625 177.714844 220.875 C 178.054688 221.347656 178.519531 221.582031 179.117188 221.582031 C 179.710938 221.582031 180.175781 221.347656 180.515625 220.875 C 180.855469 220.40625 181.027344 219.757812 181.027344 218.933594 Z M 181.027344 218.933594 "/>
<path style=" stroke:none;fill-rule:nonzero;fill:rgb(0%,0%,0%);fill-opacity:1;" d="M 186.703125 216.296875 C 186.101562 216.296875 185.625 216.53125 185.273438 217 C 184.921875 217.472656 184.75 218.113281 184.75 218.933594 C 184.75 219.75 184.921875 220.394531 185.269531 220.863281 C 185.617188 221.335938 186.09375 221.570312 186.703125 221.570312 C 187.300781 221.570312 187.773438 221.332031 188.125 220.863281 C 188.472656 220.390625 188.648438 219.746094 188.648438 218.933594 C 188.648438 218.121094 188.472656 217.480469 188.125 217.007812 C 187.773438 216.53125 187.300781 216.296875 186.703125 216.296875 Z M 186.703125 215.34375 C 187.679688 215.34375 188.445312 215.664062 189 216.296875 C 189.5625 216.933594 189.839844 217.808594 189.839844 218.933594 C 189.839844 220.050781 189.5625 220.929688 189 221.566406 C 188.445312 222.203125 187.679688 222.523438 186.703125 222.523438 C 185.71875 222.523438 184.953125 222.203125 184.398438 221.566406 C 183.84375 220.929688 183.5625 220.050781 183.5625 218.933594 C 183.5625 217.808594 183.84375 216.933594 184.398438 216.296875 C 184.953125 215.664062 185.71875 215.34375 186.703125 215.34375 Z M 186.703125 215.34375 "/>
<path style=" stroke:none;fill-rule:nonzero;fill:rgb(0%,0%,0%);fill-opacity:1;" d="M 196.621094 215.769531 L 196.621094 216.820312 C 196.300781 216.644531 195.984375 216.515625 195.664062 216.425781 C 195.347656 216.339844 195.023438 216.296875 194.699219 216.296875 C 193.96875 216.296875 193.402344 216.527344 193 216.988281 C 192.597656 217.449219 192.394531 218.097656 192.394531 218.933594 C 192.394531 219.765625 192.597656 220.414062 193 220.878906 C 193.402344 221.339844 193.96875 221.570312 194.699219 221.570312 C 195.023438 221.570312 195.347656 221.527344 195.664062 221.4375 C 195.984375 221.351562 196.300781 221.21875 196.621094 221.042969 L 196.621094 222.082031 C 196.304688 222.230469 195.980469 222.339844 195.644531 222.410156 C 195.3125 222.484375 194.953125 222.523438 194.574219 222.523438 C 193.546875 222.523438 192.726562 222.199219 192.121094 221.550781 C 191.515625 220.90625 191.210938 220.03125 191.210938 218.933594 C 191.210938 217.816406 191.519531 216.941406 192.128906 216.304688 C 192.742188 215.664062 193.582031 215.34375 194.648438 215.34375 C 194.996094 215.34375 195.332031 215.378906 195.660156 215.453125 C 195.992188 215.523438 196.308594 215.628906 196.621094 215.769531 Z M 196.621094 215.769531 "/>
<path style=" stroke:none;fill-rule:nonzero;fill:rgb(0%,0%,0%);fill-opacity:1;" d="M 204.257812 218.21875 L 204.257812 222.34375 L 203.132812 222.34375 L 203.132812 218.253906 C 203.132812 217.609375 203.007812 217.125 202.753906 216.804688 C 202.503906 216.480469 202.125 216.320312 201.621094 216.320312 C 201.011719 216.320312 200.535156 216.515625 200.183594 216.902344 C 199.835938 217.285156 199.660156 217.8125 199.660156 218.480469 L 199.660156 222.34375 L 198.53125 222.34375 L 198.53125 212.847656 L 199.660156 212.847656 L 199.660156 216.570312 C 199.929688 216.160156 200.246094 215.851562 200.609375 215.648438 C 200.972656 215.445312 201.394531 215.34375 201.871094 215.34375 C 202.65625 215.34375 203.25 215.585938 203.652344 216.074219 C 204.054688 216.558594 204.257812 217.273438 204.257812 218.21875 Z M 204.257812 218.21875 "/>
<g clip-path="url(#clip5)" clip-rule="nonzero">
<path style="fill:none;stroke-width:0.8;stroke-linecap:square;stroke-linejoin:round;stroke:rgb(69.019608%,69.019608%,69.019608%);stroke-opacity:1;stroke-miterlimit:4;" d="M 51.378125 149.6 L 246.678125 149.6 " transform="matrix(1.25,0,0,1.25,0.000000000000028422,0)"/>
</g>
<path style="fill:none;stroke-width:0.8;stroke-linecap:butt;stroke-linejoin:round;stroke:rgb(0%,0%,0%);stroke-opacity:1;stroke-miterlimit:4;" d="M -0.000000000000007105 0.000781 L -3.5 0.000781 " transform="matrix(1.25,0,0,1.25,64.222656,186.999024)"/>
<path style=" stroke:none;fill-rule:nonzero;fill:rgb(0%,0%,0%);fill-opacity:1;" d="M 27.648438 190.617188 L 29.664062 190.617188 L 29.664062 183.664062 L 27.472656 184.101562 L 27.472656 182.980469 L 29.652344 182.539062 L 30.882812 182.539062 L 30.882812 190.617188 L 32.898438 190.617188 L 32.898438 191.652344 L 27.648438 191.652344 Z M 27.648438 190.617188 "/>
<path style=" stroke:none;fill-rule:nonzero;fill:rgb(0%,0%,0%);fill-opacity:1;" d="M 38.023438 183.351562 C 37.390625 183.351562 36.910156 183.664062 36.589844 184.289062 C 36.273438 184.914062 36.113281 185.851562 36.113281 187.105469 C 36.113281 188.355469 36.273438 189.292969 36.589844 189.917969 C 36.910156 190.542969 37.390625 190.855469 38.023438 190.855469 C 38.664062 190.855469 39.140625 190.542969 39.460938 189.917969 C 39.78125 189.292969 39.941406 188.355469 39.941406 187.105469 C 39.941406 185.851562 39.78125 184.914062 39.460938 184.289062 C 39.140625 183.664062 38.664062 183.351562 38.023438 183.351562 Z M 38.023438 182.375 C 39.046875 182.375 39.824219 182.78125 40.363281 183.589844 C 40.902344 184.394531 41.171875 185.566406 41.171875 187.105469 C 41.171875 188.640625 40.902344 189.8125 40.363281 190.621094 C 39.824219 191.425781 39.046875 191.832031 38.023438 191.832031 C 37.003906 191.832031 36.222656 191.425781 35.683594 190.621094 C 35.144531 189.8125 34.875 188.640625 34.875 187.105469 C 34.875 185.566406 35.144531 184.394531 35.683594 183.589844 C 36.222656 182.78125 37.003906 182.375 38.023438 182.375 Z M 38.023438 182.375 "/>
<path style=" stroke:none;fill-rule:nonzero;fill:rgb(0%,0%,0%);fill-opacity:1;" d="M 43.050781 183.761719 L 48.527344 183.761719 L 48.527344 184.488281 L 43.050781 184.488281 Z M 43.050781 183.761719 "/>
<path style=" stroke:none;fill-rule:nonzero;fill:rgb(0%,0%,0%);fill-opacity:1;" d="M 53.003906 183.425781 C 53.417969 183.515625 53.742188 183.699219 53.972656 183.980469 C 54.203125 184.257812 54.320312 184.601562 54.320312 185.011719 C 54.320312 185.640625 54.105469 186.128906 53.671875 186.476562 C 53.238281 186.820312 52.621094 186.992188 51.824219 186.992188 C 51.558594 186.992188 51.28125 186.964844 51 186.914062 C 50.714844 186.859375 50.421875 186.78125 50.121094 186.675781 L 50.121094 185.84375 C 50.359375 185.980469 50.621094 186.085938 50.90625 186.15625 C 51.191406 186.230469 51.488281 186.265625 51.800781 186.265625 C 52.339844 186.265625 52.753906 186.15625 53.035156 185.945312 C 53.320312 185.730469 53.460938 185.421875 53.460938 185.011719 C 53.460938 184.636719 53.332031 184.34375 53.066406 184.132812 C 52.804688 183.917969 52.4375 183.8125 51.96875 183.8125 L 51.222656 183.8125 L 51.222656 183.101562 L 52 183.101562 C 52.425781 183.101562 52.75 183.019531 52.976562 182.847656 C 53.199219 182.679688 53.3125 182.433594 53.3125 182.117188 C 53.3125 181.789062 53.195312 181.539062 52.964844 181.363281 C 52.734375 181.1875 52.402344 181.097656 51.96875 181.097656 C 51.730469 181.097656 51.476562 181.125 51.207031 181.175781 C 50.933594 181.226562 50.636719 181.308594 50.3125 181.414062 L 50.3125 180.648438 C 50.640625 180.554688 50.949219 180.488281 51.234375 180.441406 C 51.519531 180.394531 51.789062 180.375 52.042969 180.375 C 52.699219 180.375 53.21875 180.523438 53.597656 180.820312 C 53.980469 181.117188 54.171875 181.519531 54.171875 182.027344 C 54.171875 182.378906 54.070312 182.679688 53.867188 182.921875 C 53.664062 183.164062 53.378906 183.332031 53.003906 183.425781 Z M 53.003906 183.425781 "/>
<g clip-path="url(#clip6)" clip-rule="nonzero">
<path style="fill:none;stroke-width:0.8;stroke-linecap:square;stroke-linejoin:round;stroke:rgb(69.019608%,69.019608%,69.019608%);stroke-opacity:1;stroke-miterlimit:4;" d="M 51.378125 121.878125 L 246.678125 121.878125 " transform="matrix(1.25,0,0,1.25,0.000000000000028422,0)"/>
</g>
<path style="fill:none;stroke-width:0.8;stroke-linecap:butt;stroke-linejoin:round;stroke:rgb(0%,0%,0%);stroke-opacity:1;stroke-miterlimit:4;" d="M -0.000000000000007105 -0.001094 L -3.5 -0.001094 " transform="matrix(1.25,0,0,1.25,64.222656,152.349024)"/>
<path style=" stroke:none;fill-rule:nonzero;fill:rgb(0%,0%,0%);fill-opacity:1;" d="M 27.648438 155.964844 L 29.664062 155.964844 L 29.664062 149.011719 L 27.472656 149.453125 L 27.472656 148.328125 L 29.652344 147.890625 L 30.882812 147.890625 L 30.882812 155.964844 L 32.898438 155.964844 L 32.898438 157.003906 L 27.648438 157.003906 Z M 27.648438 155.964844 "/>
<path style=" stroke:none;fill-rule:nonzero;fill:rgb(0%,0%,0%);fill-opacity:1;" d="M 38.023438 148.703125 C 37.390625 148.703125 36.910156 149.015625 36.589844 149.640625 C 36.273438 150.261719 36.113281 151.203125 36.113281 152.457031 C 36.113281 153.703125 36.273438 154.640625 36.589844 155.265625 C 36.910156 155.890625 37.390625 156.203125 38.023438 156.203125 C 38.664062 156.203125 39.140625 155.890625 39.460938 155.265625 C 39.78125 154.640625 39.941406 153.703125 39.941406 152.457031 C 39.941406 151.203125 39.78125 150.261719 39.460938 149.640625 C 39.140625 149.015625 38.664062 148.703125 38.023438 148.703125 Z M 38.023438 147.726562 C 39.046875 147.726562 39.824219 148.128906 40.363281 148.9375 C 40.902344 149.746094 41.171875 150.917969 41.171875 152.457031 C 41.171875 153.988281 40.902344 155.160156 40.363281 155.96875 C 39.824219 156.777344 39.046875 157.179688 38.023438 157.179688 C 37.003906 157.179688 36.222656 156.777344 35.683594 155.96875 C 35.144531 155.160156 34.875 153.988281 34.875 152.457031 C 34.875 150.917969 35.144531 149.746094 35.683594 148.9375 C 36.222656 148.128906 37.003906 147.726562 38.023438 147.726562 Z M 38.023438 147.726562 "/>
<path style=" stroke:none;fill-rule:nonzero;fill:rgb(0%,0%,0%);fill-opacity:1;" d="M 43.050781 149.109375 L 48.527344 149.109375 L 48.527344 149.835938 L 43.050781 149.835938 Z M 43.050781 149.109375 "/>
<path style=" stroke:none;fill-rule:nonzero;fill:rgb(0%,0%,0%);fill-opacity:1;" d="M 51.132812 151.492188 L 54.144531 151.492188 L 54.144531 152.21875 L 50.097656 152.21875 L 50.097656 151.492188 C 50.421875 151.152344 50.871094 150.699219 51.433594 150.125 C 52 149.554688 52.355469 149.1875 52.5 149.019531 C 52.777344 148.710938 52.96875 148.449219 53.078125 148.234375 C 53.1875 148.019531 53.246094 147.808594 53.246094 147.597656 C 53.246094 147.261719 53.125 146.984375 52.886719 146.769531 C 52.648438 146.554688 52.339844 146.449219 51.957031 146.449219 C 51.6875 146.449219 51.402344 146.496094 51.101562 146.589844 C 50.800781 146.683594 50.480469 146.828125 50.136719 147.019531 L 50.136719 146.144531 C 50.484375 146.007812 50.808594 145.902344 51.113281 145.828125 C 51.414062 145.757812 51.691406 145.722656 51.941406 145.722656 C 52.601562 145.722656 53.128906 145.886719 53.523438 146.21875 C 53.914062 146.550781 54.109375 146.992188 54.109375 147.542969 C 54.109375 147.804688 54.0625 148.054688 53.964844 148.289062 C 53.867188 148.523438 53.6875 148.800781 53.425781 149.121094 C 53.355469 149.203125 53.128906 149.441406 52.75 149.835938 C 52.367188 150.230469 51.828125 150.78125 51.132812 151.492188 Z M 51.132812 151.492188 "/>
<g clip-path="url(#clip7)" clip-rule="nonzero">
<path style="fill:none;stroke-width:0.8;stroke-linecap:square;stroke-linejoin:round;stroke:rgb(69.019608%,69.019608%,69.019608%);stroke-opacity:1;stroke-miterlimit:4;" d="M 51.378125 94.159375 L 246.678125 94.159375 " transform="matrix(1.25,0,0,1.25,0.000000000000028422,0)"/>
</g>
<path style="fill:none;stroke-width:0.8;stroke-linecap:butt;stroke-linejoin:round;stroke:rgb(0%,0%,0%);stroke-opacity:1;stroke-miterlimit:4;" d="M -0.000000000000007105 0.000156 L -3.5 0.000156 " transform="matrix(1.25,0,0,1.25,64.222656,117.699024)"/>
<path style=" stroke:none;fill-rule:nonzero;fill:rgb(0%,0%,0%);fill-opacity:1;" d="M 27.648438 121.324219 L 29.664062 121.324219 L 29.664062 114.371094 L 27.472656 114.8125 L 27.472656 113.6875 L 29.652344 113.25 L 30.882812 113.25 L 30.882812 121.324219 L 32.898438 121.324219 L 32.898438 122.363281 L 27.648438 122.363281 Z M 27.648438 121.324219 "/>
<path style=" stroke:none;fill-rule:nonzero;fill:rgb(0%,0%,0%);fill-opacity:1;" d="M 38.023438 114.0625 C 37.390625 114.0625 36.910156 114.375 36.589844 115 C 36.273438 115.621094 36.113281 116.5625 36.113281 117.816406 C 36.113281 119.0625 36.273438 120 36.589844 120.625 C 36.910156 121.25 37.390625 121.5625 38.023438 121.5625 C 38.664062 121.5625 39.140625 121.25 39.460938 120.625 C 39.78125 120 39.941406 119.0625 39.941406 117.816406 C 39.941406 116.5625 39.78125 115.621094 39.460938 115 C 39.140625 114.375 38.664062 114.0625 38.023438 114.0625 Z M 38.023438 113.085938 C 39.046875 113.085938 39.824219 113.488281 40.363281 114.296875 C 40.902344 115.105469 41.171875 116.277344 41.171875 117.816406 C 41.171875 119.347656 40.902344 120.519531 40.363281 121.328125 C 39.824219 122.136719 39.046875 122.539062 38.023438 122.539062 C 37.003906 122.539062 36.222656 122.136719 35.683594 121.328125 C 35.144531 120.519531 34.875 119.347656 34.875 117.816406 C 34.875 116.277344 35.144531 115.105469 35.683594 114.296875 C 36.222656 113.488281 37.003906 113.085938 38.023438 113.085938 Z M 38.023438 113.085938 "/>
<path style=" stroke:none;fill-rule:nonzero;fill:rgb(0%,0%,0%);fill-opacity:1;" d="M 43.050781 114.472656 L 48.527344 114.472656 L 48.527344 115.195312 L 43.050781 115.195312 Z M 43.050781 114.472656 "/>
<path style=" stroke:none;fill-rule:nonzero;fill:rgb(0%,0%,0%);fill-opacity:1;" d="M 50.539062 116.851562 L 51.949219 116.851562 L 51.949219 111.984375 L 50.414062 112.292969 L 50.414062 111.503906 L 51.941406 111.199219 L 52.804688 111.199219 L 52.804688 116.851562 L 54.214844 116.851562 L 54.214844 117.578125 L 50.539062 117.578125 Z M 50.539062 116.851562 "/>
<g clip-path="url(#clip8)" clip-rule="nonzero">
<path style="fill:none;stroke-width:0.8;stroke-linecap:square;stroke-linejoin:round;stroke:rgb(69.019608%,69.019608%,69.019608%);stroke-opacity:1;stroke-miterlimit:4;" d="M 51.378125 66.440625 L 246.678125 66.440625 " transform="matrix(1.25,0,0,1.25,0.000000000000028422,0)"/>
</g>
<path style="fill:none;stroke-width:0.8;stroke-linecap:butt;stroke-linejoin:round;stroke:rgb(0%,0%,0%);stroke-opacity:1;stroke-miterlimit:4;" d="M -0.000000000000007105 0.001406 L -3.5 0.001406 " transform="matrix(1.25,0,0,1.25,64.222656,83.049024)"/>
<path style=" stroke:none;fill-rule:nonzero;fill:rgb(0%,0%,0%);fill-opacity:1;" d="M 35.023438 86.664062 L 37.039062 86.664062 L 37.039062 79.710938 L 34.847656 80.152344 L 34.847656 79.027344 L 37.027344 78.589844 L 38.257812 78.589844 L 38.257812 86.664062 L 40.273438 86.664062 L 40.273438 87.703125 L 35.023438 87.703125 Z M 35.023438 86.664062 "/>
<path style=" stroke:none;fill-rule:nonzero;fill:rgb(0%,0%,0%);fill-opacity:1;" d="M 45.398438 79.402344 C 44.765625 79.402344 44.285156 79.714844 43.964844 80.339844 C 43.648438 80.960938 43.488281 81.902344 43.488281 83.15625 C 43.488281 84.402344 43.648438 85.339844 43.964844 85.964844 C 44.285156 86.589844 44.765625 86.902344 45.398438 86.902344 C 46.039062 86.902344 46.515625 86.589844 46.835938 85.964844 C 47.15625 85.339844 47.316406 84.402344 47.316406 83.15625 C 47.316406 81.902344 47.15625 80.960938 46.835938 80.339844 C 46.515625 79.714844 46.039062 79.402344 45.398438 79.402344 Z M 45.398438 78.425781 C 46.421875 78.425781 47.199219 78.828125 47.738281 79.636719 C 48.277344 80.445312 48.546875 81.617188 48.546875 83.15625 C 48.546875 84.6875 48.277344 85.859375 47.738281 86.667969 C 47.199219 87.476562 46.421875 87.878906 45.398438 87.878906 C 44.378906 87.878906 43.597656 87.476562 43.058594 86.667969 C 42.519531 85.859375 42.25 84.6875 42.25 83.15625 C 42.25 81.617188 42.519531 80.445312 43.058594 79.636719 C 43.597656 78.828125 44.378906 78.425781 45.398438 78.425781 Z M 45.398438 78.425781 "/>
<path style=" stroke:none;fill-rule:nonzero;fill:rgb(0%,0%,0%);fill-opacity:1;" d="M 52.277344 77.105469 C 51.835938 77.105469 51.5 77.324219 51.277344 77.761719 C 51.054688 78.199219 50.941406 78.855469 50.941406 79.734375 C 50.941406 80.609375 51.054688 81.265625 51.277344 81.703125 C 51.5 82.140625 51.835938 82.359375 52.277344 82.359375 C 52.726562 82.359375 53.0625 82.140625 53.285156 81.703125 C 53.507812 81.265625 53.621094 80.609375 53.621094 79.734375 C 53.621094 78.855469 53.507812 78.199219 53.285156 77.761719 C 53.0625 77.324219 52.726562 77.105469 52.277344 77.105469 Z M 52.277344 76.421875 C 52.996094 76.421875 53.539062 76.707031 53.917969 77.273438 C 54.296875 77.835938 54.484375 78.65625 54.484375 79.734375 C 54.484375 80.808594 54.296875 81.628906 53.917969 82.195312 C 53.539062 82.757812 52.996094 83.042969 52.277344 83.042969 C 51.5625 83.042969 51.019531 82.757812 50.640625 82.195312 C 50.265625 81.628906 50.074219 80.808594 50.074219 79.734375 C 50.074219 78.65625 50.265625 77.835938 50.640625 77.273438 C 51.019531 76.707031 51.5625 76.421875 52.277344 76.421875 Z M 52.277344 76.421875 "/>
<g clip-path="url(#clip9)" clip-rule="nonzero">
<path style="fill:none;stroke-width:0.8;stroke-linecap:square;stroke-linejoin:round;stroke:rgb(69.019608%,69.019608%,69.019608%);stroke-opacity:1;stroke-miterlimit:4;" d="M 51.378125 38.71875 L 246.678125 38.71875 " transform="matrix(1.25,0,0,1.25,0.000000000000028422,0)"/>
</g>
<path style="fill:none;stroke-width:0.8;stroke-linecap:butt;stroke-linejoin:round;stroke:rgb(0%,0%,0%);stroke-opacity:1;stroke-miterlimit:4;" d="M -0.000000000000007105 -0.000469 L -3.5 -0.000469 " transform="matrix(1.25,0,0,1.25,64.222656,48.399024)"/>
<path style=" stroke:none;fill-rule:nonzero;fill:rgb(0%,0%,0%);fill-opacity:1;" d="M 35.023438 52.023438 L 37.039062 52.023438 L 37.039062 45.070312 L 34.847656 45.511719 L 34.847656 44.386719 L 37.027344 43.949219 L 38.257812 43.949219 L 38.257812 52.023438 L 40.273438 52.023438 L 40.273438 53.0625 L 35.023438 53.0625 Z M 35.023438 52.023438 "/>
<path style=" stroke:none;fill-rule:nonzero;fill:rgb(0%,0%,0%);fill-opacity:1;" d="M 45.398438 44.761719 C 44.765625 44.761719 44.285156 45.074219 43.964844 45.699219 C 43.648438 46.324219 43.488281 47.261719 43.488281 48.515625 C 43.488281 49.765625 43.648438 50.699219 43.964844 51.324219 C 44.285156 51.949219 44.765625 52.261719 45.398438 52.261719 C 46.039062 52.261719 46.515625 51.949219 46.835938 51.324219 C 47.15625 50.699219 47.316406 49.765625 47.316406 48.515625 C 47.316406 47.261719 47.15625 46.324219 46.835938 45.699219 C 46.515625 45.074219 46.039062 44.761719 45.398438 44.761719 Z M 45.398438 43.785156 C 46.421875 43.785156 47.199219 44.1875 47.738281 44.996094 C 48.277344 45.804688 48.546875 46.976562 48.546875 48.515625 C 48.546875 50.050781 48.277344 51.21875 47.738281 52.027344 C 47.199219 52.835938 46.421875 53.238281 45.398438 53.238281 C 44.378906 53.238281 43.597656 52.835938 43.058594 52.027344 C 42.519531 51.21875 42.25 50.050781 42.25 48.515625 C 42.25 46.976562 42.519531 45.804688 43.058594 44.996094 C 43.597656 44.1875 44.378906 43.785156 45.398438 43.785156 Z M 45.398438 43.785156 "/>
<path style=" stroke:none;fill-rule:nonzero;fill:rgb(0%,0%,0%);fill-opacity:1;" d="M 50.582031 47.550781 L 51.992188 47.550781 L 51.992188 42.683594 L 50.460938 42.992188 L 50.460938 42.207031 L 51.984375 41.898438 L 52.847656 41.898438 L 52.847656 47.550781 L 54.257812 47.550781 L 54.257812 48.277344 L 50.582031 48.277344 Z M 50.582031 47.550781 "/>
<g clip-path="url(#clip10)" clip-rule="nonzero">
<path style="fill:none;stroke-width:0.8;stroke-linecap:square;stroke-linejoin:round;stroke:rgb(69.019608%,69.019608%,69.019608%);stroke-opacity:1;stroke-miterlimit:4;" d="M 51.378125 11 L 246.678125 11 " transform="matrix(1.25,0,0,1.25,0.000000000000028422,0)"/>
</g>
<path style="fill:none;stroke-width:0.8;stroke-linecap:butt;stroke-linejoin:round;stroke:rgb(0%,0%,0%);stroke-opacity:1;stroke-miterlimit:4;" d="M -0.000000000000007105 0.000781 L -3.5 0.000781 " transform="matrix(1.25,0,0,1.25,64.222656,13.749024)"/>
<path style=" stroke:none;fill-rule:nonzero;fill:rgb(0%,0%,0%);fill-opacity:1;" d="M 35.023438 17.367188 L 37.039062 17.367188 L 37.039062 10.414062 L 34.847656 10.851562 L 34.847656 9.730469 L 37.027344 9.289062 L 38.257812 9.289062 L 38.257812 17.367188 L 40.273438 17.367188 L 40.273438 18.402344 L 35.023438 18.402344 Z M 35.023438 17.367188 "/>
<path style=" stroke:none;fill-rule:nonzero;fill:rgb(0%,0%,0%);fill-opacity:1;" d="M 45.398438 10.101562 C 44.765625 10.101562 44.285156 10.414062 43.964844 11.039062 C 43.648438 11.664062 43.488281 12.601562 43.488281 13.855469 C 43.488281 15.105469 43.648438 16.042969 43.964844 16.667969 C 44.285156 17.292969 44.765625 17.605469 45.398438 17.605469 C 46.039062 17.605469 46.515625 17.292969 46.835938 16.667969 C 47.15625 16.042969 47.316406 15.105469 47.316406 13.855469 C 47.316406 12.601562 47.15625 11.664062 46.835938 11.039062 C 46.515625 10.414062 46.039062 10.101562 45.398438 10.101562 Z M 45.398438 9.125 C 46.421875 9.125 47.199219 9.53125 47.738281 10.339844 C 48.277344 11.144531 48.546875 12.316406 48.546875 13.855469 C 48.546875 15.390625 48.277344 16.5625 47.738281 17.371094 C 47.199219 18.175781 46.421875 18.582031 45.398438 18.582031 C 44.378906 18.582031 43.597656 18.175781 43.058594 17.371094 C 42.519531 16.5625 42.25 15.390625 42.25 13.855469 C 42.25 12.316406 42.519531 11.144531 43.058594 10.339844 C 43.597656 9.53125 44.378906 9.125 45.398438 9.125 Z M 45.398438 9.125 "/>
<path style=" stroke:none;fill-rule:nonzero;fill:rgb(0%,0%,0%);fill-opacity:1;" d="M 51.175781 12.890625 L 54.1875 12.890625 L 54.1875 13.617188 L 50.140625 13.617188 L 50.140625 12.890625 C 50.464844 12.550781 50.914062 12.097656 51.476562 11.527344 C 52.042969 10.957031 52.398438 10.585938 52.542969 10.421875 C 52.820312 10.109375 53.011719 9.847656 53.121094 9.632812 C 53.234375 9.417969 53.289062 9.207031 53.289062 9 C 53.289062 8.660156 53.167969 8.382812 52.929688 8.171875 C 52.691406 7.957031 52.382812 7.847656 52 7.847656 C 51.730469 7.847656 51.445312 7.894531 51.144531 7.988281 C 50.84375 8.082031 50.523438 8.226562 50.183594 8.417969 L 50.183594 7.546875 C 50.527344 7.40625 50.851562 7.300781 51.15625 7.230469 C 51.457031 7.160156 51.734375 7.125 51.984375 7.125 C 52.644531 7.125 53.171875 7.289062 53.566406 7.621094 C 53.957031 7.949219 54.15625 8.390625 54.15625 8.941406 C 54.15625 9.207031 54.105469 9.453125 54.007812 9.6875 C 53.910156 9.921875 53.730469 10.199219 53.472656 10.519531 C 53.398438 10.601562 53.171875 10.839844 52.792969 11.234375 C 52.410156 11.628906 51.871094 12.183594 51.175781 12.890625 Z M 51.175781 12.890625 "/>
<path style="fill:none;stroke-width:0.6;stroke-linecap:butt;stroke-linejoin:round;stroke:rgb(0%,0%,0%);stroke-opacity:1;stroke-miterlimit:4;" d="M -0.000000000000007105 -0.001542 L -2 -0.001542 " transform="matrix(1.25,0,0,1.25,64.222656,176.568334)"/>
<path style="fill:none;stroke-width:0.6;stroke-linecap:butt;stroke-linejoin:round;stroke:rgb(0%,0%,0%);stroke-opacity:1;stroke-miterlimit:4;" d="M -0.000000000000007105 -0.001543 L -2 -0.001543 " transform="matrix(1.25,0,0,1.25,64.222656,170.466772)"/>
<path style="fill:none;stroke-width:0.6;stroke-linecap:butt;stroke-linejoin:round;stroke:rgb(0%,0%,0%);stroke-opacity:1;stroke-miterlimit:4;" d="M -0.000000000000007105 -0.000741 L -2 -0.000741 " transform="matrix(1.25,0,0,1.25,64.222656,166.137645)"/>
<path style="fill:none;stroke-width:0.6;stroke-linecap:butt;stroke-linejoin:round;stroke:rgb(0%,0%,0%);stroke-opacity:1;stroke-miterlimit:4;" d="M -0.000000000000007105 0.00123 L -2 0.00123 " transform="matrix(1.25,0,0,1.25,64.222656,162.779712)"/>
<path style="fill:none;stroke-width:0.6;stroke-linecap:butt;stroke-linejoin:round;stroke:rgb(0%,0%,0%);stroke-opacity:1;stroke-miterlimit:4;" d="M -0.000000000000007105 -0.000741 L -2 -0.000741 " transform="matrix(1.25,0,0,1.25,64.222656,160.036082)"/>
<path style="fill:none;stroke-width:0.6;stroke-linecap:butt;stroke-linejoin:round;stroke:rgb(0%,0%,0%);stroke-opacity:1;stroke-miterlimit:4;" d="M -0.000000000000007105 -0.001226 L -2 -0.001226 " transform="matrix(1.25,0,0,1.25,64.222656,157.716376)"/>
<path style="fill:none;stroke-width:0.6;stroke-linecap:butt;stroke-linejoin:round;stroke:rgb(0%,0%,0%);stroke-opacity:1;stroke-miterlimit:4;" d="M -0.000000000000007105 0.000061 L -2 0.000061 " transform="matrix(1.25,0,0,1.25,64.222656,155.706955)"/>
<path style="fill:none;stroke-width:0.6;stroke-linecap:butt;stroke-linejoin:round;stroke:rgb(0%,0%,0%);stroke-opacity:1;stroke-miterlimit:4;" d="M -0.000000000000007105 -0.000741 L -2 -0.000741 " transform="matrix(1.25,0,0,1.25,64.222656,153.93452)"/>
<path style="fill:none;stroke-width:0.6;stroke-linecap:butt;stroke-linejoin:round;stroke:rgb(0%,0%,0%);stroke-opacity:1;stroke-miterlimit:4;" d="M -0.000000000000007105 -0.000292 L -2 -0.000292 " transform="matrix(1.25,0,0,1.25,64.222656,141.918334)"/>
<path style="fill:none;stroke-width:0.6;stroke-linecap:butt;stroke-linejoin:round;stroke:rgb(0%,0%,0%);stroke-opacity:1;stroke-miterlimit:4;" d="M -0.000000000000007105 -0.000293 L -2 -0.000293 " transform="matrix(1.25,0,0,1.25,64.222656,135.816772)"/>
<path style="fill:none;stroke-width:0.6;stroke-linecap:butt;stroke-linejoin:round;stroke:rgb(0%,0%,0%);stroke-opacity:1;stroke-miterlimit:4;" d="M -0.000000000000007105 0.000509 L -2 0.000509 " transform="matrix(1.25,0,0,1.25,64.222656,131.487645)"/>
<path style="fill:none;stroke-width:0.6;stroke-linecap:butt;stroke-linejoin:round;stroke:rgb(0%,0%,0%);stroke-opacity:1;stroke-miterlimit:4;" d="M -0.000000000000007105 -0.000645 L -2 -0.000645 " transform="matrix(1.25,0,0,1.25,64.222656,128.129712)"/>
<path style="fill:none;stroke-width:0.6;stroke-linecap:butt;stroke-linejoin:round;stroke:rgb(0%,0%,0%);stroke-opacity:1;stroke-miterlimit:4;" d="M -0.000000000000007105 0.000509 L -2 0.000509 " transform="matrix(1.25,0,0,1.25,64.222656,125.386082)"/>
<path style="fill:none;stroke-width:0.6;stroke-linecap:butt;stroke-linejoin:round;stroke:rgb(0%,0%,0%);stroke-opacity:1;stroke-miterlimit:4;" d="M -0.000000000000007105 0.000024 L -2 0.000024 " transform="matrix(1.25,0,0,1.25,64.222656,123.066376)"/>
<path style="fill:none;stroke-width:0.6;stroke-linecap:butt;stroke-linejoin:round;stroke:rgb(0%,0%,0%);stroke-opacity:1;stroke-miterlimit:4;" d="M -0.000000000000007105 0.001311 L -2 0.001311 " transform="matrix(1.25,0,0,1.25,64.222656,121.056955)"/>
<path style="fill:none;stroke-width:0.6;stroke-linecap:butt;stroke-linejoin:round;stroke:rgb(0%,0%,0%);stroke-opacity:1;stroke-miterlimit:4;" d="M -0.000000000000007105 0.000509 L -2 0.000509 " transform="matrix(1.25,0,0,1.25,64.222656,119.28452)"/>
<path style="fill:none;stroke-width:0.6;stroke-linecap:butt;stroke-linejoin:round;stroke:rgb(0%,0%,0%);stroke-opacity:1;stroke-miterlimit:4;" d="M -0.000000000000007105 0.000958 L -2 0.000958 " transform="matrix(1.25,0,0,1.25,64.222656,107.268334)"/>
<path style="fill:none;stroke-width:0.6;stroke-linecap:butt;stroke-linejoin:round;stroke:rgb(0%,0%,0%);stroke-opacity:1;stroke-miterlimit:4;" d="M -0.000000000000007105 0.000957 L -2 0.000957 " transform="matrix(1.25,0,0,1.25,64.222656,101.166772)"/>
<path style="fill:none;stroke-width:0.6;stroke-linecap:butt;stroke-linejoin:round;stroke:rgb(0%,0%,0%);stroke-opacity:1;stroke-miterlimit:4;" d="M -0.000000000000007105 -0.001366 L -2 -0.001366 " transform="matrix(1.25,0,0,1.25,64.222656,96.837645)"/>
<path style="fill:none;stroke-width:0.6;stroke-linecap:butt;stroke-linejoin:round;stroke:rgb(0%,0%,0%);stroke-opacity:1;stroke-miterlimit:4;" d="M -0.000000000000007105 0.000605 L -2 0.000605 " transform="matrix(1.25,0,0,1.25,64.222656,93.479712)"/>
<path style="fill:none;stroke-width:0.6;stroke-linecap:butt;stroke-linejoin:round;stroke:rgb(0%,0%,0%);stroke-opacity:1;stroke-miterlimit:4;" d="M -0.000000000000007105 -0.001366 L -2 -0.001366 " transform="matrix(1.25,0,0,1.25,64.222656,90.736082)"/>
<path style="fill:none;stroke-width:0.6;stroke-linecap:butt;stroke-linejoin:round;stroke:rgb(0%,0%,0%);stroke-opacity:1;stroke-miterlimit:4;" d="M -0.000000000000007105 0.001274 L -2 0.001274 " transform="matrix(1.25,0,0,1.25,64.222656,88.416376)"/>
<path style="fill:none;stroke-width:0.6;stroke-linecap:butt;stroke-linejoin:round;stroke:rgb(0%,0%,0%);stroke-opacity:1;stroke-miterlimit:4;" d="M -0.000000000000007105 -0.000564 L -2 -0.000564 " transform="matrix(1.25,0,0,1.25,64.222656,86.406955)"/>
<path style="fill:none;stroke-width:0.6;stroke-linecap:butt;stroke-linejoin:round;stroke:rgb(0%,0%,0%);stroke-opacity:1;stroke-miterlimit:4;" d="M -0.000000000000007105 -0.001366 L -2 -0.001366 " transform="matrix(1.25,0,0,1.25,64.222656,84.63452)"/>
<path style="fill:none;stroke-width:0.6;stroke-linecap:butt;stroke-linejoin:round;stroke:rgb(0%,0%,0%);stroke-opacity:1;stroke-miterlimit:4;" d="M -0.000000000000007105 -0.000917 L -2 -0.000917 " transform="matrix(1.25,0,0,1.25,64.222656,72.618334)"/>
<path style="fill:none;stroke-width:0.6;stroke-linecap:butt;stroke-linejoin:round;stroke:rgb(0%,0%,0%);stroke-opacity:1;stroke-miterlimit:4;" d="M -0.000000000000007105 -0.000918 L -2 -0.000918 " transform="matrix(1.25,0,0,1.25,64.222656,66.516772)"/>
<path style="fill:none;stroke-width:0.6;stroke-linecap:butt;stroke-linejoin:round;stroke:rgb(0%,0%,0%);stroke-opacity:1;stroke-miterlimit:4;" d="M -0.000000000000007105 -0.000116 L -2 -0.000116 " transform="matrix(1.25,0,0,1.25,64.222656,62.187645)"/>
<path style="fill:none;stroke-width:0.6;stroke-linecap:butt;stroke-linejoin:round;stroke:rgb(0%,0%,0%);stroke-opacity:1;stroke-miterlimit:4;" d="M -0.000000000000007105 -0.00127 L -2 -0.00127 " transform="matrix(1.25,0,0,1.25,64.222656,58.829712)"/>
<path style="fill:none;stroke-width:0.6;stroke-linecap:butt;stroke-linejoin:round;stroke:rgb(0%,0%,0%);stroke-opacity:1;stroke-miterlimit:4;" d="M -0.000000000000007105 -0.000116 L -2 -0.000116 " transform="matrix(1.25,0,0,1.25,64.222656,56.086082)"/>
<path style="fill:none;stroke-width:0.6;stroke-linecap:butt;stroke-linejoin:round;stroke:rgb(0%,0%,0%);stroke-opacity:1;stroke-miterlimit:4;" d="M -0.000000000000007105 -0.000601 L -2 -0.000601 " transform="matrix(1.25,0,0,1.25,64.222656,53.766376)"/>
<path style="fill:none;stroke-width:0.6;stroke-linecap:butt;stroke-linejoin:round;stroke:rgb(0%,0%,0%);stroke-opacity:1;stroke-miterlimit:4;" d="M -0.000000000000007105 0.000686 L -2 0.000686 " transform="matrix(1.25,0,0,1.25,64.222656,51.756955)"/>
<path style="fill:none;stroke-width:0.6;stroke-linecap:butt;stroke-linejoin:round;stroke:rgb(0%,0%,0%);stroke-opacity:1;stroke-miterlimit:4;" d="M -0.000000000000007105 -0.000116 L -2 -0.000116 " transform="matrix(1.25,0,0,1.25,64.222656,49.98452)"/>
<path style="fill:none;stroke-width:0.6;stroke-linecap:butt;stroke-linejoin:round;stroke:rgb(0%,0%,0%);stroke-opacity:1;stroke-miterlimit:4;" d="M -0.000000000000007105 0.000333 L -2 0.000333 " transform="matrix(1.25,0,0,1.25,64.222656,37.968334)"/>
<path style="fill:none;stroke-width:0.6;stroke-linecap:butt;stroke-linejoin:round;stroke:rgb(0%,0%,0%);stroke-opacity:1;stroke-miterlimit:4;" d="M -0.000000000000007105 0.000332 L -2 0.000332 " transform="matrix(1.25,0,0,1.25,64.222656,31.866772)"/>
<path style="fill:none;stroke-width:0.6;stroke-linecap:butt;stroke-linejoin:round;stroke:rgb(0%,0%,0%);stroke-opacity:1;stroke-miterlimit:4;" d="M -0.000000000000007105 0.001134 L -2 0.001134 " transform="matrix(1.25,0,0,1.25,64.222656,27.537645)"/>
<path style="fill:none;stroke-width:0.6;stroke-linecap:butt;stroke-linejoin:round;stroke:rgb(0%,0%,0%);stroke-opacity:1;stroke-miterlimit:4;" d="M -0.000000000000007105 -0.00002 L -2 -0.00002 " transform="matrix(1.25,0,0,1.25,64.222656,24.179712)"/>
<path style="fill:none;stroke-width:0.6;stroke-linecap:butt;stroke-linejoin:round;stroke:rgb(0%,0%,0%);stroke-opacity:1;stroke-miterlimit:4;" d="M -0.000000000000007105 0.001134 L -2 0.001134 " transform="matrix(1.25,0,0,1.25,64.222656,21.436082)"/>
<path style="fill:none;stroke-width:0.6;stroke-linecap:butt;stroke-linejoin:round;stroke:rgb(0%,0%,0%);stroke-opacity:1;stroke-miterlimit:4;" d="M -0.000000000000007105 0.000649 L -2 0.000649 " transform="matrix(1.25,0,0,1.25,64.222656,19.116376)"/>
<path style="fill:none;stroke-width:0.6;stroke-linecap:butt;stroke-linejoin:round;stroke:rgb(0%,0%,0%);stroke-opacity:1;stroke-miterlimit:4;" d="M -0.000000000000007105 -0.001189 L -2 -0.001189 " transform="matrix(1.25,0,0,1.25,64.222656,17.106955)"/>
<path style="fill:none;stroke-width:0.6;stroke-linecap:butt;stroke-linejoin:round;stroke:rgb(0%,0%,0%);stroke-opacity:1;stroke-miterlimit:4;" d="M -0.000000000000007105 0.001134 L -2 0.001134 " transform="matrix(1.25,0,0,1.25,64.222656,15.33452)"/>
<path style=" stroke:none;fill-rule:nonzero;fill:rgb(0%,0%,0%);fill-opacity:1;" d="M 9 111.269531 L 9 110.144531 L 18.496094 110.144531 L 18.496094 111.269531 Z M 9 111.269531 "/>
<path style=" stroke:none;fill-rule:nonzero;fill:rgb(0%,0%,0%);fill-opacity:1;" d="M 12.449219 105.148438 C 12.449219 105.75 12.683594 106.226562 13.152344 106.574219 C 13.625 106.925781 14.269531 107.101562 15.085938 107.101562 C 15.902344 107.101562 16.546875 106.925781 17.015625 106.578125 C 17.488281 106.230469 17.722656 105.753906 17.722656 105.148438 C 17.722656 104.546875 17.488281 104.074219 17.015625 103.726562 C 16.542969 103.375 15.898438 103.199219 15.085938 103.199219 C 14.277344 103.199219 13.632812 103.375 13.160156 103.726562 C 12.6875 104.074219 12.449219 104.546875 12.449219 105.148438 Z M 11.496094 105.148438 C 11.496094 104.171875 11.816406 103.402344 12.449219 102.847656 C 13.085938 102.289062 13.964844 102.007812 15.085938 102.007812 C 16.203125 102.007812 17.082031 102.289062 17.71875 102.847656 C 18.355469 103.402344 18.675781 104.171875 18.675781 105.148438 C 18.675781 106.128906 18.355469 106.894531 17.71875 107.453125 C 17.082031 108.007812 16.203125 108.285156 15.085938 108.285156 C 13.964844 108.285156 13.085938 108.007812 12.449219 107.453125 C 11.816406 106.894531 11.496094 106.128906 11.496094 105.148438 Z M 11.496094 105.148438 "/>
<path style=" stroke:none;fill-rule:nonzero;fill:rgb(0%,0%,0%);fill-opacity:1;" d="M 11.863281 95.789062 L 12.925781 95.789062 C 12.761719 96.105469 12.640625 96.4375 12.558594 96.777344 C 12.476562 97.121094 12.4375 97.472656 12.4375 97.839844 C 12.4375 98.398438 12.523438 98.816406 12.691406 99.09375 C 12.863281 99.375 13.121094 99.511719 13.460938 99.511719 C 13.722656 99.511719 13.925781 99.414062 14.074219 99.214844 C 14.222656 99.015625 14.367188 98.613281 14.5 98.011719 L 14.585938 97.625 C 14.757812 96.828125 14.996094 96.261719 15.308594 95.925781 C 15.621094 95.589844 16.054688 95.421875 16.609375 95.421875 C 17.246094 95.421875 17.75 95.675781 18.121094 96.175781 C 18.492188 96.679688 18.675781 97.371094 18.675781 98.25 C 18.675781 98.617188 18.640625 98.996094 18.566406 99.394531 C 18.496094 99.792969 18.390625 100.210938 18.246094 100.648438 L 17.085938 100.648438 C 17.304688 100.234375 17.464844 99.824219 17.574219 99.421875 C 17.679688 99.019531 17.734375 98.621094 17.734375 98.222656 C 17.734375 97.695312 17.644531 97.289062 17.460938 97.003906 C 17.28125 96.71875 17.027344 96.578125 16.695312 96.578125 C 16.390625 96.578125 16.160156 96.679688 15.996094 96.886719 C 15.832031 97.089844 15.675781 97.542969 15.523438 98.238281 L 15.433594 98.628906 C 15.289062 99.324219 15.0625 99.828125 14.757812 100.136719 C 14.457031 100.445312 14.039062 100.597656 13.511719 100.597656 C 12.867188 100.597656 12.371094 100.371094 12.023438 99.914062 C 11.671875 99.460938 11.496094 98.8125 11.496094 97.972656 C 11.496094 97.558594 11.527344 97.171875 11.589844 96.804688 C 11.648438 96.4375 11.742188 96.097656 11.863281 95.789062 Z M 11.863281 95.789062 "/>
<path style=" stroke:none;fill-rule:nonzero;fill:rgb(0%,0%,0%);fill-opacity:1;" d="M 11.863281 89.277344 L 12.925781 89.277344 C 12.761719 89.59375 12.640625 89.925781 12.558594 90.265625 C 12.476562 90.609375 12.4375 90.960938 12.4375 91.328125 C 12.4375 91.886719 12.523438 92.304688 12.691406 92.582031 C 12.863281 92.863281 13.121094 93 13.460938 93 C 13.722656 93 13.925781 92.902344 14.074219 92.703125 C 14.222656 92.503906 14.367188 92.101562 14.5 91.5 L 14.585938 91.113281 C 14.757812 90.316406 14.996094 89.75 15.308594 89.414062 C 15.621094 89.078125 16.054688 88.910156 16.609375 88.910156 C 17.246094 88.910156 17.75 89.164062 18.121094 89.664062 C 18.492188 90.167969 18.675781 90.859375 18.675781 91.738281 C 18.675781 92.101562 18.640625 92.484375 18.566406 92.882812 C 18.496094 93.277344 18.390625 93.695312 18.246094 94.136719 L 17.085938 94.136719 C 17.304688 93.71875 17.464844 93.3125 17.574219 92.910156 C 17.679688 92.507812 17.734375 92.109375 17.734375 91.710938 C 17.734375 91.183594 17.644531 90.777344 17.460938 90.492188 C 17.28125 90.207031 17.027344 90.066406 16.695312 90.066406 C 16.390625 90.066406 16.160156 90.167969 15.996094 90.375 C 15.832031 90.578125 15.675781 91.027344 15.523438 91.726562 L 15.433594 92.117188 C 15.289062 92.8125 15.0625 93.3125 14.757812 93.625 C 14.457031 93.933594 14.039062 94.085938 13.511719 94.085938 C 12.867188 94.085938 12.371094 93.859375 12.023438 93.402344 C 11.671875 92.949219 11.496094 92.300781 11.496094 91.460938 C 11.496094 91.046875 11.527344 90.65625 11.589844 90.292969 C 11.648438 89.925781 11.742188 89.585938 11.863281 89.277344 Z M 11.863281 89.277344 "/>
<g clip-path="url(#clip11)" clip-rule="nonzero">
<path style="fill:none;stroke-width:1.5;stroke-linecap:square;stroke-linejoin:round;stroke:rgb(12.156863%,46.666667%,70.588235%);stroke-opacity:1;stroke-miterlimit:4;" d="M 51.378125 31.18125 L 60.678125 43.475 L 70.46875 43.70625 L 80.25625 43.709375 L 246.678125 43.709375 " transform="matrix(1.25,0,0,1.25,0.000000000000028422,0)"/>
</g>
<g clip-path="url(#clip12)" clip-rule="nonzero">
<path style="fill:none;stroke-width:1.5;stroke-linecap:butt;stroke-linejoin:round;stroke:rgb(74.901961%,0%,74.901961%);stroke-opacity:1;stroke-dasharray:5.55,2.4;stroke-miterlimit:4;" d="M 51.378125 26.646875 L 60.678125 37.353125 L 70.46875 37.775 L 80.25625 37.8 L 99.8375 37.8125 L 109.625 37.803125 L 119.415625 37.8 L 129.203125 37.796875 L 138.99375 37.809375 L 148.784375 37.803125 L 158.571875 37.80625 L 168.3625 37.8 L 178.153125 37.809375 L 187.940625 37.809375 L 197.73125 37.80625 L 207.51875 37.79375 L 217.309375 37.803125 L 236.8875 37.803125 L 246.678125 37.8 " transform="matrix(1.25,0,0,1.25,0.000000000000028422,0)"/>
</g>
<path style="fill:none;stroke-width:0.8;stroke-linecap:square;stroke-linejoin:miter;stroke:rgb(0%,0%,0%);stroke-opacity:1;stroke-miterlimit:4;" d="M 51.378125 149.6 L 51.378125 11 " transform="matrix(1.25,0,0,1.25,0.000000000000028422,0)"/>
<path style="fill:none;stroke-width:0.8;stroke-linecap:square;stroke-linejoin:miter;stroke:rgb(0%,0%,0%);stroke-opacity:1;stroke-miterlimit:4;" d="M 246.678125 149.6 L 246.678125 11 " transform="matrix(1.25,0,0,1.25,0.000000000000028422,0)"/>
<path style="fill:none;stroke-width:0.8;stroke-linecap:square;stroke-linejoin:miter;stroke:rgb(0%,0%,0%);stroke-opacity:1;stroke-miterlimit:4;" d="M 51.378125 149.6 L 246.678125 149.6 " transform="matrix(1.25,0,0,1.25,0.000000000000028422,0)"/>
<path style="fill:none;stroke-width:0.8;stroke-linecap:square;stroke-linejoin:miter;stroke:rgb(0%,0%,0%);stroke-opacity:1;stroke-miterlimit:4;" d="M 51.378125 11 L 246.678125 11 " transform="matrix(1.25,0,0,1.25,0.000000000000028422,0)"/>
<use xlink:href="#surface5" mask="url(#mask0)"/>
<path style="fill:none;stroke-width:1.5;stroke-linecap:square;stroke-linejoin:round;stroke:rgb(12.156863%,46.666667%,70.588235%);stroke-opacity:1;stroke-miterlimit:4;" d="M 60.378125 120.340625 L 80.378125 120.340625 " transform="matrix(1.25,0,0,1.25,0.000000000000028422,0)"/>
<path style=" stroke:none;fill-rule:nonzero;fill:rgb(0%,0%,0%);fill-opacity:1;" d="M 112.761719 146.023438 L 112.761719 147.964844 L 115.074219 147.964844 L 115.074219 148.839844 L 112.761719 148.839844 L 112.761719 152.550781 C 112.761719 153.105469 112.835938 153.464844 112.992188 153.625 C 113.140625 153.78125 113.453125 153.863281 113.921875 153.863281 L 115.074219 153.863281 L 115.074219 154.800781 L 113.921875 154.800781 C 113.054688 154.800781 112.457031 154.640625 112.125 154.316406 C 111.796875 153.992188 111.632812 153.402344 111.632812 152.550781 L 111.632812 148.839844 L 110.808594 148.839844 L 110.808594 147.964844 L 111.632812 147.964844 L 111.632812 146.023438 Z M 112.761719 146.023438 "/>
<path style=" stroke:none;fill-rule:nonzero;fill:rgb(0%,0%,0%);fill-opacity:1;" d="M 120.511719 149.015625 C 120.386719 148.941406 120.25 148.886719 120.101562 148.855469 C 119.953125 148.820312 119.789062 148.800781 119.609375 148.800781 C 118.976562 148.800781 118.488281 149.007812 118.148438 149.421875 C 117.808594 149.832031 117.636719 150.425781 117.636719 151.199219 L 117.636719 154.800781 L 116.507812 154.800781 L 116.507812 147.964844 L 117.636719 147.964844 L 117.636719 149.027344 C 117.875 148.613281 118.183594 148.304688 118.558594 148.105469 C 118.9375 147.902344 119.398438 147.800781 119.941406 147.800781 C 120.015625 147.800781 120.101562 147.808594 120.195312 147.816406 C 120.289062 147.828125 120.394531 147.839844 120.507812 147.863281 Z M 120.511719 149.015625 "/>
<path style=" stroke:none;fill-rule:nonzero;fill:rgb(0%,0%,0%);fill-opacity:1;" d="M 124.796875 151.367188 C 123.890625 151.367188 123.261719 151.46875 122.910156 151.675781 C 122.5625 151.882812 122.386719 152.238281 122.386719 152.738281 C 122.386719 153.136719 122.515625 153.453125 122.78125 153.6875 C 123.042969 153.921875 123.398438 154.039062 123.851562 154.039062 C 124.472656 154.039062 124.972656 153.816406 125.351562 153.375 C 125.726562 152.933594 125.914062 152.347656 125.914062 151.617188 L 125.914062 151.367188 Z M 127.039062 150.902344 L 127.039062 154.800781 L 125.914062 154.800781 L 125.914062 153.765625 C 125.660156 154.179688 125.339844 154.484375 124.957031 154.683594 C 124.574219 154.878906 124.105469 154.980469 123.550781 154.980469 C 122.851562 154.980469 122.296875 154.78125 121.882812 154.390625 C 121.46875 153.996094 121.261719 153.46875 121.261719 152.8125 C 121.261719 152.042969 121.519531 151.464844 122.035156 151.074219 C 122.550781 150.683594 123.316406 150.488281 124.339844 150.488281 L 125.914062 150.488281 L 125.914062 150.375 C 125.914062 149.859375 125.746094 149.460938 125.40625 149.175781 C 125.066406 148.894531 124.589844 148.753906 123.972656 148.753906 C 123.582031 148.753906 123.203125 148.800781 122.832031 148.894531 C 122.460938 148.988281 122.105469 149.128906 121.765625 149.316406 L 121.765625 148.277344 C 122.175781 148.117188 122.574219 148 122.960938 147.921875 C 123.347656 147.839844 123.722656 147.800781 124.089844 147.800781 C 125.078125 147.800781 125.816406 148.058594 126.304688 148.570312 C 126.792969 149.082031 127.039062 149.859375 127.039062 150.902344 Z M 127.039062 150.902344 "/>
<path style=" stroke:none;fill-rule:nonzero;fill:rgb(0%,0%,0%);fill-opacity:1;" d="M 129.351562 147.964844 L 130.472656 147.964844 L 130.472656 154.800781 L 129.351562 154.800781 Z M 129.351562 145.304688 L 130.472656 145.304688 L 130.472656 146.726562 L 129.351562 146.726562 Z M 129.351562 145.304688 "/>
<path style=" stroke:none;fill-rule:nonzero;fill:rgb(0%,0%,0%);fill-opacity:1;" d="M 138.507812 150.675781 L 138.507812 154.800781 L 137.382812 154.800781 L 137.382812 150.710938 C 137.382812 150.066406 137.257812 149.582031 137.003906 149.261719 C 136.753906 148.9375 136.375 148.777344 135.871094 148.777344 C 135.261719 148.777344 134.785156 148.972656 134.433594 149.359375 C 134.085938 149.742188 133.910156 150.269531 133.910156 150.9375 L 133.910156 154.800781 L 132.78125 154.800781 L 132.78125 147.964844 L 133.910156 147.964844 L 133.910156 149.027344 C 134.179688 148.617188 134.496094 148.308594 134.859375 148.105469 C 135.222656 147.902344 135.644531 147.800781 136.121094 147.800781 C 136.90625 147.800781 137.5 148.042969 137.902344 148.53125 C 138.304688 149.015625 138.507812 149.730469 138.507812 150.675781 Z M 138.507812 150.675781 "/>
<path style="fill:none;stroke-width:1.5;stroke-linecap:butt;stroke-linejoin:round;stroke:rgb(74.901961%,0%,74.901961%);stroke-opacity:1;stroke-dasharray:5.55,2.4;stroke-miterlimit:4;" d="M 60.378125 135.01875 L 80.378125 135.01875 " transform="matrix(1.25,0,0,1.25,0.000000000000028422,0)"/>
<path style=" stroke:none;fill-rule:nonzero;fill:rgb(0%,0%,0%);fill-opacity:1;" d="M 112.761719 164.371094 L 112.761719 166.3125 L 115.074219 166.3125 L 115.074219 167.1875 L 112.761719 167.1875 L 112.761719 170.898438 C 112.761719 171.453125 112.835938 171.8125 112.992188 171.972656 C 113.140625 172.128906 113.453125 172.210938 113.921875 172.210938 L 115.074219 172.210938 L 115.074219 173.148438 L 113.921875 173.148438 C 113.054688 173.148438 112.457031 172.988281 112.125 172.664062 C 111.796875 172.339844 111.632812 171.75 111.632812 170.898438 L 111.632812 167.1875 L 110.808594 167.1875 L 110.808594 166.3125 L 111.632812 166.3125 L 111.632812 164.371094 Z M 112.761719 164.371094 "/>
<path style=" stroke:none;fill-rule:nonzero;fill:rgb(0%,0%,0%);fill-opacity:1;" d="M 122.398438 169.449219 L 122.398438 170 L 117.234375 170 C 117.285156 170.773438 117.519531 171.363281 117.933594 171.765625 C 118.351562 172.171875 118.933594 172.375 119.675781 172.375 C 120.109375 172.375 120.527344 172.320312 120.929688 172.214844 C 121.335938 172.109375 121.738281 171.953125 122.136719 171.738281 L 122.136719 172.800781 C 121.734375 172.972656 121.320312 173.101562 120.898438 173.191406 C 120.472656 173.28125 120.046875 173.328125 119.609375 173.328125 C 118.519531 173.328125 117.65625 173.011719 117.019531 172.375 C 116.382812 171.742188 116.0625 170.882812 116.0625 169.796875 C 116.0625 168.679688 116.367188 167.792969 116.96875 167.136719 C 117.574219 166.476562 118.390625 166.148438 119.414062 166.148438 C 120.335938 166.148438 121.0625 166.445312 121.597656 167.039062 C 122.132812 167.628906 122.398438 168.433594 122.398438 169.449219 Z M 121.277344 169.121094 C 121.269531 168.507812 121.097656 168.015625 120.761719 167.652344 C 120.425781 167.285156 119.980469 167.101562 119.425781 167.101562 C 118.800781 167.101562 118.300781 167.277344 117.921875 167.632812 C 117.546875 167.984375 117.328125 168.484375 117.273438 169.128906 Z M 121.277344 169.121094 "/>
<path style=" stroke:none;fill-rule:nonzero;fill:rgb(0%,0%,0%);fill-opacity:1;" d="M 128.597656 166.515625 L 128.597656 167.578125 C 128.28125 167.414062 127.953125 167.292969 127.609375 167.210938 C 127.269531 167.128906 126.914062 167.089844 126.546875 167.089844 C 125.992188 167.089844 125.574219 167.175781 125.292969 167.34375 C 125.015625 167.515625 124.875 167.773438 124.875 168.113281 C 124.875 168.375 124.976562 168.578125 125.175781 168.726562 C 125.375 168.875 125.777344 169.015625 126.378906 169.152344 L 126.761719 169.238281 C 127.558594 169.40625 128.125 169.648438 128.460938 169.960938 C 128.796875 170.269531 128.964844 170.707031 128.964844 171.261719 C 128.964844 171.898438 128.714844 172.402344 128.210938 172.773438 C 127.710938 173.140625 127.019531 173.328125 126.140625 173.328125 C 125.773438 173.328125 125.394531 173.292969 124.996094 173.21875 C 124.597656 173.148438 124.179688 173.042969 123.742188 172.898438 L 123.742188 171.738281 C 124.15625 171.957031 124.566406 172.117188 124.96875 172.226562 C 125.371094 172.332031 125.769531 172.386719 126.164062 172.386719 C 126.695312 172.386719 127.101562 172.296875 127.382812 172.113281 C 127.667969 171.933594 127.8125 171.679688 127.8125 171.347656 C 127.8125 171.042969 127.710938 170.808594 127.503906 170.648438 C 127.300781 170.484375 126.847656 170.328125 126.152344 170.175781 L 125.761719 170.085938 C 125.066406 169.9375 124.5625 169.714844 124.253906 169.410156 C 123.945312 169.109375 123.789062 168.691406 123.789062 168.164062 C 123.789062 167.519531 124.019531 167.023438 124.472656 166.675781 C 124.929688 166.324219 125.578125 166.148438 126.414062 166.148438 C 126.828125 166.148438 127.21875 166.179688 127.585938 166.242188 C 127.953125 166.300781 128.289062 166.390625 128.597656 166.515625 Z M 128.597656 166.515625 "/>
<path style=" stroke:none;fill-rule:nonzero;fill:rgb(0%,0%,0%);fill-opacity:1;" d="M 131.867188 164.371094 L 131.867188 166.3125 L 134.179688 166.3125 L 134.179688 167.1875 L 131.867188 167.1875 L 131.867188 170.898438 C 131.867188 171.453125 131.941406 171.8125 132.09375 171.972656 C 132.246094 172.128906 132.558594 172.210938 133.027344 172.210938 L 134.179688 172.210938 L 134.179688 173.148438 L 133.027344 173.148438 C 132.160156 173.148438 131.558594 172.988281 131.230469 172.664062 C 130.902344 172.339844 130.738281 171.75 130.738281 170.898438 L 130.738281 167.1875 L 129.914062 167.1875 L 129.914062 166.3125 L 130.738281 166.3125 L 130.738281 164.371094 Z M 131.867188 164.371094 "/>
</g>
</svg>
