<?xml version="1.0" encoding="UTF-8"?>
<svg xmlns="http://www.w3.org/2000/svg" xmlns:xlink="http://www.w3.org/1999/xlink" width="284pt" height="92pt" viewBox="0 0 284 92" version="1.1">
<defs>
<clipPath id="clip1">
  <path d="M 142.5 36.25 L 148.4375 36.25 L 148.4375 42 L 142.5 42 Z M 142.5 36.25 "/>
</clipPath>
</defs>
<g id="surface1">
<path style="fill-rule:nonzero;fill:rgb(100%,100%,100%);fill-opacity:1;stroke-width:1;stroke-linecap:round;stroke-linejoin:round;stroke:rgb(0%,0%,0%);stroke-opacity:1;stroke-miterlimit:10;" d="M 54 243 L 72 243 L 72 261 L 54 261 Z M 54 243 " transform="matrix(1.25,0,0,1.25,-66.25,-235)"/>
<path style=" stroke:none;fill-rule:nonzero;fill:rgb(0%,0%,0%);fill-opacity:1;" d="M 11.308594 83.125 L 11.308594 82.949219 C 10.46875 82.949219 10.234375 82.753906 10.234375 82.265625 L 10.234375 75.546875 L 10.136719 75.527344 L 8.125 76.542969 L 8.125 76.699219 L 8.417969 76.582031 C 8.632812 76.503906 8.828125 76.445312 8.925781 76.445312 C 9.179688 76.445312 9.277344 76.621094 9.277344 77.011719 L 9.277344 82.050781 C 9.277344 82.675781 9.042969 82.910156 8.203125 82.949219 L 8.203125 83.125 Z M 11.308594 83.125 "/>
<path style=" stroke:none;fill-rule:nonzero;fill:rgb(0%,0%,0%);fill-opacity:1;" d="M 17.832031 81.582031 L 17.675781 81.523438 C 17.304688 82.148438 17.070312 82.265625 16.601562 82.265625 L 13.964844 82.265625 L 15.820312 80.292969 C 16.816406 79.238281 17.265625 78.398438 17.265625 77.5 C 17.265625 76.386719 16.445312 75.527344 15.175781 75.527344 C 13.789062 75.527344 13.066406 76.445312 12.832031 77.753906 L 13.066406 77.8125 C 13.515625 76.71875 13.925781 76.347656 14.726562 76.347656 C 15.683594 76.347656 16.289062 76.914062 16.289062 77.929688 C 16.289062 78.886719 15.878906 79.746094 14.824219 80.859375 L 12.832031 82.988281 L 12.832031 83.125 L 17.226562 83.125 Z M 17.832031 81.582031 "/>
<path style="fill-rule:nonzero;fill:rgb(100%,100%,100%);fill-opacity:1;stroke-width:1;stroke-linecap:round;stroke-linejoin:round;stroke:rgb(0%,0%,0%);stroke-opacity:1;stroke-miterlimit:10;" d="M 108 243 L 126 243 L 126 261 L 108 261 Z M 108 243 " transform="matrix(1.25,0,0,1.25,-66.25,-235)"/>
<path style=" stroke:none;fill-rule:nonzero;fill:rgb(0%,0%,0%);fill-opacity:1;" d="M 78.808594 83.125 L 78.808594 82.949219 C 77.96875 82.949219 77.734375 82.753906 77.734375 82.265625 L 77.734375 75.546875 L 77.636719 75.527344 L 75.625 76.542969 L 75.625 76.699219 L 75.917969 76.582031 C 76.132812 76.503906 76.328125 76.445312 76.425781 76.445312 C 76.679688 76.445312 76.777344 76.621094 76.777344 77.011719 L 76.777344 82.050781 C 76.777344 82.675781 76.542969 82.910156 75.703125 82.949219 L 75.703125 83.125 Z M 78.808594 83.125 "/>
<path style=" stroke:none;fill-rule:nonzero;fill:rgb(0%,0%,0%);fill-opacity:1;" d="M 84.921875 75.46875 L 84.824219 75.390625 C 84.648438 75.625 84.550781 75.683594 84.277344 75.683594 L 81.953125 75.683594 L 80.722656 78.339844 C 80.722656 78.339844 80.722656 78.378906 80.722656 78.398438 C 80.722656 78.476562 80.761719 78.496094 80.859375 78.496094 C 81.933594 78.496094 82.714844 78.847656 83.242188 79.277344 C 83.75 79.6875 84.003906 80.253906 84.003906 80.957031 C 84.003906 81.933594 83.28125 82.871094 82.480469 82.871094 C 82.265625 82.871094 82.011719 82.773438 81.679688 82.5 C 81.328125 82.207031 81.113281 82.148438 80.859375 82.148438 C 80.546875 82.148438 80.351562 82.304688 80.351562 82.578125 C 80.351562 83.007812 80.9375 83.28125 81.777344 83.28125 C 82.539062 83.28125 83.164062 83.105469 83.691406 82.734375 C 84.453125 82.167969 84.785156 81.464844 84.785156 80.390625 C 84.785156 79.804688 84.6875 79.375 84.394531 78.964844 C 83.75 78.066406 83.203125 77.832031 81.582031 77.519531 L 82.03125 76.5625 L 84.21875 76.5625 C 84.394531 76.5625 84.492188 76.503906 84.53125 76.425781 Z M 84.921875 75.46875 "/>
<path style="fill-rule:nonzero;fill:rgb(100%,100%,100%);fill-opacity:1;stroke-width:1;stroke-linecap:round;stroke-linejoin:round;stroke:rgb(0%,0%,0%);stroke-opacity:1;stroke-miterlimit:10;" d="M 72 243 L 90 243 L 90 261 L 72 261 Z M 72 243 " transform="matrix(1.25,0,0,1.25,-66.25,-235)"/>
<path style=" stroke:none;fill-rule:nonzero;fill:rgb(0%,0%,0%);fill-opacity:1;" d="M 33.808594 83.125 L 33.808594 82.949219 C 32.96875 82.949219 32.734375 82.753906 32.734375 82.265625 L 32.734375 75.546875 L 32.636719 75.527344 L 30.625 76.542969 L 30.625 76.699219 L 30.917969 76.582031 C 31.132812 76.503906 31.328125 76.445312 31.425781 76.445312 C 31.679688 76.445312 31.777344 76.621094 31.777344 77.011719 L 31.777344 82.050781 C 31.777344 82.675781 31.542969 82.910156 30.703125 82.949219 L 30.703125 83.125 Z M 33.808594 83.125 "/>
<path style=" stroke:none;fill-rule:nonzero;fill:rgb(0%,0%,0%);fill-opacity:1;" d="M 35.683594 77.382812 C 36.152344 76.5625 36.660156 76.191406 37.363281 76.191406 C 38.105469 76.191406 38.574219 76.582031 38.574219 77.34375 C 38.574219 78.027344 38.222656 78.535156 37.675781 78.847656 C 37.441406 78.984375 37.148438 79.101562 36.71875 79.257812 L 36.71875 79.414062 C 37.363281 79.414062 37.617188 79.453125 37.871094 79.53125 C 38.652344 79.746094 39.042969 80.292969 39.042969 81.152344 C 39.042969 82.109375 38.417969 82.871094 37.578125 82.871094 C 37.265625 82.871094 37.03125 82.8125 36.601562 82.519531 C 36.289062 82.304688 36.113281 82.226562 35.917969 82.226562 C 35.664062 82.226562 35.46875 82.402344 35.46875 82.636719 C 35.46875 83.046875 35.898438 83.28125 36.71875 83.28125 C 37.714844 83.28125 38.789062 82.949219 39.335938 82.226562 C 39.648438 81.816406 39.84375 81.25 39.84375 80.664062 C 39.84375 80.078125 39.667969 79.550781 39.355469 79.21875 C 39.121094 78.964844 38.90625 78.828125 38.417969 78.613281 C 39.179688 78.164062 39.472656 77.597656 39.472656 77.070312 C 39.472656 76.132812 38.75 75.527344 37.714844 75.527344 C 36.542969 75.527344 35.839844 76.269531 35.507812 77.34375 Z M 35.683594 77.382812 "/>
<path style="fill-rule:nonzero;fill:rgb(100%,100%,100%);fill-opacity:1;stroke-width:1;stroke-linecap:round;stroke-linejoin:round;stroke:rgb(0%,0%,0%);stroke-opacity:1;stroke-miterlimit:10;" d="M 90 243 L 108 243 L 108 261 L 90 261 Z M 90 243 " transform="matrix(1.25,0,0,1.25,-66.25,-235)"/>
<path style=" stroke:none;fill-rule:nonzero;fill:rgb(0%,0%,0%);fill-opacity:1;" d="M 56.308594 83.125 L 56.308594 82.949219 C 55.46875 82.949219 55.234375 82.753906 55.234375 82.265625 L 55.234375 75.546875 L 55.136719 75.527344 L 53.125 76.542969 L 53.125 76.699219 L 53.417969 76.582031 C 53.632812 76.503906 53.828125 76.445312 53.925781 76.445312 C 54.179688 76.445312 54.277344 76.621094 54.277344 77.011719 L 54.277344 82.050781 C 54.277344 82.675781 54.042969 82.910156 53.203125 82.949219 L 53.203125 83.125 Z M 56.308594 83.125 "/>
<path style=" stroke:none;fill-rule:nonzero;fill:rgb(0%,0%,0%);fill-opacity:1;" d="M 62.8125 81.25 L 62.8125 80.527344 L 61.660156 80.527344 L 61.660156 75.527344 L 61.171875 75.527344 L 57.636719 80.527344 L 57.636719 81.25 L 60.78125 81.25 L 60.78125 83.125 L 61.660156 83.125 L 61.660156 81.25 Z M 60.78125 80.527344 L 58.085938 80.527344 L 60.78125 76.660156 Z M 60.78125 80.527344 "/>
<path style="fill-rule:nonzero;fill:rgb(100%,100%,100%);fill-opacity:1;stroke-width:1;stroke-linecap:round;stroke-linejoin:round;stroke:rgb(0%,0%,0%);stroke-opacity:1;stroke-miterlimit:10;" d="M 108 225 L 126 225 L 126 243 L 108 243 Z M 108 225 " transform="matrix(1.25,0,0,1.25,-66.25,-235)"/>
<path style=" stroke:none;fill-rule:nonzero;fill:rgb(0%,0%,0%);fill-opacity:1;" d="M 78.808594 60.625 L 78.808594 60.449219 C 77.96875 60.449219 77.734375 60.253906 77.734375 59.765625 L 77.734375 53.046875 L 77.636719 53.027344 L 75.625 54.042969 L 75.625 54.199219 L 75.917969 54.082031 C 76.132812 54.003906 76.328125 53.945312 76.425781 53.945312 C 76.679688 53.945312 76.777344 54.121094 76.777344 54.511719 L 76.777344 59.550781 C 76.777344 60.175781 76.542969 60.410156 75.703125 60.449219 L 75.703125 60.625 Z M 78.808594 60.625 "/>
<path style=" stroke:none;fill-rule:nonzero;fill:rgb(0%,0%,0%);fill-opacity:1;" d="M 84.433594 60.625 L 84.433594 60.449219 C 83.59375 60.449219 83.359375 60.253906 83.359375 59.765625 L 83.359375 53.046875 L 83.261719 53.027344 L 81.25 54.042969 L 81.25 54.199219 L 81.542969 54.082031 C 81.757812 54.003906 81.953125 53.945312 82.050781 53.945312 C 82.304688 53.945312 82.402344 54.121094 82.402344 54.511719 L 82.402344 59.550781 C 82.402344 60.175781 82.167969 60.410156 81.328125 60.449219 L 81.328125 60.625 Z M 84.433594 60.625 "/>
<path style="fill-rule:nonzero;fill:rgb(100%,100%,100%);fill-opacity:1;stroke-width:1;stroke-linecap:round;stroke-linejoin:round;stroke:rgb(0%,0%,0%);stroke-opacity:1;stroke-miterlimit:10;" d="M 108 189 L 126 189 L 126 207 L 108 207 Z M 108 189 " transform="matrix(1.25,0,0,1.25,-66.25,-235)"/>
<path style=" stroke:none;fill-rule:nonzero;fill:rgb(0%,0%,0%);fill-opacity:1;" d="M 77.871094 9.882812 C 78.339844 9.0625 78.847656 8.691406 79.550781 8.691406 C 80.292969 8.691406 80.761719 9.082031 80.761719 9.84375 C 80.761719 10.527344 80.410156 11.035156 79.863281 11.347656 C 79.628906 11.484375 79.335938 11.601562 78.90625 11.757812 L 78.90625 11.914062 C 79.550781 11.914062 79.804688 11.953125 80.058594 12.03125 C 80.839844 12.246094 81.230469 12.792969 81.230469 13.652344 C 81.230469 14.609375 80.605469 15.371094 79.765625 15.371094 C 79.453125 15.371094 79.21875 15.3125 78.789062 15.019531 C 78.476562 14.804688 78.300781 14.726562 78.105469 14.726562 C 77.851562 14.726562 77.65625 14.902344 77.65625 15.136719 C 77.65625 15.546875 78.085938 15.78125 78.90625 15.78125 C 79.902344 15.78125 80.976562 15.449219 81.523438 14.726562 C 81.835938 14.316406 82.03125 13.75 82.03125 13.164062 C 82.03125 12.578125 81.855469 12.050781 81.542969 11.71875 C 81.308594 11.464844 81.09375 11.328125 80.605469 11.113281 C 81.367188 10.664062 81.660156 10.097656 81.660156 9.570312 C 81.660156 8.632812 80.9375 8.027344 79.902344 8.027344 C 78.730469 8.027344 78.027344 8.769531 77.695312 9.84375 Z M 77.871094 9.882812 "/>
<path style="fill-rule:nonzero;fill:rgb(100%,100%,100%);fill-opacity:1;stroke-width:1;stroke-linecap:round;stroke-linejoin:round;stroke:rgb(0%,0%,0%);stroke-opacity:1;stroke-miterlimit:10;" d="M 108 207 L 126 207 L 126 225 L 108 225 Z M 108 207 " transform="matrix(1.25,0,0,1.25,-66.25,-235)"/>
<path style=" stroke:none;fill-rule:nonzero;fill:rgb(0%,0%,0%);fill-opacity:1;" d="M 82.246094 30.859375 L 82.246094 30.683594 L 78.085938 30.683594 L 77.421875 32.324219 L 77.617188 32.441406 C 78.085938 31.660156 78.28125 31.503906 78.925781 31.503906 L 81.347656 31.503906 L 79.121094 38.222656 L 79.863281 38.222656 Z M 82.246094 30.859375 "/>
<path style="fill-rule:nonzero;fill:rgb(69.803922%,85.098039%,100%);fill-opacity:1;stroke-width:1;stroke-linecap:round;stroke-linejoin:round;stroke:rgb(0%,0%,0%);stroke-opacity:1;stroke-miterlimit:10;" d="M 72 225 L 90 225 L 90 243 L 72 243 Z M 72 225 " transform="matrix(1.25,0,0,1.25,-66.25,-235)"/>
<path style=" stroke:none;fill-rule:nonzero;fill:rgb(0%,0%,0%);fill-opacity:1;" d="M 32.851562 60.878906 C 34.316406 60.664062 35.039062 60.390625 35.996094 59.53125 C 36.894531 58.710938 37.34375 57.480469 37.34375 56.191406 C 37.34375 55.253906 37.089844 54.433594 36.640625 53.867188 C 36.191406 53.339844 35.585938 53.027344 34.863281 53.027344 C 33.535156 53.027344 32.519531 54.160156 32.519531 55.683594 C 32.519531 57.050781 33.339844 57.949219 34.550781 57.949219 C 35.214844 57.949219 35.761719 57.792969 36.230469 57.324219 C 35.78125 59.160156 34.53125 60.351562 32.8125 60.644531 Z M 36.269531 56.640625 C 36.269531 57.226562 35.429688 57.480469 34.941406 57.480469 C 34.101562 57.480469 33.554688 56.640625 33.554688 55.292969 C 33.554688 54.6875 33.730469 54.023438 33.945312 53.710938 C 34.140625 53.476562 34.433594 53.339844 34.765625 53.339844 C 35.761719 53.339844 36.269531 54.296875 36.269531 56.191406 Z M 36.269531 56.640625 "/>
<path style="fill-rule:nonzero;fill:rgb(40%,74.901961%,100%);fill-opacity:1;stroke-width:1;stroke-linecap:round;stroke-linejoin:round;stroke:rgb(0%,0%,0%);stroke-opacity:1;stroke-miterlimit:10;" d="M 72 189 L 90 189 L 90 207 L 72 207 Z M 72 189 " transform="matrix(1.25,0,0,1.25,-66.25,-235)"/>
<path style=" stroke:none;fill-rule:nonzero;fill:rgb(0%,0%,0%);fill-opacity:1;" d="M 36.621094 15.625 L 36.621094 15.449219 C 35.78125 15.449219 35.546875 15.253906 35.546875 14.765625 L 35.546875 8.046875 L 35.449219 8.027344 L 33.4375 9.042969 L 33.4375 9.199219 L 33.730469 9.082031 C 33.945312 9.003906 34.140625 8.945312 34.238281 8.945312 C 34.492188 8.945312 34.589844 9.121094 34.589844 9.511719 L 34.589844 14.550781 C 34.589844 15.175781 34.355469 15.410156 33.515625 15.449219 L 33.515625 15.625 Z M 36.621094 15.625 "/>
<path style="fill-rule:nonzero;fill:rgb(40%,74.901961%,100%);fill-opacity:1;stroke-width:1;stroke-linecap:round;stroke-linejoin:round;stroke:rgb(0%,0%,0%);stroke-opacity:1;stroke-miterlimit:10;" d="M 72 207 L 90 207 L 90 225 L 72 225 Z M 72 207 " transform="matrix(1.25,0,0,1.25,-66.25,-235)"/>
<path style=" stroke:none;fill-rule:nonzero;fill:rgb(0%,0%,0%);fill-opacity:1;" d="M 37.109375 30.46875 L 37.011719 30.390625 C 36.835938 30.625 36.738281 30.683594 36.464844 30.683594 L 34.140625 30.683594 L 32.910156 33.339844 C 32.910156 33.339844 32.910156 33.378906 32.910156 33.398438 C 32.910156 33.476562 32.949219 33.496094 33.046875 33.496094 C 34.121094 33.496094 34.902344 33.847656 35.429688 34.277344 C 35.9375 34.6875 36.191406 35.253906 36.191406 35.957031 C 36.191406 36.933594 35.46875 37.871094 34.667969 37.871094 C 34.453125 37.871094 34.199219 37.773438 33.867188 37.5 C 33.515625 37.207031 33.300781 37.148438 33.046875 37.148438 C 32.734375 37.148438 32.539062 37.304688 32.539062 37.578125 C 32.539062 38.007812 33.125 38.28125 33.964844 38.28125 C 34.726562 38.28125 35.351562 38.105469 35.878906 37.734375 C 36.640625 37.167969 36.972656 36.464844 36.972656 35.390625 C 36.972656 34.804688 36.875 34.375 36.582031 33.964844 C 35.9375 33.066406 35.390625 32.832031 33.769531 32.519531 L 34.21875 31.5625 L 36.40625 31.5625 C 36.582031 31.5625 36.679688 31.503906 36.71875 31.425781 Z M 37.109375 30.46875 "/>
<path style="fill-rule:nonzero;fill:rgb(69.803922%,85.098039%,100%);fill-opacity:1;stroke-width:1;stroke-linecap:round;stroke-linejoin:round;stroke:rgb(0%,0%,0%);stroke-opacity:1;stroke-miterlimit:10;" d="M 54 225 L 72 225 L 72 243 L 54 243 Z M 54 225 " transform="matrix(1.25,0,0,1.25,-66.25,-235)"/>
<path style=" stroke:none;fill-rule:nonzero;fill:rgb(0%,0%,0%);fill-opacity:1;" d="M 14.6875 58.886719 C 14.6875 57.988281 14.335938 57.382812 12.949219 56.445312 C 14.0625 55.859375 14.453125 55.46875 14.453125 54.628906 C 14.453125 53.75 13.671875 53.027344 12.558594 53.027344 C 11.328125 53.027344 10.390625 53.691406 10.390625 54.765625 C 10.390625 55.507812 10.625 55.9375 11.777344 56.894531 C 10.585938 57.734375 10.3125 58.164062 10.3125 58.945312 C 10.3125 60 11.210938 60.78125 12.480469 60.78125 C 13.828125 60.78125 14.6875 60.039062 14.6875 58.886719 Z M 13.671875 54.628906 C 13.671875 55.332031 13.398438 55.800781 12.617188 56.25 C 11.640625 55.664062 11.210938 55.136719 11.210938 54.453125 C 11.210938 53.75 11.699219 53.339844 12.460938 53.339844 C 13.222656 53.339844 13.671875 53.847656 13.671875 54.628906 Z M 12.734375 57.558594 C 13.496094 58.085938 13.847656 58.535156 13.847656 59.238281 C 13.847656 59.960938 13.339844 60.46875 12.597656 60.46875 C 11.738281 60.46875 11.171875 59.882812 11.171875 58.847656 C 11.171875 58.125 11.40625 57.65625 12.070312 57.109375 Z M 12.734375 57.558594 "/>
<path style="fill-rule:nonzero;fill:rgb(69.803922%,85.098039%,100%);fill-opacity:1;stroke-width:1;stroke-linecap:round;stroke-linejoin:round;stroke:rgb(0%,0%,0%);stroke-opacity:1;stroke-miterlimit:10;" d="M 90 207 L 108 207 L 108 225 L 90 225 Z M 90 207 " transform="matrix(1.25,0,0,1.25,-66.25,-235)"/>
<path style=" stroke:none;fill-rule:nonzero;fill:rgb(0%,0%,0%);fill-opacity:1;" d="M 59.707031 30.429688 C 58.144531 30.605469 57.265625 30.859375 56.289062 31.875 C 55.488281 32.695312 55.078125 33.769531 55.078125 34.980469 C 55.078125 35.78125 55.292969 36.582031 55.605469 37.148438 C 55.996094 37.871094 56.699219 38.28125 57.597656 38.28125 C 58.339844 38.28125 58.964844 37.988281 59.375 37.460938 C 59.746094 37.011719 59.960938 36.386719 59.960938 35.664062 C 59.960938 34.21875 59.140625 33.300781 57.832031 33.300781 C 57.324219 33.300781 56.953125 33.398438 56.40625 33.808594 C 56.699219 32.109375 57.96875 30.898438 59.726562 30.605469 Z M 58.945312 36.015625 C 58.945312 37.148438 58.515625 37.96875 57.714844 37.96875 C 56.660156 37.96875 56.113281 36.835938 56.113281 35.136719 C 56.113281 34.101562 56.777344 33.828125 57.421875 33.828125 C 58.476562 33.828125 58.945312 34.570312 58.945312 36.015625 Z M 58.945312 36.015625 "/>
<path style="fill-rule:nonzero;fill:rgb(40%,74.901961%,100%);fill-opacity:1;stroke-width:1;stroke-linecap:round;stroke-linejoin:round;stroke:rgb(0%,0%,0%);stroke-opacity:1;stroke-miterlimit:10;" d="M 54 207 L 72 207 L 72 225 L 54 225 Z M 54 207 " transform="matrix(1.25,0,0,1.25,-66.25,-235)"/>
<path style=" stroke:none;fill-rule:nonzero;fill:rgb(0%,0%,0%);fill-opacity:1;" d="M 15 36.25 L 15 35.527344 L 13.847656 35.527344 L 13.847656 30.527344 L 13.359375 30.527344 L 9.824219 35.527344 L 9.824219 36.25 L 12.96875 36.25 L 12.96875 38.125 L 13.847656 38.125 L 13.847656 36.25 Z M 12.96875 35.527344 L 10.273438 35.527344 L 12.96875 31.660156 Z M 12.96875 35.527344 "/>
<path style="fill-rule:nonzero;fill:rgb(40%,74.901961%,100%);fill-opacity:1;stroke-width:1;stroke-linecap:round;stroke-linejoin:round;stroke:rgb(0%,0%,0%);stroke-opacity:1;stroke-miterlimit:10;" d="M 90 225 L 108 225 L 108 243 L 90 243 Z M 90 225 " transform="matrix(1.25,0,0,1.25,-66.25,-235)"/>
<path style=" stroke:none;fill-rule:nonzero;fill:rgb(0%,0%,0%);fill-opacity:1;" d="M 56.308594 60.625 L 56.308594 60.449219 C 55.46875 60.449219 55.234375 60.253906 55.234375 59.765625 L 55.234375 53.046875 L 55.136719 53.027344 L 53.125 54.042969 L 53.125 54.199219 L 53.417969 54.082031 C 53.632812 54.003906 53.828125 53.945312 53.925781 53.945312 C 54.179688 53.945312 54.277344 54.121094 54.277344 54.511719 L 54.277344 59.550781 C 54.277344 60.175781 54.042969 60.410156 53.203125 60.449219 L 53.203125 60.625 Z M 56.308594 60.625 "/>
<path style=" stroke:none;fill-rule:nonzero;fill:rgb(0%,0%,0%);fill-opacity:1;" d="M 62.851562 56.914062 C 62.851562 54.609375 61.835938 53.027344 60.351562 53.027344 C 58.554688 53.027344 57.773438 54.863281 57.773438 56.835938 C 57.773438 58.691406 58.398438 60.78125 60.3125 60.78125 C 62.148438 60.78125 62.851562 58.847656 62.851562 56.914062 Z M 61.777344 56.972656 C 61.777344 59.199219 61.269531 60.488281 60.3125 60.488281 C 59.335938 60.488281 58.847656 59.199219 58.847656 56.914062 C 58.847656 54.648438 59.355469 53.320312 60.292969 53.320312 C 61.289062 53.320312 61.777344 54.628906 61.777344 56.972656 Z M 61.777344 56.972656 "/>
<path style="fill-rule:nonzero;fill:rgb(69.803922%,85.098039%,100%);fill-opacity:1;stroke-width:1;stroke-linecap:round;stroke-linejoin:round;stroke:rgb(0%,0%,0%);stroke-opacity:1;stroke-miterlimit:10;" d="M 90 189 L 108 189 L 108 207 L 90 207 Z M 90 189 " transform="matrix(1.25,0,0,1.25,-66.25,-235)"/>
<path style=" stroke:none;fill-rule:nonzero;fill:rgb(0%,0%,0%);fill-opacity:1;" d="M 60.019531 14.082031 L 59.863281 14.023438 C 59.492188 14.648438 59.257812 14.765625 58.789062 14.765625 L 56.152344 14.765625 L 58.007812 12.792969 C 59.003906 11.738281 59.453125 10.898438 59.453125 10 C 59.453125 8.886719 58.632812 8.027344 57.363281 8.027344 C 55.976562 8.027344 55.253906 8.945312 55.019531 10.253906 L 55.253906 10.3125 C 55.703125 9.21875 56.113281 8.847656 56.914062 8.847656 C 57.871094 8.847656 58.476562 9.414062 58.476562 10.429688 C 58.476562 11.386719 58.066406 12.246094 57.011719 13.359375 L 55.019531 15.488281 L 55.019531 15.625 L 59.414062 15.625 Z M 60.019531 14.082031 "/>
<path style="fill-rule:nonzero;fill:rgb(40%,74.901961%,100%);fill-opacity:1;stroke-width:1;stroke-linecap:round;stroke-linejoin:round;stroke:rgb(0%,0%,0%);stroke-opacity:1;stroke-miterlimit:10;" d="M 54 189 L 72 189 L 72 207 L 54 207 Z M 54 189 " transform="matrix(1.25,0,0,1.25,-66.25,-235)"/>
<path style=" stroke:none;fill-rule:nonzero;fill:rgb(0%,0%,0%);fill-opacity:1;" d="M 15.039062 11.914062 C 15.039062 9.609375 14.023438 8.027344 12.539062 8.027344 C 10.742188 8.027344 9.960938 9.863281 9.960938 11.835938 C 9.960938 13.691406 10.585938 15.78125 12.5 15.78125 C 14.335938 15.78125 15.039062 13.847656 15.039062 11.914062 Z M 13.964844 11.972656 C 13.964844 14.199219 13.457031 15.488281 12.5 15.488281 C 11.523438 15.488281 11.035156 14.199219 11.035156 11.914062 C 11.035156 9.648438 11.542969 8.320312 12.480469 8.320312 C 13.476562 8.320312 13.964844 9.628906 13.964844 11.972656 Z M 13.964844 11.972656 "/>
<path style="fill:none;stroke-width:2;stroke-linecap:round;stroke-linejoin:round;stroke:rgb(0%,0%,0%);stroke-opacity:1;stroke-miterlimit:10;" d="M 54 189 L 108 189 L 108 243 L 54 243 Z M 54 189 " transform="matrix(1.25,0,0,1.25,-66.25,-235)"/>
<path style="fill-rule:nonzero;fill:rgb(40%,74.901961%,100%);fill-opacity:1;stroke-width:1;stroke-linecap:round;stroke-linejoin:round;stroke:rgb(0%,0%,0%);stroke-opacity:1;stroke-miterlimit:10;" d="M 261 225 L 279 225 L 279 243 L 261 243 Z M 261 225 " transform="matrix(1.25,0,0,1.25,-66.25,-235)"/>
<path style=" stroke:none;fill-rule:nonzero;fill:rgb(0%,0%,0%);fill-opacity:1;" d="M 270.058594 60.625 L 270.058594 60.449219 C 269.21875 60.449219 268.984375 60.253906 268.984375 59.765625 L 268.984375 53.046875 L 268.886719 53.027344 L 266.875 54.042969 L 266.875 54.199219 L 267.167969 54.082031 C 267.382812 54.003906 267.578125 53.945312 267.675781 53.945312 C 267.929688 53.945312 268.027344 54.121094 268.027344 54.511719 L 268.027344 59.550781 C 268.027344 60.175781 267.792969 60.410156 266.953125 60.449219 L 266.953125 60.625 Z M 270.058594 60.625 "/>
<path style=" stroke:none;fill-rule:nonzero;fill:rgb(0%,0%,0%);fill-opacity:1;" d="M 276.601562 56.914062 C 276.601562 54.609375 275.585938 53.027344 274.101562 53.027344 C 272.304688 53.027344 271.523438 54.863281 271.523438 56.835938 C 271.523438 58.691406 272.148438 60.78125 274.0625 60.78125 C 275.898438 60.78125 276.601562 58.847656 276.601562 56.914062 Z M 275.527344 56.972656 C 275.527344 59.199219 275.019531 60.488281 274.0625 60.488281 C 273.085938 60.488281 272.597656 59.199219 272.597656 56.914062 C 272.597656 54.648438 273.105469 53.320312 274.042969 53.320312 C 275.039062 53.320312 275.527344 54.628906 275.527344 56.972656 Z M 275.527344 56.972656 "/>
<path style="fill-rule:nonzero;fill:rgb(69.803922%,85.098039%,100%);fill-opacity:1;stroke-width:1;stroke-linecap:round;stroke-linejoin:round;stroke:rgb(0%,0%,0%);stroke-opacity:1;stroke-miterlimit:10;" d="M 243 225 L 261 225 L 261 243 L 243 243 Z M 243 225 " transform="matrix(1.25,0,0,1.25,-66.25,-235)"/>
<path style=" stroke:none;fill-rule:nonzero;fill:rgb(0%,0%,0%);fill-opacity:1;" d="M 246.601562 60.878906 C 248.066406 60.664062 248.789062 60.390625 249.746094 59.53125 C 250.644531 58.710938 251.09375 57.480469 251.09375 56.191406 C 251.09375 55.253906 250.839844 54.433594 250.390625 53.867188 C 249.941406 53.339844 249.335938 53.027344 248.613281 53.027344 C 247.285156 53.027344 246.269531 54.160156 246.269531 55.683594 C 246.269531 57.050781 247.089844 57.949219 248.300781 57.949219 C 248.964844 57.949219 249.511719 57.792969 249.980469 57.324219 C 249.53125 59.160156 248.28125 60.351562 246.5625 60.644531 Z M 250.019531 56.640625 C 250.019531 57.226562 249.179688 57.480469 248.691406 57.480469 C 247.851562 57.480469 247.304688 56.640625 247.304688 55.292969 C 247.304688 54.6875 247.480469 54.023438 247.695312 53.710938 C 247.890625 53.476562 248.183594 53.339844 248.515625 53.339844 C 249.511719 53.339844 250.019531 54.296875 250.019531 56.191406 Z M 250.019531 56.640625 "/>
<path style="fill-rule:nonzero;fill:rgb(69.803922%,85.098039%,100%);fill-opacity:1;stroke-width:1;stroke-linecap:round;stroke-linejoin:round;stroke:rgb(0%,0%,0%);stroke-opacity:1;stroke-miterlimit:10;" d="M 261 207 L 279 207 L 279 225 L 261 225 Z M 261 207 " transform="matrix(1.25,0,0,1.25,-66.25,-235)"/>
<path style=" stroke:none;fill-rule:nonzero;fill:rgb(0%,0%,0%);fill-opacity:1;" d="M 273.457031 30.429688 C 271.894531 30.605469 271.015625 30.859375 270.039062 31.875 C 269.238281 32.695312 268.828125 33.769531 268.828125 34.980469 C 268.828125 35.78125 269.042969 36.582031 269.355469 37.148438 C 269.746094 37.871094 270.449219 38.28125 271.347656 38.28125 C 272.089844 38.28125 272.714844 37.988281 273.125 37.460938 C 273.496094 37.011719 273.710938 36.386719 273.710938 35.664062 C 273.710938 34.21875 272.890625 33.300781 271.582031 33.300781 C 271.074219 33.300781 270.703125 33.398438 270.15625 33.808594 C 270.449219 32.109375 271.71875 30.898438 273.476562 30.605469 Z M 272.695312 36.015625 C 272.695312 37.148438 272.265625 37.96875 271.464844 37.96875 C 270.410156 37.96875 269.863281 36.835938 269.863281 35.136719 C 269.863281 34.101562 270.527344 33.828125 271.171875 33.828125 C 272.226562 33.828125 272.695312 34.570312 272.695312 36.015625 Z M 272.695312 36.015625 "/>
<path style="fill-rule:nonzero;fill:rgb(40%,74.901961%,100%);fill-opacity:1;stroke-width:1;stroke-linecap:round;stroke-linejoin:round;stroke:rgb(0%,0%,0%);stroke-opacity:1;stroke-miterlimit:10;" d="M 243 207 L 261 207 L 261 225 L 243 225 Z M 243 207 " transform="matrix(1.25,0,0,1.25,-66.25,-235)"/>
<path style=" stroke:none;fill-rule:nonzero;fill:rgb(0%,0%,0%);fill-opacity:1;" d="M 250.859375 30.46875 L 250.761719 30.390625 C 250.585938 30.625 250.488281 30.683594 250.214844 30.683594 L 247.890625 30.683594 L 246.660156 33.339844 C 246.660156 33.339844 246.660156 33.378906 246.660156 33.398438 C 246.660156 33.476562 246.699219 33.496094 246.796875 33.496094 C 247.871094 33.496094 248.652344 33.847656 249.179688 34.277344 C 249.6875 34.6875 249.941406 35.253906 249.941406 35.957031 C 249.941406 36.933594 249.21875 37.871094 248.417969 37.871094 C 248.203125 37.871094 247.949219 37.773438 247.617188 37.5 C 247.265625 37.207031 247.050781 37.148438 246.796875 37.148438 C 246.484375 37.148438 246.289062 37.304688 246.289062 37.578125 C 246.289062 38.007812 246.875 38.28125 247.714844 38.28125 C 248.476562 38.28125 249.101562 38.105469 249.628906 37.734375 C 250.390625 37.167969 250.722656 36.464844 250.722656 35.390625 C 250.722656 34.804688 250.625 34.375 250.332031 33.964844 C 249.6875 33.066406 249.140625 32.832031 247.519531 32.519531 L 247.96875 31.5625 L 250.15625 31.5625 C 250.332031 31.5625 250.429688 31.503906 250.46875 31.425781 Z M 250.859375 30.46875 "/>
<path style="fill:none;stroke-width:2;stroke-linecap:round;stroke-linejoin:round;stroke:rgb(0%,0%,0%);stroke-opacity:1;stroke-miterlimit:10;" d="M 243 207 L 279 207 L 279 243 L 243 243 Z M 243 207 " transform="matrix(1.25,0,0,1.25,-66.25,-235)"/>
<path style="fill-rule:nonzero;fill:rgb(100%,100%,100%);fill-opacity:1;stroke-width:1;stroke-linecap:round;stroke-linejoin:round;stroke:rgb(0%,0%,0%);stroke-opacity:1;stroke-miterlimit:10;" d="M 153 211.809375 L 216 211.809375 L 216 238.809375 L 153 238.809375 Z M 153 211.809375 " transform="matrix(1.25,0,0,1.25,-66.25,-235)"/>
<path style=" stroke:none;fill-rule:nonzero;fill:rgb(0%,0%,0%);fill-opacity:1;" d="M 138.773438 40.714844 L 138.617188 40.65625 C 138.246094 41.28125 138.011719 41.398438 137.542969 41.398438 L 134.90625 41.398438 L 136.761719 39.425781 C 137.757812 38.371094 138.207031 37.53125 138.207031 36.632812 C 138.207031 35.519531 137.386719 34.660156 136.117188 34.660156 C 134.730469 34.660156 134.007812 35.578125 133.773438 36.886719 L 134.007812 36.945312 C 134.457031 35.851562 134.867188 35.480469 135.667969 35.480469 C 136.625 35.480469 137.230469 36.046875 137.230469 37.0625 C 137.230469 38.019531 136.820312 38.878906 135.765625 39.992188 L 133.773438 42.121094 L 133.773438 42.257812 L 138.167969 42.257812 Z M 138.773438 40.714844 "/>
<g clip-path="url(#clip1)" clip-rule="nonzero">
<path style=" stroke:none;fill-rule:nonzero;fill:rgb(0%,0%,0%);fill-opacity:1;" d="M 145.765625 39.117188 L 147.992188 36.890625 C 148.109375 36.753906 148.148438 36.734375 148.148438 36.65625 C 148.148438 36.519531 148.03125 36.421875 147.914062 36.421875 C 147.835938 36.421875 147.777344 36.460938 147.679688 36.578125 L 145.433594 38.804688 L 143.1875 36.578125 C 143.070312 36.441406 143.03125 36.421875 142.953125 36.421875 C 142.835938 36.421875 142.71875 36.519531 142.71875 36.65625 C 142.71875 36.734375 142.777344 36.792969 142.875 36.890625 L 145.101562 39.117188 L 142.875 41.363281 C 142.757812 41.460938 142.71875 41.539062 142.71875 41.597656 C 142.71875 41.734375 142.835938 41.832031 142.953125 41.832031 C 143.03125 41.832031 143.070312 41.8125 143.1875 41.675781 L 145.433594 39.449219 L 147.679688 41.675781 C 147.777344 41.792969 147.855469 41.832031 147.914062 41.832031 C 148.050781 41.832031 148.148438 41.734375 148.148438 41.597656 C 148.148438 41.519531 148.109375 41.5 147.992188 41.363281 Z M 145.765625 39.117188 "/>
<path style=" stroke:none;fill-rule:nonzero;fill:rgb(0%,0%,0%);fill-opacity:1;" d="M 145.765625 39.117188 L 147.992188 36.890625 C 148.109375 36.753906 148.148438 36.734375 148.148438 36.65625 C 148.148438 36.519531 148.03125 36.421875 147.914062 36.421875 C 147.835938 36.421875 147.777344 36.460938 147.679688 36.578125 L 145.433594 38.804688 L 143.1875 36.578125 C 143.070312 36.441406 143.03125 36.421875 142.953125 36.421875 C 142.835938 36.421875 142.71875 36.519531 142.71875 36.65625 C 142.71875 36.734375 142.777344 36.792969 142.875 36.890625 L 145.101562 39.117188 L 142.875 41.363281 C 142.757812 41.460938 142.71875 41.539062 142.71875 41.597656 C 142.71875 41.734375 142.835938 41.832031 142.953125 41.832031 C 143.03125 41.832031 143.070312 41.8125 143.1875 41.675781 L 145.433594 39.449219 L 147.679688 41.675781 C 147.777344 41.792969 147.855469 41.832031 147.914062 41.832031 C 148.050781 41.832031 148.148438 41.734375 148.148438 41.597656 C 148.148438 41.519531 148.109375 41.5 147.992188 41.363281 Z M 145.765625 39.117188 "/>
</g>
<path style=" stroke:none;fill-rule:nonzero;fill:rgb(0%,0%,0%);fill-opacity:1;" d="M 157.519531 40.714844 L 157.363281 40.65625 C 156.992188 41.28125 156.757812 41.398438 156.289062 41.398438 L 153.652344 41.398438 L 155.507812 39.425781 C 156.503906 38.371094 156.953125 37.53125 156.953125 36.632812 C 156.953125 35.519531 156.132812 34.660156 154.863281 34.660156 C 153.476562 34.660156 152.753906 35.578125 152.519531 36.886719 L 152.753906 36.945312 C 153.203125 35.851562 153.613281 35.480469 154.414062 35.480469 C 155.371094 35.480469 155.976562 36.046875 155.976562 37.0625 C 155.976562 38.019531 155.566406 38.878906 154.511719 39.992188 L 152.519531 42.121094 L 152.519531 42.257812 L 156.914062 42.257812 Z M 157.519531 40.714844 "/>
<path style=" stroke:none;fill-rule:nonzero;fill:rgb(0%,0%,0%);fill-opacity:1;" d="M 162.085938 38.15625 L 162.085938 38.9375 L 172.28125 38.9375 L 172.28125 38.15625 L 169.234375 38.15625 C 169.9375 36.90625 170.621094 35.34375 171.265625 33.410156 L 170.464844 33.117188 C 169.898438 34.953125 169.214844 36.613281 168.375 38.15625 Z M 163.570312 33.78125 L 162.808594 34.132812 C 163.375 35.109375 163.882812 36.222656 164.390625 37.453125 L 165.152344 37.0625 C 164.644531 35.871094 164.117188 34.777344 163.570312 33.78125 Z M 166.285156 33.117188 L 165.523438 33.488281 C 166.089844 34.523438 166.597656 35.695312 167.085938 36.984375 L 167.828125 36.613281 C 167.359375 35.34375 166.851562 34.171875 166.285156 33.117188 Z M 165.171875 39.5625 C 164.429688 40.8125 163.53125 41.90625 162.476562 42.804688 L 163.140625 43.273438 C 164.195312 42.316406 165.132812 41.203125 165.894531 39.914062 Z M 169.253906 39.503906 L 168.570312 39.933594 C 169.664062 41.164062 170.503906 42.257812 171.148438 43.253906 L 171.871094 42.746094 C 171.265625 41.828125 170.386719 40.753906 169.253906 39.503906 Z M 169.253906 39.503906 "/>
<path style=" stroke:none;fill-rule:nonzero;fill:rgb(0%,0%,0%);fill-opacity:1;" d="M 180.796875 39.386719 L 180.269531 39.621094 L 180.269531 34.210938 L 180.777344 34.210938 L 180.777344 33.488281 L 177.046875 33.488281 L 177.046875 34.210938 L 177.652344 34.210938 L 177.652344 40.5 C 177.378906 40.558594 177.105469 40.617188 176.832031 40.675781 L 176.988281 41.359375 C 177.867188 41.144531 178.726562 40.890625 179.546875 40.597656 L 179.546875 42.121094 L 180.269531 42.121094 L 180.269531 40.324219 C 180.445312 40.246094 180.621094 40.1875 180.796875 40.109375 Z M 179.546875 39.914062 C 179.15625 40.050781 178.765625 40.167969 178.375 40.304688 L 178.375 38.488281 L 179.546875 38.488281 Z M 178.375 37.824219 L 178.375 36.398438 L 179.546875 36.398438 L 179.546875 37.824219 Z M 178.375 35.734375 L 178.375 34.210938 L 179.546875 34.210938 L 179.546875 35.734375 Z M 173.667969 34.582031 L 173.667969 35.324219 L 174.996094 35.324219 L 174.996094 36.964844 L 173.511719 36.964844 L 173.511719 37.707031 L 175.308594 37.707031 L 175.308594 41.515625 C 174.996094 41.222656 174.722656 40.851562 174.46875 40.382812 C 174.527344 39.777344 174.566406 39.171875 174.605469 38.507812 L 173.921875 38.429688 C 173.882812 40.089844 173.628906 41.59375 173.199219 42.941406 L 173.785156 43.449219 C 174 42.804688 174.195312 42.082031 174.332031 41.320312 C 174.78125 42.023438 175.308594 42.511719 175.894531 42.785156 C 176.578125 43.097656 178.296875 43.253906 181.011719 43.253906 L 183.355469 43.253906 L 183.492188 42.472656 C 182.90625 42.492188 182.027344 42.511719 180.835938 42.511719 C 178.492188 42.511719 177.007812 42.394531 176.34375 42.179688 C 176.265625 42.140625 176.167969 42.101562 176.050781 42.0625 L 176.050781 39.972656 L 177.183594 39.972656 L 177.183594 39.269531 L 176.050781 39.269531 L 176.050781 37.707031 L 177.222656 37.707031 L 177.222656 36.964844 L 175.757812 36.964844 L 175.757812 35.324219 L 177.007812 35.324219 L 177.007812 34.582031 L 175.757812 34.582031 L 175.757812 33.058594 L 174.996094 33.058594 L 174.996094 34.582031 Z M 180.71875 34.308594 L 180.71875 35.011719 L 182.652344 35.011719 C 182.59375 36.046875 182.417969 37.003906 182.183594 37.882812 C 181.890625 37.199219 181.578125 36.554688 181.226562 35.910156 L 180.601562 36.125 C 181.03125 36.964844 181.441406 37.863281 181.851562 38.820312 C 181.480469 39.777344 180.972656 40.597656 180.308594 41.300781 L 180.777344 41.847656 C 181.34375 41.242188 181.832031 40.539062 182.222656 39.757812 C 182.476562 40.382812 182.710938 41.066406 182.945312 41.769531 L 183.550781 41.476562 C 183.257812 40.597656 182.945312 39.738281 182.613281 38.878906 C 183.042969 37.707031 183.296875 36.378906 183.355469 34.855469 L 183.355469 34.308594 Z M 180.71875 34.308594 "/>
<path style=" stroke:none;fill-rule:nonzero;fill:rgb(0%,0%,0%);fill-opacity:1;" d="M 187.769531 35.34375 L 187.183594 35.910156 C 188.257812 36.730469 189.234375 37.53125 190.113281 38.3125 C 189.195312 39.308594 188.101562 40.070312 186.851562 40.597656 L 187.320312 41.320312 C 188.609375 40.753906 189.742188 39.953125 190.738281 38.898438 C 191.617188 39.699219 192.378906 40.5 193.042969 41.28125 L 193.667969 40.65625 C 192.964844 39.875 192.164062 39.074219 191.285156 38.273438 C 191.949219 37.414062 192.535156 36.398438 193.042969 35.265625 L 192.320312 34.875 C 191.851562 35.929688 191.285156 36.886719 190.660156 37.707031 C 189.761719 36.90625 188.785156 36.125 187.769531 35.34375 Z M 185.386719 33.527344 L 185.386719 42.902344 L 194.644531 42.902344 L 194.644531 42.140625 L 186.167969 42.140625 L 186.167969 34.308594 L 194.3125 34.308594 L 194.3125 33.527344 Z M 185.386719 33.527344 "/>
<path style=" stroke:none;fill-rule:nonzero;fill:rgb(0%,0%,0%);fill-opacity:1;" d="M 145.46875 52.101562 L 145.46875 52.863281 L 149.472656 52.863281 C 149.511719 54.601562 149.589844 56.027344 149.746094 57.160156 C 149.785156 57.511719 149.824219 57.84375 149.902344 58.15625 C 149.316406 59.054688 148.59375 59.738281 147.753906 60.226562 L 148.261719 60.851562 C 148.945312 60.441406 149.589844 59.855469 150.136719 59.132812 C 150.214844 59.425781 150.332031 59.699219 150.449219 59.933594 C 150.742188 60.519531 151.074219 60.8125 151.445312 60.8125 C 151.933594 60.8125 152.34375 60.148438 152.714844 58.78125 L 152.109375 58.292969 C 151.875 59.40625 151.660156 59.972656 151.445312 59.992188 C 151.152344 59.953125 150.898438 59.40625 150.664062 58.332031 C 151.328125 57.199219 151.855469 55.792969 152.226562 54.09375 L 151.523438 53.800781 C 151.289062 55.070312 150.9375 56.164062 150.488281 57.101562 C 150.371094 56.007812 150.292969 54.601562 150.253906 52.863281 L 152.617188 52.863281 L 152.617188 52.101562 L 152.070312 52.101562 C 151.914062 51.613281 151.777344 51.183594 151.621094 50.8125 L 150.898438 50.929688 C 151.074219 51.28125 151.230469 51.671875 151.386719 52.101562 L 150.253906 52.101562 C 150.234375 51.613281 150.234375 51.105469 150.234375 50.578125 L 149.453125 50.578125 C 149.453125 51.085938 149.453125 51.59375 149.453125 52.101562 Z M 145.917969 53.976562 L 145.917969 57.140625 L 148.789062 57.140625 L 148.789062 53.976562 Z M 148.066406 56.476562 L 146.640625 56.476562 L 146.640625 54.640625 L 148.066406 54.640625 Z M 148.886719 57.84375 C 147.675781 58.3125 146.425781 58.664062 145.117188 58.878906 L 145.3125 59.660156 C 146.582031 59.367188 147.773438 58.996094 148.886719 58.585938 Z M 142.5 53.566406 L 142.5 54.347656 L 143.59375 54.347656 L 143.59375 58.039062 C 143.203125 58.175781 142.792969 58.292969 142.382812 58.390625 L 142.597656 59.210938 C 143.613281 58.898438 144.570312 58.507812 145.449219 58.039062 L 145.449219 57.21875 C 145.117188 57.414062 144.746094 57.589844 144.394531 57.746094 L 144.394531 54.347656 L 145.46875 54.347656 L 145.46875 53.566406 L 144.394531 53.566406 L 144.394531 50.597656 L 143.59375 50.597656 L 143.59375 53.566406 Z M 142.5 53.566406 "/>
<path style=" stroke:none;fill-rule:nonzero;fill:rgb(0%,0%,0%);fill-opacity:1;" d="M 162.109375 60.617188 C 162.714844 60.617188 163.144531 60.480469 163.378906 60.246094 C 163.59375 59.992188 163.75 59.269531 163.828125 58.097656 L 163.066406 57.863281 C 163.027344 58.839844 162.929688 59.425781 162.773438 59.582031 C 162.597656 59.738281 162.324219 59.835938 161.953125 59.835938 L 158.867188 59.835938 C 158.4375 59.835938 158.242188 59.621094 158.242188 59.191406 L 158.242188 54.738281 L 159.882812 54.191406 L 159.882812 58.390625 L 160.664062 58.390625 L 160.664062 53.917969 L 162.382812 53.351562 C 162.363281 54.992188 162.34375 55.949219 162.304688 56.222656 C 162.246094 56.476562 162.109375 56.613281 161.875 56.613281 C 161.699219 56.613281 161.503906 56.613281 161.25 56.613281 L 161.484375 57.375 L 161.738281 57.375 C 162.480469 57.375 162.910156 57.121094 163.007812 56.613281 C 163.105469 56.105469 163.164062 54.640625 163.164062 52.257812 L 160.664062 53.097656 L 160.664062 50.558594 L 159.882812 50.558594 L 159.882812 53.371094 L 158.242188 53.917969 L 158.242188 51.554688 L 157.421875 51.554688 L 157.421875 54.191406 L 156.484375 54.503906 L 156.484375 55.324219 L 157.421875 55.011719 L 157.421875 59.328125 C 157.421875 60.167969 157.832031 60.617188 158.691406 60.617188 Z M 154.453125 50.792969 L 153.886719 51.359375 C 154.707031 51.945312 155.371094 52.511719 155.859375 53.058594 L 156.425781 52.472656 C 155.898438 51.90625 155.234375 51.359375 154.453125 50.792969 Z M 154.257812 53.546875 L 153.691406 54.113281 C 154.472656 54.699219 155.078125 55.246094 155.507812 55.773438 L 156.074219 55.1875 C 155.585938 54.640625 154.980469 54.09375 154.257812 53.546875 Z M 155.46875 56.574219 C 155 57.921875 154.414062 59.210938 153.769531 60.5 L 154.570312 60.851562 C 155.175781 59.621094 155.722656 58.292969 156.191406 56.867188 Z M 155.46875 56.574219 "/>
<path style=" stroke:none;fill-rule:nonzero;fill:rgb(0%,0%,0%);fill-opacity:1;" d="M 168.28125 50.480469 C 167.558594 52.257812 166.40625 53.839844 164.804688 55.207031 L 165.058594 56.046875 C 165.664062 55.558594 166.210938 55.03125 166.71875 54.484375 L 166.71875 60.910156 L 167.519531 60.910156 L 167.519531 53.488281 C 168.125 52.667969 168.632812 51.789062 169.023438 50.832031 Z M 173.457031 60.695312 C 174.003906 60.695312 174.375 60.558594 174.570312 60.304688 C 174.765625 60.03125 174.902344 59.25 174.980469 57.941406 L 174.238281 57.707031 C 174.179688 58.820312 174.101562 59.464844 173.984375 59.640625 C 173.847656 59.816406 173.613281 59.933594 173.320312 59.933594 L 171.503906 59.933594 C 171.132812 59.933594 170.9375 59.738281 170.9375 59.40625 L 170.9375 55.597656 C 172.34375 54.71875 173.574219 53.722656 174.609375 52.589844 L 174.042969 51.945312 C 173.164062 52.960938 172.128906 53.859375 170.9375 54.640625 L 170.9375 50.617188 L 170.136719 50.617188 L 170.136719 55.128906 C 169.570312 55.480469 168.945312 55.773438 168.320312 56.066406 L 168.691406 56.828125 C 169.179688 56.59375 169.667969 56.339844 170.136719 56.085938 L 170.136719 59.503906 C 170.136719 60.304688 170.527344 60.695312 171.308594 60.695312 Z M 173.457031 60.695312 "/>
<path style=" stroke:none;fill-rule:nonzero;fill:rgb(0%,0%,0%);fill-opacity:1;" d="M 179.277344 54.875 L 179.277344 55.597656 L 185.371094 55.597656 L 185.371094 54.875 Z M 178.476562 56.710938 L 178.476562 57.453125 L 180.9375 57.453125 C 180.15625 58.722656 179.492188 59.503906 179.003906 59.796875 C 178.945312 59.816406 178.90625 59.855469 178.828125 59.875 L 179.003906 60.558594 C 181.132812 60.421875 183.085938 60.226562 184.863281 59.992188 C 185.097656 60.265625 185.292969 60.558594 185.488281 60.851562 L 186.132812 60.402344 C 185.644531 59.679688 184.921875 58.820312 184.003906 57.84375 L 183.398438 58.214844 C 183.730469 58.605469 184.0625 58.976562 184.375 59.347656 C 182.929688 59.5625 181.464844 59.71875 179.980469 59.816406 C 180.507812 59.347656 181.113281 58.546875 181.796875 57.453125 L 186.113281 57.453125 L 186.113281 56.710938 Z M 184.746094 51.769531 L 184.746094 53.078125 L 178.125 53.078125 L 178.125 51.769531 Z M 178.125 53.800781 L 185.527344 53.800781 L 185.527344 51.007812 L 177.34375 51.007812 L 177.34375 54.738281 C 177.324219 57.003906 176.933594 58.839844 176.152344 60.265625 L 176.738281 60.8125 C 177.65625 59.113281 178.125 57.082031 178.125 54.738281 Z M 178.125 53.800781 "/>
</g>
</svg>
