<?xml version="1.0" encoding="UTF-8"?>
<svg xmlns="http://www.w3.org/2000/svg" xmlns:xlink="http://www.w3.org/1999/xlink" width="189.333333" height="116" viewBox="0 0 189.333333 116" version="1.1">
<g id="surface1">
<path style="fill:none;stroke-width:1;stroke-linecap:round;stroke-linejoin:round;stroke:rgb(0%,0%,0%);stroke-opacity:1;stroke-miterlimit:10;" d="M 131.444336 149.799805 L 151.999023 149.799805 L 151.999023 165.898438 L 131.444336 165.898438 Z M 131.444336 149.799805 " transform="matrix(1.333333,0,0,1.333333,-121.333333,-106.666667)"/>
<path style=" stroke:none;fill-rule:nonzero;fill:rgb(0%,0%,0%);fill-opacity:1;" d="M 59.789062 103.375 C 59.789062 102.363281 59.894531 101.542969 60.101562 100.917969 C 60.308594 100.292969 60.613281 99.8125 61.019531 99.480469 C 61.433594 99.144531 61.957031 98.980469 62.582031 98.980469 C 63.050781 98.980469 63.460938 99.078125 63.808594 99.269531 C 64.152344 99.453125 64.441406 99.71875 64.664062 100.0625 C 64.882812 100.410156 65.058594 100.832031 65.183594 101.332031 C 65.320312 101.832031 65.394531 102.515625 65.394531 103.375 C 65.394531 104.375 65.289062 105.1875 65.082031 105.8125 C 64.871094 106.425781 64.558594 106.90625 64.144531 107.25 C 63.738281 107.582031 63.214844 107.75 62.582031 107.75 C 61.757812 107.75 61.113281 107.453125 60.644531 106.855469 C 60.070312 106.144531 59.789062 104.988281 59.789062 103.375 Z M 60.871094 103.375 C 60.871094 104.78125 61.027344 105.71875 61.351562 106.1875 C 61.683594 106.644531 62.089844 106.875 62.582031 106.875 C 63.066406 106.875 63.476562 106.644531 63.808594 106.1875 C 64.144531 105.71875 64.308594 104.78125 64.308594 103.375 C 64.308594 101.957031 64.144531 101.019531 63.808594 100.5625 C 63.476562 100.09375 63.066406 99.855469 62.582031 99.855469 C 62.089844 99.855469 61.707031 100.058594 61.414062 100.457031 C 61.050781 100.988281 60.871094 101.957031 60.871094 103.375 Z M 60.871094 103.375 "/>
<path style=" stroke:none;fill-rule:nonzero;fill:rgb(0%,0%,0%);fill-opacity:1;" d="M 67.046875 107.605469 L 67.046875 106.394531 L 68.253906 106.394531 L 68.253906 107.605469 Z M 67.046875 107.605469 "/>
<path style=" stroke:none;fill-rule:nonzero;fill:rgb(0%,0%,0%);fill-opacity:1;" d="M 73.78125 107.605469 L 72.71875 107.605469 L 72.71875 100.875 C 72.46875 101.125 72.136719 101.375 71.71875 101.625 C 71.300781 101.863281 70.933594 102.035156 70.613281 102.144531 L 70.613281 101.125 C 71.199219 100.863281 71.707031 100.535156 72.15625 100.144531 C 72.597656 99.746094 72.910156 99.355469 73.09375 98.980469 L 73.78125 98.980469 Z M 73.78125 107.605469 "/>
<path style="fill:none;stroke-width:1;stroke-linecap:round;stroke-linejoin:round;stroke:rgb(0%,0%,0%);stroke-opacity:1;stroke-miterlimit:10;" d="M 131.444336 133.698242 L 151.999023 133.698242 L 151.999023 149.799805 L 131.444336 149.799805 Z M 131.444336 133.698242 " transform="matrix(1.333333,0,0,1.333333,-121.333333,-106.666667)"/>
<path style=" stroke:none;fill-rule:nonzero;fill:rgb(0%,0%,0%);fill-opacity:1;" d="M 59.789062 81.90625 C 59.789062 80.898438 59.894531 80.074219 60.101562 79.449219 C 60.308594 78.824219 60.613281 78.34375 61.019531 78.011719 C 61.433594 77.679688 61.957031 77.511719 62.582031 77.511719 C 63.050781 77.511719 63.460938 77.609375 63.808594 77.804688 C 64.152344 77.984375 64.441406 78.25 64.664062 78.59375 C 64.882812 78.945312 65.058594 79.367188 65.183594 79.867188 C 65.320312 80.367188 65.394531 81.046875 65.394531 81.90625 C 65.394531 82.90625 65.289062 83.71875 65.082031 84.34375 C 64.871094 84.960938 64.558594 85.4375 64.144531 85.78125 C 63.738281 86.117188 63.214844 86.28125 62.582031 86.28125 C 61.757812 86.28125 61.113281 85.984375 60.644531 85.386719 C 60.070312 84.679688 59.789062 83.523438 59.789062 81.90625 Z M 60.871094 81.90625 C 60.871094 83.3125 61.027344 84.25 61.351562 84.71875 C 61.683594 85.179688 62.089844 85.40625 62.582031 85.40625 C 63.066406 85.40625 63.476562 85.179688 63.808594 84.71875 C 64.144531 84.25 64.308594 83.3125 64.308594 81.90625 C 64.308594 80.492188 64.144531 79.554688 63.808594 79.09375 C 63.476562 78.625 63.066406 78.386719 62.582031 78.386719 C 62.089844 78.386719 61.707031 78.589844 61.414062 78.992188 C 61.050781 79.523438 60.871094 80.492188 60.871094 81.90625 Z M 60.871094 81.90625 "/>
<path style=" stroke:none;fill-rule:nonzero;fill:rgb(0%,0%,0%);fill-opacity:1;" d="M 67.046875 86.136719 L 67.046875 84.929688 L 68.253906 84.929688 L 68.253906 86.136719 Z M 67.046875 86.136719 "/>
<path style=" stroke:none;fill-rule:nonzero;fill:rgb(0%,0%,0%);fill-opacity:1;" d="M 75.34375 85.117188 L 75.34375 86.136719 L 69.65625 86.136719 C 69.65625 85.886719 69.699219 85.648438 69.78125 85.40625 C 69.933594 85.023438 70.167969 84.636719 70.488281 84.261719 C 70.808594 83.886719 71.265625 83.460938 71.863281 82.96875 C 72.792969 82.195312 73.417969 81.585938 73.738281 81.136719 C 74.074219 80.695312 74.238281 80.273438 74.238281 79.867188 C 74.238281 79.449219 74.082031 79.105469 73.78125 78.824219 C 73.488281 78.53125 73.105469 78.386719 72.636719 78.386719 C 72.121094 78.386719 71.707031 78.542969 71.40625 78.84375 C 71.097656 79.152344 70.949219 79.574219 70.949219 80.117188 L 69.863281 79.992188 C 69.933594 79.1875 70.207031 78.574219 70.699219 78.15625 C 71.183594 77.730469 71.832031 77.511719 72.65625 77.511719 C 73.472656 77.511719 74.121094 77.742188 74.59375 78.199219 C 75.078125 78.65625 75.324219 79.21875 75.324219 79.886719 C 75.324219 80.234375 75.25 80.574219 75.113281 80.90625 C 74.972656 81.242188 74.738281 81.59375 74.40625 81.96875 C 74.082031 82.335938 73.550781 82.835938 72.800781 83.46875 C 72.160156 84 71.75 84.359375 71.574219 84.554688 C 71.390625 84.75 71.246094 84.9375 71.136719 85.117188 Z M 75.34375 85.117188 "/>
<path style="fill:none;stroke-width:1;stroke-linecap:round;stroke-linejoin:round;stroke:rgb(0%,0%,0%);stroke-opacity:1;stroke-miterlimit:10;" d="M 131.444336 117.602539 L 151.999023 117.602539 L 151.999023 133.698242 L 131.444336 133.698242 Z M 131.444336 117.602539 " transform="matrix(1.333333,0,0,1.333333,-121.333333,-106.666667)"/>
<path style=" stroke:none;fill-rule:nonzero;fill:rgb(0%,0%,0%);fill-opacity:1;" d="M 59.789062 60.441406 C 59.789062 59.429688 59.894531 58.609375 60.101562 57.984375 C 60.308594 57.359375 60.613281 56.878906 61.019531 56.546875 C 61.433594 56.210938 61.957031 56.046875 62.582031 56.046875 C 63.050781 56.046875 63.460938 56.144531 63.808594 56.335938 C 64.152344 56.519531 64.441406 56.785156 64.664062 57.128906 C 64.882812 57.476562 65.058594 57.898438 65.183594 58.398438 C 65.320312 58.898438 65.394531 59.582031 65.394531 60.441406 C 65.394531 61.441406 65.289062 62.253906 65.082031 62.878906 C 64.871094 63.492188 64.558594 63.972656 64.144531 64.316406 C 63.738281 64.648438 63.214844 64.816406 62.582031 64.816406 C 61.757812 64.816406 61.113281 64.519531 60.644531 63.921875 C 60.070312 63.210938 59.789062 62.054688 59.789062 60.441406 Z M 60.871094 60.441406 C 60.871094 61.847656 61.027344 62.785156 61.351562 63.253906 C 61.683594 63.710938 62.089844 63.941406 62.582031 63.941406 C 63.066406 63.941406 63.476562 63.710938 63.808594 63.253906 C 64.144531 62.785156 64.308594 61.847656 64.308594 60.441406 C 64.308594 59.023438 64.144531 58.085938 63.808594 57.628906 C 63.476562 57.160156 63.066406 56.921875 62.582031 56.921875 C 62.089844 56.921875 61.707031 57.125 61.414062 57.523438 C 61.050781 58.054688 60.871094 59.023438 60.871094 60.441406 Z M 60.871094 60.441406 "/>
<path style=" stroke:none;fill-rule:nonzero;fill:rgb(0%,0%,0%);fill-opacity:1;" d="M 67.046875 64.671875 L 67.046875 63.460938 L 68.253906 63.460938 L 68.253906 64.671875 Z M 67.046875 64.671875 "/>
<path style=" stroke:none;fill-rule:nonzero;fill:rgb(0%,0%,0%);fill-opacity:1;" d="M 75.34375 63.648438 L 75.34375 64.671875 L 69.65625 64.671875 C 69.65625 64.421875 69.699219 64.179688 69.78125 63.941406 C 69.933594 63.554688 70.167969 63.171875 70.488281 62.796875 C 70.808594 62.421875 71.265625 61.992188 71.863281 61.503906 C 72.792969 60.726562 73.417969 60.117188 73.738281 59.671875 C 74.074219 59.226562 74.238281 58.804688 74.238281 58.398438 C 74.238281 57.984375 74.082031 57.640625 73.78125 57.359375 C 73.488281 57.066406 73.105469 56.921875 72.636719 56.921875 C 72.121094 56.921875 71.707031 57.078125 71.40625 57.378906 C 71.097656 57.6875 70.949219 58.109375 70.949219 58.648438 L 69.863281 58.523438 C 69.933594 57.722656 70.207031 57.109375 70.699219 56.691406 C 71.183594 56.265625 71.832031 56.046875 72.65625 56.046875 C 73.472656 56.046875 74.121094 56.273438 74.59375 56.734375 C 75.078125 57.191406 75.324219 57.753906 75.324219 58.421875 C 75.324219 58.769531 75.25 59.109375 75.113281 59.441406 C 74.972656 59.773438 74.738281 60.128906 74.40625 60.503906 C 74.082031 60.867188 73.550781 61.367188 72.800781 62.003906 C 72.160156 62.535156 71.75 62.894531 71.574219 63.085938 C 71.390625 63.285156 71.246094 63.472656 71.136719 63.648438 Z M 75.34375 63.648438 "/>
<path style=" stroke:none;fill-rule:nonzero;fill:rgb(69.803923%,85.09804%,100%);fill-opacity:1;" d="M 53.925781 50.136719 L 81.332031 50.136719 L 81.332031 28.667969 L 53.925781 28.667969 Z M 53.925781 50.136719 "/>
<path style="fill:none;stroke-width:1;stroke-linecap:round;stroke-linejoin:round;stroke:rgb(0%,0%,0%);stroke-opacity:1;stroke-miterlimit:10;" d="M 131.444336 101.500977 L 151.999023 101.500977 L 151.999023 117.602539 L 131.444336 117.602539 Z M 131.444336 101.500977 " transform="matrix(1.333333,0,0,1.333333,-121.333333,-106.666667)"/>
<path style=" stroke:none;fill-rule:nonzero;fill:rgb(0%,0%,0%);fill-opacity:1;" d="M 59.789062 38.972656 C 59.789062 37.964844 59.894531 37.140625 60.101562 36.515625 C 60.308594 35.890625 60.613281 35.410156 61.019531 35.078125 C 61.433594 34.746094 61.957031 34.578125 62.582031 34.578125 C 63.050781 34.578125 63.460938 34.675781 63.808594 34.871094 C 64.152344 35.050781 64.441406 35.316406 64.664062 35.660156 C 64.882812 36.011719 65.058594 36.433594 65.183594 36.933594 C 65.320312 37.433594 65.394531 38.113281 65.394531 38.972656 C 65.394531 39.972656 65.289062 40.785156 65.082031 41.410156 C 64.871094 42.027344 64.558594 42.503906 64.144531 42.847656 C 63.738281 43.183594 63.214844 43.347656 62.582031 43.347656 C 61.757812 43.347656 61.113281 43.050781 60.644531 42.453125 C 60.070312 41.746094 59.789062 40.589844 59.789062 38.972656 Z M 60.871094 38.972656 C 60.871094 40.378906 61.027344 41.316406 61.351562 41.785156 C 61.683594 42.246094 62.089844 42.472656 62.582031 42.472656 C 63.066406 42.472656 63.476562 42.246094 63.808594 41.785156 C 64.144531 41.316406 64.308594 40.378906 64.308594 38.972656 C 64.308594 37.558594 64.144531 36.621094 63.808594 36.160156 C 63.476562 35.691406 63.066406 35.453125 62.582031 35.453125 C 62.089844 35.453125 61.707031 35.65625 61.414062 36.058594 C 61.050781 36.589844 60.871094 37.558594 60.871094 38.972656 Z M 60.871094 38.972656 "/>
<path style=" stroke:none;fill-rule:nonzero;fill:rgb(0%,0%,0%);fill-opacity:1;" d="M 67.046875 43.203125 L 67.046875 41.996094 L 68.253906 41.996094 L 68.253906 43.203125 Z M 67.046875 43.203125 "/>
<path style=" stroke:none;fill-rule:nonzero;fill:rgb(0%,0%,0%);fill-opacity:1;" d="M 69.800781 40.953125 L 70.90625 40.847656 C 70.988281 41.390625 71.175781 41.800781 71.46875 42.078125 C 71.769531 42.34375 72.136719 42.472656 72.550781 42.472656 C 73.0625 42.472656 73.496094 42.285156 73.84375 41.910156 C 74.203125 41.527344 74.386719 41.015625 74.386719 40.390625 C 74.386719 39.78125 74.207031 39.300781 73.863281 38.953125 C 73.53125 38.609375 73.09375 38.433594 72.550781 38.433594 C 72.203125 38.433594 71.890625 38.515625 71.613281 38.683594 C 71.347656 38.839844 71.136719 39.03125 70.96875 39.265625 L 69.988281 39.140625 L 70.824219 34.722656 L 75.09375 34.722656 L 75.09375 35.746094 L 71.65625 35.746094 L 71.199219 38.035156 C 71.707031 37.691406 72.25 37.515625 72.824219 37.515625 C 73.574219 37.515625 74.203125 37.777344 74.71875 38.285156 C 75.230469 38.800781 75.488281 39.46875 75.488281 40.285156 C 75.488281 41.066406 75.265625 41.738281 74.824219 42.308594 C 74.265625 43.003906 73.511719 43.347656 72.550781 43.347656 C 71.769531 43.347656 71.136719 43.136719 70.636719 42.703125 C 70.144531 42.261719 69.871094 41.675781 69.800781 40.953125 Z M 69.800781 40.953125 "/>
<path style=" stroke:none;fill-rule:nonzero;fill:rgb(0%,0%,0%);fill-opacity:1;" d="M 11.816406 12.242188 L 8.359375 12.242188 L 8.359375 21.367188 L 9.210938 21.367188 L 9.210938 20.28125 L 10.984375 20.28125 L 10.984375 21.074219 L 11.816406 21.074219 Z M 9.210938 19.46875 L 9.210938 16.574219 L 10.984375 16.574219 L 10.984375 19.46875 Z M 9.210938 15.78125 L 9.210938 13.03125 L 10.984375 13.03125 L 10.984375 15.78125 Z M 13.546875 15.804688 L 12.835938 16.261719 C 13.566406 17.367188 14.128906 18.367188 14.546875 19.261719 L 15.253906 18.761719 C 14.859375 17.929688 14.296875 16.929688 13.546875 15.804688 Z M 16.273438 22.21875 C 17.023438 22.21875 17.398438 21.824219 17.398438 21.074219 L 17.398438 14.367188 L 18.878906 14.367188 L 18.878906 13.53125 L 17.398438 13.53125 L 17.398438 11.429688 L 16.523438 11.429688 L 16.523438 13.53125 L 12.378906 13.53125 L 12.378906 14.367188 L 16.523438 14.367188 L 16.523438 20.867188 C 16.523438 21.242188 16.335938 21.429688 16.003906 21.429688 C 15.359375 21.429688 14.691406 21.40625 14.003906 21.386719 L 14.191406 22.21875 Z M 16.273438 22.21875 "/>
<path style=" stroke:none;fill-rule:nonzero;fill:rgb(0%,0%,0%);fill-opacity:1;" d="M 23.046875 14.59375 L 23.046875 20.179688 L 27.609375 20.179688 L 27.609375 14.59375 Z M 26.816406 19.40625 L 23.859375 19.40625 L 23.859375 17.761719 L 26.816406 17.761719 Z M 23.859375 16.992188 L 23.859375 15.34375 L 26.816406 15.34375 L 26.816406 16.992188 Z M 28.960938 22.242188 C 29.753906 22.242188 30.171875 21.804688 30.171875 20.96875 L 30.171875 11.929688 L 24.671875 11.929688 L 24.671875 12.742188 L 29.335938 12.742188 L 29.335938 20.71875 C 29.335938 21.199219 29.128906 21.46875 28.773438 21.46875 L 27.734375 21.429688 L 27.941406 22.242188 Z M 20.566406 13.324219 L 20.566406 22.34375 L 21.398438 22.34375 L 21.398438 13.324219 Z M 22.316406 11.21875 L 21.523438 11.574219 C 22.046875 12.21875 22.546875 12.96875 23.003906 13.804688 L 23.773438 13.386719 C 23.359375 12.59375 22.859375 11.886719 22.316406 11.21875 Z M 22.316406 11.21875 "/>
<path style=" stroke:none;fill-rule:nonzero;fill:rgb(0%,0%,0%);fill-opacity:1;" d="M 37.003906 11.304688 L 37.003906 15.242188 L 34.753906 15.242188 L 34.753906 12.242188 L 33.878906 12.242188 L 33.878906 15.242188 L 32.046875 15.242188 L 32.046875 16.09375 L 37.085938 16.09375 L 37.085938 19.699219 L 37.941406 19.699219 L 37.941406 16.09375 L 42.710938 16.09375 L 42.710938 15.242188 L 37.878906 15.242188 L 37.878906 13.59375 L 41.523438 13.59375 L 41.523438 12.761719 L 37.878906 12.761719 L 37.878906 11.304688 Z M 40.921875 16.96875 C 39.609375 20.011719 36.859375 21.554688 32.710938 21.554688 L 33.023438 22.386719 C 37.296875 22.367188 40.191406 20.699219 41.710938 17.386719 Z M 34.921875 16.617188 C 34.234375 17.679688 33.378906 18.59375 32.359375 19.386719 L 32.898438 20.09375 C 33.941406 19.261719 34.816406 18.28125 35.546875 17.179688 Z M 34.921875 16.617188 "/>
<path style=" stroke:none;fill-rule:nonzero;fill:rgb(0%,0%,0%);fill-opacity:1;" d="M 68.773438 18.132812 L 67.710938 18.132812 L 67.710938 11.402344 C 67.460938 11.652344 67.125 11.902344 66.710938 12.152344 C 66.292969 12.394531 65.921875 12.566406 65.605469 12.675781 L 65.605469 11.652344 C 66.1875 11.394531 66.699219 11.066406 67.148438 10.675781 C 67.589844 10.273438 67.902344 9.882812 68.085938 9.507812 L 68.773438 9.507812 Z M 68.773438 18.132812 "/>
<path style="fill:none;stroke-width:1;stroke-linecap:round;stroke-linejoin:round;stroke:rgb(0%,0%,0%);stroke-opacity:1;stroke-miterlimit:10;" d="M 158.042969 149.799805 L 178.597656 149.799805 L 178.597656 165.898438 L 158.042969 165.898438 Z M 158.042969 149.799805 " transform="matrix(1.333333,0,0,1.333333,-121.333333,-106.666667)"/>
<path style=" stroke:none;fill-rule:nonzero;fill:rgb(0%,0%,0%);fill-opacity:1;" d="M 95.253906 103.375 C 95.253906 102.363281 95.359375 101.542969 95.566406 100.917969 C 95.773438 100.292969 96.078125 99.8125 96.484375 99.480469 C 96.898438 99.144531 97.421875 98.980469 98.046875 98.980469 C 98.515625 98.980469 98.925781 99.078125 99.273438 99.269531 C 99.617188 99.453125 99.90625 99.71875 100.128906 100.0625 C 100.347656 100.410156 100.523438 100.832031 100.648438 101.332031 C 100.785156 101.832031 100.859375 102.515625 100.859375 103.375 C 100.859375 104.375 100.753906 105.1875 100.546875 105.8125 C 100.335938 106.425781 100.023438 106.90625 99.609375 107.25 C 99.203125 107.582031 98.679688 107.75 98.046875 107.75 C 97.222656 107.75 96.578125 107.453125 96.109375 106.855469 C 95.535156 106.144531 95.253906 104.988281 95.253906 103.375 Z M 96.335938 103.375 C 96.335938 104.78125 96.492188 105.71875 96.816406 106.1875 C 97.148438 106.644531 97.554688 106.875 98.046875 106.875 C 98.53125 106.875 98.941406 106.644531 99.273438 106.1875 C 99.609375 105.71875 99.773438 104.78125 99.773438 103.375 C 99.773438 101.957031 99.609375 101.019531 99.273438 100.5625 C 98.941406 100.09375 98.53125 99.855469 98.046875 99.855469 C 97.554688 99.855469 97.171875 100.058594 96.878906 100.457031 C 96.515625 100.988281 96.335938 101.957031 96.335938 103.375 Z M 96.335938 103.375 "/>
<path style=" stroke:none;fill-rule:nonzero;fill:rgb(0%,0%,0%);fill-opacity:1;" d="M 102.511719 107.605469 L 102.511719 106.394531 L 103.71875 106.394531 L 103.71875 107.605469 Z M 102.511719 107.605469 "/>
<path style=" stroke:none;fill-rule:nonzero;fill:rgb(0%,0%,0%);fill-opacity:1;" d="M 110.808594 106.582031 L 110.808594 107.605469 L 105.121094 107.605469 C 105.121094 107.355469 105.160156 107.113281 105.246094 106.875 C 105.394531 106.488281 105.628906 106.105469 105.953125 105.730469 C 106.269531 105.355469 106.730469 104.925781 107.328125 104.4375 C 108.253906 103.660156 108.878906 103.050781 109.203125 102.605469 C 109.535156 102.160156 109.703125 101.738281 109.703125 101.332031 C 109.703125 100.917969 109.546875 100.574219 109.246094 100.292969 C 108.953125 100 108.566406 99.855469 108.097656 99.855469 C 107.582031 99.855469 107.171875 100.011719 106.871094 100.3125 C 106.5625 100.621094 106.410156 101.042969 106.410156 101.582031 L 105.328125 101.457031 C 105.394531 100.65625 105.671875 100.042969 106.160156 99.625 C 106.644531 99.199219 107.296875 98.980469 108.121094 98.980469 C 108.9375 98.980469 109.582031 99.207031 110.058594 99.667969 C 110.542969 100.125 110.785156 100.6875 110.785156 101.355469 C 110.785156 101.703125 110.714844 102.042969 110.578125 102.375 C 110.4375 102.707031 110.203125 103.0625 109.871094 103.4375 C 109.546875 103.800781 109.015625 104.300781 108.265625 104.9375 C 107.625 105.46875 107.214844 105.828125 107.035156 106.019531 C 106.855469 106.21875 106.707031 106.40625 106.597656 106.582031 Z M 110.808594 106.582031 "/>
<path style="fill:none;stroke-width:1;stroke-linecap:round;stroke-linejoin:round;stroke:rgb(0%,0%,0%);stroke-opacity:1;stroke-miterlimit:10;" d="M 158.042969 101.500977 L 178.597656 101.500977 L 178.597656 117.602539 L 158.042969 117.602539 Z M 158.042969 101.500977 " transform="matrix(1.333333,0,0,1.333333,-121.333333,-106.666667)"/>
<path style=" stroke:none;fill-rule:nonzero;fill:rgb(0%,0%,0%);fill-opacity:1;" d="M 95.253906 38.972656 C 95.253906 37.964844 95.359375 37.140625 95.566406 36.515625 C 95.773438 35.890625 96.078125 35.410156 96.484375 35.078125 C 96.898438 34.746094 97.421875 34.578125 98.046875 34.578125 C 98.515625 34.578125 98.925781 34.675781 99.273438 34.871094 C 99.617188 35.050781 99.90625 35.316406 100.128906 35.660156 C 100.347656 36.011719 100.523438 36.433594 100.648438 36.933594 C 100.785156 37.433594 100.859375 38.113281 100.859375 38.972656 C 100.859375 39.972656 100.753906 40.785156 100.546875 41.410156 C 100.335938 42.027344 100.023438 42.503906 99.609375 42.847656 C 99.203125 43.183594 98.679688 43.347656 98.046875 43.347656 C 97.222656 43.347656 96.578125 43.050781 96.109375 42.453125 C 95.535156 41.746094 95.253906 40.589844 95.253906 38.972656 Z M 96.335938 38.972656 C 96.335938 40.378906 96.492188 41.316406 96.816406 41.785156 C 97.148438 42.246094 97.554688 42.472656 98.046875 42.472656 C 98.53125 42.472656 98.941406 42.246094 99.273438 41.785156 C 99.609375 41.316406 99.773438 40.378906 99.773438 38.972656 C 99.773438 37.558594 99.609375 36.621094 99.273438 36.160156 C 98.941406 35.691406 98.53125 35.453125 98.046875 35.453125 C 97.554688 35.453125 97.171875 35.65625 96.878906 36.058594 C 96.515625 36.589844 96.335938 37.558594 96.335938 38.972656 Z M 96.335938 38.972656 "/>
<path style=" stroke:none;fill-rule:nonzero;fill:rgb(0%,0%,0%);fill-opacity:1;" d="M 102.511719 43.203125 L 102.511719 41.996094 L 103.71875 41.996094 L 103.71875 43.203125 Z M 102.511719 43.203125 "/>
<path style=" stroke:none;fill-rule:nonzero;fill:rgb(0%,0%,0%);fill-opacity:1;" d="M 109.246094 43.203125 L 108.183594 43.203125 L 108.183594 36.472656 C 107.933594 36.722656 107.597656 36.972656 107.183594 37.222656 C 106.765625 37.464844 106.394531 37.636719 106.078125 37.746094 L 106.078125 36.722656 C 106.660156 36.464844 107.171875 36.136719 107.621094 35.746094 C 108.0625 35.34375 108.375 34.953125 108.558594 34.578125 L 109.246094 34.578125 Z M 109.246094 43.203125 "/>
<path style=" stroke:none;fill-rule:nonzero;fill:rgb(69.803923%,85.09804%,100%);fill-opacity:1;" d="M 89.390625 71.597656 L 116.796875 71.597656 L 116.796875 50.136719 L 89.390625 50.136719 Z M 89.390625 71.597656 "/>
<path style="fill:none;stroke-width:1;stroke-linecap:round;stroke-linejoin:round;stroke:rgb(0%,0%,0%);stroke-opacity:1;stroke-miterlimit:10;" d="M 158.042969 117.602539 L 178.597656 117.602539 L 178.597656 133.698242 L 158.042969 133.698242 Z M 158.042969 117.602539 " transform="matrix(1.333333,0,0,1.333333,-121.333333,-106.666667)"/>
<path style=" stroke:none;fill-rule:nonzero;fill:rgb(0%,0%,0%);fill-opacity:1;" d="M 95.253906 60.441406 C 95.253906 59.429688 95.359375 58.609375 95.566406 57.984375 C 95.773438 57.359375 96.078125 56.878906 96.484375 56.546875 C 96.898438 56.210938 97.421875 56.046875 98.046875 56.046875 C 98.515625 56.046875 98.925781 56.144531 99.273438 56.335938 C 99.617188 56.519531 99.90625 56.785156 100.128906 57.128906 C 100.347656 57.476562 100.523438 57.898438 100.648438 58.398438 C 100.785156 58.898438 100.859375 59.582031 100.859375 60.441406 C 100.859375 61.441406 100.753906 62.253906 100.546875 62.878906 C 100.335938 63.492188 100.023438 63.972656 99.609375 64.316406 C 99.203125 64.648438 98.679688 64.816406 98.046875 64.816406 C 97.222656 64.816406 96.578125 64.519531 96.109375 63.921875 C 95.535156 63.210938 95.253906 62.054688 95.253906 60.441406 Z M 96.335938 60.441406 C 96.335938 61.847656 96.492188 62.785156 96.816406 63.253906 C 97.148438 63.710938 97.554688 63.941406 98.046875 63.941406 C 98.53125 63.941406 98.941406 63.710938 99.273438 63.253906 C 99.609375 62.785156 99.773438 61.847656 99.773438 60.441406 C 99.773438 59.023438 99.609375 58.085938 99.273438 57.628906 C 98.941406 57.160156 98.53125 56.921875 98.046875 56.921875 C 97.554688 56.921875 97.171875 57.125 96.878906 57.523438 C 96.515625 58.054688 96.335938 59.023438 96.335938 60.441406 Z M 96.335938 60.441406 "/>
<path style=" stroke:none;fill-rule:nonzero;fill:rgb(0%,0%,0%);fill-opacity:1;" d="M 102.511719 64.671875 L 102.511719 63.460938 L 103.71875 63.460938 L 103.71875 64.671875 Z M 102.511719 64.671875 "/>
<path style=" stroke:none;fill-rule:nonzero;fill:rgb(0%,0%,0%);fill-opacity:1;" d="M 108.640625 64.671875 L 108.640625 62.609375 L 104.910156 62.609375 L 104.910156 61.648438 L 108.828125 56.085938 L 109.703125 56.085938 L 109.703125 61.648438 L 110.871094 61.648438 L 110.871094 62.609375 L 109.703125 62.609375 L 109.703125 64.671875 Z M 108.640625 61.648438 L 108.640625 57.773438 L 105.953125 61.648438 Z M 108.640625 61.648438 "/>
<path style="fill:none;stroke-width:1;stroke-linecap:round;stroke-linejoin:round;stroke:rgb(0%,0%,0%);stroke-opacity:1;stroke-miterlimit:10;" d="M 158.042969 133.698242 L 178.597656 133.698242 L 178.597656 149.799805 L 158.042969 149.799805 Z M 158.042969 133.698242 " transform="matrix(1.333333,0,0,1.333333,-121.333333,-106.666667)"/>
<path style=" stroke:none;fill-rule:nonzero;fill:rgb(0%,0%,0%);fill-opacity:1;" d="M 95.253906 81.90625 C 95.253906 80.898438 95.359375 80.074219 95.566406 79.449219 C 95.773438 78.824219 96.078125 78.34375 96.484375 78.011719 C 96.898438 77.679688 97.421875 77.511719 98.046875 77.511719 C 98.515625 77.511719 98.925781 77.609375 99.273438 77.804688 C 99.617188 77.984375 99.90625 78.25 100.128906 78.59375 C 100.347656 78.945312 100.523438 79.367188 100.648438 79.867188 C 100.785156 80.367188 100.859375 81.046875 100.859375 81.90625 C 100.859375 82.90625 100.753906 83.71875 100.546875 84.34375 C 100.335938 84.960938 100.023438 85.4375 99.609375 85.78125 C 99.203125 86.117188 98.679688 86.28125 98.046875 86.28125 C 97.222656 86.28125 96.578125 85.984375 96.109375 85.386719 C 95.535156 84.679688 95.253906 83.523438 95.253906 81.90625 Z M 96.335938 81.90625 C 96.335938 83.3125 96.492188 84.25 96.816406 84.71875 C 97.148438 85.179688 97.554688 85.40625 98.046875 85.40625 C 98.53125 85.40625 98.941406 85.179688 99.273438 84.71875 C 99.609375 84.25 99.773438 83.3125 99.773438 81.90625 C 99.773438 80.492188 99.609375 79.554688 99.273438 79.09375 C 98.941406 78.625 98.53125 78.386719 98.046875 78.386719 C 97.554688 78.386719 97.171875 78.589844 96.878906 78.992188 C 96.515625 79.523438 96.335938 80.492188 96.335938 81.90625 Z M 96.335938 81.90625 "/>
<path style=" stroke:none;fill-rule:nonzero;fill:rgb(0%,0%,0%);fill-opacity:1;" d="M 102.511719 86.136719 L 102.511719 84.929688 L 103.71875 84.929688 L 103.71875 86.136719 Z M 102.511719 86.136719 "/>
<path style=" stroke:none;fill-rule:nonzero;fill:rgb(0%,0%,0%);fill-opacity:1;" d="M 105.265625 83.867188 L 106.328125 83.71875 C 106.453125 84.320312 106.652344 84.75 106.933594 85.011719 C 107.222656 85.277344 107.582031 85.40625 108.015625 85.40625 C 108.5 85.40625 108.910156 85.242188 109.246094 84.90625 C 109.589844 84.5625 109.765625 84.132812 109.765625 83.617188 C 109.765625 83.132812 109.605469 82.734375 109.285156 82.429688 C 108.980469 82.109375 108.582031 81.949219 108.097656 81.949219 C 107.890625 81.949219 107.640625 81.992188 107.347656 82.074219 L 107.472656 81.136719 C 107.542969 81.152344 107.597656 81.15625 107.640625 81.15625 C 108.082031 81.15625 108.484375 81.042969 108.847656 80.804688 C 109.207031 80.570312 109.390625 80.210938 109.390625 79.71875 C 109.390625 79.335938 109.253906 79.011719 108.996094 78.761719 C 108.730469 78.511719 108.390625 78.386719 107.972656 78.386719 C 107.566406 78.386719 107.230469 78.523438 106.953125 78.78125 C 106.6875 79.03125 106.515625 79.417969 106.433594 79.929688 L 105.371094 79.742188 C 105.503906 79.03125 105.796875 78.484375 106.246094 78.09375 C 106.703125 77.710938 107.269531 77.511719 107.953125 77.511719 C 108.421875 77.511719 108.855469 77.617188 109.246094 77.824219 C 109.644531 78.023438 109.953125 78.292969 110.160156 78.636719 C 110.371094 78.984375 110.472656 79.355469 110.472656 79.742188 C 110.472656 80.117188 110.371094 80.460938 110.160156 80.761719 C 109.964844 81.070312 109.671875 81.3125 109.285156 81.492188 C 109.796875 81.605469 110.191406 81.84375 110.472656 82.21875 C 110.75 82.585938 110.890625 83.042969 110.890625 83.59375 C 110.890625 84.34375 110.609375 84.984375 110.058594 85.511719 C 109.515625 86.027344 108.828125 86.28125 107.996094 86.28125 C 107.246094 86.28125 106.621094 86.0625 106.121094 85.617188 C 105.621094 85.171875 105.332031 84.589844 105.265625 83.867188 Z M 105.265625 83.867188 "/>
<path style=" stroke:none;fill-rule:nonzero;fill:rgb(0%,0%,0%);fill-opacity:1;" d="M 105.800781 16.980469 L 105.800781 18 L 100.113281 18 C 100.113281 17.75 100.152344 17.511719 100.238281 17.269531 C 100.386719 16.886719 100.621094 16.5 100.945312 16.125 C 101.261719 15.75 101.722656 15.324219 102.320312 14.832031 C 103.246094 14.058594 103.871094 13.449219 104.195312 13 C 104.527344 12.558594 104.695312 12.136719 104.695312 11.730469 C 104.695312 11.3125 104.539062 10.96875 104.238281 10.6875 C 103.945312 10.394531 103.558594 10.25 103.089844 10.25 C 102.574219 10.25 102.164062 10.40625 101.863281 10.707031 C 101.554688 11.015625 101.402344 11.4375 101.402344 11.980469 L 100.320312 11.855469 C 100.386719 11.050781 100.664062 10.4375 101.152344 10.019531 C 101.636719 9.59375 102.289062 9.375 103.113281 9.375 C 103.929688 9.375 104.574219 9.605469 105.050781 10.0625 C 105.535156 10.519531 105.777344 11.082031 105.777344 11.75 C 105.777344 12.097656 105.707031 12.4375 105.570312 12.769531 C 105.429688 13.105469 105.195312 13.457031 104.863281 13.832031 C 104.539062 14.199219 104.007812 14.699219 103.257812 15.332031 C 102.617188 15.863281 102.207031 16.222656 102.027344 16.417969 C 101.847656 16.613281 101.699219 16.800781 101.589844 16.980469 Z M 105.800781 16.980469 "/>
<path style="fill:none;stroke-width:1;stroke-linecap:round;stroke-linejoin:round;stroke:rgb(0%,0%,0%);stroke-opacity:1;stroke-miterlimit:10;" d="M 184.729492 149.890625 L 205.290039 149.890625 L 205.290039 165.992188 L 184.729492 165.992188 Z M 184.729492 149.890625 " transform="matrix(1.333333,0,0,1.333333,-121.333333,-106.666667)"/>
<path style=" stroke:none;fill-rule:nonzero;fill:rgb(0%,0%,0%);fill-opacity:1;" d="M 130.839844 103.496094 C 130.839844 102.484375 130.941406 101.664062 131.152344 101.039062 C 131.359375 100.414062 131.660156 99.933594 132.066406 99.601562 C 132.484375 99.265625 133.003906 99.101562 133.628906 99.101562 C 134.097656 99.101562 134.511719 99.199219 134.859375 99.390625 C 135.203125 99.574219 135.488281 99.839844 135.714844 100.183594 C 135.933594 100.53125 136.109375 100.953125 136.234375 101.453125 C 136.371094 101.953125 136.441406 102.636719 136.441406 103.496094 C 136.441406 104.496094 136.339844 105.308594 136.128906 105.933594 C 135.921875 106.546875 135.609375 107.027344 135.191406 107.371094 C 134.785156 107.703125 134.265625 107.871094 133.628906 107.871094 C 132.808594 107.871094 132.160156 107.574219 131.691406 106.976562 C 131.121094 106.265625 130.839844 105.109375 130.839844 103.496094 Z M 131.921875 103.496094 C 131.921875 104.902344 132.078125 105.839844 132.402344 106.308594 C 132.734375 106.765625 133.140625 106.996094 133.628906 106.996094 C 134.113281 106.996094 134.527344 106.765625 134.859375 106.308594 C 135.191406 105.839844 135.359375 104.902344 135.359375 103.496094 C 135.359375 102.078125 135.191406 101.140625 134.859375 100.683594 C 134.527344 100.214844 134.113281 99.976562 133.628906 99.976562 C 133.140625 99.976562 132.753906 100.179688 132.464844 100.578125 C 132.097656 101.109375 131.921875 102.078125 131.921875 103.496094 Z M 131.921875 103.496094 "/>
<path style=" stroke:none;fill-rule:nonzero;fill:rgb(0%,0%,0%);fill-opacity:1;" d="M 138.097656 107.726562 L 138.097656 106.515625 L 139.304688 106.515625 L 139.304688 107.726562 Z M 138.097656 107.726562 "/>
<path style=" stroke:none;fill-rule:nonzero;fill:rgb(0%,0%,0%);fill-opacity:1;" d="M 146.394531 106.703125 L 146.394531 107.726562 L 140.707031 107.726562 C 140.707031 107.476562 140.746094 107.234375 140.832031 106.996094 C 140.980469 106.609375 141.214844 106.226562 141.539062 105.851562 C 141.855469 105.476562 142.316406 105.046875 142.914062 104.558594 C 143.839844 103.78125 144.464844 103.171875 144.789062 102.726562 C 145.121094 102.28125 145.289062 101.859375 145.289062 101.453125 C 145.289062 101.039062 145.132812 100.695312 144.832031 100.414062 C 144.539062 100.121094 144.152344 99.976562 143.683594 99.976562 C 143.167969 99.976562 142.757812 100.132812 142.457031 100.433594 C 142.148438 100.742188 141.996094 101.164062 141.996094 101.703125 L 140.914062 101.578125 C 140.980469 100.777344 141.257812 100.164062 141.746094 99.746094 C 142.230469 99.320312 142.882812 99.101562 143.707031 99.101562 C 144.523438 99.101562 145.167969 99.328125 145.644531 99.789062 C 146.128906 100.246094 146.371094 100.808594 146.371094 101.476562 C 146.371094 101.824219 146.300781 102.164062 146.164062 102.496094 C 146.023438 102.828125 145.789062 103.183594 145.457031 103.558594 C 145.132812 103.921875 144.601562 104.421875 143.851562 105.058594 C 143.210938 105.589844 142.800781 105.949219 142.621094 106.140625 C 142.441406 106.339844 142.292969 106.527344 142.183594 106.703125 Z M 146.394531 106.703125 "/>
<path style=" stroke:none;fill-rule:nonzero;fill:rgb(69.803923%,85.09804%,100%);fill-opacity:1;" d="M 124.972656 93.1875 L 152.386719 93.1875 L 152.386719 71.71875 L 124.972656 71.71875 Z M 124.972656 93.1875 "/>
<path style="fill:none;stroke-width:1;stroke-linecap:round;stroke-linejoin:round;stroke:rgb(0%,0%,0%);stroke-opacity:1;stroke-miterlimit:10;" d="M 184.729492 133.789062 L 205.290039 133.789062 L 205.290039 149.890625 L 184.729492 149.890625 Z M 184.729492 133.789062 " transform="matrix(1.333333,0,0,1.333333,-121.333333,-106.666667)"/>
<path style=" stroke:none;fill-rule:nonzero;fill:rgb(0%,0%,0%);fill-opacity:1;" d="M 130.839844 82.027344 C 130.839844 81.019531 130.941406 80.195312 131.152344 79.570312 C 131.359375 78.945312 131.660156 78.464844 132.066406 78.132812 C 132.484375 77.800781 133.003906 77.632812 133.628906 77.632812 C 134.097656 77.632812 134.511719 77.730469 134.859375 77.925781 C 135.203125 78.105469 135.488281 78.371094 135.714844 78.714844 C 135.933594 79.066406 136.109375 79.488281 136.234375 79.988281 C 136.371094 80.488281 136.441406 81.167969 136.441406 82.027344 C 136.441406 83.027344 136.339844 83.839844 136.128906 84.464844 C 135.921875 85.082031 135.609375 85.558594 135.191406 85.902344 C 134.785156 86.238281 134.265625 86.402344 133.628906 86.402344 C 132.808594 86.402344 132.160156 86.105469 131.691406 85.507812 C 131.121094 84.800781 130.839844 83.644531 130.839844 82.027344 Z M 131.921875 82.027344 C 131.921875 83.433594 132.078125 84.371094 132.402344 84.839844 C 132.734375 85.300781 133.140625 85.527344 133.628906 85.527344 C 134.113281 85.527344 134.527344 85.300781 134.859375 84.839844 C 135.191406 84.371094 135.359375 83.433594 135.359375 82.027344 C 135.359375 80.613281 135.191406 79.675781 134.859375 79.214844 C 134.527344 78.746094 134.113281 78.507812 133.628906 78.507812 C 133.140625 78.507812 132.753906 78.710938 132.464844 79.113281 C 132.097656 79.644531 131.921875 80.613281 131.921875 82.027344 Z M 131.921875 82.027344 "/>
<path style=" stroke:none;fill-rule:nonzero;fill:rgb(0%,0%,0%);fill-opacity:1;" d="M 138.097656 86.257812 L 138.097656 85.050781 L 139.304688 85.050781 L 139.304688 86.257812 Z M 138.097656 86.257812 "/>
<path style=" stroke:none;fill-rule:nonzero;fill:rgb(0%,0%,0%);fill-opacity:1;" d="M 144.226562 86.257812 L 144.226562 84.195312 L 140.496094 84.195312 L 140.496094 83.238281 L 144.414062 77.675781 L 145.289062 77.675781 L 145.289062 83.238281 L 146.457031 83.238281 L 146.457031 84.195312 L 145.289062 84.195312 L 145.289062 86.257812 Z M 144.226562 83.238281 L 144.226562 79.363281 L 141.539062 83.238281 Z M 144.226562 83.238281 "/>
<path style="fill:none;stroke-width:1;stroke-linecap:round;stroke-linejoin:round;stroke:rgb(0%,0%,0%);stroke-opacity:1;stroke-miterlimit:10;" d="M 184.729492 117.69043 L 205.290039 117.69043 L 205.290039 133.789062 L 184.729492 133.789062 Z M 184.729492 117.69043 " transform="matrix(1.333333,0,0,1.333333,-121.333333,-106.666667)"/>
<path style=" stroke:none;fill-rule:nonzero;fill:rgb(0%,0%,0%);fill-opacity:1;" d="M 130.839844 60.5625 C 130.839844 59.550781 130.941406 58.730469 131.152344 58.105469 C 131.359375 57.480469 131.660156 57 132.066406 56.667969 C 132.484375 56.332031 133.003906 56.167969 133.628906 56.167969 C 134.097656 56.167969 134.511719 56.265625 134.859375 56.457031 C 135.203125 56.640625 135.488281 56.90625 135.714844 57.25 C 135.933594 57.597656 136.109375 58.019531 136.234375 58.519531 C 136.371094 59.019531 136.441406 59.703125 136.441406 60.5625 C 136.441406 61.5625 136.339844 62.375 136.128906 63 C 135.921875 63.613281 135.609375 64.09375 135.191406 64.4375 C 134.785156 64.769531 134.265625 64.9375 133.628906 64.9375 C 132.808594 64.9375 132.160156 64.640625 131.691406 64.042969 C 131.121094 63.332031 130.839844 62.175781 130.839844 60.5625 Z M 131.921875 60.5625 C 131.921875 61.96875 132.078125 62.90625 132.402344 63.375 C 132.734375 63.832031 133.140625 64.0625 133.628906 64.0625 C 134.113281 64.0625 134.527344 63.832031 134.859375 63.375 C 135.191406 62.90625 135.359375 61.96875 135.359375 60.5625 C 135.359375 59.144531 135.191406 58.207031 134.859375 57.75 C 134.527344 57.28125 134.113281 57.042969 133.628906 57.042969 C 133.140625 57.042969 132.753906 57.246094 132.464844 57.644531 C 132.097656 58.175781 131.921875 59.144531 131.921875 60.5625 Z M 131.921875 60.5625 "/>
<path style=" stroke:none;fill-rule:nonzero;fill:rgb(0%,0%,0%);fill-opacity:1;" d="M 138.097656 64.792969 L 138.097656 63.582031 L 139.304688 63.582031 L 139.304688 64.792969 Z M 138.097656 64.792969 "/>
<path style=" stroke:none;fill-rule:nonzero;fill:rgb(0%,0%,0%);fill-opacity:1;" d="M 146.394531 63.769531 L 146.394531 64.792969 L 140.707031 64.792969 C 140.707031 64.542969 140.746094 64.300781 140.832031 64.0625 C 140.980469 63.675781 141.214844 63.292969 141.539062 62.917969 C 141.855469 62.542969 142.316406 62.113281 142.914062 61.625 C 143.839844 60.847656 144.464844 60.238281 144.789062 59.792969 C 145.121094 59.347656 145.289062 58.925781 145.289062 58.519531 C 145.289062 58.105469 145.132812 57.761719 144.832031 57.480469 C 144.539062 57.1875 144.152344 57.042969 143.683594 57.042969 C 143.167969 57.042969 142.757812 57.199219 142.457031 57.5 C 142.148438 57.808594 141.996094 58.230469 141.996094 58.769531 L 140.914062 58.644531 C 140.980469 57.84375 141.257812 57.230469 141.746094 56.8125 C 142.230469 56.386719 142.882812 56.167969 143.707031 56.167969 C 144.523438 56.167969 145.167969 56.394531 145.644531 56.855469 C 146.128906 57.3125 146.371094 57.875 146.371094 58.542969 C 146.371094 58.890625 146.300781 59.230469 146.164062 59.5625 C 146.023438 59.894531 145.789062 60.25 145.457031 60.625 C 145.132812 60.988281 144.601562 61.488281 143.851562 62.125 C 143.210938 62.65625 142.800781 63.015625 142.621094 63.207031 C 142.441406 63.40625 142.292969 63.59375 142.183594 63.769531 Z M 146.394531 63.769531 "/>
<path style="fill:none;stroke-width:1;stroke-linecap:round;stroke-linejoin:round;stroke:rgb(0%,0%,0%);stroke-opacity:1;stroke-miterlimit:10;" d="M 184.729492 101.588867 L 205.290039 101.588867 L 205.290039 117.69043 L 184.729492 117.69043 Z M 184.729492 101.588867 " transform="matrix(1.333333,0,0,1.333333,-121.333333,-106.666667)"/>
<path style=" stroke:none;fill-rule:nonzero;fill:rgb(0%,0%,0%);fill-opacity:1;" d="M 130.839844 39.097656 C 130.839844 38.085938 130.941406 37.261719 131.152344 36.636719 C 131.359375 36.011719 131.660156 35.535156 132.066406 35.199219 C 132.484375 34.867188 133.003906 34.699219 133.628906 34.699219 C 134.097656 34.699219 134.511719 34.800781 134.859375 34.992188 C 135.203125 35.175781 135.488281 35.441406 135.714844 35.785156 C 135.933594 36.132812 136.109375 36.554688 136.234375 37.054688 C 136.371094 37.554688 136.441406 38.238281 136.441406 39.097656 C 136.441406 40.097656 136.339844 40.910156 136.128906 41.535156 C 135.921875 42.148438 135.609375 42.628906 135.191406 42.972656 C 134.785156 43.304688 134.265625 43.472656 133.628906 43.472656 C 132.808594 43.472656 132.160156 43.175781 131.691406 42.574219 C 131.121094 41.867188 130.839844 40.710938 130.839844 39.097656 Z M 131.921875 39.097656 C 131.921875 40.503906 132.078125 41.441406 132.402344 41.910156 C 132.734375 42.367188 133.140625 42.597656 133.628906 42.597656 C 134.113281 42.597656 134.527344 42.367188 134.859375 41.910156 C 135.191406 41.441406 135.359375 40.503906 135.359375 39.097656 C 135.359375 37.679688 135.191406 36.742188 134.859375 36.285156 C 134.527344 35.816406 134.113281 35.574219 133.628906 35.574219 C 133.140625 35.574219 132.753906 35.777344 132.464844 36.179688 C 132.097656 36.710938 131.921875 37.679688 131.921875 39.097656 Z M 131.921875 39.097656 "/>
<path style=" stroke:none;fill-rule:nonzero;fill:rgb(0%,0%,0%);fill-opacity:1;" d="M 138.097656 43.324219 L 138.097656 42.117188 L 139.304688 42.117188 L 139.304688 43.324219 Z M 138.097656 43.324219 "/>
<path style=" stroke:none;fill-rule:nonzero;fill:rgb(0%,0%,0%);fill-opacity:1;" d="M 146.394531 42.304688 L 146.394531 43.324219 L 140.707031 43.324219 C 140.707031 43.074219 140.746094 42.835938 140.832031 42.597656 C 140.980469 42.210938 141.214844 41.824219 141.539062 41.449219 C 141.855469 41.074219 142.316406 40.648438 142.914062 40.160156 C 143.839844 39.382812 144.464844 38.773438 144.789062 38.324219 C 145.121094 37.882812 145.289062 37.460938 145.289062 37.054688 C 145.289062 36.636719 145.132812 36.292969 144.832031 36.011719 C 144.539062 35.722656 144.152344 35.574219 143.683594 35.574219 C 143.167969 35.574219 142.757812 35.730469 142.457031 36.035156 C 142.148438 36.339844 141.996094 36.761719 141.996094 37.304688 L 140.914062 37.179688 C 140.980469 36.378906 141.257812 35.761719 141.746094 35.347656 C 142.230469 34.917969 142.882812 34.699219 143.707031 34.699219 C 144.523438 34.699219 145.167969 34.929688 145.644531 35.386719 C 146.128906 35.847656 146.371094 36.410156 146.371094 37.074219 C 146.371094 37.425781 146.300781 37.761719 146.164062 38.097656 C 146.023438 38.429688 145.789062 38.785156 145.457031 39.160156 C 145.132812 39.523438 144.601562 40.023438 143.851562 40.660156 C 143.210938 41.191406 142.800781 41.550781 142.621094 41.742188 C 142.441406 41.941406 142.292969 42.128906 142.183594 42.304688 Z M 146.394531 42.304688 "/>
<path style=" stroke:none;fill-rule:nonzero;fill:rgb(0%,0%,0%);fill-opacity:1;" d="M 135.722656 15.851562 L 136.785156 15.703125 C 136.910156 16.304688 137.105469 16.734375 137.386719 16.996094 C 137.679688 17.261719 138.039062 17.390625 138.472656 17.390625 C 138.957031 17.390625 139.367188 17.226562 139.699219 16.890625 C 140.042969 16.546875 140.222656 16.117188 140.222656 15.601562 C 140.222656 15.117188 140.058594 14.71875 139.742188 14.414062 C 139.433594 14.09375 139.039062 13.933594 138.554688 13.933594 C 138.347656 13.933594 138.097656 13.976562 137.804688 14.058594 L 137.929688 13.121094 C 137.996094 13.136719 138.054688 13.140625 138.097656 13.140625 C 138.539062 13.140625 138.941406 13.027344 139.304688 12.789062 C 139.664062 12.554688 139.847656 12.195312 139.847656 11.703125 C 139.847656 11.320312 139.710938 10.996094 139.449219 10.746094 C 139.183594 10.496094 138.847656 10.371094 138.429688 10.371094 C 138.023438 10.371094 137.683594 10.507812 137.410156 10.765625 C 137.144531 11.015625 136.972656 11.402344 136.886719 11.914062 L 135.824219 11.726562 C 135.960938 11.015625 136.253906 10.46875 136.699219 10.078125 C 137.160156 9.695312 137.726562 9.496094 138.410156 9.496094 C 138.878906 9.496094 139.308594 9.601562 139.699219 9.808594 C 140.101562 10.007812 140.410156 10.277344 140.617188 10.621094 C 140.824219 10.96875 140.929688 11.339844 140.929688 11.726562 C 140.929688 12.101562 140.824219 12.445312 140.617188 12.746094 C 140.417969 13.054688 140.128906 13.296875 139.742188 13.476562 C 140.253906 13.589844 140.648438 13.828125 140.929688 14.203125 C 141.207031 14.570312 141.347656 15.027344 141.347656 15.578125 C 141.347656 16.328125 141.066406 16.96875 140.511719 17.496094 C 139.972656 18.011719 139.285156 18.265625 138.449219 18.265625 C 137.699219 18.265625 137.074219 18.046875 136.574219 17.601562 C 136.074219 17.15625 135.789062 16.574219 135.722656 15.851562 Z M 135.722656 15.851562 "/>
<path style=" stroke:none;fill-rule:nonzero;fill:rgb(69.803923%,85.09804%,100%);fill-opacity:1;" d="M 160.5625 114.777344 L 187.96875 114.777344 L 187.96875 93.308594 L 160.5625 93.308594 Z M 160.5625 114.777344 "/>
<path style="fill:none;stroke-width:1;stroke-linecap:round;stroke-linejoin:round;stroke:rgb(0%,0%,0%);stroke-opacity:1;stroke-miterlimit:10;" d="M 211.421875 149.981445 L 231.976562 149.981445 L 231.976562 166.083008 L 211.421875 166.083008 Z M 211.421875 149.981445 " transform="matrix(1.333333,0,0,1.333333,-121.333333,-106.666667)"/>
<path style=" stroke:none;fill-rule:nonzero;fill:rgb(0%,0%,0%);fill-opacity:1;" d="M 166.425781 103.617188 C 166.425781 102.605469 166.527344 101.785156 166.738281 101.160156 C 166.945312 100.535156 167.246094 100.054688 167.652344 99.722656 C 168.070312 99.386719 168.589844 99.222656 169.214844 99.222656 C 169.683594 99.222656 170.097656 99.320312 170.445312 99.511719 C 170.789062 99.695312 171.074219 99.960938 171.300781 100.304688 C 171.519531 100.652344 171.695312 101.074219 171.820312 101.574219 C 171.957031 102.074219 172.027344 102.757812 172.027344 103.617188 C 172.027344 104.617188 171.925781 105.429688 171.714844 106.054688 C 171.507812 106.667969 171.195312 107.148438 170.777344 107.492188 C 170.371094 107.824219 169.851562 107.992188 169.214844 107.992188 C 168.394531 107.992188 167.746094 107.695312 167.277344 107.097656 C 166.707031 106.386719 166.425781 105.230469 166.425781 103.617188 Z M 167.507812 103.617188 C 167.507812 105.023438 167.664062 105.960938 167.988281 106.429688 C 168.320312 106.886719 168.726562 107.117188 169.214844 107.117188 C 169.699219 107.117188 170.113281 106.886719 170.445312 106.429688 C 170.777344 105.960938 170.945312 105.023438 170.945312 103.617188 C 170.945312 102.199219 170.777344 101.261719 170.445312 100.804688 C 170.113281 100.335938 169.699219 100.097656 169.214844 100.097656 C 168.726562 100.097656 168.339844 100.300781 168.050781 100.699219 C 167.683594 101.230469 167.507812 102.199219 167.507812 103.617188 Z M 167.507812 103.617188 "/>
<path style=" stroke:none;fill-rule:nonzero;fill:rgb(0%,0%,0%);fill-opacity:1;" d="M 173.683594 107.847656 L 173.683594 106.636719 L 174.890625 106.636719 L 174.890625 107.847656 Z M 173.683594 107.847656 "/>
<path style=" stroke:none;fill-rule:nonzero;fill:rgb(0%,0%,0%);fill-opacity:1;" d="M 181.917969 101.367188 L 180.855469 101.449219 C 180.769531 101.035156 180.636719 100.730469 180.457031 100.535156 C 180.175781 100.242188 179.832031 100.097656 179.417969 100.097656 C 179.066406 100.097656 178.769531 100.191406 178.519531 100.367188 C 178.1875 100.617188 177.921875 100.972656 177.730469 101.429688 C 177.546875 101.886719 177.449219 102.550781 177.4375 103.410156 C 177.6875 103.035156 177.988281 102.757812 178.355469 102.574219 C 178.730469 102.382812 179.113281 102.285156 179.519531 102.285156 C 180.230469 102.285156 180.824219 102.542969 181.3125 103.054688 C 181.8125 103.570312 182.0625 104.238281 182.0625 105.054688 C 182.0625 105.597656 181.941406 106.105469 181.707031 106.574219 C 181.46875 107.035156 181.152344 107.386719 180.75 107.636719 C 180.34375 107.871094 179.886719 107.992188 179.375 107.992188 C 178.5 107.992188 177.78125 107.675781 177.230469 107.035156 C 176.671875 106.382812 176.394531 105.316406 176.394531 103.824219 C 176.394531 102.175781 176.699219 100.964844 177.3125 100.199219 C 177.839844 99.550781 178.5625 99.222656 179.480469 99.222656 C 180.144531 99.222656 180.691406 99.417969 181.125 99.804688 C 181.550781 100.179688 181.816406 100.699219 181.917969 101.367188 Z M 177.605469 105.054688 C 177.605469 105.429688 177.675781 105.785156 177.832031 106.117188 C 177.984375 106.441406 178.199219 106.691406 178.480469 106.867188 C 178.753906 107.035156 179.046875 107.117188 179.355469 107.117188 C 179.796875 107.117188 180.175781 106.945312 180.5 106.597656 C 180.816406 106.238281 180.980469 105.742188 180.980469 105.117188 C 180.980469 104.523438 180.816406 104.054688 180.5 103.722656 C 180.191406 103.378906 179.796875 103.199219 179.3125 103.199219 C 178.839844 103.199219 178.4375 103.378906 178.105469 103.722656 C 177.769531 104.054688 177.605469 104.503906 177.605469 105.054688 Z M 177.605469 105.054688 "/>
<path style="fill:none;stroke-width:1;stroke-linecap:round;stroke-linejoin:round;stroke:rgb(0%,0%,0%);stroke-opacity:1;stroke-miterlimit:10;" d="M 211.421875 133.882812 L 231.976562 133.882812 L 231.976562 149.981445 L 211.421875 149.981445 Z M 211.421875 133.882812 " transform="matrix(1.333333,0,0,1.333333,-121.333333,-106.666667)"/>
<path style=" stroke:none;fill-rule:nonzero;fill:rgb(0%,0%,0%);fill-opacity:1;" d="M 166.425781 82.148438 C 166.425781 81.140625 166.527344 80.316406 166.738281 79.691406 C 166.945312 79.066406 167.246094 78.585938 167.652344 78.253906 C 168.070312 77.921875 168.589844 77.753906 169.214844 77.753906 C 169.683594 77.753906 170.097656 77.851562 170.445312 78.046875 C 170.789062 78.226562 171.074219 78.492188 171.300781 78.835938 C 171.519531 79.1875 171.695312 79.609375 171.820312 80.109375 C 171.957031 80.609375 172.027344 81.289062 172.027344 82.148438 C 172.027344 83.148438 171.925781 83.960938 171.714844 84.585938 C 171.507812 85.203125 171.195312 85.679688 170.777344 86.023438 C 170.371094 86.359375 169.851562 86.523438 169.214844 86.523438 C 168.394531 86.523438 167.746094 86.226562 167.277344 85.628906 C 166.707031 84.921875 166.425781 83.765625 166.425781 82.148438 Z M 167.507812 82.148438 C 167.507812 83.554688 167.664062 84.492188 167.988281 84.960938 C 168.320312 85.421875 168.726562 85.648438 169.214844 85.648438 C 169.699219 85.648438 170.113281 85.421875 170.445312 84.960938 C 170.777344 84.492188 170.945312 83.554688 170.945312 82.148438 C 170.945312 80.734375 170.777344 79.796875 170.445312 79.335938 C 170.113281 78.867188 169.699219 78.628906 169.214844 78.628906 C 168.726562 78.628906 168.339844 78.832031 168.050781 79.234375 C 167.683594 79.765625 167.507812 80.734375 167.507812 82.148438 Z M 167.507812 82.148438 "/>
<path style=" stroke:none;fill-rule:nonzero;fill:rgb(0%,0%,0%);fill-opacity:1;" d="M 173.683594 86.378906 L 173.683594 85.171875 L 174.890625 85.171875 L 174.890625 86.378906 Z M 173.683594 86.378906 "/>
<path style=" stroke:none;fill-rule:nonzero;fill:rgb(0%,0%,0%);fill-opacity:1;" d="M 181.980469 85.359375 L 181.980469 86.378906 L 176.292969 86.378906 C 176.292969 86.128906 176.332031 85.890625 176.417969 85.648438 C 176.566406 85.265625 176.800781 84.878906 177.125 84.503906 C 177.441406 84.128906 177.902344 83.703125 178.5 83.210938 C 179.425781 82.4375 180.050781 81.828125 180.375 81.378906 C 180.707031 80.9375 180.875 80.515625 180.875 80.109375 C 180.875 79.691406 180.71875 79.347656 180.417969 79.066406 C 180.125 78.773438 179.738281 78.628906 179.269531 78.628906 C 178.753906 78.628906 178.34375 78.785156 178.042969 79.085938 C 177.734375 79.394531 177.582031 79.816406 177.582031 80.359375 L 176.5 80.234375 C 176.566406 79.429688 176.84375 78.816406 177.332031 78.398438 C 177.816406 77.972656 178.46875 77.753906 179.292969 77.753906 C 180.109375 77.753906 180.753906 77.984375 181.230469 78.441406 C 181.714844 78.898438 181.957031 79.460938 181.957031 80.128906 C 181.957031 80.476562 181.886719 80.816406 181.75 81.148438 C 181.609375 81.484375 181.375 81.835938 181.042969 82.210938 C 180.71875 82.578125 180.1875 83.078125 179.4375 83.710938 C 178.796875 84.242188 178.386719 84.601562 178.207031 84.796875 C 178.027344 84.992188 177.878906 85.179688 177.769531 85.359375 Z M 181.980469 85.359375 "/>
<path style="fill:none;stroke-width:1;stroke-linecap:round;stroke-linejoin:round;stroke:rgb(0%,0%,0%);stroke-opacity:1;stroke-miterlimit:10;" d="M 211.421875 117.78125 L 231.976562 117.78125 L 231.976562 133.882812 L 211.421875 133.882812 Z M 211.421875 117.78125 " transform="matrix(1.333333,0,0,1.333333,-121.333333,-106.666667)"/>
<path style=" stroke:none;fill-rule:nonzero;fill:rgb(0%,0%,0%);fill-opacity:1;" d="M 166.425781 60.683594 C 166.425781 59.671875 166.527344 58.851562 166.738281 58.226562 C 166.945312 57.601562 167.246094 57.121094 167.652344 56.789062 C 168.070312 56.453125 168.589844 56.289062 169.214844 56.289062 C 169.683594 56.289062 170.097656 56.386719 170.445312 56.578125 C 170.789062 56.761719 171.074219 57.027344 171.300781 57.371094 C 171.519531 57.71875 171.695312 58.140625 171.820312 58.640625 C 171.957031 59.140625 172.027344 59.824219 172.027344 60.683594 C 172.027344 61.683594 171.925781 62.496094 171.714844 63.121094 C 171.507812 63.734375 171.195312 64.214844 170.777344 64.558594 C 170.371094 64.890625 169.851562 65.058594 169.214844 65.058594 C 168.394531 65.058594 167.746094 64.761719 167.277344 64.164062 C 166.707031 63.453125 166.425781 62.296875 166.425781 60.683594 Z M 167.507812 60.683594 C 167.507812 62.089844 167.664062 63.027344 167.988281 63.496094 C 168.320312 63.953125 168.726562 64.183594 169.214844 64.183594 C 169.699219 64.183594 170.113281 63.953125 170.445312 63.496094 C 170.777344 63.027344 170.945312 62.089844 170.945312 60.683594 C 170.945312 59.265625 170.777344 58.328125 170.445312 57.871094 C 170.113281 57.402344 169.699219 57.164062 169.214844 57.164062 C 168.726562 57.164062 168.339844 57.367188 168.050781 57.765625 C 167.683594 58.296875 167.507812 59.265625 167.507812 60.683594 Z M 167.507812 60.683594 "/>
<path style=" stroke:none;fill-rule:nonzero;fill:rgb(0%,0%,0%);fill-opacity:1;" d="M 173.683594 64.914062 L 173.683594 63.703125 L 174.890625 63.703125 L 174.890625 64.914062 Z M 173.683594 64.914062 "/>
<path style=" stroke:none;fill-rule:nonzero;fill:rgb(0%,0%,0%);fill-opacity:1;" d="M 181.980469 63.890625 L 181.980469 64.914062 L 176.292969 64.914062 C 176.292969 64.664062 176.332031 64.421875 176.417969 64.183594 C 176.566406 63.796875 176.800781 63.414062 177.125 63.039062 C 177.441406 62.664062 177.902344 62.234375 178.5 61.746094 C 179.425781 60.96875 180.050781 60.359375 180.375 59.914062 C 180.707031 59.46875 180.875 59.046875 180.875 58.640625 C 180.875 58.226562 180.71875 57.882812 180.417969 57.601562 C 180.125 57.308594 179.738281 57.164062 179.269531 57.164062 C 178.753906 57.164062 178.34375 57.320312 178.042969 57.621094 C 177.734375 57.929688 177.582031 58.351562 177.582031 58.890625 L 176.5 58.765625 C 176.566406 57.964844 176.84375 57.351562 177.332031 56.933594 C 177.816406 56.507812 178.46875 56.289062 179.292969 56.289062 C 180.109375 56.289062 180.753906 56.515625 181.230469 56.976562 C 181.714844 57.433594 181.957031 57.996094 181.957031 58.664062 C 181.957031 59.011719 181.886719 59.351562 181.75 59.683594 C 181.609375 60.015625 181.375 60.371094 181.042969 60.746094 C 180.71875 61.109375 180.1875 61.609375 179.4375 62.246094 C 178.796875 62.777344 178.386719 63.136719 178.207031 63.328125 C 178.027344 63.527344 177.878906 63.714844 177.769531 63.890625 Z M 181.980469 63.890625 "/>
<path style="fill:none;stroke-width:1;stroke-linecap:round;stroke-linejoin:round;stroke:rgb(0%,0%,0%);stroke-opacity:1;stroke-miterlimit:10;" d="M 211.421875 101.682617 L 231.976562 101.682617 L 231.976562 117.78125 L 211.421875 117.78125 Z M 211.421875 101.682617 " transform="matrix(1.333333,0,0,1.333333,-121.333333,-106.666667)"/>
<path style=" stroke:none;fill-rule:nonzero;fill:rgb(0%,0%,0%);fill-opacity:1;" d="M 166.425781 39.21875 C 166.425781 38.207031 166.527344 37.382812 166.738281 36.757812 C 166.945312 36.132812 167.246094 35.65625 167.652344 35.320312 C 168.070312 34.988281 168.589844 34.820312 169.214844 34.820312 C 169.683594 34.820312 170.097656 34.921875 170.445312 35.113281 C 170.789062 35.296875 171.074219 35.5625 171.300781 35.90625 C 171.519531 36.253906 171.695312 36.675781 171.820312 37.175781 C 171.957031 37.675781 172.027344 38.359375 172.027344 39.21875 C 172.027344 40.21875 171.925781 41.03125 171.714844 41.65625 C 171.507812 42.269531 171.195312 42.75 170.777344 43.09375 C 170.371094 43.425781 169.851562 43.59375 169.214844 43.59375 C 168.394531 43.59375 167.746094 43.296875 167.277344 42.695312 C 166.707031 41.988281 166.425781 40.832031 166.425781 39.21875 Z M 167.507812 39.21875 C 167.507812 40.625 167.664062 41.5625 167.988281 42.03125 C 168.320312 42.488281 168.726562 42.71875 169.214844 42.71875 C 169.699219 42.71875 170.113281 42.488281 170.445312 42.03125 C 170.777344 41.5625 170.945312 40.625 170.945312 39.21875 C 170.945312 37.800781 170.777344 36.863281 170.445312 36.40625 C 170.113281 35.9375 169.699219 35.695312 169.214844 35.695312 C 168.726562 35.695312 168.339844 35.898438 168.050781 36.300781 C 167.683594 36.832031 167.507812 37.800781 167.507812 39.21875 Z M 167.507812 39.21875 "/>
<path style=" stroke:none;fill-rule:nonzero;fill:rgb(0%,0%,0%);fill-opacity:1;" d="M 173.683594 43.445312 L 173.683594 42.238281 L 174.890625 42.238281 L 174.890625 43.445312 Z M 173.683594 43.445312 "/>
<path style=" stroke:none;fill-rule:nonzero;fill:rgb(0%,0%,0%);fill-opacity:1;" d="M 176.4375 39.21875 C 176.4375 38.207031 176.542969 37.382812 176.75 36.757812 C 176.957031 36.132812 177.261719 35.65625 177.667969 35.320312 C 178.082031 34.988281 178.605469 34.820312 179.230469 34.820312 C 179.699219 34.820312 180.109375 34.921875 180.457031 35.113281 C 180.800781 35.296875 181.089844 35.5625 181.3125 35.90625 C 181.53125 36.253906 181.707031 36.675781 181.832031 37.175781 C 181.96875 37.675781 182.042969 38.359375 182.042969 39.21875 C 182.042969 40.21875 181.9375 41.03125 181.730469 41.65625 C 181.519531 42.269531 181.207031 42.75 180.792969 43.09375 C 180.386719 43.425781 179.863281 43.59375 179.230469 43.59375 C 178.40625 43.59375 177.761719 43.296875 177.292969 42.695312 C 176.71875 41.988281 176.4375 40.832031 176.4375 39.21875 Z M 177.519531 39.21875 C 177.519531 40.625 177.675781 41.5625 178 42.03125 C 178.332031 42.488281 178.738281 42.71875 179.230469 42.71875 C 179.714844 42.71875 180.125 42.488281 180.457031 42.03125 C 180.792969 41.5625 180.957031 40.625 180.957031 39.21875 C 180.957031 37.800781 180.792969 36.863281 180.457031 36.40625 C 180.125 35.9375 179.714844 35.695312 179.230469 35.695312 C 178.738281 35.695312 178.355469 35.898438 178.0625 36.300781 C 177.699219 36.832031 177.519531 37.800781 177.519531 39.21875 Z M 177.519531 39.21875 "/>
<path style=" stroke:none;fill-rule:nonzero;fill:rgb(0%,0%,0%);fill-opacity:1;" d="M 174.804688 18.242188 L 174.804688 16.179688 L 171.074219 16.179688 L 171.074219 15.222656 L 174.992188 9.660156 L 175.867188 9.660156 L 175.867188 15.222656 L 177.03125 15.222656 L 177.03125 16.179688 L 175.867188 16.179688 L 175.867188 18.242188 Z M 174.804688 15.222656 L 174.804688 11.347656 L 172.117188 15.222656 Z M 174.804688 15.222656 "/>
<path style=" stroke:none;fill-rule:nonzero;fill:rgb(0%,0%,0%);fill-opacity:1;" d="M 14.910156 102.523438 L 8.847656 105.230469 L 8.847656 105.980469 L 14.910156 108.6875 L 14.910156 107.792969 L 9.972656 105.605469 L 14.910156 103.417969 Z M 14.910156 102.523438 "/>
<path style=" stroke:none;fill-rule:nonzero;fill:rgb(0%,0%,0%);fill-opacity:1;" d="M 18.792969 102.335938 C 17.898438 102.335938 17.191406 102.667969 16.667969 103.3125 C 16.148438 103.917969 15.878906 104.6875 15.878906 105.605469 C 15.878906 106.605469 16.148438 107.398438 16.710938 108 C 17.230469 108.585938 17.960938 108.875 18.835938 108.875 C 19.648438 108.875 20.292969 108.648438 20.816406 108.1875 C 21.230469 107.792969 21.523438 107.3125 21.648438 106.710938 L 20.691406 106.710938 C 20.542969 107.148438 20.335938 107.480469 20.066406 107.6875 C 19.753906 107.9375 19.335938 108.0625 18.835938 108.0625 C 18.253906 108.0625 17.773438 107.875 17.441406 107.5 C 17.105469 107.105469 16.941406 106.5625 16.878906 105.875 L 21.773438 105.875 C 21.753906 104.792969 21.523438 103.9375 21.066406 103.355469 C 20.542969 102.667969 19.792969 102.335938 18.792969 102.335938 Z M 18.835938 103.148438 C 20.003906 103.148438 20.667969 103.792969 20.773438 105.125 L 16.898438 105.125 C 16.960938 104.523438 17.148438 104.042969 17.503906 103.6875 C 17.835938 103.3125 18.273438 103.148438 18.835938 103.148438 Z M 18.835938 103.148438 "/>
<path style=" stroke:none;fill-rule:nonzero;fill:rgb(0%,0%,0%);fill-opacity:1;" d="M 25.683594 102.335938 C 24.746094 102.335938 24.015625 102.648438 23.453125 103.292969 C 22.933594 103.917969 22.664062 104.667969 22.664062 105.605469 C 22.664062 106.542969 22.933594 107.3125 23.453125 107.898438 C 24.015625 108.5625 24.746094 108.875 25.683594 108.875 C 26.601562 108.875 27.351562 108.5625 27.914062 107.898438 C 28.433594 107.3125 28.683594 106.542969 28.683594 105.605469 C 28.683594 104.667969 28.433594 103.917969 27.890625 103.292969 C 27.351562 102.648438 26.601562 102.335938 25.683594 102.335938 Z M 25.683594 103.148438 C 26.328125 103.148438 26.851562 103.398438 27.226562 103.898438 C 27.558594 104.355469 27.726562 104.917969 27.726562 105.605469 C 27.726562 106.292969 27.558594 106.855469 27.226562 107.3125 C 26.851562 107.8125 26.328125 108.0625 25.683594 108.0625 C 25.015625 108.0625 24.496094 107.8125 24.140625 107.3125 C 23.808594 106.855469 23.640625 106.292969 23.640625 105.605469 C 23.640625 104.917969 23.808594 104.355469 24.140625 103.898438 C 24.496094 103.398438 25.015625 103.148438 25.683594 103.148438 Z M 25.683594 103.148438 "/>
<path style=" stroke:none;fill-rule:nonzero;fill:rgb(0%,0%,0%);fill-opacity:1;" d="M 32.132812 102.335938 C 31.445312 102.335938 30.863281 102.5 30.425781 102.8125 C 29.964844 103.125 29.738281 103.523438 29.738281 104.0625 C 29.738281 104.585938 29.964844 104.980469 30.445312 105.273438 C 30.738281 105.460938 31.238281 105.648438 31.988281 105.8125 C 32.652344 105.980469 33.089844 106.125 33.300781 106.210938 C 33.675781 106.398438 33.882812 106.667969 33.882812 107.023438 C 33.882812 107.710938 33.320312 108.0625 32.214844 108.0625 C 31.695312 108.0625 31.300781 107.980469 31.027344 107.792969 C 30.757812 107.5625 30.589844 107.230469 30.507812 106.730469 L 29.570312 106.730469 C 29.714844 108.167969 30.613281 108.875 32.238281 108.875 C 33.988281 108.875 34.863281 108.230469 34.863281 106.960938 C 34.863281 106.417969 34.613281 106 34.132812 105.6875 C 33.800781 105.480469 33.277344 105.292969 32.527344 105.105469 C 31.902344 104.9375 31.464844 104.8125 31.238281 104.710938 C 30.882812 104.523438 30.714844 104.292969 30.714844 104.023438 C 30.714844 103.75 30.839844 103.542969 31.113281 103.375 C 31.363281 103.210938 31.695312 103.148438 32.132812 103.148438 C 32.613281 103.148438 33.007812 103.230469 33.257812 103.4375 C 33.507812 103.605469 33.652344 103.875 33.738281 104.273438 L 34.675781 104.273438 C 34.507812 102.980469 33.675781 102.335938 32.132812 102.335938 Z M 32.132812 102.335938 "/>
<path style=" stroke:none;fill-rule:nonzero;fill:rgb(0%,0%,0%);fill-opacity:1;" d="M 35.859375 102.523438 L 35.859375 103.417969 L 40.796875 105.605469 L 35.859375 107.792969 L 35.859375 108.6875 L 41.921875 105.980469 L 41.921875 105.230469 Z M 35.859375 102.523438 "/>
<path style=" stroke:none;fill-rule:nonzero;fill:rgb(0%,0%,0%);fill-opacity:1;" d="M 28.109375 83.359375 L 29.234375 83.648438 C 28.992188 84.582031 28.566406 85.296875 27.941406 85.796875 C 27.328125 86.285156 26.570312 86.523438 25.671875 86.523438 C 24.753906 86.523438 24.003906 86.335938 23.421875 85.960938 C 22.835938 85.585938 22.390625 85.046875 22.085938 84.335938 C 21.796875 83.617188 21.648438 82.847656 21.648438 82.023438 C 21.648438 81.125 21.816406 80.335938 22.148438 79.671875 C 22.492188 79.003906 22.984375 78.503906 23.609375 78.171875 C 24.242188 77.828125 24.941406 77.648438 25.691406 77.648438 C 26.550781 77.648438 27.273438 77.875 27.859375 78.316406 C 28.453125 78.75 28.863281 79.359375 29.085938 80.148438 L 27.960938 80.398438 C 27.765625 79.773438 27.484375 79.328125 27.109375 79.046875 C 26.734375 78.753906 26.253906 78.609375 25.671875 78.609375 C 25.015625 78.609375 24.46875 78.769531 24.023438 79.085938 C 23.578125 79.410156 23.265625 79.835938 23.085938 80.378906 C 22.90625 80.910156 22.816406 81.453125 22.816406 82.003906 C 22.816406 82.742188 22.921875 83.390625 23.128906 83.941406 C 23.347656 84.484375 23.679688 84.890625 24.128906 85.148438 C 24.570312 85.414062 25.054688 85.546875 25.585938 85.546875 C 26.222656 85.546875 26.757812 85.367188 27.191406 85.003906 C 27.632812 84.628906 27.941406 84.082031 28.109375 83.359375 Z M 28.109375 83.359375 "/>
<path style=" stroke:none;fill-rule:nonzero;fill:rgb(0%,0%,0%);fill-opacity:1;" d="M 22.25 64.914062 L 22.25 56.328125 L 25.480469 56.328125 C 26.132812 56.328125 26.652344 56.421875 27.042969 56.601562 C 27.445312 56.765625 27.757812 57.03125 27.980469 57.390625 C 28.214844 57.757812 28.335938 58.132812 28.335938 58.515625 C 28.335938 58.890625 28.230469 59.242188 28.023438 59.558594 C 27.824219 59.882812 27.527344 60.140625 27.125 60.351562 C 27.636719 60.507812 28.03125 60.761719 28.3125 61.121094 C 28.605469 61.484375 28.75 61.914062 28.75 62.414062 C 28.75 62.820312 28.65625 63.195312 28.480469 63.539062 C 28.3125 63.886719 28.105469 64.15625 27.855469 64.351562 C 27.605469 64.53125 27.292969 64.671875 26.917969 64.765625 C 26.542969 64.867188 26.074219 64.914062 25.523438 64.914062 Z M 23.398438 59.933594 L 25.25 59.933594 C 25.75 59.933594 26.109375 59.902344 26.335938 59.828125 C 26.625 59.746094 26.839844 59.609375 26.980469 59.414062 C 27.132812 59.203125 27.210938 58.953125 27.210938 58.664062 C 27.210938 58.371094 27.136719 58.121094 27 57.914062 C 26.859375 57.695312 26.667969 57.539062 26.417969 57.453125 C 26.167969 57.371094 25.730469 57.328125 25.105469 57.328125 L 23.398438 57.328125 Z M 23.398438 63.890625 L 25.523438 63.890625 C 25.898438 63.890625 26.15625 63.882812 26.3125 63.851562 C 26.5625 63.808594 26.777344 63.734375 26.960938 63.621094 C 27.136719 63.511719 27.28125 63.351562 27.398438 63.140625 C 27.507812 62.933594 27.5625 62.695312 27.5625 62.414062 C 27.5625 62.09375 27.480469 61.820312 27.3125 61.578125 C 27.148438 61.34375 26.917969 61.183594 26.625 61.101562 C 26.335938 61.007812 25.917969 60.953125 25.375 60.953125 L 23.398438 60.953125 Z M 23.398438 63.890625 "/>
<path style=" stroke:none;fill-rule:nonzero;fill:rgb(0%,0%,0%);fill-opacity:1;" d="M 21.355469 43.445312 L 24.667969 34.863281 L 25.875 34.863281 L 29.398438 43.445312 L 28.105469 43.445312 L 27.105469 40.84375 L 23.5 40.84375 L 22.5625 43.445312 Z M 23.835938 39.925781 L 26.75 39.925781 L 25.855469 37.53125 C 25.574219 36.8125 25.375 36.21875 25.25 35.757812 C 25.136719 36.316406 24.980469 36.863281 24.773438 37.40625 Z M 23.835938 39.925781 "/>
</g>
</svg>
