<?xml version="1.0" encoding="UTF-8"?>
<svg xmlns="http://www.w3.org/2000/svg" xmlns:xlink="http://www.w3.org/1999/xlink" width="299pt" height="229pt" viewBox="0 0 299 229" version="1.1">
<defs>
<clipPath id="clip1">
  <path d="M 64 9 L 66 9 L 66 182.25 L 64 182.25 Z M 64 9 "/>
</clipPath>
<clipPath id="clip2">
  <path d="M 118 9 L 120 9 L 120 182.25 L 118 182.25 Z M 118 9 "/>
</clipPath>
<clipPath id="clip3">
  <path d="M 172 9 L 174 9 L 174 182.25 L 172 182.25 Z M 172 9 "/>
</clipPath>
<clipPath id="clip4">
  <path d="M 226 9 L 229 9 L 229 182.25 L 226 182.25 Z M 226 9 "/>
</clipPath>
<clipPath id="clip5">
  <path d="M 281 9 L 281.753906 9 L 281.753906 182.25 L 281 182.25 Z M 281 9 "/>
</clipPath>
<clipPath id="clip6">
  <path d="M 37.628906 152 L 281.753906 152 L 281.753906 155 L 37.628906 155 Z M 37.628906 152 "/>
</clipPath>
<clipPath id="clip7">
  <path d="M 37.628906 94 L 281.753906 94 L 281.753906 97 L 37.628906 97 Z M 37.628906 94 "/>
</clipPath>
<clipPath id="clip8">
  <path d="M 37.628906 37 L 281.753906 37 L 281.753906 39 L 37.628906 39 Z M 37.628906 37 "/>
</clipPath>
<clipPath id="clip9">
  <path d="M 43 9 L 281.753906 9 L 281.753906 161 L 43 161 Z M 43 9 "/>
</clipPath>
<clipPath id="clip10">
  <path d="M 37.628906 17 L 281.753906 17 L 281.753906 87 L 37.628906 87 Z M 37.628906 17 "/>
</clipPath>
<clipPath id="clip11">
  <path d="M 37.628906 24 L 281.753906 24 L 281.753906 53 L 37.628906 53 Z M 37.628906 24 "/>
</clipPath>
<filter id="alpha" filterUnits="objectBoundingBox" x="0%" y="0%" width="100%" height="100%">
  <feColorMatrix type="matrix" in="SourceGraphic" values="0 0 0 0 1 0 0 0 0 1 0 0 0 0 1 0 0 0 1 0"/>
</filter>
<mask id="mask0">
  <g filter="url(#alpha)">
<rect x="0" y="0" width="299" height="229" style="fill:rgb(0%,0%,0%);fill-opacity:0.8;stroke:none;"/>
  </g>
</mask>
<clipPath id="clip12">
  <rect x="0" y="0" width="299" height="229"/>
</clipPath>
<g id="surface5" clip-path="url(#clip12)">
<path style="fill-rule:nonzero;fill:rgb(100%,100%,100%);fill-opacity:1;stroke-width:1;stroke-linecap:butt;stroke-linejoin:miter;stroke:rgb(80%,80%,80%);stroke-opacity:1;stroke-miterlimit:4;" d="M 140.634375 100.01875 L 218.403125 100.01875 C 219.7375 100.01875 220.403125 99.35 220.403125 98.01875 L 220.403125 54.98125 C 220.403125 53.65 219.7375 52.98125 218.403125 52.98125 L 140.634375 52.98125 C 139.3 52.98125 138.634375 53.65 138.634375 54.98125 L 138.634375 98.01875 C 138.634375 99.35 139.3 100.01875 140.634375 100.01875 Z M 140.634375 100.01875 " transform="matrix(1.25,0,0,1.25,0.000000000000028422,0)"/>
</g>
</defs>
<g id="surface1">
<path style=" stroke:none;fill-rule:nonzero;fill:rgb(100%,100%,100%);fill-opacity:1;" d="M 0 229.195312 L 298.707031 229.195312 L 298.707031 0 L 0 0 Z M 0 229.195312 "/>
<path style=" stroke:none;fill-rule:nonzero;fill:rgb(100%,100%,100%);fill-opacity:1;" d="M 37.628906 182.25 L 281.753906 182.25 L 281.753906 9 L 37.628906 9 Z M 37.628906 182.25 "/>
<g clip-path="url(#clip1)" clip-rule="nonzero">
<path style="fill:none;stroke-width:0.8;stroke-linecap:square;stroke-linejoin:round;stroke:rgb(69.019608%,69.019608%,69.019608%);stroke-opacity:1;stroke-miterlimit:4;" d="M 51.803125 145.8 L 51.803125 7.2 " transform="matrix(1.25,0,0,1.25,0.000000000000028422,0)"/>
</g>
<path style="fill:none;stroke-width:0.8;stroke-linecap:butt;stroke-linejoin:round;stroke:rgb(0%,0%,0%);stroke-opacity:1;stroke-miterlimit:4;" d="M -0.000000000000014211 0 L -0.000000000000014211 3.5 " transform="matrix(1.25,0,0,1.25,64.753906,182.25)"/>
<path style=" stroke:none;fill-rule:nonzero;fill:rgb(0%,0%,0%);fill-opacity:1;" d="M 63.175781 199.460938 L 67.480469 199.460938 L 67.480469 200.5 L 61.695312 200.5 L 61.695312 199.460938 C 62.160156 198.976562 62.796875 198.328125 63.605469 197.511719 C 64.414062 196.695312 64.921875 196.167969 65.128906 195.933594 C 65.523438 195.488281 65.800781 195.113281 65.957031 194.808594 C 66.113281 194.5 66.191406 194.199219 66.191406 193.902344 C 66.191406 193.417969 66.023438 193.023438 65.683594 192.71875 C 65.34375 192.410156 64.898438 192.257812 64.355469 192.257812 C 63.96875 192.257812 63.558594 192.324219 63.128906 192.460938 C 62.699219 192.59375 62.242188 192.796875 61.753906 193.070312 L 61.753906 191.824219 C 62.25 191.625 62.714844 191.476562 63.144531 191.375 C 63.578125 191.273438 63.972656 191.222656 64.332031 191.222656 C 65.273438 191.222656 66.027344 191.457031 66.589844 191.929688 C 67.148438 192.402344 67.429688 193.03125 67.429688 193.820312 C 67.429688 194.195312 67.359375 194.550781 67.21875 194.886719 C 67.078125 195.222656 66.824219 195.617188 66.453125 196.074219 C 66.351562 196.191406 66.027344 196.53125 65.484375 197.097656 C 64.9375 197.660156 64.167969 198.449219 63.175781 199.460938 Z M 63.175781 199.460938 "/>
<g clip-path="url(#clip2)" clip-rule="nonzero">
<path style="fill:none;stroke-width:0.8;stroke-linecap:square;stroke-linejoin:round;stroke:rgb(69.019608%,69.019608%,69.019608%);stroke-opacity:1;stroke-miterlimit:4;" d="M 95.203125 145.8 L 95.203125 7.2 " transform="matrix(1.25,0,0,1.25,0.000000000000028422,0)"/>
</g>
<path style="fill:none;stroke-width:0.8;stroke-linecap:butt;stroke-linejoin:round;stroke:rgb(0%,0%,0%);stroke-opacity:1;stroke-miterlimit:4;" d="M -0.000000000000014211 0 L -0.000000000000014211 3.5 " transform="matrix(1.25,0,0,1.25,119.003906,182.25)"/>
<path style=" stroke:none;fill-rule:nonzero;fill:rgb(0%,0%,0%);fill-opacity:1;" d="M 119.75 192.460938 L 116.640625 197.324219 L 119.75 197.324219 Z M 119.429688 191.386719 L 120.976562 191.386719 L 120.976562 197.324219 L 122.28125 197.324219 L 122.28125 198.351562 L 120.976562 198.351562 L 120.976562 200.5 L 119.75 200.5 L 119.75 198.351562 L 115.640625 198.351562 L 115.640625 197.160156 Z M 119.429688 191.386719 "/>
<g clip-path="url(#clip3)" clip-rule="nonzero">
<path style="fill:none;stroke-width:0.8;stroke-linecap:square;stroke-linejoin:round;stroke:rgb(69.019608%,69.019608%,69.019608%);stroke-opacity:1;stroke-miterlimit:4;" d="M 138.603125 145.8 L 138.603125 7.2 " transform="matrix(1.25,0,0,1.25,0.000000000000028422,0)"/>
</g>
<path style="fill:none;stroke-width:0.8;stroke-linecap:butt;stroke-linejoin:round;stroke:rgb(0%,0%,0%);stroke-opacity:1;stroke-miterlimit:4;" d="M 0 0 L 0 3.5 " transform="matrix(1.25,0,0,1.25,173.253906,182.25)"/>
<path style=" stroke:none;fill-rule:nonzero;fill:rgb(0%,0%,0%);fill-opacity:1;" d="M 173.40625 195.453125 C 172.851562 195.453125 172.414062 195.640625 172.085938 196.019531 C 171.765625 196.398438 171.601562 196.914062 171.601562 197.574219 C 171.601562 198.230469 171.765625 198.746094 172.085938 199.128906 C 172.414062 199.507812 172.851562 199.699219 173.40625 199.699219 C 173.957031 199.699219 174.394531 199.507812 174.71875 199.128906 C 175.042969 198.746094 175.203125 198.230469 175.203125 197.574219 C 175.203125 196.914062 175.042969 196.398438 174.71875 196.019531 C 174.394531 195.640625 173.957031 195.453125 173.40625 195.453125 Z M 175.851562 191.585938 L 175.851562 192.710938 C 175.542969 192.5625 175.230469 192.453125 174.914062 192.375 C 174.597656 192.296875 174.285156 192.257812 173.976562 192.257812 C 173.164062 192.257812 172.539062 192.53125 172.109375 193.082031 C 171.683594 193.632812 171.4375 194.460938 171.375 195.574219 C 171.617188 195.21875 171.917969 194.945312 172.28125 194.757812 C 172.640625 194.570312 173.042969 194.476562 173.476562 194.476562 C 174.390625 194.476562 175.117188 194.753906 175.648438 195.308594 C 176.179688 195.863281 176.445312 196.617188 176.445312 197.574219 C 176.445312 198.511719 176.167969 199.261719 175.613281 199.828125 C 175.058594 200.394531 174.324219 200.675781 173.40625 200.675781 C 172.351562 200.675781 171.542969 200.273438 170.984375 199.464844 C 170.429688 198.65625 170.148438 197.484375 170.148438 195.953125 C 170.148438 194.511719 170.492188 193.363281 171.175781 192.507812 C 171.859375 191.648438 172.777344 191.222656 173.929688 191.222656 C 174.238281 191.222656 174.550781 191.25 174.867188 191.3125 C 175.179688 191.375 175.507812 191.464844 175.851562 191.585938 Z M 175.851562 191.585938 "/>
<g clip-path="url(#clip4)" clip-rule="nonzero">
<path style="fill:none;stroke-width:0.8;stroke-linecap:square;stroke-linejoin:round;stroke:rgb(69.019608%,69.019608%,69.019608%);stroke-opacity:1;stroke-miterlimit:4;" d="M 182.003125 145.8 L 182.003125 7.2 " transform="matrix(1.25,0,0,1.25,0.000000000000028422,0)"/>
</g>
<path style="fill:none;stroke-width:0.8;stroke-linecap:butt;stroke-linejoin:round;stroke:rgb(0%,0%,0%);stroke-opacity:1;stroke-miterlimit:4;" d="M 0 0 L 0 3.5 " transform="matrix(1.25,0,0,1.25,227.503906,182.25)"/>
<path style=" stroke:none;fill-rule:nonzero;fill:rgb(0%,0%,0%);fill-opacity:1;" d="M 227.5 196.171875 C 226.914062 196.171875 226.453125 196.328125 226.117188 196.640625 C 225.78125 196.953125 225.617188 197.386719 225.617188 197.933594 C 225.617188 198.484375 225.78125 198.914062 226.117188 199.230469 C 226.453125 199.542969 226.914062 199.699219 227.5 199.699219 C 228.085938 199.699219 228.546875 199.542969 228.882812 199.226562 C 229.222656 198.910156 229.390625 198.480469 229.390625 197.933594 C 229.390625 197.386719 229.226562 196.953125 228.890625 196.640625 C 228.554688 196.328125 228.089844 196.171875 227.5 196.171875 Z M 226.265625 195.648438 C 225.738281 195.515625 225.328125 195.269531 225.03125 194.910156 C 224.738281 194.546875 224.589844 194.101562 224.589844 193.582031 C 224.589844 192.855469 224.847656 192.277344 225.367188 191.855469 C 225.886719 191.433594 226.597656 191.222656 227.5 191.222656 C 228.40625 191.222656 229.121094 191.433594 229.636719 191.855469 C 230.152344 192.277344 230.414062 192.855469 230.414062 193.582031 C 230.414062 194.101562 230.265625 194.546875 229.96875 194.910156 C 229.675781 195.269531 229.265625 195.515625 228.742188 195.648438 C 229.335938 195.785156 229.796875 196.054688 230.125 196.460938 C 230.460938 196.863281 230.625 197.351562 230.625 197.933594 C 230.625 198.816406 230.355469 199.496094 229.816406 199.96875 C 229.277344 200.441406 228.503906 200.675781 227.5 200.675781 C 226.496094 200.675781 225.722656 200.441406 225.183594 199.96875 C 224.644531 199.496094 224.375 198.816406 224.375 197.933594 C 224.375 197.351562 224.542969 196.863281 224.875 196.460938 C 225.210938 196.054688 225.671875 195.785156 226.265625 195.648438 Z M 225.816406 193.699219 C 225.816406 194.171875 225.964844 194.539062 226.257812 194.804688 C 226.554688 195.066406 226.96875 195.199219 227.5 195.199219 C 228.03125 195.199219 228.445312 195.066406 228.742188 194.804688 C 229.042969 194.539062 229.191406 194.171875 229.191406 193.699219 C 229.191406 193.226562 229.042969 192.859375 228.742188 192.59375 C 228.445312 192.328125 228.03125 192.199219 227.5 192.199219 C 226.96875 192.199219 226.554688 192.328125 226.257812 192.59375 C 225.964844 192.859375 225.816406 193.226562 225.816406 193.699219 Z M 225.816406 193.699219 "/>
<g clip-path="url(#clip5)" clip-rule="nonzero">
<path style="fill:none;stroke-width:0.8;stroke-linecap:square;stroke-linejoin:round;stroke:rgb(69.019608%,69.019608%,69.019608%);stroke-opacity:1;stroke-miterlimit:4;" d="M 225.403125 145.8 L 225.403125 7.2 " transform="matrix(1.25,0,0,1.25,0.000000000000028422,0)"/>
</g>
<path style="fill:none;stroke-width:0.8;stroke-linecap:butt;stroke-linejoin:round;stroke:rgb(0%,0%,0%);stroke-opacity:1;stroke-miterlimit:4;" d="M 0 0 L 0 3.5 " transform="matrix(1.25,0,0,1.25,281.753906,182.25)"/>
<path style=" stroke:none;fill-rule:nonzero;fill:rgb(0%,0%,0%);fill-opacity:1;" d="M 275.351562 199.460938 L 277.367188 199.460938 L 277.367188 192.507812 L 275.171875 192.949219 L 275.171875 191.824219 L 277.351562 191.386719 L 278.585938 191.386719 L 278.585938 199.460938 L 280.601562 199.460938 L 280.601562 200.5 L 275.351562 200.5 Z M 275.351562 199.460938 "/>
<path style=" stroke:none;fill-rule:nonzero;fill:rgb(0%,0%,0%);fill-opacity:1;" d="M 285.726562 192.199219 C 285.09375 192.199219 284.613281 192.511719 284.292969 193.136719 C 283.976562 193.757812 283.816406 194.699219 283.816406 195.953125 C 283.816406 197.199219 283.976562 198.136719 284.292969 198.761719 C 284.613281 199.386719 285.09375 199.699219 285.726562 199.699219 C 286.367188 199.699219 286.84375 199.386719 287.164062 198.761719 C 287.484375 198.136719 287.644531 197.199219 287.644531 195.953125 C 287.644531 194.699219 287.484375 193.757812 287.164062 193.136719 C 286.84375 192.511719 286.367188 192.199219 285.726562 192.199219 Z M 285.726562 191.222656 C 286.75 191.222656 287.527344 191.625 288.066406 192.433594 C 288.605469 193.242188 288.875 194.414062 288.875 195.953125 C 288.875 197.484375 288.605469 198.65625 288.066406 199.464844 C 287.527344 200.273438 286.75 200.675781 285.726562 200.675781 C 284.707031 200.675781 283.925781 200.273438 283.386719 199.464844 C 282.847656 198.65625 282.578125 197.484375 282.578125 195.953125 C 282.578125 194.414062 282.847656 193.242188 283.386719 192.433594 C 283.925781 191.625 284.707031 191.222656 285.726562 191.222656 Z M 285.726562 191.222656 "/>
<path style=" stroke:none;fill-rule:nonzero;fill:rgb(0%,0%,0%);fill-opacity:1;" d="M 147.679688 213.898438 L 147.679688 214.445312 L 142.515625 214.445312 C 142.566406 215.21875 142.800781 215.808594 143.21875 216.214844 C 143.632812 216.617188 144.214844 216.820312 144.960938 216.820312 C 145.390625 216.820312 145.808594 216.769531 146.210938 216.664062 C 146.617188 216.558594 147.019531 216.398438 147.421875 216.1875 L 147.421875 217.25 C 147.015625 217.417969 146.601562 217.550781 146.179688 217.640625 C 145.757812 217.730469 145.328125 217.773438 144.890625 217.773438 C 143.800781 217.773438 142.9375 217.457031 142.300781 216.824219 C 141.664062 216.1875 141.34375 215.328125 141.34375 214.246094 C 141.34375 213.125 141.648438 212.238281 142.25 211.582031 C 142.855469 210.925781 143.671875 210.597656 144.695312 210.597656 C 145.617188 210.597656 146.34375 210.890625 146.878906 211.484375 C 147.414062 212.074219 147.679688 212.878906 147.679688 213.898438 Z M 146.558594 213.566406 C 146.550781 212.953125 146.378906 212.464844 146.042969 212.097656 C 145.707031 211.730469 145.261719 211.546875 144.710938 211.546875 C 144.082031 211.546875 143.582031 211.722656 143.203125 212.078125 C 142.828125 212.433594 142.613281 212.929688 142.554688 213.574219 Z M 146.558594 213.566406 "/>
<path style=" stroke:none;fill-rule:nonzero;fill:rgb(0%,0%,0%);fill-opacity:1;" d="M 150.609375 216.570312 L 150.609375 220.195312 L 149.480469 220.195312 L 149.480469 210.761719 L 150.609375 210.761719 L 150.609375 211.796875 C 150.847656 211.390625 151.144531 211.089844 151.503906 210.894531 C 151.867188 210.695312 152.296875 210.597656 152.796875 210.597656 C 153.625 210.597656 154.300781 210.925781 154.820312 211.585938 C 155.339844 212.242188 155.597656 213.109375 155.597656 214.183594 C 155.597656 215.257812 155.339844 216.125 154.820312 216.785156 C 154.300781 217.445312 153.625 217.773438 152.796875 217.773438 C 152.296875 217.773438 151.867188 217.675781 151.503906 217.476562 C 151.144531 217.277344 150.847656 216.976562 150.609375 216.570312 Z M 154.433594 214.183594 C 154.433594 213.359375 154.261719 212.710938 153.921875 212.242188 C 153.582031 211.769531 153.117188 211.535156 152.523438 211.535156 C 151.925781 211.535156 151.460938 211.769531 151.121094 212.242188 C 150.78125 212.710938 150.609375 213.359375 150.609375 214.183594 C 150.609375 215.007812 150.78125 215.65625 151.121094 216.128906 C 151.460938 216.597656 151.925781 216.832031 152.523438 216.832031 C 153.117188 216.832031 153.582031 216.597656 153.921875 216.128906 C 154.261719 215.65625 154.433594 215.007812 154.433594 214.183594 Z M 154.433594 214.183594 "/>
<path style=" stroke:none;fill-rule:nonzero;fill:rgb(0%,0%,0%);fill-opacity:1;" d="M 160.109375 211.546875 C 159.507812 211.546875 159.03125 211.78125 158.679688 212.253906 C 158.328125 212.722656 158.15625 213.367188 158.15625 214.183594 C 158.15625 215 158.328125 215.644531 158.675781 216.117188 C 159.023438 216.585938 159.5 216.820312 160.109375 216.820312 C 160.707031 216.820312 161.179688 216.585938 161.53125 216.113281 C 161.878906 215.640625 162.054688 214.996094 162.054688 214.183594 C 162.054688 213.375 161.878906 212.730469 161.53125 212.257812 C 161.179688 211.785156 160.707031 211.546875 160.109375 211.546875 Z M 160.109375 210.597656 C 161.085938 210.597656 161.851562 210.914062 162.40625 211.550781 C 162.96875 212.183594 163.246094 213.0625 163.246094 214.183594 C 163.246094 215.300781 162.96875 216.179688 162.40625 216.820312 C 161.851562 217.457031 161.085938 217.773438 160.109375 217.773438 C 159.125 217.773438 158.359375 217.457031 157.804688 216.820312 C 157.25 216.179688 156.96875 215.300781 156.96875 214.183594 C 156.96875 213.0625 157.25 212.183594 157.804688 211.550781 C 158.359375 210.914062 159.125 210.597656 160.109375 210.597656 Z M 160.109375 210.597656 "/>
<path style=" stroke:none;fill-rule:nonzero;fill:rgb(0%,0%,0%);fill-opacity:1;" d="M 170.027344 211.023438 L 170.027344 212.074219 C 169.707031 211.898438 169.390625 211.765625 169.070312 211.679688 C 168.753906 211.589844 168.429688 211.546875 168.105469 211.546875 C 167.375 211.546875 166.808594 211.777344 166.40625 212.242188 C 166.003906 212.703125 165.800781 213.347656 165.800781 214.183594 C 165.800781 215.019531 166.003906 215.667969 166.40625 216.128906 C 166.808594 216.589844 167.375 216.820312 168.105469 216.820312 C 168.429688 216.820312 168.753906 216.777344 169.070312 216.691406 C 169.390625 216.601562 169.707031 216.472656 170.027344 216.296875 L 170.027344 217.335938 C 169.710938 217.480469 169.386719 217.589844 169.050781 217.664062 C 168.71875 217.738281 168.359375 217.773438 167.980469 217.773438 C 166.953125 217.773438 166.132812 217.449219 165.527344 216.804688 C 164.921875 216.15625 164.617188 215.28125 164.617188 214.183594 C 164.617188 213.070312 164.925781 212.191406 165.535156 211.554688 C 166.148438 210.914062 166.988281 210.597656 168.054688 210.597656 C 168.402344 210.597656 168.738281 210.632812 169.066406 210.703125 C 169.398438 210.773438 169.714844 210.878906 170.027344 211.023438 Z M 170.027344 211.023438 "/>
<path style=" stroke:none;fill-rule:nonzero;fill:rgb(0%,0%,0%);fill-opacity:1;" d="M 177.664062 213.46875 L 177.664062 217.597656 L 176.539062 217.597656 L 176.539062 213.507812 C 176.539062 212.859375 176.414062 212.375 176.160156 212.054688 C 175.910156 211.734375 175.53125 211.574219 175.027344 211.574219 C 174.417969 211.574219 173.941406 211.765625 173.589844 212.152344 C 173.242188 212.539062 173.066406 213.066406 173.066406 213.734375 L 173.066406 217.597656 L 171.9375 217.597656 L 171.9375 208.097656 L 173.066406 208.097656 L 173.066406 211.824219 C 173.335938 211.410156 173.652344 211.105469 174.015625 210.902344 C 174.378906 210.699219 174.800781 210.597656 175.277344 210.597656 C 176.0625 210.597656 176.65625 210.839844 177.058594 211.324219 C 177.460938 211.808594 177.664062 212.523438 177.664062 213.46875 Z M 177.664062 213.46875 "/>
<g clip-path="url(#clip6)" clip-rule="nonzero">
<path style="fill:none;stroke-width:0.8;stroke-linecap:square;stroke-linejoin:round;stroke:rgb(69.019608%,69.019608%,69.019608%);stroke-opacity:1;stroke-miterlimit:4;" d="M 30.103125 122.7 L 225.403125 122.7 " transform="matrix(1.25,0,0,1.25,0.000000000000028422,0)"/>
</g>
<path style="fill:none;stroke-width:0.8;stroke-linecap:butt;stroke-linejoin:round;stroke:rgb(0%,0%,0%);stroke-opacity:1;stroke-miterlimit:4;" d="M -0.000000000000017764 0 L -3.5 0 " transform="matrix(1.25,0,0,1.25,37.628906,153.375)"/>
<path style=" stroke:none;fill-rule:nonzero;fill:rgb(0%,0%,0%);fill-opacity:1;" d="M 12.972656 149.824219 C 12.339844 149.824219 11.863281 150.136719 11.542969 150.761719 C 11.222656 151.382812 11.0625 152.324219 11.0625 153.578125 C 11.0625 154.824219 11.222656 155.761719 11.542969 156.386719 C 11.863281 157.011719 12.339844 157.324219 12.972656 157.324219 C 13.613281 157.324219 14.089844 157.011719 14.410156 156.386719 C 14.730469 155.761719 14.890625 154.824219 14.890625 153.578125 C 14.890625 152.324219 14.730469 151.382812 14.410156 150.761719 C 14.089844 150.136719 13.613281 149.824219 12.972656 149.824219 Z M 12.972656 148.847656 C 13.996094 148.847656 14.777344 149.25 15.316406 150.058594 C 15.855469 150.867188 16.125 152.039062 16.125 153.578125 C 16.125 155.109375 15.855469 156.28125 15.316406 157.089844 C 14.777344 157.898438 13.996094 158.300781 12.972656 158.300781 C 11.953125 158.300781 11.171875 157.898438 10.632812 157.089844 C 10.09375 156.28125 9.824219 155.109375 9.824219 153.578125 C 9.824219 152.039062 10.09375 150.867188 10.632812 150.058594 C 11.171875 149.25 11.953125 148.847656 12.972656 148.847656 Z M 12.972656 148.847656 "/>
<path style=" stroke:none;fill-rule:nonzero;fill:rgb(0%,0%,0%);fill-opacity:1;" d="M 18.289062 156.574219 L 19.578125 156.574219 L 19.578125 158.125 L 18.289062 158.125 Z M 18.289062 156.574219 "/>
<path style=" stroke:none;fill-rule:nonzero;fill:rgb(0%,0%,0%);fill-opacity:1;" d="M 25.652344 150.085938 L 22.539062 154.949219 L 25.652344 154.949219 Z M 25.328125 149.011719 L 26.878906 149.011719 L 26.878906 154.949219 L 28.179688 154.949219 L 28.179688 155.976562 L 26.878906 155.976562 L 26.878906 158.125 L 25.652344 158.125 L 25.652344 155.976562 L 21.539062 155.976562 L 21.539062 154.785156 Z M 25.328125 149.011719 "/>
<g clip-path="url(#clip7)" clip-rule="nonzero">
<path style="fill:none;stroke-width:0.8;stroke-linecap:square;stroke-linejoin:round;stroke:rgb(69.019608%,69.019608%,69.019608%);stroke-opacity:1;stroke-miterlimit:4;" d="M 30.103125 76.5 L 225.403125 76.5 " transform="matrix(1.25,0,0,1.25,0.000000000000028422,0)"/>
</g>
<path style="fill:none;stroke-width:0.8;stroke-linecap:butt;stroke-linejoin:round;stroke:rgb(0%,0%,0%);stroke-opacity:1;stroke-miterlimit:4;" d="M -0.000000000000017764 0 L -3.5 0 " transform="matrix(1.25,0,0,1.25,37.628906,95.625)"/>
<path style=" stroke:none;fill-rule:nonzero;fill:rgb(0%,0%,0%);fill-opacity:1;" d="M 12.972656 92.074219 C 12.339844 92.074219 11.863281 92.386719 11.542969 93.011719 C 11.222656 93.632812 11.0625 94.574219 11.0625 95.828125 C 11.0625 97.074219 11.222656 98.011719 11.542969 98.636719 C 11.863281 99.261719 12.339844 99.574219 12.972656 99.574219 C 13.613281 99.574219 14.089844 99.261719 14.410156 98.636719 C 14.730469 98.011719 14.890625 97.074219 14.890625 95.828125 C 14.890625 94.574219 14.730469 93.632812 14.410156 93.011719 C 14.089844 92.386719 13.613281 92.074219 12.972656 92.074219 Z M 12.972656 91.097656 C 13.996094 91.097656 14.777344 91.5 15.316406 92.308594 C 15.855469 93.117188 16.125 94.289062 16.125 95.828125 C 16.125 97.359375 15.855469 98.53125 15.316406 99.339844 C 14.777344 100.148438 13.996094 100.550781 12.972656 100.550781 C 11.953125 100.550781 11.171875 100.148438 10.632812 99.339844 C 10.09375 98.53125 9.824219 97.359375 9.824219 95.828125 C 9.824219 94.289062 10.09375 93.117188 10.632812 92.308594 C 11.171875 91.5 11.953125 91.097656 12.972656 91.097656 Z M 12.972656 91.097656 "/>
<path style=" stroke:none;fill-rule:nonzero;fill:rgb(0%,0%,0%);fill-opacity:1;" d="M 18.289062 98.824219 L 19.578125 98.824219 L 19.578125 100.375 L 18.289062 100.375 Z M 18.289062 98.824219 "/>
<path style=" stroke:none;fill-rule:nonzero;fill:rgb(0%,0%,0%);fill-opacity:1;" d="M 25.054688 95.328125 C 24.5 95.328125 24.0625 95.515625 23.738281 95.894531 C 23.414062 96.273438 23.253906 96.792969 23.253906 97.449219 C 23.253906 98.105469 23.414062 98.625 23.738281 99.003906 C 24.0625 99.386719 24.5 99.574219 25.054688 99.574219 C 25.605469 99.574219 26.042969 99.386719 26.367188 99.003906 C 26.691406 98.625 26.851562 98.105469 26.851562 97.449219 C 26.851562 96.792969 26.691406 96.273438 26.367188 95.894531 C 26.042969 95.515625 25.605469 95.328125 25.054688 95.328125 Z M 27.5 91.460938 L 27.5 92.585938 C 27.191406 92.4375 26.878906 92.328125 26.5625 92.25 C 26.246094 92.171875 25.933594 92.132812 25.625 92.132812 C 24.8125 92.132812 24.191406 92.410156 23.761719 92.957031 C 23.332031 93.507812 23.085938 94.335938 23.027344 95.449219 C 23.265625 95.09375 23.566406 94.824219 23.929688 94.632812 C 24.292969 94.445312 24.691406 94.351562 25.125 94.351562 C 26.039062 94.351562 26.765625 94.628906 27.296875 95.183594 C 27.828125 95.738281 28.09375 96.496094 28.09375 97.449219 C 28.09375 98.386719 27.816406 99.136719 27.261719 99.703125 C 26.707031 100.269531 25.972656 100.550781 25.054688 100.550781 C 24 100.550781 23.191406 100.148438 22.636719 99.339844 C 22.078125 98.53125 21.800781 97.359375 21.800781 95.828125 C 21.800781 94.386719 22.140625 93.238281 22.824219 92.382812 C 23.507812 91.523438 24.425781 91.097656 25.578125 91.097656 C 25.886719 91.097656 26.199219 91.128906 26.515625 91.1875 C 26.828125 91.25 27.15625 91.339844 27.5 91.460938 Z M 27.5 91.460938 "/>
<g clip-path="url(#clip8)" clip-rule="nonzero">
<path style="fill:none;stroke-width:0.8;stroke-linecap:square;stroke-linejoin:round;stroke:rgb(69.019608%,69.019608%,69.019608%);stroke-opacity:1;stroke-miterlimit:4;" d="M 30.103125 30.3 L 225.403125 30.3 " transform="matrix(1.25,0,0,1.25,0.000000000000028422,0)"/>
</g>
<path style="fill:none;stroke-width:0.8;stroke-linecap:butt;stroke-linejoin:round;stroke:rgb(0%,0%,0%);stroke-opacity:1;stroke-miterlimit:4;" d="M -0.000000000000017764 0 L -3.5 0 " transform="matrix(1.25,0,0,1.25,37.628906,37.875)"/>
<path style=" stroke:none;fill-rule:nonzero;fill:rgb(0%,0%,0%);fill-opacity:1;" d="M 12.972656 34.324219 C 12.339844 34.324219 11.863281 34.636719 11.542969 35.261719 C 11.222656 35.882812 11.0625 36.824219 11.0625 38.078125 C 11.0625 39.324219 11.222656 40.261719 11.542969 40.886719 C 11.863281 41.511719 12.339844 41.824219 12.972656 41.824219 C 13.613281 41.824219 14.089844 41.511719 14.410156 40.886719 C 14.730469 40.261719 14.890625 39.324219 14.890625 38.078125 C 14.890625 36.824219 14.730469 35.882812 14.410156 35.261719 C 14.089844 34.636719 13.613281 34.324219 12.972656 34.324219 Z M 12.972656 33.347656 C 13.996094 33.347656 14.777344 33.75 15.316406 34.558594 C 15.855469 35.367188 16.125 36.539062 16.125 38.078125 C 16.125 39.609375 15.855469 40.78125 15.316406 41.589844 C 14.777344 42.398438 13.996094 42.800781 12.972656 42.800781 C 11.953125 42.800781 11.171875 42.398438 10.632812 41.589844 C 10.09375 40.78125 9.824219 39.609375 9.824219 38.078125 C 9.824219 36.539062 10.09375 35.367188 10.632812 34.558594 C 11.171875 33.75 11.953125 33.347656 12.972656 33.347656 Z M 12.972656 33.347656 "/>
<path style=" stroke:none;fill-rule:nonzero;fill:rgb(0%,0%,0%);fill-opacity:1;" d="M 18.289062 41.074219 L 19.578125 41.074219 L 19.578125 42.625 L 18.289062 42.625 Z M 18.289062 41.074219 "/>
<path style=" stroke:none;fill-rule:nonzero;fill:rgb(0%,0%,0%);fill-opacity:1;" d="M 24.898438 38.296875 C 24.3125 38.296875 23.851562 38.453125 23.515625 38.765625 C 23.179688 39.082031 23.015625 39.511719 23.015625 40.058594 C 23.015625 40.609375 23.179688 41.039062 23.515625 41.355469 C 23.851562 41.667969 24.3125 41.824219 24.898438 41.824219 C 25.484375 41.824219 25.945312 41.667969 26.285156 41.351562 C 26.621094 41.035156 26.792969 40.605469 26.792969 40.058594 C 26.792969 39.511719 26.625 39.082031 26.289062 38.765625 C 25.953125 38.453125 25.488281 38.296875 24.898438 38.296875 Z M 23.667969 37.773438 C 23.136719 37.640625 22.726562 37.394531 22.429688 37.035156 C 22.136719 36.671875 21.988281 36.230469 21.988281 35.707031 C 21.988281 34.980469 22.246094 34.40625 22.765625 33.980469 C 23.285156 33.558594 23.996094 33.347656 24.898438 33.347656 C 25.804688 33.347656 26.519531 33.558594 27.035156 33.980469 C 27.550781 34.40625 27.8125 34.980469 27.8125 35.707031 C 27.8125 36.230469 27.664062 36.671875 27.367188 37.035156 C 27.074219 37.394531 26.664062 37.640625 26.140625 37.773438 C 26.734375 37.910156 27.195312 38.179688 27.527344 38.585938 C 27.859375 38.988281 28.023438 39.480469 28.023438 40.058594 C 28.023438 40.945312 27.753906 41.621094 27.214844 42.09375 C 26.675781 42.566406 25.902344 42.800781 24.898438 42.800781 C 23.894531 42.800781 23.121094 42.566406 22.582031 42.09375 C 22.042969 41.621094 21.773438 40.945312 21.773438 40.058594 C 21.773438 39.480469 21.941406 38.988281 22.273438 38.585938 C 22.609375 38.179688 23.074219 37.910156 23.667969 37.773438 Z M 23.214844 35.824219 C 23.214844 36.296875 23.363281 36.664062 23.65625 36.929688 C 23.953125 37.191406 24.367188 37.324219 24.898438 37.324219 C 25.429688 37.324219 25.84375 37.191406 26.140625 36.929688 C 26.441406 36.664062 26.589844 36.296875 26.589844 35.824219 C 26.589844 35.351562 26.441406 34.984375 26.140625 34.71875 C 25.84375 34.457031 25.429688 34.324219 24.898438 34.324219 C 24.367188 34.324219 23.953125 34.457031 23.65625 34.71875 C 23.363281 34.984375 23.214844 35.351562 23.214844 35.824219 Z M 23.214844 35.824219 "/>
<g clip-path="url(#clip9)" clip-rule="nonzero">
<path style="fill:none;stroke-width:1.5;stroke-linecap:square;stroke-linejoin:round;stroke:rgb(12.156863%,46.666667%,70.588235%);stroke-opacity:1;stroke-miterlimit:4;" d="M 35.51875 -1 L 51.803125 77.078125 L 73.503125 94.853125 L 95.203125 104.66875 L 116.903125 110.30625 L 138.603125 114.7375 L 160.303125 118.928125 L 182.003125 121.86875 L 203.703125 124.821875 L 225.403125 127.421875 " transform="matrix(1.25,0,0,1.25,0.000000000000028422,0)"/>
</g>
<g clip-path="url(#clip10)" clip-rule="nonzero">
<path style="fill:none;stroke-width:1.5;stroke-linecap:butt;stroke-linejoin:round;stroke:rgb(74.901961%,0%,74.901961%);stroke-opacity:1;stroke-dasharray:5.55,2.4;stroke-miterlimit:4;" d="M 30.103125 68.58125 L 51.803125 32.2375 L 73.503125 26.20625 L 95.203125 22.915625 L 116.903125 20.78125 L 138.603125 19.48125 L 160.303125 17.909375 L 182.003125 16.840625 L 203.703125 15.825 L 225.403125 14.96875 " transform="matrix(1.25,0,0,1.25,0.000000000000028422,0)"/>
</g>
<g clip-path="url(#clip11)" clip-rule="nonzero">
<path style="fill:none;stroke-width:1.5;stroke-linecap:butt;stroke-linejoin:round;stroke:rgb(0%,50.196078%,0%);stroke-opacity:1;stroke-dasharray:9.6,2.4,1.5,2.4;stroke-miterlimit:4;" d="M 30.103125 41.271875 L 51.803125 29.028125 L 73.503125 31.3625 L 95.203125 24.3875 L 116.903125 21.753125 L 138.603125 24.178125 L 160.303125 20.990625 L 182.003125 27.090625 L 203.703125 20.18125 L 225.403125 21.590625 " transform="matrix(1.25,0,0,1.25,0.000000000000028422,0)"/>
</g>
<path style="fill:none;stroke-width:0.8;stroke-linecap:square;stroke-linejoin:miter;stroke:rgb(0%,0%,0%);stroke-opacity:1;stroke-miterlimit:4;" d="M 30.103125 145.8 L 30.103125 7.2 " transform="matrix(1.25,0,0,1.25,0.000000000000028422,0)"/>
<path style="fill:none;stroke-width:0.8;stroke-linecap:square;stroke-linejoin:miter;stroke:rgb(0%,0%,0%);stroke-opacity:1;stroke-miterlimit:4;" d="M 225.403125 145.8 L 225.403125 7.2 " transform="matrix(1.25,0,0,1.25,0.000000000000028422,0)"/>
<path style="fill:none;stroke-width:0.8;stroke-linecap:square;stroke-linejoin:miter;stroke:rgb(0%,0%,0%);stroke-opacity:1;stroke-miterlimit:4;" d="M 30.103125 145.8 L 225.403125 145.8 " transform="matrix(1.25,0,0,1.25,0.000000000000028422,0)"/>
<path style="fill:none;stroke-width:0.8;stroke-linecap:square;stroke-linejoin:miter;stroke:rgb(0%,0%,0%);stroke-opacity:1;stroke-miterlimit:4;" d="M 30.103125 7.2 L 225.403125 7.2 " transform="matrix(1.25,0,0,1.25,0.000000000000028422,0)"/>
<use xlink:href="#surface5" mask="url(#mask0)"/>
<path style="fill:none;stroke-width:1.5;stroke-linecap:square;stroke-linejoin:round;stroke:rgb(12.156863%,46.666667%,70.588235%);stroke-opacity:1;stroke-miterlimit:4;" d="M 142.634375 61.08125 L 162.634375 61.08125 " transform="matrix(1.25,0,0,1.25,0.000000000000028422,0)"/>
<path style=" stroke:none;fill-rule:nonzero;fill:rgb(0%,0%,0%);fill-opacity:1;" d="M 215.582031 71.949219 L 215.582031 73.890625 L 217.894531 73.890625 L 217.894531 74.765625 L 215.582031 74.765625 L 215.582031 78.476562 C 215.582031 79.03125 215.65625 79.390625 215.8125 79.546875 C 215.960938 79.707031 216.273438 79.789062 216.742188 79.789062 L 217.894531 79.789062 L 217.894531 80.726562 L 216.742188 80.726562 C 215.875 80.726562 215.277344 80.566406 214.945312 80.242188 C 214.617188 79.917969 214.453125 79.328125 214.453125 78.476562 L 214.453125 74.765625 L 213.628906 74.765625 L 213.628906 73.890625 L 214.453125 73.890625 L 214.453125 71.949219 Z M 215.582031 71.949219 "/>
<path style=" stroke:none;fill-rule:nonzero;fill:rgb(0%,0%,0%);fill-opacity:1;" d="M 223.332031 74.9375 C 223.207031 74.867188 223.070312 74.8125 222.921875 74.78125 C 222.773438 74.742188 222.609375 74.726562 222.429688 74.726562 C 221.796875 74.726562 221.308594 74.933594 220.96875 75.34375 C 220.628906 75.757812 220.457031 76.351562 220.457031 77.125 L 220.457031 80.726562 L 219.328125 80.726562 L 219.328125 73.890625 L 220.457031 73.890625 L 220.457031 74.953125 C 220.695312 74.539062 221.003906 74.230469 221.378906 74.03125 C 221.757812 73.828125 222.21875 73.726562 222.761719 73.726562 C 222.835938 73.726562 222.921875 73.730469 223.015625 73.742188 C 223.109375 73.75 223.214844 73.765625 223.328125 73.789062 Z M 223.332031 74.9375 "/>
<path style=" stroke:none;fill-rule:nonzero;fill:rgb(0%,0%,0%);fill-opacity:1;" d="M 227.617188 77.289062 C 226.710938 77.289062 226.082031 77.394531 225.730469 77.601562 C 225.382812 77.808594 225.207031 78.164062 225.207031 78.664062 C 225.207031 79.0625 225.335938 79.378906 225.601562 79.613281 C 225.863281 79.847656 226.21875 79.960938 226.671875 79.960938 C 227.292969 79.960938 227.792969 79.742188 228.171875 79.300781 C 228.546875 78.859375 228.734375 78.273438 228.734375 77.539062 L 228.734375 77.289062 Z M 229.859375 76.828125 L 229.859375 80.726562 L 228.734375 80.726562 L 228.734375 79.6875 C 228.480469 80.101562 228.160156 80.410156 227.777344 80.609375 C 227.394531 80.804688 226.925781 80.90625 226.371094 80.90625 C 225.671875 80.90625 225.117188 80.707031 224.703125 80.3125 C 224.289062 79.921875 224.082031 79.394531 224.082031 78.734375 C 224.082031 77.96875 224.339844 77.390625 224.855469 77 C 225.371094 76.609375 226.136719 76.414062 227.160156 76.414062 L 228.734375 76.414062 L 228.734375 76.300781 C 228.734375 75.785156 228.566406 75.382812 228.226562 75.101562 C 227.886719 74.820312 227.410156 74.679688 226.792969 74.679688 C 226.402344 74.679688 226.023438 74.726562 225.652344 74.820312 C 225.28125 74.914062 224.925781 75.054688 224.585938 75.242188 L 224.585938 74.203125 C 224.996094 74.042969 225.394531 73.921875 225.78125 73.84375 C 226.167969 73.765625 226.542969 73.726562 226.910156 73.726562 C 227.898438 73.726562 228.636719 73.984375 229.125 74.496094 C 229.613281 75.007812 229.859375 75.785156 229.859375 76.828125 Z M 229.859375 76.828125 "/>
<path style=" stroke:none;fill-rule:nonzero;fill:rgb(0%,0%,0%);fill-opacity:1;" d="M 232.171875 73.890625 L 233.292969 73.890625 L 233.292969 80.726562 L 232.171875 80.726562 Z M 232.171875 71.226562 L 233.292969 71.226562 L 233.292969 72.652344 L 232.171875 72.652344 Z M 232.171875 71.226562 "/>
<path style=" stroke:none;fill-rule:nonzero;fill:rgb(0%,0%,0%);fill-opacity:1;" d="M 241.328125 76.601562 L 241.328125 80.726562 L 240.203125 80.726562 L 240.203125 76.636719 C 240.203125 75.988281 240.078125 75.507812 239.824219 75.1875 C 239.574219 74.863281 239.195312 74.703125 238.691406 74.703125 C 238.082031 74.703125 237.605469 74.898438 237.253906 75.28125 C 236.90625 75.667969 236.730469 76.195312 236.730469 76.863281 L 236.730469 80.726562 L 235.601562 80.726562 L 235.601562 73.890625 L 236.730469 73.890625 L 236.730469 74.953125 C 237 74.542969 237.316406 74.234375 237.679688 74.03125 C 238.042969 73.828125 238.464844 73.726562 238.941406 73.726562 C 239.726562 73.726562 240.320312 73.96875 240.722656 74.453125 C 241.125 74.941406 241.328125 75.65625 241.328125 76.601562 Z M 241.328125 76.601562 "/>
<path style=" stroke:none;fill-rule:nonzero;fill:rgb(0%,0%,0%);fill-opacity:1;" d="M 247.539062 71.226562 L 248.664062 71.226562 L 248.664062 80.726562 L 247.539062 80.726562 Z M 247.539062 71.226562 "/>
<path style=" stroke:none;fill-rule:nonzero;fill:rgb(0%,0%,0%);fill-opacity:1;" d="M 253.660156 74.679688 C 253.058594 74.679688 252.582031 74.914062 252.234375 75.382812 C 251.882812 75.851562 251.707031 76.496094 251.707031 77.3125 C 251.707031 78.132812 251.882812 78.777344 252.230469 79.246094 C 252.578125 79.714844 253.054688 79.953125 253.660156 79.953125 C 254.261719 79.953125 254.734375 79.714844 255.082031 79.242188 C 255.433594 78.773438 255.609375 78.128906 255.609375 77.3125 C 255.609375 76.503906 255.433594 75.863281 255.082031 75.390625 C 254.734375 74.914062 254.261719 74.679688 253.660156 74.679688 Z M 253.660156 73.726562 C 254.636719 73.726562 255.40625 74.042969 255.960938 74.679688 C 256.519531 75.3125 256.800781 76.191406 256.800781 77.3125 C 256.800781 78.433594 256.519531 79.3125 255.960938 79.949219 C 255.40625 80.585938 254.636719 80.90625 253.660156 80.90625 C 252.679688 80.90625 251.914062 80.585938 251.355469 79.949219 C 250.800781 79.3125 250.523438 78.433594 250.523438 77.3125 C 250.523438 76.191406 250.800781 75.3125 251.355469 74.679688 C 251.914062 74.042969 252.679688 73.726562 253.660156 73.726562 Z M 253.660156 73.726562 "/>
<path style=" stroke:none;fill-rule:nonzero;fill:rgb(0%,0%,0%);fill-opacity:1;" d="M 263.015625 74.09375 L 263.015625 75.15625 C 262.703125 74.992188 262.371094 74.871094 262.03125 74.789062 C 261.6875 74.707031 261.335938 74.664062 260.96875 74.664062 C 260.410156 74.664062 259.992188 74.75 259.710938 74.921875 C 259.433594 75.09375 259.296875 75.347656 259.296875 75.691406 C 259.296875 75.953125 259.394531 76.15625 259.59375 76.304688 C 259.792969 76.453125 260.195312 76.59375 260.796875 76.726562 L 261.179688 76.8125 C 261.976562 76.984375 262.546875 77.226562 262.882812 77.539062 C 263.21875 77.847656 263.382812 78.28125 263.382812 78.839844 C 263.382812 79.476562 263.132812 79.976562 262.632812 80.351562 C 262.128906 80.71875 261.4375 80.90625 260.558594 80.90625 C 260.191406 80.90625 259.8125 80.867188 259.414062 80.796875 C 259.015625 80.726562 258.597656 80.617188 258.160156 80.476562 L 258.160156 79.316406 C 258.574219 79.53125 258.984375 79.695312 259.386719 79.804688 C 259.789062 79.910156 260.1875 79.960938 260.585938 79.960938 C 261.113281 79.960938 261.519531 79.871094 261.804688 79.691406 C 262.085938 79.511719 262.230469 79.253906 262.230469 78.925781 C 262.230469 78.621094 262.128906 78.386719 261.921875 78.226562 C 261.71875 78.0625 261.265625 77.90625 260.570312 77.753906 L 260.179688 77.664062 C 259.484375 77.515625 258.980469 77.292969 258.671875 76.988281 C 258.363281 76.683594 258.210938 76.269531 258.210938 75.742188 C 258.210938 75.097656 258.4375 74.601562 258.890625 74.25 C 259.347656 73.902344 259.996094 73.726562 260.835938 73.726562 C 261.25 73.726562 261.636719 73.757812 262.003906 73.820312 C 262.371094 73.878906 262.710938 73.96875 263.015625 74.09375 Z M 263.015625 74.09375 "/>
<path style=" stroke:none;fill-rule:nonzero;fill:rgb(0%,0%,0%);fill-opacity:1;" d="M 269.53125 74.09375 L 269.53125 75.15625 C 269.214844 74.992188 268.882812 74.871094 268.542969 74.789062 C 268.199219 74.707031 267.847656 74.664062 267.480469 74.664062 C 266.921875 74.664062 266.503906 74.75 266.226562 74.921875 C 265.945312 75.09375 265.808594 75.347656 265.808594 75.691406 C 265.808594 75.953125 265.90625 76.15625 266.105469 76.304688 C 266.304688 76.453125 266.707031 76.59375 267.308594 76.726562 L 267.695312 76.8125 C 268.492188 76.984375 269.058594 77.226562 269.394531 77.539062 C 269.730469 77.847656 269.898438 78.28125 269.898438 78.839844 C 269.898438 79.476562 269.644531 79.976562 269.144531 80.351562 C 268.640625 80.71875 267.949219 80.90625 267.070312 80.90625 C 266.707031 80.90625 266.324219 80.867188 265.925781 80.796875 C 265.53125 80.726562 265.113281 80.617188 264.671875 80.476562 L 264.671875 79.316406 C 265.089844 79.53125 265.496094 79.695312 265.898438 79.804688 C 266.300781 79.910156 266.699219 79.960938 267.097656 79.960938 C 267.625 79.960938 268.03125 79.871094 268.316406 79.691406 C 268.601562 79.511719 268.742188 79.253906 268.742188 78.925781 C 268.742188 78.621094 268.640625 78.386719 268.433594 78.226562 C 268.230469 78.0625 267.78125 77.90625 267.082031 77.753906 L 266.691406 77.664062 C 265.996094 77.515625 265.496094 77.292969 265.183594 76.988281 C 264.875 76.683594 264.722656 76.269531 264.722656 75.742188 C 264.722656 75.097656 264.949219 74.601562 265.40625 74.25 C 265.859375 73.902344 266.507812 73.726562 267.347656 73.726562 C 267.761719 73.726562 268.152344 73.757812 268.515625 73.820312 C 268.882812 73.878906 269.222656 73.96875 269.53125 74.09375 Z M 269.53125 74.09375 "/>
<path style="fill:none;stroke-width:1.5;stroke-linecap:butt;stroke-linejoin:round;stroke:rgb(74.901961%,0%,74.901961%);stroke-opacity:1;stroke-dasharray:5.55,2.4;stroke-miterlimit:4;" d="M 142.634375 75.759375 L 162.634375 75.759375 " transform="matrix(1.25,0,0,1.25,0.000000000000028422,0)"/>
<path style=" stroke:none;fill-rule:nonzero;fill:rgb(0%,0%,0%);fill-opacity:1;" d="M 215.582031 90.296875 L 215.582031 92.238281 L 217.894531 92.238281 L 217.894531 93.109375 L 215.582031 93.109375 L 215.582031 96.820312 C 215.582031 97.378906 215.65625 97.738281 215.8125 97.898438 C 215.960938 98.054688 216.273438 98.132812 216.742188 98.132812 L 217.894531 98.132812 L 217.894531 99.074219 L 216.742188 99.074219 C 215.875 99.074219 215.277344 98.914062 214.945312 98.589844 C 214.617188 98.265625 214.453125 97.675781 214.453125 96.820312 L 214.453125 93.109375 L 213.628906 93.109375 L 213.628906 92.238281 L 214.453125 92.238281 L 214.453125 90.296875 Z M 215.582031 90.296875 "/>
<path style=" stroke:none;fill-rule:nonzero;fill:rgb(0%,0%,0%);fill-opacity:1;" d="M 223.332031 93.289062 C 223.207031 93.214844 223.070312 93.160156 222.921875 93.125 C 222.773438 93.09375 222.609375 93.074219 222.429688 93.074219 C 221.796875 93.074219 221.308594 93.28125 220.96875 93.695312 C 220.628906 94.105469 220.457031 94.699219 220.457031 95.472656 L 220.457031 99.074219 L 219.328125 99.074219 L 219.328125 92.238281 L 220.457031 92.238281 L 220.457031 93.300781 C 220.695312 92.886719 221.003906 92.578125 221.378906 92.375 C 221.757812 92.175781 222.21875 92.074219 222.761719 92.074219 C 222.835938 92.074219 222.921875 92.078125 223.015625 92.089844 C 223.109375 92.097656 223.214844 92.113281 223.328125 92.132812 Z M 223.332031 93.289062 "/>
<path style=" stroke:none;fill-rule:nonzero;fill:rgb(0%,0%,0%);fill-opacity:1;" d="M 227.617188 95.640625 C 226.710938 95.640625 226.082031 95.742188 225.730469 95.949219 C 225.382812 96.15625 225.207031 96.511719 225.207031 97.011719 C 225.207031 97.410156 225.335938 97.726562 225.601562 97.960938 C 225.863281 98.195312 226.21875 98.3125 226.671875 98.3125 C 227.292969 98.3125 227.792969 98.089844 228.171875 97.648438 C 228.546875 97.207031 228.734375 96.621094 228.734375 95.890625 L 228.734375 95.640625 Z M 229.859375 95.171875 L 229.859375 99.074219 L 228.734375 99.074219 L 228.734375 98.039062 C 228.480469 98.453125 228.160156 98.757812 227.777344 98.953125 C 227.394531 99.152344 226.925781 99.25 226.371094 99.25 C 225.671875 99.25 225.117188 99.054688 224.703125 98.664062 C 224.289062 98.269531 224.082031 97.742188 224.082031 97.085938 C 224.082031 96.316406 224.339844 95.734375 224.855469 95.34375 C 225.371094 94.953125 226.136719 94.757812 227.160156 94.757812 L 228.734375 94.757812 L 228.734375 94.648438 C 228.734375 94.132812 228.566406 93.730469 228.226562 93.449219 C 227.886719 93.167969 227.410156 93.023438 226.792969 93.023438 C 226.402344 93.023438 226.023438 93.070312 225.652344 93.164062 C 225.28125 93.257812 224.925781 93.398438 224.585938 93.585938 L 224.585938 92.546875 C 224.996094 92.390625 225.394531 92.273438 225.78125 92.195312 C 226.167969 92.113281 226.542969 92.074219 226.910156 92.074219 C 227.898438 92.074219 228.636719 92.332031 229.125 92.84375 C 229.613281 93.355469 229.859375 94.132812 229.859375 95.171875 Z M 229.859375 95.171875 "/>
<path style=" stroke:none;fill-rule:nonzero;fill:rgb(0%,0%,0%);fill-opacity:1;" d="M 232.171875 92.238281 L 233.292969 92.238281 L 233.292969 99.074219 L 232.171875 99.074219 Z M 232.171875 89.578125 L 233.292969 89.578125 L 233.292969 91 L 232.171875 91 Z M 232.171875 89.578125 "/>
<path style=" stroke:none;fill-rule:nonzero;fill:rgb(0%,0%,0%);fill-opacity:1;" d="M 241.328125 94.945312 L 241.328125 99.074219 L 240.203125 99.074219 L 240.203125 94.984375 C 240.203125 94.335938 240.078125 93.851562 239.824219 93.53125 C 239.574219 93.210938 239.195312 93.050781 238.691406 93.050781 C 238.082031 93.050781 237.605469 93.242188 237.253906 93.632812 C 236.90625 94.015625 236.730469 94.542969 236.730469 95.210938 L 236.730469 99.074219 L 235.601562 99.074219 L 235.601562 92.238281 L 236.730469 92.238281 L 236.730469 93.300781 C 237 92.890625 237.316406 92.582031 237.679688 92.378906 C 238.042969 92.175781 238.464844 92.074219 238.941406 92.074219 C 239.726562 92.074219 240.320312 92.316406 240.722656 92.804688 C 241.125 93.289062 241.328125 94.003906 241.328125 94.945312 Z M 241.328125 94.945312 "/>
<path style=" stroke:none;fill-rule:nonzero;fill:rgb(0%,0%,0%);fill-opacity:1;" d="M 250.648438 95.640625 C 249.738281 95.640625 249.109375 95.742188 248.761719 95.949219 C 248.410156 96.15625 248.234375 96.511719 248.234375 97.011719 C 248.234375 97.410156 248.367188 97.726562 248.628906 97.960938 C 248.890625 98.195312 249.25 98.3125 249.699219 98.3125 C 250.324219 98.3125 250.824219 98.089844 251.199219 97.648438 C 251.574219 97.207031 251.765625 96.621094 251.765625 95.890625 L 251.765625 95.640625 Z M 252.886719 95.171875 L 252.886719 99.074219 L 251.765625 99.074219 L 251.765625 98.039062 C 251.507812 98.453125 251.1875 98.757812 250.804688 98.953125 C 250.421875 99.152344 249.953125 99.25 249.402344 99.25 C 248.703125 99.25 248.144531 99.054688 247.730469 98.664062 C 247.316406 98.269531 247.113281 97.742188 247.113281 97.085938 C 247.113281 96.316406 247.367188 95.734375 247.882812 95.34375 C 248.398438 94.953125 249.167969 94.757812 250.1875 94.757812 L 251.765625 94.757812 L 251.765625 94.648438 C 251.765625 94.132812 251.59375 93.730469 251.253906 93.449219 C 250.914062 93.167969 250.4375 93.023438 249.824219 93.023438 C 249.433594 93.023438 249.050781 93.070312 248.679688 93.164062 C 248.308594 93.257812 247.953125 93.398438 247.613281 93.585938 L 247.613281 92.546875 C 248.023438 92.390625 248.421875 92.273438 248.808594 92.195312 C 249.195312 92.113281 249.570312 92.074219 249.9375 92.074219 C 250.925781 92.074219 251.667969 92.332031 252.15625 92.84375 C 252.644531 93.355469 252.886719 94.132812 252.886719 95.171875 Z M 252.886719 95.171875 "/>
<path style=" stroke:none;fill-rule:nonzero;fill:rgb(0%,0%,0%);fill-opacity:1;" d="M 260.121094 92.5 L 260.121094 93.550781 C 259.800781 93.375 259.484375 93.242188 259.164062 93.15625 C 258.84375 93.070312 258.523438 93.023438 258.199219 93.023438 C 257.46875 93.023438 256.902344 93.257812 256.5 93.71875 C 256.097656 94.179688 255.894531 94.828125 255.894531 95.664062 C 255.894531 96.496094 256.097656 97.144531 256.5 97.609375 C 256.902344 98.070312 257.46875 98.296875 258.199219 98.296875 C 258.523438 98.296875 258.84375 98.253906 259.164062 98.167969 C 259.484375 98.082031 259.800781 97.949219 260.121094 97.773438 L 260.121094 98.8125 C 259.804688 98.957031 259.480469 99.066406 259.144531 99.140625 C 258.808594 99.214844 258.453125 99.25 258.074219 99.25 C 257.042969 99.25 256.226562 98.929688 255.621094 98.28125 C 255.015625 97.632812 254.710938 96.761719 254.710938 95.664062 C 254.710938 94.546875 255.015625 93.671875 255.628906 93.03125 C 256.242188 92.394531 257.082031 92.074219 258.148438 92.074219 C 258.492188 92.074219 258.832031 92.109375 259.160156 92.179688 C 259.488281 92.25 259.808594 92.359375 260.121094 92.5 Z M 260.121094 92.5 "/>
<path style=" stroke:none;fill-rule:nonzero;fill:rgb(0%,0%,0%);fill-opacity:1;" d="M 266.992188 92.5 L 266.992188 93.550781 C 266.675781 93.375 266.355469 93.242188 266.035156 93.15625 C 265.71875 93.070312 265.394531 93.023438 265.070312 93.023438 C 264.339844 93.023438 263.773438 93.257812 263.371094 93.71875 C 262.96875 94.179688 262.765625 94.828125 262.765625 95.664062 C 262.765625 96.496094 262.96875 97.144531 263.371094 97.609375 C 263.773438 98.070312 264.339844 98.296875 265.070312 98.296875 C 265.394531 98.296875 265.71875 98.253906 266.035156 98.167969 C 266.355469 98.082031 266.675781 97.949219 266.992188 97.773438 L 266.992188 98.8125 C 266.679688 98.957031 266.351562 99.066406 266.015625 99.140625 C 265.683594 99.214844 265.324219 99.25 264.945312 99.25 C 263.917969 99.25 263.097656 98.929688 262.492188 98.28125 C 261.886719 97.632812 261.582031 96.761719 261.582031 95.664062 C 261.582031 94.546875 261.890625 93.671875 262.5 93.03125 C 263.113281 92.394531 263.953125 92.074219 265.019531 92.074219 C 265.367188 92.074219 265.703125 92.109375 266.03125 92.179688 C 266.363281 92.25 266.683594 92.359375 266.992188 92.5 Z M 266.992188 92.5 "/>
<path style="fill:none;stroke-width:1.5;stroke-linecap:butt;stroke-linejoin:round;stroke:rgb(0%,50.196078%,0%);stroke-opacity:1;stroke-dasharray:9.6,2.4,1.5,2.4;stroke-miterlimit:4;" d="M 142.634375 90.4375 L 162.634375 90.4375 " transform="matrix(1.25,0,0,1.25,0.000000000000028422,0)"/>
<path style=" stroke:none;fill-rule:nonzero;fill:rgb(0%,0%,0%);fill-opacity:1;" d="M 215.582031 108.644531 L 215.582031 110.585938 L 217.894531 110.585938 L 217.894531 111.460938 L 215.582031 111.460938 L 215.582031 115.171875 C 215.582031 115.726562 215.65625 116.085938 215.8125 116.242188 C 215.960938 116.402344 216.273438 116.484375 216.742188 116.484375 L 217.894531 116.484375 L 217.894531 117.421875 L 216.742188 117.421875 C 215.875 117.421875 215.277344 117.261719 214.945312 116.9375 C 214.617188 116.613281 214.453125 116.023438 214.453125 115.171875 L 214.453125 111.460938 L 213.628906 111.460938 L 213.628906 110.585938 L 214.453125 110.585938 L 214.453125 108.644531 Z M 215.582031 108.644531 "/>
<path style=" stroke:none;fill-rule:nonzero;fill:rgb(0%,0%,0%);fill-opacity:1;" d="M 225.21875 113.722656 L 225.21875 114.273438 L 220.054688 114.273438 C 220.105469 115.046875 220.339844 115.632812 220.753906 116.039062 C 221.171875 116.445312 221.753906 116.648438 222.496094 116.648438 C 222.929688 116.648438 223.347656 116.59375 223.75 116.488281 C 224.15625 116.382812 224.558594 116.222656 224.957031 116.011719 L 224.957031 117.074219 C 224.554688 117.246094 224.140625 117.375 223.71875 117.464844 C 223.292969 117.554688 222.867188 117.601562 222.429688 117.601562 C 221.339844 117.601562 220.476562 117.28125 219.839844 116.648438 C 219.203125 116.011719 218.882812 115.152344 218.882812 114.070312 C 218.882812 112.953125 219.1875 112.0625 219.789062 111.40625 C 220.394531 110.75 221.210938 110.421875 222.234375 110.421875 C 223.15625 110.421875 223.882812 110.71875 224.417969 111.3125 C 224.953125 111.902344 225.21875 112.707031 225.21875 113.722656 Z M 224.097656 113.390625 C 224.089844 112.78125 223.917969 112.289062 223.582031 111.921875 C 223.246094 111.554688 222.800781 111.375 222.246094 111.375 C 221.621094 111.375 221.121094 111.550781 220.742188 111.90625 C 220.367188 112.257812 220.148438 112.757812 220.09375 113.398438 Z M 224.097656 113.390625 "/>
<path style=" stroke:none;fill-rule:nonzero;fill:rgb(0%,0%,0%);fill-opacity:1;" d="M 231.417969 110.789062 L 231.417969 111.851562 C 231.101562 111.6875 230.773438 111.566406 230.429688 111.484375 C 230.089844 111.402344 229.734375 111.359375 229.367188 111.359375 C 228.8125 111.359375 228.394531 111.445312 228.113281 111.617188 C 227.835938 111.789062 227.695312 112.042969 227.695312 112.386719 C 227.695312 112.648438 227.796875 112.851562 227.996094 113 C 228.195312 113.148438 228.597656 113.289062 229.199219 113.421875 L 229.582031 113.507812 C 230.378906 113.679688 230.945312 113.921875 231.28125 114.234375 C 231.617188 114.542969 231.785156 114.976562 231.785156 115.535156 C 231.785156 116.171875 231.535156 116.671875 231.03125 117.046875 C 230.53125 117.414062 229.839844 117.601562 228.960938 117.601562 C 228.59375 117.601562 228.214844 117.5625 227.816406 117.492188 C 227.417969 117.421875 227 117.3125 226.5625 117.171875 L 226.5625 116.011719 C 226.976562 116.226562 227.386719 116.390625 227.789062 116.5 C 228.191406 116.605469 228.589844 116.65625 228.984375 116.65625 C 229.515625 116.65625 229.921875 116.566406 230.203125 116.386719 C 230.488281 116.207031 230.632812 115.949219 230.632812 115.621094 C 230.632812 115.316406 230.53125 115.082031 230.324219 114.921875 C 230.121094 114.757812 229.667969 114.601562 228.972656 114.449219 L 228.582031 114.359375 C 227.886719 114.210938 227.382812 113.988281 227.074219 113.683594 C 226.765625 113.378906 226.609375 112.964844 226.609375 112.4375 C 226.609375 111.792969 226.839844 111.296875 227.292969 110.945312 C 227.75 110.597656 228.398438 110.421875 229.234375 110.421875 C 229.648438 110.421875 230.039062 110.453125 230.40625 110.515625 C 230.773438 110.574219 231.109375 110.664062 231.417969 110.789062 Z M 231.417969 110.789062 "/>
<path style=" stroke:none;fill-rule:nonzero;fill:rgb(0%,0%,0%);fill-opacity:1;" d="M 234.6875 108.644531 L 234.6875 110.585938 L 237 110.585938 L 237 111.460938 L 234.6875 111.460938 L 234.6875 115.171875 C 234.6875 115.726562 234.761719 116.085938 234.914062 116.242188 C 235.066406 116.402344 235.378906 116.484375 235.847656 116.484375 L 237 116.484375 L 237 117.421875 L 235.847656 117.421875 C 234.980469 117.421875 234.378906 117.261719 234.050781 116.9375 C 233.722656 116.613281 233.558594 116.023438 233.558594 115.171875 L 233.558594 111.460938 L 232.734375 111.460938 L 232.734375 110.585938 L 233.558594 110.585938 L 233.558594 108.644531 Z M 234.6875 108.644531 "/>
<path style=" stroke:none;fill-rule:nonzero;fill:rgb(0%,0%,0%);fill-opacity:1;" d="M 245.554688 113.984375 C 244.648438 113.984375 244.019531 114.089844 243.671875 114.296875 C 243.320312 114.503906 243.144531 114.859375 243.144531 115.359375 C 243.144531 115.757812 243.277344 116.074219 243.539062 116.308594 C 243.800781 116.542969 244.160156 116.65625 244.609375 116.65625 C 245.234375 116.65625 245.734375 116.4375 246.109375 115.996094 C 246.484375 115.554688 246.671875 114.96875 246.671875 114.234375 L 246.671875 113.984375 Z M 247.796875 113.523438 L 247.796875 117.421875 L 246.671875 117.421875 L 246.671875 116.382812 C 246.417969 116.796875 246.097656 117.105469 245.714844 117.304688 C 245.332031 117.5 244.863281 117.601562 244.3125 117.601562 C 243.609375 117.601562 243.054688 117.402344 242.640625 117.007812 C 242.226562 116.617188 242.023438 116.089844 242.023438 115.429688 C 242.023438 114.664062 242.277344 114.085938 242.792969 113.695312 C 243.308594 113.304688 244.078125 113.109375 245.097656 113.109375 L 246.671875 113.109375 L 246.671875 112.996094 C 246.671875 112.480469 246.503906 112.078125 246.164062 111.796875 C 245.824219 111.515625 245.347656 111.375 244.734375 111.375 C 244.34375 111.375 243.960938 111.421875 243.589844 111.515625 C 243.21875 111.609375 242.863281 111.75 242.523438 111.9375 L 242.523438 110.898438 C 242.933594 110.738281 243.332031 110.617188 243.71875 110.539062 C 244.105469 110.460938 244.480469 110.421875 244.847656 110.421875 C 245.835938 110.421875 246.578125 110.679688 247.0625 111.191406 C 247.554688 111.703125 247.796875 112.480469 247.796875 113.523438 Z M 247.796875 113.523438 "/>
<path style=" stroke:none;fill-rule:nonzero;fill:rgb(0%,0%,0%);fill-opacity:1;" d="M 255.027344 110.847656 L 255.027344 111.898438 C 254.710938 111.722656 254.394531 111.589844 254.074219 111.503906 C 253.753906 111.417969 253.433594 111.375 253.105469 111.375 C 252.378906 111.375 251.8125 111.605469 251.40625 112.066406 C 251.003906 112.527344 250.804688 113.175781 250.804688 114.007812 C 250.804688 114.84375 251.003906 115.492188 251.40625 115.953125 C 251.8125 116.414062 252.378906 116.648438 253.105469 116.648438 C 253.433594 116.648438 253.753906 116.601562 254.074219 116.515625 C 254.394531 116.429688 254.710938 116.296875 255.027344 116.121094 L 255.027344 117.160156 C 254.714844 117.304688 254.390625 117.414062 254.054688 117.488281 C 253.71875 117.5625 253.363281 117.601562 252.984375 117.601562 C 251.953125 117.601562 251.136719 117.277344 250.527344 116.628906 C 249.921875 115.980469 249.621094 115.109375 249.621094 114.007812 C 249.621094 112.894531 249.925781 112.019531 250.539062 111.382812 C 251.152344 110.742188 251.992188 110.421875 253.058594 110.421875 C 253.402344 110.421875 253.742188 110.457031 254.070312 110.53125 C 254.398438 110.601562 254.71875 110.707031 255.027344 110.847656 Z M 255.027344 110.847656 "/>
<path style=" stroke:none;fill-rule:nonzero;fill:rgb(0%,0%,0%);fill-opacity:1;" d="M 261.902344 110.847656 L 261.902344 111.898438 C 261.582031 111.722656 261.265625 111.589844 260.945312 111.503906 C 260.628906 111.417969 260.304688 111.375 259.980469 111.375 C 259.25 111.375 258.683594 111.605469 258.28125 112.066406 C 257.878906 112.527344 257.675781 113.175781 257.675781 114.007812 C 257.675781 114.84375 257.878906 115.492188 258.28125 115.953125 C 258.683594 116.414062 259.25 116.648438 259.980469 116.648438 C 260.304688 116.648438 260.628906 116.601562 260.945312 116.515625 C 261.265625 116.429688 261.582031 116.296875 261.902344 116.121094 L 261.902344 117.160156 C 261.585938 117.304688 261.261719 117.414062 260.925781 117.488281 C 260.59375 117.5625 260.234375 117.601562 259.855469 117.601562 C 258.828125 117.601562 258.007812 117.277344 257.402344 116.628906 C 256.796875 115.980469 256.492188 115.109375 256.492188 114.007812 C 256.492188 112.894531 256.800781 112.019531 257.410156 111.382812 C 258.023438 110.742188 258.863281 110.421875 259.929688 110.421875 C 260.277344 110.421875 260.613281 110.457031 260.941406 110.53125 C 261.273438 110.601562 261.589844 110.707031 261.902344 110.847656 Z M 261.902344 110.847656 "/>
</g>
</svg>
